<?xml version="1.0" encoding="UTF-8"?>
<svg xmlns="http://www.w3.org/2000/svg" viewBox="0 0 500 500">
  <defs>
    <style>
      .cls-1, .cls-2, .cls-3, .cls-4, .cls-5, .cls-6, .cls-7, .cls-8 {
        isolation: isolate;
      }

      .cls-1, .cls-8 {
        opacity: .4;
      }

      .cls-2, .cls-7 {
        opacity: .6;
      }

      .cls-3, .cls-6 {
        opacity: .2;
      }

      .cls-9 {
        stroke-linecap: round;
        stroke-linejoin: round;
      }

      .cls-9, .cls-10 {
        fill: none;
        stroke: #407bff;
      }

      .cls-11 {
        fill: #ebebeb;
      }

      .cls-12 {
        fill: #407bff;
      }

      .cls-10 {
        stroke-miterlimit: 10;
      }

      .cls-13 {
        fill: #263238;
      }

      .cls-14, .cls-4, .cls-5, .cls-6, .cls-7, .cls-8 {
        fill: #fff;
      }

      .cls-15 {
        fill: #fafafa;
      }

      .cls-16 {
        fill: #eec1bb;
      }

      .cls-17 {
        fill: #f5f5f5;
      }

      .cls-18 {
        fill: #f0f0f0;
      }

      .cls-19 {
        fill: #d4827d;
      }

      .cls-20 {
        fill: #de5753;
      }

      .cls-21 {
        fill: #e0e0e0;
      }

      .cls-4 {
        opacity: .7;
      }

      .cls-5 {
        opacity: .3;
      }
    </style>
  </defs>
  <g id="Background_Complete" data-name="Background Complete">
    <g>
      <rect class="cls-11" y="382.4" width="500" height=".25"/>
      <rect class="cls-11" x="416.78" y="398.49" width="33.12" height=".25"/>
      <rect class="cls-11" x="322.53" y="401.21" width="8.69" height=".25"/>
      <rect class="cls-11" x="396.59" y="389.21" width="19.19" height=".25"/>
      <rect class="cls-11" x="52.46" y="390.89" width="43.19" height=".25"/>
      <rect class="cls-11" x="104.56" y="390.89" width="6.33" height=".25"/>
      <rect class="cls-11" x="131.47" y="395.11" width="93.68" height=".25"/>
      <path class="cls-11" d="M237.01,337.8H43.91c-3.15,0-5.71-2.56-5.71-5.71V60.66c0-3.15,2.56-5.71,5.71-5.71h193.1c3.15,0,5.71,2.56,5.71,5.71v271.43c0,3.15-2.56,5.71-5.71,5.71ZM43.91,55.2c-3.01,0-5.46,2.45-5.46,5.46v271.43c0,3.01,2.45,5.46,5.46,5.46h193.1c3.01,0,5.46-2.45,5.46-5.46V60.66c0-3.01-2.45-5.46-5.46-5.46H43.91Z"/>
      <path class="cls-11" d="M453.31,337.8h-193.1c-3.15,0-5.71-2.56-5.71-5.71V60.66c0-3.15,2.56-5.71,5.71-5.71h193.1c3.15,0,5.71,2.56,5.71,5.71v271.43c0,3.15-2.56,5.71-5.71,5.71ZM260.21,55.2c-3.01,0-5.46,2.45-5.46,5.46v271.43c0,3.01,2.45,5.46,5.46,5.46h193.1c3.01,0,5.46-2.45,5.46-5.46V60.66c0-3.01-2.45-5.46-5.46-5.46h-193.1Z"/>
    </g>
    <g>
      <g>
        <g>
          <rect class="cls-15" x="281.05" y="97.89" width="68.09" height="232.07" transform="translate(630.2 427.85) rotate(180)"/>
          <rect class="cls-18" x="279.48" y="94.74" width="71.24" height="11.39" transform="translate(630.2 200.87) rotate(180)"/>
          <g>
            <rect class="cls-18" x="279.48" y="107.39" width="71.24" height="5.69" transform="translate(630.2 220.47) rotate(180)"/>
            <rect class="cls-18" x="279.48" y="115.84" width="71.24" height="5.69" transform="translate(630.2 237.37) rotate(180)"/>
            <rect class="cls-18" x="279.48" y="124.29" width="71.24" height="5.69" transform="translate(630.2 254.28) rotate(180)"/>
            <rect class="cls-18" x="279.48" y="132.74" width="71.24" height="5.69" transform="translate(630.2 271.18) rotate(180)"/>
            <rect class="cls-18" x="279.48" y="141.19" width="71.24" height="5.69" transform="translate(630.2 288.08) rotate(180)"/>
            <rect class="cls-18" x="279.48" y="149.64" width="71.24" height="5.69" transform="translate(630.2 304.98) rotate(180)"/>
            <rect class="cls-18" x="279.48" y="158.09" width="71.24" height="5.69" transform="translate(630.2 321.88) rotate(180)"/>
            <rect class="cls-18" x="279.48" y="166.54" width="71.24" height="5.69" transform="translate(630.2 338.78) rotate(180)"/>
            <rect class="cls-18" x="279.48" y="175" width="71.24" height="5.69" transform="translate(630.2 355.69) rotate(180)"/>
            <rect class="cls-18" x="279.48" y="183.45" width="71.24" height="5.69" transform="translate(630.2 372.59) rotate(180)"/>
            <rect class="cls-18" x="279.48" y="191.9" width="71.24" height="5.69" transform="translate(630.2 389.49) rotate(180)"/>
            <rect class="cls-18" x="279.48" y="200.35" width="71.24" height="5.69" transform="translate(630.2 406.39) rotate(180)"/>
            <rect class="cls-18" x="279.48" y="208.8" width="71.24" height="5.69" transform="translate(630.2 423.29) rotate(180)"/>
            <rect class="cls-18" x="279.48" y="217.25" width="71.24" height="5.69" transform="translate(630.2 440.19) rotate(180)"/>
            <rect class="cls-18" x="279.48" y="225.7" width="71.24" height="5.69" transform="translate(630.2 457.1) rotate(180)"/>
            <rect class="cls-18" x="279.48" y="234.15" width="71.24" height="5.69" transform="translate(630.2 474) rotate(180)"/>
            <rect class="cls-18" x="279.48" y="242.6" width="71.24" height="5.69" transform="translate(630.2 490.9) rotate(180)"/>
            <rect class="cls-18" x="279.48" y="251.05" width="71.24" height="5.69" transform="translate(630.2 507.8) rotate(180)"/>
            <rect class="cls-18" x="279.48" y="259.5" width="71.24" height="5.69" transform="translate(630.2 524.7) rotate(180)"/>
            <rect class="cls-18" x="279.48" y="267.96" width="71.24" height="5.69" transform="translate(630.2 541.61) rotate(180)"/>
            <rect class="cls-18" x="279.48" y="276.41" width="71.24" height="5.69" transform="translate(630.2 558.51) rotate(180)"/>
            <rect class="cls-18" x="279.48" y="284.86" width="71.24" height="5.69" transform="translate(630.2 575.41) rotate(180)"/>
            <rect class="cls-18" x="279.48" y="293.31" width="71.24" height="5.69" transform="translate(630.2 592.31) rotate(180)"/>
            <rect class="cls-18" x="279.48" y="301.76" width="71.24" height="5.69" transform="translate(630.2 609.21) rotate(180)"/>
            <rect class="cls-18" x="279.48" y="310.21" width="71.24" height="5.69" transform="translate(630.2 626.11) rotate(180)"/>
            <rect class="cls-18" x="279.48" y="318.66" width="71.24" height="5.69" transform="translate(630.2 643.02) rotate(180)"/>
            <rect class="cls-18" x="279.48" y="327.11" width="71.24" height="5.69" transform="translate(630.2 659.92) rotate(180)"/>
          </g>
        </g>
        <g>
          <rect class="cls-15" x="366.16" y="97.89" width="68.09" height="232.07" transform="translate(800.41 427.85) rotate(180)"/>
          <rect class="cls-18" x="364.59" y="94.74" width="71.24" height="11.39" transform="translate(800.41 200.87) rotate(180)"/>
          <g>
            <rect class="cls-18" x="364.59" y="107.39" width="71.24" height="5.69" transform="translate(800.41 220.47) rotate(180)"/>
            <rect class="cls-18" x="364.59" y="115.84" width="71.24" height="5.69" transform="translate(800.41 237.37) rotate(180)"/>
            <rect class="cls-18" x="364.59" y="124.29" width="71.24" height="5.69" transform="translate(800.41 254.28) rotate(180)"/>
            <rect class="cls-18" x="364.59" y="132.74" width="71.24" height="5.69" transform="translate(800.41 271.18) rotate(180)"/>
            <rect class="cls-18" x="364.59" y="141.19" width="71.24" height="5.69" transform="translate(800.41 288.08) rotate(180)"/>
            <rect class="cls-18" x="364.59" y="149.64" width="71.24" height="5.69" transform="translate(800.41 304.98) rotate(180)"/>
            <rect class="cls-18" x="364.59" y="158.09" width="71.24" height="5.69" transform="translate(800.41 321.88) rotate(180)"/>
            <rect class="cls-18" x="364.59" y="166.54" width="71.24" height="5.69" transform="translate(800.41 338.78) rotate(180)"/>
            <rect class="cls-18" x="364.59" y="175" width="71.24" height="5.69" transform="translate(800.41 355.69) rotate(180)"/>
            <rect class="cls-18" x="364.59" y="183.45" width="71.24" height="5.69" transform="translate(800.41 372.59) rotate(180)"/>
            <rect class="cls-18" x="364.59" y="191.9" width="71.24" height="5.69" transform="translate(800.41 389.49) rotate(180)"/>
            <rect class="cls-18" x="364.59" y="200.35" width="71.24" height="5.69" transform="translate(800.41 406.39) rotate(180)"/>
            <rect class="cls-18" x="364.59" y="208.8" width="71.24" height="5.69" transform="translate(800.41 423.29) rotate(180)"/>
            <rect class="cls-18" x="364.59" y="217.25" width="71.24" height="5.69" transform="translate(800.41 440.19) rotate(180)"/>
            <rect class="cls-18" x="364.59" y="225.7" width="71.24" height="5.69" transform="translate(800.41 457.1) rotate(180)"/>
            <rect class="cls-18" x="364.59" y="234.15" width="71.24" height="5.69" transform="translate(800.41 474) rotate(180)"/>
            <rect class="cls-18" x="364.59" y="242.6" width="71.24" height="5.69" transform="translate(800.41 490.9) rotate(180)"/>
            <rect class="cls-18" x="364.59" y="251.05" width="71.24" height="5.69" transform="translate(800.41 507.8) rotate(180)"/>
            <rect class="cls-18" x="364.59" y="259.5" width="71.24" height="5.69" transform="translate(800.41 524.7) rotate(180)"/>
            <rect class="cls-18" x="364.59" y="267.96" width="71.24" height="5.69" transform="translate(800.41 541.61) rotate(180)"/>
            <rect class="cls-18" x="364.59" y="276.41" width="71.24" height="5.69" transform="translate(800.41 558.51) rotate(180)"/>
            <rect class="cls-18" x="364.59" y="284.86" width="71.24" height="5.69" transform="translate(800.41 575.41) rotate(180)"/>
            <rect class="cls-18" x="364.59" y="293.31" width="71.24" height="5.69" transform="translate(800.41 592.31) rotate(180)"/>
            <rect class="cls-18" x="364.59" y="301.76" width="71.24" height="5.69" transform="translate(800.41 609.21) rotate(180)"/>
            <rect class="cls-18" x="364.59" y="310.21" width="71.24" height="5.69" transform="translate(800.41 626.11) rotate(180)"/>
            <rect class="cls-18" x="364.59" y="318.66" width="71.24" height="5.69" transform="translate(800.41 643.02) rotate(180)"/>
            <rect class="cls-18" x="364.59" y="327.11" width="71.24" height="5.69" transform="translate(800.41 659.92) rotate(180)"/>
          </g>
        </g>
        <g>
          <rect class="cls-15" x="154.54" y="99.31" width="68.09" height="232.07" transform="translate(377.17 430.69) rotate(180)"/>
          <rect class="cls-18" x="152.97" y="96.16" width="71.24" height="11.39" transform="translate(377.17 203.71) rotate(180)"/>
          <g>
            <rect class="cls-18" x="152.97" y="108.81" width="71.24" height="1.05" transform="translate(377.17 218.67) rotate(180)"/>
            <rect class="cls-18" x="152.97" y="111.19" width="71.24" height="1.05" transform="translate(377.17 223.43) rotate(180)"/>
            <rect class="cls-18" x="152.97" y="113.57" width="71.24" height="1.05" transform="translate(377.17 228.18) rotate(180)"/>
            <rect class="cls-18" x="152.97" y="115.95" width="71.24" height="1.05" transform="translate(377.17 232.94) rotate(180)"/>
            <rect class="cls-18" x="152.97" y="118.32" width="71.24" height="1.05" transform="translate(377.17 237.69) rotate(180)"/>
            <rect class="cls-18" x="152.97" y="120.7" width="71.24" height="1.05" transform="translate(377.17 242.45) rotate(180)"/>
            <rect class="cls-18" x="152.97" y="123.08" width="71.24" height="1.05" transform="translate(377.17 247.2) rotate(180)"/>
            <rect class="cls-18" x="152.97" y="125.46" width="71.24" height="1.05" transform="translate(377.17 251.96) rotate(180)"/>
            <rect class="cls-18" x="152.97" y="127.83" width="71.24" height="1.05" transform="translate(377.17 256.72) rotate(180)"/>
            <rect class="cls-18" x="152.97" y="130.21" width="71.24" height="1.05" transform="translate(377.17 261.47) rotate(180)"/>
            <rect class="cls-18" x="152.97" y="132.59" width="71.24" height="1.05" transform="translate(377.17 266.23) rotate(180)"/>
            <rect class="cls-18" x="152.97" y="134.97" width="71.24" height="1.05" transform="translate(377.17 270.98) rotate(180)"/>
            <rect class="cls-18" x="152.97" y="137.34" width="71.24" height="1.05" transform="translate(377.17 275.74) rotate(180)"/>
            <rect class="cls-18" x="152.97" y="139.72" width="71.24" height="1.05" transform="translate(377.17 280.49) rotate(180)"/>
            <rect class="cls-18" x="152.97" y="142.1" width="71.24" height="1.05" transform="translate(377.17 285.25) rotate(180)"/>
            <rect class="cls-18" x="152.97" y="144.48" width="71.24" height="1.05" transform="translate(377.17 290) rotate(180)"/>
            <rect class="cls-18" x="152.97" y="146.86" width="71.24" height="1.05" transform="translate(377.17 294.76) rotate(180)"/>
            <rect class="cls-18" x="152.97" y="149.23" width="71.24" height="1.05" transform="translate(377.17 299.51) rotate(180)"/>
          </g>
        </g>
        <g>
          <rect class="cls-15" x="69.43" y="99.31" width="68.09" height="232.07" transform="translate(206.95 430.69) rotate(180)"/>
          <rect class="cls-18" x="67.86" y="96.16" width="71.24" height="11.39" transform="translate(206.95 203.71) rotate(180)"/>
          <g>
            <rect class="cls-18" x="67.86" y="108.81" width="71.24" height="1.05" transform="translate(206.95 218.67) rotate(180)"/>
            <rect class="cls-18" x="67.86" y="111.19" width="71.24" height="1.05" transform="translate(206.95 223.43) rotate(180)"/>
            <rect class="cls-18" x="67.86" y="113.57" width="71.24" height="1.05" transform="translate(206.95 228.18) rotate(180)"/>
            <rect class="cls-18" x="67.86" y="115.95" width="71.24" height="1.05" transform="translate(206.95 232.94) rotate(180)"/>
            <rect class="cls-18" x="67.86" y="118.32" width="71.24" height="1.05" transform="translate(206.95 237.69) rotate(180)"/>
            <rect class="cls-18" x="67.86" y="120.7" width="71.24" height="1.05" transform="translate(206.95 242.45) rotate(180)"/>
            <rect class="cls-18" x="67.86" y="123.08" width="71.24" height="1.05" transform="translate(206.95 247.2) rotate(180)"/>
            <rect class="cls-18" x="67.86" y="125.46" width="71.24" height="1.05" transform="translate(206.95 251.96) rotate(180)"/>
            <rect class="cls-18" x="67.86" y="127.83" width="71.24" height="1.05" transform="translate(206.95 256.72) rotate(180)"/>
            <rect class="cls-18" x="67.86" y="130.21" width="71.24" height="1.05" transform="translate(206.95 261.47) rotate(180)"/>
            <rect class="cls-18" x="67.86" y="132.59" width="71.24" height="1.05" transform="translate(206.95 266.23) rotate(180)"/>
            <rect class="cls-18" x="67.86" y="134.97" width="71.24" height="1.05" transform="translate(206.95 270.98) rotate(180)"/>
            <rect class="cls-18" x="67.86" y="137.34" width="71.24" height="1.05" transform="translate(206.95 275.74) rotate(180)"/>
            <rect class="cls-18" x="67.86" y="139.72" width="71.24" height="1.05" transform="translate(206.95 280.49) rotate(180)"/>
            <rect class="cls-18" x="67.86" y="142.1" width="71.24" height="1.05" transform="translate(206.95 285.25) rotate(180)"/>
            <rect class="cls-18" x="67.86" y="144.48" width="71.24" height="1.05" transform="translate(206.95 290) rotate(180)"/>
            <rect class="cls-18" x="67.86" y="146.86" width="71.24" height="1.05" transform="translate(206.95 294.76) rotate(180)"/>
            <rect class="cls-18" x="67.86" y="149.23" width="71.24" height="1.05" transform="translate(206.95 299.51) rotate(180)"/>
          </g>
        </g>
      </g>
      <g>
        <path class="cls-21" d="M251.2,360.3s-4.74-10.35.68-20.55,6.99-12.61,3.54-14.7c-3.45-2.09-5.04,8.16-5.04,8.16,0,0-2.91-7.05-.51-14.43s3.91-19.4.63-20.69c-3.28-1.29-.63,15-3.48,20.55,0,0-2.39-6.18-2.79-12.11-.39-5.93.22-15.4-2.37-17.82-2.59-2.43-4.25-.75-1.71,12.33,2.55,13.08,2.53,23.72,2.53,23.72,0,0-5.63-17.16-9.41-17.66s-3.77,5.06-.54,9.88c3.23,4.82,9.47,13.46,10.49,17.9,0,0-6.18-12.92-11.74-8.96s4.84,11.76,9.47,14.58c4.63,2.82,7.85,20.49,7.85,20.49l2.39-.68Z"/>
        <path class="cls-11" d="M247.46,364.54s4.62-10.42-.92-20.54c-5.54-10.12-7.14-12.5-3.71-14.64,3.43-2.14,5.14,8.09,5.14,8.09,0,0,2.83-7.1.33-14.44-2.49-7.34-4.14-19.34-.88-20.68,3.27-1.34.81,14.99,3.72,20.5,0,0,2.32-6.22,2.64-12.15.32-5.93-.41-15.39,2.16-17.86,2.56-2.47,4.25-.81,1.85,12.31-2.39,13.12-2.25,23.75-2.25,23.75,0,0,5.42-17.24,9.19-17.8,3.77-.56,3.83,5,.66,9.87-3.18,4.87-9.31,13.6-10.28,18.06,0,0,6.02-13.01,11.63-9.13,5.6,3.88-4.7,11.83-9.29,14.72s-7.6,20.6-7.6,20.6l-2.39-.65Z"/>
        <polygon class="cls-11" points="268.76 357.11 230.61 357.11 233.69 384.42 265.67 384.42 268.76 357.11"/>
      </g>
    </g>
  </g>
  <g id="Shadow">
    <ellipse id="_Path_" data-name="&amp;lt;Path&amp;gt;" class="cls-17" cx="250" cy="416.24" rx="193.89" ry="11.32"/>
  </g>
  <g id="Chair">
    <g>
      <path class="cls-13" d="M388.66,302.81s-24.75-5.01-48.64-2.58c-23.89,2.42,11.24,33.64,11.24,33.64h4.93s-18.62-19.79-17.58-24.72c1.04-4.93,47.92,1.57,47.92,1.57l2.12-7.91Z"/>
      <path class="cls-6" d="M388.66,302.81s-24.75-5.01-48.64-2.58c-23.89,2.42,11.24,33.64,11.24,33.64h4.93s-18.62-19.79-17.58-24.72c1.04-4.93,47.92,1.57,47.92,1.57l2.12-7.91Z"/>
      <path class="cls-13" d="M379.73,332.79s11.59-41.24,13.51-93.46c.23-6.23,5.37-11.16,11.61-11.16h20.82c6.4,0,11.59,5.16,11.62,11.56.08,18.97-1.24,61.54-11.94,93.06h-45.62Z"/>
      <path class="cls-8" d="M379.73,332.79s11.59-41.24,13.51-93.46c.23-6.23,5.37-11.16,11.61-11.16h20.82c6.4,0,11.59,5.16,11.62,11.56.08,18.97-1.24,61.54-11.94,93.06h-45.62Z"/>
      <path class="cls-12" d="M373.65,327.5c3.38-12.8,11-45.9,12.61-89.63.25-6.76,5.82-12.1,12.59-12.1h22.58c6.93,0,12.57,5.6,12.6,12.53.09,20.57-1.35,62.61-12.95,96.78l-42.97-1.58c-3.06-.11-5.23-3.03-4.45-6Z"/>
      <path class="cls-3" d="M373.65,327.5c3.38-12.8,11-45.9,12.61-89.63.25-6.76,5.82-12.1,12.59-12.1h22.58c6.93,0,12.57,5.6,12.6,12.53.09,20.57-1.35,62.61-12.95,96.78l-42.97-1.58c-3.06-.11-5.23-3.03-4.45-6Z"/>
      <path class="cls-12" d="M341.97,316.86h76.37v11.93c0,2.76-2.24,5-5,5h-66.37c-2.76,0-5-2.24-5-5v-11.93h0Z" transform="translate(760.32 650.65) rotate(180)"/>
      <path class="cls-13" d="M415.86,393.31l-24.47-2.41v-34.39h-9.7v34.38l-24.57,2.41c-2.44.24-4.3,2.29-4.3,4.74v3.67h67.34v-3.67c0-2.45-1.86-4.5-4.3-4.74Z"/>
      <path class="cls-8" d="M415.86,393.31l-24.47-2.41v-34.39h-9.7v34.38l-24.57,2.41c-2.44.24-4.3,2.29-4.3,4.74v3.67h67.34v-3.67c0-2.45-1.86-4.5-4.3-4.74Z"/>
      <path class="cls-13" d="M361.75,406.28c0,3.5-2.84,6.34-6.34,6.34s-6.34-2.84-6.34-6.34,2.84-6.34,6.34-6.34,6.34,2.84,6.34,6.34Z"/>
      <path class="cls-8" d="M355.41,409.62c-1.84,0-3.34-1.5-3.34-3.34s1.5-3.34,3.34-3.34,3.34,1.5,3.34,3.34-1.5,3.34-3.34,3.34Z"/>
      <path class="cls-13" d="M411.23,406.28c0,3.5,2.84,6.34,6.34,6.34s6.34-2.84,6.34-6.34-2.84-6.34-6.34-6.34-6.34,2.84-6.34,6.34Z"/>
      <path class="cls-8" d="M417.57,409.62c-1.84,0-3.34-1.5-3.34-3.34s1.5-3.34,3.34-3.34,3.34,1.5,3.34,3.34-1.5,3.34-3.34,3.34Z"/>
      <path class="cls-13" d="M380.02,333.27h13.04v26.5c0,2.28-1.85,4.13-4.13,4.13h-4.77c-2.28,0-4.13-1.85-4.13-4.13v-26.5h0Z"/>
      <path class="cls-6" d="M380.02,333.27h13.04v26.5c0,2.28-1.85,4.13-4.13,4.13h-4.77c-2.28,0-4.13-1.85-4.13-4.13v-26.5h0Z"/>
      <rect class="cls-13" x="339.25" y="331.82" width="86.91" height="4.96" rx="2.01" ry="2.01" transform="translate(765.42 668.61) rotate(180)"/>
      <g class="cls-1">
        <rect class="cls-14" x="339.25" y="331.82" width="86.91" height="4.96" rx="2.01" ry="2.01" transform="translate(765.42 668.61) rotate(180)"/>
      </g>
      <g>
        <path class="cls-13" d="M432.66,302.81s-24.75-5.01-48.64-2.58c-23.89,2.42,11.24,33.64,11.24,33.64h4.93s-18.62-19.79-17.58-24.72c1.04-4.93,47.92,1.57,47.92,1.57l2.12-7.91Z"/>
        <path class="cls-8" d="M432.66,302.81s-24.75-5.01-48.64-2.58c-23.89,2.42,11.24,33.64,11.24,33.64h4.93s-18.62-19.79-17.58-24.72c1.04-4.93,47.92,1.57,47.92,1.57l2.12-7.91Z"/>
      </g>
    </g>
  </g>
  <g id="Table">
    <g>
      <g>
        <path class="cls-13" d="M127.29,308.17v1.01h-15.24v-.77c0-1.85,1.92-3.37,4.38-3.47l.81-.03,5.16-.21c2.66-.11,4.89,1.47,4.89,3.47Z"/>
        <path class="cls-6" d="M120.27,308.17v1.01h-8.22v-.77c0-1.85,1.92-3.37,4.38-3.47l.81-.03c1.76.48,3.03,1.76,3.03,3.26Z"/>
      </g>
      <path class="cls-13" d="M251.56,412.57h1.53c.19,0,.35-.15.35-.35l2.42-93.89h-7.09s2.42,93.89,2.42,93.89c0,.19.16.35.35.35Z"/>
      <polygon class="cls-13" points="306.24 412.57 309.78 412.57 299.78 318.34 292.69 318.34 306.24 412.57"/>
      <polygon class="cls-13" points="77.98 412.57 77.98 412.57 91.56 318.34 84.48 318.34 74.48 412.57 77.98 412.57"/>
      <polygon class="cls-13" points="129.89 412.57 133.96 412.57 133.97 412.57 135.47 318.34 128.39 318.34 129.89 412.57"/>
      <g class="cls-1">
        <polygon class="cls-14" points="306.24 412.57 309.78 412.57 299.78 318.34 292.69 318.34 306.24 412.57"/>
      </g>
      <polygon class="cls-8" points="129.89 412.57 133.96 412.57 133.97 412.57 135.47 318.34 128.39 318.34 129.89 412.57"/>
      <g class="cls-3">
        <path class="cls-14" d="M251.56,412.57h1.53c.19,0,.35-.15.35-.35l2.42-93.89h-7.09s2.42,93.89,2.42,93.89c0,.19.16.35.35.35Z"/>
      </g>
      <polygon class="cls-6" points="77.98 412.57 77.98 412.57 91.56 318.34 84.48 318.34 74.48 412.57 77.98 412.57"/>
      <g>
        <path class="cls-13" d="M142.23,309.7h20.17l3.21-28.16c-.05-1.05-.92-1.88-1.97-1.88h-13.51c-1.05,0-1.92.83-1.97,1.88l-5.92,28.16Z"/>
        <path class="cls-13" d="M111.45,238.25h5.03l5.66,53.18h-5.03c-.83,0-1.58-.68-1.67-1.51l-5.34-50.16c-.09-.83.52-1.51,1.35-1.51Z"/>
        <path class="cls-13" d="M119.24,291.43h75.46c.83,0,1.44-.68,1.35-1.51l-5.34-50.16c-.09-.83-.84-1.51-1.67-1.51h-75.46c-.83,0-1.44.68-1.35,1.51l5.34,50.16c.09.83.84,1.51,1.67,1.51Z"/>
        <rect class="cls-13" x="140.38" y="307.51" width="26.99" height="2.19" rx=".96" ry=".96" transform="translate(307.75 617.22) rotate(180)"/>
        <path class="cls-6" d="M119.24,291.43h75.46c.83,0,1.44-.68,1.35-1.51l-5.34-50.16c-.09-.83-.84-1.51-1.67-1.51h-75.46c-.83,0-1.44.68-1.35,1.51l5.34,50.16c.09.83.84,1.51,1.67,1.51Z"/>
        <path class="cls-12" d="M120.65,286.52h71.16c.73,0,1.26-.59,1.18-1.32l-4.66-43.77c-.08-.73-.73-1.32-1.46-1.32h-71.16c-.73,0-1.26.59-1.18,1.32l4.66,43.77c.08.73.73,1.32,1.46,1.32Z"/>
        <rect class="cls-6" x="140.38" y="307.51" width="26.99" height="2.19" rx=".96" ry=".96" transform="translate(307.75 617.22) rotate(180)"/>
        <path class="cls-3" d="M120.65,286.52h71.16c.73,0,1.26-.59,1.18-1.32l-4.66-43.77c-.08-.73-.73-1.32-1.46-1.32h-71.16c-.73,0-1.26.59-1.18,1.32l4.66,43.77c.08.73.73,1.32,1.46,1.32Z"/>
      </g>
      <polygon class="cls-12" points="141.81 309.07 124.29 309.07 80.38 309.07 80.38 318.34 124.29 318.34 141.81 318.34 303.88 318.34 303.88 309.07 141.81 309.07"/>
      <g>
        <g>
          <path class="cls-12" d="M187.26,307.4h1.88c.2,0,.36-.16.36-.36v-1.99c0-.2-.16-.36-.36-.36h-1.35c-.16,0-.31.11-.35.27l-.53,1.99c-.06.23.11.45.35.45Z"/>
          <path class="cls-12" d="M184.66,307.4h1.88c.2,0,.36-.16.36-.36v-1.99c0-.2-.16-.36-.36-.36h-1.35c-.16,0-.31.11-.35.27l-.53,1.99c-.06.23.11.45.35.45Z"/>
          <path class="cls-12" d="M182.06,307.4h1.88c.2,0,.36-.16.36-.36v-1.99c0-.2-.16-.36-.36-.36h-1.35c-.16,0-.31.11-.35.27l-.53,1.99c-.06.23.11.45.35.45Z"/>
          <path class="cls-12" d="M179.46,307.4h1.88c.2,0,.36-.16.36-.36v-1.99c0-.2-.16-.36-.36-.36h-1.35c-.16,0-.31.11-.35.27l-.53,1.99c-.06.23.11.45.35.45Z"/>
          <path class="cls-12" d="M176.86,307.4h1.88c.2,0,.36-.16.36-.36v-1.99c0-.2-.16-.36-.36-.36h-1.35c-.16,0-.31.11-.35.27l-.53,1.99c-.06.23.11.45.35.45Z"/>
          <path class="cls-12" d="M174.26,307.4h1.88c.2,0,.36-.16.36-.36v-1.99c0-.2-.16-.36-.36-.36h-1.35c-.16,0-.31.11-.35.27l-.53,1.99c-.06.23.11.45.35.45Z"/>
          <path class="cls-12" d="M171.66,307.4h1.88c.2,0,.36-.16.36-.36v-1.99c0-.2-.16-.36-.36-.36h-1.35c-.16,0-.31.11-.35.27l-.53,1.99c-.06.23.11.45.35.45Z"/>
          <path class="cls-12" d="M169.06,307.4h1.88c.2,0,.36-.16.36-.36v-1.99c0-.2-.16-.36-.36-.36h-1.35c-.16,0-.31.11-.35.27l-.53,1.99c-.06.23.11.45.35.45Z"/>
          <path class="cls-12" d="M166.46,307.4h1.88c.2,0,.36-.16.36-.36v-1.99c0-.2-.16-.36-.36-.36h-1.35c-.16,0-.31.11-.35.27l-.53,1.99c-.06.23.11.45.35.45Z"/>
          <path class="cls-12" d="M163.86,307.4h1.88c.2,0,.36-.16.36-.36v-1.99c0-.2-.16-.36-.36-.36h-1.35c-.16,0-.31.11-.35.27l-.53,1.99c-.06.23.11.45.35.45Z"/>
          <path class="cls-12" d="M161.26,307.4h1.88c.2,0,.36-.16.36-.36v-1.99c0-.2-.16-.36-.36-.36h-1.35c-.16,0-.31.11-.35.27l-.53,1.99c-.06.23.11.45.35.45Z"/>
          <path class="cls-12" d="M158.66,307.4h1.88c.2,0,.36-.16.36-.36v-1.99c0-.2-.16-.36-.36-.36h-1.35c-.16,0-.31.11-.35.27l-.53,1.99c-.06.23.11.45.35.45Z"/>
          <path class="cls-12" d="M156.06,307.4h1.88c.2,0,.36-.16.36-.36v-1.99c0-.2-.16-.36-.36-.36h-1.35c-.16,0-.31.11-.35.27l-.53,1.99c-.06.23.11.45.35.45Z"/>
          <path class="cls-12" d="M153.45,307.4h1.88c.2,0,.36-.16.36-.36v-1.99c0-.2-.16-.36-.36-.36h-1.35c-.16,0-.31.11-.35.27l-.53,1.99c-.06.23.11.45.35.45Z"/>
          <path class="cls-12" d="M150.85,307.4h1.88c.2,0,.36-.16.36-.36v-1.99c0-.2-.16-.36-.36-.36h-1.35c-.16,0-.31.11-.35.27l-.53,1.99c-.06.23.11.45.35.45Z"/>
        </g>
        <rect class="cls-13" x="148.96" y="306.05" width="42.08" height="3.13" transform="translate(340 615.23) rotate(180)"/>
        <rect class="cls-6" x="148.96" y="306.05" width="42.08" height="3.13" transform="translate(340 615.23) rotate(180)"/>
        <rect class="cls-6" x="148.96" y="306.05" width="13.63" height="3.13" transform="translate(311.56 615.23) rotate(180)"/>
      </g>
      <rect class="cls-6" x="124.29" y="309.07" width="179.59" height="9.27" transform="translate(428.17 627.4) rotate(180)"/>
    </g>
  </g>
  <g id="Trash_bin" data-name="Trash bin">
    <g>
      <g>
        <path class="cls-12" d="M88.25,397.51c.62-1.03-.25-2.59-1.45-2.6.53-1.48,0-3.27-1.23-4.24-.16-.12-.34-.24-.53-.24-.21,0-.4.13-.57.25-1.13.81-2.27,1.63-3.4,2.44-.26.19-.53.38-.67.67-.69,1.35,1.81,3.07.78,4.18-.3.32-.77.38-1.14.62-.81.51-.91,1.62-1.28,2.49s-1.69,1.56-2.19.75c.37-.84-.75-1.56-1.66-1.67-.9-.11-1.87-.16-2.37-1.01-1.29,1.13-4.19-2.03-4.13-3.3-1.06.08-1.79,1.08-2.02,2.07-.24,1.03-.09,2.11-.11,3.17-.03,2.06-.7,4.08-.66,6.14.03,1.6.65,3.38,2.12,4.03.71.31,1.51.31,2.28.31,5.57-.04,11.15-.07,16.72-.11.4,0,.82,0,1.18-.2.75-.39.91-1.38.98-2.23.3-3.63.6-7.26.9-10.9-.5-.21-1.01-.41-1.51-.62Z"/>
        <path class="cls-5" d="M88.25,397.51c.62-1.03-.25-2.59-1.45-2.6.53-1.48,0-3.27-1.23-4.24-.16-.12-.34-.24-.53-.24-.21,0-.4.13-.57.25-1.13.81-2.27,1.63-3.4,2.44-.26.19-.53.38-.67.67-.69,1.35,1.81,3.07.78,4.18-.3.32-.77.38-1.14.62-.81.51-.91,1.62-1.28,2.49s-1.69,1.56-2.19.75c.37-.84-.75-1.56-1.66-1.67-.9-.11-1.87-.16-2.37-1.01-1.29,1.13-4.19-2.03-4.13-3.3-1.06.08-1.79,1.08-2.02,2.07-.24,1.03-.09,2.11-.11,3.17-.03,2.06-.7,4.08-.66,6.14.03,1.6.65,3.38,2.12,4.03.71.31,1.51.31,2.28.31,5.57-.04,11.15-.07,16.72-.11.4,0,.82,0,1.18-.2.75-.39.91-1.38.98-2.23.3-3.63.6-7.26.9-10.9-.5-.21-1.01-.41-1.51-.62Z"/>
      </g>
      <g>
        <path class="cls-12" d="M89.22,379.84h-25.94l.21,2.62.15,1.87.4,4.87.23,2.8.3,3.72.13,1.6.04.48.15,1.88.21,2.57.13,1.6.13,1.62.15,1.88.12,1.42.13,1.6.05.69h23.81l.06-.69.13-1.59.12-1.43.15-1.88.13-1.62.13-1.6.21-2.58.15-1.87.04-.48.13-1.6.3-3.72.23-2.79.39-4.88.15-1.87.21-2.62h-2.92ZM90.78,381.56h0l-.5-.5h.54l-.04.5ZM90.65,383.15l-.05.63-2.32,2.32-2.66-2.66,2.38-2.38h.56l2.09,2.09ZM89.98,391.45l-1.7,1.7-2.66-2.66,2.66-2.66,1.84,1.84-.14,1.78ZM65.3,389.67h0l1.84-1.84,2.66,2.66-2.66,2.66-1.69-1.7-.15-1.78ZM87.42,386.97l-2.66,2.66-2.66-2.66,2.66-2.66,2.66,2.66ZM83.24,381.06h3.05l-1.52,1.52-1.52-1.52ZM83.89,390.49l-2.66,2.66-2.66-2.66,2.66-2.66,2.66,2.66ZM75.05,394.01l2.66-2.66,2.66,2.66-2.66,2.66-2.66-2.66ZM76.85,397.54l-2.66,2.66-2.66-2.66,2.66-2.66,2.66,2.66ZM81.24,394.88l2.66,2.66-2.66,2.66-2.66-2.66,2.66-2.66ZM77.71,389.63l-2.66-2.66,2.66-2.66,2.66,2.66-2.66,2.66ZM76.85,390.49l-2.66,2.66-2.66-2.66,2.66-2.66,2.66,2.66ZM70.66,389.63l-2.66-2.66,2.66-2.66,2.66,2.66-2.66,2.66ZM70.66,391.36l2.66,2.66-2.66,2.66-2.66-2.66,2.66-2.66ZM73.32,401.07l-2.66,2.66-2.66-2.66,2.66-2.66,2.66,2.66ZM74.18,401.92l2.66,2.66-2.66,2.66-2.66-2.66,2.66-2.66ZM75.05,401.07l2.66-2.66,2.66,2.66-2.66,2.66-2.66-2.66ZM81.24,401.92l2.66,2.66-2.66,2.66-2.66-2.66,2.66-2.66ZM84.76,405.45l2.66,2.66-1.73,1.73h-1.88l-1.72-1.73,2.66-2.66ZM82.1,401.07l2.66-2.66,2.66,2.66-2.66,2.66-2.66-2.66ZM82.1,394.01l2.66-2.66,2.66,2.66-2.66,2.66-2.66-2.66ZM83.89,383.44l-2.66,2.66-2.66-2.66,2.38-2.38h.56l2.38,2.38ZM77.71,382.58l-1.52-1.52h3.04l-1.52,1.52ZM76.85,383.44l-2.66,2.66-2.66-2.66,2.38-2.38h.56l2.38,2.38ZM72.18,381.06l-1.52,1.52-1.52-1.52h3.04ZM67.42,381.06l2.38,2.38-2.66,2.66-2.32-2.32-.05-.63,2.08-2.09h.56ZM65.14,381.06l-.49.49h0l-.04-.49h.54ZM64.97,385.66l1.3,1.3-1.11,1.11-.19-2.41ZM65.7,394.59l-.1-1.26h0l.68.68-.58.58h0ZM65.83,396.19l1.31-1.32,2.66,2.66-2.66,2.66-1.07-1.07-.24-2.93ZM66.22,401.12v-.12s.06.06.06.06l-.06.05h0ZM66.69,406.79l-.34-4.08.79-.79,2.66,2.66-2.66,2.66-.45-.45h0ZM66.93,409.84l-.05-.61.26-.26.87.87h-1.07ZM68,408.11l2.66-2.66,2.66,2.66-1.72,1.73h-1.88l-1.72-1.73ZM73.32,409.84l.87-.87.87.87h-1.73ZM76.77,409.84l-1.72-1.73,2.66-2.66,2.66,2.66-1.72,1.73h-1.88ZM80.37,409.84l.87-.87.87.87h-1.73ZM88.49,409.84h-1.07l.87-.87.26.26-.05.61ZM88.74,406.79l-.46.45-2.66-2.66,2.66-2.66.79.79-.33,4.08ZM89.21,401v.12s-.07-.05-.07-.05l.07-.07h0ZM89.36,399.13l-1.08,1.07-2.66-2.66,2.66-2.66,1.32,1.32-.24,2.93ZM89.73,394.6l-.59-.59.69-.68-.1,1.27ZM90.45,385.66l-.2,2.43-1.12-1.12,1.31-1.31h0Z"/>
        <g class="cls-2">
          <path class="cls-14" d="M89.22,379.84h-25.94l.21,2.62.15,1.87.4,4.87.23,2.8.3,3.72.13,1.6.04.48.15,1.88.21,2.57.13,1.6.13,1.62.15,1.88.12,1.42.13,1.6.05.69h23.81l.06-.69.13-1.59.12-1.43.15-1.88.13-1.62.13-1.6.21-2.58.15-1.87.04-.48.13-1.6.3-3.72.23-2.79.39-4.88.15-1.87.21-2.62h-2.92ZM90.78,381.56h0l-.5-.5h.54l-.04.5ZM90.65,383.15l-.05.63-2.32,2.32-2.66-2.66,2.38-2.38h.56l2.09,2.09ZM89.98,391.45l-1.7,1.7-2.66-2.66,2.66-2.66,1.84,1.84-.14,1.78ZM65.3,389.67h0l1.84-1.84,2.66,2.66-2.66,2.66-1.69-1.7-.15-1.78ZM87.42,386.97l-2.66,2.66-2.66-2.66,2.66-2.66,2.66,2.66ZM83.24,381.06h3.05l-1.52,1.52-1.52-1.52ZM83.89,390.49l-2.66,2.66-2.66-2.66,2.66-2.66,2.66,2.66ZM75.05,394.01l2.66-2.66,2.66,2.66-2.66,2.66-2.66-2.66ZM76.85,397.54l-2.66,2.66-2.66-2.66,2.66-2.66,2.66,2.66ZM81.24,394.88l2.66,2.66-2.66,2.66-2.66-2.66,2.66-2.66ZM77.71,389.63l-2.66-2.66,2.66-2.66,2.66,2.66-2.66,2.66ZM76.85,390.49l-2.66,2.66-2.66-2.66,2.66-2.66,2.66,2.66ZM70.66,389.63l-2.66-2.66,2.66-2.66,2.66,2.66-2.66,2.66ZM70.66,391.36l2.66,2.66-2.66,2.66-2.66-2.66,2.66-2.66ZM73.32,401.07l-2.66,2.66-2.66-2.66,2.66-2.66,2.66,2.66ZM74.18,401.92l2.66,2.66-2.66,2.66-2.66-2.66,2.66-2.66ZM75.05,401.07l2.66-2.66,2.66,2.66-2.66,2.66-2.66-2.66ZM81.24,401.92l2.66,2.66-2.66,2.66-2.66-2.66,2.66-2.66ZM84.76,405.45l2.66,2.66-1.73,1.73h-1.88l-1.72-1.73,2.66-2.66ZM82.1,401.07l2.66-2.66,2.66,2.66-2.66,2.66-2.66-2.66ZM82.1,394.01l2.66-2.66,2.66,2.66-2.66,2.66-2.66-2.66ZM83.89,383.44l-2.66,2.66-2.66-2.66,2.38-2.38h.56l2.38,2.38ZM77.71,382.58l-1.52-1.52h3.04l-1.52,1.52ZM76.85,383.44l-2.66,2.66-2.66-2.66,2.38-2.38h.56l2.38,2.38ZM72.18,381.06l-1.52,1.52-1.52-1.52h3.04ZM67.42,381.06l2.38,2.38-2.66,2.66-2.32-2.32-.05-.63,2.08-2.09h.56ZM65.14,381.06l-.49.49h0l-.04-.49h.54ZM64.97,385.66l1.3,1.3-1.11,1.11-.19-2.41ZM65.7,394.59l-.1-1.26h0l.68.68-.58.58h0ZM65.83,396.19l1.31-1.32,2.66,2.66-2.66,2.66-1.07-1.07-.24-2.93ZM66.22,401.12v-.12s.06.06.06.06l-.06.05h0ZM66.69,406.79l-.34-4.08.79-.79,2.66,2.66-2.66,2.66-.45-.45h0ZM66.93,409.84l-.05-.61.26-.26.87.87h-1.07ZM68,408.11l2.66-2.66,2.66,2.66-1.72,1.73h-1.88l-1.72-1.73ZM73.32,409.84l.87-.87.87.87h-1.73ZM76.77,409.84l-1.72-1.73,2.66-2.66,2.66,2.66-1.72,1.73h-1.88ZM80.37,409.84l.87-.87.87.87h-1.73ZM88.49,409.84h-1.07l.87-.87.26.26-.05.61ZM88.74,406.79l-.46.45-2.66-2.66,2.66-2.66.79.79-.33,4.08ZM89.21,401v.12s-.07-.05-.07-.05l.07-.07h0ZM89.36,399.13l-1.08,1.07-2.66-2.66,2.66-2.66,1.32,1.32-.24,2.93ZM89.73,394.6l-.59-.59.69-.68-.1,1.27ZM90.45,385.66l-.2,2.43-1.12-1.12,1.31-1.31h0Z"/>
        </g>
      </g>
      <rect class="cls-12" x="61.62" y="378.75" width="32.18" height="3.39" rx="1.64" ry="1.64" transform="translate(155.42 760.9) rotate(180)"/>
      <rect class="cls-12" x="63.94" y="409.23" width="27.54" height="3.39" rx="1.64" ry="1.64"/>
    </g>
  </g>
  <g id="Speech_Bubble" data-name="Speech Bubble">
    <g>
      <rect class="cls-12" x="234.45" y="95.26" width="37.32" height="37.32" rx="3.69" ry="3.69" transform="translate(521.93 182.99) rotate(170.18)"/>
      <path class="cls-12" d="M251.85,130.14s6.74,10.2,18.13,11.77c0,0-6.57-2.41-8.1-13.98l-10.03,2.21Z"/>
      <g>
        <path class="cls-12" d="M261.59,111.1l-4.76.57s-1.56-3.19-2.55-10.54c0,0-1.68.04-2.44.38-.77.34.08,8.57.08,8.57,0,0-8.63.6-9.03,1.03-.26.27-.16,1.55-.05,2.45.06.52.49.93,1.02.96l.3.02,1.53,8.1c.12.62.7,1.05,1.33.97l7.98-1.02c.79-.1,1.53-.44,2.12-.97l.79-.71,4.96-.32-1.3-9.48Z"/>
        <path class="cls-4" d="M261.59,111.1l-4.76.57s-1.56-3.19-2.55-10.54c0,0-1.68.04-2.44.38-.77.34.08,8.57.08,8.57,0,0-8.63.6-9.03,1.03-.26.27-.16,1.55-.05,2.45.06.52.49.93,1.02.96l.3.02,1.53,8.1c.12.62.7,1.05,1.33.97l7.98-1.02c.79-.1,1.53-.44,2.12-.97l.79-.71,4.96-.32-1.3-9.48Z"/>
      </g>
    </g>
  </g>
  <g id="Character">
    <g>
      <g id="_Group_" data-name="&amp;lt;Group&amp;gt;">
        <path class="cls-12" d="M278.54,169.71c-4.36-.17-21.34,27.49-21.34,27.49l-11.54-2.18-2.47,5.9s10.4,5.07,14.59,5.52,20.19-21.88,20.19-21.88l.58-14.86Z"/>
        <path class="cls-6" d="M278.54,169.7l-.58,14.86s-.39.54-1.06,1.44c-1.22,1.67-3.41,4.6-5.9,7.73-4.87,6.1-10.9,12.96-13.23,12.71-4.18-.45-14.59-5.52-14.59-5.52l2.48-5.9,11.54,2.18s16.99-27.67,21.35-27.5Z"/>
        <path class="cls-3" d="M276.9,186.01c-1.22,1.67-3.41,4.6-5.9,7.73.09-5.9,5.25-13.23,5.25-13.23,0,0,.36,2.4.65,5.51Z"/>
        <path class="cls-13" d="M311.66,411.78h9.76c.33,0,.61.23.68.55l1.58,7.15c.14.64-.27,1.27-.91,1.4-.09.02-.17.03-.26.03-3.16-.05-5.46-.25-9.42-.25-2.44,0-9.81.26-13.18.26s-3.81-3.33-2.43-3.64c6.19-1.35,10.85-3.22,12.83-5,.37-.34.85-.52,1.35-.51Z"/>
        <path class="cls-13" d="M270.28,411.52h9.76c.33,0,.61.23.68.55l1.58,7.15c.14.64-.27,1.27-.91,1.4-.09.02-.17.03-.26.03-3.16-.05-5.45-.25-9.42-.25-2.44,0-9.81.26-13.18.26s-3.81-3.33-2.43-3.64c6.19-1.35,10.85-3.22,12.83-5,.37-.34.85-.52,1.35-.51Z"/>
        <path class="cls-13" d="M316.83,230.94h-42.62c-4.05,22.13-16.74,111.99-7.64,181.77h14.43s-1.34-105.97,11.4-140.22c1.47,18.33,16.36,140.14,16.36,140.14h14.69s-2.19-45.82-4.39-89.11c-1.38-27.26-2.17-86.99-2.23-92.59Z"/>
        <path class="cls-3" d="M292.4,272.49c-1.88,5.05-3.44,11.35-4.76,18.44-1.19-16.31,3.58-33.61,3.58-33.61l1.19,15.17Z"/>
        <polygon points="273.85 231.45 316.75 231.45 316.75 236.56 273.3 236.03 273.85 231.45"/>
        <rect class="cls-13" x="301.43" y="229.15" width="1.53" height="9.07"/>
        <rect class="cls-13" x="279.72" y="229.15" width="1.53" height="9.07"/>
        <rect class="cls-14" x="285.47" y="230.55" width="7.94" height="5.72"/>
        <g>
          <path class="cls-12" d="M316.89,232.27c1.14-24.41,8.32-58.96,8.32-58.96-19.92-4.8-46.67-3.6-46.67-3.6-5.21,18.64-5.11,48.72-4.66,62.56h43.01Z"/>
          <path class="cls-6" d="M325.2,173.3s-.8,3.86-1.92,9.92c-.53,2.88-1.13,6.28-1.75,9.99-.35,2.17-.73,4.44-1.08,6.78-.35,2.28-.7,4.62-1.03,7-1.18,8.48-2.17,17.41-2.54,25.28h-43.01c-.45-13.84-.54-43.92,4.67-62.57,0,0,26.74-1.2,46.66,3.6Z"/>
          <path class="cls-3" d="M323.29,183.22c-.53,2.88-1.13,6.28-1.75,9.99-.35,2.17-.73,4.44-1.08,6.78-3.16-8.29,2.22-19.49,2.22-19.49l.61,2.72Z"/>
        </g>
        <path class="cls-13" d="M292.7,172.95l1.08,5.29s-6.15,25.67-7.48,38.98l2.24,2.25,3.53-2.25s.32-27.11,3.43-38.5l5.58-4.57-4.39-1.42-3.99.22Z"/>
        <path class="cls-16" d="M309.4,170.61c-3.69,3.35-12.72,2.11-12.72,2.11,0,0-5.64-1.54-4.45-3.3,3.32-.55,4.93-2.1,5.59-4.08.38-1.16.44-2.45.34-3.79-.05-.7-.15-1.41-.28-2.12l11.17-8.27c-1.46,5.46-3.25,15.5.36,19.45Z"/>
        <path class="cls-3" d="M306.47,156.42c-.44,6.7-5.95,8.55-8.64,8.92.38-1.16.44-2.45.34-3.79l8.31-5.13Z"/>
        <g>
          <path class="cls-12" d="M307.76,166.36l-10.67,4.81-.63-3.86-3.92,1.38c-1.41.5-2.29,1.89-2.14,3.38l.44,4.23,5.41-2.96,2.7,3.82,12.82-6.18-4.02-4.62Z"/>
          <path class="cls-5" d="M307.76,166.36l-10.67,4.81-.63-3.86-3.92,1.38c-1.41.5-2.29,1.89-2.14,3.38l.44,4.23,5.41-2.96,2.7,3.82,12.82-6.18-4.02-4.62Z"/>
        </g>
        <g>
          <path class="cls-13" d="M286.16,135.65s-1.67,10.75,4.03,14.9c5.7,4.15,5.76-15.87,5.76-15.87l-9.78.96Z"/>
          <path class="cls-16" d="M306.73,159.15c-2.78,3.97-7.3,5-11.22,3.75-2.52-.8-4.79-2.56-6.19-5.07-.19-.33-.36-.68-.51-1.03-2.79-6.58-3.65-18.08,3.31-22.37,4.94-3.09,11.47-1.59,14.56,3.36.89,1.4,1.42,3,1.57,4.66.83,7.69,1.68,12.17-1.53,16.7Z"/>
          <path class="cls-13" d="M297.05,146.52c.15.61-.14,1.18-.55,1.24-.41.07-.82-.39-.93-1-.11-.62.15-1.18.55-1.24.4-.07.82.38.93,1Z"/>
          <path class="cls-13" d="M290.03,147.7c.15.61-.15,1.18-.55,1.24-.4.07-.82-.39-.93-1-.11-.62.15-1.18.55-1.24s.82.41.93,1Z"/>
          <path class="cls-19" d="M292.31,147.63c-.42,2.02-1.12,3.98-2.08,5.81.97.47,2.09.49,3.08.06l-1-5.87Z"/>
          <path class="cls-13" d="M286.92,145.14c.13.05.27.02.38-.07.69-.64,1.64-.92,2.56-.75.2.05.4-.06.45-.26.05-.2-.06-.4-.26-.45,0,0,0,0,0,0-1.16-.24-2.37.09-3.24.9-.16.13-.18.36-.05.52,0,0,0,0,0,0,.04.04.09.08.15.1Z"/>
          <path class="cls-13" d="M297.96,143.48c.07-.01.14-.05.19-.11.11-.17.05-.4-.12-.51,0,0,0,0,0,0-1.01-.64-2.26-.74-3.36-.28-.18.09-.26.31-.17.49h0c.09.18.31.25.49.17h0c.88-.34,1.87-.24,2.66.27.1.04.22.03.31-.03Z"/>
          <path class="cls-13" d="M301.07,133.88v3.43c1.17.46,1.99,1.63,1.64,3.03-.75,2.98,1.39,7.2,3.78,8.7,0,0-.08-1.24,1-1.07,1.08.17,1.55,6.62-.11,9.93,0,0,2.74-3.14,3.67-10.08.86-6.42.44-11.64-1.13-13.9l-8.84-.03Z"/>
          <path class="cls-16" d="M312.64,148.14c-.56,1.87-1.83,3.44-3.54,4.37-2.28,1.21-3.97-.69-3.81-3.13.16-2.17,1.52-5.48,4.04-5.66,2.52-.18,3.96,2.13,3.31,4.43Z"/>
          <g>
            <path class="cls-13" d="M294.12,155.38c.63.86,1.43,2.56,1.43,2.56.17-.04.33-.09.5-.14,2.25-.66,3.08-1.71,3.31-2.67.13-.53.07-1.03-.03-1.43-.11-.46-.29-.76-.29-.76-.98,1.06-3.03,1.84-4.15,2.21-.46.16-.76.24-.76.24Z"/>
            <path class="cls-14" d="M294.88,155.14l.44.75c2.12-.63,3.52-1.35,4-2.19-.11-.46-.29-.76-.29-.76-.98,1.06-3.03,1.84-4.15,2.21Z"/>
            <path class="cls-20" d="M296.05,157.8c2.25-.66,3.08-1.71,3.31-2.67-.76.25-1.64.65-2.35,1.23-.54.44-.82.96-.96,1.45Z"/>
          </g>
          <path class="cls-13" d="M309.4,135.5s3.69-4.5-5.16-7.26-21.8,5.46-19.16,8.71,11.7,1.89,11.7,1.89c0,0-2.34-.29-3.46-1.45,0,0,13.12.87,16.09-1.89Z"/>
        </g>
        <path class="cls-12" d="M325.2,173.31c5.6,1.9,9.44,36.78,9.38,39.81-.07,3.03-8.66,4.34-9.37-1.98-.71-6.32-3.67-19.82-3.67-19.82,0,0-.78-6.1,0-9.8.78-3.7,3.67-8.21,3.67-8.21Z"/>
        <path class="cls-6" d="M325.2,173.31c5.6,1.9,9.44,36.78,9.38,39.81-.07,3.03-8.66,4.34-9.37-1.98-.71-6.32-3.67-19.82-3.67-19.82,0,0-.78-6.1,0-9.8.78-3.7,3.67-8.21,3.67-8.21Z"/>
      </g>
      <g>
        <rect class="cls-12" x="165.63" y="201.22" width="196.9" height="136.97" transform="translate(30.54 -26.84) rotate(6.18)"/>
        <rect class="cls-7" x="165.63" y="201.22" width="196.9" height="136.97" transform="translate(30.54 -26.84) rotate(6.18)"/>
        <rect class="cls-10" x="200.24" y="176.26" width="127.68" height="186.87" transform="translate(560.62 36.17) rotate(96.18)"/>
        <polygon class="cls-10" points="365.34 224.2 366.41 214.31 356.52 213.24 356.1 217.09 185.43 198.62 185.85 194.77 175.96 193.7 174.88 203.6 178.84 204.02 166.77 315.63 162.81 315.2 161.74 325.09 171.64 326.16 172.05 322.31 342.72 340.78 342.3 344.63 352.2 345.7 353.27 335.8 349.31 335.38 361.39 223.77 365.34 224.2"/>
        <g>
          <path class="cls-12" d="M180.31,199.13l2.27.25-.25,2.27-2.27-.25.25-2.27M179.42,198.03l-.11.99-.25,2.27-.11.99.99.11,2.27.25.99.11.11-.99.25-2.27.11-.99-.99-.11-2.27-.25-.99-.11h0Z"/>
          <path class="cls-12" d="M167.4,318.45l2.27.25-.25,2.27-2.27-.25.25-2.27M166.51,317.34l-.11.99-.25,2.27-.11.99.99.11,2.27.25.99.11.11-.99.25-2.27.11-.99-.99-.11-2.27-.25-.99-.11h0Z"/>
          <path class="cls-12" d="M358.73,218.44l2.27.25-.25,2.27-2.27-.25.25-2.27M357.84,217.33l-.11.99-.25,2.27-.11.99.99.11,2.27.25.99.11.11-.99.25-2.27.11-.99-.99-.11-2.27-.25-.99-.11h0Z"/>
          <path class="cls-12" d="M345.82,337.75l2.27.25-.25,2.27-2.27-.25.25-2.27M344.93,336.65l-.11.99-.25,2.27-.11.99.99.11,2.27.25.99.11.11-.99.25-2.27.11-.99-.99-.11-2.27-.25-.99-.11h0Z"/>
        </g>
        <g>
          <path class="cls-12" d="M216.9,220.23c.3-2.75,2.61-4.5,5.44-4.2,1.5.16,2.73.84,3.47,1.93l-1.22.92c-.59-.8-1.38-1.24-2.34-1.34-1.9-.21-3.43.98-3.63,2.88-.2,1.89,1.03,3.38,2.94,3.59.96.1,1.83-.16,2.57-.83l.99,1.17c-.96.91-2.31,1.31-3.82,1.14-2.81-.3-4.7-2.52-4.4-5.26Z"/>
          <path class="cls-12" d="M233.66,225.24l-.15,1.43-6.9-.75,1-9.2,6.71.73-.15,1.43-5.01-.54-.26,2.39,4.44.48-.15,1.41-4.44-.48-.27,2.54,5.19.56Z"/>
          <path class="cls-12" d="M241.42,227.53l-1.59-2.9c-.12,0-.24-.01-.36-.03l-2.08-.22-.29,2.68-1.71-.19,1-9.2,3.78.41c2.42.26,3.78,1.66,3.56,3.69-.15,1.39-.97,2.34-2.27,2.69l1.79,3.25-1.84-.2ZM239.95,219.53l-2-.22-.4,3.67,2,.22c1.5.16,2.35-.44,2.47-1.59.12-1.16-.58-1.91-2.07-2.07Z"/>
          <path class="cls-12" d="M247.58,220.36l-3.05-.33.16-1.44,7.8.84-.16,1.44-3.05-.33-.84,7.75-1.71-.18.84-7.75Z"/>
          <path class="cls-12" d="M253.78,219.57l1.71.18-1,9.2-1.71-.18,1-9.2Z"/>
          <path class="cls-12" d="M259.52,221.64l-.3,2.8,4.44.48-.16,1.45-4.44-.48-.38,3.52-1.71-.19,1-9.2,6.71.73-.15,1.43-5.01-.54Z"/>
          <path class="cls-12" d="M266.34,220.92l1.71.19-1,9.2-1.71-.19,1-9.2Z"/>
          <path class="cls-12" d="M269.37,225.91c.3-2.75,2.61-4.5,5.44-4.2,1.5.16,2.73.84,3.47,1.93l-1.22.92c-.59-.79-1.38-1.24-2.34-1.34-1.91-.21-3.43.98-3.63,2.88-.2,1.89,1.03,3.38,2.93,3.59.96.1,1.82-.16,2.57-.83l.99,1.17c-.96.91-2.31,1.31-3.82,1.14-2.81-.3-4.7-2.52-4.4-5.26Z"/>
          <path class="cls-12" d="M285.08,230.1l-4.6-.5-1.14,2.03-1.76-.19,5.13-8.75,1.68.18,3.16,9.65-1.79-.19-.69-2.23ZM284.66,228.7l-1.3-4.21-2.16,3.83,3.46.37Z"/>
          <path class="cls-12" d="M290.97,225.05l-3.05-.33.16-1.44,7.8.84-.16,1.44-3.05-.33-.84,7.75-1.71-.18.84-7.75Z"/>
          <path class="cls-12" d="M297.16,224.26l1.71.19-1,9.2-1.71-.18,1-9.2Z"/>
          <path class="cls-12" d="M300.2,229.24c.29-2.72,2.61-4.5,5.46-4.19,2.85.31,4.74,2.53,4.44,5.27-.3,2.73-2.61,4.5-5.46,4.19-2.85-.31-4.73-2.55-4.44-5.27ZM308.38,230.13c.2-1.88-1.03-3.38-2.88-3.58-1.85-.2-3.38,1-3.58,2.88s1.03,3.38,2.88,3.58c1.85.2,3.38-1,3.58-2.88Z"/>
          <path class="cls-12" d="M320.59,226.79l-1,9.2-1.41-.15-4.4-6.78-.67,6.23-1.69-.18,1-9.2,1.41.15,4.4,6.78.67-6.23,1.69.18Z"/>
        </g>
        <path class="cls-7" d="M311.17,262.28l-91.51-9.9c-2.14-.23-4.06,1.31-4.29,3.45-.23,2.14,1.31,4.06,3.45,4.29l91.51,9.9c2.14.23,4.06-1.31,4.29-3.45.23-2.14-1.31-4.06-3.45-4.29Z"/>
        <g>
          <line class="cls-9" x1="333.42" y1="281.87" x2="193.74" y2="266.76"/>
          <line class="cls-9" x1="333.87" y1="277.68" x2="205.14" y2="263.75"/>
          <line class="cls-9" x1="278.21" y1="280.33" x2="193.26" y2="271.14"/>
        </g>
        <g>
          <line class="cls-9" x1="208.33" y1="234.2" x2="337.07" y2="248.13"/>
          <line class="cls-9" x1="196.94" y1="237.21" x2="336.61" y2="252.32"/>
          <line class="cls-9" x1="195.99" y1="245.96" x2="259.04" y2="252.78"/>
          <line class="cls-9" x1="196.46" y1="241.58" x2="336.14" y2="256.7"/>
        </g>
        <g>
          <g>
            <polygon class="cls-12" points="318.51 328.62 312.74 324.67 306.26 327.29 308.5 306.55 320.76 307.88 318.51 328.62"/>
            <polygon class="cls-3" points="318.51 328.62 312.74 324.67 306.26 327.29 308.5 306.55 320.76 307.88 318.51 328.62"/>
          </g>
          <polygon class="cls-12" points="316.35 291.33 318.37 290.15 319.65 292.11 321.91 291.48 322.66 293.69 325 293.64 325.18 295.98 327.46 296.51 327.05 298.81 329.13 299.89 328.16 302.02 329.9 303.59 328.43 305.41 329.73 307.36 327.86 308.76 328.63 310.97 326.46 311.86 326.67 314.19 324.34 314.52 323.96 316.83 321.63 316.56 320.68 318.71 318.5 317.87 317.04 319.71 315.13 318.36 313.27 319.78 311.75 317.99 309.6 318.9 308.57 316.8 306.26 317.14 305.79 314.85 303.46 314.61 303.58 312.27 301.38 311.46 302.07 309.22 300.15 307.89 301.38 305.9 299.84 304.13 301.53 302.5 300.48 300.4 302.52 299.25 302.03 296.96 304.29 296.35 304.38 294.01 306.73 293.98 307.4 291.74 309.68 292.29 310.88 290.28 312.95 291.39 314.62 289.74 316.35 291.33"/>
          <polygon class="cls-6" points="316.05 294.05 317.67 293.11 318.69 294.68 320.49 294.17 321.09 295.94 322.96 295.9 323.1 297.77 324.93 298.19 324.6 300.03 326.26 300.89 325.48 302.6 326.88 303.84 325.7 305.3 326.74 306.86 325.24 307.97 325.86 309.74 324.13 310.45 324.29 312.31 322.44 312.57 322.13 314.42 320.27 314.2 319.52 315.92 317.77 315.25 316.61 316.72 315.08 315.64 313.59 316.77 312.38 315.34 310.66 316.07 309.84 314.39 307.99 314.67 307.62 312.84 305.76 312.65 305.85 310.78 304.1 310.13 304.66 308.34 303.12 307.28 304.1 305.69 302.87 304.27 304.22 302.98 303.39 301.3 305.01 300.38 304.62 298.55 306.43 298.06 306.5 296.2 308.37 296.17 308.91 294.38 310.72 294.82 311.69 293.22 313.34 294.1 314.67 292.79 316.05 294.05"/>
          <g>
            <path class="cls-12" d="M314.89,305.76l1.39.15-.1.94-1.51-.16-.41,1.73-.94-.1.41-1.73-1.74-.19-.41,1.73-.94-.1.41-1.73-1.39-.15.1-.94,1.51.16.44-1.81-1.39-.15.1-.94,1.51.16.41-1.73.94.1-.41,1.73,1.73.19.41-1.73.94.1-.41,1.73,1.38.15-.09.94-1.51-.16-.43,1.81ZM313.95,305.66l.43-1.81-1.73-.19-.44,1.81,1.74.19Z"/>
            <path class="cls-12" d="M320.3,301.77l-.78,7.23-1.34-.15.66-6.1-1.53-.17.12-1.12,2.87.31Z"/>
          </g>
        </g>
        <g>
          <path class="cls-12" d="M204.15,284.19h0c.49-.29,1.12-.14,1.43.34h0c.26.39.73.57,1.18.44h0c.55-.15,1.12.15,1.3.69h0c.15.44.57.74,1.04.73h0c.57-.01,1.05.42,1.09.99h0c.04.47.37.85.82.96h0c.55.13.91.67.81,1.23h0c-.08.46.14.92.56,1.13h0c.5.26.72.87.48,1.39h0c-.19.42-.09.93.26,1.24h0c.42.38.48,1.02.12,1.47h0c-.29.36-.32.88-.06,1.26h0c.32.47.21,1.11-.25,1.45h0c-.37.28-.52.77-.37,1.21h0c.19.54-.08,1.13-.6,1.34h0c-.43.18-.7.61-.66,1.08h0c.05.57-.35,1.07-.92,1.15h0c-.46.06-.83.42-.91.88h0c-.09.56-.61.95-1.17.89h0c-.46-.05-.91.2-1.1.63h0c-.23.52-.83.77-1.36.57h0c-.44-.17-.93-.03-1.22.34h0c-.35.45-.99.54-1.46.21h0c-.38-.27-.89-.26-1.26.02h0c-.45.34-1.09.28-1.46-.16h0c-.3-.36-.8-.47-1.23-.29h0c-.52.22-1.13,0-1.38-.52h0c-.2-.42-.66-.66-1.12-.59h0c-.56.08-1.09-.29-1.21-.84h0c-.09-.46-.47-.8-.94-.85h0c-.57-.06-.99-.55-.96-1.12h0c.02-.47-.26-.89-.7-1.06h0c-.53-.2-.82-.78-.65-1.32h0c.14-.45-.03-.93-.41-1.2h0c-.47-.32-.6-.96-.3-1.44h0c.25-.4.2-.91-.1-1.26h0c-.37-.43-.34-1.07.07-1.47h0c.34-.32.42-.83.21-1.25h0c-.25-.51-.07-1.13.43-1.41h0c.41-.23.62-.7.52-1.15h0c-.12-.56.22-1.11.77-1.26h0c.45-.12.77-.52.79-.99h0c.02-.57.49-1.02,1.05-1.03h0c.47,0,.88-.31,1.01-.76h0c.16-.54.72-.87,1.28-.73h0c.45.11.93-.09,1.17-.49h0c.29-.49.92-.66,1.42-.39h0c.41.22.92.15,1.25-.18h0c.41-.4,1.05-.41,1.47-.03h0c.34.32.85.37,1.26.14Z"/>
          <circle class="cls-6" cx="202.35" cy="294.97" r="9.22"/>
          <polygon class="cls-12" points="202.85 290.39 204.01 293.57 207.28 294.41 204.62 296.5 204.83 299.87 202.02 297.98 198.88 299.23 199.81 295.97 197.65 293.37 201.03 293.24 202.85 290.39"/>
        </g>
        <g>
          <circle class="cls-12" cx="236.17" cy="298.63" r="11.19" transform="translate(-135.04 214.04) rotate(-38.83)"/>
          <path class="cls-6" d="M244.56,299.54c-.5,4.63-4.66,7.98-9.3,7.48-4.63-.5-7.98-4.66-7.48-9.3.5-4.63,4.66-7.98,9.3-7.48,4.63.5,7.98,4.66,7.48,9.3Z"/>
          <g class="cls-3">
            <path class="cls-14" d="M235.13,308.26c-5.31-.57-9.17-5.36-8.59-10.68.57-5.31,5.36-9.17,10.68-8.59,5.31.57,9.17,5.36,8.59,10.68-.57,5.31-5.36,9.17-10.68,8.59ZM237.15,289.58c-4.99-.54-9.49,3.08-10.03,8.07-.54,4.99,3.08,9.49,8.07,10.03,4.99.54,9.49-3.08,10.03-8.07.54-4.99-3.08-9.49-8.07-10.03Z"/>
          </g>
          <polygon class="cls-12" points="237.95 299.02 236.54 295.22 234.35 298.63 230.84 294.92 231.69 301.59 233.78 301.81 235.6 302.01 236.01 302.06 237.83 302.25 239.92 302.48 242.17 296.14 237.95 299.02"/>
        </g>
      </g>
      <path class="cls-16" d="M241.66,200.92l2.47-2.26,2.02.22.37-2.87-3.62-.83s-5.04-.69-6.78-.7c-.73,0-1.58,0-3.61,4.47-.36.79,9.15,1.98,9.15,1.98Z"/>
      <path class="cls-16" d="M323.29,207.22s1.25-2.62,1.92-3.2c.67-.58,6.77.76,7.78,1.6s.54,2.71.54,2.71c0,0-1.7,2.66-2.86,2.52s-7.06-.44-7.38-.87c-.32-.44,0-2.75,0-2.75Z"/>
    </g>
  </g>
</svg>