<?xml version="1.0" encoding="UTF-8"?>
<svg id="Illustration" xmlns="http://www.w3.org/2000/svg" xmlns:xlink="http://www.w3.org/1999/xlink" viewBox="0 0 5274.13 3109.45">
  <defs>
    <style>
      .cls-1 {
        fill: url(#_40);
      }

      .cls-2 {
        fill: #5a8276;
      }

      .cls-3 {
        fill: #2b2b2b;
      }

      .cls-4 {
        fill: #06242b;
      }

      .cls-5 {
        fill: url(#_40-6);
      }

      .cls-6 {
        fill: url(#_40-5);
      }

      .cls-7 {
        fill: url(#_40-4);
      }

      .cls-8 {
        fill: url(#_40-3);
      }

      .cls-9 {
        fill: url(#_40-2);
      }

      .cls-10 {
        fill: bisque;
      }

      .cls-11 {
        fill: #aa644f;
      }

      .cls-12 {
        fill: #ebebeb;
      }

      .cls-13 {
        fill: #e07a5c;
      }

      .cls-14 {
        opacity: .19;
      }

      .cls-14, .cls-15 {
        fill: #fff;
      }

      .cls-16 {
        fill: #ef8564;
      }

      .cls-17 {
        fill: #d46156;
      }

      .cls-18 {
        fill: #f0f0f0;
      }

      .cls-19 {
        fill: #302626;
      }

      .cls-20 {
        fill: #804b3b;
      }

      .cls-21 {
        fill: #b8b8b8;
      }

      .cls-22 {
        fill: #ad4f47;
      }

      .cls-23 {
        fill: #3d3837;
      }

      .cls-24 {
        fill: #6e6e6e;
      }

      .cls-25 {
        fill: #3a2b2e;
      }

      .cls-26 {
        fill: #f79b79;
      }

      .cls-27 {
        fill: #999;
      }

      .cls-28 {
        fill: #ffebbf;
      }
    </style>
    <linearGradient id="_40" data-name="  40" x1="2806.18" y1="1609.53" x2="2891.6" y2="1609.53" gradientUnits="userSpaceOnUse">
      <stop offset="0" stop-color="#f6c667"/>
      <stop offset="1" stop-color="#f6b467"/>
    </linearGradient>
    <linearGradient id="_40-2" data-name="  40" x1="425.9" y1="777.69" x2="539.8" y2="777.69" xlink:href="#_40"/>
    <linearGradient id="_40-3" data-name="  40" x1="3896.37" y1="604" x2="4010.27" y2="604" xlink:href="#_40"/>
    <linearGradient id="_40-4" data-name="  40" x1="4843.96" y1="1259.17" x2="4957.86" y2="1259.17" xlink:href="#_40"/>
    <linearGradient id="_40-5" data-name="  40" x1="1115.03" y1="501.33" x2="1215.88" y2="501.33" xlink:href="#_40"/>
    <linearGradient id="_40-6" data-name="  40" x1="2532.56" y1="604" x2="2633.42" y2="604" xlink:href="#_40"/>
  </defs>
  <rect id="Background" class="cls-15" x="0" y="0" width="5274.13" height="3109.45"/>
  <path id="Floor" class="cls-12" d="M4095.45,2642.78c242.76-1.42,486.72-2.79,726.8,18.39,47.6,4.2,100.29,6.27,136.55,25.49,524.98,278.34-2179.84,274.52-2624.19,254.03-629.11-29.01-1257.81-61.4-1886.04-97.17-121.02-6.89-284.28-82.12-150.41-152.36,92.13-48.34,261.52-44.66,371.77-43.61,280.12,2.68,557.17,12,837.33,10.36l1667.65-9.75c306.85-1.79,613.7-3.59,920.54-5.38Z"/>
  <g id="Clouds">
    <path class="cls-18" d="M2604.34,1033.12c-4.9-21.12,18.23-50.36,45.49-62.59,34.28-15.39,66.15.13,70.23,2.21,1.25-8.66,5.61-30.26,23.72-48.62,4.95-5.02,32.13-32.57,68.38-24.67,25.63,5.59,46.07,26.77,52.58,53.99,1.65-4.57,6.08-14.76,16.79-21.78,2.9-1.9,7.44-5.03,13.49-5.35,13.81-.73,24.56,12.67,27.94,17.21,1.76-73.88,60.88-132.89,130.62-135.69,62.44-2.51,120.99,40.54,137.78,104.06,5.9-2.47,14.59-5.57,25.44-7.51,14.79-2.64,52.01-9.3,77.11,13.19,21.84,19.58,21.63,49.71,21.4,56.67,7.18-4.68,23.31-13.7,43.99-12.35,31.57,2.06,50.98,26.8,59.48,37.63,4.02,5.12,25.27,32.2,22.84,49.86-11.82,85.76-594.75,39.99-678.16,33.44-58.52-4.6-150.6-13.03-159.1-49.69Z"/>
    <path class="cls-18" d="M4063.45,838.85c-4.9-21.12,18.23-50.36,45.49-62.59,34.28-15.39,66.15.13,70.23,2.21,1.25-8.66,5.61-30.26,23.72-48.62,4.95-5.02,32.13-32.57,68.38-24.67,25.63,5.59,46.07,26.77,52.58,53.99,1.65-4.57,6.08-14.76,16.79-21.78,2.9-1.9,7.44-5.03,13.49-5.35,13.81-.73,24.56,12.67,27.94,17.21,1.76-73.88,60.88-132.89,130.62-135.69,62.44-2.51,120.99,40.54,137.78,104.06,5.9-2.47,14.59-5.57,25.44-7.51,14.79-2.64,52.01-9.3,77.11,13.19,21.84,19.58,21.63,49.71,21.4,56.67,7.18-4.68,23.31-13.7,43.99-12.35,31.57,2.06,50.98,26.8,59.48,37.63,4.02,5.12,25.27,32.2,22.84,49.86-11.82,85.76-594.75,39.99-678.16,33.44-58.52-4.6-150.6-13.03-159.1-49.69Z"/>
    <path class="cls-18" d="M498.13,988.82c-3.7-15.95,13.77-38.04,34.36-47.28,25.9-11.63,49.97.1,53.05,1.67.95-6.54,4.24-22.86,17.91-36.72,3.74-3.79,24.27-24.6,51.66-18.63,19.36,4.22,34.8,20.22,39.72,40.78,1.25-3.46,4.59-11.15,12.68-16.45,2.19-1.44,5.62-3.8,10.19-4.04,10.43-.55,18.55,9.57,21.1,13,1.33-55.81,45.99-100.38,98.67-102.5,47.17-1.89,91.39,30.62,104.07,78.61,4.46-1.87,11.02-4.21,19.21-5.68,11.17-2,39.29-7.03,58.24,9.96,16.5,14.79,16.34,37.55,16.17,42.81,5.42-3.54,17.61-10.35,33.23-9.33,23.84,1.56,38.51,20.25,44.93,28.42,3.04,3.87,19.09,24.32,17.25,37.66-8.93,64.78-449.26,30.21-512.27,25.26-44.2-3.47-113.76-9.84-120.18-37.54Z"/>
    <path class="cls-18" d="M1536.17,625.88c-4.9-21.12,18.23-50.36,45.49-62.59,34.28-15.39,66.15.13,70.23,2.21,1.25-8.66,5.61-30.26,23.72-48.62,4.95-5.02,32.13-32.57,68.38-24.67,25.63,5.59,46.07,26.77,52.58,53.99,1.65-4.57,6.08-14.76,16.79-21.78,2.9-1.9,7.44-5.03,13.49-5.35,13.81-.73,24.56,12.67,27.94,17.21,1.76-73.88,60.88-132.89,130.62-135.69,62.44-2.51,120.99,40.54,137.78,104.06,5.9-2.47,14.59-5.57,25.44-7.51,14.79-2.64,52.01-9.3,77.11,13.19,21.84,19.58,21.63,49.71,21.4,56.67,7.18-4.68,23.31-13.7,43.99-12.35,31.57,2.06,50.98,26.8,59.48,37.63,4.02,5.12,25.27,32.2,22.84,49.86-11.82,85.76-594.75,39.99-678.16,33.44-58.52-4.6-150.6-13.03-159.1-49.69Z"/>
  </g>
  <g id="Stars">
    <path class="cls-1" d="M2891.6,1609.53c-27.31,8.5-34.21,15.4-42.71,42.71-8.5-27.31-15.4-34.21-42.71-42.71,27.31-8.5,34.21-15.4,42.71-42.71,8.5,27.31,15.4,34.21,42.71,42.71Z"/>
    <path class="cls-9" d="M539.8,777.69c-36.42,11.34-45.61,20.53-56.95,56.95-11.34-36.42-20.53-45.61-56.95-56.95,36.42-11.34,45.61-20.53,56.95-56.95,11.34,36.42,20.53,45.61,56.95,56.95Z"/>
    <path class="cls-8" d="M4010.27,604c-36.42,11.34-45.61,20.53-56.95,56.95-11.34-36.42-20.53-45.61-56.95-56.95,36.42-11.34,45.61-20.53,56.95-56.95,11.34,36.42,20.53,45.61,56.95,56.95Z"/>
    <path class="cls-7" d="M4957.86,1259.17c-36.42,11.34-45.61,20.53-56.95,56.95-11.34-36.42-20.53-45.61-56.95-56.95,36.42-11.34,45.61-20.53,56.95-56.95,11.34,36.42,20.53,45.61,56.95,56.95Z"/>
    <path class="cls-6" d="M1215.88,501.33c-32.25,10.04-40.39,18.18-50.43,50.43-10.04-32.25-18.18-40.39-50.43-50.43,32.25-10.04,40.39-18.18,50.43-50.43,10.04,32.25,18.18,40.39,50.43,50.43Z"/>
    <path class="cls-5" d="M2633.42,604c-32.25,10.04-40.39,18.18-50.43,50.43-10.04-32.25-18.18-40.39-50.43-50.43,32.25-10.04,40.39-18.18,50.43-50.43,10.04,32.25,18.18,40.39,50.43,50.43Z"/>
  </g>
  <g id="Person_5" data-name="Person 5">
    <path class="cls-26" d="M3111.64,1487.03l53.69,34.81-4.71,125.58s-35.71,2.08-51.34-34.21c-1.07-3.72.93-6.09,8.29-3.89,3.72,1.11,9.68,6.85,16.25,14.69,1.42-2.75-6.64-36.85-6.64-36.85,0,0-38.17-27.34-41.19-41.68-3.02-14.32,25.66-58.46,25.66-58.46Z"/>
    <path class="cls-26" d="M2903.43,1369.59c29.89,90.11,132.66,141.76,182.55,175.9,3.02,2.07,40.26-41.54,28.18-55.52-31.72-36.7-60.17-78.58-88.27-114.83-48.03-61.96-73.71-64.81-108-43.94-16.21,9.87-18.18,27.16-14.45,38.4Z"/>
    <path class="cls-17" d="M3244.22,1295.51c-3.72-5.45-70.95,3.08-75.96,3.64-72.74,8.09-108.3,73.04-118.62,76.69-2.35.83,69.52,106.61,60.82,109.8-7.22,2.64-34.5,67.95-47.51,57.52-20.96-16.8-220.21-137.32-159.7-218.64,4.74-6.37,5.43-16.39,9.88-22.97,2.77-4.08,43.06-62.96,66.17-83.23,50.61-44.39,108.24-94.13,142.12-116.92,3.18,2.98,122.8,194.1,122.8,194.11Z"/>
    <path class="cls-4" d="M3043.45,1379.39c-.99,0-1.94-.57-2.37-1.54-3.51-7.89-9.11-14.66-16.21-19.58-1.18-.82-1.47-2.44-.66-3.61.82-1.18,2.44-1.47,3.61-.65,7.88,5.46,14.1,12.98,18,21.73.58,1.31,0,2.85-1.32,3.43-.34.15-.7.22-1.05.22Z"/>
    <path class="cls-4" d="M2907.24,1322.11c-1.19,0-2.27-.83-2.53-2.04-.31-1.4.58-2.79,1.98-3.09,3.07-.67,5.73-1.58,8.3-2.45,6.49-2.21,13.2-4.5,26.04-2.89,1.42.18,2.43,1.48,2.25,2.9-.18,1.42-1.47,2.43-2.9,2.25-11.65-1.46-17.25.45-23.72,2.65-2.71.92-5.51,1.88-8.87,2.61-.19.04-.37.06-.56.06Z"/>
    <g>
      <g>
        <g>
          <g>
            <g>
              <path class="cls-26" d="M3236.91,2745.13s.04-.04.06-.06c-.02.07-.04.08-.06.06Z"/>
              <path class="cls-26" d="M3165.09,2699.13c8.93-42.27-8.14-91.68-8.14-91.68l89.84,23.75,1.35,88.29s-2.06,9.8-10.64,10.13c-.43,7.91-.78,15.23-.58,15.51-24.71,29.66-123.92-6.03-123.92-6.03,38.87-9.91,50.83-33.99,52.09-39.97Z"/>
            </g>
            <path class="cls-25" d="M3247.47,2793.62c.12-.07.24-.14.36-.22,1.7-1.13,2.52-3.02,3.2-4.83,6.15-16.53,6.62-34.39,5.74-51.87-.8-16.02-3.51-32.74-8.87-32.75-23.73,15.61-57.77,9.42-82.23-7.65-7.55-1.48-17.12,30.16-69.09,46.48-59.69,18.75-65.63,28.12-66.21,39.83-.2,3.95,2.43,7.56,6.45,9.15,19.46,7.73,61.55,7.94,81.67,7.73,5.99-.06,11.93-.85,17.65-2.4,19.09-5.19,38.55-9.52,58.64-8.98-.24,4.96,1.94,5.03,3.91,5.09,14.03.46,28.06.92,42.09,1.39,2.3.08,4.78.1,6.7-.97Z"/>
          </g>
          <path class="cls-4" d="M3161.06,2728c-.39,0-.78-.08-1.16-.24l-18.09-7.61c-1.53-.64-2.25-2.4-1.6-3.93.64-1.53,2.4-2.24,3.93-1.6l18.09,7.61c1.53.64,2.25,2.4,1.6,3.93-.48,1.15-1.6,1.84-2.77,1.84Z"/>
          <path class="cls-4" d="M3149.37,2742.34c-.4,0-.81-.08-1.2-.25l-23.87-10.41c-1.52-.66-2.21-2.43-1.55-3.95.66-1.52,2.43-2.21,3.95-1.55l23.87,10.41c1.52.66,2.21,2.43,1.55,3.95-.49,1.13-1.59,1.8-2.75,1.8Z"/>
        </g>
        <g>
          <g>
            <g>
              <path class="cls-26" d="M3631.95,2740.54s-.03-.04-.05-.06c.01.07.03.08.05.06Z"/>
              <path class="cls-26" d="M3708.96,2703.89c-28.89-33.08-38.39-85.53-38.39-85.53l-82.04,6.26,37.67,73.7s-1.36,25.36,7.11,26.76c-.56,7.9-1.13,15.21-1.36,15.46,20.81,32.52,123.7,9.52,123.7,9.52-37.33-14.7-42.67-41.57-46.68-46.17Z"/>
            </g>
            <path class="cls-25" d="M3615.41,2787.33c-.11-.08-.22-.17-.33-.26-1.55-1.33-2.13-3.31-2.57-5.19-4.04-17.17-2.27-34.94.79-52.18,2.8-15.8,7.58-32.05,12.9-31.38,21.6,18.46,56.14,16.57,82.54,2.69,7.68-.52,13.21,32.06,62.73,54.76,56.88,26.07,61.59,36.11,60.71,47.8-.3,3.95-3.35,7.19-7.55,8.28-20.28,5.24-62.06.18-82-2.54-5.94-.81-11.73-2.33-17.21-4.59-18.29-7.54-37.06-14.26-57.06-16.25-.38,4.95-2.55,4.74-4.51,4.56-13.98-1.3-27.96-2.59-41.93-3.89-2.29-.21-4.75-.49-6.52-1.8Z"/>
          </g>
          <path class="cls-4" d="M3709.73,2733.05c-1.31,0-2.52-.87-2.89-2.19-.45-1.59.49-3.25,2.08-3.7l18.9-5.29c1.59-.45,3.25.48,3.7,2.08.45,1.59-.49,3.25-2.08,3.7l-18.9,5.29c-.27.08-.54.11-.81.11Z"/>
          <path class="cls-4" d="M3719.53,2748.75c-1.3,0-2.49-.85-2.88-2.15-.47-1.59.44-3.26,2.03-3.72l24.98-7.35c1.59-.47,3.26.44,3.72,2.03.47,1.59-.44,3.26-2.03,3.72l-24.98,7.35c-.28.08-.57.12-.85.12Z"/>
        </g>
        <path class="cls-2" d="M3525.92,1512.35s71.85,198.72,163.86,1147.69c-62.87,35.54-98.58,10.86-168.3,13.55-13.75-37.02-148.09-815.31-148.09-815.31l-97.95,818.64s-53.98,7.16-143.17-9.3c-3.69-9.74,11.73-848.06,31.94-1055.46,26.3-10.77,361.7-99.81,361.7-99.81Z"/>
        <path class="cls-4" d="M3373.39,1861.28c-1.29,0-2.47-.83-2.87-2.13l-19.13-62.75-33.95-34.72c-1.16-1.18-1.14-3.08.05-4.24,1.19-1.16,3.08-1.14,4.24.05l34.47,35.24c.34.34.58.76.72,1.22l19.35,63.45c.48,1.59-.41,3.26-1.99,3.74-.29.09-.59.13-.88.13Z"/>
      </g>
      <g>
        <g>
          <path class="cls-25" d="M3220.7,837.74c-1.16-5.31-1.87-10.62-2.07-15.8-.19-4.79.07-9.79,2.3-14.03,2.08-3.95,5.73-6.98,7.36-11.13,2.35-5.99.05-13.22,3.1-18.88,2.88-5.35,9.41-7.35,14.3-10.96,6.87-5.06,10.46-13.31,15.32-20.31,1.26-1.81,2.65-3.58,4.49-4.79,1.69-1.11,3.68-1.69,5.67-2.12,5.41-1.17,11.07-1.35,16.22-3.37,4.88-1.91,9.03-5.36,13.88-7.35,5.92-2.43,12.49-2.54,18.89-2.61,7.8-.09,14.07,2.67,21.18,5.45,3.36,1.32,6.58,3,9.44,5.22.76.59,7.29,7.62,7.1,7.69,7.12-2.49,14.95-.41,21.27,3.26,6.75,3.93,8.79,8.22,12.16,15.04,3.94,7.98,11.72,14.17,13.26,22.93,1.31,7.4-2.21,14.99-1.04,22.4.78,5,3.63,9.47,4.57,14.44.96,5.09-.15,10.31-1.25,15.36-2.71,12.44-4.2,30.81-13.26,40.66-1.97,2.14-4.46,3.73-6.95,5.23-9.34,5.61-17.57,7.72-28.11,9.3-9.4,1.41-18.99,4.27-28.38,6.2-9.27,1.91-19.02,6.13-28.42,6.31-9.29.18-18.25-3.15-26.94-6.42-4.78-1.8-9.53-3.66-14.22-5.68-3.74-1.61-9.13-2.9-12.08-5.63-13.66-12.62-23.63-31.49-27.78-50.41Z"/>
          <path class="cls-26" d="M3364.35,1021.87l-5.9-139.65-91.15,46.45,4.8,104.81c.33,7.15-3.38,13.87-9.6,17.41l-47.46,16.45s91.32,103.54,215.97-14.34c-16.69-4.11-39.27-9.78-52.84-13.63-7.9-2.24-13.46-9.3-13.8-17.5Z"/>
          <path class="cls-13" d="M3362.41,975.89c-35.6,9.35-79.8,2.78-93.47-11.36l-1.64-35.86,91.94-27.79,3.17,75.01Z"/>
          <path class="cls-26" d="M3382.7,859.58c-1.91,61.79-20.78,105.95-63.46,108.39-64.19,3.67-79.69-45.08-82.79-110.45-2.93-61.75,34.33-100.15,77.06-98.83,42.73,1.32,71.1,39.11,69.19,100.9Z"/>
          <path class="cls-25" d="M3343.62,858.93c-.13,4.16,1.5,7.59,3.64,7.66,2.15.07,3.99-3.25,4.13-7.41s-1.5-7.59-3.64-7.66c-2.15-.07-3.99,3.25-4.13,7.41Z"/>
          <path class="cls-25" d="M3285.77,858.11c.12,4.16-1.52,7.59-3.67,7.65-2.15.06-3.98-3.26-4.1-7.42-.12-4.16,1.52-7.59,3.67-7.65,2.15-.06,3.98,3.26,4.1,7.42Z"/>
          <g>
            <path class="cls-26" d="M3245.88,858.01s-23-24.12-37.21-5.51c-3.92,5.14-5.63,11.7-4.93,18.12,1.5,13.63,10.65,34.91,44.66,31.79-.13,1.53-2.52-44.4-2.52-44.4Z"/>
            <g>
              <path class="cls-4" d="M3239.59,888.68c-1.15,0-2.25-.67-2.74-1.78-7.45-16.78-23.23-19.83-23.38-19.86-1.63-.3-2.71-1.86-2.41-3.49.3-1.63,1.87-2.71,3.49-2.41.78.14,19.07,3.67,27.8,23.33.67,1.51-.01,3.29-1.53,3.96-.4.18-.81.26-1.21.26Z"/>
              <path class="cls-4" d="M3221.67,882.57c-.85,0-1.69-.36-2.28-1.05-1.08-1.26-.93-3.15.33-4.23l7.73-6.6c1.26-1.07,3.15-.93,4.23.33,1.08,1.26.93,3.15-.33,4.23l-7.73,6.6c-.57.48-1.26.72-1.95.72Z"/>
            </g>
          </g>
          <g>
            <path class="cls-26" d="M3377.76,859.71s22.62-24.48,37.12-6.09c4,5.08,5.81,11.61,5.21,18.04-1.29,13.65-10.1,35.07-44.16,32.48.15,1.52,1.83-44.43,1.83-44.43Z"/>
            <g>
              <path class="cls-4" d="M3384.48,890.28c-.39,0-.79-.08-1.17-.24-1.53-.65-2.24-2.41-1.59-3.94,8.42-19.79,26.66-23.6,27.43-23.76,1.63-.33,3.2.74,3.53,2.36.32,1.62-.73,3.2-2.35,3.52-.66.13-15.95,3.44-23.08,20.22-.49,1.14-1.59,1.83-2.76,1.83Z"/>
              <path class="cls-4" d="M3402.3,883.89c-.67,0-1.35-.23-1.91-.69l-7.84-6.48c-1.28-1.06-1.46-2.95-.4-4.22,1.05-1.28,2.95-1.46,4.22-.4l7.84,6.48c1.28,1.06,1.46,2.95.4,4.22-.59.72-1.45,1.09-2.31,1.09Z"/>
            </g>
          </g>
          <path class="cls-4" d="M3291.66,841.09c-.43,0-.87-.09-1.28-.29h0c-.15-.07-15.11-6.99-24.72-.36-1.37.94-3.23.6-4.17-.77-.94-1.36-.6-3.23.77-4.17,12.49-8.61,29.96-.48,30.7-.13,1.5.71,2.13,2.5,1.42,4-.51,1.08-1.59,1.71-2.71,1.71Z"/>
          <path class="cls-4" d="M3364.88,844.64c-.51,0-1.03-.13-1.5-.4-16.52-9.55-24.2-2.71-24.28-2.64-1.18,1.16-3.08,1.15-4.24-.03-1.16-1.18-1.15-3.08.04-4.24.43-.42,10.79-10.25,31.49,1.72,1.43.83,1.92,2.66,1.09,4.1-.56.96-1.56,1.5-2.6,1.5Z"/>
          <path class="cls-15" d="M3332.48,916.97l-42.95-2.7s15.37,46.1,42.95,2.7Z"/>
          <path class="cls-25" d="M3236.28,850.33c2.52.98,4.31-10.73,4.94-12.84,1.29-4.3,6.07-6.6,8.13-10.59,2.69-5.21.17-12,2.95-17.16,2.94-5.45,10.28-6.53,16.46-6.06,4.73.36,9.74,1.19,14.04-.82,2.73-1.28,4.83-3.58,7.3-5.32,4.93-3.49,11.44-4.64,17.27-3.07,2.96.8,5.71,2.25,8.64,3.15,5.73,1.75,12.11,1.26,17.5-1.35,6.42-3.11,11.1-8.86,15.5-14.47,6.38,5.66,6.7,16.4,12.07,23.02,1.59,1.95,3.63,3.52,5.09,5.57,3.78,5.28,3.03,12.55,5.57,18.52,1.52,3.59,4.21,6.63,5.45,10.33,1.09,3.25.98,6.76,1.44,10.16.46,3.4,1.74,5.91,4.16,5.73,2.46-7.1,5.32-12.09,7.78-19.19,1.72-4.95,3.46-10.04,3.22-15.27-.23-4.98-2.23-9.69-4.44-14.16-6.41-12.95-14.77-24.81-23.09-36.62-4.04-5.73-8.13-11.52-13.39-16.14-9.55-8.39-22.44-12.36-35.15-12.69-26.85-.69-53.43,15.26-65.47,39.27-2.35,4.7-4.21,9.69-7.3,13.94-4.04,5.56-10.09,9.69-12.93,15.94-2.92,6.4-1.94,13.87-.34,20.72,0,0,3.24,12.19,4.62,19.41Z"/>
          <path class="cls-4" d="M3316.64,902.81c-4.01,0-8.03-.93-11.63-2.69-.86-.42-1.84-.98-2.61-1.96-1.68-2.13-1.27-4.76-1.04-6.18,2.36-14.96,2.72-30.17,1.08-45.23-.18-1.65,1.01-3.13,2.66-3.31,1.64-.18,3.13,1.01,3.31,2.66,1.7,15.58,1.33,31.33-1.11,46.81-.12.78-.17,1.3-.13,1.55.07.04.21.12.49.26,2.86,1.4,6.05,2.12,9.23,2.08,1.61-.02,3.02,1.31,3.04,2.96.02,1.66-1.31,3.02-2.96,3.04-.1,0-.2,0-.3,0Z"/>
        </g>
        <path class="cls-15" d="M3341.24,1643.12l10.71,78.89s156.73-58.26,195.31-126.18c-4.31-19.19-8.04-51.37-8.04-51.37l-197.97,98.67Z"/>
        <path class="cls-15" d="M3336.13,1636.26l-24.86,83.2s-112.56-40.36-150.22-71.56c.23-.9,3.68-58.58,3.68-58.58l171.4,46.94Z"/>
        <path class="cls-17" d="M3104.06,1116.4c30.8-33.4,112.81-63.46,154.94-73.44,5.18-1.23,24.32,20.17,59.36,14.35,14.93-2.48,34.72,3.28,54.33-21.28,71.85,19.38,110.91,18.51,168.54,63.86.21,1.01-38.9,141.89,1.72,476.75-23.04,10.55-148.16,133.42-380.28,52.84-5.54-23.4-12.04-436.09-58.6-513.08Z"/>
        <path class="cls-15" d="M3271.01,1009.91l47.34,47.39s-12.83,39.67-17.78,56.5c-4.9-1.82-44.22-38.29-56.89-66.81-.66-3.04,27.33-37.07,27.33-37.07Z"/>
        <path class="cls-15" d="M3363.56,1003.29l-45.21,54.01s18,38.69,26.08,54.27c4.47-2.72,37.3-41.07,44.29-71.48.07-3.11-25.16-36.8-25.16-36.8Z"/>
      </g>
    </g>
    <path class="cls-4" d="M3121.37,1244.87c-1.14,0-2.19-.76-2.5-1.92-3.31-12.18-7.98-24.01-13.87-35.18l-.88-1.66c-2.11-3.94-4.29-8.02-5.4-12.57-.34-1.39.51-2.8,1.91-3.14,1.39-.34,2.8.51,3.14,1.91.95,3.91,2.89,7.53,4.93,11.36l.9,1.68c6.07,11.5,10.88,23.69,14.29,36.24.38,1.38-.44,2.81-1.82,3.19-.23.06-.46.09-.68.09Z"/>
    <path class="cls-26" d="M3523.16,1669s-41.26,54.07-50.79,77.93c.55-.32,71.39,8.17,96.75,1.44,6.06-13.78,16.39-21.82,10.01-58.18.16.27,23.13-51.59,23.13-51.59l-67.4-4.26-11.71,34.66Z"/>
    <g>
      <path class="cls-17" d="M3550.58,1386.89c-7.1-31.28-73.51-95.49-152-141.25-63.02-36.75-1.29-139.86,27.89-147.49,31.64-18.52,41.41-32.68,114.76,1.72,39.99,37.1,157.37,184.44,156.5,300.05l-147.15-13.04Z"/>
      <path class="cls-17" d="M3550.54,1391.32c-4.22-52.8,147.49,2.61,147.18,8.61-8.73,172.54-81.22,259.56-81.22,259.56l-97.32-10.04c.38-4.77,36.79-190.22,31.36-258.13Z"/>
      <path class="cls-4" d="M3550.57,1389.89c-1.51,0-2.81-1.14-2.98-2.68-.18-1.65,1.01-3.13,2.66-3.31l38.63-4.2c1.65-.18,3.13,1.01,3.31,2.66.18,1.65-1.01,3.13-2.66,3.31l-38.63,4.2c-.11.01-.22.02-.33.02Z"/>
    </g>
    <path class="cls-4" d="M3524.97,1348.1c-.77,0-1.54-.29-2.13-.88-10.2-10.25-20.96-20.19-31.97-29.55-1.26-1.07-1.42-2.97-.34-4.23,1.07-1.26,2.97-1.42,4.23-.34,11.14,9.47,22.02,19.53,32.34,29.89,1.17,1.17,1.17,3.07,0,4.24-.58.58-1.35.87-2.12.87Z"/>
    <path class="cls-4" d="M3523.55,1627.9c-.16,0-.32-.01-.47-.04-1.64-.26-2.75-1.8-2.49-3.43l19.39-122c.26-1.64,1.81-2.75,3.43-2.49,1.64.26,2.75,1.8,2.49,3.43l-19.39,122c-.23,1.48-1.51,2.53-2.96,2.53Z"/>
    <path class="cls-4" d="M3304.53,1657.39c-20.13,0-38.14-1.35-53.53-3.24-54.83-6.75-88.16-21.32-89.55-21.93-1.51-.67-2.2-2.44-1.53-3.96.67-1.52,2.44-2.2,3.96-1.53.33.15,34.08,14.87,88.1,21.5,49.81,6.11,127.54,6.38,215.03-27.02,1.55-.59,3.28.19,3.87,1.73.59,1.55-.18,3.28-1.73,3.87-61.71,23.56-118.66,30.59-164.61,30.59Z"/>
    <path class="cls-4" d="M3430.97,1493.18c-.65,0-1.29-.21-1.84-.63-25.48-19.87-54.81-35.32-83.17-50.27-32.79-17.28-66.71-35.14-95.09-60.01-1.25-1.09-1.37-2.99-.28-4.23,1.09-1.25,2.99-1.37,4.23-.28,27.85,24.4,61.44,42.1,93.93,59.21,28.6,15.07,58.17,30.65,84.07,50.84,1.31,1.02,1.54,2.9.52,4.21-.59.76-1.47,1.16-2.37,1.16Z"/>
    <path class="cls-4" d="M3373.72,1497.47c-.42,0-.85-.09-1.25-.28-20.19-9.32-41.42-16.52-63.1-21.41-1.62-.36-2.63-1.97-2.27-3.59.36-1.62,1.97-2.63,3.59-2.27,22.09,4.98,43.72,12.32,64.29,21.82,1.5.69,2.16,2.48,1.47,3.98-.51,1.1-1.59,1.74-2.73,1.74Z"/>
    <g>
      <g>
        <path class="cls-3" d="M3570.94,1807.04s11.89-57.13-17.68-59.86c1.24-3.2-71.82-6.61-71.82-6.61,0,0-24.4-7.45-22.99,59.42-3.76-.35-17.37-1.6-17.37-1.6,0,0-5.39-85.43,41.96-80.4.6-1.36,71.36,6.42,71.36,6.42,0,0,50.36-7.05,36.25,84.44-.51.43-19.72-1.82-19.72-1.82Z"/>
        <g>
          <path class="cls-27" d="M3681.47,1820.03c-51.47-8.31-234.02-40.96-361.07-19.87-11.96,2.61-8.49,32.43-16.53,77.91-10.42,59-23.8,146.06-24.72,251.83,5.37,3.33,35.14,20.92,35.14,20.92,0,0,196.27,15.29,345.81,5.57,2.8-.18,5.17-2.13,5.88-4.85,9.48-36.21,42.94-243.15,34.62-311.68-1.23-10.14-9.06-18.21-19.14-19.84Z"/>
          <path class="cls-4" d="M3506.9,2028.95c-1.32,0-2.52-.87-2.89-2.2-.44-1.6.5-3.25,2.09-3.69,35.49-9.82,186.63-57.37,188.15-57.85,1.58-.5,3.26.38,3.76,1.96.5,1.58-.38,3.26-1.96,3.76-1.52.48-152.76,48.06-188.35,57.91-.27.07-.54.11-.8.11Z"/>
          <path class="cls-4" d="M3506.9,2028.95c-.47,0-.94-.11-1.38-.34-1.29-.67-129.88-67.54-171.74-91.07-1.44-.81-1.96-2.64-1.15-4.08.81-1.45,2.64-1.96,4.08-1.15,41.78,23.48,170.28,90.3,171.57,90.97,1.47.76,2.04,2.58,1.28,4.05-.53,1.03-1.58,1.62-2.67,1.62Z"/>
        </g>
      </g>
      <g>
        <path class="cls-26" d="M3445.83,1740.29c4.41-5.2,18.53-22.01,29.47-36.71,4.04-5.43,8.38-10.63,12.95-15.62,12.02-13.14,36.91-38.94,54.46-30.15,1.42.71,11.46,42.32-38.48,65.94-.07.19-2.18-11.93-27.72,9.3-4.13,4.48-24.42,20.03-30.59,12.23-1.24-1.57-1.21-3.66-.08-4.99Z"/>
        <path class="cls-26" d="M3524.28,1665.08s-25.48,40.11-37.22,63.68c18.99,10,56.71,34.97,83.19,30.23,7.35-13.57,14.1-38.46,10.65-76.16-5.96-16.24-25.93-38.06-47.28-18.89-9.32,8.36-9.35,1.14-9.35,1.14Z"/>
        <path class="cls-26" d="M3559.18,1782.14c-1.98,3.31-4.12,6.61-7.11,9.04-3.06,2.49-7.2,3.98-11.02,2.99-3.83-.99-6.93-4.95-6.13-8.81-3.5,4.55-9.43,7.56-15.04,6.33-5.61-1.23-9.96-7.55-8-12.95-3.78,2.85-9.32,3.1-13.34.61-4.02-2.49-6.26-7.56-5.4-12.21-4.28,4.02-11.22,1.05-14.98-3.46-7.38-8.85,11.15-39.99,11.6-39.86,2.19.61,4.37,1.23,6.56,1.84,17.69,4.97,79.2,21.29,78.63,23.11-1.66,5.32-11.44,26.11-15.62,33.12-.05.08-.1.16-.15.25Z"/>
        <path class="cls-4" d="M3493.13,1770.14c-.34,0-.68-.06-1.01-.18-1.56-.56-2.37-2.28-1.81-3.84l5.24-14.63c.56-1.56,2.28-2.37,3.84-1.81,1.56.56,2.37,2.28,1.81,3.84l-5.24,14.63c-.44,1.23-1.59,1.99-2.82,1.99Z"/>
        <path class="cls-4" d="M3510.45,1782.64c-.41,0-.82-.08-1.22-.26-1.51-.67-2.2-2.45-1.52-3.96l8.22-18.51c.67-1.51,2.44-2.2,3.96-1.52,1.51.67,2.2,2.45,1.52,3.96l-8.22,18.51c-.5,1.12-1.59,1.78-2.74,1.78Z"/>
        <path class="cls-4" d="M3534.81,1789.98c-.3,0-.6-.04-.89-.14-1.58-.49-2.46-2.17-1.97-3.76l6.42-20.63c.49-1.58,2.18-2.47,3.76-1.97,1.58.49,2.46,2.17,1.97,3.76l-6.42,20.63c-.4,1.29-1.58,2.11-2.86,2.11Z"/>
        <path class="cls-4" d="M3492.84,1720.78c-.51,0-1.02-.13-1.49-.4-1.44-.83-1.93-2.66-1.1-4.1l14.06-24.42c.83-1.44,2.66-1.93,4.1-1.1,1.44.83,1.93,2.66,1.1,4.1l-14.06,24.42c-.55.96-1.56,1.5-2.6,1.5Z"/>
      </g>
      <path class="cls-24" d="M3346.49,1796.64l-32.19,354.18-30.88-15.34c-6.76-3.36-10.75-10.53-10.03-18.05l28.51-299.58c.94-9.9,8.77-17.74,18.66-18.7l25.94-2.52Z"/>
    </g>
  </g>
  <g id="Person_4" data-name="Person 4">
    <path class="cls-21" d="M1795.63,1380.4c-11.51-32.6-90.66-93.02-180.41-132.18-72.07-31.45-18.89-149.56,11.39-161.38,23.17-17.47,34.01-30.94,70.94-25.92,31.21,4.24,60.21,18.36,83.4,39.68,61.19,56.25,119.21,176.88,130.45,279.81h-115.77Z"/>
    <g>
      <g>
        <path class="cls-26" d="M1851.47,1709.11c-.9.1-8.58,11.04-9.25,27.64l51.43,18.83c-7.89-18.57-22.72-48.69-42.18-46.47Z"/>
        <path class="cls-26" d="M1867.42,1723.3s-2.71,7.3-9.04-4.62c-14.51-27.31-42.81-12.63-54.85,1.6-.31.66-.61,1.31-.91,1.97l69.87,25.58c-2.78-14.05-5.07-24.53-5.07-24.53Z"/>
        <path class="cls-26" d="M1802.61,1722.25c-16.62,35.9-18.9,62.91-16.53,79.07,25.05,14.61,72.48,3.31,95.41.22-1.71-15.31-5.71-37.04-9.01-53.72l-69.87-25.58Z"/>
        <path class="cls-26" d="M1788.72,1828.86c.78,4.09,1.73,8.21,3.85,11.79,2.18,3.66,5.81,6.69,10.05,7.11,4.24.42,8.85-2.44,9.47-6.65,1.86,5.91,6.75,11.15,12.88,11.98,6.13.83,12.87-3.95,12.9-10.14,2.77,4.28,7.41,8.29,12.4,7.26,4.99-1.03,10.02-7.03,10.87-12.05,2.84,5.65,7.93,10.7,13.4,7.53,10.75-6.22,6.57-50.08,6.07-50.12-2.44-.19-4.88-.38-7.32-.57-19.75-1.53-88.06-7.8-88.15-5.74-.29,6,1.9,30.67,3.53,39.31.02.1.04.2.06.31Z"/>
      </g>
      <g>
        <path class="cls-3" d="M1777.69,1875.33s-5.57-62.65,26.43-61.87c-.93-3.58,77.72,1.91,77.72,1.91,0,0,27.06-4.92,17.17,66.5,4.06.1,18.79.46,18.79.46,0,0,16.47-90.79-34.86-91.33-.47-1.54-77.2-2.06-77.2-2.06,0,0-53.03-13.85-49.38,85.86.5.52,21.33.53,21.33.53Z"/>
        <path class="cls-27" d="M1657.74,1875.4c56.15-2.45,255.66-14.54,389.04,23.94,12.48,4.29,5.03,35.78,7.94,85.48,3.77,64.47,7.19,159.35-5.07,272.7-6.17,2.9-40.24,17.99-40.24,17.99,0,0-212.04-8.21-370.91-37.33-2.97-.55-5.27-2.93-5.69-5.92-5.62-39.95-15.53-265.68,1.96-338,2.59-10.7,11.98-18.36,22.98-18.84Z"/>
      </g>
      <path class="cls-24" d="M2013.11,1894.91l-9.88,383.2,34.98-12.56c7.65-2.75,12.82-9.93,13-18.06l6.99-324.29c.23-10.71-7.16-20.08-17.64-22.35l-27.45-5.94Z"/>
      <path class="cls-26" d="M1918.96,1828.49c-2.54-6.9-10.6-29.14-16.22-48.08-2.08-7-4.54-13.86-7.32-20.61-.54-1.32-1.13-2.74-1.77-4.23l-51.43-18.83c-.59,14.58,4.22,33.53,23.76,53.37,0,.22,6.63-11.27,24.61,19.68,2.52,6.07,17.3,29.32,26.43,23.72,1.84-1.13,2.58-3.26,1.94-5.02Z"/>
      <path class="cls-4" d="M1879.71,1791.53c-1.54,0-2.91-1.11-3.18-2.68l-5.19-29.93c-.31-1.76.87-3.43,2.63-3.74,1.76-.3,3.43.87,3.74,2.63l5.19,29.93c.31,1.76-.87,3.43-2.63,3.74-.19.03-.37.05-.56.05Z"/>
      <g>
        <path class="cls-26" d="M1878.27,1831.76c-1.43-15.3-3.61-27.21-7.21-35.36-3.3-7.48-11.4-6.86-13.29,1.1-1.74,7.35-1.66,19.27-.12,36.69.45,5.08,3.82,9.83,9.14,11.8,10.23,3.79,12.63-6.75,11.48-14.23Z"/>
        <path class="cls-26" d="M1857.82,1840.95c.26-16.37-.24-33.58-2.88-43.13-1.49-5.38-8.85-6.23-11.26-1.19-3.21,6.72-6.37,19.13-9.26,38.59-.75,5.03,1.13,10.31,5.33,13.26,8.07,5.67,17.4-.02,18.07-7.54Z"/>
        <path class="cls-26" d="M1840.78,1841.03c.27-17.29-.29-35.51-3.34-44.66-1.51-4.54-7.79-5.25-10.08-1.06-3.45,6.32-6.87,19.09-9.97,39.99-.75,5.03,1.13,10.31,5.33,13.26,8.07,5.67,17.4-.02,18.07-7.54Z"/>
        <path class="cls-26" d="M1818.37,1836.06c.65-14.98.7-29.11-1.37-37.03-1.38-5.27-8.35-6.52-11.28-1.93-2.99,4.68-5.98,13.6-8.86,29.57-.55,3.03-.38,6.23.91,9.02,5.11,11.03,20.29,7.79,20.61.37Z"/>
        <path class="cls-19" d="M1859.14,1842.39c-1.74,0-3.16-1.41-3.18-3.15l-.28-36.05c-.01-1.75,1.4-3.19,3.15-3.2,1.75,0,3.19,1.4,3.2,3.15l.28,36.05c.01,1.75-1.4,3.19-3.15,3.2h-.02Z"/>
        <path class="cls-19" d="M1838.2,1850.36c-.06,0-.12,0-.18,0-1.75-.1-3.09-1.6-3-3.35l2.34-42c.1-1.75,1.59-3.09,3.35-3,1.75.1,3.09,1.6,3,3.35l-2.34,42c-.09,1.69-1.5,3-3.17,3Z"/>
        <path class="cls-19" d="M1816.75,1842.94c-.15,0-.3-.01-.46-.03-1.74-.25-2.94-1.86-2.69-3.6l3.47-24.15c.25-1.74,1.85-2.94,3.6-2.69,1.74.25,2.94,1.86,2.69,3.6l-3.47,24.15c-.23,1.58-1.59,2.73-3.14,2.73Z"/>
      </g>
    </g>
    <path class="cls-21" d="M1780.69,1398.11c-12.58-66.01,130.29-25.34,130.72-17.71,12.31,219.34-9.92,345.79-9.92,345.79l-125.78,3.01c-65.69-.88,21.16-246.19,4.98-331.09Z"/>
    <g>
      <g>
        <g>
          <path class="cls-26" d="M1442.92,2761.61s-.04-.04-.05-.06c.02.07.03.08.05.06Z"/>
          <path class="cls-26" d="M1516.09,2721.04c-6.19-41.83,13.55-89.06,13.55-89.06l-89.48,17.76-6.69,86.16s1.43,9.69,9.81,10.54c-.06,7.75-.16,14.93-.37,15.19,22.42,30.47,121.8,1.62,121.8,1.62-37.49-12.04-47.74-36.28-48.62-42.2Z"/>
        </g>
        <path class="cls-25" d="M1580.58,2767.82c-49.93-19.09-57.39-50.57-64.88-49.59-2.61,1.59-5.32,3.05-8.1,4.37-7.2,3.44-10.41,11.94-7.7,19.43l5.43,14.99-34.95-23.37c-2.14-1.43-4.62-2.2-7.19-2.44-10.4-.97-20.26-4.29-28.54-10.48-5.25-.32-8.92,15.85-10.68,31.45-1.92,17.03-2.55,34.49,2.47,51.01.55,1.81,1.24,3.71,2.84,4.91.11.08.22.16.34.23,1.82,1.17,4.25,1.29,6.5,1.36,13.78.4,27.56.8,41.33,1.2,1.93.06,4.07.12,4.14-4.74,19.72.69,38.53,6.1,56.92,12.33,5.51,1.87,11.28,2.99,17.15,3.42,19.7,1.42,60.96,3.77,80.5-2.61,4.04-1.32,6.83-4.68,6.88-8.55.14-11.48-5.11-20.99-62.46-42.92Z"/>
      </g>
      <g>
        <g>
          <path class="cls-26" d="M1676.66,2748.15s-.04-.04-.05-.06c.02.07.03.08.05.06Z"/>
          <path class="cls-26" d="M1749.84,2707.57c-6.19-41.83,13.55-89.06,13.55-89.06l-89.48,17.76-6.69,86.16s1.43,9.69,9.81,10.54c-.05,7.75-.16,14.93-.37,15.19,22.42,30.47,121.8,1.62,121.8,1.62-37.49-12.04-47.74-36.28-48.62-42.2Z"/>
        </g>
        <path class="cls-25" d="M1814.32,2754.36c-49.93-19.09-57.39-50.57-64.88-49.59-2.61,1.59-5.32,3.05-8.1,4.37-7.2,3.44-10.41,11.94-7.7,19.43l5.43,14.99-34.95-23.37c-2.14-1.43-4.62-2.2-7.19-2.44-10.4-.97-20.26-4.29-28.54-10.48-5.25-.32-8.92,15.85-10.68,31.45-1.92,17.03-2.55,34.49,2.47,51.01.55,1.81,1.24,3.71,2.84,4.91.11.08.22.16.34.23,1.82,1.17,4.25,1.29,6.5,1.36,13.78.4,27.56.8,41.33,1.2,1.93.06,4.07.12,4.14-4.74,19.72.69,38.53,6.1,56.92,12.33,5.51,1.87,11.28,2.99,17.15,3.42,19.7,1.42,60.96,3.77,80.5-2.61,4.04-1.32,6.83-4.68,6.88-8.55.14-11.48-5.11-20.99-62.46-42.92Z"/>
      </g>
      <path class="cls-2" d="M1400.99,1542.98s-41.85,161.17,3.74,1155.48c61.03,19.42,97.72,11.82,131.94,0,13.5-36.23,40.49-799.6,40.49-799.6l55.23,787.64s52.99,7,140.56-9.1c3.63-9.53,3.01-833.77-16.83-1036.74-25.82-10.54-355.13-97.68-355.13-97.68Z"/>
      <path class="cls-4" d="M1576.76,1918.49c-.13,0-.27,0-.4-.03-1.64-.22-2.79-1.73-2.57-3.37l9.9-73.58c.07-.54.29-1.05.63-1.47l28.74-35.92c1.03-1.29,2.92-1.5,4.22-.47,1.29,1.04,1.5,2.92.47,4.22l-28.22,35.28-9.78,72.75c-.2,1.51-1.49,2.6-2.97,2.6Z"/>
      <path class="cls-4" d="M1433.47,2706.78c-1.54,0-2.85-1.18-2.99-2.74-10.97-125.95-10.93-1070.8-10.93-1080.33,0-1.66,1.34-3,3-3h0c1.66,0,3,1.34,3,3,0,9.53-.04,954.12,10.91,1079.81.14,1.65-1.08,3.11-2.73,3.25-.09,0-.18.01-.26.01Z"/>
    </g>
    <path class="cls-25" d="M1525.4,1071.2l230.18,31.15v517.34s-95.98,85.11-331.98-15.99c0-178.76,101.81-532.49,101.81-532.49Z"/>
    <g>
      <g>
        <path class="cls-25" d="M1662.94,740.66c-15.39-8.06-32.58-12.9-50.02-14.08-9.43-.64-19.65.02-26.97,5.67-4.85,3.74-7.88,9.28-12.68,13.07-8.38,6.62-20.47,6.8-30.08,11.67-15.19,7.7-21.48,26.07-19.89,42.53,1.33,13.79,3.18,20.03-4.72,31.16-7.19,10.13-14.72,18.88-17.92,31.3-3.83,14.88.04,32.73,12.71,41.32,4.58,3.1,10.16,4.98,13.6,9.33,2.51,3.16,3.53,7.22,5.05,10.97,7.12,17.56,27.31,28.66,45.84,25.21,7.55-1.41,14.65-4.92,22.29-5.68,14.5-1.45,27.86,7.03,41.51,12.17,13.65,5.14,32.06,5.47,39.6-7.08,1.76-2.93,2.81-6.42,5.38-8.67,4.06-3.54,10.13-2.66,15.5-2.76,21.53-.39,38.8-20.54,42.81-41.83,4.01-21.29-2.28-43.13-10-63.36-3.27-8.57-7.27-17.88-13.89-24.43-7.16-7.08-15.29-8.38-20.12-18.05-5.05-10.11-4.09-22.45-10.38-31.9-5.94-8.91-17.95-11.5-27.64-16.57Z"/>
        <path class="cls-25" d="M1705.68,757.88c3.02,5.55,4.59,11.85,8.59,16.8,3.57,4.42,8.85,7.48,11.92,12.23,6.66,10.34.4,23.74,2.36,35.71.73,4.45,2.61,8.66,3.54,13.08,1.82,8.6-.16,17.85-5.36,25.02-2.77,3.82-6.88,7.24-11.75,7.32-4.33.07-8.23-2.5-11.46-5.29-5.75-4.96-10.51-10.99-13.92-17.64-3.57-6.95-5.65-14.49-8.46-21.75-4.54-11.72-11.04-22.76-19.17-32.57-3.28-3.96-6.86-7.76-9.3-12.25-6.02-11.07-3.29-34.06,10.37-39.55,15.11-6.07,35.81,6.32,42.64,18.88Z"/>
        <path class="cls-13" d="M1685.82,866.38s13.88-30.27,33.21-17.25c5.34,3.59,9.05,9.25,10.45,15.56,2.97,13.38,1.2,36.48-31.77,44.52.61,1.4-11.89-42.83-11.89-42.83Z"/>
        <path class="cls-26" d="M1581.67,1026.7l3.66-139.73,91.29,45-3.11,104.88c-.21,7.15,3.58,13.82,9.81,17.26l44.94,18.53s-85.48,102.42-211.17-13.47c16.52-4.37,37.72-10.68,51.15-14.75,7.81-2.37,13.22-9.51,13.44-17.72Z"/>
        <path class="cls-13" d="M1583.62,952.18l.48-18.16c4.44-12.11,11.89-28.75,16.78-39.37l75.74,37.34-1.84,61.97c-19.05,3.01-53.43.27-91.15-41.77Z"/>
        <path class="cls-26" d="M1563.77,866.21c2.87,61.76,39.58,106.44,82.02,108.2,63.82,2.65,74.5-53.68,71.63-115.44s-39.59-110.2-82.02-108.2-74.5,53.68-71.63,115.44Z"/>
        <path class="cls-25" d="M1627.71,864.11c.45,4.14-.9,7.68-3.02,7.92-2.12.24-4.21-2.93-4.66-7.07-.45-4.14.9-7.68,3.02-7.92,2.12-.24,4.21,2.93,4.66,7.07Z"/>
        <path class="cls-25" d="M1697.84,866.56c.45,4.14-.9,7.68-3.02,7.92-2.12.24-4.21-2.93-4.66-7.07-.45-4.14.9-7.68,3.02-7.92,2.12-.24,4.21,2.93,4.66,7.07Z"/>
        <path class="cls-4" d="M1607.75,849.84c-1.28,0-2.47-.83-2.87-2.12-.48-1.58.41-3.26,1.99-3.75,17.65-5.4,29.84-.64,30.35-.43,1.54.62,2.28,2.37,1.66,3.9-.62,1.53-2.36,2.28-3.89,1.67-.16-.06-10.9-4.13-26.37.6-.29.09-.59.13-.88.13Z"/>
        <path class="cls-4" d="M1704.97,853.03c-.29,0-.59-.04-.88-.13h0c-.13-.04-12.9-3.88-23.65-.92-1.59.44-3.25-.5-3.69-2.1-.44-1.6.5-3.25,2.1-3.69,12.47-3.43,26.42.79,27.01.98,1.58.49,2.47,2.17,1.98,3.75-.4,1.29-1.58,2.12-2.87,2.12Z"/>
        <path class="cls-4" d="M1663.05,908.42c-2.55,0-5.46-.3-8.75-.9-1.63-.3-2.71-1.86-2.41-3.49.3-1.63,1.86-2.71,3.49-2.41,10.45,1.91,13.54-.07,14.38-1.01.88-.99.65-2.33.6-2.55-9.03-25.49-6.48-42.33-6.36-43.04.26-1.64,1.8-2.75,3.44-2.49,1.63.26,2.75,1.8,2.49,3.43-.04.24-2.36,16.27,6.13,40.2.02.05.03.1.05.15.52,1.73.7,5.43-1.88,8.31-2.28,2.54-5.97,3.81-11.18,3.81Z"/>
        <path class="cls-15" d="M1672.9,928.22s-4.45,29.27-37.01-1.91l37.01,1.91Z"/>
        <g>
          <path class="cls-26" d="M1571.86,868.06s-25.39-21.4-37.35-1.32c-3.3,5.54-4.26,12.25-2.85,18.56,2.99,13.37,14.39,33.5,47.62,26.6.04,1.53-7.42-43.84-7.42-43.84Z"/>
          <g>
            <path class="cls-4" d="M1568.72,899.25c-1.03,0-2.04-.53-2.6-1.49-9.21-15.84-25.12-17.1-25.27-17.11-1.65-.11-2.9-1.54-2.79-3.2.11-1.65,1.56-2.9,3.2-2.79.78.05,19.25,1.52,30.05,20.08.83,1.43.35,3.27-1.08,4.1-.47.28-.99.41-1.51.41Z"/>
            <path class="cls-4" d="M1550.35,895.19c-.73,0-1.46-.27-2.04-.8-1.21-1.13-1.28-3.03-.15-4.24l6.9-7.43c1.13-1.21,3.03-1.28,4.24-.15,1.21,1.13,1.28,3.03.15,4.24l-6.9,7.43c-.59.64-1.39.96-2.2.96Z"/>
          </g>
        </g>
        <path class="cls-25" d="M1677.19,748.5c-1.25,10.94-5.82,33.3-15.87,38.64-11.23,5.97-27.11,7.47-31.88,18.87-1.96,4.68-1.42,10.12-3.65,14.69-6.38,13.09-28.68,9.8-38.43,20.82-4.09,4.63-5.21,11.04-8.64,16.14-3.43,5.1-11.58,8.5-15.98,4.06-3.45-16.79-6.76-32.57-4.21-49.45,2.55-16.88,10.92-33.56,25.67-43.09,8.65-5.59,7.86-22.59,18.04-24.91,20.64-4.72,57.11-6.98,74.95,4.23Z"/>
        <path class="cls-25" d="M1715.01,834.84c-2.39-4-6.12-6.95-9.49-10.16-3.36-3.21-6.55-7.02-7.27-11.63-.53-3.36.32-6.85-.39-10.17-1.13-5.29-5.89-8.96-10.63-11.51-4.74-2.55-9.96-4.58-13.56-8.6-4.52-5.05-5.58-12.93-2.55-19.01,7.55-2.34,15.19-6.95,22.78-4.79,7.6,2.17,14.47,7.89,16.59,15.55,2.19,7.91-.41,17.65,5.2,23.62,1.89,2.01,4.45,3.21,6.7,4.8,8.97,6.34,12.18,19.69,7.09,29.46-1.07,2.05-2.45,3.94-3.41,6.05-1.43,3.14-1.97,6.79-4.26,9.36-2.28,2.58-4.41-8.98-6.81-12.97Z"/>
      </g>
      <path class="cls-4" d="M1518.39,894.94c-.92,0-1.82-.42-2.41-1.21-1.96-2.64-4.83-4.57-7.87-6.62-1.82-1.23-3.71-2.5-5.47-3.97-12.11-10.16-15.15-29.37-6.79-42.82,3.57-5.74,8.69-10.08,13.65-14.27,5.39-4.57,10.49-8.88,13.41-14.69,4.07-8.1,3.28-18.03,2.58-26.78-.13-1.65,1.1-3.1,2.75-3.23,1.64-.13,3.1,1.1,3.23,2.75.72,9.07,1.62,20.35-3.2,29.95-3.47,6.91-9.27,11.82-14.89,16.58-4.81,4.08-9.36,7.92-12.43,12.86-6.73,10.82-4.19,26.88,5.55,35.05,1.52,1.27,3.19,2.4,4.96,3.59,3.33,2.24,6.77,4.55,9.34,8.02.99,1.33.71,3.21-.62,4.2-.54.4-1.16.59-1.79.59Z"/>
      <path class="cls-4" d="M1729.8,908.31c-.1,0-.21,0-.31-.02-1.65-.17-2.85-1.65-2.67-3.29.39-3.75,3.44-5.95,5.67-7.57l.18-.13c8.98-6.51,15.17-16.54,16.98-27.53,1.81-10.99-.83-22.5-7.25-31.58-2.2-3.11-4.79-5.9-7.52-8.85-2.4-2.59-4.89-5.27-7.1-8.2-3.48-4.62-8.96-13.83-6.45-23.58.41-1.6,2.05-2.57,3.65-2.16,1.6.41,2.57,2.05,2.16,3.65-1.88,7.32,2.59,14.71,5.42,18.47,2.02,2.68,4.3,5.14,6.71,7.73,2.75,2.96,5.59,6.03,8.02,9.47,7.32,10.35,10.34,23.48,8.27,36.02-2.06,12.54-9.13,23.99-19.38,31.41l-.19.14c-1.46,1.05-3.1,2.25-3.22,3.32-.16,1.54-1.46,2.69-2.98,2.69Z"/>
    </g>
    <path class="cls-21" d="M1568.23,1044.42c-34.09,256.14-58.21,522.18-112.74,774.72-40.18,0-135.61,0-176.55-10.07-.38-89.79,30.91-159.98,55.01-246.43,24.75-88.81,31.9-182.56,20.91-274.13-1.27-10.62,4.4-167.48,21.52-180.66,56.92-43.81,47.82-31.69,132.9-52.32.47-.11.95-.23,1.42-.34,18.49-4.48,42.7-6.17,57.52-10.77Z"/>
    <path class="cls-21" d="M1746.01,1079.54c8.17,5.34,14.92,9.99,21.33,14.42,36.43,25.19,58.01,55.34,58.11,99.83.46,207.95-49.37,426.55-8.54,625.35-34.94,11.21-52.52,11.94-120.88,0,8.9-267.83,34.45-602.9-15.41-766.84l24.51,7.8c14.43,4.59,28.19,11.15,40.88,19.45Z"/>
    <g>
      <path class="cls-26" d="M1536.43,1229.02s54.73-39.38,80.17-48.9c-.35.57,7.08,75.46-.59,102.06-14.71,6.09-23.44,16.8-61.77,9.29.29.17-14.69,6.69-14.69,6.69l-13.1-63.09,9.98-6.04Z"/>
      <path class="cls-26" d="M1696.13,1274.05c-.29-7.64-29.48-12.78-54.64-15.81h0s-.09-.05-.13-.07c-3.18-1.83-2.46-6.63,1.09-7.56,3.19-.84,5.73-1.44,5.78-1.28,63-9.93,73.7-17.85,72.68-24.44-.88-2.71-5.56-3.99-12.34-4.35,9.51-3.29,11.91-6.62,11.61-9.79-2.76-10.58-60.63-5.25-82.17-2.88-1.32.15-2.41-1.09-2.04-2.37,0-.01,0-.03.01-.04.2-.7.79-1.24,1.51-1.37,52.44-9.5,72.33-18.08,71.7-24.67-3.4-13.01-92.58.69-92.58.69l-.59,102.06,18.7-2.58h0c50.16,4.97,60.68.51,61.42-5.55Z"/>
      <path class="cls-4" d="M1636.89,1229.43c-1.55,0-2.86-1.19-2.99-2.75-.14-1.65,1.09-3.1,2.74-3.24l71.68-5.89c1.65-.13,3.1,1.09,3.24,2.74.14,1.65-1.09,3.1-2.74,3.24l-71.68,5.89c-.08,0-.17.01-.25.01Z"/>
      <path class="cls-26" d="M1536.43,1229.02s13.02,44.56,17.81,62.44c-29.25,15.69-170.35,184.29-221.51,113.11-13.75-28.57-33.98-85.08,203.7-175.55Z"/>
      <path class="cls-21" d="M1381.19,1104.17s-151.5,160.92-145.84,322.22c8.79,17.63,43.09,65.25,43.09,65.25,0,0,85.94,6.32,145.15-226.23-4.51-2.53-42.4-161.24-42.4-161.24Z"/>
      <path class="cls-21" d="M1235.35,1426.39c54.84-109.46,171.6-159.35,231.67-185.75,3.89-1.71,93.74,60.93,77.44,74.92-62.88,53.98-218.91,205.92-287.35,170.91-20.6-10.54-25.11-53.41-21.76-60.08Z"/>
      <path class="cls-4" d="M1362.59,1448.29c-1.22,0-2.37-.75-2.82-1.97-.57-1.56.23-3.28,1.79-3.85,14.48-5.3,27.93-13.27,39.39-20.33,49.03-30.18,95.16-65.44,137.12-104.81,1.21-1.13,3.11-1.07,4.24.14,1.13,1.21,1.07,3.11-.14,4.24-42.25,39.64-88.71,75.15-138.08,105.54-11.71,7.21-25.47,15.36-40.47,20.85-.34.12-.69.18-1.03.18Z"/>
    </g>
    <path class="cls-4" d="M1421.32,1256.5c-.27,0-.54-.04-.82-.11-1.59-.45-2.52-2.11-2.07-3.7.13-.45,12.93-46,25.32-110.29.31-1.63,1.89-2.69,3.51-2.38,1.63.31,2.69,1.89,2.38,3.51-12.44,64.56-25.31,110.34-25.44,110.79-.37,1.32-1.58,2.18-2.89,2.18Z"/>
    <path class="cls-4" d="M1310.72,1332.87c-.7,0-1.4-.24-1.97-.74-1.25-1.09-1.38-2.98-.29-4.23,26.48-30.42,60.86-52.87,99.42-64.91,1.58-.49,3.26.39,3.76,1.97.49,1.58-.39,3.26-1.97,3.76-37.5,11.71-70.93,33.54-96.68,63.12-.59.68-1.43,1.03-2.26,1.03Z"/>
    <path class="cls-4" d="M1783.2,1635.95h-.04c-1.66-.02-2.98-1.38-2.96-3.04l2.78-229.22c.23-19.23-32.46-119.41-32.79-120.41-.51-1.57.34-3.27,1.92-3.78,1.57-.51,3.27.34,3.78,1.92,1.36,4.16,33.33,102.14,33.09,122.35l-2.78,229.22c-.02,1.64-1.36,2.96-3,2.96Z"/>
  </g>
  <g id="Person_3" data-name="Person 3">
    <g>
      <path class="cls-20" d="M2429.89,884.38s13.04-31.76,33.43-19.13c5.63,3.49,9.68,9.17,11.37,15.61,3.59,13.67,2.71,37.55-30.85,47.19.68,1.42-13.95-43.67-13.95-43.67Z"/>
      <path class="cls-11" d="M2319.14,1053.41l-1.89-144.19,95.62,42.68,1.05,108.24c.07,7.38,4.24,14.1,10.78,17.39l46.64,23.46s-83.41,102.87-217.24-11.48c16.8-5.18,38.33-12.55,51.96-17.29,7.93-2.76,13.2-10.34,13.09-18.81Z"/>
      <path class="cls-20" d="M2318.13,976.51l-.25-18.74c4.07-12.67,11.05-30.12,15.65-41.27l79.33,35.41.62,63.96c-19.45,3.87-54.89,2.45-95.35-39.35Z"/>
      <path class="cls-11" d="M2294.29,887.82c5.45,63.55,44.98,108.12,88.66,108.21,65.69.13,74.38-58.37,68.93-121.91-5.45-63.55-45.14-111.99-88.66-108.21s-74.38,58.37-68.93,121.91Z"/>
      <path class="cls-25" d="M2358.33,890.02c.63,4.25-.61,7.96-2.78,8.29-2.17.33-4.44-2.85-5.07-7.09-.63-4.25.61-7.96,2.78-8.29,2.17-.33,4.44,2.85,5.07,7.09Z"/>
      <path class="cls-25" d="M2432.02,883.61c.63,4.25-.61,7.96-2.78,8.29s-4.44-2.85-5.07-7.09c-.63-4.25.61-7.96,2.78-8.29,2.17-.33,4.44,2.85,5.07,7.09Z"/>
      <path class="cls-25" d="M2450.27,861.19c-4.89-15.21-16.64-44.5-48.11-38.44-9.55,1.84-17.92,7.7-27.29,10.33-21.84,6.12-47.23-5.57-56.97-26.25-4.75-10.07-6.42-19.88-10.41-30.28,2.99-16.53,18.34-29.34,33.95-35.17,34.41-12.85,76.04-2.84,101.03,24.3,24.99,27.14,23,61.79,7.81,95.51Z"/>
      <path class="cls-25" d="M2301.67,899.96c2.73-14.17-2.42-30.06,4.1-43.37,2.29-4.68,5.17-9.05,7.4-13.76,5.88-12.45,11.15-29.16,7.05-42.32-2.81-9.03-2.86-16.39-8.35-24.07-.2-5.36-10.73-11.63-15.91-12.81s-10.63.29-15.42,2.61c-21.12,10.2-31.48,35.23-33,58.82-.52,8.03-.21,16.21,2.15,23.89,4.39,14.26,15.34,25.34,25.97,35.72,7.81,7.62,16.3,22.67,26,15.29Z"/>
      <g>
        <path class="cls-11" d="M2302.64,890.27s-26.95-21.03-38.43.16c-3.17,5.85-3.88,12.81-2.18,19.25,3.61,13.67,16.14,33.95,50.01,25.49.11,1.58-9.4-44.89-9.4-44.89Z"/>
        <g>
          <path class="cls-4" d="M2300.55,922.47c-.99,0-1.97-.49-2.54-1.4-10.06-15.89-26.06-16.63-26.74-16.65-1.65-.06-2.95-1.44-2.9-3.09.05-1.65,1.41-2.95,3.08-2.9.8.02,19.8.78,31.62,19.44.89,1.4.47,3.25-.93,4.14-.5.32-1.05.47-1.6.47Z"/>
          <path class="cls-4" d="M2281.51,919.02c-.69,0-1.38-.24-1.95-.72-1.26-1.08-1.41-2.97-.33-4.23l6.79-7.94c1.08-1.26,2.97-1.41,4.23-.33,1.26,1.08,1.41,2.97.33,4.23l-6.79,7.94c-.59.69-1.43,1.05-2.28,1.05Z"/>
        </g>
      </g>
      <path class="cls-4" d="M2338.47,873.91c-1.3,0-2.5-.85-2.88-2.16-.46-1.59.45-3.26,2.04-3.72,15.6-4.54,27.56-2.48,28.07-2.39,1.63.29,2.72,1.85,2.42,3.48-.29,1.63-1.84,2.71-3.48,2.43-.15-.03-11.19-1.87-25.34,2.25-.28.08-.56.12-.84.12Z"/>
      <path class="cls-4" d="M2414.34,865.75c-1.27,0-2.45-.81-2.86-2.09-.5-1.58.37-3.27,1.95-3.77,12.64-4.03,25.64-.75,26.18-.61,1.6.41,2.57,2.05,2.15,3.66-.41,1.6-2.05,2.56-3.65,2.16h0c-.12-.03-11.91-2.97-22.86.52-.3.1-.61.14-.91.14Z"/>
      <path class="cls-4" d="M2398.96,928.32c-2.88,0-6.21-.27-10-.81-1.64-.23-2.78-1.75-2.54-3.4.23-1.64,1.75-2.78,3.4-2.54,13.71,1.96,16.72-.46,17.18-.97.03-.04.12.03.17.05-10.11-25.58-10.31-46.3-10.32-47.18,0-1.66,1.33-3.01,2.99-3.01h.01c1.65,0,2.99,1.33,3,2.99h0c0,.2.22,20.75,10.06,45.4.06.14.1.29.14.43.31,1.33.06,3.53-1.63,5.38-2.25,2.45-6.36,3.67-12.46,3.67Z"/>
      <path class="cls-4" d="M2402.43,956.39c-.06,0-.11,0-.17,0-.76-.04-18.68-1.17-32.84-13.19-1.26-1.07-1.42-2.97-.34-4.23,1.07-1.26,2.97-1.42,4.23-.34,12.64,10.73,29.12,11.76,29.28,11.77,1.65.09,2.92,1.51,2.83,3.16-.09,1.6-1.41,2.83-2.99,2.83Z"/>
      <path class="cls-4" d="M2360.65,847.77c-3.96,0-7.72-.69-11.16-2.08-5.73-2.32-10.95-6.6-16.45-13.47-5.78-7.23-10.46-15.26-13.91-23.87-.62-1.54.13-3.28,1.67-3.9,1.54-.62,3.28.13,3.9,1.67,3.23,8.07,7.61,15.59,13.02,22.35,4.83,6.03,9.28,9.74,14.02,11.66,8.44,3.42,19.53,1.48,30.44-5.33,4.82-3.01,9.42-6.69,13.86-10.25,4.52-3.63,9.2-7.38,14.25-10.55,8.71-5.47,18.66-9.23,28.79-10.89,4.25-.69,9.7-1.12,14.18,1.79,1.39.9,1.79,2.76.88,4.15-.9,1.39-2.76,1.79-4.15.88-2.76-1.79-6.76-1.42-9.95-.9-9.34,1.53-18.53,5-26.57,10.05-4.76,2.99-9.3,6.63-13.69,10.15-4.58,3.67-9.31,7.47-14.43,10.66-8.33,5.2-16.9,7.88-24.71,7.88Z"/>
    </g>
    <g>
      <g>
        <path class="cls-11" d="M2545.27,2166.38c-7.94,165.24-18.74,326.8-22.04,474.26h0c.95,21.29,3.44,45.56,9.46,61.72,2.37,6.36,6.06,28.86,48.93,41.01l-153.74-25.17-.62-18.44c-7.03-106.56-40.87-526.19-40.87-526.19,0,0,166.6-167.79,158.88-7.18Z"/>
        <g>
          <g>
            <path class="cls-11" d="M2443.87,2746.4s-.04-.04-.06-.07c.02.08.04.09.06.07Z"/>
            <path class="cls-19" d="M2426.92,2794.22c-6.34-18.54-6.34-38.37-4.85-57.76,1.36-17.77.27-37.04,6.22-36.9,51.56,30.69,98.23,7.54,101.11-8.17,6.89-.21,52.22,51.96,70.34,56.53,67.12,18,72.03,33.15,72.34,46.18.1,4.4-244.47,2.14-245.16.11Z"/>
          </g>
          <path class="cls-21" d="M2597.5,2810.8c-28.44-.16-57.18-3.21-85.25-7.95-24.08-4.07-49.71-2.17-74.13-1.65-2.55.02-5.31-.02-7.41-1.28-.13-.08-.26-.16-.39-.25-1.86-1.3-2.71-3.43-3.41-5.46-3.37-9.86-4.92-20.1-5.43-30.43,5.31.35,10.61.96,15.84,1.92,6.7,1.24,13.31,2.98,19.93,4.58,62.94,15.25,128.31,18.52,192.99,15.39,6.55-.32,13.22-.75,19.52-2.39,1.8,3.77,2.22,7.37,2.3,10.82.1,4.4-2.92,8.32-7.43,9.97-20.75,7.62-45.37,6.84-67.14,6.72Z"/>
        </g>
      </g>
      <g>
        <path class="cls-11" d="M2318.71,2167.22c-14.36,164.8-31.43,325.82-40.47,473.04h0c.12,21.31,1.66,45.66,7.05,62.04,2.12,6.45,4.93,29.07,47.3,42.88l-152.65-31.13.1-18.45c-2.88-106.75-20.37-527.39-20.37-527.39,0,0,173-161.18,159.04-1Z"/>
        <g>
          <g>
            <path class="cls-11" d="M2194.82,2742.86s-.04-.04-.06-.07c.02.08.04.09.06.07Z"/>
            <path class="cls-19" d="M2176.02,2789.98c-5.62-18.77-4.84-38.59-2.6-57.9,2.05-17.7,1.71-37.01,7.65-36.63,50.33,32.67,97.86,11.35,101.35-4.23,6.89.06,50.16,53.95,68.09,59.23,66.37,20.59,70.69,35.93,70.49,48.96-.07,4.4-244.37-7.37-244.98-9.43Z"/>
          </g>
          <path class="cls-21" d="M2345.83,2813.18c-28.42-1.27-57.01-5.43-84.88-11.26-23.9-5-49.59-4.1-74.01-4.53-2.55-.08-5.3-.23-7.35-1.57-.13-.08-.26-.17-.38-.27-1.8-1.37-2.58-3.53-3.19-5.58-2.99-9.99-4.13-20.28-4.24-30.62,5.29.56,10.56,1.37,15.76,2.54,6.65,1.5,13.18,3.49,19.74,5.36,62.3,17.68,127.49,23.5,192.25,22.89,6.55-.06,13.24-.24,19.6-1.63,1.65,3.83,1.93,7.45,1.88,10.9-.07,4.4-3.24,8.2-7.82,9.68-21.03,6.81-45.6,5.07-67.35,4.1Z"/>
        </g>
      </g>
      <path class="cls-28" d="M2405.14,1551.78l-30.89,329.67s-39.88,556.71-68.33,774.85c-43.37,17.16-109.52,18.47-148.37-.95-7.18-81.25-15.54-918.06,22.5-1083.79,27.62-6.17,225.09-19.78,225.09-19.78Z"/>
      <path class="cls-28" d="M2552.51,1565.94s38.66,699.33,6.19,1089.12c-50.99,23.41-120.95,10.83-148.4-1-5.16-99.25-47-774.51-47-774.51,0,0-11.14-149.2-7.14-308.78,95.95-.6,196.34-4.83,196.34-4.83Z"/>
      <path class="cls-4" d="M2366.15,1993.73s-.09,0-.14,0c-1.66-.07-2.94-1.48-2.86-3.13l12.6-281.64c.04-.87.46-1.68,1.14-2.22l36.73-28.88c1.3-1.02,3.19-.8,4.21.5,1.02,1.3.8,3.19-.5,4.21l-35.65,28.03-12.54,280.27c-.07,1.61-1.4,2.87-3,2.87Z"/>
      <path class="cls-4" d="M2228.25,2634.64c-11.99,0-22.4-1.07-31-2.53-27.15-4.59-42.37-13.65-43.01-14.03-1.42-.86-1.87-2.7-1.02-4.12.86-1.42,2.7-1.87,4.12-1.02.19.12,15.14,8.95,41.23,13.3,24.12,4.03,62.98,4.95,111.17-13.54,1.55-.59,3.28.18,3.88,1.73.59,1.55-.18,3.28-1.73,3.88-32.48,12.46-60.89,16.32-83.63,16.32Z"/>
      <path class="cls-4" d="M2477.62,2634.5c-11.89,0-22.07-1.07-30.41-2.51-26.36-4.56-40.29-13.59-40.87-13.97-1.38-.91-1.77-2.77-.85-4.16.91-1.38,2.77-1.77,4.15-.86h0c.13.09,13.71,8.83,38.97,13.13,23.34,3.98,61.73,4.88,112.03-13.45,1.55-.57,3.28.23,3.84,1.79.57,1.56-.23,3.28-1.79,3.84-33.86,12.34-62.54,16.16-85.08,16.16Z"/>
      <path class="cls-4" d="M2207.27,1675.31c-.11,0-.23,0-.35-.02-.84-.1-20.76-2.43-40.07-8.13-1.59-.47-2.5-2.14-2.03-3.73.47-1.59,2.14-2.49,3.73-2.03,14.57,4.3,29.87,6.68,36.13,7.54,1.51-11.62,2.98-23.79,3.36-28.57-12.03-2.94-37.25-9.73-37.52-9.8-1.6-.43-2.55-2.08-2.12-3.68.43-1.6,2.08-2.55,3.68-2.12.29.08,29.1,7.83,39.68,10.32.54.13,1.04.4,1.43.8,1.32,1.32,1.68,1.68-2.96,36.8-.2,1.51-1.49,2.61-2.97,2.61ZM2208.14,1638.47h0Z"/>
    </g>
    <path class="cls-2" d="M2187.32,1308.21c-48.48,51.71-136.92,91.16-176.98,77.19-49.01-17.09-82.18-69.36-61.91-114.92,15.05-33.82,49.47-55.67,82.08-75.54,33.24-20.25,108.8-69.19,142.03-89.44,26.43.56,10.65,37.86,29.81,55.09,42.34,38.08,13.3,117.4-15.03,147.61Z"/>
    <path class="cls-2" d="M2420.47,1339.81c3.49-6.57,79.86-5.39,85.55-5.39,82.49,0,130.42,68.33,142.43,71.12,2.73.64,5.77.48,8.1,2.04,7.34,4.9,5.82,13.6,15.97,16.08,8.41,2.06,19.39-3.09,27.87-3.79,16.65-1.38,33.3-2.84,49.81-5.39,16.55-2.56,33.58-5.76,49.02-12.46,18.42-8,20.9-.28,28.19-17.61,11.65-27.68,4.06-52.13-8.77-64.43-6.46-6.19-14.81-10.31-20.62-17.12-3.61-4.23-6.06-9.29-9.12-13.93-19.43-29.55-52.89-48.78-81.3-68.61-62.22-43.42-124.1-87.08-164.9-108.39-3.19,3.73-122.24,227.86-122.24,227.87Z"/>
    <g>
      <path class="cls-11" d="M2592.85,1537.82l-55.8,45.69,20.93,140.09s40.26-2.12,53.25-44.72c.74-4.3-1.8-6.71-9.77-3.33-4.02,1.71-9.99,8.87-16.37,18.48-1.94-2.9,2.84-42.1,2.84-42.1,0,0,39.35-35.39,40.95-51.82,1.6-16.42-36.03-62.28-36.03-62.28Z"/>
      <path class="cls-11" d="M2828.3,1380.57c-22.25,104.66-147.79,175.07-199.42,219.53-3.12,2.69-50.27-41.52-38.48-58.69,30.95-45.07,57.61-95.52,84.57-139.63,46.08-75.39,90.06-91.09,131.07-71.99,19.39,9.03,25.03,37.72,22.25,50.77Z"/>
    </g>
    <path class="cls-2" d="M2286.88,1064.73s66.76,66.23,134.63,6.35c1.31.4,103.65,21.6,141.74,54.69-3.16,13.5-35.96,318.77-7.31,474.39-27.72,14.68-164.58,110.68-387.65,27.02,6.86-170.51,11.66-386.62-36.86-490.83-.95,1.07,45.1-51.24,155.46-71.63Z"/>
    <path class="cls-4" d="M2167.38,1338.12c-1.54,0-2.85-1.18-2.99-2.74-4.38-51.01-11.05-86.17-19.82-104.51-.71-1.49-.08-3.29,1.41-4,1.49-.71,3.29-.08,4,1.41,9.09,19,15.94,54.86,20.39,106.59.14,1.65-1.08,3.1-2.73,3.25-.09,0-.17.01-.26.01Z"/>
    <path class="cls-4" d="M2546.63,1353.14c-1.5,0-2.8-1.12-2.98-2.65-5.81-49.54.28-110.73,9.52-141.27.48-1.59,2.15-2.48,3.74-2,1.59.48,2.48,2.15,2,3.74-9.07,29.95-15.03,90.07-9.31,138.84.19,1.65-.98,3.14-2.63,3.33-.12.01-.24.02-.35.02Z"/>
    <path class="cls-2" d="M2277.46,1066.58s17.92-5.18,19.58-45.27c-.07-.26,96.31-5.46,121.7,2.62,1.15,0-7.16,38.2,19.79,51.13-.24-.06-84.22,83.79-161.08-8.49Z"/>
    <g>
      <path class="cls-11" d="M2220.6,1097.08s53.91,46.78,38.27,57.43c-53.96,36.73-168.5,249.08-250.68,172.55-46.39-43.76-19.09-89.59,212.41-229.98Z"/>
      <g>
        <g>
          <path class="cls-11" d="M2291.34,994.39c-4.97,5.99-21.04,25.18-35.38,40.38-5.3,5.62-10.27,11.52-14.97,17.64-12.37,16.11-36.41,49.18-23.05,67.14,1.08,1.45,49.8,4.47,66.42-56.3.2-.12-13.84-.08,4.94-32.97,4.21-5.53,17.65-31.4,7.67-36.78-2.01-1.08-4.35-.64-5.63.9Z"/>
          <path class="cls-11" d="M2221.76,1091.91s39.98-36.57,64.12-54.44c15,19.34,50.53,56.74,50.46,87.42-13.78,10.95-30.87,25.54-73.89,29.15-24.27,8.58-67.62-20.84-50.86-47.08,6.1-9.55,10.17-15.05,10.17-15.05Z"/>
          <path class="cls-11" d="M2316.66,1045.85c-.59.47-.86,1.25-.7,1.99v.04c.21.95,1.05,1.51,1.92,1.5-1.83,1.4-3.67,2.78-5.54,4.14-.36.26-2.26,1.66-3.56,2.63-.35.21-.7.41-.91.51-2.55,1.13-5.11,2.25-7.61,3.47-2.84,1.39-5.61,2.84-8.25,4.46l-11.14-23.13s79.36-63.66,88.76-53.39c3.78,5.74-10.07,23.36-52.97,57.78Z"/>
        </g>
        <path class="cls-4" d="M2259.24,1061.93c-.86,0-1.71-.37-2.31-1.08-1.06-1.27-.89-3.16.39-4.23,11.9-9.91,24.03-19.36,24.15-19.45,1.31-1.02,3.19-.78,4.21.52,1.02,1.31.78,3.19-.52,4.21-.12.09-12.18,9.49-24,19.33-.56.47-1.24.69-1.92.69Z"/>
        <path class="cls-11" d="M2325.71,1038.49c10.97-1.86,19.37,16.26,10.97,25.17,4.86-1.46,17,6.33,10.74,22.74,1.65-1.29,15.52,8.16,9.02,20.78-3.71,7.2-24.17,20.94-24.17,20.94,0,0-30.67-71.5-30.29-72.94.38-1.44,23.74-16.69,23.74-16.69Z"/>
        <path class="cls-4" d="M2313.36,1049.72c-1.04,0-2.06-.54-2.61-1.51-.82-1.44-.32-3.27,1.12-4.09l15.04-8.58c1.44-.82,3.27-.32,4.09,1.12.82,1.44.32,3.27-1.12,4.09l-15.04,8.58c-.47.27-.98.39-1.48.39Z"/>
        <path class="cls-4" d="M2324.47,1073.67c-1.04,0-2.05-.54-2.6-1.51-.83-1.44-.33-3.27,1.11-4.1l12.22-7.02c1.44-.83,3.27-.33,4.1,1.11.83,1.44.33,3.27-1.11,4.1l-12.22,7.02c-.47.27-.98.4-1.49.4Z"/>
        <path class="cls-4" d="M2334.08,1097.68c-1,0-1.98-.5-2.55-1.42-.87-1.41-.44-3.26.97-4.13l13.35-8.28c1.41-.88,3.26-.44,4.13.97.87,1.41.44,3.26-.97,4.13l-13.35,8.28c-.49.31-1.04.45-1.58.45Z"/>
        <path class="cls-4" d="M2262.45,1157.04c-.67,0-1.35-.22-1.9-.68l-8.8-7.24c-1.28-1.05-1.46-2.94-.41-4.22,1.05-1.28,2.94-1.46,4.22-.41l8.8,7.24c1.28,1.05,1.46,2.94.41,4.22-.59.72-1.45,1.09-2.32,1.09Z"/>
      </g>
    </g>
    <path class="cls-4" d="M2655.5,1408.84c-.3,0-.61-.05-.91-.14-1.58-.5-2.45-2.19-1.95-3.77,3.28-10.31,9.32-19.51,17.47-26.62,1.25-1.09,3.14-.96,4.23.29,1.09,1.25.96,3.14-.29,4.23-7.33,6.39-12.75,14.66-15.7,23.92-.41,1.28-1.59,2.09-2.86,2.09Z"/>
    <path class="cls-4" d="M2806.05,1311.45c-.1,0-.21,0-.32-.02-3.85-.4-7.11-1.12-10.27-1.82-7.52-1.66-14.02-3.1-26.87-.02-1.6.39-3.23-.61-3.62-2.22-.39-1.61.61-3.23,2.22-3.62,14.2-3.41,22.01-1.68,29.57,0,2.99.66,6.08,1.34,9.59,1.71,1.65.17,2.84,1.65,2.67,3.3-.16,1.54-1.46,2.69-2.98,2.69Z"/>
    <path class="cls-4" d="M2466.66,1521.25c-.23,0-.47-.03-.7-.08-62.93-15.12-123.76-38.29-180.81-68.85l-1.15-.61c-9.62-5.16-19.57-10.5-30.14-11.32-1.65-.13-2.89-1.57-2.76-3.22.13-1.65,1.57-2.88,3.22-2.76,11.83.91,22.34,6.56,32.51,12.01l1.14.61c56.6,30.32,116.95,53.3,179.38,68.31,1.61.39,2.6,2.01,2.22,3.62-.33,1.38-1.56,2.3-2.91,2.3Z"/>
    <path class="cls-4" d="M2374.13,1545.17c-.26,0-.52-.03-.78-.1-27.28-7.32-53.85-17.58-78.96-30.5-1.47-.76-2.05-2.57-1.29-4.04.76-1.47,2.57-2.05,4.04-1.29,24.73,12.73,50.9,22.83,77.77,30.04,1.6.43,2.55,2.07,2.12,3.67-.36,1.34-1.57,2.22-2.9,2.22Z"/>
    <path class="cls-4" d="M2344.14,1662.56c-32.24,0-61.23-3.3-84.63-7.34-55.15-9.52-92.05-25.11-92.42-25.27-1.52-.65-2.23-2.41-1.58-3.94.65-1.52,2.41-2.23,3.94-1.58.36.15,36.74,15.51,91.25,24.9,50.22,8.65,126.57,13.88,205.06-10.4,1.58-.49,3.26.4,3.75,1.98.49,1.58-.4,3.26-1.98,3.75-43.07,13.32-85.48,17.89-123.4,17.89Z"/>
  </g>
  <g id="Person_1" data-name="Person 1">
    <path class="cls-4" d="M793.65,1103.51c-.79,0-1.59-.31-2.18-.93-1.14-1.2-1.09-3.1.11-4.24,37.02-35.15,43.92-86.29,43.2-123.01-.79-40.09-10.59-72.22-10.69-72.54-.49-1.58.4-3.26,1.98-3.75,1.58-.49,3.26.4,3.75,1.98.1.33,10.13,33.13,10.96,74.04,1.11,54.45-14.48,98.58-45.06,127.63-.58.55-1.32.82-2.07.82Z"/>
    <path class="cls-4" d="M536.78,1103.51c-1.21,0-2.36-.74-2.81-1.95-16-42.64-5.24-96.13,6.6-133.49,12.77-40.27,29.51-71.02,29.68-71.32.8-1.45,2.62-1.98,4.07-1.19,1.45.8,1.99,2.62,1.19,4.07-.16.3-16.67,30.62-29.25,70.35-11.54,36.43-22.06,88.46-6.67,129.47.58,1.55-.2,3.28-1.75,3.86-.35.13-.7.19-1.05.19Z"/>
    <g>
      <path class="cls-22" d="M834.94,953.96c3.45-51.45-9.56-122.19-35.74-167.2-15.55-26.74-33.57-28.04-35.84-29.28-1.79-.98-14.44-23.69-46.53-21.56-51.31,3.42-91.79,22.72-118.17,67.56-24.38,41.42-33.75,89.94-42.37,136.61-3.76,20.38-7.52,40.76-11.28,61.14-3.16,17.12-10.96,38.29-7.27,55.65,6.33,29.82,31.37,54.8,59.43,64.62,22.38,8.15,46.64,9.42,70.46,9.39,44.13-.06,92.7-6.39,122.41-39.02,19.43-21.34,27.41-50.45,34.24-78.49,3.02-12.41,5.95-24.88,8.04-37.47,1.2-7.27,2.13-14.59,2.62-21.95Z"/>
      <g>
        <path class="cls-17" d="M810.7,1529.86c-7.04-6.08-239.1-11.92-239.1-11.92l-37.73,208.76s122.88,376.5,118.44,443.83c-6.41,97.13,177.56,88.64,184.14,12.71,13.07-150.81,10.54-477.47-25.74-653.39Z"/>
        <path class="cls-17" d="M697.1,1581.07c-6.16-7.26-139.51-80.13-139.51-80.13-7.78-18.63-59.8,59.2-96.31,178.69-27.91,91.36,16.53,402.53,19.71,531.66,1.95,79.19,192.41,18.18,193.29-9.82,5.7-182.43,33.76-467.16,22.82-620.41Z"/>
        <g>
          <g>
            <g>
              <path class="cls-26" d="M697.03,2733.81s-.04-.04-.05-.06c.02.07.04.08.05.06Z"/>
              <path class="cls-26" d="M767.41,2675.16c-2.38-28.62,2.61-168.03,2.61-168.03l-87.82,21.13.93,188.21s5.03.53,12.78.6c.69,8.53,1.28,16.43,1.11,16.74,23.4,31.19,111.5-10.77,111.5-10.77-35.42-9.37-40.45-41.31-41.11-47.87Z"/>
            </g>
            <path class="cls-19" d="M683.03,2695.41s-2.14,37.44.48,64.56c.22,2.24,1.69,4.06,3.7,4.63,11.66,3.27,52.68,14.03,108.9,18.07,9.61-.28,62.18,5.59,83.09-5.36,3.65-1.91,5.8-6.14,5.43-10.5-1.13-13.6-7.22-29.25-76.11-43.77-48.34,14.56-101.3,9.8-125.49-27.63Z"/>
          </g>
          <path class="cls-17" d="M662.55,2181.18c-5.83,70.68,5.21,358.08-.89,463.45,60.32,14.34,81.96,15.7,134.82,1.53,24.99-120.34,40.48-386.73,39.97-462.91-.92-137.82-168.35-69.32-173.9-2.07Z"/>
        </g>
        <g>
          <g>
            <g>
              <path class="cls-26" d="M432.65,2743.06s-.03-.05-.04-.07c.01.08.03.09.04.07Z"/>
              <path class="cls-26" d="M511.22,2699.16c2.27-28.68,29.6-165.1,29.6-165.1l-89.67,3.48-29.37,185.69s4.86,1.52,12.46,3.11c-.69,8.54-1.39,16.45-1.6,16.72,17.97,35.36,111.26,11.41,111.26,11.41-33.29-16.23-33.08-48.71-32.68-55.31Z"/>
            </g>
            <path class="cls-19" d="M425.08,2702.45s-8.12,36.49-9.92,63.73c-.15,2.25,1.01,4.34,2.89,5.29,10.92,5.52,49.49,24.23,104.07,39.32,9.48,1.62,60.18,17.79,82.48,11.14,3.89-1.16,6.68-4.91,7.03-9.28,1.07-13.63-2.39-30.26-67.72-58.17-49.83,4.8-101.08-10.35-118.83-52.02Z"/>
          </g>
          <path class="cls-17" d="M480.5,2196.75c-12.81,77.63-47.6,334.81-70.55,437.46,64.29,37.33,67.53,27.15,132.18,28.14,43.91-113.68,115.6-392.34,140.72-487.69,35.08-133.13-191.41-44.21-202.35,22.08Z"/>
        </g>
        <path class="cls-4" d="M460.98,2661.68c-.18,0-.37-.02-.56-.05-1.63-.31-2.7-1.87-2.39-3.5,32.28-171.73,42.14-236.53,58.47-343.89,3.58-23.57,7.65-50.28,12.29-80.39-.16-13.7-.16-30.11-.17-47.47,0-36.2-.01-77.23-1.48-105.85-1.36-26.57-2.99-53.01-4.56-78.58-8.32-135.08-16.19-262.67,14.86-405.6.35-1.62,1.95-2.64,3.57-2.3,1.62.35,2.65,1.95,2.29,3.57-30.87,142.11-23.04,269.3-14.74,403.96,1.58,25.59,3.21,52.04,4.56,78.64,1.47,28.77,1.48,69.88,1.48,106.16,0,17.45,0,33.94.17,47.65,0,.17,0,.33-.04.49-4.66,30.21-8.74,56.99-12.33,80.62-16.34,107.42-26.2,172.26-58.5,344.1-.27,1.44-1.53,2.45-2.94,2.45Z"/>
        <path class="cls-4" d="M660.79,2261.65c-.25,0-.51-.03-.76-.1-1.6-.42-2.56-2.06-2.14-3.66,21.73-82.71,36.48-443.77,36.63-447.41.03-.79.37-1.53.95-2.07l31.02-29.05c1.21-1.13,3.11-1.07,4.24.14,1.13,1.21,1.07,3.11-.14,4.24l-30.12,28.21c-.97,23.41-15.52,366.57-36.77,447.46-.35,1.35-1.57,2.24-2.9,2.24Z"/>
      </g>
      <path class="cls-26" d="M654.54,1025.08l-1.84-138.25,92.58,40.87,1.02,103.79c.07,7.08,4.1,13.52,10.44,16.67l45.16,22.47s-80.75,98.68-210.34-10.9c16.26-4.98,37.11-12.05,50.31-16.6,7.68-2.65,12.78-9.92,12.67-18.04Z"/>
      <path class="cls-13" d="M653.56,951.34l-.6-45.24c5.45-3.83,12.49-5.06,15.51-12.31l76.81,33.91.74,74.77c-25.65-1.13-73.25-14.84-92.46-51.13Z"/>
      <path class="cls-17" d="M971.56,1252c15.45,44.11,65.6,77.82,97.5,111.97,14.38,15.39,32.14,27.15,49.96,38.39,3.6,2.27,7.3,4.61,9.81,8.04,5.06,6.93,3.96,16.96-.6,24.22-4.57,7.26-11.95,12.25-19.42,16.46-49.37,27.82-69.23-17.61-154.9-22.31-16.82-.92-37.28,8.83-50.09-2.11-30.67-26.19-55.49-59.87-68.19-98.15-12.7-38.28-12.71-81.23,3.1-118.34,12.46-29.24,15.47-123.44,48.2-102.65,18.09,13.48,72.66,110.29,84.64,144.49Z"/>
      <path class="cls-28" d="M475.3,1106.62c2.63-12.04,126.6-49.89,139.79-54.44,48.11,60.36,126.15,44.55,159.45,5.69,45.09,14.04,89.38,16.74,125.64,64.71-22.69,34.01-76.67,114.4-76.53,464.96-25.84,8.14-140.32,68.35-331.91-7.96,50.26-142.52,23.14-387.92-16.44-472.97Z"/>
      <path class="cls-4" d="M698.49,1095.01c-3.56,0-7.14-.17-10.77-.51-32.05-3.01-62.27-19.39-75.19-40.76-.86-1.42-.4-3.26,1.01-4.12,1.42-.86,3.26-.4,4.12,1.01,11.8,19.51,40.84,35.1,70.62,37.89,32.56,3.06,62.4-8.54,84.03-32.66,1.11-1.23,3-1.34,4.24-.23,1.23,1.11,1.34,3,.23,4.24-20.52,22.88-48.02,35.13-78.29,35.13Z"/>
      <path class="cls-4" d="M879.41,1258.1c-1.62,0-2.96-1.3-3-2.93l-1.63-70.33c-.04-1.66,1.27-3.03,2.93-3.07,1.64-.04,3.03,1.27,3.07,2.93l1.63,70.33c.04,1.66-1.27,3.03-2.93,3.07-.02,0-.05,0-.07,0Z"/>
      <g>
        <path class="cls-13" d="M767.28,881.28s20.75-26.41,36.79-9.11c4.43,4.78,6.77,11.19,6.68,17.7-.19,13.81-7.32,36.04-41.74,36.18.27,1.52-1.74-44.78-1.74-44.78Z"/>
        <path class="cls-26" d="M640.83,875.83c2.44,62.25,39.34,107.55,82.37,109.65,64.71,3.15,75.96-53.52,73.52-115.77s-39.32-111.34-82.37-109.65-75.96,53.52-73.52,115.77Z"/>
        <path class="cls-19" d="M709.59,873.81c.43,4.17-.97,7.74-3.12,7.96-2.15.22-4.24-2.98-4.67-7.16-.43-4.17.97-7.74,3.12-7.96,2.15-.22,4.24,2.98,4.67,7.16Z"/>
        <path class="cls-19" d="M776.8,877.21c.43,4.17-.97,7.74-3.12,7.96-2.15.22-4.24-2.98-4.67-7.16-.43-4.17.97-7.74,3.12-7.96,2.15-.22,4.24,2.98,4.67,7.16Z"/>
        <path class="cls-4" d="M692.1,859.58c-1.06,0-2.09-.56-2.63-1.56-.8-1.45-.26-3.28,1.19-4.07,16.95-9.28,29.96-.51,30.51-.13,1.36.94,1.7,2.81.76,4.17-.94,1.36-2.8,1.7-4.16.77-.45-.31-10.64-6.98-24.22.45-.46.25-.95.37-1.44.37Z"/>
        <path class="cls-4" d="M760.14,862.53c-1.07,0-2.11-.58-2.65-1.59-.78-1.46-.22-3.28,1.24-4.06,14.02-7.46,25.87-1.32,26.36-1.05,1.46.78,2.01,2.6,1.23,4.06-.78,1.46-2.59,2.01-4.05,1.24-.42-.22-9.64-4.86-20.73,1.05-.45.24-.93.35-1.41.35Z"/>
        <path class="cls-4" d="M741.45,919.1c-2.64,0-5.66-.33-9.1-.98-1.63-.31-2.7-1.88-2.39-3.51.31-1.63,1.87-2.7,3.51-2.39,10.55,2,13.74.04,14.62-.89.92-.98.71-2.32.65-2.63-8.95-25.74-6.24-42.68-6.12-43.39.28-1.63,1.83-2.74,3.46-2.46,1.63.28,2.73,1.82,2.46,3.45h0c-.03.16-2.54,16.32,5.92,40.56.02.05.03.1.05.15.51,1.74.67,5.45-1.93,8.32-2.29,2.52-5.96,3.77-11.12,3.77Z"/>
        <g>
          <path class="cls-26" d="M649.02,877.76s-25.59-21.76-37.87-1.62c-3.39,5.56-4.42,12.32-3.03,18.68,2.93,13.5,14.34,33.87,48.09,27.17.03,1.54-7.19-44.23-7.19-44.23Z"/>
          <g>
            <path class="cls-4" d="M645.63,909.15c-1.04,0-2.05-.54-2.6-1.5-9.23-16.05-25.38-17.44-25.54-17.46-1.65-.12-2.89-1.57-2.77-3.22.12-1.65,1.56-2.88,3.22-2.77.79.06,19.49,1.68,30.29,20.45.83,1.44.33,3.27-1.1,4.1-.47.27-.99.4-1.49.4Z"/>
            <path class="cls-4" d="M627.02,904.91c-.74,0-1.48-.27-2.07-.82-1.2-1.14-1.25-3.04-.11-4.24l7.06-7.43c1.14-1.2,3.04-1.25,4.24-.11,1.2,1.14,1.25,3.04.11,4.24l-7.06,7.43c-.59.62-1.38.93-2.18.93Z"/>
          </g>
        </g>
      </g>
      <path class="cls-22" d="M796.6,867.1c3.79-9.23,2.71-27.45,1.21-37.32-1.9-12.49-4.15-25.04-8.98-36.71-4.83-11.67-12.46-22.52-23.17-29.2-9.38-5.85-20.49-8.18-31.4-10.01-14.48-2.43-29.3-4.15-43.8-1.91-14.51,2.24-28.83,8.88-37.74,20.55-3.58,4.69-6.2,10.05-8.43,15.52-9.78,23.94-9.73,50.76-5.31,75.88,1.13,6.43.68,4.38,1.72,8.29,5.39-1.62,24.16.65,48.73-32.49,29.05-39.17,43.46-54.58,49.32-55.99,5.36-1.3,15.54,4.56,19.99,7.2,10.91,6.48,18.97,16.55,24.56,27.8,4.88,9.81,7.89,20.45,10.04,31.16.64,3.21,4.5,14.23,3.25,17.25Z"/>
      <path class="cls-28" d="M482.38,1100.51c-40.55,19.11-150.38,197.95-123.64,331.31,8.06,40.18,40.06,54.28,65.44,56.59,55.53,5.06,116.42-18.56,142.35-67.92-4.71-51.35.4-99.4-6.1-150.56-6.5-51.15-22.55-103.08-57.74-140.78-12.52-13.42-2-27.25-20.3-28.65Z"/>
      <path class="cls-4" d="M503.1,1310.62c-1.64,0-2.98-1.32-3-2.97-.12-11.46-.09-23.65-.06-36.57.09-36.4.18-74.05-3.09-99.85-.21-1.64.96-3.14,2.6-3.35,1.64-.21,3.15.96,3.35,2.6,3.32,26.19,3.23,64.03,3.14,100.62-.03,12.89-.06,25.07.06,36.49.02,1.66-1.31,3.01-2.97,3.03h-.03Z"/>
      <path class="cls-4" d="M425.15,1333.06c-.91,0-1.81-.41-2.4-1.19-1-1.32-.74-3.2.59-4.2,14.79-11.17,32.7-19.14,50.44-22.45,17.27-3.22,32.52-1.8,42.95,4,1.45.81,1.97,2.63,1.16,4.08-.81,1.45-2.63,1.97-4.08,1.16-17.45-9.71-55.62-5.58-86.85,18-.54.41-1.18.61-1.81.61Z"/>
      <path class="cls-4" d="M485.86,1487.89c-1.31,0-2.51-.86-2.88-2.18-.45-1.59.47-3.25,2.07-3.7,21.43-6.07,46.89-23.77,54.1-45.86.51-1.58,2.21-2.44,3.78-1.92,1.58.51,2.44,2.21,1.92,3.78-7.86,24.09-35.21,43.27-58.17,49.77-.27.08-.55.11-.82.11Z"/>
      <path class="cls-4" d="M670.74,1621.41c-44.7,0-98.64-7.18-156.59-30.21-1.54-.61-2.29-2.36-1.68-3.9.61-1.54,2.36-2.29,3.9-1.68,87.97,34.96,166.53,32.87,216.94,24.95,54.56-8.57,88.65-25.54,88.99-25.71,1.48-.75,3.28-.15,4.03,1.33.75,1.48.15,3.28-1.33,4.03-1.41.71-35.28,17.57-90.76,26.28-17.93,2.82-39.37,4.91-63.5,4.91Z"/>
      <g>
        <g>
          <g>
            <path class="cls-23" d="M737.6,1397.74l406.1,85.54c8.46,1.78,16.76-3.63,18.55-12.09l53.02-251.7c1.78-8.46-3.63-16.76-12.09-18.55l-406.1-85.54c-8.46-1.78-16.76,3.63-18.55,12.09l-53.02,251.7c-1.78,8.46,3.63,16.76,12.09,18.55Z"/>
            <path class="cls-19" d="M965.65,1283.65c17.95.33,34.02,10.48,35.89,22.69,1.87,12.21-11.16,21.84-29.11,21.51-17.95-.32-34.02-10.48-35.89-22.69-1.87-12.21,11.16-21.84,29.11-21.51Z"/>
          </g>
          <path class="cls-4" d="M884.83,1431.76c-.19,0-.39-.02-.59-.06l-142.43-28.26c-6.16-1.22-11.47-4.78-14.94-10.03-3.47-5.24-4.67-11.52-3.39-17.67l34.01-162.96c.34-1.62,1.93-2.67,3.55-2.32,1.62.34,2.66,1.93,2.32,3.55l-34.01,162.96c-.95,4.57-.06,9.24,2.52,13.13,2.58,3.9,6.52,6.54,11.1,7.45l142.43,28.26c1.62.32,2.68,1.9,2.36,3.53-.28,1.43-1.54,2.42-2.94,2.42Z"/>
          <path class="cls-4" d="M1198.24,1303.35c-.16,0-.32-.01-.48-.04-1.64-.26-2.75-1.8-2.49-3.44l13.53-84.85c.95-5.97-2.95-11.54-8.89-12.67l-132.35-25.42c-1.63-.31-2.69-1.88-2.38-3.51.31-1.63,1.88-2.69,3.51-2.38l132.35,25.42c9.14,1.75,15.15,10.33,13.68,19.51l-13.53,84.85c-.24,1.48-1.51,2.53-2.96,2.53Z"/>
        </g>
        <g>
          <g>
            <path class="cls-26" d="M658.2,1248.48s59.64-43.94,87.46-54.7c-.38.63,8.58,83,.44,112.37-16.08,6.86-25.54,18.75-67.69,10.89.32.19-16.05,7.52-16.05,7.52l-15.05-69.32,10.89-6.76Z"/>
            <path class="cls-26" d="M833.94,1296.35c-.4-8.4-32.49-13.76-60.13-16.82,0,0,0,0,0,0-.05-.03-.1-.05-.14-.08-3.51-1.98-2.77-7.27,1.12-8.33,3.49-.95,6.27-1.65,6.33-1.47,69.04-11.6,80.69-20.43,79.5-27.68-.99-2.98-6.14-4.34-13.59-4.66,10.4-3.73,13-7.41,12.64-10.9-3.14-11.62-66.59-5.13-90.21-2.3-1.45.17-2.65-1.17-2.26-2.58,0-.01,0-.03.01-.04.22-.77.85-1.37,1.64-1.52,57.45-11.02,79.18-20.67,78.42-27.93-3.87-14.29-101.6,1.75-101.6,1.75l.44,112.37,20.49-3.04h0c55.11,4.94,66.6-.09,67.35-6.76Z"/>
            <path class="cls-4" d="M768.41,1247.56c-1.53,0-2.84-1.17-2.98-2.72-.15-1.65,1.06-3.11,2.71-3.26l78.6-7.25c1.65-.16,3.11,1.06,3.26,2.71.15,1.65-1.06,3.11-2.71,3.26l-78.6,7.25c-.09,0-.19.01-.28.01Z"/>
          </g>
          <path class="cls-26" d="M658.2,1248.48s14.76,48.92,20.21,68.56c-31.93,17.59-184.98,204.72-241.89,126.89-15.4-31.3-38.21-93.31,221.68-195.45Z"/>
        </g>
      </g>
      <g>
        <path class="cls-26" d="M1176.54,1398.72c-15.93-5.02-28.07-10.07-35.9-15.76-7.19-5.22-4.67-13.68,4.22-13.86,8.2-.17,20.84,2.65,38.99,8.28,5.29,1.64,9.56,6.31,10.43,12.41,1.68,11.73-10.06,11.87-17.74,8.93Z"/>
        <path class="cls-26" d="M1190.99,1379.11c-17.45-3.48-35.6-7.94-45.14-12.93-5.37-2.81-4.58-10.83,1.31-12.23,7.87-1.87,21.77-2.39,43.1-.99,5.51.36,10.69,3.56,12.87,8.7,4.17,9.87-4.01,18.47-12.14,17.46Z"/>
        <path class="cls-26" d="M1194.98,1361.03c-18.42-3.67-37.64-8.45-46.66-13.78-4.47-2.64-3.79-9.48,1.19-10.95,7.51-2.22,21.85-2.92,44.75-1.43,5.51.36,10.69,3.56,12.87,8.7,4.17,9.87-4.01,18.47-12.14,17.46Z"/>
        <path class="cls-26" d="M1194.83,1336.1c-16.05-2.74-31.08-5.93-39.01-9.94-5.28-2.68-5.01-10.36.54-12.43,5.65-2.1,15.82-3.24,33.43-2.64,3.34.11,6.7,1.02,9.37,3.03,10.55,7.95,3.63,23.33-4.33,21.97Z"/>
        <path class="cls-4" d="M1188.84,1383.11c-.22,0-.44-.02-.66-.07l-38.22-8.55c-1.62-.36-2.63-1.97-2.27-3.58.36-1.62,1.97-2.63,3.58-2.27l38.22,8.55c1.62.36,2.63,1.97,2.27,3.58-.31,1.4-1.55,2.35-2.92,2.35Z"/>
        <path class="cls-4" d="M1202.1,1362.7c-.16,0-.31-.01-.47-.04l-45.14-7.13c-1.64-.26-2.75-1.79-2.5-3.43.26-1.64,1.8-2.75,3.43-2.5l45.14,7.13c1.64.26,2.75,1.8,2.5,3.43-.23,1.48-1.51,2.53-2.96,2.53Z"/>
        <path class="cls-4" d="M1199.14,1338.22c-.07,0-.14,0-.21,0l-26.44-1.85c-1.65-.12-2.9-1.55-2.78-3.2.12-1.65,1.54-2.9,3.2-2.78l26.44,1.85c1.65.12,2.9,1.55,2.78,3.2-.11,1.58-1.43,2.79-2.99,2.79Z"/>
      </g>
      <path class="cls-4" d="M672.05,852.95c-7.95,0-16.36-1.62-25.09-4.82-1.56-.57-2.35-2.3-1.78-3.85.57-1.56,2.29-2.35,3.85-1.78,9.62,3.54,18.76,4.98,27.17,4.29,9.59-.79,18.25-4.45,24.39-10.31,6.67-6.36,10.34-14.95,14.22-24.05,2.22-5.21,4.52-10.59,7.45-15.57,5.05-8.59,12.08-16.07,20.33-21.65,1.37-.93,3.24-.56,4.16.81.93,1.37.57,3.24-.81,4.17-7.52,5.08-13.92,11.89-18.51,19.71-2.73,4.65-4.95,9.86-7.1,14.89-3.95,9.26-8.04,18.83-15.6,26.04-7.13,6.8-17.09,11.04-28.04,11.94-1.53.13-3.08.19-4.65.19Z"/>
      <path class="cls-15" d="M722.49,933.28c22.22,36.74,41.17,2.33,41.17,2.33l-41.17-2.33Z"/>
    </g>
  </g>
  <g id="Person_2" data-name="Person 2">
    <circle class="cls-14" cx="3408.45" cy="1056.44" r="426.47"/>
    <g>
      <g>
        <path class="cls-16" d="M4529.57,1567.06s-66.46,33.33-88.75,53.32c.74-.05,70.33,45.47,100.31,51.57,13.46-11.26,28.4-14.31,40.56-55.59.02.37,51.14-39.52,51.14-39.52l-68.48-41.72-34.78,31.94Z"/>
        <path class="cls-26" d="M4492.37,1746.05c-7.34-4.18,2.49-35.32,12.33-61.44,0,0,0,0,0,0,0-.06,0-.11,0-.17-.17-4.04-5.24-5.79-7.96-2.79-2.44,2.69-4.33,4.86-4.19,4.99-41.82,56.46-55.02,62.87-60.96,58.5-2.21-2.24-1.08-7.47,2.03-14.28-8.07,7.6-12.55,8.26-15.51,6.34-8.96-8.1,25.73-61.9,39.02-81.74.82-1.22.16-2.91-1.28-3.2-.01,0-.03,0-.04,0-.79-.16-1.61.14-2.11.78-36.01,46.36-54.55,61.41-60.69,57.42-11.02-9.97,47.83-90.08,47.83-90.08l100.31,51.57-12.05,16.95h0c-20.68,51.54-30.4,59.53-36.71,57.16Z"/>
        <path class="cls-4" d="M4433.6,1733.86c-.55,0-1.1-.15-1.6-.46-1.4-.88-1.82-2.74-.94-4.14l42.28-67c.88-1.4,2.74-1.82,4.14-.94,1.4.88,1.82,2.74.94,4.14l-42.28,67c-.57.9-1.54,1.4-2.54,1.4Z"/>
      </g>
      <path class="cls-28" d="M4570.47,1039.29c6.96,1.1-38.18,25.3-42.02,96.89-1.94,36.16,108.59,190.36,110.69,206.01,7.63,56.76-91.79,206.78-94.34,210.88l86.79,57.58s163.83-145.03,157.07-262.53c-4.19-72.73-38.06-139.79-83.05-200.9-42.44-53.57-73.41-112.52-135.15-107.93Z"/>
    </g>
    <path class="cls-4" d="M4767.02,1441.64c-.96,0-1.9-.46-2.48-1.31-32.67-47.88-28.55-90.06-19.33-117.02,9.97-29.16,27.43-46.75,28.17-47.48,1.17-1.17,3.07-1.16,4.24.01,1.17,1.17,1.16,3.07-.01,4.24-.26.26-17.35,17.56-26.8,45.4-12.65,37.24-6.36,74.75,18.69,111.46.93,1.37.58,3.24-.79,4.17-.52.35-1.11.52-1.69.52Z"/>
    <g id="magnifying_glass" data-name="magnifying glass">
      <g>
        <g>
          <polygon class="cls-24" points="4388.93 1462.26 4437.28 1297 3920.57 1148.09 3902.64 1142.93 3849.65 1127.65 3801.3 1292.91 3825.14 1299.78 3961.61 1339.12 4388.93 1462.26"/>
          <path class="cls-24" d="M4766.2,1479.66l.62-2.23c16.96-60.83-8.49-121.07-56.83-134.55-211.09-53.89-422.18-107.79-633.28-161.68-15.56,64.53-31.12,129.06-46.68,193.59,205.98,63.53,411.95,127.07,617.93,190.6,48.35,13.48,101.28-24.91,118.24-85.74Z"/>
        </g>
        <g>
          <path class="cls-19" d="M3855.67,1222.46c91.69-248.05-35.07-523.47-283.12-615.16-248.05-91.69-523.47,35.07-615.16,283.12-91.69,248.05,35.07,523.47,283.12,615.16,248.05,91.69,523.47-35.07,615.16-283.12ZM3260.5,1451.51c-218.19-80.65-329.69-322.91-249.04-541.11,80.65-218.19,322.91-329.69,541.11-249.04,218.19,80.65,329.69,322.91,249.04,541.11-80.65,218.19-322.91,329.69-541.11,249.04Z"/>
          <path class="cls-24" d="M3867.49,1226.83c94.1-254.58-35.99-537.25-290.58-631.35-254.58-94.1-537.25,35.99-631.35,290.58-94.1,254.58,35.99,537.25,290.58,631.35,254.58,94.1,537.25-35.99,631.35-290.58ZM3256.65,1461.91c-223.94-82.77-338.37-331.41-255.6-555.35,82.77-223.94,331.41-338.37,555.35-255.6,223.94,82.77,338.37,331.41,255.6,555.35-82.77,223.94-331.41,338.37-555.35,255.6Z"/>
        </g>
      </g>
    </g>
    <g>
      <g>
        <g>
          <g>
            <path class="cls-26" d="M4566.43,2760.31s.04-.04.06-.06c-.02.07-.04.09-.06.06Z"/>
            <path class="cls-26" d="M4479.34,2717.13c12.64-33.94,9.41-104.37,9.41-104.37l91.12,18.96,2.23,100.94-150.73,24.67c42.03-11.91,45.65-33.97,47.97-40.2Z"/>
          </g>
          <path class="cls-19" d="M4583.05,2807.19c6.22-18.17,6.21-37.62,4.75-56.63-1.34-17.42-.26-36.32-6.1-36.17-50.55,30.09-96.31,7.39-99.13-8.01-6.75-.21-51.2,50.94-68.96,55.42-65.8,17.64-70.62,32.51-70.92,45.27-.1,4.31,239.68,2.1,240.36.11Z"/>
        </g>
        <path class="cls-21" d="M4415.8,2823.44c27.89-.16,56.06-3.14,83.58-7.79,23.61-3.99,48.74-2.13,72.68-1.61,2.5.02,5.2-.02,7.26-1.25.13-.08.26-.16.38-.25,1.82-1.27,2.66-3.36,3.34-5.35,3.31-9.67,4.82-19.7,5.33-29.84-5.21.35-10.4.94-15.53,1.89-6.57,1.22-13.04,2.92-19.54,4.49-61.7,14.95-125.8,18.16-189.21,15.09-6.42-.31-12.96-.74-19.14-2.35-1.77,3.69-2.18,7.23-2.26,10.61-.1,4.31,2.86,8.15,7.29,9.78,20.34,7.47,44.48,6.71,65.83,6.58Z"/>
      </g>
      <g>
        <g>
          <g>
            <path class="cls-26" d="M4928.52,2625.61s.01-.06.01-.09c.02.07.02.1-.01.09Z"/>
            <path class="cls-26" d="M4832.32,2639.55c-8.88-35.12-51.55-91.24-51.55-91.24l85.76-36.17,59.18,81.8-110.02,105.94c27.82-33.68,18.26-53.89,16.63-60.34Z"/>
          </g>
          <path class="cls-19" d="M4968.83,2654.75c-5.21-18.49-16.26-34.49-28.26-49.3-11-13.57-20.85-29.74-25.57-26.3-24.5,53.48-75.06,60.79-86.12,49.73-5.67,3.67-13.19,71.01-25.26,84.79-44.13,51.9-39.65,66.87-32.64,77.55,2.36,3.6,198.43-134.45,197.86-136.47Z"/>
        </g>
        <path class="cls-21" d="M4840.44,2763.14c22.86-15.98,44.34-34.44,64.35-53.9,17.16-16.69,38.9-29.44,58.89-42.62,2.07-1.41,4.27-2.98,5.26-5.16.06-.14.12-.28.17-.42.77-2.08.28-4.28-.29-6.3-2.77-9.84-7.23-18.96-12.57-27.58-4.09,3.24-8.03,6.68-11.71,10.38-4.72,4.74-9.08,9.81-13.53,14.8-42.28,47.36-93.21,86.41-147.13,119.92-5.46,3.39-11.08,6.75-17.08,8.94.64,4.04,2.31,7.18,4.17,10.01,2.36,3.6,6.99,5.08,11.55,3.91,20.99-5.41,40.42-19.75,57.91-31.98Z"/>
      </g>
      <path class="cls-21" d="M4657.89,1717.58c30.42,209.39,42.04,292.92,98.73,472.96,50.31,159.79,161.21,367.26,159.36,368.31.06.2-21.82,17.77-117.62,77.17-91.1-107.46-187.66-269.01-282.22-480.75-96.66-209.64-122.8-468.48-141.57-678.59-8.54-104.38,275.22,189.67,283.33,240.9Z"/>
      <g>
        <path class="cls-21" d="M4682.14,1582.79c.78,38.34,4.6,63.86-5.69,109.95-10.3,46.12-16.92,92.96-18.91,140.17-16.15,383.63-65.48,864.82-65.48,864.82,0,0-26.24,13.39-137.96,0-17.26-262.94-71.8-788.19-84.46-1125.37-2.93-78.11,309.81-121.69,312.49,10.42Z"/>
        <path class="cls-4" d="M4617.07,1612.95c-73.65,0-189.64-1.25-242.91-8.47-1.64-.22-2.79-1.73-2.57-3.38.22-1.64,1.74-2.79,3.38-2.57,80.44,10.91,305.53,8.1,307.79,8.07h.04c1.64,0,2.98,1.32,3,2.96.02,1.66-1.3,3.02-2.96,3.04-.77.01-27.59.35-65.77.35Z"/>
      </g>
      <path class="cls-4" d="M4624.22,2377.38s-.08,0-.12,0c-1.66-.07-2.94-1.46-2.88-3.12.18-4.47,18.08-449.04,40.2-617.48.22-1.64,1.73-2.79,3.37-2.58,1.64.22,2.8,1.72,2.58,3.37-22.08,168.17-39.97,612.47-40.15,616.94-.06,1.62-1.39,2.88-3,2.88Z"/>
      <path class="cls-4" d="M4764.62,2597.05c-1,0-1.97-.5-2.54-1.4-.88-1.4-.46-3.25.94-4.14.6-.38,60.77-38.38,123.21-92.27,1.25-1.08,3.15-.94,4.23.31,1.08,1.25.94,3.15-.31,4.23-62.79,54.2-123.33,92.42-123.93,92.8-.5.31-1.05.46-1.59.46Z"/>
      <path class="cls-4" d="M4596.44,2656.83s-.07,0-.1,0c-54.53-1.83-145.01-6.67-145.92-6.72-1.65-.09-2.92-1.5-2.83-3.16s1.49-2.93,3.16-2.83c.91.05,91.33,4.89,145.8,6.71,1.66.06,2.95,1.44,2.9,3.1-.05,1.62-1.39,2.9-3,2.9Z"/>
    </g>
    <g>
      <polygon class="cls-16" points="4415.67 959.07 4440.07 1083.45 4535.33 1001.66 4505.12 849.85 4415.67 959.07"/>
      <path class="cls-26" d="M4395.14,780.96c-1.76.46-8.55,11.62-12.01,20.12-5.76,14.15-3.33,32.85-7.5,49.99-3.86,15.86-5.53,22.01-8.34,37.1-3.32,17.82,2.54,46.14,2.74,53.93-.24,8.47,14.98,21.18,45.53,16.12,49.54-8.2,53.4-55.51,53.4-55.51,0,0,18.16-145.85-73.83-121.74Z"/>
      <path class="cls-26" d="M4384.77,814.16s-15.62,37.02-35.65,59.19c-1.4,1.55-1.84,3.76-1,5.67,4.46,10.12,19.18,9.15,19.18,9.15l17.48-74.01Z"/>
      <path class="cls-19" d="M4391.04,850.41c-1.07,4.41-.1,8.43,2.17,8.98,2.27.55,4.98-2.57,6.06-6.97,1.07-4.41.1-8.43-2.17-8.98s-4.98,2.57-6.06,6.97Z"/>
      <path class="cls-19" d="M4389.52,793.06c8.78,4.51,19.3,3.19,29.05,1.61,5.35-.87,11.06-1.74,16.01.49,19.9,8.95,15.48,55.53,10.99,71.39-1.19,4.22.93,8.9,5.15,10.07,3.73,1.04,7.93-.65,14.69-9.51l25.9,41.77s27.67,36.7,32.12,32.94c11.91-10.05,20.1-25.46,26.36-32.65,5.04-5.8,9.08-12.39,12.68-19.18,13.86-26.12,21.48-56.31,16.86-85.51-3.77-23.81-16.44-46.82-36.11-61.11-21.61-15.7-47.73-23.01-74.13-21.57-70.04,3.81-88.65,66.6-79.56,71.26Z"/>
      <g>
        <path class="cls-26" d="M4465.4,867.1s25.02-24.03,38.94-4.03c3.84,5.52,5.32,12.42,4.29,19.07-2.18,14.1-12.67,35.81-47.89,31.01.06,1.59,4.66-46.05,4.66-46.05Z"/>
        <g>
          <path class="cls-4" d="M4470.67,899.16c-.45,0-.91-.1-1.33-.31-1.48-.74-2.09-2.54-1.35-4.02,9.94-19.98,29.07-22.8,29.88-22.91,1.63-.23,3.15.92,3.38,2.57.22,1.64-.92,3.15-2.56,3.38-.72.1-16.85,2.61-25.32,19.64-.52,1.05-1.59,1.66-2.69,1.66Z"/>
          <path class="cls-4" d="M4489.59,893.63c-.73,0-1.47-.27-2.05-.81l-7.74-7.22c-1.21-1.13-1.28-3.03-.15-4.24,1.13-1.21,3.03-1.28,4.24-.15l7.74,7.22c1.21,1.13,1.28,3.03.15,4.24-.59.63-1.39.95-2.19.95Z"/>
        </g>
      </g>
      <path class="cls-4" d="M4409.86,842.61c-.81,0-1.61-.32-2.2-.96-10.06-10.85-19.05-10.98-19.43-10.98-1.65,0-3-1.33-3.01-2.98-.01-1.65,1.29-3,2.94-3.02.51-.02,11.89-.05,23.9,12.9,1.13,1.21,1.06,3.11-.16,4.24-.58.54-1.31.8-2.04.8Z"/>
    </g>
    <path class="cls-10" d="M4556.39,1007.72l-2.38-5.2c-6.2-13.54-22.23-19.32-35.72-13.02-38.21,17.83-105.78,59.21-97.09,126.02.9-1.32,135.2-107.8,135.2-107.8Z"/>
    <path class="cls-28" d="M4503.47,1035.52c33.37-17.17,56.96-51.52,90.75-3.19,18.11,25.91,43.33,64.25,56.35,123.32,9.11,41.36,7.68,86.94,5.92,128.95-2.29,54.57-13.99,112.72-4.14,166.91,1.87,10.3,5.04,20.31,8.64,30.14,17.33,47.4,27.25,97.51,29.32,147.93-23.81,4.62-47.61,9.24-71.42,13.85-24.29,4.71-48.81,9.44-73.54,8.71-14.88-.44-29.63-2.86-44.32-5.27-51.04-8.37-131.54-.6-131.54-12.96-23.38-98.97,12.59-415.18,41.25-501.63,0,0,37.84-68.52,92.75-96.77Z"/>
    <path class="cls-4" d="M4636.26,1563.29s-.06,0-.09,0c-1.66-.05-2.96-1.43-2.91-3.08.43-15-5.5-28.94-11.77-43.7-6-14.13-12.21-28.73-12.32-44.38-.04-6.38.94-12.73,1.89-18.87,1.36-8.79,2.65-17.09,1.12-25.29-.31-1.63.77-3.2,2.39-3.5,1.65-.3,3.2.77,3.5,2.4,1.73,9.2.3,18.41-1.08,27.31-.92,5.91-1.86,12.01-1.82,17.91.1,14.44,5.8,27.86,11.84,42.07,6.25,14.7,12.71,29.9,12.25,46.21-.05,1.63-1.38,2.91-3,2.91Z"/>
    <path class="cls-19" d="M4437.51,840.03c-1.88,18.24-15.25,37.86-28.1,45.55-12.85,7.69-28.2,2.85-43.18,2.61-1.08,26.1.69,48.48,10.42,108.47.42,2.61,16.1,1.6,24.18-1.26,46.17-16.33,53.71-42.4,57.48-63.87,4.97-28.31,3.57-53.86.32-82.42-6.91-1.31-14.32-10.87-21.13-9.09Z"/>
    <path class="cls-28" d="M4569.5,944.21c41.46,0,103.44,67.43,117.48,115.3,6.64,22.64,9.64,46.64,6.03,69.96-3.61,23.32-14.18,45.93-31.66,61.79-1.93,1.75-4.65,3.51-6.95,2.29-.97-.52-1.62-1.48-2.22-2.41-16.56-25.44-32.07-51.57-46.49-78.28-8.81-16.33-17.27-32.97-28.56-47.7s-25.78-27.59-43.29-33.73c-13.2-4.62-56.24-2.21-67.16-10.42,42.5-41,99.2-76.8,102.81-76.8Z"/>
    <g>
      <g>
        <path class="cls-26" d="M3957.18,1352.02c-1.16,2.37-3.33,4.12-3.79,6.88-23.49-6.32-64.35-32.23-61.32-40.87,3.38-6.24,24.45,7.44,71.76,21.26-5.16,3.76-3.87,7.04-6.65,12.73Z"/>
        <g>
          <path class="cls-26" d="M4140.07,1367.07s-16.5-45.03-66.79-52.15c-10.47-2.27-25.11-5.76-60.7-7.51-17.59-.86-34.99-7.33-48.23-7.19-5.41.17-22.93,10,6.01,22.97.6.27,1.26.52,1.9.7,4.19,1.2,32.03,11.82,45.36,13.76-.38-.35,15.49,38.87,15.49,38.87,0,0,10.5,2.38,49.74,14.11,117.12,39.3,57.23-23.57,57.23-23.57Z"/>
          <path class="cls-26" d="M3940.74,1335.32c18.34.62,35.56-1.26,52.64-2.56,1.97-.15,28.19-3.56,28.76-2.2,0,0,20.36,43.51,19.68,48.24-24.02-6.05-83.45-15.13-101.96-24.78-.35-.18,2.34-13.99.88-18.7Z"/>
          <path class="cls-4" d="M4034.72,1348.1c-.42,0-.84-.1-1.23-.31-10.44-5.66-39.46-13.75-39.75-13.83-1.37-.38-2.17-1.8-1.79-3.17.38-1.37,1.79-2.17,3.17-1.79,1.21.34,29.88,8.33,40.83,14.27,1.25.68,1.71,2.24,1.04,3.49-.47.86-1.35,1.35-2.27,1.35Z"/>
        </g>
      </g>
      <path class="cls-28" d="M4551.88,1063.83c2.62,6.54-41.29-19.83-104.74,13.54-32.05,16.86-107.87,190.76-120.24,200.59-44.84,35.63-224.61,27.08-229.43,26.99l-5,104.04s208.48,66.43,305.93.44c60.32-40.85,100.52-106.81,137.87-169.47,4.08-1.74,51.18-125.45,15.6-176.12Z"/>
    </g>
    <path class="cls-4" d="M4366.64,1428.25c-1.45,0-2.72-1.05-2.96-2.53-.26-1.63.85-3.17,2.48-3.44h0c.25-.04,25-4.41,59.92-34.8,32.33-28.13,80.18-84.91,124.58-195.63.62-1.54,2.36-2.28,3.9-1.67,1.54.62,2.29,2.36,1.67,3.9-45.02,112.27-93.77,169.85-126.75,198.38-36.09,31.24-61.31,35.57-62.37,35.73-.16.03-.32.04-.48.04Z"/>
    <path class="cls-4" d="M4359.73,1315.77c-.8,0-1.59-.32-2.18-.94l-32.82-34.81c-1.14-1.21-1.08-3.1.12-4.24,1.21-1.14,3.11-1.08,4.24.12l32.82,34.81c1.14,1.21,1.08,3.1-.12,4.24-.58.55-1.32.82-2.06.82Z"/>
    <path class="cls-4" d="M4415.91,1118.51c-.69,0-1.39-.24-1.95-.72-1.26-1.08-1.4-2.97-.32-4.23,88.55-103.22,115.08-101.39,117.82-100.84l-1.18,5.88s.05.02.15.03c-.23-.03-26.34-1.29-112.24,98.84-.59.69-1.43,1.05-2.28,1.05Z"/>
    <path class="cls-4" d="M4652.83,1195.16c-.65,0-1.3-.21-1.85-.64-17.06-13.44-24.3-34.67-30.78-57.08l-.83-2.86c-7.07-24.46-14.38-49.75-27.83-71.41-20.06-32.28-39.78-46.84-60.33-44.52-1.66.19-3.13-1-3.32-2.64-.19-1.65,1-3.13,2.64-3.32,23.08-2.61,44.69,12.87,66.1,47.32,13.9,22.36,21.32,48.06,28.5,72.91l.83,2.86c6.2,21.43,13.07,41.7,28.73,54.03,1.3,1.03,1.53,2.91.5,4.21-.59.75-1.47,1.14-2.36,1.14Z"/>
    <path class="cls-15" d="M4365.95,909.34s15.69.82,17.69.82c-.47.82-6.42,8.22-17.23,6.69-.28-2.51-.46-7.52-.46-7.52Z"/>
    <path class="cls-19" d="M4374.46,798.29c-1.87,4.81,1.08,10.44,5.45,13.18,4.37,2.74,9.75,3.23,14.91,3.33,7.01,8.78,20.35,11.78,30.44,6.85-.03-9.39-7.02-17.2-14.06-23.42-5.57-4.93-13.55-11.72-21.49-11.81-4.67-.06-13.55,7.49-15.25,11.88Z"/>
    <path class="cls-4" d="M4315.05,1439.63c-.39,0-.79-.08-1.18-.24-1.52-.65-2.23-2.41-1.58-3.94.39-.92,9.86-22.71,30.62-41.33,19.29-17.3,52.24-34.8,99.66-19.95,1.58.5,2.46,2.18,1.97,3.76-.5,1.58-2.18,2.46-3.76,1.97-35.83-11.22-67.36-4.98-93.71,18.55-19.84,17.73-29.18,39.15-29.27,39.36-.49,1.14-1.6,1.82-2.76,1.82Z"/>
    <path class="cls-4" d="M4546.14,1656.5c-15.7,0-31.41-1.12-46.98-4.19-4.35-.86-8.72-1.88-12.95-2.87-5.97-1.4-12.14-2.84-18.24-3.82-15.8-2.52-32.28-2.08-48.21-1.64-16.96.46-34.51.94-51.59-2.11-1.63-.29-2.72-1.85-2.43-3.48.29-1.63,1.86-2.72,3.48-2.43,16.48,2.94,33.71,2.47,50.38,2.02,16.21-.44,32.96-.89,49.32,1.72,6.32,1.01,12.59,2.48,18.67,3.9,4.17.98,8.49,1.99,12.74,2.83,35.69,7.05,72.6,3.51,108.29.09,1.63-.16,3.11,1.05,3.27,2.7.16,1.65-1.05,3.11-2.7,3.27-20.74,1.99-41.89,4.02-63.05,4.02Z"/>
  </g>
</svg>