<?xml version="1.0" encoding="UTF-8"?>
<svg xmlns="http://www.w3.org/2000/svg" version="1.1" viewBox="0 0 62 62">
  <defs>
    <style>
      .cls-1 {
        fill: #cad1d8;
      }

      .cls-2 {
        fill: #00c650;
      }

      .cls-3 {
        fill: #e2e5e7;
      }

      .cls-4 {
        fill: #fff;
      }

      .cls-5 {
        fill: #b0b7bd;
      }
    </style>
  </defs>
  <!-- Generator: Adobe Illustrator 28.6.0, SVG Export Plug-In . SVG Version: 1.2.0 Build 709)  -->
  <g>
    <g id="Layer_1">
      <path class="cls-3" d="M15.5,0c-2.1,0-3.9,1.7-3.9,3.9v54.2c0,2.1,1.7,3.9,3.9,3.9h38.8c2.1,0,3.9-1.7,3.9-3.9V15.5L42.6,0H15.5Z"/>
      <path class="cls-5" d="M46.5,15.5h11.6L42.6,0v11.6c0,2.1,1.7,3.9,3.9,3.9Z"/>
      <path class="cls-1" d="M58.1,27.1l-11.6-11.6h11.6v11.6Z"/>
      <path class="cls-2" d="M50.4,50.4c0,1.1-.9,1.9-1.9,1.9H5.8c-1.1,0-1.9-.9-1.9-1.9v-19.4c0-1.1.9-1.9,1.9-1.9h42.6c1.1,0,1.9.9,1.9,1.9v19.4Z"/>
      <path class="cls-1" d="M48.4,52.3H11.6v1.9h36.8c1.1,0,1.9-.9,1.9-1.9v-1.9c0,1.1-.9,1.9-1.9,1.9Z"/>
      <path class="cls-4" d="M19.5,36.9c.3.3.6.6.9.9.6.8,0,1.9-1,1.9h-.2c-.4,0-.8-.2-1-.5s-.4-.4-.6-.6c-.4-.3-.9-.4-1.5-.4-.3,0-.7,0-1,.2-.3.1-.6.4-.8.6-.5.6-.7,1.4-.7,2.2,0,.8.2,1.6.7,2.2.2.3.5.5.8.6.3.1.7.2,1,.2.5,0,1-.1,1.5-.4.2-.2.5-.4.6-.6s.6-.5,1-.5h.2c1,0,1.6,1.1,1,1.9s-.5.7-.9.9c-.9.7-2.1,1.1-3.3,1.1-1.1,0-2.1-.3-3-.9s-1.1-1-1.4-1.6-.7-1.9-.7-2.9c0-1,.2-2,.7-2.9s.8-1.2,1.4-1.6c.9-.6,1.9-.9,3-.9,1.2,0,2.4.3,3.3,1.1Z"/>
      <path class="cls-4" d="M29.8,45c-.3.5-.7.9-1.2,1.1-.6.3-1.3.4-2,.4-1,0-2.1-.3-2.9-.9-.4-.3-.7-.6-.9-1.1-.2-.4-.3-.9-.4-1.3h1.9c.4,0,.8.2,1,.6s.2.3.3.4c.3.2.6.4.9.4.3,0,.6,0,.8-.3,0,0,.2-.2.2-.3,0-.1,0-.3,0-.4,0-.1,0-.2,0-.4,0-.1-.1-.2-.2-.3-.2-.2-.4-.3-.6-.4-.3-.1-.6-.3-1.1-.4-.6-.2-1.1-.4-1.6-.7-.4-.2-.8-.6-1.1-1-.3-.5-.5-1.1-.5-1.6,0-.6.2-1.1.5-1.6.3-.5.8-.8,1.3-1.1.6-.2,1.3-.4,1.9-.4,1,0,2,.2,2.8.8.3.3.6.6.8,1,.2.4.3.8.3,1.3h-2.7c0-.3-.2-.6-.4-.8-.1-.1-.2-.2-.4-.2-.1,0-.3,0-.4,0-.3,0-.5,0-.7.2,0,0-.2.2-.2.3,0,.1,0,.3,0,.4,0,.1,0,.2,0,.3s.1.2.2.3c.2.2.4.3.6.4.2.1.6.2,1.1.4.6.2,1.1.4,1.7.7.4.2.8.6,1.1,1,.3.5.5,1.1.5,1.7,0,.5-.1,1-.4,1.5Z"/>
      <path class="cls-4" d="M33.8,36.7l1.7,5.3c.2.6,1,.6,1.1,0l1.7-5.3c.2-.5.6-.8,1.1-.8h1c.4,0,.7.4.6.8l-3.2,9.3c0,.2-.3.4-.6.4h-2.4c-.3,0-.5-.2-.6-.4l-3.2-9.3c-.1-.4.2-.8.6-.8h1c.5,0,1,.3,1.1.8Z"/>
    </g>
  </g>
</svg>