<?xml version="1.0" encoding="UTF-8"?>
<svg xmlns="http://www.w3.org/2000/svg" xmlns:xlink="http://www.w3.org/1999/xlink" version="1.1" viewBox="0 0 62 62">
  <defs>
    <style>
      .cls-1 {
        fill: none;
      }

      .cls-2 {
        fill: #cad1d8;
      }

      .cls-3 {
        fill: #e2e5e7;
      }

      .cls-4 {
        fill: #5043ef;
        stroke-width: .2px;
      }

      .cls-4, .cls-5 {
        stroke: #5043ef;
        stroke-miterlimit: 10;
      }

      .cls-6 {
        fill: #93989e;
      }

      .cls-7 {
        fill: #b0b7bd;
      }

      .cls-5 {
        fill: #fff;
        stroke-width: 0px;
      }

      .cls-8 {
        display: none;
      }

      .cls-9 {
        clip-path: url(#clippath);
      }
    </style>
    <clipPath id="clippath">
      <rect class="cls-1" x="13.9" y="20" width="37" height="37"/>
    </clipPath>
  </defs>
  <!-- Generator: Adobe Illustrator 28.6.0, SVG Export Plug-In . SVG Version: 1.2.0 Build 709)  -->
  <g>
    <g id="Layer_1">
      <path class="cls-3" d="M15.5,0c-2.1,0-3.9,1.7-3.9,3.9v54.2c0,2.1,1.7,3.9,3.9,3.9h38.8c2.1,0,3.9-1.7,3.9-3.9V15.5L42.6,0H15.5Z"/>
      <path class="cls-7" d="M46.5,15.5h11.6L42.6,0v11.6c0,2.1,1.7,3.9,3.9,3.9Z"/>
      <path class="cls-2" d="M58.1,27.1l-11.6-11.6h11.6v11.6Z"/>
      <g class="cls-8">
        <g class="cls-9">
          <g>
            <path class="cls-6" d="M23,45.4c-2.5,0-4.7-1.6-5.5-3.9v-.2c-.2-.6-.3-1.1-.3-1.7v-10.5l-3.7,12.5c-.5,1.8.6,3.7,2.5,4.2l23.8,6.4c.3,0,.6.1.9.1,1.5,0,2.9-1,3.3-2.5l1.4-4.4h-22.4Z"/>
            <path class="cls-6" d="M27.3,29.2c1.7,0,3.1-1.4,3.1-3.1s-1.4-3.1-3.1-3.1-3.1,1.4-3.1,3.1,1.4,3.1,3.1,3.1Z"/>
            <path class="cls-6" d="M46.5,18.4h-23.1c-2.1,0-3.9,1.7-3.9,3.9v17c0,2.1,1.7,3.9,3.9,3.9h23.1c2.1,0,3.9-1.7,3.9-3.9v-17c0-2.1-1.7-3.9-3.9-3.9h0ZM23.4,21.5h23.1c.4,0,.8.3.8.8v10.9l-4.9-5.7c-.5-.6-1.3-.9-2.1-.9-.8,0-1.5.4-2.1,1l-5.7,6.9-1.9-1.9c-1.1-1.1-2.8-1.1-3.8,0l-4.3,4.3v-14.5c0-.4.3-.8.8-.8h0Z"/>
          </g>
        </g>
      </g>
      <path class="cls-4" d="M50.4,50.4c0,1.1-.9,1.9-1.9,1.9H5.8c-1.1,0-1.9-.9-1.9-1.9v-19.4c0-1.1.9-1.9,1.9-1.9h42.6c1.1,0,1.9.9,1.9,1.9v19.4Z"/>
      <path class="cls-2" d="M48.4,52.3H11.6v1.9h36.8c1.1,0,1.9-.9,1.9-1.9v-1.9c0,1.1-.9,1.9-1.9,1.9Z"/>
      <g>
        <path class="cls-5" d="M12.9,45v-8.5c0-.4.1-.8.3-1s.5-.3.8-.3.6.1.8.3c.2.2.3.5.3,1v8.5c0,.4-.1.8-.3,1s-.5.3-.8.3-.6-.1-.8-.3c-.2-.2-.3-.6-.3-1Z"/>
        <path class="cls-5" d="M22.2,44.5l-1.7-6.8v7.4c0,.4,0,.7-.3.9-.2.2-.4.3-.7.3s-.5-.1-.7-.3c-.2-.2-.3-.5-.3-.9v-8.5c0-.5.1-.8.4-.9.2-.2.6-.2,1-.2h.7c.4,0,.7,0,.9.1.2,0,.3.2.4.4s.2.5.3.9l1.6,5.9,1.6-5.9c.1-.4.2-.7.3-.9s.2-.3.4-.4c.2,0,.5-.1.9-.1h.7c.4,0,.7,0,1,.2.2.2.4.5.4.9v8.5c0,.4,0,.7-.3.9-.2.2-.4.3-.7.3s-.5-.1-.7-.3-.3-.5-.3-.9v-7.4l-1.7,6.8c-.1.4-.2.8-.3,1,0,.2-.2.4-.4.6s-.5.3-.8.3-.5,0-.6-.2c-.2-.1-.3-.2-.4-.4s-.2-.4-.2-.6c0-.2-.1-.4-.2-.6Z"/>
        <path class="cls-5" d="M41.9,41.8v2.1c0,.3,0,.5,0,.7,0,.2-.2.3-.3.4-.1.1-.3.3-.6.4-.6.4-1.3.6-1.9.8s-1.3.2-2,.2-1.6-.1-2.3-.4-1.3-.6-1.7-1.1-.8-1.1-1.1-1.8c-.3-.7-.4-1.5-.4-2.3s.1-1.6.4-2.3c.2-.7.6-1.3,1.1-1.8s1.1-.9,1.8-1.1c.7-.3,1.5-.4,2.4-.4s1.4,0,1.9.3c.6.2,1,.4,1.4.7s.6.6.8.9.3.6.3.9-.1.5-.3.7c-.2.2-.4.3-.7.3s-.3,0-.5-.1c-.1,0-.3-.2-.4-.3-.3-.4-.5-.7-.7-1s-.4-.4-.8-.5c-.3-.1-.7-.2-1.2-.2s-1,0-1.3.3c-.4.2-.7.4-1,.8-.3.3-.5.7-.6,1.2-.1.5-.2,1-.2,1.6,0,1.3.3,2.2.9,2.9.6.7,1.4,1,2.4,1s1,0,1.4-.2c.4-.1.9-.3,1.3-.6v-1.7h-1.7c-.4,0-.7,0-.9-.2-.2-.1-.3-.3-.3-.6s0-.4.3-.6c.2-.2.4-.2.7-.2h2.5c.3,0,.6,0,.8,0s.4.2.5.4c.1.2.2.5.2.8Z"/>
      </g>
    </g>
  </g>
</svg>