<?xml version="1.0" encoding="UTF-8"?>
<svg xmlns="http://www.w3.org/2000/svg" version="1.1" viewBox="0 0 62 62">
  <defs>
    <style>
      .cls-1 {
        fill: #cad1d8;
      }

      .cls-2 {
        fill: #e2e5e7;
      }

      .cls-3 {
        fill: #e34220;
      }

      .cls-4 {
        fill: #fff;
      }

      .cls-5 {
        fill: #b0b7bd;
      }
    </style>
  </defs>
  <!-- Generator: Adobe Illustrator 28.6.0, SVG Export Plug-In . SVG Version: 1.2.0 Build 709)  -->
  <g>
    <g id="Layer_1">
      <g>
        <g id="Layer_1-2" data-name="Layer_1">
          <path class="cls-2" d="M15.5,0c-2.1,0-3.9,1.7-3.9,3.9v54.2c0,2.1,1.7,3.9,3.9,3.9h38.8c2.1,0,3.9-1.7,3.9-3.9V15.5L42.6,0H15.5Z"/>
          <path class="cls-5" d="M46.5,15.5h11.6L42.6,0v11.6c0,2.1,1.7,3.9,3.9,3.9Z"/>
          <path class="cls-1" d="M58.1,27.1l-11.6-11.6h11.6v11.6Z"/>
          <path class="cls-3" d="M50.4,50.4c0,1.1-.9,1.9-1.9,1.9H5.8c-1.1,0-1.9-.9-1.9-1.9v-19.4c0-1.1.9-1.9,1.9-1.9h42.6c1.1,0,1.9.9,1.9,1.9v19.4h.1Z"/>
          <path class="cls-4" d="M12.3,36.7c0-.5.4-1.1,1.1-1.1h3.6c2,0,3.8,1.3,3.8,3.9s-1.8,3.8-3.8,3.8h-2.6v2c0,.7-.4,1.1-1,1.1s-1.1-.4-1.1-1.1v-8.7h0ZM14.4,37.6v3.9h2.6c1,0,1.9-.9,1.9-1.9s-.8-2-1.9-2h-2.6Z"/>
          <path class="cls-1" d="M48.4,52.3H11.6v1.9h36.8c1.1,0,1.9-.9,1.9-1.9v-1.9c0,1.1-.9,1.9-1.9,1.9Z"/>
        </g>
        <path class="cls-4" d="M36.7,37.8h-2.7c-1.3,0-1.3-2,0-2h7.3c1.4,0,1.4,2,0,2h-2.6v7.8c0,1.3-2,1.4-2,0v-7.8Z"/>
        <path class="cls-4" d="M23.2,36.7c0-.5.4-1.1,1.1-1.1h3.6c2,0,3.8,1.3,3.8,3.9s-1.8,3.8-3.8,3.8h-2.6v2c0,.7-.4,1.1-1,1.1s-1.1-.4-1.1-1.1v-8.7h0ZM25.3,37.6v3.9h2.6c1,0,1.9-.9,1.9-1.9s-.8-2-1.9-2h-2.6Z"/>
      </g>
    </g>
  </g>
</svg>