<svg version="1.2" xmlns="http://www.w3.org/2000/svg" viewBox="0 0 513 513" width="30" height="30">
	<title>sparkle_6359638-svg</title>
	<style>
		.s0 { fill: #ffffff } 
	</style>
	<g>
		<path class="s0" d="m424 256l-114.1 27.2c-13.3 3.1-23.6 13.4-26.7 26.7l-27.2 114.1-27.2-114.1c-3.1-13.2-13.4-23.6-26.7-26.7l-114.1-27.2 114.1-27.2c13.3-3.1 23.6-13.4 26.7-26.7l27.2-114.1 27.2 114.1c3.1 13.3 13.5 23.6 26.7 26.7z"/>
		<path class="s0" d="m424 256l-114.1 27.2c-13.3 3.1-23.6 13.4-26.7 26.7l-27.2 114.1-27.2-114.1c-1.7-7.4-5.7-13.9-11.2-18.7 32.7-15.3 58.3-43.3 70.6-77.6 4.9 7.5 12.6 13.1 21.7 15.2z"/>
		<path class="s0" d="m425.9 263.8c3.6-0.9 6.1-4.1 6.1-7.8 0-3.7-2.5-6.9-6.1-7.8l-114.2-27.2c-10.3-2.4-18.3-10.4-20.7-20.7l-27.2-114.1c-0.9-3.7-4.1-6.2-7.8-6.2-3.7 0-6.9 2.5-7.8 6.2l-27.2 114.1c-2.4 10.3-10.4 18.3-20.7 20.7l-114.1 27.2c-3.7 0.9-6.2 4.1-6.2 7.8 0 3.7 2.5 6.9 6.2 7.8l114.1 27.2c10.3 2.4 18.3 10.4 20.7 20.7l27.2 114.2c0.9 3.6 4.1 6.1 7.8 6.1 3.7 0 6.9-2.5 7.8-6.1l27.2-114.2c2.4-10.3 10.4-18.3 20.7-20.7zm-150.4 44.2l-19.4 81.4-19.4-81.4c-3.9-16.3-16.4-28.8-32.6-32.6l-81.5-19.4 81.5-19.4c16.2-3.9 28.7-16.4 32.6-32.6l19.4-81.5 19.4 81.5c3.8 16.2 16.3 28.7 32.6 32.6l81.4 19.4-81.4 19.4c-16.3 3.8-28.8 16.3-32.6 32.6z"/>
		<path class="s0" d="m256 16c-4.4 0-8-3.6-8-8 0-4.4 3.6-8 8-8 4.4 0 8 3.6 8 8 0 4.4-3.6 8-8 8z"/>
		<path class="s0" d="m256 512c-4.4 0-8-3.6-8-8 0-4.4 3.6-8 8-8 4.4 0 8 3.6 8 8 0 4.4-3.6 8-8 8z"/>
		<path class="s0" d="m256 32c-4.4 0-8 3.6-8 8v16c0 4.4 3.6 8 8 8 4.4 0 8-3.6 8-8v-16c0-4.4-3.6-8-8-8z"/>
		<path class="s0" d="m256 480c4.4 0 8-3.6 8-8v-16c0-4.4-3.6-8-8-8-4.4 0-8 3.6-8 8v16c0 4.4 3.6 8 8 8z"/>
		<path class="s0" d="m80.6 88.6c7.1 0 10.7-8.6 5.7-13.6-3.1-3.1-8.2-3.1-11.3 0-5.1 5-1.4 13.6 5.6 13.6z"/>
		<path class="s0" d="m425.7 425.7c-5 5-1.4 13.7 5.7 13.7 7.1 0 10.7-8.7 5.6-13.7-3.1-3.1-8.2-3.1-11.3 0z"/>
		<path class="s0" d="m159.8 171.2c3.2 3.1 8.2 3.1 11.4 0 3.1-3.2 3.1-8.2 0-11.4l-62.3-62.2c-3.1-3.1-8.2-3.1-11.3 0-3.1 3.1-3.1 8.2 0 11.3z"/>
		<path class="s0" d="m352.2 340.9c-3.2-3.2-8.2-3.2-11.3 0-3.2 3.1-3.2 8.1 0 11.3l62.2 62.2c1.5 1.6 3.6 2.3 5.6 2.3 7.1 0 10.8-8.6 5.7-13.6z"/>
		<path class="s0" d="m431.4 88.6c7.1 0 10.7-8.6 5.6-13.6-3.1-3.1-8.2-3.1-11.3 0-5 5-1.4 13.6 5.7 13.6z"/>
		<path class="s0" d="m75 425.7c-5.1 5-1.4 13.7 5.6 13.7 7.1 0 10.7-8.7 5.7-13.7-3.1-3.1-8.2-3.1-11.3 0z"/>
		<path class="s0" d="m346.5 173.5c2.1 0 4.1-0.8 5.7-2.3l62.2-62.3c3.1-3.1 3.1-8.2 0-11.3-3.1-3.1-8.2-3.1-11.3 0l-62.2 62.2c-5.1 5.1-1.4 13.7 5.6 13.7z"/>
		<path class="s0" d="m159.8 340.9l-62.2 62.2c-3.1 3.1-3.1 8.2 0 11.3 3.1 3.1 8.2 3.1 11.3 0l62.3-62.2c3.1-3.2 3.1-8.2 0-11.3-3.2-3.2-8.2-3.2-11.4 0z"/>
		<path class="s0" d="m504 264c-4.4 0-8-3.6-8-8 0-4.4 3.6-8 8-8 4.4 0 8 3.6 8 8 0 4.4-3.6 8-8 8z"/>
		<path class="s0" d="m8 264c-4.4 0-8-3.6-8-8 0-4.4 3.6-8 8-8 4.4 0 8 3.6 8 8 0 4.4-3.6 8-8 8z"/>
		<path class="s0" d="m456 248c-4.4 0-8 3.6-8 8 0 4.4 3.6 8 8 8h16c4.4 0 8-3.6 8-8 0-4.4-3.6-8-8-8z"/>
		<path class="s0" d="m56 248h-16c-4.4 0-8 3.6-8 8 0 4.4 3.6 8 8 8h16c4.4 0 8-3.6 8-8 0-4.4-3.6-8-8-8z"/>
		<path class="s0" d="m78.8 349.1l-41.6 24c-3.8 2.2-5.1 7.1-2.9 10.9 2.2 3.8 7.1 5.1 10.9 2.9l41.6-24c3.8-2.2 5.1-7.1 2.9-10.9-2.2-3.8-7.1-5.1-10.9-2.9z"/>
		<path class="s0" d="m429.2 164c1.4 0 2.8-0.3 4-1.1l41.6-24c3.8-2.2 5.1-7.1 2.9-10.9-2.2-3.8-7.1-5.1-10.9-2.9l-41.6 24c-7.1 4.1-4.1 14.9 4 14.9z"/>
		<path class="s0" d="m474.8 373.1l-41.6-24c-3.8-2.2-8.7-0.9-10.9 2.9-2.2 3.8-0.9 8.7 2.9 10.9l41.6 24c3.8 2.2 8.7 0.9 10.9-2.9 2.2-3.8 0.9-8.7-2.9-10.9z"/>
		<path class="s0" d="m37.2 138.9l41.6 24c1.3 0.8 2.6 1.1 4 1.1 8.2 0 11.1-10.8 4-14.9l-41.6-24c-3.8-2.2-8.7-0.9-10.9 2.9-2.2 3.8-0.9 8.7 2.9 10.9z"/>
		<path class="s0" d="m149.1 86.8c2.2 3.8 7.1 5.1 10.9 2.9 3.8-2.2 5.1-7.1 2.9-10.9l-24-41.6c-2.2-3.8-7.1-5.1-10.9-2.9-3.8 2.2-5.1 7.1-2.9 10.9z"/>
		<path class="s0" d="m362.9 425.2c-2.2-3.8-7.1-5.1-10.9-2.9-3.8 2.2-5.1 7.1-2.9 10.9l24 41.6c1.5 2.5 4.1 4 6.9 4 6.1 0 10-6.7 6.9-12z"/>
		<path class="s0" d="m160 422.3c-3.8-2.2-8.7-0.9-10.9 2.9l-24 41.6c-3.1 5.3 0.8 12 6.9 12 2.8 0 5.5-1.5 6.9-4l24-41.6c2.2-3.8 0.9-8.7-2.9-10.9z"/>
		<path class="s0" d="m352 89.7c3.8 2.2 8.7 0.9 10.9-2.9l24-41.6c2.2-3.8 0.9-8.7-2.9-10.9-3.8-2.2-8.7-0.9-10.9 2.9l-24 41.6c-2.2 3.8-0.9 8.7 2.9 10.9z"/>
		<path class="s0" d="m196.5 64.9c1.2 4.3 5.5 6.8 9.8 5.6 4.3-1.1 6.8-5.5 5.7-9.8l-12.5-46.3c-1.1-4.3-5.5-6.8-9.8-5.7-4.2 1.2-6.8 5.6-5.6 9.8z"/>
		<path class="s0" d="m315.5 447.1c-1.1-4.2-5.5-6.8-9.8-5.6-4.3 1.1-6.8 5.5-5.7 9.8l12.5 46.3c0.9 3.6 4.2 6 7.7 6 5.2 0 9.1-5 7.7-10.1z"/>
		<path class="s0" d="m305.7 70.5c4.3 1.2 8.7-1.4 9.8-5.6l12.4-46.4c1.2-4.2-1.4-8.6-5.6-9.8-4.3-1.1-8.7 1.4-9.8 5.7l-12.5 46.3c-1.1 4.3 1.4 8.7 5.7 9.8z"/>
		<path class="s0" d="m206.3 441.5c-4.3-1.2-8.6 1.4-9.8 5.6l-12.4 46.4c-1.4 5.1 2.5 10.1 7.7 10.1 3.6 0 6.8-2.4 7.7-6l12.5-46.3c1.1-4.3-1.4-8.7-5.7-9.8z"/>
		<path class="s0" d="m441.5 206.3c1.1 4.3 5.5 6.8 9.8 5.7l46.3-12.5c4.3-1.1 6.8-5.5 5.7-9.8-1.2-4.2-5.5-6.8-9.8-5.6l-46.4 12.4c-4.2 1.2-6.8 5.5-5.6 9.8z"/>
		<path class="s0" d="m70.5 305.7c-1.1-4.3-5.5-6.8-9.8-5.7l-46.3 12.5c-4.3 1.1-6.8 5.5-5.7 9.8 1 3.5 4.2 5.9 7.7 5.9 1.6 0-2.1 0.8 48.5-12.7 4.3-1.1 6.8-5.5 5.6-9.8z"/>
		<path class="s0" d="m497.6 312.5l-46.3-12.5c-4.3-1.1-8.7 1.4-9.8 5.7-1.2 4.3 1.4 8.7 5.6 9.8l46.4 12.4c4.3 1.2 8.6-1.4 9.8-5.6 1.1-4.3-1.4-8.7-5.7-9.8z"/>
		<path class="s0" d="m14.4 199.5c50.6 13.6 46.9 12.7 48.4 12.7 3.6 0 6.8-2.3 7.7-5.9 1.2-4.3-1.3-8.6-5.6-9.8l-46.4-12.4c-4.2-1.1-8.6 1.4-9.8 5.6-1.1 4.3 1.4 8.7 5.7 9.8z"/>
	</g>
</svg>