<?xml version="1.0" encoding="UTF-8"?>
<svg xmlns="http://www.w3.org/2000/svg" viewBox="0 0 500 233.92">
  <defs>
    <style>
      .cls-1, .cls-2, .cls-3 {
        fill: #407bff;
      }

      .cls-4 {
        fill: #e6e6e6;
      }

      .cls-2, .cls-5 {
        opacity: .3;
      }

      .cls-3 {
        opacity: .2;
      }

      .cls-6 {
        fill: #fff;
      }

      .cls-7 {
        fill: #f5f5f5;
      }

      .cls-8 {
        fill: #f0f0f0;
      }

      .cls-9 {
        fill: #e0e0e0;
      }
    </style>
  </defs>
  <g id="Background_Complete">
    <g>
      <path class="cls-4" d="M118.17,115.6c-4.77-14-19.31-19.21-23.53-28.05-5.53-11.58-3.51-28.95,3.04-35.22,5.69-5.45,18.28,31.39,19.7,35.51,4.89,14.16,5.58,24.66,5.64,34.84.85-8.65,1.62-16.59,2.21-22.72,1.92-19.99,2.21-26.42,2.24-28.4-.59-.97-1.29-2.09-1.7-2.7-3.48-5.11-11.8-11.18-15.46-18.61-5.34-10.84-2.8-23.81,2.36-28.64,5.4-5.05,12.57,6.89,15.74,18.71s-.05,23.14.1,32.97c.05,1.93-.52,9.24-1.42,19.39,2.62-10.92,6.19-18.24,12.04-25.05,7.19-8.38,13.74-18.59,18.73-17.28,4.99,1.32.68,14.83-4.46,24.31-4.58,8.45-23.4,16.87-26.81,23.66-1.26,13.76-2.97,31.18-4.62,47.41,2.36-8.38,1.48-9.09,8.71-21.92,4.3-7.63,19.43-17.04,20.51-11.79,1.06,5.14-2.6,15.15-8.7,22.09-4.92,5.6-14.42,5.59-17.01,9.06-.61.81-2.66,3.92-3.83,5.7-2.03,19.81-3.92,37.3-4.71,43.26l-.93.06c.22-1.54,1.26-11.62,2.6-24.95-1.5-7.1-16.56-11.24-20.51-18.62-4.14-7.72-6.72-16.73-3.88-22.77,2.37-5.03,15.74,1.81,20.54,10.15,3.19,5.55,4.85,11.48,5.04,19.44.9-9.08,1.87-18.84,2.77-28.06-.9-2.3-2.95-7.59-4.38-11.79Z"/>
      <g>
        <path class="cls-4" d="M132.31,207.38h-29.88c-1.63,0-3.04-1.91-3.36-4.56l-2.12-17.34h40.86l-2.12,17.34c-.32,2.65-1.73,4.56-3.36,4.56Z"/>
        <path class="cls-8" d="M138.66,186.77h-42.57c-1.02,0-1.88-.56-1.99-1.31l-.87-5.67c-.13-.87.8-1.64,1.99-1.64h44.31c1.2,0,2.13.76,1.99,1.64l-.87,5.67c-.11.74-.97,1.31-1.99,1.31Z"/>
      </g>
    </g>
  </g>
  <g id="Shadow">
    <ellipse id="_x3C_Path_x3E_" class="cls-7" cx="250" cy="218.34" rx="193.89" ry="11.32"/>
  </g>
  <g id="Folder">
    <g>
      <g>
        <path class="cls-1" d="M246.23,21.31l14.36,17.16c2.61,3.12,6.57,4.79,10.62,4.49l63.79-4.7c9.91-.73,18.54,6.71,19.27,16.62l8.68,117.83c.73,9.91-6.71,18.54-16.62,19.27l-176.87,13.02c-9.91.73-18.54-6.71-19.27-16.62l-11.18-151.78c-.51-6.96,4.72-13.02,11.68-13.54l84.91-6.25c4.06-.3,8.01,1.37,10.62,4.49Z"/>
        <g class="cls-5">
          <path d="M246.23,21.31l14.36,17.16c2.61,3.12,6.57,4.79,10.62,4.49l63.79-4.7c9.91-.73,18.54,6.71,19.27,16.62l8.68,117.83c.73,9.91-6.71,18.54-16.62,19.27l-176.87,13.02c-9.91.73-18.54-6.71-19.27-16.62l-11.18-151.78c-.51-6.96,4.72-13.02,11.68-13.54l84.91-6.25c4.06-.3,8.01,1.37,10.62,4.49Z"/>
        </g>
      </g>
      <path class="cls-6" d="M153.73,29.3h60.72c1.37,0,2.49,1.11,2.49,2.49v.07c0,1.37-1.11,2.49-2.49,2.49h-60.72c-1.37,0-2.49-1.11-2.49-2.49v-.07c0-1.37,1.11-2.48,2.48-2.48Z" transform="translate(-1.84 13.6) rotate(-4.21)"/>
      <rect class="cls-6" x="152" y="39.71" width="56.57" height="5.04" rx="2.49" ry="2.49" transform="translate(-2.61 13.35) rotate(-4.21)"/>
      <path class="cls-9" d="M352.14,185.29l-185.81,13.68c-4.66.34-8.75-3.19-9.09-7.85l-8.43-114.55c-.34-4.66,3.19-8.75,7.85-9.09l185.81-13.68c4.66-.34,8.75,3.19,9.09,7.85l8.43,114.55c.34,4.66-3.19,8.75-7.85,9.09Z"/>
      <rect class="cls-6" x="155.42" y="60.36" width="200.63" height="131.85" rx="8.49" ry="8.49" transform="translate(-8.58 19.12) rotate(-4.21)"/>
      <polygon class="cls-7" points="174.99 198.33 213.34 195.51 178.63 81.35 174.99 198.33"/>
      <path class="cls-6" d="M388.28,153.3l-183.72,30.93c-4.61.78-9.01-2.36-9.79-6.97l-19.07-113.27c-.78-4.61,2.36-9.01,6.97-9.79l183.72-30.93c4.61-.78,9.01,2.36,9.79,6.97l19.07,113.27c.78,4.61-2.36,9.01-6.97,9.79Z"/>
      <rect class="cls-2" x="186.48" y="37.61" width="200.63" height="131.85" rx="8.49" ry="8.49" transform="translate(-13.21 49.05) rotate(-9.56)"/>
      <path class="cls-3" d="M364.09,47.66l-168.63,28.39c-2.03.34-3.97-1.04-4.32-3.07l-.95-5.63c-.34-2.03,1.04-3.97,3.07-4.32l168.63-28.39c2.03-.34,3.97,1.04,4.32,3.07l.95,5.63c.34,2.03-1.04,3.97-3.07,4.32Z"/>
      <path class="cls-3" d="M365.92,57.8l-168.86,28.43c-1.97.33-3.31,2.21-2.97,4.18l.84,4.96c.33,1.97,2.21,3.31,4.18,2.97l168.86-28.43c1.97-.33,3.31-2.21,2.97-4.18l-.84-4.96c-.33-1.97-2.21-3.3-4.18-2.97Z"/>
      <path class="cls-1" d="M388.54,191.48l-.36-.93c2.31-.88,4.43-2.16,6.3-3.8l.66.75c-1.96,1.72-4.18,3.06-6.61,3.98Z"/>
      <path class="cls-1" d="M400.25,180.9l-.89-.45c1.67-3.33,2.42-7.07,2.14-10.8l-1.1-14.96,1-.07,1.1,14.96c.29,3.91-.49,7.83-2.25,11.32Z"/>
      <path class="cls-1" d="M382.16,189.35l-194.52,14.32h0s-18.18,1.34-18.18,1.34c10.04-.74,17.58-9.48,16.84-19.52l-5.87-79.76c-.49-6.63,4.49-12.4,11.12-12.89l188.69-13.89c6.63-.49,12.4,4.49,12.89,11.12l5.87,79.76c.74,10.04-6.8,18.78-16.84,19.52Z"/>
    </g>
  </g>
</svg>