<?xml version="1.0" encoding="UTF-8"?>
<svg xmlns="http://www.w3.org/2000/svg" xmlns:xlink="http://www.w3.org/1999/xlink" version="1.1" viewBox="0 0 27 18">
  <defs>
    <style>
      .cls-1 {
        fill: url(#linear-gradient-8);
      }

      .cls-2 {
        fill: url(#linear-gradient-7);
      }

      .cls-3 {
        fill: url(#linear-gradient-5);
      }

      .cls-4 {
        fill: url(#linear-gradient-6);
      }

      .cls-5 {
        fill: url(#linear-gradient-9);
      }

      .cls-6 {
        fill: url(#linear-gradient-4);
      }

      .cls-7 {
        fill: url(#linear-gradient-3);
      }

      .cls-8 {
        fill: url(#linear-gradient-2);
      }

      .cls-9 {
        fill: url(#linear-gradient);
      }

      .cls-10 {
        fill: url(#linear-gradient-10);
      }

      .cls-11 {
        fill: url(#linear-gradient-11);
      }

      .cls-12 {
        fill: url(#linear-gradient-12);
      }

      .cls-13 {
        fill: url(#linear-gradient-13);
      }

      .cls-14 {
        fill: url(#linear-gradient-19);
      }

      .cls-15 {
        fill: url(#linear-gradient-14);
      }

      .cls-16 {
        fill: url(#linear-gradient-21);
      }

      .cls-17 {
        fill: url(#linear-gradient-20);
      }

      .cls-18 {
        fill: url(#linear-gradient-22);
      }

      .cls-19 {
        fill: url(#linear-gradient-15);
      }

      .cls-20 {
        fill: url(#linear-gradient-16);
      }

      .cls-21 {
        fill: url(#linear-gradient-17);
      }

      .cls-22 {
        fill: url(#linear-gradient-18);
      }
    </style>
    <linearGradient id="linear-gradient" x1="-630.8" y1="270.36" x2="-464.16" y2="233.47" gradientTransform="translate(564 254) scale(1 -1)" gradientUnits="userSpaceOnUse">
      <stop offset="0" stop-color="#0884d5"/>
      <stop offset="1" stop-color="#009f83"/>
    </linearGradient>
    <linearGradient id="linear-gradient-2" x1="-587.38" y1="259.83" x2="-435.5" y2="223.65" xlink:href="#linear-gradient"/>
    <linearGradient id="linear-gradient-3" x1="-574.14" y1="251.6" x2="-436.87" y2="223.98" xlink:href="#linear-gradient"/>
    <linearGradient id="linear-gradient-4" x1="-609.63" y1="259.85" x2="-394.62" y2="214.65" xlink:href="#linear-gradient"/>
    <linearGradient id="linear-gradient-5" x1="-712.47" y1="283.9" x2="-403.58" y2="218.42" xlink:href="#linear-gradient"/>
    <linearGradient id="linear-gradient-6" x1="-683" y1="277.86" x2="-475.09" y2="233.8" xlink:href="#linear-gradient"/>
    <linearGradient id="linear-gradient-7" x1="-678.94" y1="280.57" x2="-329.43" y2="189.94" xlink:href="#linear-gradient"/>
    <linearGradient id="linear-gradient-8" x1="-709.32" y1="281.59" x2="-345.6" y2="204.68" xlink:href="#linear-gradient"/>
    <linearGradient id="linear-gradient-9" x1="-656.73" y1="265.4" x2="-326.32" y2="203.06" xlink:href="#linear-gradient"/>
    <linearGradient id="linear-gradient-10" x1="-749.83" y1="286.11" x2="-362.72" y2="209.24" xlink:href="#linear-gradient"/>
    <linearGradient id="linear-gradient-11" x1="-604.1" y1="256.05" x2="-384.88" y2="206.19" xlink:href="#linear-gradient"/>
    <linearGradient id="linear-gradient-12" x1="-728.89" y1="281.05" x2="-434.96" y2="223.13" xlink:href="#linear-gradient"/>
    <linearGradient id="linear-gradient-13" x1="-651.03" y1="262.69" x2="-351.54" y2="205.47" xlink:href="#linear-gradient"/>
    <linearGradient id="linear-gradient-14" x1="-767.43" y1="290.08" x2="-361.94" y2="204.36" xlink:href="#linear-gradient"/>
    <linearGradient id="linear-gradient-15" x1="-582.2" y1="245.92" x2="-447.54" y2="221.46" xlink:href="#linear-gradient"/>
    <linearGradient id="linear-gradient-16" x1="-691.06" y1="272.27" x2="-358.13" y2="200.26" xlink:href="#linear-gradient"/>
    <linearGradient id="linear-gradient-17" x1="-621.6" y1="255.68" x2="-411.49" y2="210.66" xlink:href="#linear-gradient"/>
    <linearGradient id="linear-gradient-18" x1="-693.48" y1="273.41" x2="-488.23" y2="229.85" xlink:href="#linear-gradient"/>
    <linearGradient id="linear-gradient-19" x1="-725.25" y1="283.29" x2="-365.62" y2="198.52" xlink:href="#linear-gradient"/>
    <linearGradient id="linear-gradient-20" x1="-728.91" y1="278.76" x2="-427.03" y2="215.94" xlink:href="#linear-gradient"/>
    <linearGradient id="linear-gradient-21" x1="-605.83" y1="250.67" x2="-457.88" y2="216.29" xlink:href="#linear-gradient"/>
    <linearGradient id="linear-gradient-22" x1="-660.54" y1="262.01" x2="-479.58" y2="222.78" xlink:href="#linear-gradient"/>
  </defs>
  <!-- Generator: Adobe Illustrator 28.6.0, SVG Export Plug-In . SVG Version: 1.2.0 Build 709)  -->
  <g>
    <g id="Layer_1">
      <path class="cls-9" d="M17.13,2.75c1.25-.88,1.2-1.28-.25-1.97-1.14-.54-1.46-.59-1.77-.25-.19.2-.2.37-.13,1.33.09,1.32.12,1.39.54,1.56.39.16.5.11,1.6-.67h0Z"/>
      <path class="cls-8" d="M10.58,4.14c.11-.1.21-3.72.12-3.72-.03,0-.8.39-1.7.86-.9.46-1.63.89-1.62.95.02.16,3.11,2.01,3.2,1.92h0Z"/>
      <path class="cls-7" d="M7.9,6.89s-.41-.77-1.01-1.64l-1.1-1.57-.85,1.74c-.47.96-.83,1.76-.81,1.78.07.07,3.66-.22,3.76-.31h0Z"/>
      <path class="cls-6" d="M9.62,5.89c.47-.49.8-.93.75-.97-.09-.08-2.04-.58-2.27-.58-.06,0-.12.03-.12.08,0,.15.64,2.17.71,2.26.05.05.46-.31.93-.8h0Z"/>
      <path class="cls-3" d="M16.3,4.56c-.27.29-.27.88-.01,1.17.48.52,1.47.14,1.47-.58s-.99-1.11-1.46-.59Z"/>
      <path class="cls-4" d="M20.33,6.89c.41,0,.58-.07.86-.34.28-.28.34-.44.34-.88,0-.46-.06-.6-.37-.88-.54-.49-1.17-.47-1.71.06-.82.81-.31,2.02.87,2.03h0Z"/>
      <path class="cls-2" d="M12.6,6.18s-.39-.27-.75-.5l-.68-.43v1.74l.77-.37c.42-.21.72-.41.67-.45Z"/>
      <path class="cls-1" d="M14.7,6.26c0-.86-.17-.96-.86-.51-.31.2-.55.42-.55.51,0,.18.83.62,1.18.62.21,0,.23-.07.23-.62h0Z"/>
      <path class="cls-5" d="M9.24,7.42c-.07.08.74,1.32.86,1.32.07,0,.71-1.21.71-1.33,0-.08-1.49-.07-1.57.01Z"/>
      <path class="cls-10" d="M16.46,8.24c.14-.22.22-.49.18-.58-.13-.34-.99-.42-1.24-.13-.13.15-.12.25.07.6.32.58.66.61.99.1h0Z"/>
      <path class="cls-11" d="M6.23,9.03s2.15,1.21,2.26,1.21c.11,0,.08-2.4-.02-2.47-.05-.02-.57.23-1.14.59-.59.35-1.07.65-1.1.67Z"/>
      <path class="cls-12" d="M18.53,8.27c-.28,0-.46.08-.64.3-.28.35-.31.53-.12.89.19.35.33.43.78.43.4,0,.86-.43.86-.81s-.46-.81-.89-.81h0Z"/>
      <path class="cls-13" d="M10.51,9.79l-.38-.75-.48.75-.48.74.47.03c.26.02.65.02.86,0l.4-.03-.39-.74h0Z"/>
      <path class="cls-15" d="M15.81,10.91c.87.1,1.13-.25.65-.91-.32-.44-.64-.43-.87.02-.27.51-.19.84.22.89h0Z"/>
      <path class="cls-19" d="M4.2,10.99s.41.82.91,1.73c.65,1.18.94,1.62,1.01,1.5.05-.09.08-.21.08-.24-.01-.05.03-.11.11-.15.14-.09,1.82-2.68,1.76-2.73-.08-.07-3.87-.18-3.87-.11Z"/>
      <path class="cls-20" d="M11.48,10.93s0,.32.01.72c.02.41.08.77.14.83.06.05.39-.1.74-.36l.65-.46-.75-.36c-.41-.21-.77-.37-.79-.37h0Z"/>
      <path class="cls-21" d="M10.64,12.98s-.38-.45-.9-.95c-.64-.62-.95-.86-.99-.74-.19.5-.62,2.42-.55,2.42.11,0,2.41-.68,2.44-.73h0Z"/>
      <path class="cls-22" d="M21.15,11.39c-.47-.29-.86-.29-1.33-.01-.92.55-.75,1.91.3,2.22,1.37.41,2.25-1.48,1.04-2.21Z"/>
      <path class="cls-14" d="M14.68,11.39c-.08.01-.4.14-.71.3-.32.15-.57.35-.57.44,0,.18,1.15.9,1.31.81.17-.1.13-1.55-.03-1.55h0Z"/>
      <path class="cls-17" d="M17.94,13.23c.14-.55-.62-1.13-1.2-.91-.53.21-.65.83-.26,1.32.44.53,1.3.3,1.46-.41Z"/>
      <path class="cls-16" d="M9.45,14.77c-.85.57-1.54,1.07-1.57,1.12-.03.09,3.36,1.7,3.44,1.62.06-.06-.23-3.68-.29-3.73-.02-.02-.73.42-1.58.99Z"/>
      <path class="cls-18" d="M17.14,15.33c-.77-.43-1.07-.44-1.51-.01-.32.31-.34.41-.34,1.17,0,.72.03.86.3,1.1.15.16.42.29.59.29.4,0,1.67-.63,1.83-.91.32-.6.05-1.12-.86-1.63h0Z"/>
    </g>
  </g>
</svg>