<?xml version="1.0" encoding="UTF-8"?>
<svg xmlns="http://www.w3.org/2000/svg" xmlns:xlink="http://www.w3.org/1999/xlink" version="1.1" viewBox="0 0 191 45">
  <defs>
    <style>
      .cls-1 {
        fill: url(#linear-gradient-8);
      }

      .cls-2 {
        fill: url(#linear-gradient-7);
      }

      .cls-3 {
        fill: url(#linear-gradient-5);
      }

      .cls-4 {
        fill: url(#linear-gradient-6);
      }

      .cls-5 {
        fill: url(#linear-gradient-9);
      }

      .cls-6 {
        fill: url(#linear-gradient-4);
      }

      .cls-7 {
        fill: url(#linear-gradient-3);
      }

      .cls-8 {
        fill: url(#linear-gradient-2);
      }

      .cls-9 {
        fill: url(#linear-gradient);
      }

      .cls-10 {
        fill: url(#linear-gradient-10);
      }

      .cls-11 {
        fill: url(#linear-gradient-11);
      }

      .cls-12 {
        fill: url(#linear-gradient-12);
      }

      .cls-13 {
        fill: url(#linear-gradient-13);
      }

      .cls-14 {
        fill: url(#linear-gradient-19);
      }

      .cls-15 {
        fill: url(#linear-gradient-14);
      }

      .cls-16 {
        fill: url(#linear-gradient-21);
      }

      .cls-17 {
        fill: url(#linear-gradient-20);
      }

      .cls-18 {
        fill: url(#linear-gradient-22);
      }

      .cls-19 {
        fill: url(#linear-gradient-15);
      }

      .cls-20 {
        fill: url(#linear-gradient-16);
      }

      .cls-21 {
        fill: url(#linear-gradient-17);
      }

      .cls-22 {
        fill: url(#linear-gradient-18);
      }
    </style>
    <linearGradient id="linear-gradient" x1="-178.7" y1="-18.1" x2="241.1" y2="74.8" gradientTransform="translate(0 -24)" gradientUnits="userSpaceOnUse">
      <stop offset="0" stop-color="#0884d5"/>
      <stop offset="1" stop-color="#009f83"/>
    </linearGradient>
    <linearGradient id="linear-gradient-2" x1="-69.3" y1="8.5" x2="313.3" y2="99.7" gradientTransform="translate(0 -24)" gradientUnits="userSpaceOnUse">
      <stop offset="0" stop-color="#0884d5"/>
      <stop offset="1" stop-color="#009f83"/>
    </linearGradient>
    <linearGradient id="linear-gradient-3" x1="-36" y1="29.2" x2="309.9" y2="98.8" gradientTransform="translate(0 -24)" gradientUnits="userSpaceOnUse">
      <stop offset="0" stop-color="#0884d5"/>
      <stop offset="1" stop-color="#009f83"/>
    </linearGradient>
    <linearGradient id="linear-gradient-4" x1="-125.4" y1="8.4" x2="416.3" y2="122.2" gradientTransform="translate(0 -24)" gradientUnits="userSpaceOnUse">
      <stop offset="0" stop-color="#0884d5"/>
      <stop offset="1" stop-color="#009f83"/>
    </linearGradient>
    <linearGradient id="linear-gradient-5" x1="-384.4" y1="-52.2" x2="393.7" y2="112.7" gradientTransform="translate(0 -24)" gradientUnits="userSpaceOnUse">
      <stop offset="0" stop-color="#0884d5"/>
      <stop offset="1" stop-color="#009f83"/>
    </linearGradient>
    <linearGradient id="linear-gradient-6" x1="-310.2" y1="-36.9" x2="213.6" y2="74.1" gradientTransform="translate(0 -24)" gradientUnits="userSpaceOnUse">
      <stop offset="0" stop-color="#0884d5"/>
      <stop offset="1" stop-color="#009f83"/>
    </linearGradient>
    <linearGradient id="linear-gradient-7" x1="-300" y1="-43.7" x2="580.6" y2="184.6" gradientTransform="translate(0 -24)" gradientUnits="userSpaceOnUse">
      <stop offset="0" stop-color="#0884d5"/>
      <stop offset="1" stop-color="#009f83"/>
    </linearGradient>
    <linearGradient id="linear-gradient-8" x1="-376.5" y1="-46.2" x2="539.8" y2="147.5" gradientTransform="translate(0 -24)" gradientUnits="userSpaceOnUse">
      <stop offset="0" stop-color="#0884d5"/>
      <stop offset="1" stop-color="#009f83"/>
    </linearGradient>
    <linearGradient id="linear-gradient-9" x1="-244" y1="-5.5" x2="588.4" y2="151.5" gradientTransform="translate(0 -24)" gradientUnits="userSpaceOnUse">
      <stop offset="0" stop-color="#0884d5"/>
      <stop offset="1" stop-color="#009f83"/>
    </linearGradient>
    <linearGradient id="linear-gradient-10" x1="-478.6" y1="-57.7" x2="496.7" y2="136" gradientTransform="translate(0 -24)" gradientUnits="userSpaceOnUse">
      <stop offset="0" stop-color="#0884d5"/>
      <stop offset="1" stop-color="#009f83"/>
    </linearGradient>
    <linearGradient id="linear-gradient-11" x1="-111.4" y1="18.1" x2="440.9" y2="143.7" gradientTransform="translate(0 -24)" gradientUnits="userSpaceOnUse">
      <stop offset="0" stop-color="#0884d5"/>
      <stop offset="1" stop-color="#009f83"/>
    </linearGradient>
    <linearGradient id="linear-gradient-12" x1="-425.8" y1="-45" x2="314.7" y2="100.9" gradientTransform="translate(0 -24)" gradientUnits="userSpaceOnUse">
      <stop offset="0" stop-color="#0884d5"/>
      <stop offset="1" stop-color="#009f83"/>
    </linearGradient>
    <linearGradient id="linear-gradient-13" x1="-229.7" y1="1.3" x2="524.9" y2="145.5" gradientTransform="translate(0 -24)" gradientUnits="userSpaceOnUse">
      <stop offset="0" stop-color="#0884d5"/>
      <stop offset="1" stop-color="#009f83"/>
    </linearGradient>
    <linearGradient id="linear-gradient-14" x1="-522.9" y1="-67.7" x2="498.6" y2="148.3" gradientTransform="translate(0 -24)" gradientUnits="userSpaceOnUse">
      <stop offset="0" stop-color="#0884d5"/>
      <stop offset="1" stop-color="#009f83"/>
    </linearGradient>
    <linearGradient id="linear-gradient-15" x1="-56.3" y1="43.6" x2="283" y2="105.2" gradientTransform="translate(0 -24)" gradientUnits="userSpaceOnUse">
      <stop offset="0" stop-color="#0884d5"/>
      <stop offset="1" stop-color="#009f83"/>
    </linearGradient>
    <linearGradient id="linear-gradient-16" x1="-330.5" y1="-22.9" x2="508.2" y2="158.5" gradientTransform="translate(0 -24)" gradientUnits="userSpaceOnUse">
      <stop offset="0" stop-color="#0884d5"/>
      <stop offset="1" stop-color="#009f83"/>
    </linearGradient>
    <linearGradient id="linear-gradient-17" x1="-155.5" y1="19" x2="373.8" y2="132.4" gradientTransform="translate(0 -24)" gradientUnits="userSpaceOnUse">
      <stop offset="0" stop-color="#0884d5"/>
      <stop offset="1" stop-color="#009f83"/>
    </linearGradient>
    <linearGradient id="linear-gradient-18" x1="-336.6" y1="-25.7" x2="180.5" y2="84.1" gradientTransform="translate(0 -24)" gradientUnits="userSpaceOnUse">
      <stop offset="0" stop-color="#0884d5"/>
      <stop offset="1" stop-color="#009f83"/>
    </linearGradient>
    <linearGradient id="linear-gradient-19" x1="-416.7" y1="-50.6" x2="489.4" y2="163" gradientTransform="translate(0 -24)" gradientUnits="userSpaceOnUse">
      <stop offset="0" stop-color="#0884d5"/>
      <stop offset="1" stop-color="#009f83"/>
    </linearGradient>
    <linearGradient id="linear-gradient-20" x1="-425.9" y1="-39.3" x2="334.7" y2="119" gradientTransform="translate(0 -24)" gradientUnits="userSpaceOnUse">
      <stop offset="0" stop-color="#0884d5"/>
      <stop offset="1" stop-color="#009f83"/>
    </linearGradient>
    <linearGradient id="linear-gradient-21" x1="-115.8" y1="31.6" x2="256.9" y2="118.2" gradientTransform="translate(0 -24)" gradientUnits="userSpaceOnUse">
      <stop offset="0" stop-color="#0884d5"/>
      <stop offset="1" stop-color="#009f83"/>
    </linearGradient>
    <linearGradient id="linear-gradient-22" x1="-253.6" y1="3" x2="202.3" y2="101.8" gradientTransform="translate(0 -24)" gradientUnits="userSpaceOnUse">
      <stop offset="0" stop-color="#0884d5"/>
      <stop offset="1" stop-color="#009f83"/>
    </linearGradient>
  </defs>
  <!-- Generator: Adobe Illustrator 28.6.0, SVG Export Plug-In . SVG Version: 1.2.0 Build 709)  -->
  <g>
    <g id="Layer_1">
      <g id="Layer_1-2" data-name="Layer_1">
        <path class="cls-9" d="M32.7,6.1c3.2-2.2,3-3.2-.6-5-2.9-1.4-3.7-1.5-4.5-.6-.5.5-.5.9-.3,3.3.2,3.3.3,3.5,1.4,3.9,1,.4,1.2.3,4-1.7h0Z"/>
        <path class="cls-8" d="M16.3,9.6c.3-.3.5-9.4.3-9.4s-2,1-4.3,2.2-4.1,2.2-4.1,2.4c0,.4,7.8,5.1,8,4.8h.1Z"/>
        <path class="cls-7" d="M9.5,16.5c.1,0-1-1.9-2.6-4.1l-2.8-4-2.1,4.4c-1.2,2.5-2,4.5-2,4.5.2.2,9.2-.6,9.5-.8h0Z"/>
        <path class="cls-6" d="M13.8,14c1.2-1.2,2-2.3,1.9-2.4-.2-.2-5.1-1.5-5.7-1.5s-.3,0-.3.2c0,.4,1.6,5.5,1.8,5.7s1.2-.8,2.3-2h0Z"/>
        <path class="cls-3" d="M30.7,10.7c-.7.7-.7,2.2,0,2.9,1.2,1.3,3.7.3,3.7-1.5s-2.5-2.8-3.7-1.5h0Z"/>
        <path class="cls-4" d="M40.8,16.5c1,0,1.5-.2,2.2-.8.7-.7.9-1.1.9-2.2s0-1.5-.9-2.2c-1.4-1.2-2.9-1.2-4.3.1-2.1,2-.8,5.1,2.2,5.1h-.1Z"/>
        <path class="cls-2" d="M21.3,14.8c-.1-.1-1-.7-1.9-1.2l-1.7-1.1v4.4l1.9-.9c1.1-.5,1.8-1,1.7-1.1h0Z"/>
        <path class="cls-1" d="M26.6,15c0-2.2-.4-2.4-2.2-1.3-.8.5-1.4,1-1.4,1.3,0,.5,2.1,1.6,3,1.6s.6-.2.6-1.6h0Z"/>
        <path class="cls-5" d="M12.9,17.9c-.2.2,1.9,3.3,2.2,3.3s1.8-3.1,1.8-3.3-3.7-.2-4,0Z"/>
        <path class="cls-10" d="M31.1,20c.4-.6.6-1.2.4-1.5-.3-.8-2.5-1-3.1-.3-.3.4-.3.6.2,1.5.8,1.5,1.7,1.5,2.5.3h0Z"/>
        <path class="cls-11" d="M5.3,21.9c0,0,5.4,3.1,5.7,3.1s.2-6.1,0-6.2c-.1,0-1.4.6-2.9,1.5s-2.7,1.6-2.8,1.7h0Z"/>
        <path class="cls-12" d="M36.3,20c-.7,0-1.2.2-1.6.8-.7.9-.8,1.3-.3,2.2.5.9.8,1.1,2,1.1s2.2-1.1,2.2-2-1.2-2-2.2-2h-.1Z"/>
        <path class="cls-13" d="M16.1,23.9l-.9-1.9-1.2,1.9-1.2,1.9h1.2c.7.1,1.6.1,2.2,0h1l-1-1.9h-.1Z"/>
        <path class="cls-15" d="M29.4,26.7c2.2.3,2.8-.6,1.6-2.3-.8-1.1-1.6-1.1-2.2,0-.7,1.3-.5,2.1.6,2.2h0Z"/>
        <path class="cls-19" d="M.2,26.9s1,2.1,2.3,4.4c1.6,3,2.4,4.1,2.6,3.8,0-.2.2-.5.2-.6s0-.3.3-.4c.4-.2,4.6-6.8,4.4-6.9-.2-.2-9.7-.5-9.7-.3h-.1Z"/>
        <path class="cls-20" d="M18.5,26.7v1.8c0,1,.2,1.9.4,2.1.1.1,1-.3,1.9-.9l1.6-1.2-1.9-.9c-1-.5-1.9-.9-2-.9h0Z"/>
        <path class="cls-21" d="M16.4,31.9s-.9-1.1-2.3-2.4c-1.6-1.6-2.4-2.2-2.5-1.9-.5,1.2-1.6,6.1-1.4,6.1.3,0,6.1-1.7,6.1-1.8h.1Z"/>
        <path class="cls-22" d="M42.9,27.9c-1.2-.7-2.2-.7-3.4,0-2.3,1.4-1.9,4.8.7,5.6,3.4,1,5.7-3.7,2.6-5.6h.1Z"/>
        <path class="cls-14" d="M26.6,27.9c-.2,0-1,.3-1.8.8-.8.4-1.4.9-1.4,1.1,0,.5,2.9,2.3,3.3,2s.3-3.9,0-3.9h-.1Z"/>
        <path class="cls-17" d="M34.8,32.5c.4-1.4-1.6-2.9-3-2.3-1.3.5-1.6,2.1-.7,3.3,1.1,1.3,3.3.8,3.7-1Z"/>
        <path class="cls-16" d="M13.4,36.4c-2.1,1.4-3.9,2.7-4,2.8,0,.2,8.5,4.3,8.7,4.1.1,0-.6-9.3-.7-9.4,0,0-1.8,1-4,2.5Z"/>
        <path class="cls-18" d="M32.8,37.8c-1.9-1.1-2.7-1.1-3.8,0s-.9,1-.9,2.9,0,2.2.7,2.8c.4.4,1.1.7,1.5.7,1,0,4.2-1.6,4.6-2.3.8-1.5,0-2.8-2.2-4.1h0Z"/>
      </g>
      <g>
        <polygon points="58.7 15.3 53 21.8 53 15.3 50.2 15.3 50.2 29.9 53 29.9 53 25.4 54.9 23.4 58.9 29.9 62.1 29.9 56.8 21.3 62.3 15.3 58.7 15.3"/>
        <polygon points="74 23.9 66.1 15.3 65.9 15.1 65.2 15.1 65.2 29.9 68 29.9 68 21.3 75.9 30 76.1 30.1 76.8 30.1 76.8 15.3 74 15.3 74 23.9"/>
        <path d="M88.3,15.1c-4.2,0-7.4,3.3-7.4,7.5s3.2,7.5,7.4,7.5,7.4-3.2,7.4-7.5-3.3-7.5-7.4-7.5ZM92.9,22.6c0,2.8-1.9,4.8-4.6,4.8s-4.6-2-4.6-4.8,1.9-4.8,4.6-4.8,4.6,2,4.6,4.8Z"/>
        <path d="M112,21.3c-.3.8-.6,1.7-.9,2.4-.3-.7-.6-1.4-.9-2.3l-2.3-5.7-.2-.3h-.7l-2.5,6.2c-.3.7-.6,1.4-.8,2-.3-.8-.6-1.6-.9-2.4l-2.3-6h-3l5.7,14.5.2.3h.7l3-7.7.2-.6c0,0,0-.1,0-.2,0,.2.1.4.2.5l3,7.6.2.3h.7l5.8-14.8h-3l-2.3,6Z"/>
        <path d="M130.7,20c0-2.9-2-4.6-5.3-4.6h-4.9v14.5h2.8v-5.3h2l2.8,5.3h3.2l-3.2-5.8c1.3-.6,2.6-1.9,2.6-4.1ZM127.9,20c0,1.4-.8,2.1-2.4,2.1h-2.2v-4.2h2c1.6,0,2.5.8,2.5,2.1Z"/>
        <polygon points="137.8 15.3 135 15.3 135 29.9 143.6 29.9 143.6 27.4 137.8 27.4 137.8 15.3"/>
        <path d="M151.8,15.1l-6.7,14.8h3l1.3-3h5.4l1.3,3h3l-6.7-14.8h-.7ZM153.8,24.4h-3.2c.6-1.3,1.1-2.5,1.6-3.8.5,1.3,1,2.4,1.6,3.8Z"/>
        <polygon points="171 23.9 163.1 15.3 162.9 15.1 162.2 15.1 162.2 29.9 165 29.9 165 21.3 173 30 173.1 30.1 173.8 30.1 173.8 15.3 171 15.3 171 23.9"/>
        <path d="M183.3,15.3h-4.4v14.5h4.5c4.6,0,7.7-2.9,7.7-7.3s-3.1-7.3-7.7-7.3ZM188.2,22.6c0,2.9-1.9,4.8-4.8,4.8h-1.6v-9.5h1.6c3,0,4.9,1.9,4.9,4.8Z"/>
      </g>
    </g>
  </g>
</svg>