<?xml version="1.0" encoding="UTF-8"?>
<svg xmlns="http://www.w3.org/2000/svg" xmlns:xlink="http://www.w3.org/1999/xlink" version="1.1" viewBox="0 0 269 56">
  <defs>
    <style>
      .cls-1 {
        fill: url(#linear-gradient-8);
      }

      .cls-2 {
        fill: url(#linear-gradient-7);
      }

      .cls-3 {
        fill: url(#linear-gradient-5);
      }

      .cls-4 {
        fill: url(#linear-gradient-6);
      }

      .cls-5 {
        fill: url(#linear-gradient-9);
      }

      .cls-6 {
        fill: url(#linear-gradient-4);
      }

      .cls-7 {
        fill: url(#linear-gradient-3);
      }

      .cls-8 {
        fill: url(#linear-gradient-2);
      }

      .cls-9 {
        fill: url(#linear-gradient);
      }

      .cls-10 {
        fill: url(#linear-gradient-10);
      }

      .cls-11 {
        fill: url(#linear-gradient-11);
      }

      .cls-12 {
        fill: url(#linear-gradient-12);
      }

      .cls-13 {
        fill: url(#linear-gradient-13);
      }

      .cls-14 {
        fill: url(#linear-gradient-19);
      }

      .cls-15 {
        fill: url(#linear-gradient-14);
      }

      .cls-16 {
        fill: url(#linear-gradient-21);
      }

      .cls-17 {
        fill: url(#linear-gradient-20);
      }

      .cls-18 {
        fill: url(#linear-gradient-22);
      }

      .cls-19 {
        fill: url(#linear-gradient-15);
      }

      .cls-20 {
        fill: url(#linear-gradient-16);
      }

      .cls-21 {
        fill: url(#linear-gradient-17);
      }

      .cls-22 {
        fill: url(#linear-gradient-18);
      }
    </style>
    <linearGradient id="linear-gradient" x1="-1054.82" y1="756.32" x2="182.75" y2="-294.46" gradientTransform="translate(564 292) scale(1 -1)" gradientUnits="userSpaceOnUse">
      <stop offset="0" stop-color="#0884d5"/>
      <stop offset="1" stop-color="#009f83"/>
    </linearGradient>
    <linearGradient id="linear-gradient-2" x1="-726.8" y1="473.86" x2="338.82" y2="-499.92" xlink:href="#linear-gradient"/>
    <linearGradient id="linear-gradient-3" x1="-652.59" y1="364.73" x2="438.08" y2="-476.92" xlink:href="#linear-gradient"/>
    <linearGradient id="linear-gradient-4" x1="-918.61" y1="593.75" x2="738.98" y2="-742.79" xlink:href="#linear-gradient"/>
    <linearGradient id="linear-gradient-5" x1="-1697.34" y1="1250.85" x2="669.66" y2="-674.05" xlink:href="#linear-gradient"/>
    <linearGradient id="linear-gradient-6" x1="-1468.57" y1="1071.71" x2="124.97" y2="-223.8" xlink:href="#linear-gradient"/>
    <linearGradient id="linear-gradient-7" x1="-1309.53" y1="1062.1" x2="974.78" y2="-1210.12" xlink:href="#linear-gradient"/>
    <linearGradient id="linear-gradient-8" x1="-1677.93" y1="1222.4" x2="1114.46" y2="-1042.44" xlink:href="#linear-gradient"/>
    <linearGradient id="linear-gradient-9" x1="-1336.76" y1="858.69" x2="1398.75" y2="-1121.38" xlink:href="#linear-gradient"/>
    <linearGradient id="linear-gradient-10" x1="-2051.89" y1="1448.35" x2="1050.29" y2="-914.71" xlink:href="#linear-gradient"/>
    <linearGradient id="linear-gradient-11" x1="-857.93" y1="552.69" x2="737.13" y2="-838.78" xlink:href="#linear-gradient"/>
    <linearGradient id="linear-gradient-12" x1="-1888.97" y1="1318.38" x2="478.41" y2="-471.13" xlink:href="#linear-gradient"/>
    <linearGradient id="linear-gradient-13" x1="-1284.3" y1="820.32" x2="1176.22" y2="-982.86" xlink:href="#linear-gradient"/>
    <linearGradient id="linear-gradient-14" x1="-2122.68" y1="1574.17" x2="990.8" y2="-950.7" xlink:href="#linear-gradient"/>
    <linearGradient id="linear-gradient-15" x1="-726.84" y1="389.51" x2="414.04" y2="-405.38" xlink:href="#linear-gradient"/>
    <linearGradient id="linear-gradient-16" x1="-1523.23" y1="1092.2" x2="991.35" y2="-994.33" xlink:href="#linear-gradient"/>
    <linearGradient id="linear-gradient-17" x1="-1005.17" y1="647.33" x2="592.57" y2="-666.06" xlink:href="#linear-gradient"/>
    <linearGradient id="linear-gradient-18" x1="-1547.67" y1="1116.26" x2="23.88" y2="-163.21" xlink:href="#linear-gradient"/>
    <linearGradient id="linear-gradient-19" x1="-1699.25" y1="1332.26" x2="845.42" y2="-968.52" xlink:href="#linear-gradient"/>
    <linearGradient id="linear-gradient-20" x1="-1840.38" y1="1322.4" x2="503.24" y2="-548.52" xlink:href="#linear-gradient"/>
    <linearGradient id="linear-gradient-21" x1="-862.58" y1="548.6" x2="196.02" y2="-395.04" xlink:href="#linear-gradient"/>
    <linearGradient id="linear-gradient-22" x1="-1287.28" y1="894.7" x2="77.37" y2="-240.15" xlink:href="#linear-gradient"/>
  </defs>
  <!-- Generator: Adobe Illustrator 28.6.0, SVG Export Plug-In . SVG Version: 1.2.0 Build 709)  -->
  <g>
    <g id="Layer_1">
      <path class="cls-9" d="M65.37,7.72c3.97-2.79,3.82-4.07-.79-6.24-3.63-1.73-4.64-1.87-5.62-.8-.6.63-.64,1.18-.42,4.22.3,4.18.37,4.4,1.72,4.96,1.24.52,1.58.36,5.09-2.13h0Z"/>
      <path class="cls-8" d="M44.59,12.13c.34-.33.68-11.82.37-11.82-.11,0-2.55,1.25-5.4,2.72-2.85,1.47-5.17,2.83-5.13,3.01.08.52,9.88,6.39,10.15,6.09h0Z"/>
      <path class="cls-7" d="M36.05,20.86c.15-.11-1.31-2.46-3.22-5.21l-3.48-4.99-2.69,5.54c-1.51,3.04-2.63,5.58-2.56,5.65.23.22,11.61-.69,11.94-.99h0Z"/>
      <path class="cls-6" d="M41.51,17.7c1.5-1.54,2.55-2.94,2.4-3.08-.3-.25-6.48-1.84-7.23-1.84-.19,0-.37.11-.37.25,0,.47,2.02,6.9,2.24,7.19.15.14,1.46-.99,2.96-2.53h0Z"/>
      <path class="cls-3" d="M62.75,13.48c-.86.91-.86,2.79-.04,3.71,1.53,1.65,4.68.44,4.68-1.84s-3.14-3.52-4.64-1.87Z"/>
      <path class="cls-4" d="M75.55,20.86c1.31,0,1.84-.22,2.74-1.07.9-.88,1.08-1.4,1.08-2.79,0-1.47-.19-1.91-1.16-2.79-1.72-1.54-3.71-1.51-5.43.19-2.62,2.57-.97,6.42,2.77,6.46h0Z"/>
      <path class="cls-2" d="M50.99,18.62c-.15-.14-1.24-.85-2.4-1.58l-2.17-1.36v5.54l2.43-1.18c1.35-.66,2.29-1.29,2.13-1.43Z"/>
      <path class="cls-1" d="M57.66,18.88c0-2.72-.53-3.05-2.74-1.62-.97.63-1.76,1.32-1.76,1.62,0,.58,2.63,1.98,3.74,1.98.68,0,.75-.22.75-1.98h0Z"/>
      <path class="cls-5" d="M40.32,22.56c-.23.25,2.35,4.18,2.74,4.18.23,0,2.24-3.85,2.24-4.22,0-.25-4.72-.22-4.98.03Z"/>
      <path class="cls-10" d="M63.24,25.16c.45-.69.71-1.54.56-1.84-.42-1.07-3.14-1.32-3.93-.41-.42.47-.37.8.23,1.91,1.01,1.84,2.1,1.95,3.14.33h0Z"/>
      <path class="cls-11" d="M30.76,27.65c-.15.11,6.82,3.85,7.19,3.85.34,0,.26-7.63-.08-7.85-.15-.08-1.8.74-3.63,1.87-1.87,1.1-3.41,2.06-3.48,2.13Z"/>
      <path class="cls-12" d="M69.83,25.27c-.9,0-1.46.25-2.02.96-.9,1.1-.97,1.69-.37,2.83.6,1.1,1.05,1.36,2.47,1.36,1.27,0,2.74-1.36,2.74-2.57s-1.47-2.57-2.81-2.57h0Z"/>
      <path class="cls-13" d="M44.36,30.08l-1.19-2.39-1.53,2.39-1.53,2.35,1.5.11c.82.08,2.06.08,2.74,0l1.27-.11-1.24-2.35h0Z"/>
      <path class="cls-15" d="M61.18,33.63c2.77.33,3.59-.8,2.06-2.9-1.01-1.4-2.02-1.36-2.77.08-.86,1.62-.6,2.68.71,2.83h0Z"/>
      <path class="cls-19" d="M24.32,33.9c0,.11,1.31,2.61,2.88,5.51,2.06,3.74,3,5.14,3.22,4.77.15-.3.26-.66.26-.77-.03-.14.11-.36.34-.47.45-.3,5.77-8.51,5.58-8.67-.26-.22-12.28-.58-12.28-.36Z"/>
      <path class="cls-20" d="M47.43,33.71s0,1.02.03,2.28c.08,1.29.26,2.46.45,2.64.19.14,1.24-.33,2.36-1.14l2.06-1.47-2.4-1.14c-1.31-.66-2.43-1.18-2.51-1.18h0Z"/>
      <path class="cls-21" d="M44.77,40.21c.08-.08-1.19-1.43-2.85-3.01-2.02-1.98-3.03-2.72-3.14-2.35-.6,1.58-1.98,7.67-1.76,7.67.34,0,7.64-2.17,7.75-2.31h0Z"/>
      <path class="cls-22" d="M78.14,35.18c-1.5-.91-2.74-.91-4.24-.03-2.92,1.76-2.4,6.06.94,7.05,4.35,1.29,7.15-4.7,3.29-7.01Z"/>
      <path class="cls-14" d="M57.58,35.18c-.26.03-1.27.44-2.24.96-1.01.47-1.8,1.1-1.8,1.4,0,.58,3.67,2.86,4.16,2.57.53-.33.42-4.92-.11-4.92h0Z"/>
      <path class="cls-17" d="M67.95,41.02c.45-1.76-1.98-3.6-3.82-2.9-1.69.66-2.06,2.64-.82,4.18,1.39,1.69,4.12.96,4.64-1.29Z"/>
      <path class="cls-16" d="M40.99,45.9c-2.69,1.8-4.9,3.41-4.98,3.56-.11.3,10.67,5.4,10.94,5.14.19-.19-.75-11.67-.93-11.86-.08-.08-2.32,1.32-5.02,3.16Z"/>
      <path class="cls-18" d="M65.41,47.66c-2.43-1.36-3.41-1.4-4.79-.03-1.01.99-1.08,1.29-1.08,3.71,0,2.28.11,2.72.94,3.49.48.52,1.35.91,1.87.91,1.27,0,5.32-2.02,5.8-2.9,1.01-1.91.15-3.56-2.74-5.18h0Z"/>
      <path d="M113.16,17.14h3.79v19.97h-3.79v-19.97ZM139.14,37.89l-14.58-13.17,1.13.63.08,11.76h-3.84v-20h.16l14.27,13.12-.84-.37-.08-11.99h3.82v20.02h-.11ZM154.47,22.53c-.73-.4-1.48-.73-2.24-.99-.75-.26-1.46-.4-2.12-.4-.82,0-1.46.17-1.93.5-.47.33-.71.82-.71,1.49,0,.45.18.87.52,1.23.37.34.82.66,1.39.94.57.28,1.17.53,1.77.76.55.21,1.11.46,1.65.76.55.28,1.05.64,1.49,1.08.44.42.78.95,1.04,1.6.26.63.4,1.4.4,2.33,0,.98-.25,1.88-.76,2.71-.5.84-1.24,1.51-2.22,2.04-.98.5-2.18.76-3.61.76-.73,0-1.48-.07-2.24-.21-.75-.16-1.49-.39-2.22-.68-.73-.31-1.44-.71-2.12-1.18l1.67-2.95c.45.33.94.63,1.46.89.54.24,1.09.44,1.62.57.54.14,1.03.21,1.49.21s.91-.06,1.36-.18c.47-.14.86-.37,1.15-.68.31-.31.47-.75.47-1.3,0-.39-.13-.73-.39-1.04-.24-.31-.58-.61-1.02-.87-.42-.26-.88-.49-1.39-.68-.59-.23-1.2-.49-1.83-.78-.63-.29-1.22-.66-1.77-1.08-.54-.44-.98-.97-1.34-1.6-.33-.65-.5-1.43-.5-2.35,0-1.12.24-2.08.73-2.9.5-.82,1.21-1.46,2.12-1.93.91-.49,1.95-.76,3.14-.81,1.55,0,2.81.18,3.77.55.98.37,1.85.8,2.61,1.3l-1.44,2.9h0ZM159.44,17.87h3.79v19.24h-3.79v-19.24ZM183.8,35.18c-.23.24-.58.5-1.07.76-.49.24-1.05.47-1.7.68-.63.21-1.27.38-1.93.5-.66.14-1.29.21-1.88.21-1.57,0-2.98-.23-4.24-.68-1.25-.47-2.33-1.12-3.22-1.93-.89-.84-1.57-1.82-2.04-2.95-.47-1.13-.71-2.37-.71-3.72,0-1.76.26-3.29.78-4.57.54-1.3,1.26-2.39,2.17-3.24.92-.87,1.98-1.51,3.16-1.93,1.2-.42,2.45-.63,3.77-.63,1.24,0,2.37.14,3.4.42,1.03.26,1.9.59,2.61.99l-1.23,3.53c-.31-.18-.73-.34-1.25-.52-.52-.18-1.05-.31-1.6-.42-.54-.13-1.02-.18-1.44-.18-1.04,0-1.97.13-2.77.4-.8.26-1.48.66-2.04,1.18-.54.52-.95,1.18-1.23,1.96-.28.76-.42,1.66-.42,2.69,0,.91.16,1.72.47,2.45.31.71.75,1.33,1.31,1.83.57.5,1.24.89,2.01,1.15.78.26,1.65.4,2.59.4.54,0,1.03-.03,1.49-.1.45-.08.84-.22,1.15-.4v-2.33h-3.32v-3.66h7.16v8.13h.02ZM204.29,17.87v19.24h-3.79v-7.82h-8.6v7.82h-3.79v-19.24h3.79v7.77h8.6v-7.77h3.79ZM207.94,17.87h12.97v3.66h-4.68v15.58h-3.79v-15.58h-4.5v-3.66ZM220.84,37.11l8.68-20h.21l8.68,20h-4.4l-5.54-14.06,2.75-1.88-6.64,15.95h-3.74ZM226.77,30.16h5.78l1.34,3.19h-8.29l1.18-3.19Z"/>
      <path d="M94.1,33.44v-2.88l8.57-13.41h2.43v4.1h-1.48l-5.77,9.05v.16h11.97v2.98h-15.72ZM103.74,37.15v-4.59l.04-1.29v-14.12h3.45v20h-3.49Z"/>
    </g>
  </g>
</svg>