<?xml version="1.0" encoding="UTF-8"?>
<svg xmlns="http://www.w3.org/2000/svg" version="1.1" viewBox="0 0 512 512">
  <defs>
    <style>
      .cls-1 {
        fill: #ffa100;
      }

      .cls-2 {
        fill: #e8b103;
      }

      .cls-3 {
        fill: #cebf7e;
      }

      .cls-4 {
        fill: #e0eaa4;
      }

      .cls-5 {
        fill: #ccce7e;
      }

      .cls-6 {
        fill: #f6c000;
      }

      .cls-7 {
        fill: #fff;
      }

      .cls-8 {
        fill: #00c99f;
      }

      .cls-9 {
        fill: #ff4d69;
      }

      .cls-10 {
        fill: #ffea92;
      }

      .cls-11 {
        fill: #fdffe9;
      }
    </style>
  </defs>
  <!-- Generator: Adobe Illustrator 28.6.0, SVG Export Plug-In . SVG Version: 1.2.0 Build 709)  -->
  <g>
    <g id="Layer_1">
      <g id="_12._Hourglass">
        <circle class="cls-11" cx="256" cy="274.6" r="232.7"/>
        <circle class="cls-1" cx="74.5" cy="18.6" r="14"/>
        <circle class="cls-9" cx="18.6" cy="432.9" r="14"/>
        <circle class="cls-1" cx="493.4" cy="493.4" r="14"/>
        <circle class="cls-8" cx="428.2" cy="279.3" r="14"/>
        <rect class="cls-2" x="102.4" y="88.4" width="307.2" height="37.2" rx="9.3" ry="9.3"/>
        <path class="cls-2" d="M382.2,470.1c-76.8,49.6-175.6,49.6-252.5,0h252.5Z"/>
        <path class="cls-10" d="M130.3,144.3h18.6v307.2h-18.6V144.3Z"/>
        <path class="cls-10" d="M363.1,144.3h18.6v307.2h-18.6V144.3Z"/>
        <path class="cls-4" d="M321.2,271.4l-46.5,26.5,46.5,26.5c11.5,6.7,18.6,19,18.6,32.3v94.8h-167.6v-94.8c0-13.3,7.1-25.6,18.6-32.3l46.5-26.5-46.5-26.5c-11.5-6.7-18.6-19-18.6-32.3v-94.8h167.6v94.8c0,13.3-7.1,25.6-18.6,32.3h0Z"/>
        <path class="cls-6" d="M121,125.7h270v9.3c0,5.1-4.2,9.3-9.3,9.3h-251.3c-5.1,0-9.3-4.2-9.3-9.3v-9.3h0Z"/>
        <path class="cls-6" d="M391,460.8v3.4c-2.8,2-5.8,4-8.8,6h-252.5c-3-1.9-5.9-3.9-8.8-6v-3.4c0-5.1,4.2-9.3,9.3-9.3h251.3c5.1,0,9.3,4.2,9.3,9.3Z"/>
        <g>
          <path class="cls-3" d="M97.7,363.1h-27.9c-2.6,0-4.7-2.1-4.7-4.7s2.1-4.7,4.7-4.7h27.9c2.6,0,4.7,2.1,4.7,4.7s-2.1,4.7-4.7,4.7Z"/>
          <path class="cls-3" d="M97.7,325.8h-27.9c-2.6,0-4.7-2.1-4.7-4.7s2.1-4.7,4.7-4.7h27.9c2.6,0,4.7,2.1,4.7,4.7s-2.1,4.7-4.7,4.7Z"/>
          <path class="cls-3" d="M97.7,344.4H18.6c-2.6,0-4.7-2.1-4.7-4.7s2.1-4.7,4.7-4.7h79.1c2.6,0,4.7,2.1,4.7,4.7s-2.1,4.7-4.7,4.7Z"/>
          <path class="cls-3" d="M446.8,237.4h-27.9c-2.6,0-4.7-2.1-4.7-4.7s2.1-4.7,4.7-4.7h27.9c2.6,0,4.7,2.1,4.7,4.7s-2.1,4.7-4.7,4.7Z"/>
          <path class="cls-3" d="M446.8,200.1h-27.9c-2.6,0-4.7-2.1-4.7-4.7s2.1-4.7,4.7-4.7h27.9c2.6,0,4.7,2.1,4.7,4.7s-2.1,4.7-4.7,4.7Z"/>
          <path class="cls-3" d="M484.1,218.8h-65.2c-2.6,0-4.7-2.1-4.7-4.7s2.1-4.7,4.7-4.7h65.2c2.6,0,4.7,2.1,4.7,4.7s-2.1,4.7-4.7,4.7Z"/>
          <path class="cls-5" d="M316.5,204.8v33.6c0,5.1-2.8,9.9-7.4,12.3l-53.2,28.6-53.2-28.6c-4.5-2.4-7.3-7.2-7.4-12.3v-42.9c0-5.1,4.2-9.3,9.3-9.3h22.5c26,0,31.3,9.3,57.3,9.3h22.5c5.1,0,9.3,4.2,9.3,9.3Z"/>
          <path class="cls-5" d="M195.5,451.5v-26.1c0-6.8,3.8-13.1,9.8-16.4l41.9-22.6c5.5-3,12.2-3,17.7,0l41.9,22.6c6,3.3,9.8,9.5,9.8,16.4v26.1h-121Z"/>
        </g>
        <circle class="cls-6" cx="414.3" cy="83.8" r="79.1"/>
        <path class="cls-7" d="M437.5,116.4c-2.5,0-4.8-1-6.6-2.7l-23.3-23.3c-1.7-1.7-2.7-4.1-2.7-6.6v-46.5c0-5.1,4.2-9.3,9.3-9.3s9.3,4.2,9.3,9.3v42.7l20.5,20.6c3.6,3.6,3.6,9.5,0,13.2-1.7,1.7-4.1,2.7-6.5,2.7Z"/>
      </g>
    </g>
  </g>
</svg>