<svg width="24" height="24" viewBox="0 0 24 24" fill="none" xmlns="http://www.w3.org/2000/svg">
<g clip-path="url(#clip0_489_132)">
<path d="M22.0482 5.44024C21.1486 5.8804 20.1472 6.37636 19.9672 6.49C19.8671 6.55312 19.7406 6.64024 19.5941 6.74116C19.2547 6.97492 18.7898 7.2952 18.2902 7.56376C17.5919 7.939 15.9556 8.19592 15.1798 8.2012C14.4632 8.206 12.8222 7.62028 12.7735 7.60276L12.7722 7.60228C12.7523 7.594 12.7324 7.5856 12.7126 7.5772C12.6644 7.5568 12.6146 7.53568 12.5646 7.51732C12.5522 7.51264 12.54 7.50796 12.5276 7.50316C12.505 7.4944 12.4823 7.48564 12.4592 7.47748L12.3538 7.44028C12.327 7.43056 12.2998 7.42192 12.2734 7.4134L12.2092 7.39276C12.186 7.38532 12.1627 7.37776 12.1392 7.37056C12.1154 7.3636 12.0917 7.3564 12.0679 7.34932C12.0208 7.33516 11.972 7.3204 11.9238 7.30744C11.6302 7.225 11.3357 7.15552 11.0485 7.10092C10.9182 7.07692 10.7632 7.05016 10.6016 7.03384C10.5152 7.02472 10.439 7.0228 10.368 7.02796C10.2941 7.03504 10.2179 7.04548 10.1416 7.05892C10.0292 7.07812 9.91668 7.10104 9.80772 7.123C9.77196 7.1302 9.7362 7.13752 9.70044 7.1446C9.58092 7.16872 9.423 7.19944 9.2628 7.2238C9.14292 7.2418 8.98488 7.2628 8.8272 7.2652C8.81304 7.26484 8.79876 7.26472 8.78448 7.2646C8.76252 7.26448 8.74056 7.26424 8.7198 7.26328L8.6664 7.2586C8.66028 7.258 8.65428 7.25752 8.64816 7.25704C8.63688 7.25608 8.62548 7.25524 8.61312 7.2532C8.54328 7.2436 8.46972 7.23208 8.39448 7.21888C8.24592 7.19272 8.1 7.16224 7.96068 7.12828C7.8012 7.08928 7.6626 7.0492 7.53696 7.006C7.4616 6.97984 7.39524 6.95416 7.33416 6.92716C7.2606 6.89464 7.2006 6.862 7.15164 6.82768L7.14456 6.82228C7.13352 6.814 7.12308 6.80608 7.11372 6.7972L7.08984 6.77356C7.08852 6.77212 7.08708 6.77044 7.08576 6.76876L7.08264 6.76492C7.0626 6.74068 7.04304 6.71284 7.02468 6.68236C6.99048 6.62512 6.96084 6.56152 6.93672 6.49324C6.8874 6.35296 6.86676 6.21148 6.87684 6.08416C6.87984 6.0472 6.885 6.0148 6.89244 5.98516C6.90084 5.95012 6.91116 5.92 6.92388 5.89288C6.93864 5.86048 6.95448 5.83384 6.97224 5.81104C6.993 5.7838 7.01436 5.76148 7.03752 5.74264C7.06296 5.7214 7.08996 5.70304 7.11876 5.68744C7.128 5.68192 7.13808 5.677 7.14876 5.67184C7.15368 5.66944 7.15872 5.66704 7.16208 5.66524C7.1676 5.66296 7.17324 5.66044 7.17876 5.65804C7.18884 5.6536 7.19892 5.64916 7.2102 5.6452C7.269 5.62264 7.33536 5.60416 7.41336 5.58892C7.55388 5.5612 7.7028 5.54836 7.8468 5.536L7.90776 5.53084C8.03604 5.52004 8.16876 5.50876 8.301 5.4862C8.45244 5.45884 8.60208 5.42908 8.74236 5.40076L8.8356 5.38204C8.9508 5.35876 9.06588 5.3356 9.18096 5.3134C9.25104 5.29996 9.32556 5.28592 9.39912 5.27392L9.41436 5.27152C9.4272 5.26948 9.44004 5.26744 9.453 5.26576L9.50628 5.2594C9.51072 5.2588 9.51456 5.25892 9.51852 5.25892C9.52188 5.25892 9.52536 5.25892 9.52932 5.25892C9.53616 5.2588 9.543 5.25868 9.5514 5.2594L9.56808 5.26048C9.57996 5.2612 9.59172 5.26192 9.60456 5.26336C9.66372 5.26888 9.72516 5.2768 9.78456 5.28448L9.85584 5.29372C9.91956 5.302 9.98328 5.31028 10.0474 5.31772C10.1892 5.33416 10.342 5.35 10.499 5.35504C10.5724 5.35684 10.6506 5.35816 10.7291 5.3524C10.7357 5.35192 10.7423 5.35144 10.7488 5.35108C10.7616 5.35036 10.7743 5.34952 10.7875 5.34796L10.8445 5.34052C10.8611 5.3386 10.8768 5.33596 10.8924 5.33332L11.3987 5.24908C11.6987 5.19772 11.992 5.14648 12.2814 5.08528C12.4379 5.05096 12.5788 5.01868 12.7193 4.97116C12.8227 4.93636 12.9253 4.89676 13.0247 4.85836C13.0632 4.84348 13.1017 4.8286 13.1404 4.81384C13.2631 4.76692 13.409 4.71316 13.5612 4.66924C13.7195 4.62292 13.8612 4.59772 13.9946 4.59208L13.9934 4.54552C13.8557 4.5466 13.7089 4.56736 13.5446 4.60924C13.3925 4.64848 13.242 4.6996 13.1148 4.74436C13.076 4.75792 13.0373 4.77172 12.9986 4.78552C12.9626 4.79836 12.9262 4.81144 12.8894 4.82428C12.9049 4.80796 12.9206 4.79056 12.9372 4.77172C12.9724 4.73092 13.0061 4.68916 13.0387 4.64884C13.0718 4.60792 13.103 4.56928 13.1359 4.53112C13.2116 4.44268 13.2791 4.37644 13.348 4.32256C13.3904 4.2892 13.4305 4.26172 13.4713 4.23796C13.4774 4.23412 13.4837 4.23076 13.4899 4.2274C13.4947 4.22488 13.4994 4.22224 13.5046 4.21936C13.5121 4.2148 13.5198 4.21096 13.5277 4.207L13.5382 4.20172C13.551 4.19488 13.5641 4.18876 13.5774 4.18264C13.588 4.17784 13.5985 4.17292 13.6091 4.16752L13.6993 4.12216L13.5983 4.12336C13.5452 4.12408 13.4893 4.1326 13.4322 4.1488C13.3812 4.16344 13.3303 4.1854 13.2763 4.21588C13.23 4.24228 13.1837 4.27528 13.1383 4.31428C13.1179 4.33228 13.0975 4.3516 13.0774 4.37176C13.0566 4.39336 13.0382 4.41328 13.0214 4.43284C12.9494 4.51672 12.8896 4.60828 12.8345 4.69492L12.8238 4.7116C12.7991 4.75048 12.7757 4.7872 12.7499 4.8226C12.7348 4.84336 12.7195 4.86208 12.7037 4.87912C12.7003 4.8826 12.6968 4.88596 12.6934 4.88932H12.6929C12.5555 4.93204 12.4164 4.96012 12.2618 4.98976C11.9557 5.04784 11.6462 5.0956 11.3803 5.13592L10.9374 5.20252L10.8734 5.21236C10.8582 5.21476 10.843 5.21704 10.828 5.2186L10.7744 5.22484C10.7634 5.22604 10.7521 5.22652 10.741 5.227C10.7342 5.22736 10.7275 5.2276 10.721 5.22808C10.648 5.2324 10.5734 5.23024 10.5036 5.2276C10.351 5.22064 10.1954 5.20216 10.0634 5.18512L9.80124 5.14948C9.7416 5.1412 9.6798 5.13268 9.618 5.12644C9.60432 5.12476 9.58992 5.1238 9.57564 5.12272L9.55956 5.12164C9.54888 5.12056 9.53736 5.12056 9.52596 5.12068C9.52272 5.12068 9.51936 5.12068 9.516 5.12068C9.5082 5.12068 9.50028 5.12068 9.4932 5.12152L9.43464 5.128C9.42048 5.12968 9.40668 5.13172 9.393 5.13388L9.3774 5.13616C9.3018 5.1478 9.22596 5.1616 9.15468 5.17456C9.0384 5.19604 8.92248 5.21848 8.80668 5.2408L8.7144 5.25856C8.6748 5.26612 8.6352 5.27368 8.59548 5.28136C8.49036 5.30152 8.38176 5.32252 8.27604 5.34124C8.15076 5.36236 8.01888 5.37316 7.89144 5.38348L7.82688 5.38876C7.6824 5.40088 7.53276 5.4136 7.38468 5.44216C7.29828 5.45884 7.22376 5.47936 7.15728 5.50468C7.14372 5.50948 7.13052 5.51512 7.1178 5.52064C7.11228 5.52304 7.10676 5.52544 7.0998 5.52844L7.08492 5.53564C7.07184 5.542 7.05828 5.54848 7.04568 5.55592C7.00932 5.57548 6.97416 5.59936 6.94128 5.62672C6.87576 5.68072 6.82248 5.75128 6.78744 5.8306C6.77088 5.86648 6.75768 5.9056 6.74712 5.94988C6.73788 5.98708 6.73176 6.02704 6.72816 6.07192C6.72204 6.14752 6.7254 6.22624 6.7386 6.31264C6.74436 6.34936 6.75216 6.3874 6.7626 6.4294C6.77376 6.47164 6.78516 6.50872 6.79728 6.54268C6.825 6.62032 6.85908 6.69292 6.89856 6.75856C6.92124 6.79576 6.9444 6.82852 6.9696 6.85888L6.9726 6.86248C6.975 6.86536 6.9774 6.86836 6.9804 6.8716L7.00416 6.89644L7.01556 6.90652C7.02984 6.91984 7.04472 6.93088 7.05912 6.94168L7.0662 6.94696C7.12488 6.98788 7.19136 7.02412 7.27536 7.06108C7.33932 7.08928 7.40964 7.11616 7.49052 7.14328C7.60044 7.18012 7.7196 7.21444 7.8528 7.24756C7.8252 7.25056 7.79832 7.2538 7.77216 7.25728C7.69236 7.26796 7.63092 7.27912 7.57296 7.29376L7.548 7.30024C7.54224 7.30192 7.5366 7.30384 7.53084 7.30576L7.5234 7.30828C7.50648 7.31308 7.49028 7.32076 7.47456 7.3282L7.46904 7.33096C7.43688 7.34956 7.40796 7.36984 7.38216 7.38796C7.22076 7.5058 7.06284 7.63108 6.91008 7.75228C6.85884 7.79296 6.80772 7.83352 6.75636 7.87384L6.7464 7.88164C6.69888 7.91884 6.6498 7.95724 6.60108 7.99372C6.58824 8.00356 6.57528 8.01292 6.56208 8.02276C6.54972 8.03224 6.53712 8.0404 6.52416 8.04868C6.51324 8.05624 6.501 8.06332 6.48804 8.07076L6.48528 8.07232C6.47196 8.08012 6.4584 8.08792 6.44412 8.09536C6.36168 8.13964 6.27408 8.18164 6.18948 8.22232C6.1572 8.2378 6.1248 8.2534 6.09252 8.26912C5.9838 8.32228 5.85768 8.38504 5.7378 8.45776C5.68536 8.48956 5.62392 8.52904 5.56596 8.58172L5.54508 8.60092L5.42376 8.72392C5.22756 8.9242 5.04492 9.10624 4.8654 9.28048C4.77492 9.36844 4.67832 9.46156 4.58004 9.54808L4.56492 9.56116C4.54596 9.5776 4.52652 9.59452 4.50672 9.60976L4.5036 9.61228C4.49244 9.62128 4.48176 9.6298 4.47096 9.63676L4.45272 9.64936C4.44948 9.65152 4.446 9.65344 4.44252 9.65524C4.43976 9.65668 4.43712 9.65812 4.43508 9.65932L4.39428 9.68008C4.38036 9.6868 4.36632 9.69352 4.35144 9.69976L4.26228 9.7372C4.13616 9.78796 4.00536 9.8314 3.89412 9.86716C3.74736 9.9136 3.62784 9.94612 3.51804 9.9694C3.45924 9.98164 3.39588 9.99304 3.33132 9.99388C3.2748 9.99424 3.20868 9.99232 3.14568 9.9748C3.13464 9.97216 3.12372 9.9682 3.1122 9.964L3.09384 9.95644C3.08328 9.95164 3.0732 9.9472 3.06276 9.94084C3.05208 9.93532 3.042 9.92836 3.0312 9.92092L3.02496 9.9166C3.02112 9.91384 3.01728 9.91084 3.01356 9.90772L3.00636 9.90208C3.00048 9.89764 2.99484 9.89296 2.98944 9.88792L2.98896 9.88744C2.9388 9.84316 2.89572 9.79024 2.8632 9.74812C2.85816 9.72892 2.83812 9.63064 2.92728 9.53848C2.96448 9.49996 3.09384 9.38764 3.25764 9.24556C3.57432 8.97064 4.053 8.55532 4.38396 8.22496C4.8204 7.78936 5.6916 6.76012 6.0636 6.32068C6.12432 6.24892 6.17316 6.1912 6.20676 6.15196C6.34452 5.99056 7.25676 5.20624 8.0616 4.5142C8.68488 3.9784 9.22308 3.51556 9.29112 3.43708C9.31848 3.40552 9.34812 3.36556 9.38244 3.31936C9.54684 3.09808 9.79524 2.76364 10.2889 2.64232C10.66 2.55088 11.7019 2.70064 12.6215 2.83228C13.2132 2.91712 13.7722 2.99716 14.1407 3.01516C14.3866 3.02716 14.6824 3.05272 14.9956 3.07972C15.8184 3.15064 16.826 3.2374 17.4695 3.11896C17.5271 3.1084 17.5817 3.09616 17.633 3.08212C17.9431 2.99728 18.5834 2.74 19.2647 2.45044C17.2478 0.914683 14.7305 0.00256348 12 0.00256348C5.37264 0.00256348 0 5.3752 0 12.0026C0 14.4246 0.71772 16.679 1.9518 18.5649C2.85144 18.1247 3.85284 17.6288 4.03284 17.5151C4.13292 17.452 4.2594 17.3649 4.40592 17.264C4.74528 17.0302 5.21016 16.7099 5.70984 16.4414C6.40812 16.0661 8.04444 15.8092 8.82024 15.8039C9.53676 15.7991 11.1778 16.3848 11.2265 16.4024L11.2278 16.4028C11.2477 16.4111 11.2676 16.4195 11.2874 16.4279C11.3356 16.4483 11.3854 16.4694 11.4354 16.4878C11.4478 16.4925 11.46 16.4972 11.4724 16.502C11.495 16.5107 11.5177 16.5195 11.5408 16.5276L11.6462 16.5648C11.673 16.5746 11.7002 16.5832 11.7266 16.5917L11.7908 16.6124C11.814 16.6198 11.8373 16.6274 11.8608 16.6346C11.8846 16.6415 11.9083 16.6487 11.9321 16.6558C11.9792 16.67 12.028 16.6847 12.0762 16.6977C12.3698 16.7801 12.6643 16.8496 12.9515 16.9042C13.0818 16.9282 13.2368 16.955 13.3984 16.9713C13.4848 16.9804 13.561 16.9823 13.632 16.9772C13.7059 16.9701 13.7821 16.9596 13.8584 16.9462C13.9708 16.927 14.0833 16.9041 14.1923 16.8821C14.228 16.8749 14.2638 16.8676 14.2996 16.8605C14.4191 16.8364 14.577 16.8057 14.7372 16.7813C14.8572 16.7633 15.0151 16.7423 15.1728 16.7399C15.187 16.7403 15.2012 16.7404 15.2155 16.7405C15.2375 16.7406 15.2594 16.7409 15.2802 16.7418L15.3336 16.7465C15.3397 16.7471 15.3457 16.7476 15.3518 16.7481C15.3632 16.749 15.3745 16.7499 15.3869 16.7519C15.4567 16.7615 15.5303 16.773 15.6055 16.7862C15.7541 16.8124 15.9 16.8429 16.0393 16.8768C16.1988 16.9158 16.3374 16.9559 16.463 16.9991C16.5384 17.0253 16.6048 17.051 16.6658 17.078C16.7394 17.1105 16.7994 17.1431 16.8484 17.1774L16.8554 17.1828C16.8665 17.1911 16.8768 17.199 16.8863 17.2079L16.9102 17.2316C16.9115 17.233 16.9129 17.2347 16.9142 17.2364L16.9174 17.2402C16.9374 17.2644 16.957 17.2923 16.9753 17.3228C17.0095 17.38 17.0392 17.4436 17.0633 17.5119C17.1126 17.652 17.1332 17.7936 17.1232 17.921C17.1202 17.9579 17.115 17.9903 17.1076 18.02C17.0992 18.055 17.0888 18.0851 17.0761 18.1122C17.0614 18.1446 17.0455 18.1713 17.0278 18.1941C17.007 18.2213 16.9856 18.2436 16.9625 18.2625C16.937 18.2837 16.91 18.3021 16.8812 18.3177C16.872 18.3232 16.8619 18.3281 16.8512 18.3333C16.8463 18.3357 16.8413 18.3381 16.8379 18.3399C16.8324 18.3422 16.8268 18.3446 16.8212 18.3471C16.8112 18.3515 16.8011 18.356 16.7898 18.3599C16.731 18.3825 16.6646 18.401 16.5866 18.4162C16.4461 18.4439 16.2972 18.4568 16.1532 18.4691L16.0922 18.4743C15.964 18.4851 15.8312 18.4964 15.699 18.5189C15.5476 18.5463 15.3979 18.576 15.2576 18.6044L15.1644 18.6231C15.0492 18.6464 14.9341 18.6695 14.819 18.6917C14.749 18.7052 14.6744 18.7192 14.6009 18.7312L14.5856 18.7336C14.5728 18.7356 14.56 18.7377 14.547 18.7394L14.4937 18.7457C14.4893 18.7463 14.4854 18.7462 14.4815 18.7462C14.4781 18.7462 14.4746 18.7462 14.4707 18.7462C14.4638 18.7463 14.457 18.7464 14.4486 18.7457L14.4319 18.7446C14.42 18.7439 14.4083 18.7432 14.3954 18.7418C14.3363 18.7362 14.2748 18.7283 14.2154 18.7206L14.1442 18.7114C14.0804 18.7031 14.0166 18.6948 13.9526 18.6874C13.8108 18.671 13.658 18.6551 13.501 18.6501C13.4276 18.6483 13.3494 18.647 13.2709 18.6527C13.2643 18.6532 13.2577 18.6537 13.2512 18.654C13.2384 18.6548 13.2257 18.6556 13.2125 18.6572L13.1555 18.6646C13.1389 18.6665 13.1232 18.6692 13.1076 18.6718L12.6013 18.756C12.3013 18.8074 12.008 18.8586 11.7186 18.9198C11.5621 18.9542 11.4212 18.9864 11.2807 19.034C11.1773 19.0688 11.0747 19.1084 10.9753 19.1468C10.9368 19.1616 10.8983 19.1765 10.8596 19.1913C10.7369 19.2382 10.591 19.292 10.4388 19.3359C10.2805 19.3822 10.1388 19.4074 10.0054 19.413L10.0066 19.4596C10.1443 19.4585 10.2911 19.4376 10.4554 19.3958C10.6075 19.3565 10.758 19.3054 10.8852 19.2606C10.924 19.2471 10.9627 19.2333 11.0014 19.2195C11.0374 19.2066 11.0738 19.1936 11.1106 19.1807C11.0951 19.197 11.0794 19.2144 11.0628 19.2333C11.0276 19.2741 10.9939 19.3158 10.9613 19.356C10.9282 19.397 10.897 19.4356 10.8641 19.4738C10.7884 19.5621 10.7209 19.6284 10.652 19.6823C10.6096 19.7157 10.5695 19.7432 10.5287 19.7669C10.5227 19.7708 10.5163 19.7741 10.5101 19.7775C10.5053 19.78 10.5006 19.7826 10.4954 19.7855C10.4879 19.7901 10.4802 19.7939 10.4723 19.7979L10.4618 19.8032C10.449 19.81 10.4359 19.8161 10.4226 19.8222C10.412 19.827 10.4015 19.832 10.3909 19.8374L10.3007 19.8827L10.4017 19.8815C10.4548 19.8808 10.5107 19.8723 10.5678 19.8561C10.6188 19.8414 10.6697 19.8195 10.7237 19.789C10.77 19.7627 10.8163 19.7296 10.8617 19.6906C10.8821 19.6726 10.9025 19.6533 10.9226 19.6331C10.9434 19.6115 10.9618 19.5916 10.9786 19.572C11.0506 19.4882 11.1104 19.3966 11.1655 19.31L11.1762 19.2933C11.2009 19.2544 11.2243 19.2177 11.2501 19.1823C11.2652 19.1615 11.2805 19.1428 11.2963 19.1258C11.2997 19.1223 11.3032 19.1189 11.3066 19.1156H11.3071C11.4445 19.0728 11.5836 19.0448 11.7382 19.0151C12.0443 18.957 12.3538 18.9093 12.6197 18.869L13.0626 18.8024L13.1266 18.7925C13.1418 18.7901 13.157 18.7878 13.172 18.7863L13.2256 18.78C13.2366 18.7788 13.2479 18.7784 13.259 18.7779C13.2658 18.7775 13.2725 18.7773 13.279 18.7768C13.352 18.7725 13.4266 18.7746 13.4964 18.7773C13.649 18.7842 13.8046 18.8027 13.9366 18.8198L14.1988 18.8554C14.2584 18.8637 14.3202 18.8721 14.382 18.8784C14.3957 18.8801 14.4101 18.8811 14.4244 18.8822L14.4404 18.8832C14.4511 18.8843 14.4626 18.8843 14.474 18.8842C14.4773 18.8842 14.4806 18.8842 14.484 18.8842C14.4917 18.8842 14.4997 18.8842 14.5068 18.8834L14.5654 18.8769C14.5795 18.8752 14.5933 18.8732 14.607 18.871L14.6226 18.8687C14.6982 18.8571 14.774 18.8433 14.8453 18.8303C14.9616 18.8088 15.0775 18.7864 15.1933 18.7641L15.2856 18.7463C15.3252 18.7388 15.3648 18.7312 15.4045 18.7235C15.5096 18.7034 15.6182 18.6824 15.724 18.6636C15.8492 18.6425 15.9811 18.6317 16.1086 18.6214L16.1731 18.6161C16.3176 18.604 16.4672 18.5913 16.6153 18.5627C16.7017 18.546 16.7762 18.5255 16.8427 18.5002C16.8563 18.4954 16.8695 18.4898 16.8822 18.4842C16.8877 18.4818 16.8932 18.4794 16.9002 18.4764L16.9151 18.4692C16.9282 18.4629 16.9417 18.4564 16.9543 18.449C16.9907 18.4294 17.0258 18.4055 17.0587 18.3782C17.1242 18.3242 17.1775 18.2536 17.2126 18.1743C17.2291 18.1384 17.2423 18.0993 17.2529 18.055C17.2621 18.0178 17.2682 17.9778 17.2718 17.933C17.278 17.8574 17.2746 17.7788 17.2614 17.6922C17.2556 17.6555 17.2478 17.6175 17.2373 17.5755C17.2261 17.5332 17.2147 17.4962 17.2026 17.4622C17.1749 17.3846 17.1408 17.312 17.1013 17.2463C17.0786 17.2091 17.0555 17.1764 17.0304 17.146L17.0274 17.1424C17.025 17.1395 17.0226 17.1365 17.0196 17.1333L16.9958 17.1084L16.9844 17.0984C16.9702 17.085 16.9553 17.0739 16.9409 17.0632L16.9338 17.0579C16.8751 17.017 16.8086 16.9808 16.7246 16.9438C16.6607 16.9156 16.5904 16.8887 16.5095 16.8616C16.3996 16.8248 16.2804 16.7904 16.1472 16.7573C16.1748 16.7543 16.2017 16.7511 16.228 16.7475C16.3078 16.7368 16.3692 16.7256 16.4272 16.7111L16.4521 16.7046C16.4579 16.703 16.4635 16.701 16.4693 16.6991L16.4767 16.6966C16.4935 16.6918 16.5098 16.6841 16.5256 16.6767L16.5311 16.6739C16.5632 16.6553 16.5922 16.635 16.618 16.6169C16.7794 16.4991 16.9373 16.3738 17.09 16.2526C17.1413 16.2119 17.1924 16.1714 17.2438 16.131L17.2537 16.1232C17.3012 16.086 17.3503 16.0476 17.399 16.0112C17.412 16.0013 17.4248 15.992 17.438 15.9821C17.4504 15.9726 17.463 15.9645 17.476 15.9562C17.4869 15.9486 17.4991 15.9416 17.5121 15.9341L17.5148 15.9326C17.5282 15.9248 17.5417 15.917 17.556 15.9095C17.6384 15.8652 17.726 15.8232 17.8106 15.7826C17.8429 15.7671 17.8753 15.7515 17.9076 15.7358C18.0163 15.6826 18.1424 15.6198 18.2623 15.5471C18.3148 15.5153 18.3762 15.4758 18.4342 15.4232L18.455 15.404L18.5764 15.281C18.7726 15.0807 18.9552 14.8986 19.1347 14.7244C19.2252 14.6364 19.3218 14.5433 19.4201 14.4568L19.4352 14.4437C19.4542 14.4273 19.4736 14.4104 19.4934 14.3951L19.4965 14.3926C19.5077 14.3836 19.5184 14.3751 19.5292 14.3681L19.5474 14.3555C19.5506 14.3534 19.5541 14.3514 19.5577 14.3496C19.5604 14.3482 19.5631 14.3468 19.5652 14.3456L19.606 14.3248C19.6199 14.3181 19.6339 14.3114 19.6488 14.3051L19.738 14.2677C19.8641 14.2169 19.9949 14.1735 20.1061 14.1377C20.2529 14.0913 20.3724 14.0588 20.4822 14.0355C20.541 14.0232 20.6044 14.0118 20.6689 14.011C20.7254 14.0106 20.7916 14.0126 20.8546 14.0301C20.8656 14.0327 20.8765 14.0367 20.888 14.0409L20.9064 14.0484C20.917 14.0532 20.927 14.0577 20.9375 14.064C20.9482 14.0696 20.9582 14.0765 20.969 14.084L20.9753 14.0883C20.9791 14.091 20.983 14.0942 20.9867 14.0972L20.9939 14.1028C20.9998 14.1072 21.0054 14.1119 21.0108 14.117L21.0113 14.1174C21.0614 14.1617 21.1045 14.2146 21.137 14.2568C21.1421 14.276 21.1621 14.3742 21.073 14.4664C21.0358 14.5049 20.9064 14.6172 20.7426 14.7593C20.4259 15.0342 19.9472 15.4496 19.6163 15.7799C19.1798 16.2155 18.3086 17.2448 17.9366 17.6842C17.8759 17.756 17.8271 17.8137 17.7935 17.8529C17.6557 18.0143 16.7435 18.7986 15.9386 19.4907C15.3154 20.0265 14.7772 20.4893 14.7091 20.5678C14.6818 20.5994 14.6521 20.6393 14.6178 20.6855C14.4534 20.9068 14.205 21.2412 13.7113 21.3626C13.3403 21.454 12.2983 21.3042 11.3788 21.1726C10.787 21.0878 10.2281 21.0077 9.85956 20.9897C9.61368 20.9777 9.31788 20.9522 9.00468 20.9252C8.18184 20.8542 7.1742 20.7675 6.53076 20.8859C6.47316 20.8965 6.41856 20.9087 6.3672 20.9228C6.05724 21.0076 5.4168 21.2649 4.73556 21.5544C6.75204 23.0904 9.26952 24.0024 12 24.0024C18.6274 24.0024 24 18.6298 24 12.0024C24 9.58036 23.2823 7.32604 22.0482 5.44012V5.44024ZM4.3002 10.2147C3.83844 10.4392 3.1836 10.5214 3.0006 10.4561C2.81844 10.3912 2.67444 10.129 2.6808 10.0278C2.68548 9.95308 2.78208 9.847 2.83728 9.79468C2.86692 9.83896 2.90232 9.8878 2.94588 9.9328C2.97348 9.96076 3.00012 9.98284 3.02652 9.99964C3.03852 10.0082 3.05112 10.0148 3.06324 10.0211L3.08316 10.0308C3.09636 10.0367 3.10992 10.0427 3.1236 10.047C3.19164 10.0712 3.26268 10.0775 3.32952 10.0808C3.40224 10.0838 3.47424 10.0746 3.53532 10.0654C3.67776 10.042 3.81276 10.0077 3.92592 9.9772C3.9966 9.95836 4.06548 9.93712 4.11756 9.92068C4.13808 9.91432 4.15848 9.9076 4.17888 9.90076L4.24404 9.8788C4.26528 9.87148 4.2864 9.86416 4.30752 9.85636L4.40148 9.82024C4.41744 9.81412 4.4334 9.80704 4.44924 9.79996L4.4736 9.78916L4.4976 9.77704C4.50012 9.77572 4.50264 9.7744 4.50528 9.7732C4.51116 9.77032 4.51692 9.76732 4.52292 9.7636L4.54524 9.74896C4.56036 9.73948 4.57308 9.72964 4.58532 9.72016L4.58928 9.71716C4.61172 9.70048 4.6326 9.68296 4.653 9.66604L4.66908 9.65272C4.77192 9.5656 4.8678 9.47656 4.96512 9.38536C5.16576 9.19564 5.3622 8.9992 5.53068 8.82988L5.65068 8.70688L5.66724 8.69176C5.70444 8.65744 5.75136 8.62336 5.81508 8.58448C5.91648 8.52172 6.02712 8.46544 6.13416 8.41096L6.15684 8.39944C6.18876 8.38312 6.2208 8.36704 6.25296 8.35084C6.33744 8.30824 6.4248 8.26432 6.51024 8.21656C6.52524 8.2084 6.54024 8.19952 6.55488 8.19052L6.55764 8.18884C6.57144 8.18056 6.58572 8.17204 6.59952 8.1622C6.61404 8.15248 6.62928 8.14204 6.64272 8.13136L6.64608 8.12872C6.65856 8.11924 6.67104 8.10976 6.6828 8.10016C6.73164 8.06128 6.77976 8.0212 6.82632 7.98232L6.83676 7.97368C6.9594 7.8706 7.05252 7.79188 7.1388 7.7182L7.15332 7.70584C7.24692 7.62604 7.34376 7.54348 7.44084 7.46644C7.4652 7.44712 7.49112 7.42696 7.5144 7.4116L7.52256 7.40728C7.53252 7.402 7.54188 7.39696 7.55304 7.39312L7.56144 7.38976C7.56564 7.38808 7.56996 7.38628 7.5738 7.38496L7.5966 7.37764C7.65636 7.35892 7.71948 7.34536 7.78428 7.33204C7.85388 7.318 7.92408 7.3066 7.9776 7.2982C7.99248 7.2958 8.00724 7.29364 8.02212 7.29136L8.03292 7.2898C8.14368 7.31392 8.25756 7.33588 8.37132 7.35484C8.44836 7.36768 8.52372 7.37884 8.59464 7.38796C8.60808 7.39 8.622 7.39108 8.63544 7.39204C8.64144 7.39252 8.64744 7.39288 8.65368 7.39348L8.71248 7.39804C8.73936 7.39912 8.76636 7.399 8.7924 7.399C8.80428 7.399 8.81628 7.399 8.829 7.399C8.89692 7.39708 8.967 7.39204 9.04392 7.38352C9.0366 7.38724 9.0294 7.39096 9.0222 7.39456L8.96268 7.42468L8.92152 7.44376C8.86896 7.4686 8.81592 7.49116 8.7576 7.516L8.67384 7.54936C8.65596 7.55632 8.63796 7.56304 8.61996 7.56976L8.58972 7.58104C8.48796 7.61896 8.3796 7.65628 8.2488 7.69852L8.076 7.75504L8.0502 7.76368C8.00148 7.78 7.9512 7.79692 7.89936 7.82008C7.84248 7.8466 7.79364 7.8796 7.74648 7.91152L7.73484 7.91944C7.69056 7.95004 7.64712 7.98196 7.60512 8.01304L7.53588 8.0644C7.45704 8.12296 7.37556 8.18344 7.29468 8.24116C7.20252 8.30704 7.1028 8.37688 6.9984 8.44168C6.9438 8.47576 6.89388 8.5048 6.84516 8.53072C6.825 8.542 6.80352 8.55292 6.78288 8.56336L6.68664 8.61112C6.50052 8.70244 6.30564 8.78728 6.11724 8.86924L5.6958 9.05392L5.67924 9.06136C5.63004 9.08332 5.57916 9.10612 5.529 9.13036L5.487 9.151L5.44536 9.17296C5.43468 9.17872 5.42328 9.18592 5.41212 9.193L5.39892 9.2014C5.38356 9.21316 5.37048 9.22456 5.3598 9.23416C5.31756 9.2722 5.27736 9.31144 5.23848 9.34924L5.22636 9.36112C5.18292 9.4036 5.13984 9.44608 5.09712 9.48904C4.99848 9.5878 4.91676 9.6688 4.83972 9.74416C4.74756 9.83512 4.66212 9.91672 4.57836 9.99364C4.52736 10.0404 4.48452 10.078 4.44324 10.1121C4.3998 10.148 4.35312 10.1855 4.30056 10.2148L4.3002 10.2147ZM11.1845 7.39336C11.0428 7.35736 10.9492 7.3336 10.9026 7.33624C10.8085 7.34164 10.6534 7.44472 10.4892 7.55368C10.3828 7.62436 10.2727 7.69744 10.1837 7.73992C9.96432 7.84456 9.49296 7.97836 9.36072 8.00272C9.28056 8.01748 9.14628 8.10172 8.97636 8.2084C8.84976 8.28784 8.70624 8.37796 8.56788 8.4484C8.38188 8.54308 8.20176 8.60092 8.04276 8.65192C7.93512 8.68648 7.8336 8.719 7.7484 8.75776C7.67772 8.78992 7.55748 8.8672 7.41828 8.9566C7.15056 9.12856 6.78408 9.36412 6.56628 9.4042C6.32004 9.44956 6.04968 9.41032 5.9316 9.38824C5.93772 9.38512 5.94396 9.382 5.95032 9.379C5.9748 9.3664 6 9.35488 6.02592 9.343C6.07272 9.32128 6.12312 9.29884 6.17988 9.2746C6.30024 9.223 6.39936 9.18124 6.49188 9.14308C6.52884 9.12748 6.5658 9.11188 6.60288 9.0964C6.7716 9.02548 6.94608 8.95216 7.11564 8.8714C7.17156 8.84512 7.2222 8.81872 7.27056 8.791C7.28748 8.7814 7.3038 8.77108 7.32 8.76088C7.32828 8.75572 7.33644 8.75056 7.34544 8.74492L7.41732 8.6974C7.51392 8.63164 7.60776 8.5624 7.69476 8.49736C7.74828 8.4574 7.80108 8.4166 7.85388 8.37604C7.8906 8.34772 7.92732 8.3194 7.96416 8.29144C8.01372 8.25364 8.05764 8.221 8.09808 8.19196L8.10588 8.18656C8.1252 8.17312 8.14524 8.15908 8.1654 8.14672C8.17236 8.14192 8.17872 8.13856 8.18508 8.13532C8.18856 8.13352 8.19204 8.1316 8.19468 8.13016C8.2002 8.12728 8.20632 8.12524 8.21244 8.12308C8.21724 8.1214 8.22192 8.11972 8.2248 8.1184C8.26992 8.10388 8.32164 8.08888 8.3832 8.07244C8.4276 8.06044 8.47224 8.0488 8.517 8.03716L8.54628 8.0296C8.58336 8.02 8.62056 8.01052 8.65764 8.00092C8.73 7.98244 8.80236 7.96384 8.8746 7.94452C8.99556 7.912 9.10284 7.882 9.20268 7.8526C9.31368 7.81948 9.4224 7.78588 9.53076 7.73872C9.54036 7.73452 9.55008 7.72936 9.5598 7.7242C9.56424 7.7218 9.56868 7.71952 9.57264 7.71748C9.58632 7.71076 9.59748 7.70356 9.60828 7.6966L9.61284 7.6936C9.63216 7.68148 9.65088 7.66888 9.6696 7.6564L9.68484 7.6462C9.73212 7.6144 9.77892 7.58248 9.82524 7.5502L9.83556 7.543C9.92316 7.4824 10.0138 7.41988 10.105 7.36288C10.1615 7.327 10.2054 7.30204 10.2476 7.28176C10.2716 7.26988 10.2948 7.26172 10.3151 7.25752C10.338 7.2544 10.363 7.25224 10.3957 7.25056C10.454 7.2478 10.513 7.24852 10.563 7.2496C10.6183 7.25044 10.675 7.2526 10.7314 7.25572L10.736 7.2094C10.6436 7.19572 10.5215 7.1794 10.3949 7.1752C10.3668 7.17448 10.3366 7.17424 10.3049 7.17676C10.2751 7.1806 10.2448 7.189 10.2126 7.20232C10.1527 7.22644 10.097 7.25584 10.0552 7.27888C9.96396 7.32928 9.87468 7.38448 9.7884 7.438L9.61872 7.54396L9.60276 7.5538C9.58428 7.5652 9.56592 7.57648 9.54732 7.5874L9.54312 7.58992C9.53292 7.59604 9.52332 7.60168 9.51408 7.60564C9.5094 7.6078 9.50484 7.60996 9.50028 7.61224C9.49368 7.61548 9.4872 7.61872 9.48012 7.62148C9.43572 7.639 9.38508 7.65616 9.32556 7.67404L9.24552 7.6978L9.16464 7.72036C9.0648 7.74736 8.958 7.77472 8.838 7.80424L8.48004 7.89352C8.4348 7.90492 8.38956 7.91632 8.34432 7.9282C8.28312 7.94416 8.23128 7.95832 8.17524 7.97632C8.17056 7.97824 8.16576 7.97992 8.16108 7.98172C8.1504 7.98568 8.13948 7.98964 8.12772 7.99564L8.11908 8.00032C8.10696 8.0068 8.09436 8.01364 8.08488 8.02024C8.06172 8.03476 8.04036 8.04988 8.01972 8.06452L8.01072 8.07088C7.96848 8.10172 7.92492 8.1346 7.87344 8.17432L7.6062 8.38276C7.52196 8.44864 7.43112 8.51872 7.33848 8.58472L7.27044 8.63188L7.24416 8.64904C7.22976 8.65852 7.21548 8.66788 7.20108 8.67688C7.15728 8.70424 7.10916 8.73136 7.05804 8.75776C6.98112 8.79808 6.90108 8.83696 6.82356 8.87464L6.45096 9.05488L6.42312 9.06856C6.33228 9.1132 6.23832 9.1594 6.14688 9.20716L6.14376 9.20872C6.04848 9.25888 5.94996 9.31072 5.8596 9.37372L5.8584 9.37348L5.8494 9.38104C5.84364 9.38584 5.27316 9.8608 4.9824 10.0244C4.79208 10.1314 4.56048 10.1792 4.4244 10.1992C4.44396 10.1867 4.46244 10.174 4.47996 10.1619C4.53456 10.1232 4.58676 10.0824 4.62612 10.0512C4.72044 9.97624 4.81188 9.89716 4.905 9.8158C4.99212 9.73876 5.07936 9.65932 5.16372 9.58252L5.175 9.57232C5.205 9.5452 5.23476 9.51784 5.26464 9.49036C5.32272 9.43696 5.3826 9.38164 5.44224 9.331C5.45352 9.32152 5.46372 9.31348 5.4726 9.30712L5.49444 9.29464C5.49756 9.29284 5.50056 9.29104 5.50512 9.289L5.54388 9.27016L5.58456 9.25192C5.63352 9.23008 5.68584 9.2074 5.74944 9.18076L6.08424 9.0418C6.18708 8.9992 6.29664 8.9524 6.41904 8.89888C6.52536 8.8522 6.63936 8.80156 6.75144 8.7472C6.77628 8.73544 6.80256 8.72224 6.83412 8.7058L6.85008 8.69752C6.8718 8.68636 6.89424 8.67484 6.91584 8.66248C6.9666 8.635 7.01904 8.60404 7.07604 8.56792C7.1754 8.50504 7.27452 8.43676 7.37904 8.35912C7.46004 8.29888 7.54068 8.23636 7.61868 8.176L7.66812 8.13772C7.719 8.09848 7.76484 8.06332 7.81128 8.02948L7.81512 8.02672C7.86048 7.9936 7.90752 7.9594 7.9536 7.93636C7.9974 7.915 8.04804 7.89604 8.097 7.87768L8.11548 7.87072C8.13792 7.86232 8.16048 7.85416 8.18304 7.84588C8.21724 7.8334 8.25156 7.8208 8.28564 7.80784C8.37888 7.7728 8.50176 7.72564 8.62512 7.6726C8.7546 7.6162 8.85936 7.5652 8.95488 7.51192L8.99544 7.48948L9.05496 7.45372C9.07416 7.4422 9.09408 7.43032 9.11316 7.41712C9.12192 7.41112 9.1308 7.40512 9.13968 7.39924C9.15576 7.38856 9.17244 7.3774 9.18852 7.3654C9.2196 7.36084 9.2508 7.35592 9.28176 7.35088C9.46368 7.32088 9.64572 7.28164 9.82176 7.2436C9.933 7.2196 10.0481 7.19476 10.1611 7.17268C10.2341 7.15828 10.3069 7.14688 10.377 7.13884C10.441 7.13296 10.5109 7.13344 10.5911 7.14052C10.7393 7.15252 10.89 7.17508 11.0308 7.19776C11.3166 7.24432 11.6102 7.30564 11.9039 7.3798C11.952 7.39144 12.0007 7.40476 12.0479 7.4176C12.0718 7.42408 12.0956 7.43068 12.1193 7.43692C12.1423 7.44328 12.1652 7.45 12.1882 7.45684L12.2489 7.4746C12.277 7.48276 12.3049 7.49092 12.333 7.50004L12.4397 7.53352C12.4624 7.5406 12.4849 7.5484 12.5074 7.5562C12.52 7.56052 12.5326 7.56496 12.5453 7.56928C12.5778 7.57984 12.6103 7.59172 12.6424 7.60384C12.0264 7.60816 11.5036 7.47544 11.1834 7.39408L11.1845 7.39336ZM14.8861 16.5886C14.8774 16.5946 14.8685 16.6006 14.8596 16.6065C14.8435 16.6172 14.8268 16.6283 14.8108 16.6402C14.7797 16.6448 14.7485 16.6497 14.7175 16.6547C14.5356 16.6847 14.3536 16.724 14.1775 16.762C14.0663 16.786 13.9512 16.8108 13.8382 16.8329C13.7652 16.8473 13.6924 16.8587 13.6223 16.8668C13.5583 16.8726 13.4884 16.8722 13.4082 16.8651C13.26 16.8531 13.1093 16.8305 12.9685 16.8078C12.6827 16.7613 12.389 16.7 12.0954 16.6258C12.0473 16.6142 11.9986 16.6008 11.9514 16.588C11.9275 16.5815 11.9036 16.5749 11.88 16.5687C11.857 16.5623 11.834 16.5556 11.8111 16.5488L11.7504 16.531C11.7223 16.5228 11.6944 16.5147 11.6663 16.5056L11.5596 16.4721C11.5369 16.465 11.5144 16.4572 11.4919 16.4494C11.4793 16.4451 11.4667 16.4406 11.454 16.4363C11.4215 16.4258 11.389 16.4139 11.3568 16.4018C11.9728 16.3974 12.4956 16.5302 12.8158 16.6115C12.9575 16.6475 13.0511 16.6713 13.0976 16.6686C13.1917 16.6632 13.3469 16.5602 13.511 16.4512C13.6175 16.3805 13.7275 16.3074 13.8166 16.265C14.0359 16.1603 14.5073 16.0265 14.6395 16.0022C14.7197 15.9874 14.854 15.9032 15.0239 15.7965C15.1505 15.717 15.294 15.6269 15.4324 15.5565C15.6184 15.4618 15.7985 15.404 15.9575 15.353C16.0651 15.3184 16.1668 15.2859 16.2518 15.2471C16.3225 15.215 16.4428 15.1377 16.582 15.0483C16.8497 14.8763 17.2162 14.6408 17.434 14.6007C17.6802 14.5553 17.9506 14.5946 18.0686 14.6166C18.0625 14.6198 18.0563 14.6229 18.0499 14.6259C18.0254 14.6385 18.0002 14.65 17.9743 14.6619C17.9275 14.6836 17.8771 14.706 17.8204 14.7303C17.7 14.7819 17.6009 14.8236 17.5084 14.8618C17.4714 14.8774 17.4344 14.893 17.3974 14.9085C17.2286 14.9794 17.0542 15.0527 16.8846 15.1335C16.8287 15.1598 16.778 15.1862 16.7297 15.2139C16.7128 15.2235 16.6966 15.2338 16.6802 15.244C16.672 15.2492 16.6638 15.2543 16.6548 15.26L16.5829 15.3075C16.4863 15.3732 16.3925 15.4425 16.3055 15.5075C16.252 15.5475 16.1992 15.5883 16.1464 15.6288C16.1096 15.6572 16.0729 15.6855 16.0361 15.7134C15.9865 15.7512 15.9426 15.7839 15.9022 15.8129L15.8944 15.8183C15.875 15.8318 15.855 15.8458 15.8348 15.8582C15.8279 15.863 15.8215 15.8663 15.8152 15.8696C15.8117 15.8714 15.8082 15.8733 15.8056 15.8747C15.8 15.8776 15.7939 15.8796 15.7878 15.8818C15.783 15.8835 15.7783 15.8852 15.7754 15.8865C15.7303 15.901 15.6786 15.916 15.617 15.9324C15.5726 15.9444 15.528 15.9561 15.4832 15.9677L15.454 15.9753C15.4169 15.9849 15.3797 15.9944 15.3426 16.004C15.2702 16.0224 15.1979 16.041 15.1256 16.0604C15.0047 16.0929 14.8974 16.1229 14.7976 16.1523C14.6866 16.1854 14.5778 16.219 14.4695 16.2662C14.4599 16.2704 14.4502 16.2755 14.4404 16.2807C14.436 16.2831 14.4316 16.2854 14.4276 16.2874C14.4139 16.2941 14.4028 16.3013 14.392 16.3083L14.3874 16.3113C14.3681 16.3234 14.3494 16.336 14.3306 16.3485L14.3154 16.3587C14.2681 16.3905 14.2213 16.4224 14.175 16.4547L14.1647 16.4619C14.0771 16.5225 13.9865 16.585 13.8953 16.642C13.8388 16.6779 13.7948 16.7028 13.7526 16.7231C13.7286 16.735 13.7054 16.7432 13.6852 16.7474C13.6622 16.7505 13.6373 16.7526 13.6045 16.7543C13.5462 16.7571 13.4873 16.7564 13.4372 16.7553C13.3819 16.7544 13.3253 16.7523 13.2689 16.7492L13.2642 16.7955C13.3566 16.8092 13.4788 16.8255 13.6054 16.8297C13.6334 16.8304 13.6637 16.8306 13.6954 16.8281C13.7251 16.8243 13.7555 16.8159 13.7876 16.8026C13.8475 16.7784 13.9032 16.749 13.9451 16.726C14.0363 16.6756 14.1256 16.6204 14.2118 16.5669L14.3815 16.4609L14.3975 16.4511C14.416 16.4397 14.4343 16.4284 14.4529 16.4175L14.4571 16.415C14.4673 16.4088 14.4769 16.4032 14.4862 16.3992C14.4908 16.3971 14.4954 16.3949 14.5 16.3926C14.5066 16.3894 14.513 16.3862 14.5201 16.3834C14.5645 16.3659 14.6152 16.3487 14.6747 16.3308L14.7547 16.3071L14.8356 16.2845C14.9354 16.2575 15.0422 16.2302 15.1622 16.2006L15.5202 16.1114C15.5654 16.1 15.6107 16.0886 15.6559 16.0767C15.7171 16.0607 15.769 16.0466 15.825 16.0286C15.8297 16.0266 15.8345 16.025 15.8392 16.0232C15.8498 16.0192 15.8608 16.0152 15.8725 16.0092L15.8812 16.0046C15.8933 15.9981 15.9059 15.9912 15.9154 15.9846C15.9385 15.9701 15.9599 15.955 15.9805 15.9404L15.9895 15.934C16.0318 15.9032 16.0753 15.8703 16.1268 15.8306L16.394 15.6221C16.4783 15.5562 16.5691 15.4862 16.6618 15.4202L16.7298 15.373L16.7561 15.3558C16.7705 15.3464 16.7848 15.337 16.7992 15.328C16.843 15.3006 16.8911 15.2735 16.9422 15.2471C17.0191 15.2068 17.0992 15.1679 17.1767 15.1302L17.5493 14.95L17.5771 14.9363C17.668 14.8917 17.7619 14.8455 17.8534 14.7977L17.8565 14.7962C17.9518 14.746 18.0503 14.6942 18.1406 14.6312L18.1418 14.6314L18.1508 14.6238C18.1566 14.619 18.7271 14.1441 19.0178 13.9805C19.2082 13.8735 19.4398 13.8257 19.5758 13.8057C19.5563 13.8182 19.5378 13.8309 19.5203 13.843C19.4657 13.8816 19.4135 13.9224 19.3741 13.9536C19.2798 14.0286 19.1884 14.1077 19.0952 14.1891C19.0081 14.2661 18.9209 14.3456 18.8365 14.4224L18.8252 14.4326C18.7952 14.4597 18.7655 14.487 18.7356 14.5145C18.6775 14.5679 18.6176 14.6232 18.558 14.6739C18.5467 14.6834 18.5365 14.6914 18.5276 14.6978L18.5058 14.7102C18.5027 14.712 18.4997 14.7138 18.4951 14.7159L18.4564 14.7347L18.4157 14.753C18.3667 14.7748 18.3144 14.7975 18.2508 14.8241L17.916 14.9631C17.8132 15.0057 17.7036 15.0525 17.5812 15.106C17.4749 15.1527 17.3609 15.2033 17.2488 15.2577C17.224 15.2694 17.1977 15.2826 17.1661 15.2991L17.1502 15.3074C17.1284 15.3185 17.106 15.33 17.0844 15.3424C17.0336 15.3699 16.9812 15.4008 16.9242 15.437C16.8248 15.4998 16.7257 15.5681 16.6212 15.6458C16.5402 15.706 16.4596 15.7685 16.3816 15.8289L16.3321 15.8672C16.2812 15.9064 16.2354 15.9416 16.189 15.9754L16.1851 15.9782C16.1398 16.0113 16.0927 16.0455 16.0466 16.0685C16.0028 16.0899 15.9522 16.1088 15.9032 16.1272L15.8848 16.1342C15.8623 16.1426 15.8398 16.1507 15.8172 16.159C15.783 16.1715 15.7487 16.1841 15.7146 16.197C15.6214 16.2321 15.4985 16.2792 15.3751 16.3323C15.2456 16.3887 15.1409 16.4397 15.0454 16.493L15.0048 16.5154L14.9453 16.5512C14.9261 16.5627 14.9062 16.5746 14.8871 16.5878L14.8861 16.5886ZM21.1627 14.2103C21.1331 14.166 21.0977 14.1172 21.0541 14.0722C21.0265 14.0442 20.9999 14.0222 20.9735 14.0054C20.9615 13.9968 20.9489 13.9902 20.9368 13.9838L20.9168 13.974C20.9036 13.9682 20.8901 13.9622 20.8764 13.9578C20.8084 13.9337 20.7373 13.9274 20.6705 13.9241C20.5978 13.9211 20.5258 13.9302 20.4647 13.9395C20.3222 13.9629 20.1872 13.9972 20.0741 14.0277C20.0034 14.0465 19.9345 14.0678 19.8824 14.0842C19.8619 14.0906 19.8415 14.0973 19.8211 14.1041L19.756 14.1261C19.7347 14.1334 19.7136 14.1407 19.6925 14.1485L19.5985 14.1846C19.5826 14.1908 19.5666 14.1978 19.5508 14.2049L19.5264 14.2157L19.5024 14.2278C19.4999 14.2292 19.4974 14.2305 19.4948 14.2317C19.489 14.2346 19.4832 14.2376 19.4772 14.2413L19.4549 14.2559C19.4398 14.2654 19.427 14.2752 19.4148 14.2847L19.4108 14.2877C19.3884 14.3044 19.3675 14.3219 19.3471 14.3388L19.331 14.3522C19.2282 14.4393 19.1323 14.5283 19.035 14.6195C18.8344 14.8092 18.6379 15.0057 18.4694 15.175L18.3494 15.298L18.3329 15.3131C18.2957 15.3474 18.2488 15.3815 18.185 15.4204C18.0836 15.4832 17.973 15.5394 17.866 15.5939L17.8433 15.6054C17.8114 15.6218 17.7793 15.6378 17.7472 15.654C17.6627 15.6966 17.5753 15.7406 17.4899 15.7883C17.4749 15.7965 17.4599 15.8054 17.4452 15.8144L17.4425 15.816C17.4287 15.8243 17.4144 15.8328 17.4006 15.8427C17.3861 15.8524 17.3708 15.8628 17.3574 15.8735L17.354 15.8762C17.3416 15.8856 17.3291 15.8951 17.3173 15.9047C17.2685 15.9436 17.2204 15.9837 17.1738 16.0226L17.1634 16.0312C17.0407 16.1343 16.9476 16.213 16.8613 16.2867L16.8468 16.299C16.7532 16.3788 16.6564 16.4614 16.5593 16.5384C16.5349 16.5578 16.509 16.5779 16.4857 16.5933L16.4776 16.5976C16.4676 16.6029 16.4582 16.6079 16.4471 16.6118L16.4387 16.6151C16.4345 16.6168 16.4302 16.6186 16.4263 16.6199L16.4035 16.6272C16.3438 16.646 16.2806 16.6595 16.2158 16.6728C16.1462 16.6869 16.076 16.6983 16.0225 16.7067C16.0076 16.7091 15.9929 16.7112 15.978 16.7135L15.9672 16.7151C15.8564 16.691 15.7426 16.669 15.6288 16.65C15.5518 16.6372 15.4764 16.626 15.4055 16.6169C15.392 16.6149 15.3781 16.6138 15.3647 16.6128C15.3587 16.6124 15.3527 16.6119 15.3464 16.6114L15.2876 16.6068C15.2608 16.6058 15.2338 16.6059 15.2077 16.6059C15.1958 16.6059 15.1838 16.6059 15.1711 16.6059C15.1032 16.6078 15.0331 16.6128 14.9562 16.6214C14.9635 16.6176 14.9707 16.6139 14.9779 16.6103L15.0374 16.5802L15.0786 16.5611C15.1312 16.5363 15.1842 16.5137 15.2425 16.4889L15.3263 16.4555C15.3442 16.4486 15.3622 16.4418 15.3802 16.4351L15.4104 16.4238C15.5122 16.3859 15.6205 16.3486 15.7513 16.3064L15.9241 16.2498L15.9499 16.2412C15.9986 16.2249 16.0489 16.208 16.1008 16.1848C16.1576 16.1583 16.2065 16.1253 16.2536 16.0934L16.2653 16.0854C16.3096 16.0548 16.353 16.0229 16.395 15.9918L16.4642 15.9405C16.5431 15.8819 16.6246 15.8214 16.7054 15.7637C16.7976 15.6978 16.8973 15.628 17.0017 15.5632C17.0563 15.5291 17.1062 15.5001 17.155 15.4742C17.1751 15.4629 17.1966 15.452 17.2172 15.4415L17.3135 15.3938C17.4996 15.3024 17.6945 15.2176 17.8829 15.1356L18.3043 14.951L18.3209 14.9435C18.3701 14.9216 18.421 14.8988 18.4711 14.8745L18.513 14.8539L18.5546 14.8319C18.5653 14.8262 18.5767 14.819 18.5879 14.8119L18.6011 14.8035C18.6164 14.7917 18.6295 14.7803 18.6402 14.7707C18.6824 14.7327 18.7226 14.6934 18.7615 14.6556L18.7736 14.6438C18.8171 14.6013 18.8602 14.5588 18.9029 14.5158C19.0015 14.4171 19.0832 14.3361 19.1603 14.2607C19.2523 14.1698 19.3379 14.0882 19.4216 14.0112C19.4726 13.9644 19.5155 13.9269 19.5568 13.8928C19.6002 13.8569 19.6469 13.8194 19.6994 13.7901C20.1612 13.5656 20.816 13.4834 20.999 13.5486C21.1812 13.6136 21.3252 13.8758 21.3188 13.9769C21.3142 14.0517 21.2176 14.1578 21.1624 14.2101L21.1627 14.2103Z" fill="#5CC9CA"/>
</g>
<defs>
<clipPath id="clip0_489_132">
<rect width="24" height="24" fill="white"/>
</clipPath>
</defs>
</svg>
