<svg width="60" height="60" viewBox="0 0 60 60" fill="none" xmlns="http://www.w3.org/2000/svg">
<path d="M34.5192 0H25.1616C21.0972 0 18.6744 2.4228 18.6744 6.4872V15.8328C18.6744 19.908 21.0972 22.3308 25.1616 22.3308H34.5072C38.5716 22.3308 40.9944 19.908 40.9944 15.8436V6.4872C41.0052 2.4228 38.5824 0 34.518 0H34.5192Z" fill="#3962C9"/>
<path d="M30.4992 7.6572V15.7932C30.4992 16.4148 29.994 16.92 29.3724 16.92C28.7508 16.92 28.236 16.4148 28.236 15.7932V7.6572C28.236 7.0356 28.7412 6.5304 29.3724 6.5304C30.0036 6.5304 30.4992 7.0356 30.4992 7.6572Z" fill="white"/>
<path d="M34.6644 6.04801V15.5376C34.6644 16.2624 34.1448 16.8516 33.504 16.8516C32.8632 16.8516 32.334 16.2624 32.334 15.5376V6.04801C32.334 5.32321 32.8536 4.73401 33.504 4.73401C34.1544 4.73401 34.6644 5.32321 34.6644 6.04801Z" fill="white"/>
<path d="M26.208 12.6276V15.7932C26.208 16.4148 25.7028 16.92 25.0716 16.92C24.4404 16.92 23.9448 16.4148 23.9448 15.7932V12.6276C23.9448 12.006 24.45 11.5008 25.0716 11.5008C25.6932 11.5008 26.208 12.006 26.208 12.6276Z" fill="white"/>
<path d="M53.5236 24.5448C53.0604 23.9352 52.2348 23.8212 51.2136 24.0228C51.0396 24.0576 50.862 24.0468 50.694 23.9892C49.8132 23.688 48.1308 23.6844 45.1668 25.4448C44.9544 25.5708 44.7072 25.6224 44.4636 25.584C43.8756 25.4904 42.9972 25.6176 41.7864 26.4456C40.3248 27.4824 38.676 28.7616 38.178 29.1516C38.0772 29.2296 37.9644 29.2896 37.8432 29.328L36.5964 29.7204C36.5388 29.7384 36.4812 29.7516 36.4212 29.76L35.316 29.9112C35.1888 29.928 35.0616 29.922 34.9368 29.8944C33.9948 29.6784 32.886 29.4828 31.7376 29.4072C28.662 29.2056 28.296 29.502 25.656 29.0136C23.016 28.524 19.9128 25.5768 15.6744 24.6036C11.436 23.6316 7.47239 25.4988 7.47239 25.4988C6.82559 25.764 6.39479 26.3856 6.37439 27.084L6.09599 36.3972C6.08519 36.7596 6.35039 37.0716 6.70919 37.1196C6.70919 37.1196 26.8212 41.5632 30.39 41.4732C33.9588 41.3844 42.48 35.6184 43.3464 35.1204C44.2116 34.6224 55.7832 27.5172 53.526 24.546L53.5236 24.5448Z" fill="#68B9DD"/>
<path d="M35.1864 29.9677C35.1864 29.9677 39.0924 30.2029 38.7732 33.1993C38.5104 37.2301 24.7128 34.3573 21.9312 34.8961" stroke="#2B2B2B" stroke-linecap="round" stroke-linejoin="round"/>
<path d="M50.9304 24.0853C46.9368 25.0597 40.3728 30.3445 40.3728 30.3445L37.6212 30.6721" stroke="#2B2B2B" stroke-linecap="round" stroke-linejoin="round"/>
<path d="M44.6052 25.7869C43.2792 26.6089 41.9268 27.6349 40.074 29.2597L36.9708 29.6569" stroke="#2B2B2B" stroke-linecap="round" stroke-linejoin="round"/>
<path d="M44.916 23.0364C44.916 23.0364 44.7564 12.4884 56.1276 14.0016C56.1276 14.0016 55.4844 23.6484 44.916 23.0364Z" fill="#C6F7ED"/>
<path d="M46.2948 14.82C46.2948 14.82 44.5368 8.24043 51.5676 6.76562C51.5676 6.76562 53.0412 14.37 46.2948 14.82Z" fill="#C6F7ED"/>
<path d="M14.9928 23.0364C14.9928 23.0364 15.1524 12.4884 3.78119 14.0016C3.78119 14.0016 4.42439 23.6484 14.9928 23.0364Z" fill="#C6F7ED"/>
<path d="M13.614 14.82C13.614 14.82 15.372 8.24043 8.3412 6.76562C8.3412 6.76562 6.8676 14.37 13.614 14.82Z" fill="#C6F7ED"/>
<path d="M8.92679 47.1048C9.25079 47.1048 9.54839 47.1528 9.82079 47.25C10.0932 47.3472 10.3272 47.4504 10.5204 47.562C10.7508 47.6916 10.9548 47.8392 11.13 48.006C11.2044 47.886 11.2848 47.7768 11.3724 47.6808C11.46 47.5836 11.5404 47.5032 11.6148 47.4384C11.7072 47.364 11.7996 47.2992 11.892 47.244H12.2388V49.878H11.6844C11.5548 49.434 11.3748 49.032 11.1432 48.672C10.9488 48.3672 10.6908 48.0876 10.3668 47.8332C10.0428 47.5788 9.65039 47.4516 9.18839 47.4516C8.91119 47.4516 8.63879 47.5284 8.36999 47.6808C8.10119 47.8332 7.86359 48.0924 7.65599 48.4572C7.44839 48.822 7.28159 49.308 7.15679 49.9128C7.03199 50.5188 6.96959 51.27 6.96959 52.1664C6.96959 53.0628 7.03439 53.826 7.16399 54.426C7.29359 55.0272 7.47359 55.5096 7.70519 55.8756C7.93559 56.2404 8.20919 56.4996 8.52359 56.652C8.83799 56.8044 9.17519 56.8812 9.53519 56.8812C9.86759 56.8812 10.1868 56.8092 10.4916 56.6664C10.7964 56.5236 11.0688 56.3292 11.31 56.0844C11.55 55.8396 11.742 55.56 11.886 55.2456C12.0288 54.9312 12.1008 54.5988 12.1008 54.2472H12.4476C12.4476 54.6444 12.366 55.0236 12.2052 55.3848C12.0432 55.746 11.8188 56.0616 11.5332 56.3352C11.2464 56.6076 10.9092 56.8248 10.5204 56.9868C10.1328 57.1488 9.71159 57.2292 9.25919 57.2292C8.52959 57.2292 7.87319 57.1188 7.28999 56.8968C6.70799 56.6748 6.21239 56.3496 5.80679 55.9188C5.39999 55.4892 5.08799 54.96 4.87079 54.3312C4.65359 53.7024 4.54559 52.9812 4.54559 52.1688C4.54559 51.3564 4.65119 50.634 4.86479 50.0052C5.07719 49.3764 5.37839 48.8472 5.76599 48.4176C6.15479 47.988 6.61679 47.6616 7.15199 47.4396C7.68839 47.2176 8.27999 47.1072 8.92679 47.1072V47.1048Z" fill="#3962C9"/>
<path d="M18.828 52.1664C18.828 51.852 18.7956 51.582 18.7308 51.3552C18.666 51.1284 18.5856 50.9424 18.4884 50.7936C18.3912 50.646 18.2808 50.5368 18.156 50.4684C18.0312 50.3988 17.9088 50.364 17.7888 50.364C17.5764 50.364 17.3916 50.4216 17.2344 50.5368C17.0772 50.6532 16.9476 50.7792 16.8456 50.9184C16.7256 51.0852 16.6236 51.27 16.5408 51.4728V56.6028L17.3724 56.8104V57.018H13.4904V56.8104L14.322 56.6028V47.7288L13.4904 47.5212V47.3136H15.2928C16.1244 47.3136 16.5408 47.73 16.5408 48.5616V50.7804C16.6608 50.6136 16.8036 50.466 16.9704 50.3364C17.118 50.226 17.3052 50.1216 17.532 50.0244C17.7588 49.9272 18.0288 49.8792 18.3432 49.8792C18.7404 49.8792 19.1052 49.944 19.4388 50.0736C19.7724 50.2032 20.0556 50.3736 20.292 50.5872C20.5272 50.7996 20.712 51.042 20.8464 51.3144C20.9808 51.5868 21.048 51.8712 21.048 52.1676V56.604L21.8796 56.8116V57.0192H20.0772C19.2456 57.0192 18.8292 56.6028 18.8292 55.7712V52.1664H18.828Z" fill="#3962C9"/>
<path d="M25.968 49.878C26.5224 49.878 27.0144 49.9524 27.4452 50.1C27.876 50.2476 28.2372 50.454 28.5336 50.7168C28.8288 50.9808 29.0532 51.2952 29.2056 51.66C29.358 52.0248 29.4348 52.4256 29.4348 52.86V56.604L30.2664 56.8116V57.0192H29.0184C28.686 57.0192 28.4172 56.9664 28.2144 56.8596C28.0104 56.754 27.8484 56.6364 27.7296 56.5056C27.5904 56.3484 27.4896 56.1732 27.4248 55.9788C27.3048 56.2188 27.1524 56.4276 26.9664 56.6028C26.8092 56.76 26.6016 56.904 26.3424 57.0324C26.0832 57.1608 25.7736 57.2268 25.4136 57.2268C24.9792 57.2268 24.6024 57.1788 24.2832 57.0816C23.964 56.9844 23.6988 56.8512 23.4864 56.6796C23.2728 56.5092 23.1144 56.31 23.0076 56.0832C22.902 55.8564 22.848 55.614 22.848 55.3548C22.848 55.1424 22.8708 54.9456 22.9176 54.7656C22.9644 54.5856 23.0196 54.426 23.0844 54.2868C23.1576 54.12 23.2416 53.9676 23.334 53.8296C23.7216 53.7372 24.1332 53.6544 24.5676 53.58C24.9372 53.5152 25.3524 53.4528 25.8156 53.3928C26.2776 53.3328 26.7444 53.2932 27.216 53.2752V52.8588C27.216 52.3224 27.1812 51.8796 27.1116 51.528C27.042 51.1764 26.9424 50.8992 26.8128 50.6964C26.6832 50.4936 26.5236 50.352 26.3352 50.274C26.1456 50.196 25.9308 50.1564 25.6908 50.1564C25.5888 50.1564 25.4964 50.1636 25.4136 50.178C25.3308 50.1924 25.2564 50.208 25.1916 50.226C25.1172 50.2536 25.0524 50.2764 24.9972 50.2956V52.3752C24.9324 52.3944 24.8724 52.4076 24.8172 52.4172C24.762 52.4268 24.7044 52.434 24.6444 52.4376C24.5844 52.4424 24.5172 52.4448 24.4428 52.4448C24.1284 52.4448 23.8764 52.35 23.6868 52.1604C23.4972 51.9708 23.4024 51.7188 23.4024 51.4044C23.4024 51.21 23.4504 51.0228 23.5476 50.8428C23.6448 50.6628 23.7972 50.5008 24.0048 50.358C24.2124 50.2152 24.4788 50.0988 24.8016 50.0112C25.1244 49.9236 25.5132 49.8792 25.9668 49.8792L25.968 49.878ZM25.4136 53.76C25.3584 53.88 25.3116 54.0192 25.2744 54.1764C25.2372 54.306 25.2048 54.4584 25.1772 54.6336C25.1496 54.8088 25.1352 55.0032 25.1352 55.2156C25.1352 55.77 25.2204 56.1636 25.392 56.394C25.5636 56.6244 25.7544 56.7408 25.968 56.7408C26.1816 56.7408 26.3628 56.6832 26.5152 56.5668C26.6676 56.4516 26.7948 56.3244 26.8968 56.1852C27.0168 56.0184 27.1236 55.8336 27.216 55.6308V53.6196C27.0036 53.6196 26.79 53.6268 26.5776 53.6412C26.3652 53.6556 26.1708 53.6712 25.9956 53.6892C25.7916 53.7168 25.5984 53.7396 25.4136 53.7588V53.76Z" fill="#3962C9"/>
<path d="M35.8812 50.364C35.604 50.364 35.3568 50.4216 35.1396 50.5368C34.9224 50.6532 34.74 50.7792 34.5924 50.9184C34.4256 51.0852 34.278 51.27 34.1484 51.4728V56.6028L34.98 56.8104V57.018H31.098V56.8104L31.9296 56.6028V50.502L31.098 50.2944V50.0868H32.346C32.6688 50.0868 32.9352 50.142 33.1428 50.2536C33.3504 50.364 33.5148 50.484 33.6348 50.6136C33.774 50.7708 33.8748 50.9424 33.9396 51.1272C34.0788 50.9244 34.2492 50.7396 34.4532 50.5728C34.6284 50.4336 34.8432 50.3064 35.0976 50.1912C35.352 50.076 35.6544 50.0172 36.006 50.0172C36.5052 50.0172 36.8748 50.1336 37.1148 50.364C37.3548 50.5956 37.476 50.9184 37.476 51.3348C37.476 51.6492 37.3812 51.9012 37.1916 52.0908C37.002 52.2804 36.75 52.3752 36.4356 52.3752C36.3612 52.3752 36.2904 52.3728 36.2208 52.368C36.1512 52.3632 36.0936 52.356 36.048 52.3464C35.9832 52.338 35.928 52.3236 35.8812 52.3056V50.364Z" fill="#3962C9"/>
<path d="M39.9024 50.0868C40.734 50.0868 41.1504 50.5032 41.1504 51.3348V56.604L41.982 56.8116V57.0192H38.1V56.8116L38.9316 56.604V50.5032L38.1 50.2956V50.088H39.9024V50.0868ZM38.8632 48.3528C38.8632 48.1956 38.8956 48.0456 38.9604 47.9016C39.0252 47.7588 39.1104 47.634 39.2172 47.5272C39.3228 47.4216 39.4476 47.3352 39.5916 47.2716C39.7344 47.2068 39.8844 47.1744 40.0416 47.1744C40.1988 47.1744 40.3488 47.2068 40.4928 47.2716C40.6356 47.3364 40.7604 47.4216 40.8672 47.5272C40.9728 47.634 41.0592 47.7588 41.124 47.9016C41.1888 48.0456 41.2212 48.1956 41.2212 48.3528C41.2212 48.51 41.1888 48.66 41.124 48.8028C41.0592 48.9468 40.974 49.0716 40.8672 49.1772C40.7616 49.284 40.6368 49.3692 40.4928 49.434C40.3488 49.4988 40.1988 49.5312 40.0416 49.5312C39.8844 49.5312 39.7344 49.4988 39.5916 49.434C39.4476 49.3692 39.3228 49.284 39.2172 49.1772C39.1104 49.0716 39.0252 48.9468 38.9604 48.8028C38.8956 48.66 38.8632 48.51 38.8632 48.3528Z" fill="#3962C9"/>
<path d="M43.4376 49.3932C43.4376 48.5616 43.854 48.1452 44.6856 48.1452H45.6564V50.0868H47.598V50.4336H45.6564V54.6624C45.6564 55.1148 45.6816 55.4856 45.7332 55.7712C45.7836 56.058 45.8532 56.2836 45.9408 56.4504C46.0284 56.6172 46.1376 56.73 46.2672 56.79C46.3968 56.85 46.5396 56.88 46.6968 56.88C46.854 56.88 47.0064 56.8404 47.154 56.7624C47.3016 56.6844 47.436 56.568 47.556 56.4156C47.676 56.2632 47.7708 56.076 47.8404 55.854C47.91 55.632 47.9448 55.374 47.9448 55.0776H48.2916C48.2916 55.7712 48.1176 56.3028 47.772 56.6724C47.4252 57.042 46.974 57.2268 46.4196 57.2268C45.948 57.2268 45.5304 57.162 45.1644 57.0324C44.7984 56.9028 44.4876 56.7228 44.2284 56.4912C43.9692 56.2608 43.7724 55.9872 43.6392 55.6728C43.5048 55.3584 43.4388 55.0212 43.4388 54.6612V50.4324H42.468V50.0856H43.4388V49.392L43.4376 49.3932Z" fill="#3962C9"/>
<path d="M54.738 50.7096L53.6976 50.2932V50.0856H56.2632V50.2932L55.1544 50.7096L52.3812 57.8496C52.0848 58.6164 51.7692 59.1672 51.4308 59.4996C51.0936 59.832 50.7168 59.9988 50.3004 59.9988C49.884 59.9988 49.5612 59.8884 49.3296 59.6664C49.098 59.4444 48.9828 59.1396 48.9828 58.7508C48.9828 58.3992 49.0776 58.1268 49.2672 57.9324C49.4568 57.738 49.7088 57.6408 50.0232 57.6408C50.0964 57.6408 50.1636 57.6456 50.2236 57.6552C50.2836 57.6636 50.3412 57.6732 50.3964 57.6828C50.4516 57.6912 50.5116 57.7008 50.5764 57.7104V59.5824C50.6964 59.5644 50.814 59.5224 50.9304 59.4576C51.0456 59.3928 51.1596 59.2932 51.27 59.16C51.3804 59.0256 51.492 58.8528 51.6024 58.6392C51.7128 58.4268 51.8328 58.1628 51.9624 57.8484L52.2396 57.1548L48.6348 50.4996L47.9412 50.292V50.0844H49.674C49.9332 50.0844 50.1588 50.1144 50.3532 50.1744C50.5476 50.2344 50.7156 50.3148 50.8596 50.4168C51.0024 50.5188 51.1296 50.6412 51.2412 50.784C51.3528 50.9268 51.4536 51.0864 51.546 51.2616L53.2788 54.4644L54.7344 50.7072L54.738 50.7096Z" fill="#3962C9"/>
</svg>
