<?xml version="1.0" encoding="UTF-8"?>
<svg id="Layer_1" xmlns="http://www.w3.org/2000/svg" viewBox="0 0 30 30">
  <defs>
    <style>
      .cls-1 {
        fill: #fff;
      }

      .cls-2 {
        fill: #f9f9f9;
      }

      .cls-3 {
        fill: #b0b4bf;
      }
    </style>
  </defs>
  <rect class="cls-2" width="30" height="29.93" rx="7.04" ry="7.04"/>
  <g>
    <ellipse class="cls-3" cx="15" cy="14.97" rx="15" ry="14.97"/>
    <g>
      <path class="cls-1" d="M4.69,20.35v-10.78h2.39v10.78h-2.39Z"/>
      <path class="cls-1" d="M13.8,11.98h-1.2c-.11-.8-.48-1.21-1.14-1.21-.42,0-.74.1-.95.3-.21.2-.32.5-.32.91,0,.3.12.58.35.85l2.55,2.85c.47.53.71,1.09.71,1.7v.59c0,.65-.24,1.21-.71,1.69-.47.47-1.04.71-1.7.71h-1.2c-.8,0-1.4-.2-1.8-.6-.4-.4-.6-1-.6-1.8h1.21v.2c0,.33.12.57.37.75.25.17.52.26.82.26.42,0,.73-.1.91-.31.19-.21.28-.51.28-.9,0-.31-.12-.59-.35-.85l-2.55-2.85c-.47-.52-.71-1.08-.71-1.7v-.59c0-.65.24-1.21.71-1.69.47-.47,1.04-.71,1.7-.71h1.2c1.51,0,2.31.8,2.41,2.4Z"/>
      <path class="cls-1" d="M14.52,20.35v-10.78h2.39v10.78h-2.39Z"/>
      <path class="cls-1" d="M24.84,17.95c-.1,1.6-.89,2.4-2.39,2.4h-2.41c-.65,0-1.22-.23-1.69-.7-.48-.47-.71-1.03-.71-1.7v-5.98c0-.65.23-1.21.7-1.69.47-.47,1.03-.71,1.71-.71h2.41c1.51,0,2.3.8,2.39,2.4h-1.2c-.1-.8-.49-1.21-1.2-1.21h-1.21c-.33,0-.61.12-.84.35-.24.23-.35.52-.35.86v5.98c0,.33.12.61.35.85.24.24.52.36.84.36h1.21c.71,0,1.11-.4,1.2-1.21h1.2Z"/>
    </g>
  </g>
</svg>