<svg clip-rule="evenodd" fill-rule="evenodd" height="512" image-rendering="optimizeQuality" shape-rendering="geometricPrecision" text-rendering="geometricPrecision" viewBox="0 0 4335 4335" width="512" xmlns="http://www.w3.org/2000/svg"><g id="Layer_x0020_1"><path d="m51 3553c-28 0-51-23-51-51v-3167c0-28 23-51 51-51h4233c28 0 51 23 51 51v3167c0 28-23 51-51 51-1410 0-2759 0-4233 0z" fill="#f0c419" fill-rule="nonzero"/><path d="m364 3234c-28 0-51-23-51-51v-2530c0-28 23-50 51-50h3607c28 0 51 22 51 50v2530c0 28-23 51-51 51-1197 0-2383 0-3607 0z" fill="#fff" fill-rule="nonzero"/><path d="m4021 644c-680 831-1969 2118-3702 2563 9 16 26 27 45 27h3607c28 0 51-23 51-51v-2530c0-3-1-6-1-9z" fill="#ecf0f1"/><path d="m4022 653v2530c0 28-23 51-51 51h-3607c-19 0-36-11-45-27-105 27-211 51-319 71v224c0 28 23 51 51 51h4233c28 0 51-23 51-51v-3167c0-23-15-42-36-49-77 104-170 225-278 358 0 3 1 6 1 9z" fill="#f29c1f"/><g fill-rule="nonzero"><path d="m953 2977c-28 2-53-18-55-46-3-28 18-52 46-55 0 0 143-10 143-186 0-28 23-51 51-51 20 0 37 12 45 29 13 21 95 158 118 138 15-14 28-33 38-53 11-22 19-44 24-63 17-61 47-79 92-66 28 8 51 33 82 66 75 79 211 223 466 152 27-7 55 8 62 35 8 27-8 55-35 63-314 87-477-86-566-181l-12-12c-6 16-13 34-22 52-15 30-36 60-63 83-66 58-144-2-200-66-58 150-214 161-214 161z" fill="#95a5a5"/><g id="_304148136" fill="#bdc3c7"><path d="m637 2473c-28 0-51-23-51-51s23-51 51-51h1663c28 0 51 23 51 51s-23 51-51 51z"/><path d="m637 1969c-28 0-51-23-51-51s23-51 51-51h1663c28 0 51 23 51 51s-23 51-51 51z"/><path d="m637 1465c-28 0-51-23-51-51s23-51 51-51h3061c28 0 51 23 51 51s-23 51-51 51z"/><path d="m637 961c-28 0-51-23-51-51s23-51 51-51h3061c28 0 51 23 51 51s-23 51-51 51z"/></g><path d="m3338 2727c29 0 51 22 51 50v1223c0 28-22 51-51 51-14 0-26-6-36-15l-211-184-203 186c-20 18-52 17-71-4-9-9-14-21-14-34v-1223c0-28 23-50 51-50z" fill="#ff5364"/><path d="m3298 1856h234c28 0 50 23 50 51v234l166 165c20 20 20 52 0 72l-166 165v234c0 28-22 51-50 51h-234l-166 166c-20 19-52 19-72 0l-165-166h-234c-28 0-51-23-51-51v-234l-165-165c-20-20-20-52 0-72l165-165v-234c0-28 23-51 51-51h234l165-165c20-20 52-20 72 0z" fill="#fb7b76"/><path d="m3096 2048c81 0 155 33 208 86 53 54 86 127 86 208s-33 155-86 208c-53 53-127 86-208 86s-154-33-207-86h-1c-53-53-86-127-86-208s33-154 86-208h1c53-53 126-86 207-86z" fill="#df4d60"/></g></g></svg>