<svg width="30" height="34" viewBox="0 0 30 34" fill="none" xmlns="http://www.w3.org/2000/svg">
<path d="M14.5464 0C10.5851 0 6.86364 0.704566 4.06815 1.98373C1.48292 3.16777 0 4.73376 0 6.28348C0 7.8332 1.48292 9.39967 4.06815 10.5831C6.86364 11.8623 10.585 12.5669 14.5464 12.5669C18.5078 12.5669 22.2297 11.8623 25.0243 10.5831C27.6099 9.39967 29.0933 7.8333 29.0933 6.28348C29.0933 4.73367 27.6099 3.16777 25.0243 1.98373C22.2293 0.704566 18.5077 0 14.5464 0Z" fill="#000000"/>
<path d="M0 9.45442C0.821516 10.3442 1.99713 11.1499 3.49489 11.8359C6.46628 13.1954 10.3914 13.9444 14.5469 13.9444C18.7023 13.9444 22.627 13.1949 25.5984 11.8359C27.0961 11.1499 28.2718 10.3445 29.0933 9.45442V13.4496C29.0933 15.004 27.6131 16.5723 25.0331 17.7531C22.2436 19.029 18.5194 19.7326 14.5464 19.7326C10.5734 19.7326 6.84871 19.029 4.05982 17.7531C1.47967 16.5723 0 15.004 0 13.4496V9.45442Z" fill="#000000"/>
<path d="M29.0933 16.6207C26.6302 19.2908 21.1116 21.1102 14.5464 21.1102C7.98116 21.1102 2.46273 19.2908 0 16.6207V20.1383C0 21.6918 1.47967 23.261 4.05982 24.4417C6.84871 25.7181 10.5734 26.4217 14.5464 26.4217C18.5194 26.4217 22.2436 25.7181 25.0336 24.4417C27.6136 23.261 29.0933 21.6918 29.0933 20.1383V16.6207Z" fill="#000000"/>
<path d="M4.05982 31.608C1.47967 30.4272 0 28.858 0 27.3041V23.3093C2.46273 25.9799 7.98116 27.7994 14.5464 27.7994C21.1116 27.7994 26.6302 25.9799 29.0933 23.3093V27.3041C29.0933 28.858 27.6131 30.4272 25.0331 31.608C22.2436 32.8844 18.5194 33.5875 14.5464 33.5875C10.5734 33.5875 6.84871 32.8844 4.05982 31.608Z" fill="#000000"/>
</svg>
