<svg width="42" height="42" viewBox="0 0 42 42" fill="none" xmlns="http://www.w3.org/2000/svg">
<path d="M29.5625 0C37.1458 0 41.6663 4.52116 41.6455 12.1045V29.5625C41.6455 37.1457 37.1251 41.6669 29.542 41.667H12.1045C4.52127 41.667 0.00012927 37.146 0 29.542V12.1045C0 4.52116 4.52116 0 12.1045 0H29.5625ZM11.9346 21.46C10.7753 21.4601 9.83305 22.4022 9.83301 23.5615V29.4678C9.83321 30.6269 10.7754 31.5682 11.9346 31.5684C13.112 31.5684 14.0545 30.627 14.0547 29.4678V23.5615C14.0546 22.4021 13.1121 21.46 11.9346 21.46ZM19.96 12.1846C18.7825 12.1847 17.8409 13.1268 17.8408 14.2861V29.4678C17.841 30.6269 18.7827 31.5682 19.96 31.5684C21.1192 31.5684 22.0613 30.627 22.0615 29.4678V14.2861C22.0615 13.1267 21.1194 12.1846 19.96 12.1846ZM27.6689 8.83301C26.4561 8.83301 25.4854 9.93196 25.4854 11.2842V28.9912C25.4855 30.3434 26.4561 31.4424 27.6689 31.4424C28.863 31.4423 29.8329 30.3433 29.833 28.9912V11.2842C29.8329 9.93204 28.8631 8.83313 27.6689 8.83301Z" fill="#0181FC"/>
</svg>
