<svg width="50" height="50" viewBox="0 0 50 50" fill="none" xmlns="http://www.w3.org/2000/svg">
<path d="M42.7083 14.5834V31.25H13.2292C9.95834 31.25 7.29167 33.9167 7.29167 37.1875V14.5834C7.29167 6.25002 9.37501 4.16669 17.7083 4.16669H32.2917C40.625 4.16669 42.7083 6.25002 42.7083 14.5834Z" fill="#066FE8"/>
<path d="M42.7083 31.25V38.5417C42.7083 42.5625 39.4375 45.8333 35.4167 45.8333H14.5833C10.5625 45.8333 7.29167 42.5625 7.29167 38.5417V37.1875C7.29167 33.9167 9.95834 31.25 13.2292 31.25H42.7083Z" fill="#f8cda3"/>
<path d="M33.3333 16.1458H16.6667C15.8125 16.1458 15.1042 15.4375 15.1042 14.5833C15.1042 13.7291 15.8125 13.0208 16.6667 13.0208H33.3333C34.1875 13.0208 34.8958 13.7291 34.8958 14.5833C34.8958 15.4375 34.1875 16.1458 33.3333 16.1458Z" fill="white"/>
<path d="M27.0833 23.4375H16.6667C15.8125 23.4375 15.1042 22.7292 15.1042 21.875C15.1042 21.0208 15.8125 20.3125 16.6667 20.3125H27.0833C27.9375 20.3125 28.6458 21.0208 28.6458 21.875C28.6458 22.7292 27.9375 23.4375 27.0833 23.4375Z" fill="white"/>
</svg>
