<?xml version="1.0" encoding="UTF-8"?>
<svg id="Layer_1" xmlns="http://www.w3.org/2000/svg" version="1.1" viewBox="0 0 34 34">
  <!-- Generator: Adobe Illustrator 29.3.0, SVG Export Plug-In . SVG Version: 2.1.0 Build 146)  -->
  <defs>
    <style>
      .st0, .st1, .st2, .st3, .st4 {
        stroke-width: .6px;
      }

      .st0, .st1, .st4 {
        fill: #3799ff;
      }

      .st0, .st2 {
        stroke: #37afff;
      }

      .st5 {
        fill: #3cb929;
      }

      .st6 {
        fill: #e5ffd3;
      }

      .st1, .st3 {
        stroke: #37caff;
      }

      .st7 {
        fill: #fff;
      }

      .st2 {
        fill: #37afff;
      }

      .st3 {
        fill: #37caff;
      }

      .st4 {
        stroke: #3799ff;
      }
    </style>
  </defs>
  <path class="st4" d="M3.1,10.1h5.1c.8,0,1.5.7,1.5,1.5v20.9c0,.8-.7,1.5-1.5,1.5H3.1c-.8,0-1.5-.7-1.5-1.5V11.6c0-.8.7-1.5,1.5-1.5Z"/>
  <path class="st7" d="M5.6,28.1c-.4,0-.8-.3-.8-.8v-13.8c0-.4.3-.8.8-.8s.8.3.8.8v13.8c0,.4-.3.8-.8.8Z"/>
  <path class="st4" d="M4.9,30h1.5c.3,0,.5.2.5.5,0,.3-.2.5-.5.5h-1.5c-.3,0-.5-.2-.5-.5,0-.3.2-.5.5-.5Z"/>
  <path class="st2" d="M11.7,10.1h5.1c.8,0,1.5.7,1.5,1.5v20.9c0,.8-.7,1.5-1.5,1.5h-5.1c-.8,0-1.5-.7-1.5-1.5V11.6c0-.8.7-1.5,1.5-1.5Z"/>
  <path class="st7" d="M14.3,28.1c-.4,0-.8-.3-.8-.8v-13.8c0-.4.3-.8.8-.8s.8.3.8.8v13.8c0,.4-.3.8-.8.8Z"/>
  <path class="st0" d="M13.5,30h1.5c.3,0,.5.2.5.5,0,.3-.2.5-.5.5h-1.5c-.3,0-.5-.2-.5-.5,0-.3.2-.5.5-.5Z"/>
  <path class="st3" d="M19.9,10.4l4.9-1.3c.8-.2,1.6.3,1.8,1.1l5.3,20.3c.2.8-.3,1.6-1.1,1.8l-4.9,1.3c-.8.2-1.6-.3-1.8-1.1l-5.3-20.3c-.2-.8.3-1.6,1.1-1.8Z"/>
  <path class="st7" d="M26.9,27.2c-.4.1-.8-.1-.9-.5l-3.5-13.3c-.1-.4.1-.8.5-.9.4-.1.8.1.9.5l3.5,13.3c.1.4-.1.8-.5.9Z"/>
  <path class="st1" d="M26.6,29.2l1.5-.4c.2,0,.5,0,.6.3,0,.2,0,.5-.3.6l-1.5.4c-.2,0-.5,0-.6-.3,0-.2,0-.5.3-.6Z"/>
  <circle class="st6" cx="21.5" cy="9.5" r="9.5"/>
  <path class="st5" d="M23,14.9h-2.5c-1.6,0-3-1.4-3-3.1s.3-.8.8-.8.8.3.8.8c0,.9.7,1.6,1.5,1.6h2.5c.7,0,1.2-.6,1.2-1.3s-.3-1-.8-1.2l-4.1-1.4c-.8-.3-1.8-.9-1.8-2.7s1.2-2.8,2.7-2.8h2.5c1.6,0,3,1.4,3,3.1s-.3.8-.8.8-.8-.3-.8-.8c0-.9-.7-1.6-1.5-1.6h-2.5c-.7,0-1.2.6-1.2,1.3s.3,1,.8,1.2l4.1,1.4c.8.3,1.8.9,1.8,2.7,0,1.5-1.2,2.8-2.7,2.8Z"/>
  <path class="st5" d="M21.6,16.3c-.4,0-.8-.3-.8-.8V3.5c0-.4.3-.8.8-.8s.8.3.8.8v12.1c0,.4-.3.8-.8.8Z"/>
</svg>