<svg width="24" height="24" viewBox="0 0 24 24" fill="none" xmlns="http://www.w3.org/2000/svg">
  <path d="M18.63 7.14999C18.67 7.75999 18.62 8.44999 18.5 9.21999L17.77 13.91C17.15 17.82 15.34 19.14 11.43 18.53L6.73999 17.79C5.38999 17.58 4.34999 17.22 3.58999 16.68C2.13999 15.67 1.71999 14.01 2.11999 11.45L2.85999 6.75999C3.47999 2.84999 5.28999 1.52999 9.19999 2.13999L13.89 2.87999C17.03 3.36999 18.5 4.64999 18.63 7.14999Z" stroke="#4096FF" stroke-width="1.5" stroke-linecap="round" stroke-linejoin="round"/>
  <path d="M20.4998 13.47L18.9998 17.98C17.7498 21.74 15.7498 22.74 11.9898 21.49L7.47984 19.99C5.20984 19.24 3.94984 18.2 3.58984 16.68C4.34984 17.22 5.38984 17.58 6.73984 17.79L11.4298 18.53C15.3398 19.14 17.1498 17.82 17.7698 13.91L18.4998 9.21999C18.6198 8.44999 18.6698 7.75999 18.6298 7.14999C21.0198 8.41999 21.5398 10.34 20.4998 13.47Z" stroke="#4096FF" stroke-width="1.5" stroke-linecap="round" stroke-linejoin="round"/>
  <path d="M9.74805 13.5C9.64805 13.5 9.55805 13.48 9.45805 13.44C9.17805 13.32 8.99805 13.05 8.99805 12.75V6.75C8.99805 6.34 9.33805 6 9.74805 6C10.158 6 10.498 6.34 10.498 6.75V10.94L11.218 10.22C11.508 9.93 11.988 9.93 12.278 10.22C12.568 10.51 12.568 10.99 12.278 11.28L10.278 13.28C10.138 13.42 9.93805 13.5 9.74805 13.5Z" fill="#4096FF"/>
  <path d="M9.7475 13.4999C9.5575 13.4999 9.3675 13.4299 9.2175 13.2799L7.2175 11.2799C6.9275 10.9899 6.9275 10.5099 7.2175 10.2199C7.5075 9.92994 7.9875 9.92994 8.2775 10.2199L10.2775 12.2199C10.5675 12.5099 10.5675 12.9899 10.2775 13.2799C10.1275 13.4299 9.9375 13.4999 9.7475 13.4999Z" fill="#4096FF"/>
</svg>
