<svg width="24" height="24" viewBox="0 0 24 24" fill="none" xmlns="http://www.w3.org/2000/svg">
  <path d="M18.63 7.14999C18.67 7.75999 18.62 8.44999 18.5 9.21999L17.77 13.91C17.15 17.82 15.34 19.14 11.43 18.53L6.73999 17.79C5.38999 17.58 4.34999 17.22 3.58999 16.68C2.13999 15.67 1.71999 14.01 2.11999 11.45L2.85999 6.75999C3.47999 2.84999 5.28999 1.52999 9.19999 2.13999L13.89 2.87999C17.03 3.36999 18.5 4.64999 18.63 7.14999Z" stroke="#4096FF" stroke-width="1.5" stroke-linecap="round" stroke-linejoin="round"/>
  <path d="M20.4998 13.47L18.9998 17.98C17.7498 21.74 15.7498 22.74 11.9898 21.49L7.47984 19.99C5.20984 19.24 3.94984 18.2 3.58984 16.68C4.34984 17.22 5.38984 17.58 6.73984 17.79L11.4298 18.53C15.3398 19.14 17.1498 17.82 17.7698 13.91L18.4998 9.21999C18.6198 8.44999 18.6698 7.75999 18.6298 7.14999C21.0198 8.41999 21.5398 10.34 20.4998 13.47Z" stroke="#4096FF" stroke-width="1.5" stroke-linecap="round" stroke-linejoin="round"/>
  <path d="M10.7476 7C10.8476 7 10.9376 7.02 11.0376 7.06C11.3176 7.18 11.4976 7.45 11.4976 7.75L11.4976 13.75C11.4976 14.16 11.1576 14.5 10.7476 14.5C10.3376 14.5 9.99756 14.16 9.99756 13.75L9.99756 9.56L9.27756 10.28C8.98756 10.57 8.50756 10.57 8.21756 10.28C7.92756 9.99 7.92756 9.51 8.21756 9.22L10.2176 7.22C10.3576 7.08 10.5576 7 10.7476 7Z" fill="#4096FF"/>
  <path d="M10.7481 7.00006C10.9381 7.00006 11.1281 7.07006 11.2781 7.22006L13.2781 9.22006C13.5681 9.51006 13.5681 9.99006 13.2781 10.2801C12.9881 10.5701 12.5081 10.5701 12.2181 10.2801L10.2181 8.28006C9.9281 7.99006 9.9281 7.51006 10.2181 7.22006C10.3681 7.07006 10.5581 7.00006 10.7481 7.00006Z" fill="#4096FF"/>
</svg>
