<?xml version="1.0" encoding="UTF-8"?>
<svg xmlns="http://www.w3.org/2000/svg" viewBox="0 0 500 372.61">
  <defs>
    <style>
      .cls-1 {
        fill: #ed847e;
      }

      .cls-2 {
        fill: #ebebeb;
      }

      .cls-3, .cls-4 {
        fill: #407bff;
      }

      .cls-5, .cls-6 {
        fill: #e6e6e6;
      }

      .cls-4, .cls-7 {
        opacity: .4;
      }

      .cls-8, .cls-9, .cls-10, .cls-11 {
        fill: #fff;
      }

      .cls-8, .cls-6 {
        opacity: .5;
      }

      .cls-9 {
        opacity: .8;
      }

      .cls-10 {
        opacity: .7;
      }

      .cls-12 {
        fill: #263238;
      }

      .cls-13 {
        fill: #fafafa;
      }

      .cls-14 {
        fill: #ffc3bd;
      }

      .cls-15 {
        opacity: .2;
      }

      .cls-16 {
        opacity: .3;
      }

      .cls-17 {
        fill: #f5f5f5;
      }

      .cls-18 {
        fill: #f0f0f0;
      }

      .cls-19 {
        fill: #e0e0e0;
      }
    </style>
  </defs>
  <g id="Background_Complete" data-name="Background Complete">
    <g>
      <rect class="cls-2" y="327.45" width="500" height=".25"/>
      <rect class="cls-2" x="416.78" y="343.54" width="33.12" height=".25"/>
      <rect class="cls-2" x="260.33" y="340.41" width="12.89" height=".25"/>
      <rect class="cls-2" x="322.53" y="341.46" width="27.14" height=".25"/>
      <rect class="cls-2" x="359.67" y="334.26" width="56.11" height=".25"/>
      <rect class="cls-2" x="52.46" y="345.83" width="26.53" height=".25"/>
      <rect class="cls-2" x="87.89" y="345.83" width="23" height=".25"/>
      <rect class="cls-2" x="131" y="340.28" width="60.81" height=".25"/>
      <path class="cls-2" d="M237.01,282.85H43.91c-3.15,0-5.71-2.56-5.71-5.71V5.71c0-3.15,2.56-5.71,5.71-5.71h193.1c3.15,0,5.71,2.56,5.71,5.71v271.43c0,3.15-2.56,5.71-5.71,5.71ZM43.91.25c-3.01,0-5.46,2.45-5.46,5.46v271.43c0,3.01,2.45,5.46,5.46,5.46h193.1c3.01,0,5.46-2.45,5.46-5.46V5.71c0-3.01-2.45-5.46-5.46-5.46H43.91Z"/>
      <path class="cls-2" d="M453.31,282.85h-193.1c-3.15,0-5.71-2.56-5.71-5.71V5.71c0-3.15,2.56-5.71,5.71-5.71h193.1c3.15,0,5.71,2.56,5.71,5.71v271.43c0,3.15-2.56,5.71-5.71,5.71ZM260.21.25c-3.01,0-5.46,2.45-5.46,5.46v271.43c0,3.01,2.45,5.46,5.46,5.46h193.1c3.01,0,5.46-2.45,5.46-5.46V5.71c0-3.01-2.45-5.46-5.46-5.46h-193.1Z"/>
    </g>
    <g>
      <g>
        <path class="cls-5" d="M264.9,241.44c-2-5.75-17.8,2.07-24.21,11.6-4.27,6.35-6.88,13.12-8.09,22.22.15-10.38.31-21.54.47-32.06,1.3-2.62,4.26-8.68,6.38-13.47,7.1-16,23.99-21.96,29.83-32.06,7.65-13.24,7.6-33.09,1.09-40.26-5.66-6.23-24.39,35.88-26.5,40.58-7.26,16.18-9.37,28.18-10.73,39.82.15-9.89.3-18.97.42-25.97.4-22.85.89-30.19,1.12-32.46.78-1.1,1.71-2.39,2.24-3.08,4.53-5.84,14.59-12.78,19.61-21.26,7.34-12.39,6.15-27.21,1.01-32.73-5.38-5.77-14.9,7.87-19.95,21.38-5.05,13.52-2.89,26.45-4.31,37.68-.3,2.2-.6,10.56-.89,22.16-1.53-12.48-4.58-20.84-10.24-28.63-6.96-9.58-12.96-21.25-18.7-19.74-5.73,1.51-2.65,16.95,1.89,27.79,4.04,9.65,23.96,19.28,26.9,27.04-.35,15.72-.65,35.64-.87,54.18-1.57-9.58-.49-10.38-6.93-25.05-3.83-8.72-19.52-19.47-21.39-13.48-1.84,5.88.97,17.31,6.9,25.24,4.78,6.4,15.38,6.39,17.83,10.36.57.93,2.46,4.48,3.55,6.52-.26,22.64-.37,42.63-.24,49.44l1.03.07c-.05-1.76.07-13.28.28-28.52,2.57-8.11,19.9-12.84,25.26-21.28,5.6-8.83,9.63-19.13,7.23-26.02Z"/>
        <g>
          <path class="cls-18" d="M248.61,327.45h-33.26c-1.82,0-3.38-1.28-3.74-3.06l-2.36-11.64h45.47l-2.36,11.64c-.36,1.78-1.93,3.06-3.74,3.06Z"/>
          <path class="cls-18" d="M255.67,317.26h-47.38c-1.14,0-2.09-.85-2.22-1.98l-.97-8.61c-.15-1.32.89-2.48,2.22-2.48h49.31c1.33,0,2.37,1.16,2.22,2.48l-.97,8.61c-.13,1.13-1.08,1.98-2.22,1.98Z"/>
        </g>
      </g>
      <g>
        <g>
          <rect class="cls-18" x="400.76" y="187.37" width="31.85" height="135.91" transform="translate(833.38 510.65) rotate(180)"/>
          <rect class="cls-18" x="265.45" y="323.28" width="165.02" height="4.17" transform="translate(695.92 650.72) rotate(180)"/>
          <rect class="cls-17" x="263.31" y="187.37" width="137.45" height="135.91"/>
          <rect class="cls-18" x="275.83" y="240.94" width="112.41" height="28.78"/>
          <rect class="cls-18" x="275.83" y="277.98" width="112.41" height="28.78"/>
          <rect class="cls-17" x="316.31" y="239.69" width="31.45" height="6.21" rx="3.11" ry="3.11" transform="translate(664.07 485.59) rotate(180)"/>
          <rect class="cls-18" x="275.83" y="203.9" width="112.41" height="28.78"/>
          <path class="cls-17" d="M319.42,208.86h25.24c1.71,0,3.11-1.4,3.11-3.11h0c0-1.71-1.4-3.11-3.11-3.11h-25.24c-1.71,0-3.11,1.4-3.11,3.11h0c0,1.71,1.4,3.11,3.11,3.11Z"/>
          <path class="cls-17" d="M319.42,282.94h25.24c1.71,0,3.11-1.4,3.11-3.11h0c0-1.71-1.4-3.11-3.11-3.11h-25.24c-1.71,0-3.11,1.4-3.11,3.11h0c0,1.71,1.4,3.11,3.11,3.11Z"/>
        </g>
        <rect class="cls-18" x="260.48" y="183.49" width="140.28" height="3.88" transform="translate(661.24 370.86) rotate(180)"/>
        <rect class="cls-5" x="400.76" y="183.49" width="34.88" height="3.88"/>
      </g>
      <g>
        <rect class="cls-19" x="147.42" y="123.92" width="31.47" height="203.53" transform="translate(326.3 451.37) rotate(180)"/>
        <polygon class="cls-5" points="67.21 327.45 172.58 327.45 183.65 76.93 78.28 76.93 67.21 327.45"/>
        <polygon class="cls-18" points="51.84 327.45 168.4 327.45 179.46 76.93 62.91 76.93 51.84 327.45"/>
        <polygon class="cls-11" points="156.99 315.16 166.31 89.21 74.32 89.21 64.99 315.16 156.99 315.16"/>
        <polygon class="cls-13" points="117.46 315.16 148.73 89.21 138.92 89.21 107.65 315.16 117.46 315.16"/>
        <polygon class="cls-13" points="103.49 315.16 134.76 89.21 118.03 89.21 86.76 315.16 103.49 315.16"/>
      </g>
      <g>
        <g>
          <rect class="cls-5" x="293.46" y="25.87" width="127.53" height="119.3" transform="translate(714.46 171.03) rotate(180)"/>
          <rect class="cls-17" x="289.51" y="25.87" width="129.64" height="119.3" transform="translate(708.65 171.03) rotate(180)"/>
          <rect class="cls-5" x="293.46" y="145.16" width="127.53" height="4.88" transform="translate(714.46 295.21) rotate(180)"/>
          <rect class="cls-17" x="285.95" y="145.16" width="120.98" height="4.88" transform="translate(692.89 295.21) rotate(180)"/>
          <rect class="cls-13" x="302.07" y="26.24" width="104.51" height="118.56" transform="translate(439.84 -268.81) rotate(90)"/>
          <rect class="cls-5" x="243.19" y="85.12" width="104.51" height=".79" transform="translate(380.96 -209.93) rotate(90)"/>
          <polygon class="cls-11" points="393.94 137.77 373.44 33.26 346.57 33.26 367.07 137.77 393.94 137.77"/>
          <polygon class="cls-11" points="362.72 137.77 342.22 33.26 330.09 33.26 350.59 137.77 362.72 137.77"/>
        </g>
        <rect class="cls-2" x="353.23" y="76.3" width="111.56" height="1.27" rx=".61" ry=".61" transform="translate(485.94 -332.07) rotate(90)"/>
        <rect class="cls-6" x="286.6" y="21.15" width="136.55" height="18.26" transform="translate(709.75 60.57) rotate(180)"/>
        <rect class="cls-19" x="286.6" y="21.15" width="136.55" height="2.27" transform="translate(709.75 44.58) rotate(180)"/>
        <rect class="cls-2" x="285.95" y="20.16" width="137.84" height="1.99" rx=".87" ry=".87" transform="translate(709.75 42.31) rotate(180)"/>
        <path class="cls-11" d="M286.43,39.89h136.89c.26,0,.48-.21.48-.48h0c0-.26-.21-.48-.48-.48h-136.89c-.26,0-.48.21-.48.48h0c0,.26.21.48.48.48Z"/>
      </g>
    </g>
  </g>
  <g id="Shadow">
    <ellipse id="_Path_" data-name="&amp;lt;Path&amp;gt;" class="cls-17" cx="250" cy="361.29" rx="193.89" ry="11.32"/>
  </g>
  <g id="Folder">
    <g>
      <rect class="cls-3" x="64.73" y="217.13" width="1.02" height="15.5" transform="translate(-25.68 9.1) rotate(-6.67)"/>
      <rect class="cls-3" x="66.76" y="238.28" width="1.02" height="7.82" transform="translate(-27.68 9.45) rotate(-6.67)"/>
      <path class="cls-3" d="M134.59,185.74l-1.2-3.36c-1.7-4.77-6.47-7.73-11.5-7.14l-47.79,5.59c-5.96.7-10.23,6.1-9.53,12.06l13.6,116.3c.48,4.09,4.18,7.01,8.27,6.54l170.99-20c4.09-.48,7.01-4.18,6.54-8.27l-11.76-100.54c-.48-4.09-4.18-7.01-8.27-6.54l-99.29,11.61c-4.4.51-8.57-2.08-10.06-6.25Z"/>
      <g>
        <g>
          <rect class="cls-3" x="92.22" y="139.81" width="55.09" height="75.9" transform="translate(-32.43 26.84) rotate(-11.27)"/>
          <rect class="cls-10" x="92.22" y="139.81" width="55.09" height="75.9" transform="translate(-32.43 26.84) rotate(-11.27)"/>
        </g>
        <g class="cls-7">
          <path class="cls-3" d="M132.15,153.07l-33.28,6.63c-1.61.32-3.18-.73-3.5-2.34h0c-.32-1.61.73-3.18,2.34-3.5l33.28-6.63c1.61-.32,3.18.73,3.5,2.34h0c.32,1.61-.73,3.18-2.34,3.5Z"/>
          <path class="cls-3" d="M134.6,165.38l-33.28,6.63c-1.61.32-3.18-.73-3.5-2.34h0c-.32-1.61.73-3.18,2.34-3.5l33.28-6.63c1.61-.32,3.18.73,3.5,2.34h0c.32,1.61-.73,3.18-2.34,3.5Z"/>
          <path class="cls-3" d="M137.05,177.69l-33.28,6.63c-1.61.32-3.18-.73-3.5-2.34h0c-.32-1.61.73-3.18,2.34-3.5l33.28-6.63c1.61-.32,3.18.73,3.5,2.34h0c.32,1.61-.73,3.18-2.34,3.5Z"/>
          <path class="cls-3" d="M139.51,189.99l-33.28,6.63c-1.61.32-3.18-.73-3.5-2.34h0c-.32-1.61.73-3.18,2.34-3.5l33.28-6.63c1.61-.32,3.18.73,3.5,2.34h0c.32,1.61-.73,3.18-2.34,3.5Z"/>
          <path class="cls-3" d="M132.86,204.11l-24.18,4.82c-1.61.32-3.18-.73-3.5-2.34h0c-.32-1.61.73-3.18,2.34-3.5l24.18-4.82c1.61-.32,3.18.73,3.5,2.34h0c.32,1.61-.73,3.18-2.34,3.5Z"/>
        </g>
      </g>
      <g>
        <g>
          <rect class="cls-3" x="166.66" y="124.19" width="55.09" height="75.9" transform="translate(-20.19 27.83) rotate(-7.79)"/>
          <rect class="cls-10" x="166.66" y="124.19" width="55.09" height="75.9" transform="translate(-20.19 27.83) rotate(-7.79)"/>
        </g>
        <g class="cls-7">
          <path class="cls-3" d="M208.06,138.25l-33.62,4.6c-1.63.22-3.13-.92-3.36-2.55h0c-.22-1.63.92-3.13,2.55-3.36l33.62-4.6c1.63-.22,3.13.92,3.36,2.55h0c.22,1.63-.92,3.13-2.55,3.36Z"/>
          <path class="cls-3" d="M209.76,150.68l-33.62,4.6c-1.63.22-3.13-.92-3.36-2.55h0c-.22-1.63.92-3.13,2.55-3.36l33.62-4.6c1.63-.22,3.13.92,3.36,2.55h0c.22,1.63-.92,3.13-2.55,3.36Z"/>
          <path class="cls-3" d="M187.1,166.45l-9.26,1.27c-1.63.22-3.13-.92-3.36-2.55h0c-.22-1.63.92-3.13,2.55-3.36l9.26-1.27c1.63-.22,3.13.92,3.36,2.55h0c.22,1.63-.92,3.13-2.55,3.36Z"/>
          <path class="cls-3" d="M205.07,163.99l-9.26,1.27c-1.63.22-3.13-.92-3.36-2.55h0c-.22-1.63.92-3.13,2.55-3.36l9.26-1.27c1.63-.22,3.13.92,3.36,2.55h0c.22,1.63-.92,3.13-2.55,3.36Z"/>
          <path class="cls-3" d="M213.16,175.55l-33.62,4.6c-1.63.22-3.13-.92-3.36-2.55h0c-.22-1.63.92-3.13,2.55-3.36l33.62-4.6c1.63-.22,3.13.92,3.36,2.55h0c.22,1.63-.92,3.13-2.55,3.36Z"/>
          <path class="cls-3" d="M205.68,189.24l-24.43,3.34c-1.63.22-3.13-.92-3.36-2.55h0c-.22-1.63.92-3.13,2.55-3.36l24.43-3.34c1.63-.22,3.13.92,3.36,2.55h0c.22,1.63-.92,3.13-2.55,3.36Z"/>
        </g>
      </g>
      <g>
        <g>
          <rect class="cls-3" x="113.15" y="134.04" width="55.09" height="75.9" transform="translate(-14.4 12.87) rotate(-4.98)"/>
          <rect class="cls-9" x="113.15" y="134.04" width="55.09" height="75.9" transform="translate(-14.4 12.87) rotate(-4.98)"/>
        </g>
        <g class="cls-7">
          <path class="cls-3" d="M155.71,148.8l-33.81,2.95c-1.64.14-3.08-1.07-3.23-2.71h0c-.14-1.64,1.07-3.08,2.71-3.23l33.81-2.95c1.64-.14,3.08,1.07,3.23,2.71h0c.14,1.64-1.07,3.08-2.71,3.23Z"/>
          <path class="cls-3" d="M156.8,161.31l-33.81,2.95c-1.64.14-3.08-1.07-3.23-2.71h0c-.14-1.64,1.07-3.08,2.71-3.23l33.81-2.95c1.64-.14,3.08,1.07,3.23,2.71h0c.14,1.64-1.07,3.08-2.71,3.23Z"/>
          <path class="cls-3" d="M157.89,173.81l-33.81,2.95c-1.64.14-3.08-1.07-3.23-2.71h0c-.14-1.64,1.07-3.08,2.71-3.23l33.81-2.95c1.64-.14,3.08,1.07,3.23,2.71h0c.14,1.64-1.07,3.08-2.71,3.23Z"/>
          <path class="cls-3" d="M158.98,186.31l-33.81,2.95c-1.64.14-3.08-1.07-3.23-2.71h0c-.14-1.64,1.07-3.08,2.71-3.23l33.81-2.95c1.64-.14,3.08,1.07,3.23,2.71h0c.14,1.64-1.07,3.08-2.71,3.23Z"/>
          <path class="cls-3" d="M150.83,199.62l-24.57,2.14c-1.64.14-3.08-1.07-3.23-2.71h0c-.14-1.64,1.07-3.08,2.71-3.23l24.57-2.14c1.64-.14,3.08,1.07,3.23,2.71h0c.14,1.64-1.07,3.08-2.71,3.23Z"/>
        </g>
      </g>
      <g>
        <g>
          <rect class="cls-3" x="178.5" y="129.38" width="55.09" height="75.9" transform="translate(-7.83 10.13) rotate(-2.76)"/>
          <rect class="cls-9" x="178.5" y="129.38" width="55.09" height="75.9" transform="translate(-7.83 10.13) rotate(-2.76)"/>
        </g>
        <g class="cls-7">
          <path class="cls-3" d="M221.94,144.75l-33.9,1.64c-1.64.08-3.04-1.19-3.12-2.83h0c-.08-1.64,1.19-3.04,2.83-3.12l33.9-1.64c1.64-.08,3.04,1.19,3.12,2.83h0c.08,1.64-1.19,3.04-2.83,3.12Z"/>
          <path class="cls-3" d="M222.55,157.28l-33.9,1.64c-1.64.08-3.04-1.19-3.12-2.83h0c-.08-1.64,1.19-3.04,2.83-3.12l33.9-1.64c1.64-.08,3.04,1.19,3.12,2.83h0c.08,1.64-1.19,3.04-2.83,3.12Z"/>
          <path class="cls-3" d="M198.6,171.01l-9.34.45c-1.64.08-3.04-1.19-3.12-2.83h0c-.08-1.64,1.19-3.04,2.83-3.12l9.34-.45c1.64-.08,3.04,1.19,3.12,2.83h0c.08,1.64-1.19,3.04-2.83,3.12Z"/>
          <path class="cls-3" d="M216.71,170.13l-9.34.45c-1.64.08-3.04-1.19-3.12-2.83h0c-.08-1.64,1.19-3.04,2.83-3.12l9.34-.45c1.64-.08,3.04,1.19,3.12,2.83h0c.08,1.64-1.19,3.04-2.83,3.12Z"/>
          <path class="cls-3" d="M223.76,182.35l-33.9,1.64c-1.64.08-3.04-1.19-3.12-2.83h0c-.08-1.64,1.19-3.04,2.83-3.12l33.9-1.64c1.64-.08,3.04,1.19,3.12,2.83h0c.08,1.64-1.19,3.04-2.83,3.12Z"/>
          <path class="cls-3" d="M215.1,195.34l-24.63,1.19c-1.64.08-3.04-1.19-3.12-2.83h0c-.08-1.64,1.19-3.04,2.83-3.12l24.63-1.19c1.64-.08,3.04,1.19,3.12,2.83h0c.08,1.64-1.19,3.04-2.83,3.12Z"/>
        </g>
      </g>
      <g>
        <path class="cls-3" d="M149.85,187.89l-.88-3.29c-1.24-4.67-5.69-7.56-10.71-6.97l-47.79,5.59c-5.96.7-10.68,5.99-10.54,11.83l2.71,113.84c.1,4,3.49,6.86,7.58,6.38l170.99-20c4.09-.48,7.33-4.11,7.23-8.11l-2.34-98.41c-.1-4-3.49-6.86-7.58-6.38l-99.29,11.61c-4.4.51-8.28-2.01-9.37-6.09Z"/>
        <path class="cls-16" d="M149.85,187.89l-.88-3.29c-1.24-4.67-5.69-7.56-10.71-6.97l-47.79,5.59c-5.96.7-10.68,5.99-10.54,11.83l2.71,113.84c.1,4,3.49,6.86,7.58,6.38l170.99-20c4.09-.48,7.33-4.11,7.23-8.11l-2.34-98.41c-.1-4-3.49-6.86-7.58-6.38l-99.29,11.61c-4.4.51-8.28-2.01-9.37-6.09Z"/>
      </g>
    </g>
  </g>
  <g id="Character">
    <g>
      <path class="cls-14" d="M317.03,133.16c-.74,3.72-1.53,7.37-2.42,11.02-.87,3.65-1.76,7.3-2.73,10.93l-1.48,5.44-.19.69c-.09.3-.19.6-.3.91-.23.62-.53,1.27-.98,1.93-.44.66-1.05,1.35-1.87,1.9-.81.55-1.82.9-2.73.99-1.86.15-3.2-.41-4.29-.95-1.09-.57-1.97-1.23-2.78-1.92-1.61-1.41-2.88-2.89-4.07-4.59l2.78-2.5c1.36,1.03,2.86,2.08,4.3,2.85.71.39,1.43.72,2.06.89.61.2,1.15.17,1.16.07.01-.04-.1-.04-.15-.03-.06,0-.05-.03,0-.17.04-.13.12-.35.18-.61l.23-1.1,1.17-5.46,2.35-10.92c.76-3.64,1.58-7.29,2.37-10.89l7.39,1.53Z"/>
      <path class="cls-12" d="M313.68,121.73c-8.53,6.53-8.19,18.84-8.19,18.84l15.26,3.65s4.68-12.37,2.78-16.9c-1.98-4.73-5.05-9.26-9.85-5.58Z"/>
      <path class="cls-14" d="M296.76,157.2l-5.61-5.61-3.03,8.78s4.74,2.56,9.27.15l-.63-3.31Z"/>
      <polygon class="cls-14" points="283.38 150.72 282.35 157.66 288.12 160.36 291.15 151.59 283.38 150.72"/>
      <polygon class="cls-14" points="363.12 353.91 354.54 354.74 345.61 334.32 354.19 333.48 363.12 353.91"/>
      <polygon class="cls-14" points="418.4 323.71 411.95 329.76 398.04 314.47 404.49 308.42 418.4 323.71"/>
      <path class="cls-12" d="M408.98,326.86l4.84-8.73c.18-.32.54-.45.87-.33l7.46,2.84c.77.29,1.11,1.29.69,2.01-1.74,3.01-2.73,4.38-4.86,8.22-1.31,2.36-3.86,7.78-5.67,11.04-1.77,3.19-5.13,1.64-4.67.12,2.07-6.81,1.68-10.61,1.1-13.61-.11-.54-.01-1.1.24-1.56Z"/>
      <path class="cls-12" d="M353.4,352.09h10.54c.38,0,.73.27.83.64l2.29,8.34c.24.86-.4,1.66-1.29,1.67-3.71.03-5.47.02-10.11.02h-14.16c-3.85,0-4.66-3.89-3.06-4.25,7.14-1.58,11.26-3.76,13.47-5.84.4-.38.93-.58,1.49-.58Z"/>
      <polygon class="cls-15" points="345.62 334.33 350.22 344.85 359.17 344.85 354.2 333.49 345.62 334.33"/>
      <polygon class="cls-15" points="404.49 308.42 398.04 314.48 405.22 322.36 411.67 316.3 404.49 308.42"/>
      <path class="cls-12" d="M316.26,120.46s-3.86,1.7,9.08,52.9c14.26-1.23,29-2.51,35.94-3.11-1.87-14.58-2.67-23.6,1.73-54.22,0,0-7.67-.99-15.44-.69-6.07.23-11.05.47-16.32,1.41-6.95,1.25-15,3.71-15,3.71Z"/>
      <path class="cls-11" d="M347.58,115.09s2.04.04,4.45.04c1.45,2.23-3.26,12-11.04,18.39-1.87-5.83-6.25-9.06-6.25-9.06l12.84-9.37Z"/>
      <path class="cls-11" d="M331.26,116.62s-.91.13-3.08.63c-1.45,2.23-3.9,11.76.37,16.62,1.66-6,6.19-9.41,6.19-9.41l-3.48-7.84Z"/>
      <path class="cls-14" d="M344.37,97.1c-.58,5.34-.77,15.05,3.21,18.24,0,0-4.25,4.34-12.84,9.12-6.25-4.32-3.48-7.71-3.48-7.71,5.74-1.9,5.21-6.24,3.84-10.23l9.28-9.42Z"/>
      <g>
        <path class="cls-3" d="M334.59,124.49s5.27-5.74,7.99-4.64.62,3.07.38,4.91c-.24,1.85,1.06,6.77-2.59,5.49-3.65-1.28-5.78-5.77-5.78-5.77Z"/>
        <path class="cls-3" d="M334.38,124.37s-2.49-4.4-5.18-3.82c-2.69.59-1.09,2.13-.85,3.79.31,2.13-1.94,6.2,1.31,5.05,3.16-1.12,4.72-5.02,4.72-5.02Z"/>
        <g class="cls-15">
          <path d="M333.01,123.42c.03,1.23.2,2.08.5,2.59.57-.91.86-1.63.86-1.63,0,0-.48-.86-1.27-1.77-.08.2-.1.47-.09.81Z"/>
          <path d="M336.51,122.63c-1.13.99-1.91,1.85-1.91,1.85,0,0,.36.75,1.03,1.73.45-.38.81-1.07.97-2.27.09-.62.04-1.03-.09-1.31Z"/>
        </g>
        <path class="cls-3" d="M334.53,126.29c-.74,0-1.2-.81-1.26-2.75-.05-1.93,1.43-.86,1.43-.86,0,0,1.98-1.03,1.64,1.32-.26,1.83-1.04,2.29-1.81,2.29Z"/>
      </g>
      <path class="cls-15" d="M340.59,100.94l-5.49,5.57c.33.94.6,1.91.75,2.85,2.21-.52,5.41-2.81,5.44-5.18.02-1.18-.47-2.72-.7-3.25Z"/>
      <path class="cls-12" d="M335.88,79.06s-5.98,8.31-6.97,12.04c-4.08,2.37-4.91-9.33-2.74-16.56,6.7,4.18,9.71,4.51,9.71,4.51Z"/>
      <path class="cls-14" d="M349.07,88.76c-2.23,8.53-2.99,12.19-8.22,15.76-7.87,5.38-17.86.78-18.23-8.25-.33-8.12,3.37-20.71,12.5-22.48,8.99-1.75,16.18,6.44,13.95,14.97Z"/>
      <path class="cls-12" d="M353.71,85.35s-4.29,6.94-4.86,9.96c-3.11,2.12-4.42-7.14-3.11-13.01,1.43-5.17,7.97,3.04,7.97,3.04Z"/>
      <path class="cls-12" d="M352,80.52c-1.24.94-2.55-2.53-1.31-5.19-2.37.15-5.22-1.26-4.62-3.55-4.67,1.56-6.4-3.19-5.86-6.47.65-3.97,4.13-4.85,6.18-3.8.04-1.79,4.52-5.52,6.24-2.6,3.19-1.13,8.33-.78,8.23,3.14,2.11.07,8.33,2.45,6.04,8.05,2.75.16,4.23,3.66,2.71,6.29,3.52,2.06,2.22,5.65.88,6.9,1.27,2.64-2.59,6.56-4.63,6.09-1.56,2.4-3.95,4.19-5.52,2.15-3.04,2.21-6.44-.59-5.67-2.76-3.44-.57-6.92-6.25-2.66-8.26Z"/>
      <path class="cls-3" d="M357.08,72.12c2.24,3.74,2.05,7.97-.42,9.45s-6.29-.35-8.53-4.09c-2.24-3.74-2.05-7.97.42-9.45s6.29.35,8.53,4.09Z"/>
      <path class="cls-12" d="M336.28,78.01c-.14,1.07-3.09.8-3.94-1.09-1.22,1.28-4.09,1.94-5.07.55-1.66,3.12-4.98,2.3-5.85.8-.87-1.5-1.43-4.26.29-4.8-1-.87-.7-4.91,1.92-4.41,1.1-2.16,4.12-4.61,6.31-2.7,1.19-1.04,5.98-3.08,7.94.74,1.6-1.32,4.42-.42,5.1,1.6,3.12-.81,4.46,1.55,4.45,2.82,2.21.6,2.36,4.42.97,5.24.52,1.93.25,4-1.79,3.83-.39,2.59-3.87,3-4.69,1.58-2.21,1.48-6.83-1.04-5.65-4.16Z"/>
      <path class="cls-12" d="M331.02,70.67c2.53-3.5,11.76-4.96,19.75.29,7.2,4.73,6.73,15.71,1.01,15.13-5.72-.58-11.39-7.3-11.39-7.3l-9.37-8.12Z"/>
      <path class="cls-14" d="M349.77,96.46c-.84,1.62-2.35,2.71-3.79,3.14-2.16.65-3.29-1.27-2.73-3.34.51-1.86,2.24-4.44,4.43-4.18,2.16.25,3.04,2.52,2.08,4.38Z"/>
      <path class="cls-3" d="M325.34,173.36s-12.16,53.8-4.04,91.72c5.44,25.4,25.05,76.72,25.05,76.72l15.33-.39s-14.84-53.85-17.91-75.03c-5.25-36.23,7.9-95.29,7.9-95.29l-26.32,2.28Z"/>
      <path class="cls-15" d="M339.36,184.22l7.67,12.09c-1.95,12.54-3.89,28.22-4.39,43.31-10.78-19.3-5.68-45.18-3.28-55.4Z"/>
      <polygon class="cls-12" points="344.18 342.6 363.12 342.11 362.03 336.29 342.7 337.21 344.18 342.6"/>
      <path class="cls-3" d="M333.2,172.79s7.13,57.05,22.6,88.2c12.49,25.16,45.82,60.97,45.82,60.97l8.52-8.78s-22.51-38.92-31.8-55.63c-22.76-40.98-4.16-72.25-17.06-87.29l-28.09,2.54Z"/>
      <polygon class="cls-12" points="400.76 323.14 411.76 312.41 408.11 307.45 396.44 319.09 400.76 323.14"/>
      <g>
        <path class="cls-3" d="M361.64,168.1l1.9,3.08c.15.24-.13.52-.54.55l-37.7,3.26c-.32.03-.61-.11-.64-.31l-.6-3.19c-.04-.22.22-.43.58-.46l36.4-3.15c.27-.02.51.07.61.22Z"/>
        <path class="cls-8" d="M361.64,168.1l1.9,3.08c.15.24-.13.52-.54.55l-37.7,3.26c-.32.03-.61-.11-.64-.31l-.6-3.19c-.04-.22.22-.43.58-.46l36.4-3.15c.27-.02.51.07.61.22Z"/>
      </g>
      <path class="cls-3" d="M357.1,172.59l.97-.08c.19-.02.33-.13.31-.25l-.82-4.14c-.02-.12-.2-.21-.4-.19l-.97.08c-.19.02-.33.13-.31.25l.82,4.14c.02.12.2.21.4.19Z"/>
      <path class="cls-3" d="M328.07,175.1l.97-.08c.19-.02.33-.13.31-.25l-.82-4.14c-.02-.12-.2-.21-.4-.19l-.97.08c-.19.02-.33.13-.31.25l.82,4.14c.02.12.2.21.4.19Z"/>
      <path class="cls-3" d="M342.59,173.84l.97-.08c.19-.02.33-.13.31-.25l-.82-4.14c-.02-.12-.2-.21-.4-.19l-.97.08c-.19.02-.33.13-.31.25l.82,4.14c.02.12.2.21.4.19Z"/>
      <path class="cls-12" d="M334.63,88.46c-.14.7-.62,1.2-1.08,1.11-.46-.09-.72-.73-.58-1.44.14-.7.62-1.2,1.08-1.11.46.09.72.73.58,1.44Z"/>
      <path class="cls-12" d="M326.68,86.9c-.14.7-.62,1.2-1.08,1.11-.46-.09-.72-.73-.58-1.44.14-.7.62-1.2,1.08-1.11.46.09.72.73.58,1.44Z"/>
      <path class="cls-12" d="M326.3,85.54l-1.59-.82s.61,1.49,1.59.82Z"/>
      <path class="cls-1" d="M329.41,88.65s-1.79,2.79-3.39,3.99c.76,1.05,2.41.96,2.41.96l.97-4.96Z"/>
      <path class="cls-12" d="M331.69,96.96c2.49,0,3.94-1.45,4.01-1.52.07-.07.07-.18,0-.25-.07-.07-.18-.07-.25,0-.02.02-1.91,1.9-5,1.29-.1-.02-.19.04-.21.14-.02.1.04.19.14.21.47.09.9.13,1.31.13Z"/>
      <path class="cls-12" d="M339.4,85.74c.06,0,.12-.02.18-.05.17-.1.22-.31.12-.48-1.18-1.96-3.09-2.05-3.17-2.05-.2,0-.35.14-.36.34,0,.19.14.35.34.36.07,0,1.61.09,2.59,1.71.07.11.18.17.3.17Z"/>
      <path class="cls-12" d="M324.48,82.92c.06,0,.12-.01.17-.04,1.67-.93,3.09-.21,3.1-.2.17.09.38.02.47-.15.09-.17.02-.38-.15-.47-.07-.04-1.77-.91-3.77.21-.17.09-.23.31-.14.48.06.11.18.18.31.18Z"/>
      <path class="cls-14" d="M364.54,124.21c.68.66,1.15,1.17,1.68,1.77.51.58,1,1.17,1.48,1.76.96,1.19,1.86,2.41,2.71,3.66,1.68,2.52,3.19,5.16,4.47,7.91,1.3,2.74,2.31,5.63,3.12,8.57.38,1.48.73,2.96.99,4.47.35,1.58.48,4.15-.68,6.32-.56,1.09-1.38,1.99-2.24,2.66-.86.67-1.75,1.14-2.61,1.5-1.73.7-3.38,1-4.97,1.18-3.18.33-6.18.21-9.13-.12-5.89-.67-11.51-1.91-17.1-3.63l.91-3.63c2.72.45,5.52.87,8.29,1.16,2.77.32,5.54.55,8.27.61,2.72.04,5.44,0,7.9-.43,1.22-.22,2.38-.54,3.26-.97.9-.44,1.36-.95,1.47-1.31.07-.19.12-.4.12-.72,0-.16-.02-.34-.04-.54-.04-.21-.06-.39-.16-.75-.28-1.29-.65-2.56-1.04-3.81-.81-2.52-1.86-4.95-3.04-7.32-1.18-2.38-2.56-4.66-4.08-6.84-.75-1.1-1.54-2.17-2.36-3.2-.41-.52-.83-1.02-1.26-1.51-.4-.48-.89-1.02-1.22-1.36l5.26-5.42Z"/>
      <path class="cls-14" d="M345.45,157.18l-7.01-3.71-.31,9.28s4.95.31,7.86-1.97l-.53-3.6Z"/>
      <g>
        <g>
          <g>
            <polygon class="cls-3" points="333.17 207.05 338.95 144.24 326.6 134.78 288.9 131.31 282.35 202.37 333.17 207.05"/>
            <polygon class="cls-9" points="333.17 207.05 338.95 144.24 326.6 134.78 288.9 131.31 282.35 202.37 333.17 207.05"/>
          </g>
          <polygon class="cls-3" points="338.95 144.24 326.6 134.78 329.84 146.1 338.95 144.24"/>
        </g>
        <g>
          <circle class="cls-3" cx="286.77" cy="197.95" r="15.4"/>
          <circle class="cls-11" cx="286.77" cy="197.95" r="12.28" transform="translate(-60.96 220.39) rotate(-38.31)"/>
          <polygon class="cls-3" points="294.36 196.87 288.94 196.23 289.58 190.82 285.69 190.36 285.06 195.78 279.64 195.14 279.18 199.03 284.6 199.66 283.96 205.08 287.85 205.54 288.48 200.12 293.9 200.75 294.36 196.87"/>
        </g>
        <path class="cls-4" d="M329.73,157.25h0c-.21,2.31-2.26,4.01-4.57,3.8l-27.5-2.53c-2.31-.21-4.01-2.26-3.8-4.57h0c.21-2.31,2.26-4.01,4.57-3.8l27.5,2.53c2.31.21,4.01,2.26,3.8,4.57Z"/>
        <path class="cls-4" d="M320.36,168.6h0c-.21,2.31-2.26,4.01-4.57,3.8l-19.22-1.77c-2.31-.21-4.01-2.26-3.8-4.57h0c.21-2.31,2.26-4.01,4.57-3.8l19.22,1.77c2.31.21,4.01,2.26,3.8,4.57Z"/>
      </g>
      <polygon class="cls-14" points="334.16 154.02 335.22 160.95 338.12 162.74 338.44 153.46 334.16 154.02"/>
      <path class="cls-12" d="M363.01,116.03c4.41.78,10.58,13.42,10.58,13.42l-11.11,10.05s-8.83-9.64-8.36-15.38c.4-4.87,3.28-9.08,8.89-8.09Z"/>
      <path class="cls-3" d="M407.28,331.55c.11,0,.23-.02.34-.06,1.05-.36,1.75-2.31,2.06-3.44.02-.07,0-.14-.06-.18-.05-.04-.13-.05-.19-.02-.32.17-3.14,1.67-3.23,2.78-.01.17.03.42.3.62.26.19.51.29.77.29ZM409.23,328.37c-.49,1.56-1.12,2.59-1.72,2.8-.26.09-.52.03-.79-.18-.16-.12-.17-.24-.16-.31.06-.68,1.71-1.75,2.67-2.3Z"/>
      <path class="cls-3" d="M406.84,328.81c1,0,2.23-.32,2.76-.65.05-.03.08-.09.08-.15,0-.06-.04-.12-.09-.15-.09-.05-2.32-1.28-3.52-.85-.31.11-.53.32-.66.62-.19.47.02.74.16.86.27.23.73.32,1.26.32ZM409.13,328.01c-.95.41-2.8.66-3.33.22-.09-.07-.17-.19-.06-.47.08-.21.23-.35.45-.42.82-.29,2.3.36,2.94.67Z"/>
      <path class="cls-3" d="M348.73,353.8c1.01,0,2.11-.2,2.88-.36.07-.02.13-.08.14-.15,0-.07-.03-.15-.1-.18-.43-.2-4.26-1.97-5.22-1.32-.12.08-.27.24-.25.54.02.41.2.74.52.99.48.36,1.23.49,2.03.49ZM351,353.2c-1.14.21-3.23.49-4.1-.16-.24-.18-.36-.42-.38-.73,0-.14.05-.2.1-.23.54-.37,2.8.43,4.39,1.12Z"/>
      <path class="cls-3" d="M351.56,353.44s.08-.01.11-.04c.05-.04.07-.11.06-.17-.04-.16-.9-3.93-2.98-3.69-.52.06-.66.32-.69.53-.13.96,2.28,2.9,3.43,3.37.02,0,.04.01.07.01ZM348.94,349.87c1.33,0,2.1,2.19,2.35,3.07-1.25-.65-2.97-2.22-2.89-2.84,0-.05.02-.18.39-.23.05,0,.1,0,.15,0Z"/>
      <path class="cls-12" d="M334.24,87.11l-1.59-.82s.61,1.49,1.59.82Z"/>
    </g>
  </g>
</svg>