<?xml version="1.0" encoding="UTF-8"?>
<svg xmlns="http://www.w3.org/2000/svg" xmlns:xlink="http://www.w3.org/1999/xlink" version="1.1" viewBox="0 0 650 300">
  <!-- Generator: Adobe Illustrator 29.3.0, SVG Export Plug-In . SVG Version: 2.1.0 Build 146)  -->
  <defs>
    <style>
      .st0 {
        fill: #816fc2;
      }

      .st1, .st2, .st3, .st4, .st5, .st6, .st7, .st8, .st9, .st10, .st11, .st12, .st13, .st14, .st15, .st16, .st17, .st18, .st19, .st20 {
        fill: none;
      }

      .st21 {
        fill: #75a5cd;
        mix-blend-mode: multiply;
        opacity: .4;
      }

      .st22 {
        fill: #2e7efa;
      }

      .st23 {
        fill: #d2def9;
      }

      .st24 {
        fill: #00276f;
      }

      .st25 {
        fill: #cc328a;
      }

      .st26 {
        fill: #0b0b3a;
      }

      .st2, .st3, .st4, .st8, .st10, .st11, .st13, .st19, .st20 {
        stroke-miterlimit: 10;
      }

      .st2, .st6, .st11 {
        stroke: #fff;
      }

      .st2, .st13 {
        stroke-width: 11px;
      }

      .st27 {
        fill: url(#linear-gradient);
      }

      .st3 {
        stroke: #5565aa;
      }

      .st3, .st10, .st12, .st18, .st19, .st20 {
        stroke-width: .8px;
      }

      .st28 {
        fill: #e9f1ff;
      }

      .st29 {
        fill: #ff9357;
      }

      .st4, .st5 {
        stroke: #ff9c94;
      }

      .st4, .st6, .st8, .st11 {
        stroke-width: 1.5px;
      }

      .st5 {
        stroke-miterlimit: 10;
        stroke-width: 1.5px;
      }

      .st6, .st12, .st16, .st17, .st18 {
        stroke-linejoin: round;
      }

      .st30 {
        fill: #e39a50;
      }

      .st31 {
        isolation: isolate;
      }

      .st32 {
        fill: #9cd0ff;
      }

      .st33 {
        fill: #2a2a68;
      }

      .st34 {
        clip-path: url(#clippath-1);
      }

      .st35 {
        clip-path: url(#clippath-3);
      }

      .st36 {
        clip-path: url(#clippath-2);
      }

      .st7 {
        stroke-miterlimit: 10;
        stroke-width: 1.5px;
      }

      .st7, .st8, .st9, .st13, .st14, .st15 {
        stroke: #91abe5;
      }

      .st9 {
        stroke-miterlimit: 10;
        stroke-width: 1.5px;
      }

      .st37 {
        fill: #ff855a;
      }

      .st38 {
        fill: #4376cf;
      }

      .st39 {
        fill: #fff;
      }

      .st40 {
        fill: #18277a;
      }

      .st10 {
        stroke: #4c3f89;
      }

      .st41 {
        fill: #83a3fc;
      }

      .st42 {
        fill: #212237;
      }

      .st43 {
        opacity: .4;
      }

      .st44 {
        opacity: .3;
      }

      .st45 {
        opacity: .2;
      }

      .st46 {
        opacity: .2;
      }

      .st47 {
        fill: #f777ba;
      }

      .st48 {
        fill: #ffe1ad;
      }

      .st49 {
        fill: #b15353;
      }

      .st50 {
        fill: #e9f2ff;
      }

      .st51 {
        fill: #b5c8f7;
      }

      .st12 {
        stroke: #1a3987;
      }

      .st14 {
        stroke-miterlimit: 10;
        stroke-width: 11px;
      }

      .st15 {
        stroke-miterlimit: 10;
        stroke-width: 11px;
      }

      .st52 {
        fill: #9fbfff;
      }

      .st53 {
        fill: #ffc7ca;
      }

      .st16 {
        stroke: #00276f;
        stroke-linecap: round;
      }

      .st16, .st17 {
        stroke-width: .5px;
      }

      .st17, .st18 {
        stroke: #cc328a;
      }

      .st19 {
        stroke: #d19b4b;
      }

      .st20 {
        stroke: #a52f2d;
      }

      .st54 {
        clip-path: url(#clippath);
      }

      .st55 {
        fill: #e4973f;
      }
    </style>
    <linearGradient id="linear-gradient" x1="0" y1="150.4" x2="650" y2="150.4" gradientUnits="userSpaceOnUse">
      <stop offset="0" stop-color="#fff"/>
      <stop offset="1" stop-color="#aae3ff"/>
    </linearGradient>
    <clipPath id="clippath">
      <path class="st1" d="M529.4,216.3c-1.5-.1-2.4,1.6-1.5,2.8,1.8,2.2,2.8,5,2.6,7.9-.5,6.7-7,11.7-14.7,11.2-7.6-.5-13.4-6.4-13-13.1.2-2.9,1.6-5.5,3.7-7.5,1.1-1,.4-2.8-1-2.9l-18.6-1.3c-3.9-.3-7.2,2.6-7.5,6.5l-1.3,18c-.1,1.4,1.5,2.3,2.7,1.5,2.1-1.5,4.6-2.3,7.2-2.1,6.7.5,11.7,7,11.2,14.7-.5,7.6-6.4,13.4-13.1,13-2.6-.2-5-1.3-6.9-3.1-1.1-1-2.8-.3-2.9,1.1l-1.3,18c-.3,3.9,2.6,7.2,6.5,7.5l61,4.3c3.9.3,7.2-2.6,7.5-6.5l4.3-61c.3-3.9-2.6-7.2-6.5-7.5l-18.6-1.3Z"/>
    </clipPath>
    <clipPath id="clippath-1">
      <path class="st1" d="M455.2,187.2c-6.7-.8-11.3-7.7-10.3-15.3,1-7.6,7.1-13.1,13.8-12.2,2.8.4,5.2,1.8,7.1,3.9,1,1.1,2.8.5,3-.9l2.3-18.2c.5-3.9-2.3-7.4-6.1-7.9l-60.7-7.6c-3.9-.5-7.4,2.3-7.9,6.1l-7.6,60.7c-.5,3.9,2.3,7.4,6.1,7.9l18.5,2.3c1.5.2,2.5-1.5,1.6-2.7-1.7-2.3-2.6-5.2-2.2-8.1.8-6.7,7.7-11.3,15.3-10.3,7.6,1,13.1,7.1,12.2,13.8-.4,2.9-1.9,5.5-4.2,7.3-1.2.9-.6,2.8.9,3l18.5,2.3c3.9.5,7.4-2.3,7.9-6.1l2.3-18.2c.2-1.5-1.4-2.5-2.6-1.6-2.3,1.6-5,2.3-7.8,2Z"/>
    </clipPath>
    <clipPath id="clippath-2">
      <path class="st1" d="M543.5,132.6l-61.1-.6c-3.9,0-7.1,3.1-7.1,7l-.2,18.1c0,1.4-1.7,2.2-2.8,1.3-2-1.7-4.5-2.7-7.2-2.8-6.7,0-12.2,6.1-12.3,13.7,0,7.7,5.3,13.9,12,14,2.7,0,5.2-.9,7.2-2.6,1.1-.9,2.8,0,2.8,1.3l-.2,18.1c0,3.9,3.1,7.1,7,7.1l18.7.2c1.5,0,2.3,1.8,1.2,2.9-2,2.1-3.3,4.8-3.3,7.8,0,6.7,6.1,12.2,13.7,12.3,7.7,0,13.9-5.3,14-12,0-3-1.2-5.7-3.1-7.8-1-1.1-.2-2.9,1.3-2.9l18.7.2c3.9,0,7.1-3.1,7.1-7l.6-61.1c0-3.9-3.1-7.1-7-7.1Z"/>
    </clipPath>
    <clipPath id="clippath-3">
      <path class="st1" d="M475.9,236.6c-2.8.2-5.3,1.4-7.2,3.3-1,1-2.8.3-2.9-1.1l-1-18.3c-.2-3.9-3.5-6.9-7.4-6.6l-18.6,1c-1.5,0-2.4-1.7-1.4-2.8,1.9-2.2,2.9-5,2.7-7.9-.4-6.7-6.9-11.8-14.5-11.4-7.6.4-13.5,6.2-13.2,12.9.2,2.9,1.5,5.6,3.6,7.5,1.1,1,.4,2.8-1.1,2.9l-18.6,1c-3.9.2-6.9,3.5-6.6,7.4l3.4,61.1c.2,3.9,3.5,6.9,7.4,6.6l61.1-3.4c3.9-.2,6.9-3.5,6.6-7.4l-1-18.3c0-1.5,1.6-2.3,2.7-1.4,2.1,1.7,4.8,2.6,7.6,2.5,6.7-.4,11.8-6.9,11.4-14.5-.4-7.6-6.2-13.5-12.9-13.2Z"/>
    </clipPath>
  </defs>
  <g class="st31">
    <g id="Layer_2">
      <rect class="st27" width="650" height="300.9"/>
    </g>
    <g id="Layer_1">
      <path id="die" class="st50" d="M331,300.9c-25.8-45.4-22.3-96.4,6.1-126.6,3.5-3.7,28.2-29.9,62.6-33.6,5.7-.6,17.1-1.2,30-1.9,20.5-1.1,29.4-1.5,42.1-4.8,5.4-1.4,11.2-3.6,18-7.2,20.2-10.7,29.6-23.1,51.5-24,13.7-.5,24.2,3.8,29.6,6.1,38.6,16.3,65.9,63.3,66.8,109,.7,39.2-18.2,68.6-28.4,82l-278.3.8Z"/>
      <g id="Message_1">
        <polygon class="st21" points="569.6 121.5 566.6 139.7 541.2 140.2 536.4 147.3 536.4 140.3 536.4 134.3 536.4 121.5 569.6 121.5"/>
        <polygon class="st49" points="571.6 119.5 568.6 137.7 543.3 138.2 538.4 145.3 538.4 138.2 538.4 132.3 538.4 119.4 571.6 119.5"/>
        <g>
          <circle class="st39" cx="562.9" cy="128.9" r="1.5"/>
          <circle class="st39" cx="554.5" cy="128.9" r="1.5"/>
          <circle class="st39" cx="546" cy="128.8" r="1.5"/>
        </g>
      </g>
      <g id="Message_2">
        <polygon class="st21" points="396.4 112.3 429 113.8 430.3 140 424.2 133 398.6 131.8 396.4 112.3"/>
        <polygon class="st55" points="398.3 111.3 431 112.9 432.2 139.1 426.1 132 400.5 130.8 398.3 111.3"/>
        <g>
          <g>
            <rect class="st39" x="404.3" y="125.2" width="2.8" height="2.8" transform="translate(6.4 -19) rotate(2.7)"/>
            <rect class="st39" x="409.6" y="123.9" width="2.8" height="4.4" transform="translate(6.4 -19.2) rotate(2.7)"/>
            <rect class="st39" x="414.9" y="121.7" width="2.8" height="6.8" transform="translate(6.4 -19.5) rotate(2.7)"/>
            <rect class="st39" x="420.2" y="119.3" width="2.8" height="9.5" transform="translate(6.3 -19.7) rotate(2.7)"/>
          </g>
          <g>
            <path class="st39" d="M422.1,116.4c-3.9,3.1-8.6,5.2-13.4,6.4-1.6.4-3.3.7-4.9.9.8,0,1.6-.2,2.5-.4,3.6-.7,7-1.9,10.2-3.6.8-.4,1.6-.9,2.4-1.4,1-.7,2.1-1.4,3-2.2.2-.2.4.1.2.3h0Z"/>
            <polygon class="st39" points="423 114.8 420.1 115.8 422.3 117.8 423 114.8"/>
          </g>
        </g>
      </g>
      <g id="decor_1">
        <path class="st55" d="M412.8,145.7c-1.2.4-1.5.7-1.8,1.8-.4-1.2-.7-1.5-1.8-1.8,1.2-.4,1.5-.7,1.8-1.8.4,1.2.7,1.5,1.8,1.8Z"/>
        <path class="st55" d="M579.9,140.3c-2.5.8-3.1,1.4-3.9,3.9-.8-2.5-1.4-3.1-3.9-3.9,2.5-.8,3.1-1.4,3.9-3.9.8,2.5,1.4,3.1,3.9,3.9Z"/>
        <path class="st55" d="M424.3,160c-2.8.9-3.5,1.6-4.3,4.3-.9-2.8-1.6-3.5-4.3-4.3,2.8-.9,3.5-1.6,4.3-4.3.9,2.8,1.6,3.5,4.3,4.3Z"/>
        <path class="st55" d="M583.2,153c-1.6.5-2,.9-2.5,2.5-.5-1.6-.9-2-2.5-2.5,1.6-.5,2-.9,2.5-2.5.5,1.6.9,2,2.5,2.5Z"/>
        <path class="st55" d="M534.2,161.2c-1.5.5-1.9.9-2.4,2.4-.5-1.5-.9-1.9-2.4-2.4,1.5-.5,1.9-.9,2.4-2.4.5,1.5.9,1.9,2.4,2.4Z"/>
      </g>
      <g id="decor_2">
        <g>
          <circle class="st39" cx="335.3" cy="220.8" r="5"/>
          <g>
            <circle class="st30" cx="335.3" cy="219.2" r="1.6"/>
            <path class="st30" d="M335.2,221.2h.1c1.5,0,2.7,1.2,2.7,2.7h-5.5c0-1.5,1.2-2.7,2.7-2.7Z"/>
          </g>
        </g>
        <g>
          <circle class="st39" cx="329.5" cy="211.8" r="1.9"/>
          <polygon class="st30" points="329.5 211 330.2 210.6 330.1 211.4 330.7 212 329.9 212.2 329.5 212.9 329.1 212.2 328.2 212 328.9 211.4 328.7 210.6 329.5 211"/>
        </g>
        <g>
          <circle class="st30" cx="339.2" cy="210.8" r="3.1"/>
          <g>
            <circle class="st39" cx="339.2" cy="209.8" r="1"/>
            <path class="st39" d="M339.2,211h0c.9,0,1.7.7,1.7,1.7h-3.4c0-.9.7-1.7,1.7-1.7Z"/>
          </g>
        </g>
        <g>
          <circle class="st30" cx="617.3" cy="195" r="5"/>
          <g>
            <circle class="st39" cx="617.3" cy="193.4" r="1.6"/>
            <path class="st39" d="M617.2,195.4h.1c1.5,0,2.7,1.2,2.7,2.7h-5.5c0-1.5,1.2-2.7,2.7-2.7Z"/>
          </g>
        </g>
        <g>
          <circle class="st39" cx="625.5" cy="186" r="3.3"/>
          <g>
            <circle class="st30" cx="625.5" cy="185" r="1"/>
            <path class="st30" d="M625.5,186.3h0c1,0,1.8.8,1.8,1.8h-3.6c0-1,.8-1.8,1.8-1.8Z"/>
          </g>
        </g>
      </g>
      <g id="OBJECTS">
        <g>
          <g>
            <g class="st43">
              <path class="st23" d="M293.6,121.6s0,0,0,0h41.6c6.5,0,8.6-.2,15.1,0,0-4-1.1-7.8-3-9.9-1.6-1.7-4.3-2.6-6.5-2-2.8.7-4.7,2.6-6.6,4-.6-5.6-2.9-10.6-5.4-11.7-4.2-1.9-8.7,1.1-10.7,4-1.6,2.4-2.5,5.3-2.9,8.2-2.7-2.9-8.6-5.2-10.8-.5-.8,1.8-.8,3.9-.7,6-3.5-.9-7.4-.2-10.3,1.9Z"/>
            </g>
            <g class="st43">
              <path class="st23" d="M600.2,85.6c-.8-3.3-8.4-8-12.4-5.1-1.2-6.2-2.4-10.1-6.5-13.1-4.1-3.1-10.8.9-11.9,9.3-1.1-3.4-6.6-8.1-11.1-4.2-4.1,3.6-4.5,9.7-4.1,13.1h46Z"/>
            </g>
            <g class="st43">
              <path class="st23" d="M652.9,129c-1.3-3.1-3.6-4.7-6.4-5.1-3.5-.4-7.1,1.6-7.1,1.6,0,0,1.3-5.1-.5-9.1-1.2-2.7-3.2-5.3-5.9-6-2.8-.7-5.8.7-7.9,2.8-2.1,2.2-3.4,5-4.7,7.9-.6-2-1.4-4.3-3.3-5.1-1.9-.8-4.1.6-5.1,2.5s-1,4.3-.9,6.5c-2.2-1.3-5-1.7-7.2-.4-1.4.8-2.4,2.5-2.6,4.2h51.6Z"/>
            </g>
          </g>
          <g>
            <g>
              <path class="st23" d="M397.6,198.7c-11.6-4-21.7-11.7-29.2-21.4s-16-30.8-14.5-48.6c33.3,9.9,46.9,40.8,48.9,59.6"/>
              <path class="st11" d="M353.9,128.7s5.5,42.9,44,66.7"/>
              <path class="st11" d="M353.9,128.7s22.7,40.7,47.7,65.5"/>
              <path class="st11" d="M353.9,128.7s33.6,26.7,49.2,63.1"/>
            </g>
            <g>
              <path class="st23" d="M397.7,269.7c-13.2,4.9-27.7,5.1-41.2,1.5-13.5-3.6-36-17.5-47.2-35.8,32.2-11,70.8,3.9,85.8,20.4"/>
              <path class="st6" d="M309.2,235.4s35.1,37.1,86.4,30.9"/>
              <path class="st6" d="M309.2,235.4s49,22,88.8,27"/>
              <path class="st6" d="M309.2,235.4s48.9.3,88.6,23.6"/>
            </g>
            <g>
              <path class="st28" d="M410,179.3c-11.2-8.3-19.1-20.2-23.4-33.4-4.3-13.1-4.8-39.3,4.3-58.4,26.4,20.8,34.8,60.8,29.2,82.1"/>
              <path class="st6" d="M390.9,87.5s-11.9,49,20.9,88.2"/>
              <path class="st6" d="M390.9,87.5s8.1,52.5,25.4,88.2"/>
              <path class="st6" d="M390.9,87.5s26,40.7,28.1,86.1"/>
            </g>
            <g>
              <path class="st23" d="M511.1,173.1c11.2-2.1,21.6-8,29.9-15.9,8.3-7.9,18.9-26.4,19.9-43.2-32.2,4.7-48.9,31.7-53.2,48.8"/>
              <path class="st6" d="M560.9,114s-10.8,39.1-49.7,56"/>
              <path class="st6" d="M560.9,114s-26.5,34.8-52.9,54.4"/>
              <path class="st6" d="M560.9,114s-34.7,20.3-54,52"/>
            </g>
            <g>
              <path class="st23" d="M542.6,264c16.5,3.1,33.7.7,49.2-5.6,15.5-6.4,39.9-25.8,50.3-48-46.4-10.8-83.5,16.8-98.6,37.8"/>
              <path class="st6" d="M642.1,210.3s-35.7,47.4-97.6,49.5"/>
              <path class="st6" d="M642.1,210.3s-48.8,32.6-98.8,41.8"/>
              <path class="st6" d="M642.1,210.3s-58,9-101.4,41.8"/>
            </g>
            <g>
              <path class="st28" d="M496.6,168.7c14.2-6.1,25.8-17,33.8-30.1,8-13.1,15.3-41.2,10.3-64.1-33.8,15.7-53.2,56.7-52.5,81.2"/>
              <path class="st6" d="M540.7,74.6s.3,56-45.1,89.9"/>
              <path class="st6" d="M540.7,74.6s-22.2,54.6-50,88.7"/>
              <path class="st6" d="M540.7,74.6s-38.5,37.3-52.4,85.8"/>
            </g>
            <g>
              <path class="st28" d="M395.4,248c-7.7,1.2-20.7,3-27.9-1.8-4-2.7-4.7-7.6-6.3-11.9-2.7-7.4-8.2-11.8-15.4-13-2.9-.5-6-1.8-7.4-4.6-2.1-4.1.5-9.5-1.2-13.8-.9-2.3-2.8-4-4.4-5.8-3.9-4.5-4.8-11.1-4.8-11.1,0,0,4.7,1.5,9.9-.2,3.4-1.1,7-1.7,10.6-1.1,2.8.4,4.8,1.9,6.7,4.1,2.2,2.6,4,4.5,7.1,5.6,4.8,1.7,16.7-2.4,18,4.5.4,1.9,0,3.9.8,5.7,1.6,3.2,5.4,1.6,7.9,2.4,4,1.2,8.3,4.1,10,7.8,4.1,8.9,3.9,21.1,1.6,30.8"/>
              <path class="st6" d="M328.4,186c12.9,14,32.5,19.2,45.1,33.5,3.8,4.3,6.8,9.3,10.4,13.8,3.6,4.5,7.9,8.6,13.1,10.4"/>
              <path class="st6" d="M337.4,212.8c6.8.7,17,.6,27.2-1.4,0,0-2.5-13.1-4.6-18.1"/>
              <path class="st6" d="M337.6,208.4c7.4.5,13.7,0,22.3-.3"/>
              <path class="st6" d="M336.5,201.7s6.3.2,12.1-.6"/>
              <path class="st6" d="M330.3,193.3c0,0,2,.3,6.6.3"/>
              <path class="st6" d="M346,199.6s-3-9.3-5.3-14.6"/>
              <path class="st6" d="M358.2,207s-3-14.8-5.9-20.9"/>
              <path class="st6" d="M352.4,223.5c.2.1,13,1,23.4-1.2"/>
              <path class="st6" d="M372.6,218.5s-1.3-15.8-3.3-23.8"/>
              <path class="st6" d="M382.7,204.9c1.5,9.7,1.7,29,1.7,29,0,0-16.4,2.2-23.2.4"/>
              <path class="st6" d="M391.4,240.8s.6-21.8-.7-33.2"/>
              <path class="st6" d="M362.4,238.6s13.2,1.9,24.4-2"/>
              <path class="st6" d="M394.1,242.5s3.8-17.2,1-32.3"/>
            </g>
            <g>
              <path class="st28" d="M501,154.3c3.5-9,9.2-17.9,5.7-27.9-1.9-5.5-7.8-7.8-12.3-10.8-7.7-5.1-11.2-12.8-10.6-22,.2-3.7-.4-7.7-3.2-10.1-4.1-3.5-10.9-1.8-15.4-4.9-2.4-1.7-3.7-4.4-5.4-6.8-4-5.8-11.3-8.6-11.3-8.6,0,0,.4,6.1-2.9,12-2.1,3.8-3.9,8.1-4.2,12.5-.3,3.5.8,6.3,2.8,9.1,2.4,3.3,4.1,5.9,4.4,10,.6,6.2-7.3,19.7.2,23,2,.9,4.5.9,6.2,2.3,3.2,2.7.3,6.9.5,10.2.3,5.1,2.4,11.1,6.1,14.1,9,7.1,23,9.9,34.6,9.6"/>
              <path class="st6" d="M448.5,63.8c12.3,19.2,12.9,44.3,25.7,63.1,3.8,5.7,8.7,10.6,12.8,16,4.1,5.5,7.7,11.7,8.2,18.5"/>
              <path class="st6" d="M467.4,114.1s-14.3-6.3-19.4-10.1"/>
              <path class="st6" d="M471.5,80.6c-1.4,9.2-3.7,16.6-6.5,27.1"/>
              <path class="st6" d="M464.1,77.6s-1.5,7.7-4,14.5"/>
              <path class="st6" d="M456.2,67.9c0,0-.2,2.5-1.5,8.1"/>
              <path class="st6" d="M459.1,88.6c0,0-9.8-5.9-15.2-10.1"/>
              <path class="st6" d="M464.2,105.2c0,0-16-7.3-22.2-12.3"/>
              <path class="st6" d="M483.5,88.6c-1.4,5.3-4.1,19-12,32.7"/>
              <path class="st6" d="M473.3,125.5s-17.6-5.5-26.2-10"/>
              <path class="st6" d="M493.4,153.9s-25-4.7-37.7-9.1"/>
              <path class="st6" d="M499,118.1s-1.5,16.5-9,29.1"/>
            </g>
            <g>
              <path class="st28" d="M551.4,233.1c10-1.9,21-1.9,27.9-10.5,3.8-4.8,2.6-11.3,2.7-17,.2-9.7,5.2-17.1,13.6-21.6,3.4-1.8,6.6-4.7,7.2-8.5.8-5.7-4.5-10.7-4.3-16.4.1-3.1,1.9-5.8,3.1-8.6,2.9-6.8,1.4-14.9,1.4-14.9,0,0-5.2,3.7-12.3,4.1-4.6.2-9.4,1.1-13.5,3.2-3.2,1.7-5.2,4.3-6.5,7.6-1.6,3.9-3,6.9-6.4,9.5-5.2,4-21.5,4.5-20.3,12.9.3,2.3,1.7,4.5,1.4,6.8-.6,4.3-6,4.1-8.8,6.1-4.4,3.1-8.5,8.3-9.1,13.3-1.3,12,4,26,10.8,36.1"/>
              <path class="st6" d="M602.5,136c-10.2,21.6-32.1,36.1-41.8,58-2.9,6.6-4.6,13.6-7.1,20.3-2.5,6.7-6.1,13.3-11.9,17.6"/>
              <path class="st6" d="M602.5,170.7c-8,3.7-20.8,8-34.1,10.1,0,0-2.4-16.2-1.8-22.8"/>
              <path class="st6" d="M600.4,165.8c-8.9,3.8-16.8,6-27.7,9.3"/>
              <path class="st6" d="M599,157.6s-7.7,3-15.1,4.5"/>
              <path class="st6" d="M603.1,145.2c0,.1-2.4,1.2-8,3.1"/>
              <path class="st6" d="M586.4,159.3c0,0-.2-12,.5-19.1"/>
              <path class="st6" d="M574.5,173c0,0-2.4-18.3-1.4-26.6"/>
              <path class="st6" d="M588.5,189.5c-.2.2-15.6,6.7-29.4,8.6"/>
              <path class="st6" d="M561.5,192.5s-4.9-18.7-5.7-28.8"/>
              <path class="st6" d="M543.4,181.2c2.2,11.8,9.9,34.1,9.9,34.1,0,0,21.1-4.5,28.8-9.6"/>
              <path class="st6" d="M547.5,226.1s-9.8-24.9-12.9-38.5"/>
              <path class="st6" d="M582.4,211.2s-15.5,7.8-30.9,8.2"/>
              <path class="st6" d="M544.9,229.3s-11.8-18.2-14.6-36.8"/>
            </g>
          </g>
          <g>
            <g>
              <g>
                <g>
                  <path class="st47" d="M511,192.5c1.4,2.8,6.9,14.8,8.2,17.7-4.4,1.4-8.5,3.2-12.8,4.9-1.8,2.5,2.3-2.4,2.5-5.1"/>
                  <path class="st26" d="M520.5,214.1l-2.5.9c0-.3-.3-1-.4-1.2-.5.2-1.5.6-1.6.7,0,0-.2.4-.3.7-.1.4-.4.7-.8.9l-9.9,3.4c-1.2.4-1.9-1-.9-2.2,1-1.1,3.1-3.4,3.2-3.4,4.1-1,10.3-3.9,11.1-5.8,1.3.7,2.1,6,2.1,6Z"/>
                </g>
                <path class="st47" d="M509.9,160c.2,6.5-.5,19.5.4,25,.6,3.5,6.8,20.7,6.8,20.7l-8.2,4.3s-7.1-10.9-11.1-23.8c-2.6-8.4-2.8-17.6-2.8-25.1"/>
              </g>
              <g>
                <g>
                  <path class="st47" d="M531.5,179.1c2.3,2.1,11.9,11.2,14.2,13.4-3.6,2.9-6.6,6.1-10.1,9.3-.8,3,1.2-3.1.4-5.6"/>
                  <path class="st26" d="M548.3,195.7l-2,1.7c-.2-.2-.7-.8-.9-1-.4.3-1.1,1.1-1.2,1.2,0,.1,0,.4,0,.8,0,.4-.1.8-.4,1.1l-7.9,6.9c-1,.8-2.2-.2-1.6-1.7.5-1.3,1.6-4.3,1.7-4.3,3.4-2.4,8.1-7.5,8.1-9.4,1.5.2,4.2,4.7,4.2,4.8Z"/>
                </g>
                <path class="st47" d="M523.4,147.7s-.5,19.1,2.1,24c3.1,5.7,13.2,14.3,13.2,14.3l-2.7,10.1s-14.1-7.9-21.5-17.4c-5.6-7.2-5.9-29.9-5.9-29.9"/>
              </g>
              <path class="st40" d="M522.6,131.8c9.9,7.7,9.1,38.4,9.1,38.4,0,0-11.1,2.9-20.1,2.9s-18.4-1.4-18.4-1.4c.5-26.4,5.2-33.3,7.9-37.8"/>
            </g>
            <g>
              <path class="st42" d="M504.1,89.8s2.2,6.5,1.9,8.1c-.4,1.5-5.3,1.1-6.6,1-.1-3.3,1-8,1-8"/>
              <path class="st47" d="M504.8,97.5l.5,3.6s2.6,1.7,4.9.8c2.3-.9,2.2-2.2,2.2-2.2l-2.8-6.7"/>
              <path class="st47" d="M501.1,91.1c0,4.7.8,8.4,3.9,8.1,3.3-.3,5.7-2.9,4.5-6.6-1.2-3.8-8.1-4.2-8.4-1.5Z"/>
              <path class="st18" d="M505.1,99.5c1.6-.3,3.5-1.1,4.4-3.3"/>
              <path class="st37" d="M509,92.5h0s0,0,0,0Z"/>
              <path class="st37" d="M509,92.5s0,0,0,0c0,0,0,0,0,0,0,0,0,0,0,0,0,0,0,0,0,0h0Z"/>
              <path class="st42" d="M506,90.8c-2.7.7-4.5.6-6.3,0,.3-1.6,1.3-3.9,4.2-3.9,2-1.9,4.4-1.2,5.1-1,1.7.6,2.9,1.6,3.8,3.2,1.5,2.5,1.8,6.4,1.8,8.5-2.3.6-4.2,1-5.7,1,0,0-.9-6.3-2.9-7.7Z"/>
              <path class="st47" d="M507.5,93.9c0-.1,0-.5.4-.7.7-.4,1.3.4,1.3,1.1,0,.4,0,.8-.3,1.2-.3.5-.8.7-1.2.3"/>
              <path class="st17" d="M503.5,93.6s-.5,1.8-.3,2.2c.2.4,1.2.2,1.2.2"/>
              <path class="st39" d="M503.5,96.8l2.8-.4s-.1,1.6-1.7,1.7c-1.1,0-1.1-1.3-1.1-1.3Z"/>
              <path class="st24" d="M502.3,93.4c0,.1,0,.3,0,.4,0,.3.5.3.5,0,0-.1,0-.3,0-.4,0-.2-.4-.2-.4,0h0Z"/>
              <path class="st16" d="M503,92.6s-.6-.4-1.1.2"/>
              <path class="st24" d="M505.6,93.3c0,.1,0,.3,0,.4,0,.3.5.3.5,0,0-.1,0-.3,0-.4,0-.2-.4-.2-.4,0h0Z"/>
              <path class="st16" d="M505.2,92.3s.6-.4,1.5.2"/>
            </g>
            <g>
              <g>
                <path class="st47" d="M502.4,117.1c-9,12.5-27.4,23.7-27.4,23.7l-3.8-4.8s13.8-11.5,22.1-24.8"/>
                <path class="st47" d="M472.8,134.7c-1.7,1.5-7.3,4.9-7.2,5.4.1.4,2.1-.8,2.2-.4s-2.9,2.4-2.7,2.8c.3.6,3.2-1.7,3.2-1.7,0,0-3,2.6-2.6,3,.3.3,2.7-1.6,3.8-2.2-1,.8-2.5,2.3-2.2,2.6.3.3,2-1,3.3-1.9-.8.6-2.1,1.9-1.8,2.1.3.3,4.6-2.5,8.5-5.3"/>
                <path class="st18" d="M468.5,139.7s2.2,0,3.1-.4"/>
              </g>
              <path class="st29" d="M504.3,101.2c-3.9-.7-7.4,2.1-9,4.5-3.1,4.9-4.8,8.8-4.8,8.8l9.3,5.6,5.3-16.6"/>
              <path class="st29" d="M504.3,101.2c1.8.3,2.3,1,3.6.6,2.3-.7,4.1-1.9,4.1-1.9-1.5.1,5,1.3,10,6.6,1.7,5.8,1.9,11.5,2.4,26.8-12.4,4-23.3.6-23.3.6,0,0-1.4-6.7-3-11.6-2.3-4.5-1.3-9.6,1.2-13.8,0-2.5,5-7.3,5-7.3Z"/>
              <polygon class="st39" points="511.8 98.3 507.6 101.9 510.3 104.8 513.1 100.5 511.8 98.3"/>
              <polygon class="st39" points="507.6 101.9 505.2 100 504.3 101.2 505.5 104.7 507.6 101.9"/>
              <path class="st20" d="M496.8,117.1c-.2-2.9,1.6-7.5,1.6-7.5"/>
            </g>
          </g>
          <g>
            <g>
              <g>
                <path class="st41" d="M543.2,293.1c-.2,0-.4,0-.5,0l-61-4.3c-4.1-.3-7.2-3.9-6.9-8l1.3-18c0-1.1,1-2,2.1-2s1.1.2,1.5.6c1.9,1.8,4.2,2.8,6.6,3,.2,0,.5,0,.7,0,6.2,0,11.4-5.5,11.9-12.6.5-7.4-4.3-13.8-10.8-14.2-.2,0-.5,0-.7,0-2.2,0-4.3.7-6.2,2-.4.3-.8.4-1.2.4s-1.2-.3-1.6-.7c-.4-.4-.6-1-.6-1.6l1.3-18c.3-3.9,3.5-6.9,7.4-6.9s.4,0,.5,0l18.6,1.3c.9,0,1.6.6,1.9,1.4.3.8,0,1.7-.6,2.3-2.1,1.9-3.3,4.5-3.5,7.2-.5,6.5,5.2,12.1,12.6,12.7.4,0,.7,0,1.1,0,6.9,0,12.7-4.7,13.1-10.8.2-2.7-.7-5.4-2.5-7.6-.5-.6-.6-1.5-.3-2.3.4-.8,1.1-1.2,1.9-1.2s.1,0,.2,0l18.6,1.3c4.1.3,7.2,3.9,6.9,8l-4.3,61c-.3,3.9-3.5,6.9-7.4,6.9,0,0,0,0,0,0Z"/>
                <path class="st39" d="M486.5,213.3c.2,0,.3,0,.5,0l18.6,1.3c1.5.1,2.1,1.9,1,2.9-2.1,2-3.5,4.5-3.7,7.5-.5,6.7,5.3,12.6,13,13.1.4,0,.8,0,1.1,0,7.1,0,13.1-4.8,13.6-11.2.2-2.9-.8-5.7-2.6-7.9-.9-1.1,0-2.8,1.3-2.8s0,0,.1,0l18.6,1.3c3.9.3,6.8,3.6,6.5,7.5l-4.3,61c-.3,3.7-3.4,6.5-7,6.5s-.3,0-.5,0l-61-4.3c-3.9-.3-6.8-3.6-6.5-7.5l1.3-18c0-1,.9-1.6,1.7-1.6s.8.1,1.2.5c1.9,1.8,4.2,2.9,6.9,3.1.3,0,.5,0,.8,0,6.4,0,11.8-5.6,12.3-13,.5-7.6-4.5-14.2-11.2-14.7-.3,0-.5,0-.8,0-2.4,0-4.6.8-6.5,2.1-.3.2-.7.3-1,.3-.9,0-1.8-.8-1.7-1.8l1.3-18c.3-3.7,3.4-6.5,7-6.5M486.5,212.4h0c-4.1,0-7.6,3.2-7.9,7.3l-1.3,18c0,.7.2,1.4.7,1.9.5.5,1.2.8,1.9.8s1-.2,1.5-.5c1.8-1.3,3.9-2,6-2s.5,0,.7,0c6.2.4,10.9,6.6,10.4,13.8-.5,6.8-5.5,12.2-11.5,12.2s-.5,0-.7,0c-2.3-.2-4.5-1.2-6.3-2.9-.5-.5-1.1-.7-1.8-.7-1.4,0-2.5,1-2.6,2.4l-1.3,18c-.3,4.3,3,8.1,7.3,8.4l61,4.3c.2,0,.4,0,.6,0,4.1,0,7.6-3.2,7.9-7.3l4.3-61c.3-4.3-3-8.1-7.3-8.4l-18.6-1.3c0,0-.1,0-.2,0-1,0-1.9.6-2.3,1.5-.4.9-.3,1.9.3,2.7,1.8,2.2,2.6,4.7,2.4,7.3-.4,5.8-6,10.4-12.7,10.4s-.7,0-1.1,0c-3.5-.2-6.7-1.7-9-4-2.3-2.3-3.4-5.2-3.2-8.2.2-2.6,1.4-5,3.4-6.9.8-.7,1-1.7.7-2.7-.3-1-1.2-1.6-2.2-1.7l-18.6-1.3c-.2,0-.4,0-.6,0h0Z"/>
              </g>
              <g class="st54">
                <g class="st45">
                  <circle class="st14" cx="534.3" cy="307.1" r="34.9"/>
                  <circle class="st13" cx="533.6" cy="306.3" r="22"/>
                  <circle class="st15" cx="534.3" cy="307.1" r="11.5"/>
                </g>
              </g>
            </g>
            <g>
              <g>
                <path class="st53" d="M456.4,211.6c-.3,0-.6,0-.9,0l-18.5-2.3c-.9-.1-1.5-.7-1.8-1.5-.2-.8,0-1.7.7-2.2,2.2-1.8,3.7-4.3,4-7,.4-3.1-.6-6.2-2.8-8.7-2.2-2.5-5.4-4.2-9-4.6-.6,0-1.3-.1-1.9-.1-6.6,0-12.1,4.3-12.9,10.1-.3,2.7.4,5.5,2.1,7.8.5.7.6,1.5.2,2.2-.4.7-1.1,1.2-1.9,1.2s-.2,0-.3,0l-18.5-2.3c-2-.2-3.7-1.3-5-2.8-1.2-1.6-1.8-3.5-1.5-5.5l7.6-60.7c.5-3.7,3.7-6.5,7.4-6.5s.6,0,.9,0l60.7,7.6c2,.2,3.7,1.3,5,2.8,1.2,1.6,1.8,3.5,1.5,5.5l-2.3,18.2c-.1,1.1-1,1.9-2.1,1.9s-1.2-.3-1.6-.7c-1.8-2.1-4.2-3.4-6.8-3.7-.4,0-.9,0-1.3,0-6,0-11.2,5.1-12,11.9-.9,7.3,3.5,14,10,14.8.4,0,.9,0,1.3,0,2.2,0,4.3-.7,6.2-2,.4-.2.8-.4,1.2-.4.6,0,1.2.3,1.6.7.4.5.6,1.1.5,1.7l-2.3,18.2c-.5,3.7-3.7,6.5-7.4,6.5Z"/>
                <path class="st39" d="M403.3,128.8c.3,0,.6,0,.9,0l60.7,7.6c3.9.5,6.6,4,6.1,7.9l-2.3,18.2c-.1.9-.9,1.5-1.7,1.5s-.9-.2-1.3-.6c-1.8-2.1-4.3-3.5-7.1-3.9-.5,0-.9,0-1.3,0-6.1,0-11.6,5.2-12.4,12.3-1,7.6,3.7,14.4,10.3,15.3.5,0,.9,0,1.3,0,2.3,0,4.5-.8,6.4-2.1.3-.2.6-.3,1-.3,1,0,1.8.8,1.7,1.9l-2.3,18.2c-.4,3.6-3.5,6.2-7,6.2s-.6,0-.9,0l-18.5-2.3c-1.5-.2-2-2.1-.9-3,2.2-1.8,3.8-4.4,4.2-7.3.8-6.7-4.6-12.8-12.2-13.8-.7,0-1.3-.1-2-.1-6.8,0-12.5,4.4-13.3,10.5-.4,2.9.5,5.8,2.2,8.1.8,1.1,0,2.7-1.4,2.7s-.1,0-.2,0l-18.5-2.3c-3.9-.5-6.6-4-6.1-7.9l7.6-60.7c.4-3.6,3.5-6.2,7-6.2M403.3,128v.9-.9c-4,0-7.3,3-7.8,6.9l-7.6,60.7c-.5,4.3,2.5,8.3,6.9,8.8l18.5,2.3c.1,0,.2,0,.3,0,1,0,1.8-.5,2.3-1.4.4-.9.4-1.9-.2-2.7-1.6-2.2-2.4-4.9-2.1-7.5.7-5.5,6-9.7,12.4-9.7s1.3,0,1.9.1c7.1.9,12.3,6.7,11.5,12.8-.3,2.6-1.7,5-3.8,6.8-.8.7-1.1,1.7-.8,2.7.3,1,1.1,1.7,2.1,1.8l18.5,2.3c.3,0,.7,0,1,0,4,0,7.3-3,7.8-6.9l2.3-18.2c0-.7-.1-1.5-.6-2-.5-.6-1.2-.9-1.9-.9s-1,.2-1.4.5c-1.8,1.3-3.9,1.9-6,1.9s-.8,0-1.2,0c-3-.4-5.6-2.1-7.4-4.7-1.8-2.7-2.6-6.1-2.2-9.6.8-6.6,5.8-11.6,11.6-11.6s.8,0,1.2,0c2.5.3,4.8,1.5,6.5,3.6.5.6,1.2.9,1.9.9,1.3,0,2.4-1,2.6-2.3l2.3-18.2c.3-2.1-.3-4.2-1.6-5.8-1.3-1.7-3.2-2.7-5.3-3l-60.7-7.6c-.3,0-.7,0-1,0h0Z"/>
              </g>
              <g class="st34">
                <g class="st46">
                  <circle class="st2" cx="396.1" cy="135.7" r="34.9"/>
                  <circle class="st2" cx="395.4" cy="135" r="23.8"/>
                  <circle class="st2" cx="396.1" cy="135.7" r="11.5"/>
                </g>
              </g>
            </g>
            <g>
              <g>
                <path class="st51" d="M511.9,230.8c-3.8,0-7.4-1.4-10-3.8-2.7-2.4-4.1-5.6-4.1-9,0-3,1.2-5.8,3.4-8.1.4-.4.4-1,.3-1.4-.2-.4-.5-.8-1.2-.8l-18.7-.2c-2,0-3.9-.8-5.3-2.2-1.4-1.4-2.2-3.3-2.1-5.3l.2-18.1c0-.4-.2-.7-.4-.9-.2-.2-.6-.4-.9-.4s-.6,0-.8.3c-2.2,1.8-4.7,2.7-7.4,2.7h-.1c-3.4,0-6.5-1.6-8.9-4.3-2.3-2.7-3.6-6.3-3.6-10.1,0-7.8,5.7-14.2,12.6-14.2h.1c2.7,0,5.3,1,7.5,2.9.2.2.5.3.8.3.6,0,1.3-.5,1.3-1.3l.2-18.1c0-4.1,3.4-7.4,7.5-7.4l61.2.6c2,0,3.9.8,5.3,2.2,1.4,1.4,2.2,3.3,2.1,5.3l-.6,61.1c0,4.1-3.4,7.4-7.5,7.4l-18.8-.2c-.6,0-1,.4-1.2.8-.2.5-.1,1,.2,1.4,2.1,2.3,3.3,5.2,3.3,8.1,0,6.9-6.5,12.4-14.2,12.4h-.2Z"/>
                <path class="st39" d="M482.3,131.9s0,0,0,0l61.1.6c3.9,0,7,3.2,7,7.1l-.6,61.1c0,3.9-3.2,7-7,7s0,0,0,0l-18.7-.2h0c-1.5,0-2.3,1.8-1.2,2.9,2,2.1,3.2,4.9,3.1,7.8,0,6.7-6.2,12-13.8,12s-.1,0-.2,0c-7.7,0-13.8-5.6-13.7-12.3,0-3,1.3-5.7,3.3-7.8,1-1.1.3-2.9-1.2-2.9l-18.7-.2c-3.9,0-7-3.2-7-7.1l.2-18.1c0-1-.8-1.7-1.7-1.7s-.7.1-1.1.4c-2,1.7-4.5,2.6-7.1,2.6s0,0-.1,0c-6.7,0-12.1-6.3-12-14,0-7.6,5.5-13.7,12.2-13.7,0,0,0,0,.1,0,2.7,0,5.2,1.1,7.2,2.8.3.3.7.4,1.1.4.9,0,1.7-.7,1.7-1.7l.2-18.1c0-3.9,3.2-7,7-7M482.3,131.1c-4.3,0-7.9,3.5-7.9,7.8l-.2,18.1c0,.5-.4.8-.9.8s-.4,0-.5-.2c-2.2-1.9-4.9-3-7.7-3h-.1c-7.1,0-13,6.5-13.1,14.6,0,8.1,5.7,14.8,12.9,14.9h.1c2.8,0,5.4-1,7.7-2.8.2-.1.3-.2.5-.2s.5,0,.6.3c.1.1.2.3.2.6l-.2,18.1c0,4.4,3.5,7.9,7.8,8l18.7.2c.5,0,.7.4.8.5,0,.1.2.5-.2.9-2.3,2.3-3.5,5.3-3.6,8.4,0,7.2,6.5,13.1,14.6,13.2h.2c8,0,14.6-5.8,14.7-12.9,0-3.1-1.2-6.1-3.4-8.4-.3-.4-.2-.8-.2-.9,0-.1.3-.5.8-.5l18.7.2h0c4.3,0,7.9-3.5,7.9-7.8l.6-61.1c0-4.4-3.5-7.9-7.8-8l-61.1-.6h0Z"/>
              </g>
              <g class="st36">
                <g>
                  <path class="st39" d="M454.7,143.2c-.9.2-1.7-.5-1.9-1.4-.2-.9.5-1.7,1.4-1.9.9-.2,1.7.5,1.9,1.4s-.5,1.7-1.4,1.9Z"/>
                  <path class="st39" d="M470,140.6c-.9.2-1.7-.5-1.9-1.4-.2-.9.5-1.7,1.4-1.9.9-.2,1.7.5,1.9,1.4s-.5,1.7-1.4,1.9Z"/>
                  <path class="st39" d="M485.3,138c-.9.2-1.7-.5-1.9-1.4-.2-.9.5-1.7,1.4-1.9.9-.2,1.7.5,1.9,1.4.2.9-.5,1.7-1.4,1.9Z"/>
                  <path class="st39" d="M500.6,135.4c-.9.2-1.7-.5-1.9-1.4-.2-.9.5-1.7,1.4-1.9s1.7.5,1.9,1.4c.2.9-.5,1.7-1.4,1.9Z"/>
                  <path class="st39" d="M515.9,132.9c-.9.2-1.7-.5-1.9-1.4-.2-.9.5-1.7,1.4-1.9.9-.2,1.7.5,1.9,1.4.2.9-.5,1.7-1.4,1.9Z"/>
                  <path class="st39" d="M531.3,130.3c-.9.2-1.7-.5-1.9-1.4-.2-.9.5-1.7,1.4-1.9.9-.2,1.7.5,1.9,1.4.2.9-.5,1.7-1.4,1.9Z"/>
                  <path class="st39" d="M546.6,127.7c-.9.2-1.7-.5-1.9-1.4-.2-.9.5-1.7,1.4-1.9.9-.2,1.7.5,1.9,1.4.2.9-.5,1.7-1.4,1.9Z"/>
                  <path class="st39" d="M456.8,155.8c-.9.2-1.7-.5-1.9-1.4-.2-.9.5-1.7,1.4-1.9.9-.2,1.7.5,1.9,1.4.2.9-.5,1.7-1.4,1.9Z"/>
                  <path class="st39" d="M472.1,153.2c-.9.2-1.7-.5-1.9-1.4-.2-.9.5-1.7,1.4-1.9.9-.2,1.7.5,1.9,1.4.2.9-.5,1.7-1.4,1.9Z"/>
                  <path class="st39" d="M487.4,150.6c-.9.2-1.7-.5-1.9-1.4-.2-.9.5-1.7,1.4-1.9s1.7.5,1.9,1.4-.5,1.7-1.4,1.9Z"/>
                  <path class="st39" d="M502.7,148c-.9.2-1.7-.5-1.9-1.4-.2-.9.5-1.7,1.4-1.9.9-.2,1.7.5,1.9,1.4s-.5,1.7-1.4,1.9Z"/>
                  <path class="st39" d="M518.1,145.4c-.9.2-1.7-.5-1.9-1.4s.5-1.7,1.4-1.9c.9-.2,1.7.5,1.9,1.4s-.5,1.7-1.4,1.9Z"/>
                  <path class="st39" d="M533.4,142.9c-.9.2-1.7-.5-1.9-1.4s.5-1.7,1.4-1.9c.9-.2,1.7.5,1.9,1.4.2.9-.5,1.7-1.4,1.9Z"/>
                  <path class="st39" d="M548.7,140.3c-.9.2-1.7-.5-1.9-1.4s.5-1.7,1.4-1.9c.9-.2,1.7.5,1.9,1.4.2.9-.5,1.7-1.4,1.9Z"/>
                  <path class="st39" d="M458.9,168.4c-.9.2-1.7-.5-1.9-1.4-.2-.9.5-1.7,1.4-1.9s1.7.5,1.9,1.4c.2.9-.5,1.7-1.4,1.9Z"/>
                  <path class="st39" d="M474.2,165.8c-.9.2-1.7-.5-1.9-1.4-.2-.9.5-1.7,1.4-1.9.9-.2,1.7.5,1.9,1.4.2.9-.5,1.7-1.4,1.9Z"/>
                  <path class="st39" d="M489.5,163.2c-.9.2-1.7-.5-1.9-1.4-.2-.9.5-1.7,1.4-1.9.9-.2,1.7.5,1.9,1.4.2.9-.5,1.7-1.4,1.9Z"/>
                  <path class="st39" d="M504.9,160.6c-.9.2-1.7-.5-1.9-1.4s.5-1.7,1.4-1.9c.9-.2,1.7.5,1.9,1.4s-.5,1.7-1.4,1.9Z"/>
                  <path class="st39" d="M520.2,158c-.9.2-1.7-.5-1.9-1.4-.2-.9.5-1.7,1.4-1.9s1.7.5,1.9,1.4-.5,1.7-1.4,1.9Z"/>
                  <path class="st39" d="M535.5,155.4c-.9.2-1.7-.5-1.9-1.4s.5-1.7,1.4-1.9c.9-.2,1.7.5,1.9,1.4.2.9-.5,1.7-1.4,1.9Z"/>
                  <path class="st39" d="M550.8,152.9c-.9.2-1.7-.5-1.9-1.4s.5-1.7,1.4-1.9c.9-.2,1.7.5,1.9,1.4.2.9-.5,1.7-1.4,1.9Z"/>
                  <path class="st39" d="M461,180.9c-.9.2-1.7-.5-1.9-1.4-.2-.9.5-1.7,1.4-1.9s1.7.5,1.9,1.4c.2.9-.5,1.7-1.4,1.9Z"/>
                  <path class="st39" d="M476.3,178.4c-.9.2-1.7-.5-1.9-1.4-.2-.9.5-1.7,1.4-1.9.9-.2,1.7.5,1.9,1.4s-.5,1.7-1.4,1.9Z"/>
                  <path class="st39" d="M491.7,175.8c-.9.2-1.7-.5-1.9-1.4-.2-.9.5-1.7,1.4-1.9.9-.2,1.7.5,1.9,1.4s-.5,1.7-1.4,1.9Z"/>
                  <path class="st39" d="M507,173.2c-.9.2-1.7-.5-1.9-1.4-.2-.9.5-1.7,1.4-1.9s1.7.5,1.9,1.4c.2.9-.5,1.7-1.4,1.9Z"/>
                  <path class="st39" d="M522.3,170.6c-.9.2-1.7-.5-1.9-1.4s.5-1.7,1.4-1.9c.9-.2,1.7.5,1.9,1.4.2.9-.5,1.7-1.4,1.9Z"/>
                  <path class="st39" d="M537.6,168c-.9.2-1.7-.5-1.9-1.4-.2-.9.5-1.7,1.4-1.9.9-.2,1.7.5,1.9,1.4s-.5,1.7-1.4,1.9Z"/>
                  <path class="st39" d="M553,165.4c-.9.2-1.7-.5-1.9-1.4-.2-.9.5-1.7,1.4-1.9.9-.2,1.7.5,1.9,1.4s-.5,1.7-1.4,1.9Z"/>
                  <path class="st39" d="M463.1,193.5c-.9.2-1.7-.5-1.9-1.4-.2-.9.5-1.7,1.4-1.9.9-.2,1.7.5,1.9,1.4.2.9-.5,1.7-1.4,1.9Z"/>
                  <path class="st39" d="M478.5,190.9c-.9.2-1.7-.5-1.9-1.4s.5-1.7,1.4-1.9,1.7.5,1.9,1.4-.5,1.7-1.4,1.9Z"/>
                  <path class="st39" d="M493.8,188.4c-.9.2-1.7-.5-1.9-1.4-.2-.9.5-1.7,1.4-1.9s1.7.5,1.9,1.4c.2.9-.5,1.7-1.4,1.9Z"/>
                  <path class="st39" d="M509.1,185.8c-.9.2-1.7-.5-1.9-1.4-.2-.9.5-1.7,1.4-1.9.9-.2,1.7.5,1.9,1.4.2.9-.5,1.7-1.4,1.9Z"/>
                  <path class="st39" d="M524.4,183.2c-.9.2-1.7-.5-1.9-1.4-.2-.9.5-1.7,1.4-1.9.9-.2,1.7.5,1.9,1.4.2.9-.5,1.7-1.4,1.9Z"/>
                  <path class="st39" d="M539.8,180.6c-.9.2-1.7-.5-1.9-1.4-.2-.9.5-1.7,1.4-1.9s1.7.5,1.9,1.4c.2.9-.5,1.7-1.4,1.9Z"/>
                  <path class="st39" d="M555.1,178c-.9.2-1.7-.5-1.9-1.4-.2-.9.5-1.7,1.4-1.9.9-.2,1.7.5,1.9,1.4.2.9-.5,1.7-1.4,1.9Z"/>
                  <path class="st39" d="M465.3,206.1c-.9.2-1.7-.5-1.9-1.4-.2-.9.5-1.7,1.4-1.9s1.7.5,1.9,1.4-.5,1.7-1.4,1.9Z"/>
                  <path class="st39" d="M480.6,203.5c-.9.2-1.7-.5-1.9-1.4-.2-.9.5-1.7,1.4-1.9s1.7.5,1.9,1.4c.2.9-.5,1.7-1.4,1.9Z"/>
                  <path class="st39" d="M495.9,200.9c-.9.2-1.7-.5-1.9-1.4-.2-.9.5-1.7,1.4-1.9s1.7.5,1.9,1.4-.5,1.7-1.4,1.9Z"/>
                  <path class="st39" d="M511.2,198.4c-.9.2-1.7-.5-1.9-1.4-.2-.9.5-1.7,1.4-1.9.9-.2,1.7.5,1.9,1.4.2.9-.5,1.7-1.4,1.9Z"/>
                  <path class="st39" d="M526.6,195.8c-.9.2-1.7-.5-1.9-1.4-.2-.9.5-1.7,1.4-1.9s1.7.5,1.9,1.4c.2.9-.5,1.7-1.4,1.9Z"/>
                  <path class="st39" d="M541.9,193.2c-.9.2-1.7-.5-1.9-1.4-.2-.9.5-1.7,1.4-1.9.9-.2,1.7.5,1.9,1.4.2.9-.5,1.7-1.4,1.9Z"/>
                  <path class="st39" d="M557.2,190.6c-.9.2-1.7-.5-1.9-1.4s.5-1.7,1.4-1.9c.9-.2,1.7.5,1.9,1.4.2.9-.5,1.7-1.4,1.9Z"/>
                  <path class="st39" d="M467.4,218.7c-.9.2-1.7-.5-1.9-1.4-.2-.9.5-1.7,1.4-1.9.9-.2,1.7.5,1.9,1.4.2.9-.5,1.7-1.4,1.9Z"/>
                  <path class="st39" d="M482.7,216.1c-.9.2-1.7-.5-1.9-1.4-.2-.9.5-1.7,1.4-1.9.9-.2,1.7.5,1.9,1.4.2.9-.5,1.7-1.4,1.9Z"/>
                  <path class="st39" d="M498,213.5c-.9.2-1.7-.5-1.9-1.4-.2-.9.5-1.7,1.4-1.9s1.7.5,1.9,1.4c.2.9-.5,1.7-1.4,1.9Z"/>
                  <path class="st39" d="M513.4,210.9c-.9.2-1.7-.5-1.9-1.4-.2-.9.5-1.7,1.4-1.9s1.7.5,1.9,1.4c.2.9-.5,1.7-1.4,1.9Z"/>
                  <path class="st39" d="M528.7,208.3c-.9.2-1.7-.5-1.9-1.4-.2-.9.5-1.7,1.4-1.9.9-.2,1.7.5,1.9,1.4.2.9-.5,1.7-1.4,1.9Z"/>
                  <path class="st39" d="M544,205.8c-.9.2-1.7-.5-1.9-1.4-.2-.9.5-1.7,1.4-1.9.9-.2,1.7.5,1.9,1.4.2.9-.5,1.7-1.4,1.9Z"/>
                  <path class="st39" d="M559.3,203.2c-.9.2-1.7-.5-1.9-1.4-.2-.9.5-1.7,1.4-1.9.9-.2,1.7.5,1.9,1.4.2.9-.5,1.7-1.4,1.9Z"/>
                  <path class="st39" d="M469.5,231.3c-.9.2-1.7-.5-1.9-1.4-.2-.9.5-1.7,1.4-1.9.9-.2,1.7.5,1.9,1.4s-.5,1.7-1.4,1.9Z"/>
                  <path class="st39" d="M484.8,228.7c-.9.2-1.7-.5-1.9-1.4-.2-.9.5-1.7,1.4-1.9s1.7.5,1.9,1.4c.2.9-.5,1.7-1.4,1.9Z"/>
                  <path class="st39" d="M500.2,226.1c-.9.2-1.7-.5-1.9-1.4-.2-.9.5-1.7,1.4-1.9.9-.2,1.7.5,1.9,1.4.2.9-.5,1.7-1.4,1.9Z"/>
                  <path class="st39" d="M515.5,223.5c-.9.2-1.7-.5-1.9-1.4-.2-.9.5-1.7,1.4-1.9.9-.2,1.7.5,1.9,1.4.2.9-.5,1.7-1.4,1.9Z"/>
                  <path class="st39" d="M530.8,220.9c-.9.2-1.7-.5-1.9-1.4-.2-.9.5-1.7,1.4-1.9.9-.2,1.7.5,1.9,1.4.2.9-.5,1.7-1.4,1.9Z"/>
                  <path class="st39" d="M546.1,218.3c-.9.2-1.7-.5-1.9-1.4-.2-.9.5-1.7,1.4-1.9s1.7.5,1.9,1.4c.2.9-.5,1.7-1.4,1.9Z"/>
                  <path class="st39" d="M561.5,215.8c-.9.2-1.7-.5-1.9-1.4-.2-.9.5-1.7,1.4-1.9.9-.2,1.7.5,1.9,1.4.2.9-.5,1.7-1.4,1.9Z"/>
                </g>
              </g>
            </g>
            <g>
              <g>
                <path class="st52" d="M400.1,292.8c-4,0-7.2-3.1-7.5-7.1l-3.4-61.1c-.2-4.1,2.9-7.6,7-7.9l18.6-1c.6,0,1-.5,1.1-.8.2-.5,0-1-.3-1.4-2.2-2.1-3.6-4.9-3.7-7.8-.4-6.9,5.7-12.9,13.6-13.4.3,0,.6,0,.9,0,7.5,0,13.7,5.2,14,11.8.2,2.9-.8,5.8-2.8,8.2-.3.4-.4.9-.2,1.3.2.4.6.7,1.2.7h0s18.6-1,18.6-1c.1,0,.3,0,.4,0,4,0,7.2,3.1,7.5,7.1l1,18.3c0,.8.7,1.2,1.3,1.2s.6,0,.9-.4c2.1-2.1,4.7-3.3,7.5-3.4.2,0,.4,0,.6,0,6.7,0,12.3,6,12.7,13.6.2,3.8-.9,7.4-3.1,10.3-2.2,2.8-5.3,4.5-8.7,4.7-.2,0-.4,0-.6,0-2.6,0-5.1-.9-7.2-2.6-.2-.2-.5-.3-.8-.3s-.7.1-.9.4c-.2.2-.4.5-.3.9l1,18.3c.1,2-.6,3.9-1.9,5.4-1.3,1.5-3.2,2.4-5.2,2.5l-61.1,3.4c-.1,0-.3,0-.4,0Z"/>
                <path class="st39" d="M426.4,192.8c7.2,0,13.3,5,13.6,11.4.2,2.9-.9,5.7-2.7,7.9-.9,1.1-.1,2.8,1.3,2.8s0,0,.1,0l18.6-1c.1,0,.3,0,.4,0,3.7,0,6.8,2.9,7,6.6l1,18.3c0,1,.9,1.6,1.7,1.6s.8-.2,1.2-.5c1.9-1.9,4.4-3.1,7.2-3.3.2,0,.4,0,.6,0,6.4,0,11.9,5.8,12.3,13.2.4,7.6-4.7,14.1-11.4,14.5-.2,0-.4,0-.6,0-2.6,0-5-.9-7-2.5-.3-.3-.7-.4-1-.4-.9,0-1.8.8-1.7,1.8l1,18.3c.2,3.9-2.8,7.2-6.6,7.4l-61.1,3.4c-.1,0-.3,0-.4,0-3.7,0-6.8-2.9-7-6.6l-3.4-61.1c-.2-3.9,2.8-7.2,6.6-7.4l18.6-1c1.5,0,2.2-1.9,1.1-2.9-2.1-2-3.4-4.6-3.6-7.5-.4-6.7,5.5-12.5,13.2-12.9.3,0,.6,0,.9,0M426.4,191.9h0c-.3,0-.6,0-.9,0-3.9.2-7.5,1.8-10.1,4.4-2.7,2.6-4,6-3.8,9.5.2,3,1.5,5.9,3.9,8.1.4.4.3.8.2.9,0,.1-.2.5-.8.6l-18.6,1c-4.4.2-7.7,4-7.4,8.3l3.4,61.1c.2,4.2,3.7,7.5,7.9,7.5s.3,0,.4,0l61.1-3.4c2.1-.1,4-1.1,5.4-2.6,1.4-1.6,2.1-3.6,2-5.7l-1-18.3c0-.3.1-.5.2-.6.2-.2.4-.3.6-.3s.3,0,.5.2c2.2,1.7,4.8,2.7,7.5,2.7s.4,0,.7,0c3.5-.2,6.7-1.9,9-4.9,2.3-2.9,3.4-6.7,3.2-10.6-.4-7.8-6.2-14-13.2-14s-.4,0-.7,0c-2.9.2-5.6,1.4-7.8,3.5-.2.2-.4.2-.6.2-.4,0-.8-.3-.9-.8l-1-18.3c-.2-4.2-3.7-7.5-7.9-7.5-.1,0-.3,0-.4,0l-18.6,1s0,0,0,0c-.5,0-.7-.4-.8-.5,0-.1-.2-.5.1-.9,2.1-2.4,3.1-5.5,2.9-8.5-.4-6.8-6.7-12.2-14.5-12.2h0Z"/>
              </g>
              <g class="st35">
                <g class="st44">
                  <path class="st39" d="M357.1,267.6c-.9.2-1.8-.3-2-1.2-.2-.9.3-1.8,1.2-2,.9-.2,1.8.3,2,1.2.2.9-.3,1.8-1.2,2Z"/>
                  <path class="st39" d="M372.2,263.9c-.9.2-1.8-.3-2-1.2-.2-.9.3-1.8,1.2-2,.9-.2,1.8.3,2,1.2.2.9-.3,1.8-1.2,2Z"/>
                  <path class="st39" d="M387.3,260.1c-.9.2-1.8-.3-2-1.2-.2-.9.3-1.8,1.2-2,.9-.2,1.8.3,2,1.2.2.9-.3,1.8-1.2,2Z"/>
                  <path class="st39" d="M402.4,256.4c-.9.2-1.8-.3-2-1.2-.2-.9.3-1.8,1.2-2,.9-.2,1.8.3,2,1.2.2.9-.3,1.8-1.2,2Z"/>
                  <path class="st39" d="M417.5,252.6c-.9.2-1.8-.3-2-1.2-.2-.9.3-1.8,1.2-2,.9-.2,1.8.3,2,1.2.2.9-.3,1.8-1.2,2Z"/>
                  <path class="st39" d="M432.5,248.8c-.9.2-1.8-.3-2-1.2-.2-.9.3-1.8,1.2-2,.9-.2,1.8.3,2,1.2.2.9-.3,1.8-1.2,2Z"/>
                  <path class="st39" d="M447.6,245.1c-.9.2-1.8-.3-2-1.2-.2-.9.3-1.8,1.2-2,.9-.2,1.8.3,2,1.2.2.9-.3,1.8-1.2,2Z"/>
                  <path class="st39" d="M360.2,280c-.9.2-1.8-.3-2-1.2-.2-.9.3-1.8,1.2-2,.9-.2,1.8.3,2,1.2.2.9-.3,1.8-1.2,2Z"/>
                  <path class="st39" d="M375.3,276.3c-.9.2-1.8-.3-2-1.2-.2-.9.3-1.8,1.2-2,.9-.2,1.8.3,2,1.2.2.9-.3,1.8-1.2,2Z"/>
                  <path class="st39" d="M390.4,272.5c-.9.2-1.8-.3-2-1.2-.2-.9.3-1.8,1.2-2,.9-.2,1.8.3,2,1.2.2.9-.3,1.8-1.2,2Z"/>
                  <path class="st39" d="M405.5,268.7c-.9.2-1.8-.3-2-1.2-.2-.9.3-1.8,1.2-2,.9-.2,1.8.3,2,1.2.2.9-.3,1.8-1.2,2Z"/>
                  <path class="st39" d="M420.5,265c-.9.2-1.8-.3-2-1.2-.2-.9.3-1.8,1.2-2,.9-.2,1.8.3,2,1.2.2.9-.3,1.8-1.2,2Z"/>
                  <path class="st39" d="M435.6,261.2c-.9.2-1.8-.3-2-1.2-.2-.9.3-1.8,1.2-2,.9-.2,1.8.3,2,1.2.2.9-.3,1.8-1.2,2Z"/>
                  <path class="st39" d="M450.7,257.5c-.9.2-1.8-.3-2-1.2-.2-.9.3-1.8,1.2-2,.9-.2,1.8.3,2,1.2s-.3,1.8-1.2,2Z"/>
                  <path class="st39" d="M363.3,292.4c-.9.2-1.8-.3-2-1.2-.2-.9.3-1.8,1.2-2,.9-.2,1.8.3,2,1.2.2.9-.3,1.8-1.2,2Z"/>
                  <path class="st39" d="M378.4,288.6c-.9.2-1.8-.3-2-1.2-.2-.9.3-1.8,1.2-2,.9-.2,1.8.3,2,1.2s-.3,1.8-1.2,2Z"/>
                  <path class="st39" d="M393.5,284.9c-.9.2-1.8-.3-2-1.2-.2-.9.3-1.8,1.2-2,.9-.2,1.8.3,2,1.2.2.9-.3,1.8-1.2,2Z"/>
                  <path class="st39" d="M408.6,281.1c-.9.2-1.8-.3-2-1.2-.2-.9.3-1.8,1.2-2,.9-.2,1.8.3,2,1.2.2.9-.3,1.8-1.2,2Z"/>
                  <path class="st39" d="M423.6,277.4c-.9.2-1.8-.3-2-1.2-.2-.9.3-1.8,1.2-2,.9-.2,1.8.3,2,1.2.2.9-.3,1.8-1.2,2Z"/>
                  <path class="st39" d="M438.7,273.6c-.9.2-1.8-.3-2-1.2-.2-.9.3-1.8,1.2-2,.9-.2,1.8.3,2,1.2.2.9-.3,1.8-1.2,2Z"/>
                  <circle class="st39" cx="453.4" cy="268.2" r="1.6"/>
                  <path class="st39" d="M366.4,304.8c-.9.2-1.8-.3-2-1.2-.2-.9.3-1.8,1.2-2,.9-.2,1.8.3,2,1.2.2.9-.3,1.8-1.2,2Z"/>
                  <path class="st39" d="M381.5,301c-.9.2-1.8-.3-2-1.2-.2-.9.3-1.8,1.2-2,.9-.2,1.8.3,2,1.2.2.9-.3,1.8-1.2,2Z"/>
                  <path class="st39" d="M396.6,297.3c-.9.2-1.8-.3-2-1.2-.2-.9.3-1.8,1.2-2,.9-.2,1.8.3,2,1.2.2.9-.3,1.8-1.2,2Z"/>
                  <path class="st39" d="M411.6,293.5c-.9.2-1.8-.3-2-1.2-.2-.9.3-1.8,1.2-2,.9-.2,1.8.3,2,1.2.2.9-.3,1.8-1.2,2Z"/>
                  <path class="st39" d="M426.7,289.7c-.9.2-1.8-.3-2-1.2-.2-.9.3-1.8,1.2-2,.9-.2,1.8.3,2,1.2.2.9-.3,1.8-1.2,2Z"/>
                  <path class="st39" d="M441.8,286c-.9.2-1.8-.3-2-1.2-.2-.9.3-1.8,1.2-2s1.8.3,2,1.2-.3,1.8-1.2,2Z"/>
                  <circle class="st39" cx="456.5" cy="280.6" r="1.6"/>
                  <path class="st39" d="M369.5,317.2c-.9.2-1.8-.3-2-1.2-.2-.9.3-1.8,1.2-2,.9-.2,1.8.3,2,1.2.2.9-.3,1.8-1.2,2Z"/>
                  <path class="st39" d="M384.6,313.4c-.9.2-1.8-.3-2-1.2-.2-.9.3-1.8,1.2-2,.9-.2,1.8.3,2,1.2.2.9-.3,1.8-1.2,2Z"/>
                  <path class="st39" d="M399.6,309.6c-.9.2-1.8-.3-2-1.2-.2-.9.3-1.8,1.2-2,.9-.2,1.8.3,2,1.2.2.9-.3,1.8-1.2,2Z"/>
                  <path class="st39" d="M414.7,305.9c-.9.2-1.8-.3-2-1.2-.2-.9.3-1.8,1.2-2,.9-.2,1.8.3,2,1.2.2.9-.3,1.8-1.2,2Z"/>
                  <path class="st39" d="M429.8,302.1c-.9.2-1.8-.3-2-1.2-.2-.9.3-1.8,1.2-2,.9-.2,1.8.3,2,1.2.2.9-.3,1.8-1.2,2Z"/>
                  <circle class="st39" cx="444.5" cy="296.8" r="1.6"/>
                  <path class="st39" d="M460,294.6c-.9.2-1.8-.3-2-1.2-.2-.9.3-1.8,1.2-2,.9-.2,1.8.3,2,1.2.2.9-.3,1.8-1.2,2Z"/>
                  <path class="st39" d="M372.6,329.5c-.9.2-1.8-.3-2-1.2-.2-.9.3-1.8,1.2-2,.9-.2,1.8.3,2,1.2.2.9-.3,1.8-1.2,2Z"/>
                  <path class="st39" d="M387.7,325.8c-.9.2-1.8-.3-2-1.2-.2-.9.3-1.8,1.2-2,.9-.2,1.8.3,2,1.2.2.9-.3,1.8-1.2,2Z"/>
                  <path class="st39" d="M402.7,322c-.9.2-1.8-.3-2-1.2-.2-.9.3-1.8,1.2-2,.9-.2,1.8.3,2,1.2s-.3,1.8-1.2,2Z"/>
                  <path class="st39" d="M417.8,318.3c-.9.2-1.8-.3-2-1.2-.2-.9.3-1.8,1.2-2,.9-.2,1.8.3,2,1.2s-.3,1.8-1.2,2Z"/>
                  <path class="st39" d="M432.9,314.5c-.9.2-1.8-.3-2-1.2-.2-.9.3-1.8,1.2-2,.9-.2,1.8.3,2,1.2.2.9-.3,1.8-1.2,2Z"/>
                  <path class="st39" d="M448,310.7c-.9.2-1.8-.3-2-1.2-.2-.9.3-1.8,1.2-2,.9-.2,1.8.3,2,1.2.2.9-.3,1.8-1.2,2Z"/>
                  <path class="st39" d="M463.1,307c-.9.2-1.8-.3-2-1.2-.2-.9.3-1.8,1.2-2,.9-.2,1.8.3,2,1.2.2.9-.3,1.8-1.2,2Z"/>
                  <path class="st39" d="M375.7,341.9c-.9.2-1.8-.3-2-1.2-.2-.9.3-1.8,1.2-2,.9-.2,1.8.3,2,1.2.2.9-.3,1.8-1.2,2Z"/>
                  <path class="st39" d="M390.7,338.2c-.9.2-1.8-.3-2-1.2-.2-.9.3-1.8,1.2-2,.9-.2,1.8.3,2,1.2.2.9-.3,1.8-1.2,2Z"/>
                  <path class="st39" d="M405.8,334.4c-.9.2-1.8-.3-2-1.2-.2-.9.3-1.8,1.2-2,.9-.2,1.8.3,2,1.2s-.3,1.8-1.2,2Z"/>
                  <path class="st39" d="M420.9,330.6c-.9.2-1.8-.3-2-1.2-.2-.9.3-1.8,1.2-2,.9-.2,1.8.3,2,1.2.2.9-.3,1.8-1.2,2Z"/>
                  <path class="st39" d="M436,326.9c-.9.2-1.8-.3-2-1.2-.2-.9.3-1.8,1.2-2s1.8.3,2,1.2c.2.9-.3,1.8-1.2,2Z"/>
                  <circle class="st39" cx="450.7" cy="321.5" r="1.6"/>
                  <path class="st39" d="M466.1,319.3c-.9.2-1.8-.3-2-1.2-.2-.9.3-1.8,1.2-2,.9-.2,1.8.3,2,1.2.2.9-.3,1.8-1.2,2Z"/>
                  <path class="st39" d="M378.8,354.3c-.9.2-1.8-.3-2-1.2-.2-.9.3-1.8,1.2-2,.9-.2,1.8.3,2,1.2.2.9-.3,1.8-1.2,2Z"/>
                  <path class="st39" d="M393.8,350.5c-.9.2-1.8-.3-2-1.2-.2-.9.3-1.8,1.2-2,.9-.2,1.8.3,2,1.2.2.9-.3,1.8-1.2,2Z"/>
                  <path class="st39" d="M408.9,346.8c-.9.2-1.8-.3-2-1.2-.2-.9.3-1.8,1.2-2,.9-.2,1.8.3,2,1.2.2.9-.3,1.8-1.2,2Z"/>
                  <path class="st39" d="M424,343c-.9.2-1.8-.3-2-1.2-.2-.9.3-1.8,1.2-2,.9-.2,1.8.3,2,1.2.2.9-.3,1.8-1.2,2Z"/>
                  <circle class="st39" cx="438.7" cy="337.6" r="1.6" transform="translate(-75.9 541.8) rotate(-59.2)"/>
                  <path class="st39" d="M454.1,335.5c-.9.2-1.8-.3-2-1.2-.2-.9.3-1.8,1.2-2,.9-.2,1.8.3,2,1.2s-.3,1.8-1.2,2Z"/>
                  <path class="st39" d="M469.2,331.7c-.9.2-1.8-.3-2-1.2-.2-.9.3-1.8,1.2-2,.9-.2,1.8.3,2,1.2.2.9-.3,1.8-1.2,2Z"/>
                </g>
              </g>
            </g>
          </g>
          <g>
            <g>
              <path class="st47" d="M317.5,205.5s-.6,25-2.1,33.6c-1.7,9.6-16,29-16,29l3.3,3.3,4.9,2.3s12.5-12,19.6-27c6.1-13,6.4-40,6.4-40"/>
              <g>
                <g>
                  <path class="st24" d="M314,281.7c.2-.6.2-1.3,0-1.6l-5.1-7.5c-4.9-.9-9.1-5.3-9.1-5.3l-4.3,4.7c-.1.2,0,.4.1.5l17.2,10.8c.3.2,1.2-1.6,1.2-1.6Z"/>
                  <path class="st12" d="M310.2,273.9c-.7.3-1.4.6-2.1,1"/>
                  <path class="st12" d="M310.7,275c-.8.3-1.1.5-1.7.9"/>
                  <path class="st12" d="M311.2,275.8c-.5.2-1.1.5-1.6.8"/>
                </g>
                <line class="st12" x1="296.1" y1="271.2" x2="313.7" y2="282.3"/>
                <path class="st12" d="M298.2,269s4.1,2.7,2.8,5.4"/>
                <path class="st12" d="M312.9,278.6s-2.2.9-2.9,1.5"/>
              </g>
            </g>
            <g>
              <path class="st47" d="M335.9,215.8s1,14.6,1.6,25.8c.7,11.2,2,36.7,2,36.7l4.8,1.1,5.4-.9s1.4-22.1,1.4-36.7-.6-36.5-.6-36.5"/>
              <g>
                <g>
                  <path class="st24" d="M359.3,282.6c-.2-.6-.5-1.2-.9-1.4l-8.3-3.6c-4.6,1.9-10.6.4-10.6.4l-1.1,6.3c0,.2.2.4.4.4h20.3c.4-.1.1-2.1.1-2.1Z"/>
                  <path class="st12" d="M351.8,278c-.5.6-.9,1.3-1.2,2"/>
                  <path class="st12" d="M352.9,278.6c-.5.7-.7,1.1-1,1.7"/>
                  <path class="st12" d="M353.8,279c-.3.4-.7,1.1-.9,1.5"/>
                </g>
                <line class="st12" x1="338.5" y1="283.3" x2="359.3" y2="283.2"/>
                <path class="st12" d="M339.1,280.3s4.9,0,5.3,3"/>
                <path class="st12" d="M356.7,280.5s-1.3,1.9-1.6,2.8"/>
              </g>
            </g>
            <path class="st48" d="M335.6,133.1c-2.6-.6-5.1,1.2-6.3,3-.4.6-.7,1.2-1.1,1.8-2.6,3.5-13.2,2.4-11.1,9.2.2.8.7,1.5.8,2.3,0,1-.5,2-.7,3-.9,3.2,1.3,6.9,4.6,7.6,1.5.3,3.1.1,4.3.9,1.2.7,1.7,2.2,2.5,3.3,2.3,3,6.8,3.6,10.4,2.3,1.4-.5,2.7-1.3,3.3-2.6.3-.7.4-1.6.8-2.3.8-1.3,2.7-1.6,4-2.4,2-1.1,3.1-3.8,2.2-5.9-.9-2.2-2.9-4.2-3.3-6.5-.2-1.3.1-2.7-.2-4-.2-1-.7-1.9-1.5-2.5-.5-.4-1.2-.7-1.7-1.1-1.1-.9-1.2-2.5-2.4-3.5-1.1-.9-2.6-1.2-3.9-2"/>
            <path class="st47" d="M340.4,149.2c6.7-1.9,16.4-1.5,24.2-9.2,7.8-7.7,11.1-13.6,11.1-13.6l6,4.7s-7.9,15.1-14.9,20.2c-9.2,6.7-15.5,7.7-20.8,8.7"/>
            <path class="st47" d="M374.1,128.9c1.6-2.5,5.6-9.7,6.2-9.6.6,0-.7,2.6-.3,2.6s2.7-3.8,3.2-3.5c.7.3-1.8,4-1.8,4,0,0,.6-.7,1.2-.2.4.3,0,1.4,0,1.4,0,0,.7-.7,1.1-.4.4.3-.1,1.7-.1,1.7,0,0,.6-.3.9,0,.4.3-1.6,4.8-5.2,10.6"/>
            <path class="st18" d="M379.5,122.8s-.1,1.3,0,2.2c.2,1.4-.3,2.2-.3,2.2"/>
            <path class="st25" d="M381.2,122.6c-.2.4-.3.8-.4,1.3,0,.2-.1.4-.2.6,0,.2,0,.4,0,.6,0,0,0,.1.1.1,0,0,.2,0,.2,0,.2-.1.3-.2.5-.4.3-.3.6-.7.8-1,0,0,.2-.1.3,0,0,0,.1.2,0,.2h0c-.2.4-.4.8-.6,1.2,0,.2-.2.4-.2.6,0,.2,0,.4,0,.5,0,0,0,0,0,0,0,0,.1,0,.2,0,.2,0,.3-.2.5-.4.3-.3.5-.7.8-1h0c0,0,.2-.1.3,0,0,0,.1.2,0,.2-.2.4-.3.7-.5,1.1-.1.4-.3.8-.3,1.1,0,0,0,.2,0,.2,0,0,0,0,.1,0,.2,0,.3-.2.5-.3.3-.3.6-.6.8-.9-.2.4-.4.7-.7,1-.1.2-.3.3-.5.4,0,0-.1,0-.2,0,0,0-.2,0-.2-.1,0-.1,0-.2,0-.4,0-.4.2-.8.3-1.2.1-.4.3-.8.5-1.1l.3.2c-.2.4-.5.8-.8,1.1-.2.2-.3.3-.6.5-.1,0-.3.1-.4,0,0,0-.2,0-.3-.1,0,0-.1-.2-.1-.3,0-.3,0-.5,0-.8,0-.2.2-.4.2-.6.2-.4.4-.8.6-1.2l.3.2c-.3.4-.6.7-.9,1-.2.2-.4.3-.6.4-.1,0-.2.1-.4,0,0,0-.2,0-.2-.1,0,0,0-.1,0-.2,0-.5.2-.9.3-1.4.2-.4.4-.8.6-1.2Z"/>
            <path class="st48" d="M332.7,134.3"/>
            <path class="st48" d="M334,133.6c-.3-.2-.7-.1-1-.4-.4-.4-.5-1.1-.3-1.6.3-.8,1.4-1.2,2.2-1.1,2,.3,1.7,2.2.5,2.9"/>
            <g>
              <path class="st33" d="M323.2,181.3s-7,7.5-8.4,17.7c-1.3,10.2-1.4,26.8-1.4,26.8,0,0,20.3,3.7,38.7-.4-.7-8.5,0-32.3-6.4-44.2"/>
              <path class="st3" d="M317.2,226.4s-.6-25.7,2.3-34.3c2.3-6.8,7.5-13.4,7.5-13.4"/>
            </g>
            <g>
              <path class="st22" d="M352.4,147.3l2.4,11.4s-4.7,1.9-9.5,2.2c-2.6,0-6.6-10.2-5.1-12.2,4.4-1.3,12.2-1.4,12.2-1.4Z"/>
              <path class="st22" d="M322.7,160.1s-.3,13.4.5,21.2c11.3,2.5,22.5,0,22.5,0l.8-12.2c5.6-5.8.7-13.3.7-13.3l-7-7.1-7-.4-10.5,11.8Z"/>
              <path class="st22" d="M333.2,148.3s-6.2-1-12.2,4c-1.4,1.1-3,3.4-4.4,6.3l9.7,6.4,5.7-6.4"/>
              <path class="st12" d="M349,160.4c-.5-1.8-1.8-4.6-1.8-6.3"/>
              <line class="st12" x1="350.6" y1="147.3" x2="353.3" y2="159.3"/>
              <line class="st12" x1="317.4" y1="156.9" x2="324.4" y2="161.3"/>
            </g>
            <g>
              <path class="st47" d="M340.7,135.9s2.6,6.7.6,8.7c-1,1.1-4.5.5-5.8-.5-1-.7-2.3-5.2-1.7-6,2-3.2,6.9-2.2,6.9-2.2Z"/>
              <path class="st47" d="M333.4,141.7l-.3,6.6c.5,1.7,6.1,3.2,7,.4l-.6-4.9-6.2-2Z"/>
              <path class="st48" d="M330.5,141c-.2-.6-.3-1.3-.3-2,0-.8,0-1.7.4-2.5.5-1.3,1.5-2.5,2.8-3.1,1.3-.6,3.8-1.2,5.8,0,1-.1,2.1.2,2.9.9s1.1,1.8.9,2.8c-1.9-.2-3.8-.4-5.7-.7-.4,1-1.1,1.9-2,2.6-.9.6-1.9,1.4-1.5,2.6.2.5-.4.6-.4,1.6-1-.1-2.5-1.6-2.8-2.2,0,0,0,0,0,0Z"/>
              <path class="st47" d="M334.3,140.7c-.6-.9-1.2-.9-1.5-.4-.5.6.2,2,.6,2.3.7.5,1.4.5,1.5,0"/>
              <path class="st18" d="M339.8,145.3c-2.5.1-4.2-1.3-4.2-1.3"/>
              <path class="st17" d="M339.3,139.2s1.6,1.4,1.6,1.9c0,.4-1.1.6-1.1.6"/>
              <path class="st39" d="M341,142.1l-2.8.8s.7,1.4,2.2.9c1.1-.4.5-1.6.5-1.6Z"/>
              <path class="st24" d="M340.4,138.7c0,.1,0,.2.1.4.1.3.5.1.4-.2,0-.1-.1-.2-.2-.3-.1-.2-.4,0-.4.2h0Z"/>
              <path class="st16" d="M339.8,138.1s.4-.6,1-.3"/>
              <path class="st24" d="M337.3,139.9c0,.1,0,.2.1.4,0,.3.5.2.4-.1,0-.1-.1-.3-.2-.4-.1-.2-.4,0-.4.2h0Z"/>
              <path class="st16" d="M337.7,138.7s-.7-.1-1.3.8"/>
            </g>
            <g>
              <path class="st47" d="M316.5,158.5c-3,6.1-4.9,15,1.5,17.7,6.6,2.8,24.1-18.5,24.1-18.5l-5.4-4.6-14.4,9.3"/>
              <line class="st18" x1="322.3" y1="162.3" x2="318" y2="165.7"/>
              <g>
                <path class="st33" d="M342.1,154.8h0c-.9-.2-1.4-1-1.3-1.9l1.2-6.2,3.1.6-1.2,6.2c-.2.9-1,1.4-1.9,1.3Z"/>
                <g>
                  <path class="st38" d="M345.6,148.7l-2.5-.6c-1.8-.4-2.9-2.2-2.5-4h0c.4-1.8,2.2-2.9,4-2.5l2.5.6c.2,0,.2.2.2.3l-1.4,6c0,.2-.2.2-.3.2Z"/>
                  <path class="st32" d="M347.5,145.8c-.4,1.8-1.3,3.1-1.9,3-.6-.1-.7-1.7-.3-3.5.4-1.8,1.3-3.1,1.9-3,.6.1.7,1.7.3,3.5Z"/>
                  <g>
                    <path class="st33" d="M353.5,154.4s-4.6-4-7.4-5.6c-.9-.7-.6-2.3-.3-3.3.6-2.3,1.4-2.6,1.4-2.6,3.7.3,9.6-1.5,9.6-1.5"/>
                    <path class="st32" d="M353.8,147.3c-1,4.1-.9,7.6.2,7.9,1.2.3,2.9-2.8,3.9-6.8,1-4.1.9-7.6-.2-7.9s-2.9,2.8-3.9,6.8Z"/>
                    <g>
                      <path class="st38" d="M354.4,147.5c-.9,3.4-.9,6.4,0,6.6.9.2,2.3-2.4,3.1-5.8.9-3.4.9-6.4,0-6.6-.9-.2-2.3,2.4-3.1,5.8Z"/>
                      <path class="st33" d="M356,149.4c-.8-.2-1.5-.1-1.9,0,.1-.6.2-1.3.4-1.9.2-.7.4-1.3.6-1.9.3.3.9.7,1.7.9l-.7,3Z"/>
                      <path class="st48" d="M355.9,147.8c-.2.8-.2,1.5,0,1.6s.6-.6.8-1.4.2-1.5,0-1.6c-.2,0-.6.6-.8,1.4Z"/>
                    </g>
                  </g>
                </g>
              </g>
              <path class="st47" d="M334.1,154.7c3.6-2.3,6.1-3.7,6.5-3.9,1.4-.6,3-.4,4.1,0,.4.2.7.4,1,.7.3.4.4.9.4,1.4,0,0,0,.2,0,.3-.2.1-.3-.2-.5-.3-.3-.5-.8-.7-1.3-.7.3,0,.4.3.5.5s0,.6-.3.6c.3,0,.5.3.5.5s-.1.5-.4.6c.2,0,.3.3.2.5,0,.2-.1.3-.2.5-.5.6-1.1,1.2-1.7,1.7-1.9,1.7-5.9,6.2-5.9,6.2"/>
            </g>
          </g>
          <g>
            <g>
              <g>
                <g>
                  <path class="st47" d="M356,281.7l-16.2-1.2-5.3.5v20.2c.1.5.5.9,1,.9h0c.4,0,.7-.2.9-.6l4.1-9,16.9,2"/>
                  <path class="st22" d="M334.8,303c.7-.2,1.4-.6,1.6-1l4.1-9.5c-2.1-5.3-.5-12.1-.5-12.1l-7.2-.5c-.2,0-.4.2-.4.4v22.5c.1.5,2.4.2,2.4.2Z"/>
                  <path class="st12" d="M340,294.5c-.7-.5-1.5-1-2.3-1.3"/>
                  <path class="st12" d="M339.3,295.7c-.8-.6-1.2-.8-1.9-1.1"/>
                  <path class="st12" d="M338.8,296.8c-.5-.4-1.2-.7-1.8-1"/>
                </g>
                <line class="st12" x1="333.9" y1="280" x2="334" y2="303.1"/>
                <path class="st12" d="M337.3,280.2s0,5.4-3.4,5.8"/>
                <path class="st12" d="M337.2,300.1s-2.2-1.5-3.2-1.8"/>
              </g>
              <path class="st0" d="M384.3,248.4c.2.5,3.3,21.9,5.4,36.8,1.4,9.3,1.5,15.2-12.1,14.1-18.7-1.5-31.8-2.4-31.8-2.4l-.4-16.8,25.7,1.2-3.4-16.6s-6.2-8.3-1.6-17.8"/>
              <line class="st10" x1="348.2" y1="280.3" x2="348.9" y2="297"/>
              <path class="st10" d="M379.8,259.5l4.5,26.3c0,.7-.5,1.3-1.2,1.3l-37.6-2.3"/>
              <g>
                <g>
                  <path class="st47" d="M403.7,279.5l-3.4,16.2v5.3c-.1,0,20.7-.1,20.7-.1.5,0,.9-.4.9-.9h0c0-.4-.2-.7-.6-.9l-9-4.1,4.2-16.9"/>
                  <path class="st22" d="M422.9,300.7c-.2-.7-.6-1.4-1-1.6l-9.5-4.1c-5.3,2.1-12.1.5-12.1.5l-1.2,7.2c0,.2.2.4.4.4h23.2c.5-.1.2-2.4.2-2.4Z"/>
                  <path class="st12" d="M414.4,295.4c-.5.7-1,1.5-1.3,2.3"/>
                  <path class="st12" d="M415.6,296.1c-.6.8-.8,1.2-1.1,1.9"/>
                  <path class="st12" d="M416.6,296.7c-.4.5-.7,1.2-1,1.8"/>
                </g>
                <line class="st12" x1="399.2" y1="301.6" x2="423" y2="301.4"/>
                <path class="st12" d="M399.8,298.1s5.6.1,6.1,3.5"/>
                <path class="st12" d="M419.9,298.3s-1.5,2.2-1.8,3.2"/>
              </g>
              <path class="st0" d="M393,243.5l1.2,4.7c.2.7.8,1.1,1.5,1.1h16.2c4,0,8.1.1,10.4,3.5,1.9,2.8,1.2,7.5-.3,12.9-1.3,4.6-6,25.6-6,25.6h-16.6l4.7-25.1h-19.2s-12.4.1-10.7-12.3"/>
              <line class="st10" x1="399.7" y1="288.7" x2="416.3" y2="288.7"/>
              <path class="st10" d="M387,266.2h-2.3s-11.9,0-12-12.3"/>
              <path class="st10" d="M385.7,247.5s.3,13.9,12,13.9h8.8c1.1,0,1.9,1,1.7,2.1l-5.8,27.8"/>
              <path class="st10" d="M386.8,253.3c0,.2,4.9-1.1,4.8-5.8"/>
              <path class="st10" d="M376.7,255.2s2.5,0,4.8-.7"/>
              <path class="st10" d="M364.5,255.2s2.3,0,4.1,0"/>
            </g>
            <g>
              <path class="st47" d="M378.7,197.1s5.8-17.8,16.5-32.2l-7.3-4.5c-11.6,12.6-19.2,33.6-19.2,33.6"/>
              <path class="st48" d="M364.1,227.4s-2.4-22,6.7-40.5l10.7,3.5-2.8,14.1"/>
              <line class="st19" x1="370" y1="189" x2="380.6" y2="192.6"/>
              <path class="st47" d="M393.6,166.9c1.7-2.6,8-9.5,7.7-10-.3-.6-2.5,1.8-2.7,1.3-.2-.5,3-4.4,2.6-4.9-.6-.7-3.7,3.5-3.7,3.5,0,0,3.1-4.7,2.4-5.1-.5-.3-3,3.2-4.2,4.4,1.1-1.5,2.5-4.1,2-4.4-.5-.3-2.3,2-3.8,3.8.8-1.2,2.2-3.3,1.7-3.6-.5-.3-6.4,6-11.1,12.4"/>
              <path class="st47" d="M385.8,221.8s11,4.2,19,4.7c10.5.7,22.8-3.2,22.8-3.2,0,0,1.6-8.7-2.6-8.2-5.2.9-14.2,1.6-20.9.8-4.2-.5-13.2-5.3-13.2-5.3"/>
              <path class="st47" d="M422.6,215.5c3.1-.4,12-3.1,12.4-2.6.4.5-2.7,1.5-2.3,1.9.4.4,5.3-.8,5.5-.2.3.8-4.7,1.8-4.7,1.8,0,0,5.6-.8,5.7,0,0,.6-4.2,1.4-5.8,1.9,1.8-.3,4.7-.5,4.8,0,0,.6-2.8,1.2-5,1.8,1.4-.2,4-.5,4,0,0,.6-6.8,2.5-13.4,4.1"/>
              <g>
                <path class="st47" d="M374.5,201.1l-1.5,7.5s4.2,4.3,8.6.3v-5s-7.1-2.8-7.1-2.8Z"/>
                <path class="st47" d="M382.4,194s3.6,7.2,1.4,9.6c-1.2,1.2-2.9,1.7-4.4.6-1.1-.9-5.5-6-4.9-7,2.3-3.7,7.9-3.1,7.9-3.1Z"/>
                <path class="st47" d="M383.9,198.1s1.3,1.3,1.3,2.2-1.3.4-1.3.4"/>
                <path class="st39" d="M383.8,201.4l-2.3-.3c-.1.9,1.6,3.1,2.3.3Z"/>
                <path class="st24" d="M382.1,197.9c0,.2,0,.5.2.7.1,0,.2,0,.2-.1,0-.2,0-.4-.1-.5,0-.2-.3-.2-.3,0h0Z"/>
                <path class="st16" d="M381,197.5c.2-.4.7-.6,1.1-.7.2,0,.4,0,.5.1"/>
                <path class="st26" d="M373.7,194.5c.4-2.6,3-3.1,7.8-2.4.6,0,1.8-.2,2.1.4.3.8.3,2.3-.6,3-.7.5-1.7.3-2.5.5-1.3.5-.7,1.7-1.3,2.6-1.1,1.5-.4,3.8-2.3,4.9-1.1.7-2.5.5-3.7.2-.2,0-.3,0-.4-.2-.4-.3-.3-1.5-.4-2-.4-1.6-.6-3.3-.5-5,.1-1.5,1.3-2.3,1.8-2.2Z"/>
                <path class="st47" d="M379.2,199.1c-.3-1.5-1.4-1-1.8-.5-.5.7.3,2.3.7,2.6.8.6,1.6.6,1.7,0"/>
                <path class="st18" d="M381.5,204.9c-1.6-.5-2.7-1.3-2.7-1.3"/>
              </g>
              <path class="st48" d="M372.9,206.3s-6.5,2.8-8.6,13.1c-.9,4.6.8,29.3.8,29.3,14.1,2.8,29.4-1.3,29.4-1.3,0,0-1.7-16.1-2.5-22.2-1.8-14-11.5-18.4-11.5-18.4l-7.6-.4Z"/>
              <path class="st48" d="M380.6,206.8s5.4.8,8.9,2.5c3.5,1.7,11.4,5.5,11.4,5.5l-4,11.2-14.3-4.5"/>
              <line class="st19" x1="391.9" y1="224.2" x2="383.9" y2="221.9"/>
              <line class="st19" x1="398.4" y1="213.6" x2="394.6" y2="225.1"/>
              <path class="st19" d="M365.1,247s13.8,2.1,29.3-1.1"/>
            </g>
          </g>
          <g>
            <g>
              <g>
                <g>
                  <path class="st47" d="M584.7,278l3.4,16.2-.5,5.3h-20.2c-.5-.1-.9-.5-.9-1h0c0-.4.2-.7.6-.9l9-4.1-4.2-16.9"/>
                  <path class="st40" d="M565.5,299.2c.2-.7.6-1.4,1-1.6l9.5-4.1c5.3,2.1,12.1.5,12.1.5l.5,7.2c0,.2-.2.4-.4.4h-22.5c-.5-.1-.2-2.4-.2-2.4Z"/>
                  <path class="st3" d="M574,294c.5.7,1,1.5,1.3,2.3"/>
                  <path class="st3" d="M572.8,294.7c.6.8.8,1.2,1.1,1.9"/>
                  <path class="st3" d="M571.8,295.2c.4.5.7,1.2,1,1.8"/>
                </g>
                <line class="st3" x1="588.5" y1="300.1" x2="565.4" y2="300"/>
                <path class="st3" d="M588.3,296.7s-5.4,0-5.8,3.4"/>
                <path class="st3" d="M568.5,296.8s1.5,2.2,1.8,3.2"/>
              </g>
              <path class="st22" d="M577.4,219.1s-12.9,28.9-12.2,39.1c.6,9.5,7.9,33.6,7.9,33.6l15.5-2.8s-7.4-29.8-7-32.9c.4-3.1,9.8-24.3,9.8-24.3,0,0,3.7-5,2.4-13.6"/>
              <path class="st12" d="M586,289.5s-7.2-30.1-6.8-33.1c.4-3.1,9.3-23.9,9.3-23.9"/>
              <line class="st12" x1="587.8" y1="286.1" x2="572.3" y2="289.3"/>
              <g>
                <g>
                  <path class="st47" d="M607,270.4l7.2,15.1,1.8,5.1-18.3,8.5c-.5.2-1,0-1.2-.5h0c-.2-.3,0-.8.2-1l6.4-7.6-8.3-15.4"/>
                  <path class="st40" d="M596,299.6c0-.7,0-1.5.2-1.9l6.9-7.8c5.7-.3,11.1-4.7,11.1-4.7l3.5,6.3c0,.2,0,.5-.2.6l-20.5,9.5c-.4.2-1.1-2-1.1-2Z"/>
                  <path class="st3" d="M601.4,291.2c.8.4,1.5.9,2.2,1.5"/>
                  <path class="st3" d="M600.6,292.4c.8.5,1.2.8,1.8,1.3"/>
                  <path class="st3" d="M599.9,293.3c.6.3,1.2.8,1.7,1.2"/>
                </g>
                <line class="st3" x1="617.2" y1="290.7" x2="596.2" y2="300.3"/>
                <path class="st3" d="M615.5,287.6s-4.8,2.3-3.8,5.6"/>
                <path class="st3" d="M597.6,296.2s2.3,1.3,3,2.1"/>
              </g>
              <path class="st22" d="M587.6,220s-4.9,27.3-2.6,37.2c2.6,11.2,13.8,30.1,13.8,30.1l13.9-6.9s-12-23-12-28c0-3.1,2.8-22.2,2.8-22.2,0,0,2.8-5.5,0-13.8"/>
              <path class="st12" d="M609.6,282s-12-22.5-12-28.9c0-3.1,1.9-17.6,2.8-22.2.8-4.7,2.5-10,0-13.8"/>
              <path class="st12" d="M584.4,248c.7-7.7,1.6-17.9,2.8-27.1"/>
              <path class="st12" d="M595.4,220.9s.9,2.3,6.1,3.7"/>
              <path class="st12" d="M585,221.4s-.8,5.6-.3,6.4c.2.3,1.8.6,1.8.6"/>
              <path class="st12" d="M575.5,223.6s3.1,0,4.9-1.9"/>
              <line class="st12" x1="611.5" y1="277.9" x2="597.4" y2="284.8"/>
            </g>
            <path class="st40" d="M581.7,178.2s-5.9,1.7-6.7,12.9c-.8,4.6,1.1,30.2,1.1,30.2,14.2,2.5,29.3-1.9,29.3-1.9,0,0-2.7-16.1-3.7-22.1-2.5-15.1-13-18.4-13-18.4l-7.1-.7Z"/>
            <path class="st47" d="M584.2,178.3s-3.5-6.1-8.8-12.1c-7.1-7.9-17.7-14.4-17.7-14.4,0,0-7.2,5.1-3.9,7.7,4.4,3,10,8.8,14.2,14.1,2.7,3.3,8,13.5,8,13.5"/>
            <path class="st47" d="M555.8,160.8c-2.5-1.9-10.7-6.2-10.7-6.8,0-.6,3,.8,3,.3,0-.5-4.4-3.1-4.1-3.7.4-.8,4.6,2,4.6,2,0,0-4.5-3.4-4-4,.4-.4,4,2,5.4,2.7-1.5-1-3.8-2.9-3.4-3.4.4-.5,2.9,1.1,4.8,2.2-1.2-.8-3.2-2.4-2.9-2.8.3-.4,6.7,2.8,12.6,6.9"/>
            <g>
              <path class="st47" d="M595,197s-5.3,10.5-10.9,16.3c-7.3,7.6-19,12.9-19,12.9,0,0-7-5.3-3.6-7.8,4.5-2.8,11.6-8.4,16-13.5,2.8-3.2,7.2-13.3,7.2-13.3"/>
              <path class="st47" d="M563.5,217.1c-2.6,1.8-11,5.8-10.9,6.4,0,.6,3-.7,3-.2,0,.5-4.5,2.9-4.2,3.6.3.8,4.7-1.9,4.7-1.9,0,0-4.7,3.2-4.2,3.9.3.5,4-1.8,5.5-2.5-1.5,1-3.9,2.8-3.5,3.3.4.5,2.9-1,4.9-2.1-1.2.8-3.3,2.3-2.9,2.7.3.5,6.7-2.8,12.6-6"/>
              <path class="st40" d="M584.4,188.9c-1.5,4.9-5.3,13.1-5.3,13.1l10.5,5.5s5.4-6.6,7.5-14.6"/>
              <path class="st3" d="M589.6,207.5s5.9-8.2,6.9-12.7"/>
              <path class="st3" d="M579.1,202s3.9-7.6,4.7-11.3"/>
            </g>
            <path class="st40" d="M574.8,194.4c-.1-4.1-2.1-12.7-8-20.6l9.3-7.4s8.2,6.5,10.5,12.3"/>
            <g>
              <path class="st47" d="M579.9,166.3s-2.4,6.6-.3,8.7c1.1,1.1,4.3,1.3,5.7.2,1-.8,2.5-5.9,2-6.8-2.2-3.4-7.4-2.2-7.4-2.2Z"/>
              <path class="st17" d="M581.2,169.4s-1.3,1.6-1.2,2c0,.5,1.2.7,1.2.7"/>
              <path class="st39" d="M579.9,172.5l3,.8s-.7,1.5-2.4,1c-1.1-.4-.6-1.7-.6-1.7Z"/>
              <path class="st24" d="M580.1,168.7c0,.1-.1.3-.2.4-.1.3.3.4.4.1,0-.1,0-.3.1-.4,0-.2-.2-.4-.4-.2h0Z"/>
              <path class="st16" d="M581.1,168.1s-.4-.7-1.1-.3"/>
              <path class="st24" d="M583.4,169.9c0,.1-.1.3-.2.4,0,.3.3.4.4.1,0-.1,0-.3.1-.4,0-.2-.3-.4-.4-.2h0Z"/>
              <path class="st16" d="M583.4,168.7s.8-.2,1.4.8"/>
              <path class="st47" d="M587.5,172.3l1.3,6.6s-5,3.7-7.7-.2v-4.3c0,0,6.4-2,6.4-2Z"/>
              <path class="st42" d="M589.9,171.2c0-.2.1-.5.2-.7.2-.6.5-1,.7-1.6.4-1.1,0-2.5-.8-3.2-.2-.1-.3-.2-.5-.4-.3-.3-.4-.8-.6-1.3-.2-.4-.4-.7-.7-.9-.8-.4-1.8.1-2.6-.3-.2,0-.3-.2-.5-.3-1.1-.8-2.4-.6-3.6-.2-.6.2-.8.4-1.2.8-.5.4-1.2.4-1.8.8-.5.4-.7,1.2-.7,1.9,0,.2,0,.5.1.7.1.3.4.5.7.6.7.3,1.5.2,2.2.1.7,0,1.6-.6,2.3-.3.7.3.9,1.1,1.7,1.2.3,0,.7,0,.9.2.2.3.1.8.3,1.2.2.3.5.6.7.9.4.6,1,1,.8,1.8-.2.6-.8,1.4-.5,2,.2.4,1,.4,1.7-.1.7-.5.9-1.5,1-2.2,0-.3.1-.6.2-.8Z"/>
              <path class="st47" d="M586.9,171.3c.6-1,1.2-.9,1.6-.5.5.6-.2,2.2-.6,2.4-.8.6-1.4.6-1.6,0"/>
              <path class="st18" d="M581.3,176c2.4,0,4.3-1.1,4.3-1.1"/>
            </g>
            <path class="st3" d="M574.7,192.9s.2-6.4-.6-8.4"/>
            <path class="st3" d="M580.5,179.9s1.2,2,4.3,2c3.6,0,5.1-2.5,5.1-2.5"/>
          </g>
          <g>
            <g>
              <path class="st47" d="M518.2,145.8c-.4,3-2.6,10.1-2.2,10.4.4.3,1.5-2.4,1.8-2.1s-.9,4.4-.4,4.6c.7.2,1.6-3.8,1.6-3.8,0,0-.8,4.5,0,4.5.5,0,1.3-3.2,1.7-4.4-.2,1.4-.6,3.6,0,3.6.5,0,1.1-1.9,1.5-3.6-.2,1.1-.7,3.3-.2,3.3.5,0,2.1-4.9,3.2-11"/>
              <path class="st47" d="M527.1,114.9c2.2,16.1-2.6,35.4-2.6,35.4l-6.6-1.4s2.5-17.4-.3-32.8"/>
            </g>
            <path class="st29" d="M513.1,100.6c3.1,0,6.4,1,9.3,3.3,4.4,3.5,5.5,11.5,5.5,11.5l-10.5,2.1s-.6-6.8-.6-9.1"/>
            <path class="st20" d="M517.1,117.4c-.3-3.1-1.3-5.9-1.3-5.9"/>
          </g>
          <g>
            <rect class="st7" x="584.4" y="97.3" width="13.2" height="13.2" transform="translate(-6.5 158.9) rotate(-15.2)"/>
            <rect class="st9" x="295" y="244.4" width="6.5" height="6.5" transform="translate(15.2 512.5) rotate(-82.8)"/>
            <circle class="st5" cx="620.2" cy="255.7" r="5.2"/>
            <path class="st8" d="M415.2,77.2c0,1.4-1.2,2.6-2.6,2.6s-2.6-1.2-2.6-2.6,1.2-2.6,2.6-2.6c1.4,0,2.6,1.2,2.6,2.6Z"/>
            <path class="st8" d="M631.5,192.2c0,1.4-1.2,2.6-2.6,2.6s-2.6-1.2-2.6-2.6,1.2-2.6,2.6-2.6,2.6,1.2,2.6,2.6Z"/>
            <path class="st8" d="M634.1,246c0,1.4-1.2,2.6-2.6,2.6s-2.6-1.2-2.6-2.6,1.2-2.6,2.6-2.6,2.6,1.2,2.6,2.6Z"/>
            <path class="st4" d="M292,227.1c0,1.4-1.2,2.6-2.6,2.6s-2.6-1.2-2.6-2.6,1.2-2.6,2.6-2.6,2.6,1.2,2.6,2.6Z"/>
            <path class="st8" d="M355.1,86.8l.3,1.7c.1.8.8,1.3,1.6,1.3h1.2c.8,0,1.5.5,1.6,1.3l.2,1.1c.1.8.8,1.3,1.6,1.3h1.2c.8,0,1.5.5,1.6,1.3l.2,1.1c.1.8.8,1.3,1.6,1.3h1.4"/>
            <path class="st8" d="M305,201l-.5-1.7c-.2-.7-1-1.2-1.8-1.1l-1.1.2c-.8.1-1.5-.3-1.8-1.1l-.4-1.1c-.2-.7-1-1.2-1.8-1.1l-1.1.2c-.8.1-1.5-.3-1.8-1.1l-.4-1.1c-.2-.7-1-1.2-1.8-1.1l-1.3.2"/>
            <path class="st8" d="M572.6,131.8l1.8-.2c.8,0,1.4-.7,1.4-1.5v-1.2c.1-.8.7-1.4,1.5-1.5h1.1c.8-.2,1.4-.8,1.4-1.6v-1.2c.1-.8.7-1.4,1.5-1.5h1.2c.8-.2,1.4-.8,1.4-1.6v-1.4"/>
            <path class="st8" d="M626.7,157.2l-1.7.5c-.7.2-1.2,1-1.1,1.8l.2,1.1c.1.8-.3,1.5-1.1,1.8l-1.1.4c-.7.2-1.2,1-1.1,1.8l.2,1.1c.1.8-.3,1.5-1.1,1.8l-1.1.4c-.7.2-1.2,1-1.1,1.8l.2,1.3"/>
            <path class="st8" d="M636.3,233.3l1.5,1c.6.4,1.5.3,2-.3l.8-.9c.5-.6,1.4-.7,2-.3l1,.6c.6.4,1.5.3,2-.3l.8-.9c.5-.6,1.4-.7,2-.3l1,.6c.6.4,1.5.3,2-.3l.9-1"/>
            <line class="st4" x1="621" y1="178.7" x2="614.9" y2="182.4"/>
            <line class="st4" x1="560.1" y1="100.5" x2="554.5" y2="104.9"/>
            <line class="st4" x1="436.7" y1="110.7" x2="429.8" y2="109.1"/>
            <line class="st4" x1="305.9" y1="140.8" x2="300.7" y2="136"/>
          </g>
        </g>
      </g>
    </g>
  </g>
</svg>