<svg width="2914" height="2898" viewBox="0 0 2914 2898" fill="none" xmlns="http://www.w3.org/2000/svg">
<path d="M2870.81 1237.57C2791.84 720.653 2468.04 85.5802 1828.36 19.1192C1828.36 19.1192 1342.68 -39.9568 863.905 49.5792C579.752 102.718 330.592 260.901 172.934 488.25C15.2739 715.599 -37.3892 992.819 26.5238 1257.12C68.0348 1428.78 96.0868 1606.44 88.3878 1782.84C74.9898 2089.83 82.6978 2376.39 380.631 2559.47C646.65 2722.95 981.44 2867.12 1300.83 2892.38C1517.89 2909.54 1761.31 2881.77 1970.51 2825.26C3036.66 2537.26 2949.78 1754.49 2870.81 1237.57Z" fill="#F4F7FA"/>
<mask id="mask0_309_1135" style="mask-type:luminance" maskUnits="userSpaceOnUse" x="1820" y="1225" width="1090" height="1275">
<path d="M1847.48 2404.16L2066.69 2499.82C2066.69 2499.82 2157.02 2405.38 2137.93 2302.57C2098.98 2092.83 2285.4 2073.35 2362.26 2053.52C2478.18 2023.6 2567.27 1946.68 2458.71 1848.9C2350.14 1751.11 2563.73 1609.93 2757.89 1588.6C2947.89 1567.72 3020.41 1217.92 2605.03 1225.36C2356.97 1229.79 2293.69 1463.14 2233.73 1573.38C2173.76 1683.62 1999.2 1618.73 1996.44 1784.16C1994.09 1925.47 2050.7 2053.97 1942.59 2104.65C1834.48 2155.33 1786.79 2244.24 1847.48 2404.16Z" fill="white"/>
</mask>
<g mask="url(#mask0_309_1135)">
<path d="M1847.48 2404.16L2066.69 2499.82C2066.69 2499.82 2157.02 2405.38 2137.93 2302.57C2098.98 2092.83 2285.4 2073.35 2362.26 2053.52C2478.18 2023.6 2554.38 1952.84 2475.2 1850.83C2385.62 1735.4 2563.73 1609.93 2757.89 1588.6C2947.89 1567.72 3020.41 1217.92 2605.03 1225.36C2356.97 1229.79 2293.69 1463.14 2233.73 1573.38C2173.76 1683.62 1999.2 1618.73 1996.44 1784.16C1994.09 1925.47 2050.7 2053.97 1942.59 2104.65C1834.48 2155.33 1786.79 2244.24 1847.48 2404.16Z" fill="url(#paint0_linear_309_1135)"/>
</g>
<mask id="mask1_309_1135" style="mask-type:luminance" maskUnits="userSpaceOnUse" x="1820" y="1225" width="1090" height="1275">
<path d="M1847.48 2404.16L2066.69 2499.82C2066.69 2499.82 2157.02 2405.38 2137.93 2302.57C2098.98 2092.83 2285.4 2073.35 2362.26 2053.52C2478.18 2023.6 2567.27 1946.68 2458.71 1848.9C2350.14 1751.11 2563.73 1609.93 2757.89 1588.6C2947.89 1567.72 3020.41 1217.92 2605.03 1225.36C2356.97 1229.79 2293.69 1463.14 2233.73 1573.38C2173.76 1683.62 1999.2 1618.73 1996.44 1784.16C1994.09 1925.47 2050.7 2053.97 1942.59 2104.65C1834.48 2155.33 1786.79 2244.24 1847.48 2404.16Z" fill="white"/>
</mask>
<g mask="url(#mask1_309_1135)">
<g opacity="0.5">
<path d="M1933.48 2465.91L1938.39 2467.06C1939.11 2464.02 2011.64 2159.43 2174.59 1879.16C2324.7 1620.95 2584.52 1331.15 2969.76 1416.87L2970.86 1411.94C2799.37 1373.78 2638.05 1405.58 2491.39 1506.43C2374.24 1587 2266.16 1711.58 2170.17 1876.71C2006.87 2157.63 1934.19 2462.86 1933.48 2465.91Z" fill="#BEB8F2"/>
<path d="M2431.93 1551.23L2436.77 1552.66C2484.44 1391.51 2637.41 1199.8 2638.95 1197.88L2635.01 1194.72C2633.47 1196.65 2479.87 1389.13 2431.93 1551.23Z" fill="#BEB8F2"/>
<path d="M2531.49 1486.7C2729.62 1457.62 2854.85 1567.71 2856.09 1568.82L2859.47 1565.07C2858.21 1563.93 2731.32 1452.27 2530.75 1481.71L2531.49 1486.7Z" fill="#BEB8F2"/>
<path d="M2078.04 2068.19C2224.99 1872.59 2545.09 1948.57 2548.14 1949.57L2550.02 1944.89C2547.12 1943.62 2222.26 1867.81 2074 2065.16L2078.04 2068.19Z" fill="#BEB8F2"/>
<path d="M2116.95 1975.12L2121.9 1976.15C2153.89 1823.34 2043.99 1660.64 2042.88 1659.01L2038.71 1661.87C2039.81 1663.48 2148.5 1824.44 2116.95 1975.12Z" fill="#BEB8F2"/>
<path d="M1950.86 2419.38C1994.59 2337.37 2145.18 2323.04 2146.7 2322.9L2146.25 2317.87C2139.95 2318.43 1991.43 2332.58 1946.41 2417.01L1950.86 2419.38Z" fill="#BEB8F2"/>
<path d="M1967.07 2347.02L1971.97 2348.23C1989.6 2276.89 1921.52 2159.14 1899.15 2120.45C1895.99 2114.98 1893.26 2110.26 1892.94 2109.32L1888.14 2110.89C1888.57 2112.22 1890.38 2115.36 1894.78 2122.98C1916.9 2161.23 1984.21 2277.66 1967.07 2347.02Z" fill="#BEB8F2"/>
</g>
</g>
<path d="M868.137 1998.16C933.085 2018.63 956.47 2080.38 966.391 2127.72C961.774 2132.36 960.3 2136.21 956.693 2141.9C924.131 2193.27 899.293 2208.24 859.204 2253.81C850.575 2263.62 816.492 2284.7 802.013 2292.42L774.789 2306.38C774.789 2306.38 632.199 2241.33 660.051 2156.6C687.903 2071.86 560.316 1992.9 497.88 1942.74C459.54 1911.93 451.873 1885.56 439.602 1871.98C309.708 1728.23 227.976 1729.62 214.453 1656.93C199.524 1576.68 294.854 1552.01 283.226 1463.86C270.094 1364.32 139.723 1328.93 148.347 1231.95C149.825 1215.33 151.797 1198.29 162.318 1178.66C188.287 1130.22 240.244 1121.23 235.707 1063.98C226.586 948.899 292.425 838.991 410.968 849.034C527.964 858.946 593.53 1044.83 539.533 1300.18C521.836 1486.15 546.116 1512.45 617.417 1564.43C667.357 1600.83 826.876 1666.45 809.682 1772.97C792.489 1879.5 793.888 1974.77 868.137 1998.16Z" fill="url(#paint1_linear_309_1135)"/>
<mask id="mask2_309_1135" style="mask-type:luminance" maskUnits="userSpaceOnUse" x="148" y="848" width="827" height="1459">
<path d="M974.651 2189.07L782.104 2306.63C782.104 2306.63 632.2 2241.33 660.052 2156.6C687.904 2071.86 560.317 1992.9 497.881 1942.74C328.476 1806.63 520.658 1643.46 318.613 1450.56C264.875 1399.25 143.437 1320.2 148.348 1231.96C153.942 1131.42 241.543 1137.61 235.707 1063.98C226.586 948.9 292.426 838.992 410.968 849.035C527.964 858.947 593.53 1044.83 539.535 1300.18C521.838 1486.15 546.118 1512.45 617.417 1564.43C667.358 1600.83 826.876 1666.45 809.683 1772.97C792.489 1879.5 793.889 1974.77 868.137 1998.16C981.114 2033.76 974.651 2189.07 974.651 2189.07Z" fill="white"/>
</mask>
<g mask="url(#mask2_309_1135)">
<g opacity="0.5">
<path d="M883.264 2233.12L879.749 2235.88C864.3 2216.62 848.978 2196.99 834.209 2177.54C724.868 2033.51 634.058 1883.75 564.306 1732.41C505.204 1604.18 460.356 1473.03 431.01 1342.6C407.41 1237.72 393.661 1132.72 390.146 1030.54C387.677 958.711 390.249 889.001 397.8 823.348C399.113 811.907 401.11 800.232 403.042 788.94C405.616 773.896 408.277 758.34 409.339 743.218L413.696 743.204C412.619 758.534 409.941 774.195 407.351 789.341C405.429 800.576 403.442 812.194 402.141 823.519C394.615 888.965 392.048 958.468 394.512 1030.1C398.017 1132.02 411.736 1236.77 435.281 1341.41C464.567 1471.57 509.326 1602.46 568.314 1730.44C637.948 1881.52 728.613 2031.04 837.787 2174.85C852.535 2194.28 867.834 2213.88 883.264 2233.12Z" fill="#FCFDFE"/>
<path d="M477.839 1498.16L473.694 1499.79C414.563 1331.09 147.936 1175.7 145.25 1174.15L147.671 1170.45C150.37 1172.01 418.234 1328.11 477.839 1498.16Z" fill="#FCFDFE"/>
<path d="M686.879 1952.91L682.923 1954.99C628.591 1845.91 729.086 1620.27 730.107 1618L734.089 1619.47C733.075 1621.72 633.396 1845.54 686.879 1952.91Z" fill="#FCFDFE"/>
<path d="M723.405 2011.82L719.837 2014.52C671.515 1951.47 569.08 1893.14 431.403 1850.28C424.48 1848.12 424.48 1848.12 423.992 1847.5L427.529 1844.76L425.761 1846.13L426.916 1844.26C427.356 1844.46 429.97 1845.27 433 1846.21C571.462 1889.32 674.597 1948.13 723.405 2011.82Z" fill="#FCFDFE"/>
<path d="M855.612 2197.54L851.474 2199.19C822.031 2116.33 895.556 1999.09 896.301 1997.92L899.971 1999.96C899.236 2001.12 826.844 2116.59 855.612 2197.54Z" fill="#FCFDFE"/>
<path d="M878.711 2238.1C816.833 2202.36 741.085 2183.55 647.141 2180.59L647.596 2176.34C742.262 2179.32 818.653 2198.31 881.134 2234.4L878.711 2238.1Z" fill="#FCFDFE"/>
<path d="M397.603 1090.17L393.389 1091.58C366.026 995.618 313.925 902.608 296.805 872.045C292.661 864.646 291.211 862.037 290.875 861.031L295.038 859.457C295.305 860.221 297.674 864.45 300.675 869.805C317.85 900.466 370.115 993.772 397.603 1090.17Z" fill="#FCFDFE"/>
<path d="M417.865 1254.29L413.5 1254.45C416.799 1159.16 560.267 1019.65 566.372 1013.75L569.33 1016.67C567.85 1018.1 421.102 1160.78 417.865 1254.29Z" fill="#FCFDFE"/>
</g>
</g>
<path d="M2276.18 2206.16C2261.56 2207.6 2261.56 2130.46 2198.79 2046.04C2183.11 2024.95 2105.57 1903.98 1999.46 1924.28C1978.86 1928.22 1958.26 1932.16 1937.66 1936.1C1909.6 1894.22 1890.91 1849.55 1948.89 1817.81C2038.93 1768.52 2002.32 1607.81 1962.04 1557.19C1912.19 1494.54 1799.3 1346.37 1937.26 1268.11C2052.11 1202.96 2140.03 1182.94 2112.17 1030.76C2084.32 878.586 2148.55 765.029 2295.31 740.982C2449.75 715.676 2528.12 496.405 2668.3 531.794C2912.55 593.461 2796.27 969.345 2555.43 1125.49C2314.59 1281.63 2487.93 1336.75 2524.95 1458.04C2527.74 1469.49 2531.2 1487.47 2531.25 1509.45C2531.56 1644.83 2402.24 1697.7 2330.2 1825.05C2231.95 1998.74 2300.8 2203.73 2276.18 2206.16Z" fill="url(#paint2_linear_309_1135)"/>
<mask id="mask3_309_1135" style="mask-type:luminance" maskUnits="userSpaceOnUse" x="1871" y="527" width="933" height="1443">
<path d="M2289.85 1896.41L1957.72 1969.58C1927.99 1929.54 1884.12 1853.26 1948.89 1817.81C2038.93 1768.52 2002.32 1607.81 1962.04 1557.19C1912.19 1494.54 1799.3 1346.37 1937.26 1268.11C2052.11 1202.96 2140.03 1182.94 2112.17 1030.76C2084.31 878.586 2148.55 765.029 2295.31 740.983C2449.75 715.677 2528.12 496.405 2668.3 531.795C2912.55 593.461 2796.27 969.343 2555.43 1125.49C2314.59 1281.63 2487.92 1336.75 2524.94 1458.04C2575.48 1623.63 2325.96 1642.7 2278.38 1723.13C2241.09 1786.19 2267.68 1855.39 2289.85 1896.41Z" fill="white"/>
</mask>
<g mask="url(#mask3_309_1135)">
<g opacity="0.5">
<path d="M2121.93 1881.64L2114.56 1881.88C2102.17 1373.07 2351.29 858.018 2764.72 537.736L2769.35 543.1C2357.67 862.033 2109.59 1374.93 2121.93 1881.64Z" fill="#FCFDFE"/>
<path d="M2140.33 1603.39L2133.14 1605.01C2086.56 1410.37 1873.4 1298.39 1871.25 1297.29L1874.84 1291.16C1877.02 1292.28 2093.01 1405.69 2140.33 1603.39Z" fill="#FCFDFE"/>
<path d="M2122.35 1787.95L2115.25 1786.15C2173.13 1590.15 2547.8 1480.08 2551.58 1478.99L2553.65 1485.65C2549.91 1486.72 2179.13 1595.67 2122.35 1787.95Z" fill="#FCFDFE"/>
<path d="M2294.79 1124.41L2287.55 1123.2C2319.3 964.741 2166.92 766.115 2165.38 764.127L2171.34 759.962C2172.9 761.974 2327.13 963.025 2294.79 1124.41Z" fill="#FCFDFE"/>
<path d="M2469.44 844.33L2464.29 839.404C2603.23 709.772 2865.39 705.245 2868.03 705.218V712.182C2865.42 712.208 2606.21 716.717 2469.44 844.33Z" fill="#FCFDFE"/>
</g>
</g>
<path d="M1525.38 2509.33C1522.06 2523.64 1448.99 2498.89 1348.9 2531.25C1323.89 2539.33 1184.44 2573.97 1169.62 2680.98C1166.75 2701.75 1163.87 2722.53 1160.99 2743.3C1112.32 2756.44 1064.01 2759.81 1052.55 2694.71C1034.76 2593.61 870.804 2576.73 809.935 2598.64C734.599 2625.75 558.04 2685.13 528.188 2529.36C503.335 2399.67 512.58 2309.98 359.511 2287.54C206.44 2265.1 119.496 2167.83 143.808 2021.11C169.394 1866.71 -13.1413 1722.13 65.3527 1600.72C202.128 1389.17 520.829 1619.9 591.445 1898.11C662.061 2176.32 769.875 2029.82 896.632 2033.68C908.379 2034.7 926.511 2037.2 947.353 2044.2C1075.67 2087.34 1084.25 2226.79 1181.76 2335.88C1314.74 2484.67 1530.98 2485.22 1525.38 2509.33Z" fill="url(#paint3_linear_309_1135)"/>
<mask id="mask4_309_1135" style="mask-type:luminance" maskUnits="userSpaceOnUse" x="45" y="1518" width="1192" height="1231">
<path d="M1236.4 2396.99L1199.13 2735.04C1151.67 2750.36 1065.35 2767.43 1052.56 2694.71C1034.76 2593.61 870.804 2576.72 809.936 2598.64C734.6 2625.75 558.041 2685.13 528.188 2529.36C503.336 2399.67 512.581 2309.98 359.51 2287.54C206.44 2265.1 119.497 2167.83 143.809 2021.11C169.394 1866.71 -13.1425 1722.13 65.3535 1600.72C202.128 1389.17 520.827 1619.91 591.443 1898.11C662.059 2176.32 769.873 2029.83 896.63 2033.68C1069.68 2038.94 1007.68 2281.39 1068.6 2352.26C1116.36 2407.82 1190.44 2404.83 1236.4 2396.99Z" fill="white"/>
</mask>
<g mask="url(#mask4_309_1135)">
<g opacity="0.5">
<path d="M1168.53 2551.3L1166.4 2558.36C680.506 2406.84 272.62 2005.64 101.918 1511.3L108.484 1508.64C278.467 2000.89 684.654 2400.41 1168.53 2551.3Z" fill="#FCFDFE"/>
<path d="M910.896 2444.59L910.121 2451.92C710.834 2433.59 536.379 2599.56 534.64 2601.24L529.996 2595.87C531.755 2594.17 708.467 2425.98 910.896 2444.59Z" fill="#FCFDFE"/>
<path d="M1079.92 2520.84L1075.95 2526.99C908.881 2409.27 924.839 2019.1 925.021 2015.17L931.993 2015.35C931.813 2019.23 916.034 2405.37 1079.92 2520.84Z" fill="#FCFDFE"/>
<path d="M506.803 2144.62L503.332 2151.09C363.436 2070.18 126.423 2150.77 124.045 2151.59L122.012 2144.61C124.418 2143.78 364.324 2062.21 506.803 2144.62Z" fill="#FCFDFE"/>
<path d="M297.564 1889.34L291.247 1892.64C213.047 1719.45 292.874 1469.7 293.694 1467.19L300.29 1469.43C299.478 1471.9 220.58 1718.86 297.564 1889.34Z" fill="#FCFDFE"/>
</g>
</g>
<path d="M2351.35 451.176L525.183 345.533C483.123 343.48 445.262 389.378 445.262 427.917V2779.44C445.262 2832.89 499.858 2843.65 541.917 2839.35L2351.35 2654.56C2384.4 2651.18 2411.08 2620.94 2411.08 2586.99V515.561C2411.08 481.613 2384.4 452.789 2351.35 451.176Z" fill="url(#paint4_linear_309_1135)"/>
<path d="M2381.38 432.497L551.611 342.484C509.551 340.415 475.297 370.216 475.297 409.056V2778.95C475.297 2817.79 509.551 2845.75 551.611 2841.42L2381.38 2653.09C2414.44 2649.69 2441.12 2619.21 2441.12 2585V497.385C2441.12 463.172 2414.44 434.123 2381.38 432.497Z" fill="#D8DEE8"/>
<path opacity="0.3" d="M551.611 2809.29C528.924 2811.58 510.422 2796.42 510.422 2775.49V410.634C510.422 389.704 528.925 373.55 551.611 374.622L2381.38 461.056C2399.25 461.9 2413.76 477.645 2413.76 496.156V2587.7C2413.76 2606.21 2399.25 2622.73 2381.38 2624.54L551.611 2809.29Z" fill="url(#paint5_linear_309_1135)"/>
<path d="M2263.45 2568.45L698.438 2719.23V537.455L2263.45 596.396V2568.45Z" fill="white"/>
<path opacity="0.3" d="M1637.49 607.073L1012.03 614.898L1026.06 473.843C1027.11 455.515 1040.37 440.47 1057.81 437.789L1163.73 421.511C1176.21 419.595 1186.95 411.352 1192.4 399.516L1203.88 374.571L1480.94 391.679L1637.49 607.073Z" fill="#97A6B7"/>
<path d="M1971.49 515.563C1968.53 499.604 1955.74 488.403 1939.63 487.681L1839.69 483.202C1794.33 481.169 1761.07 444.316 1762.74 397.639L1766.59 289.471C1767.31 269.467 1753.02 253.437 1733.39 252.265L1700.55 250.304C1675.51 248.808 1658.84 226.735 1662.35 201.212C1668.49 156.607 1637.93 118.114 1593.64 115.095C1549 112.053 1507.33 146.158 1500.69 191.333C1499.7 198.046 1497.43 204.679 1493.74 210.599C1483.43 227.146 1465.35 236.255 1447.65 235.198L1413.78 233.175C1393.26 231.949 1373.75 246.354 1368.55 266.623L1340.39 376.42C1328.21 423.905 1282.26 458.219 1233.48 456.033L1123.84 451.119C1105.89 450.314 1088.27 460.779 1080 477.187L1013.93 608.278C1008.52 619.014 1015.18 630.612 1026.98 631.004L1977.72 662.583C1988.13 662.929 1996.96 652.553 1995.04 642.242L1971.49 515.563ZM1580.16 208.713C1567.06 207.901 1557.97 196.516 1559.88 183.286C1561.78 170.055 1573.96 160.021 1587.05 160.874C1600.11 161.725 1609.15 173.106 1607.25 186.297C1605.35 199.486 1593.23 209.523 1580.16 208.713Z" fill="url(#paint6_linear_309_1135)"/>
<path d="M1977.13 518.496C1974.16 502.538 1961.38 491.336 1945.26 490.614L1845.32 486.135C1799.96 484.102 1766.7 447.249 1768.37 400.572L1772.23 292.404C1772.94 272.4 1758.65 256.371 1739.02 255.198L1706.18 253.237C1681.14 251.741 1664.47 229.668 1667.99 204.145C1674.12 159.54 1643.56 121.047 1599.27 118.028C1554.63 114.986 1512.97 149.09 1506.32 194.266C1505.33 200.979 1503.06 207.612 1499.37 213.532C1489.06 230.079 1470.99 239.188 1453.28 238.131L1419.41 236.108C1398.89 234.882 1379.39 249.288 1374.19 269.556L1346.02 379.353C1333.84 426.838 1287.9 461.152 1239.11 458.966L1129.48 454.052C1111.52 453.247 1093.9 463.712 1085.63 480.12L1019.57 611.211C1014.15 621.947 1020.82 633.545 1032.61 633.937L1983.36 665.516C1993.76 665.862 2002.59 655.485 2000.68 645.175L1977.13 518.496ZM1585.79 211.646C1572.7 210.834 1563.61 199.449 1565.51 186.219C1567.42 172.988 1579.59 162.954 1592.68 163.807C1605.75 164.658 1614.78 176.039 1612.89 189.23C1610.99 202.419 1598.87 212.456 1585.79 211.646Z" fill="#97A6B7"/>
<path opacity="0.5" d="M1814.42 578.736C1729.61 526.382 1664.54 563.503 1611.68 504.454C1555.1 441.242 1593.26 358.024 1534.72 318.755C1497.24 293.614 1463.8 315.789 1420.21 308.982C1404.25 306.491 1387.21 300.146 1369.51 287.779L1346.02 379.35C1333.84 426.836 1287.9 461.148 1239.11 458.963L1129.48 454.05C1111.52 453.245 1093.9 463.711 1085.63 480.118L1019.57 611.209C1014.15 621.944 1020.82 633.543 1032.61 633.933L1896.64 662.632C1874.88 628.069 1847.85 599.37 1814.42 578.736Z" fill="white"/>
<path d="M2109.78 908.396L888.18 903.969V844.583L2109.78 852.56V908.396Z" fill="#D8DEE8"/>
<path d="M2109.78 1267.35L888.18 1285.75V1226.36L2109.78 1211.51V1267.35Z" fill="#D8DEE8"/>
<path d="M2109.78 1422.9L888.18 1451.18V1391.79L2109.78 1367.06V1422.9Z" fill="#D8DEE8"/>
<path d="M2109.78 1578.44L888.18 1616.62V1557.23L2109.78 1522.61V1578.44Z" fill="#D8DEE8"/>
<path d="M2109.78 1730L888.18 1777.81V1722.67L2109.78 1678.15V1730Z" fill="#D8DEE8"/>
<path d="M2109.78 1885.55L888.18 1943.25V1888.1L2109.78 1833.7V1885.55Z" fill="#D8DEE8"/>
<path d="M1420.4 2323.29L888.18 2358.96V2341.99L1420.4 2306.76V2323.29Z" fill="#D8DEE8"/>
<path d="M2109.78 2045.08L1813.31 2061.45V2016.9L2109.78 2001.21V2045.08Z" fill="#D8DEE8"/>
<path d="M2109.78 2160.74L1813.31 2178.88V2134.34L2109.78 2116.87V2160.74Z" fill="#D8DEE8"/>
<path d="M2109.78 2276.41L1813.31 2296.32V2247.72L2109.78 2228.55V2276.41Z" fill="#D8DEE8"/>
<path d="M996.929 2384.55C996.929 2384.55 1002.77 2374.43 1013.28 2356.99C1018.52 2348.26 1025 2337.76 1032.52 2325.78C1040.05 2313.81 1048.64 2300.39 1058.29 2285.94C1067.96 2271.53 1078.56 2256 1090.79 2240.25C1096.96 2232.4 1103.42 2224.46 1111.08 2216.87C1113.01 2214.99 1115.03 2213.12 1117.26 2211.34C1119.52 2209.56 1121.89 2207.81 1125.08 2206.4C1126.69 2205.72 1128.58 2205.09 1130.96 2205.08C1132.18 2205.11 1133.48 2205.29 1134.78 2205.84C1136.05 2206.38 1137.27 2207.22 1138.17 2208.2C1141.74 2212.24 1141.79 2216.58 1142.32 2218.72C1144.25 2229.7 1145.13 2241 1144.8 2252.63C1144.63 2258.43 1144.15 2264.3 1143.23 2270.24C1142.28 2276.18 1140.98 2282.17 1138.62 2288.3C1137.39 2291.37 1135.96 2294.5 1133.54 2297.67C1132.29 2299.24 1130.79 2300.87 1128.6 2302.19C1126.49 2303.54 1123.5 2304.31 1120.87 2303.91C1118.27 2303.55 1116.09 2302.24 1114.71 2301.14L1114.31 2300.83L1113.75 2300.36C1113.36 2300.04 1113.05 2299.73 1112.72 2299.42C1112.06 2298.78 1111.41 2298.08 1110.8 2297.27C1109.57 2295.69 1108.44 2293.66 1107.82 2291.23C1107.18 2288.81 1107.18 2286.09 1107.65 2283.71C1108.65 2278.88 1110.93 2275.55 1113.09 2272.77C1115.31 2270.02 1117.66 2267.8 1120.05 2265.78C1124.84 2261.79 1129.8 2258.63 1134.82 2255.78C1144.89 2250.17 1155.27 2245.95 1165.82 2242.62C1176.38 2239.37 1187.08 2236.94 1198.23 2236.58C1203.81 2236.49 1209.53 2236.75 1215.53 2239.16C1218.48 2240.39 1221.64 2242.34 1224.06 2245.72C1224.35 2246.14 1224.65 2246.57 1224.91 2247.02C1225.18 2247.49 1225.43 2247.98 1225.54 2248.2L1226.45 2249.96L1228.26 2253.59C1230.62 2258.36 1232.85 2262.99 1235.24 2267.17C1237.64 2271.3 1240.22 2275 1243.16 2277.47C1246.06 2280.01 1249.29 2281.22 1252.95 2281.45C1256.63 2281.61 1260.68 2280.75 1264.7 2279.28C1272.81 2276.27 1280.67 2271.33 1288.13 2266.12C1295.82 2260.72 1303.31 2255.44 1310.74 2250.49C1314.47 2248.01 1318.17 2245.61 1322.02 2243.39C1325.86 2241.19 1329.85 2239.1 1334.29 2237.67C1338.73 2236.21 1343.58 2235.85 1347.68 2236.24C1351.79 2236.61 1355.37 2237.35 1358.81 2237.98C1360.5 2238.3 1362.18 2238.61 1363.83 2238.92C1365.44 2239.19 1367.28 2239.56 1368.2 2239.6C1370.56 2239.79 1372.66 2239.33 1374.24 2238.33C1375.84 2237.36 1377.14 2235.8 1378.18 2233.83C1379.19 2231.85 1379.8 2229.49 1380.08 2227.14C1380.66 2222.39 1379.97 2217.73 1378.58 2214.03C1377.27 2210.24 1375.19 2207.44 1373.08 2205.43C1370.93 2203.42 1368.66 2202.29 1366.71 2201.59C1364.75 2200.91 1363.1 2200.64 1361.98 2200.52C1360.86 2200.39 1360.27 2200.37 1360.27 2200.37C1358.9 2200.32 1357.88 2199.06 1358 2197.54C1358.1 2196.23 1359.02 2195.16 1360.14 2194.92C1360.14 2194.92 1360.83 2194.77 1362.2 2194.58C1363.56 2194.4 1365.62 2194.19 1368.32 2194.56C1371.02 2194.89 1374.38 2195.85 1377.83 2198.12C1381.29 2200.36 1384.66 2204.07 1387.14 2209.05C1389.56 2214.05 1391.16 2220.32 1390.79 2227.56C1390.55 2231.18 1389.83 2235.06 1388.13 2238.97C1386.46 2242.85 1383.6 2246.83 1379.61 2249.37C1375.64 2251.98 1371.06 2252.92 1366.84 2252.68C1364.45 2252.56 1363.02 2252.21 1361.28 2251.92C1359.6 2251.62 1357.9 2251.31 1356.17 2250.99C1352.76 2250.37 1349.31 2249.71 1346.12 2249.44C1342.91 2249.18 1340.08 2249.42 1337 2250.41C1330.79 2252.46 1323.71 2257.07 1316.56 2261.81C1309.36 2266.65 1301.94 2271.9 1294.27 2277.33C1286.37 2282.86 1277.87 2288.37 1267.94 2292.12C1262.97 2293.93 1257.51 2295.27 1251.65 2295.04C1248.73 2294.89 1245.75 2294.27 1242.92 2293.16C1240.08 2292.08 1237.49 2290.38 1235.21 2288.46C1230.62 2284.56 1227.4 2279.73 1224.61 2274.99C1221.85 2270.21 1219.53 2265.38 1217.2 2260.71L1215.46 2257.26L1214.55 2255.5C1214.36 2255.14 1214.3 2255.04 1214.24 2254.94C1214.18 2254.82 1214.1 2254.71 1214.03 2254.6C1213.4 2253.71 1212.18 2252.78 1210.49 2252.1C1207.1 2250.69 1202.47 2250.29 1197.82 2250.42C1188.39 2250.74 1178.41 2252.97 1168.67 2256.02C1158.9 2259.12 1149.2 2263.16 1140.13 2268.2C1135.61 2270.72 1131.23 2273.52 1127.43 2276.68C1125.53 2278.25 1123.79 2279.93 1122.44 2281.6C1121.08 2283.25 1120.19 2284.96 1120.06 2285.84C1119.98 2286.29 1119.98 2286.51 1120.05 2286.8C1120.12 2287.09 1120.3 2287.51 1120.71 2288.04C1120.9 2288.3 1121.15 2288.58 1121.44 2288.87L1121.87 2289.26L1122.05 2289.43L1122.43 2289.72C1123.08 2290.25 1123.25 2290.22 1123.22 2290.24C1123.15 2290.19 1122.86 2290.33 1123.07 2290.23C1123.23 2290.16 1123.71 2289.74 1124.21 2289.11C1125.24 2287.81 1126.31 2285.74 1127.18 2283.53C1128.96 2279.03 1130.16 2273.87 1131 2268.7C1131.83 2263.5 1132.29 2258.21 1132.47 2252.94C1132.83 2242.41 1132.06 2231.9 1130.37 2221.98L1130.03 2220.05L1129.94 2219.56L1129.88 2219.3C1129.84 2219.1 1129.8 2218.9 1129.75 2218.76C1129.59 2218.12 1129.35 2217.8 1129.49 2217.99C1129.62 2218.18 1130.23 2218.39 1130.19 2218.32C1130.14 2218.32 1129.61 2218.39 1128.93 2218.69C1127.53 2219.27 1125.72 2220.48 1124 2221.85C1122.25 2223.23 1120.51 2224.82 1118.8 2226.46C1111.95 2233.17 1105.62 2240.82 1099.64 2248.36C1087.68 2263.57 1076.95 2278.72 1067.24 2292.86C1047.81 2321.24 1032.45 2345.68 1021.68 2362.77C1010.91 2379.91 1004.95 2389.81 1004.95 2389.81C1003.45 2392.31 1000.45 2393.13 998.245 2391.66C996.072 2390.2 995.49 2387.05 996.918 2384.57L996.929 2384.55Z" fill="#97A6B7"/>
<path d="M2080.62 2727.45C2080.62 2727.45 2087.48 2755.23 2087.7 2765.29C2087.91 2775.35 1977.17 2789.38 1975.44 2781.97C1973.72 2774.55 1992.26 2761.06 2005.64 2755.75C2019.03 2750.44 2058.29 2735.98 2058.29 2735.98L2080.62 2727.45Z" fill="url(#paint7_linear_309_1135)"/>
<path d="M2051.4 2701.55L2057.75 2736.27C2057.75 2736.27 2071.34 2743.76 2082.19 2736.27L2084.83 2697.72L2051.4 2701.55Z" fill="url(#paint8_linear_309_1135)"/>
<path d="M2282.6 2757.19C2282.6 2757.19 2289.46 2784.96 2289.68 2795.03C2289.89 2805.09 2179.15 2819.12 2177.42 2811.7C2175.7 2804.29 2194.24 2790.79 2207.62 2785.48C2221.01 2780.17 2260.27 2765.71 2260.27 2765.71L2282.6 2757.19Z" fill="url(#paint9_linear_309_1135)"/>
<path d="M2253.38 2731.29L2259.73 2766C2259.73 2766 2273.32 2773.5 2284.17 2766L2286.81 2727.45L2253.38 2731.29Z" fill="url(#paint10_linear_309_1135)"/>
<path d="M1998.35 1786.3C1987.59 1813.38 1976.83 1840.46 1966.07 1867.54C1967.65 2017.02 1975.47 2179.07 1992.62 2351.68C2005.38 2480.09 2022.01 2601.38 2041.05 2714.95C2058.41 2712.76 2075.76 2710.56 2093.12 2708.37C2114.31 2656.35 2137.97 2578.23 2133.22 2484.51C2128.26 2386.75 2097.65 2376.17 2092.04 2282.64C2084.78 2161.41 2132.94 2125.05 2148.31 1977.3C2154.19 1920.8 2155.33 1847.52 2139.98 1759.96C2092.77 1768.74 2045.56 1777.52 1998.35 1786.3Z" fill="url(#paint11_linear_309_1135)"/>
<path opacity="0.3" d="M2139.98 1759.96C2114.49 1764.7 2088.99 1769.44 2063.5 1774.19C2023.67 1858.44 2017.46 1943.3 2028.56 1979.73C2044.25 2031.27 2075.99 2045.64 2078.54 2098.45C2081.06 2150.7 2051.44 2166.68 2036.88 2229.67C2026.81 2273.28 2033.5 2312.1 2047.3 2387.96C2075.09 2540.76 2116.07 2584.89 2088.96 2637.89C2081.25 2652.95 2066.67 2671.32 2036.46 2686.87C2037.98 2696.26 2039.5 2705.67 2041.05 2714.95C2058.41 2712.76 2075.76 2710.56 2093.12 2708.37C2114.31 2656.35 2137.97 2578.23 2133.22 2484.51C2128.26 2386.75 2097.65 2376.17 2092.04 2282.64C2084.78 2161.41 2132.94 2125.06 2148.32 1977.31C2154.19 1920.8 2155.33 1847.52 2139.98 1759.96Z" fill="url(#paint12_linear_309_1135)"/>
<path d="M2071.24 1827.66C2105.9 1957.25 2138.48 2096.3 2167.06 2244.24C2201.57 2422.88 2225.9 2591.94 2242.76 2749.37C2261.92 2748.38 2281.08 2747.39 2300.25 2746.4C2363.65 2591.31 2360.16 2489.88 2344.02 2424.96C2337.8 2399.94 2322.45 2351.14 2313.9 2277.05C2307.94 2225.4 2308.09 2185.72 2308.42 2138.01C2309.14 2033.4 2318.3 2009.84 2313.51 1930.25C2309.02 1855.56 2306.3 1817.8 2283.25 1797.48C2222.51 1743.95 2081.9 1821.64 2071.24 1827.66Z" fill="url(#paint13_linear_309_1135)"/>
<path d="M1514.83 1526.61C1514.83 1526.61 1472.73 1523 1466.64 1516.17C1460.55 1509.35 1456.61 1508.99 1455.7 1502.73C1454.79 1496.48 1437.06 1499.49 1444.43 1513.06C1451.8 1526.63 1435.16 1519.52 1431.9 1519.19C1424.39 1518.43 1395.75 1517.59 1396.58 1519.37C1397.41 1521.14 1383.74 1538.98 1404.08 1548.2C1421.88 1556.26 1416.67 1552.7 1428.24 1553.26C1439.82 1553.81 1475.67 1542.12 1475.67 1542.12L1506.36 1544.46L1514.83 1526.61Z" fill="url(#paint14_linear_309_1135)"/>
<path d="M1490.15 1506.94C1488.3 1520.97 1486.44 1535.01 1484.59 1549.04C1512.47 1572.3 1574.13 1616.89 1659.9 1623.58C1811.11 1635.37 1961.06 1523.46 1988.98 1397.59C2002.81 1335.26 1991.51 1247.8 1952.77 1233.73C1942.02 1229.83 1925.86 1230.38 1892.56 1252.76C1803.67 1312.47 1796.11 1390.88 1747.01 1443.92C1711.67 1482.1 1642.18 1520.77 1490.15 1506.94Z" fill="url(#paint15_linear_309_1135)"/>
<path d="M1953.57 1895.38C1932.82 1866.45 1953.48 1835.29 1954.1 1777.28C1954.81 1711.53 1928.79 1702.67 1895.26 1596.5C1872.95 1525.88 1851.54 1458.09 1864.01 1375.72C1869.99 1336.25 1880.13 1269.3 1931.97 1233.2C1958.72 1214.57 1997.18 1213.14 2072.99 1211.04C2166.74 1208.44 2213.61 1207.14 2249.89 1222.68C2255.21 1224.96 2365.73 1274.08 2380.54 1367.39C2395.62 1462.37 2292.57 1483.56 2288.9 1612.12C2287.26 1669.83 2305.42 1756.93 2317.19 1813.43C2328.5 1867.68 2334.38 1881.33 2324.9 1898.78C2302.04 1940.86 2221.33 1935.86 2059.9 1925.86C1996.58 1921.93 1969.06 1916.97 1953.57 1895.38Z" fill="url(#paint16_linear_309_1135)"/>
<path opacity="0.3" d="M2174.35 1600.66C2183.09 1624.96 2208.85 1641.57 2230.58 1700.64C2235.28 1713.39 2268.7 1804.21 2236.83 1829.77C2218.42 1844.54 2198.94 1820.92 2151.44 1821.44C2069.12 1822.33 2035.63 1894.26 1980.65 1879.76C1971.11 1877.24 1958.3 1871.27 1944.8 1856.28C1943.51 1870.87 1944.93 1883.33 1953.57 1895.38C1969.06 1916.97 1996.58 1921.93 2059.9 1925.86C2221.33 1935.86 2302.04 1940.86 2324.9 1898.78C2334.38 1881.33 2328.5 1867.68 2317.19 1813.43C2305.42 1756.93 2287.26 1669.83 2288.9 1612.12C2292.57 1483.55 2395.62 1462.37 2380.54 1367.39C2376.51 1342 2365.29 1320.01 2351.14 1301.21C2223.39 1365.22 2146.88 1524.3 2174.35 1600.66Z" fill="url(#paint17_linear_309_1135)"/>
<path d="M2433.93 1894.32C2433.93 1894.32 2459.64 1902.95 2462.36 1945.53C2458.17 1945.15 2448.38 1945.38 2448.38 1945.38C2448.38 1945.38 2450.19 1914.42 2431.89 1908.15C2433.37 1904.55 2433.93 1894.32 2433.93 1894.32Z" fill="url(#paint18_linear_309_1135)"/>
<path d="M2338.57 1890.26C2339.22 1898.1 2339.88 1905.94 2340.53 1913.78C2353.47 1910.44 2367.58 1906.57 2382.71 1906.04C2402.32 1905.35 2420.23 1907.76 2436.14 1911.73C2436.84 1910.76 2438.34 1908.43 2439.03 1904.6C2440.14 1898.43 2438.28 1893.27 2437.94 1892.35C2429.84 1889.37 2421.05 1886.84 2411.62 1885.06C2384.47 1879.92 2359.83 1884.17 2338.57 1890.26Z" fill="url(#paint19_linear_309_1135)"/>
<path d="M2337.35 1897.02C2337.39 1894.19 2337.6 1890.66 2338.57 1890.26C2339.48 1889.88 2340.7 1892.46 2341.23 1893.89C2341.45 1894.49 2341.93 1895.93 2342.23 1900.5C2342.62 1906.4 2342.17 1909.28 2341.75 1911.06C2341.5 1912.13 2341.11 1913.75 2340.53 1913.78C2340.06 1913.81 2339.66 1912.77 2339.05 1910.78C2338.24 1908.09 2337.26 1903.61 2337.35 1897.02Z" fill="url(#paint20_linear_309_1135)"/>
<path d="M2313.41 1946.27C2318.87 1947.34 2332.11 1950.51 2332.11 1950.51C2332.11 1950.51 2323.48 1922.87 2339.74 1910.38C2340.16 1908.31 2340.58 1905.01 2340.07 1901.04C2339.67 1897.97 2338.84 1895.5 2338.13 1893.79C2331.23 1897.57 2316.19 1910.41 2313.41 1946.27Z" fill="url(#paint21_linear_309_1135)"/>
<path d="M2199.41 1952.4C2199.41 1952.4 2200.09 1937.77 2223.26 1938.04C2226.9 1940.74 2227.08 1952.67 2227.08 1952.67L2199.41 1952.4Z" fill="url(#paint22_linear_309_1135)"/>
<path d="M2178.75 2240.36L2242.18 2277.78L2280.26 2136.45L2217.37 1947.3L2199.4 1952.4L2172.04 2225.47C2171.42 2231.67 2174.1 2237.62 2178.75 2240.36Z" fill="url(#paint23_linear_309_1135)"/>
<path opacity="0.3" d="M2280.27 2136.45L2217.37 1947.3L2199.41 1952.4C2203.83 1969.19 2205.96 1996.48 2206.96 2011.67C2211.2 2076.26 2225.28 2094.2 2218.47 2139.23C2212.79 2176.72 2200.38 2181.94 2201.47 2207.15C2202.65 2234.6 2218.61 2257.33 2237.52 2275.04L2242.18 2277.78L2280.27 2136.45Z" fill="url(#paint24_linear_309_1135)"/>
<path d="M2217.37 1947.3L2554.76 1950.83L2606.03 2241.41L2242.18 2277.78L2217.37 1947.3Z" fill="url(#paint25_linear_309_1135)"/>
<g opacity="0.2">
<path d="M2554.76 1950.83L2443.39 1949.66C2441.32 1955.67 2438.15 1963.99 2433.52 1973.4C2382.88 2076.32 2265.19 2089.6 2267.34 2106.76C2270.55 2132.39 2529.04 2095.26 2535.49 2129.64C2538.59 2146.22 2485.1 2184.54 2428.65 2199.59C2360.28 2217.82 2309.49 2196.51 2275.45 2236.28C2263.88 2249.8 2258.76 2265.52 2256.27 2276.15L2606.03 2241.41L2554.76 1950.83Z" fill="url(#paint26_linear_309_1135)"/>
</g>
<path d="M2223.26 1938.03C2219.34 1937.99 2213.87 1937.44 2207.9 1940.88C2206.62 1941.62 2205.5 1942.43 2204.51 1943.26L2207.26 1942.31C2211.68 1941.06 2217.77 1942.86 2220.04 1947.32C2222.83 1952.81 2223.84 1965.46 2224.45 1971.72C2226.18 1989.53 2236.83 2100.23 2236.83 2100.23C2237.63 2109.55 2244.66 2116.58 2252.97 2116.36L2565.5 2098.54C2567.81 2098.48 2570.09 2097.73 2571.99 2096.21C2575.95 2093.05 2577.74 2087.58 2576.82 2082.38L2561.44 1954.48C2560.14 1947.11 2554.55 1941.77 2548.07 1941.7L2223.26 1938.03Z" fill="url(#paint27_linear_309_1135)"/>
<path d="M2226.72 1938.07C2222.8 1938.03 2218.16 1937.44 2212.98 1938.78C2211.58 1939.14 2209.34 1939.8 2208.35 1940.63C2208.35 1940.63 2219.34 1938.12 2223.5 1947.36C2226.03 1953 2227.29 1965.49 2227.9 1971.75C2229.63 1989.55 2240.28 2100.22 2240.28 2100.22C2241.07 2109.54 2248.1 2116.57 2256.41 2116.35L2572.17 2108.04C2574.47 2107.98 2576.74 2107.22 2578.64 2105.7C2582.6 2102.54 2584.39 2097.07 2583.48 2091.88L2564.69 1954.51C2563.39 1947.15 2557.81 1941.81 2551.32 1941.74L2226.72 1938.07Z" fill="url(#paint28_linear_309_1135)"/>
<path opacity="0.1" d="M2583.48 2091.89L2564.7 1954.52C2563.39 1947.15 2557.81 1941.81 2551.33 1941.74L2226.72 1938.07C2222.81 1938.03 2218.16 1937.44 2212.98 1938.78C2211.58 1939.14 2209.34 1939.8 2208.36 1940.63C2208.36 1940.63 2219.35 1938.12 2223.5 1947.36C2223.9 1948.25 2224.27 1949.32 2224.6 1950.5C2256.27 1952.08 2287.77 1951.5 2319.08 1953.86C2380.47 1958.38 2441.86 1958.97 2498.54 1984.27C2516.55 1992.31 2528.86 2020.77 2523.99 2033.87C2520.48 2043.31 2508.47 2042.54 2504.28 2054.97C2499.86 2068.04 2510.44 2076.92 2506.01 2086.1C2501.35 2095.72 2487.19 2091.18 2464.2 2098.12C2451.48 2101.96 2441.71 2107.61 2435.6 2111.63L2572.17 2108.04C2574.47 2107.98 2576.75 2107.22 2578.65 2105.71C2582.61 2102.54 2584.4 2097.07 2583.48 2091.89Z" fill="url(#paint29_linear_309_1135)"/>
<path d="M2434.94 2134.48L2395.4 2144.44L2391.2 2144.82C2386.98 2145.2 2383.34 2141.51 2383.15 2136.62L2381.41 2090.39C2381.22 2085.5 2384.57 2081.44 2388.81 2081.37L2393.03 2081.29L2432.79 2086.37C2436.58 2086.31 2439.76 2084.25 2439.93 2088.81L2441.55 2131.94C2441.72 2136.5 2438.71 2134.14 2434.94 2134.48Z" fill="url(#paint30_linear_309_1135)"/>
<path d="M2437.94 2140.83L2394.13 2144.79C2389.91 2145.18 2386.27 2141.49 2386.08 2136.6L2384.34 2090.38C2384.15 2085.49 2387.5 2081.43 2391.74 2081.36L2435.67 2080.62C2439.45 2080.56 2442.66 2084.24 2442.83 2088.8L2444.45 2131.92C2444.62 2136.48 2441.71 2140.49 2437.94 2140.83Z" fill="url(#paint31_linear_309_1135)"/>
<path d="M2384.98 1831.28C2384.98 1831.28 2381.3 1855.68 2377.61 1857.98C2373.93 1860.28 2362.42 1873.17 2364.73 1881.45C2367.03 1889.74 2358.28 1908.65 2374.62 1913.23C2390.96 1917.82 2409.75 1922.72 2411.63 1908.07C2413.52 1893.42 2408.91 1876.85 2409.37 1864.42C2409.83 1851.99 2416.28 1839.57 2416.28 1839.57L2384.98 1831.28Z" fill="url(#paint32_linear_309_1135)"/>
<path d="M2230.58 1215.35C2208.74 1321.83 2227.59 1390.84 2250.37 1435.08C2296.49 1524.64 2375.74 1545.76 2388.93 1625.21C2398.45 1682.51 2402.59 1795.5 2374.62 1832.16C2399.83 1842.22 2402.47 1841.65 2421.49 1841.65C2446.99 1827.09 2501.34 1729.89 2524.26 1605.87C2552.06 1455.42 2435.74 1277.77 2230.58 1215.35Z" fill="url(#paint33_linear_309_1135)"/>
<path d="M2162.57 1214.22C2151.74 1209.8 2099.22 1199.11 2087.58 1176.35C2074.69 1151.16 2070.33 1116.49 2070.33 1116.49C2070.33 1116.49 2034.09 1126.12 2039.4 1144.84C2044.71 1163.56 2035.67 1206.47 2014.87 1216.05C2000.31 1222.77 1982.27 1225.46 1978.36 1229.95C1977.93 1230.01 1977.66 1230.07 1977.57 1230.13C1974.57 1232 1983.9 1246.4 2021.34 1267.26C2150.53 1247.81 2164.13 1225.69 2164.69 1218.08C2165.26 1216.42 2164.65 1215.07 2162.57 1214.22Z" fill="url(#paint34_linear_309_1135)"/>
<path d="M2021.83 1107.68C2005.02 1093.62 2002.71 1092.01 2000.59 1086.86C1992.07 1066.16 2006.21 1035.76 2027.25 1026.87C2028.34 1026.41 2042.46 1020.61 2048.49 1026.45C2053.62 1031.41 2047.3 1039.34 2051.41 1049.37C2055.26 1058.75 2063.66 1058.8 2080.15 1070.19C2093.73 1079.57 2102.17 1085.41 2104.73 1094.36C2110 1112.81 2089.48 1141.8 2069.32 1142.68C2062.07 1142.99 2059.81 1139.45 2021.83 1107.68Z" fill="url(#paint35_linear_309_1135)"/>
<path d="M2067.58 1145.73C2067.58 1145.73 2052.53 1165.81 2026.8 1161.63C2003.77 1157.89 2005.38 1105.59 2021.24 1095.98C2026.54 1092.78 2036.58 1092.2 2044.4 1095.23C2049.03 1097.02 2050.44 1099.15 2058.05 1101.92C2065.07 1104.48 2067.18 1103.88 2069.18 1105.92C2071.68 1108.47 2073.13 1114.27 2067.13 1129.03C2071.98 1124.97 2077.45 1123.77 2081.04 1125.9C2081.61 1126.25 2083.1 1127.48 2083.84 1129.21C2086.51 1135.46 2080.36 1142.52 2067.58 1145.73Z" fill="url(#paint36_linear_309_1135)"/>
<path d="M2056.73 1262.87C2056.73 1262.87 2049.43 1301.85 2038.02 1302.61C2026.6 1303.37 2018.23 1304.89 2018.23 1304.89L2005.47 1257.22C2005.47 1257.22 2022.11 1270.78 2056.73 1262.87Z" fill="url(#paint37_linear_309_1135)"/>
<path d="M2043.43 1299.35C2043.43 1299.35 2068.83 1584.49 2157.85 1630.14C2155.57 1639.27 2157.85 1713.44 2157.85 1713.44C2157.85 1713.44 2074.87 1688.46 2070.14 1690.11C2065.41 1691.76 1969.64 1533.03 2018.24 1304.89L2043.43 1299.35Z" fill="url(#paint38_linear_309_1135)"/>
<path d="M1361.88 1535.38C1361.88 1535.38 1402.92 1504.47 1416.52 1502.69C1421.07 1502.09 1423.31 1500.25 1428.18 1505.91C1433.56 1512.18 1502.16 1498.71 1483.55 1517.03C1464.94 1535.34 1451.52 1552.61 1426.52 1553.77C1401.52 1554.93 1372.03 1562.51 1366.93 1565.85C1361.84 1569.18 1361.88 1535.38 1361.88 1535.38Z" fill="url(#paint39_linear_309_1135)"/>
<path d="M679.273 1323.71C670.806 1326.91 541.656 1378.27 515.109 1513.06C512.965 1523.95 492.217 1639.76 570.755 1721.58C658.822 1813.32 828.403 1811.04 895.716 1734.35C911.413 1716.46 919.694 1696.64 924.333 1679.99L906.597 1632.87C884.956 1606.74 855.49 1600.55 839.754 1596.67C800.96 1587.11 771.67 1604.39 749.453 1585.68C737.159 1575.33 734.718 1560.44 732.536 1547.13C725.105 1501.8 750.688 1473.9 752.55 1445.95C753.942 1425.06 761.256 1379.27 733.983 1349.42C716.713 1330.51 692.791 1325.36 679.273 1323.71Z" fill="url(#paint40_linear_309_1135)"/>
<path d="M628.951 2825.95C627.444 2817.65 600.647 2810.14 587.378 2821.26C580.789 2826.77 576.252 2837.96 580.065 2843.01C581.451 2844.85 575.771 2848.08 581.214 2848.15C599.265 2848.36 630.449 2834.2 628.951 2825.95Z" fill="url(#paint41_linear_309_1135)"/>
<path d="M600.862 2828.97L573.301 2825.07C586.07 2809.7 583.705 2760.75 583.705 2760.75L613.015 2767.29C613.015 2767.29 609.676 2780.72 603.995 2800.55C602.049 2807.33 601.181 2817.95 600.862 2828.97Z" fill="url(#paint42_linear_309_1135)"/>
<path d="M603.307 2825.57C603.307 2825.57 570.125 2817.93 566.537 2824.51C562.947 2831.09 560.161 2848.72 581.213 2848.15C602.265 2847.58 605.177 2831.16 603.307 2825.57Z" fill="url(#paint43_linear_309_1135)"/>
<path d="M1007.12 2857.07C1004.46 2849.06 976.876 2845.38 965.292 2858.24C959.542 2864.62 956.614 2876.34 961.096 2880.8C962.726 2882.43 957.555 2886.43 962.952 2885.73C980.856 2883.41 1009.75 2865.02 1007.12 2857.07Z" fill="url(#paint44_linear_309_1135)"/>
<path d="M979.725 2863.99H951.891C962.382 2846.98 953.188 2798.84 953.188 2798.84L983.125 2801.21C983.125 2801.21 981.7 2814.98 978.849 2835.41C977.874 2842.4 978.5 2853.03 979.725 2863.99Z" fill="url(#paint45_linear_309_1135)"/>
<path d="M1051.86 1811.4C1064.75 1853.98 1083.17 1922.7 1095.02 2008.92C1128.83 2254.86 1056.97 2262.7 1070.39 2535.23C1074.67 2622.22 995.026 2822.81 988.005 2827.25C984.607 2827.57 980.921 2827.8 976.99 2827.68C970.062 2827.47 960.295 2826.41 948.937 2823C936.321 2820.83 890.832 2697.62 901.376 2624.36C908.837 2572.52 906.674 2516.87 902.348 2405.59C901.647 2387.56 855.512 2054.76 855.512 2054.76C841.478 2177.94 825.339 2282.61 811.346 2363.76C766.392 2624.47 620.229 2782.27 612.605 2784.8C611.098 2785.41 597.383 2790.39 586.17 2783C581.179 2779.71 579.48 2775.47 579.48 2775.47C575.571 2772.4 580.633 2515.17 625.215 2321.58C689.925 2040.59 661.748 1974.84 682.25 1849.33C699.988 1740.73 1051.86 1811.4 1051.86 1811.4Z" fill="url(#paint46_linear_309_1135)"/>
<path d="M1069.17 1853.86C1030.31 1873.8 930.224 1909.51 810.984 1891.76C756.496 1883.67 712.911 1865.56 682.245 1849.37C685.972 1838.07 688.904 1827.38 691.163 1817.27C707.504 1743.63 687.529 1699.95 677.45 1659.33C661.139 1593.42 660.865 1598.4 647.426 1546.04C625.221 1459.67 621.587 1371.43 636.827 1353.35C677.938 1304.66 752.005 1302.92 790.489 1301.76C833.433 1300.51 932.179 1285.36 986.576 1334.29C987.523 1335.14 976.374 1341.1 981.872 1347.51C986.972 1353.47 1004.44 1374.39 1020.26 1402.61C1031.75 1423.08 1042.1 1446.93 1052.55 1482.45C1066.97 1531.54 1073.35 1574.91 1076.28 1602.58C1077.07 1610.25 1077.63 1616.72 1078.02 1621.76C1087.98 1752.51 1078.12 1812.84 1069.17 1853.86Z" fill="url(#paint47_linear_309_1135)"/>
<path d="M981.668 2860.28C981.668 2860.28 947.743 2857.36 945.111 2864.38C942.479 2871.4 942.186 2889.24 962.95 2885.73C983.716 2882.22 984.301 2865.55 981.668 2860.28Z" fill="url(#paint48_linear_309_1135)"/>
<path d="M900.46 1253.16C912.985 1231.98 907.405 1207.79 906.147 1202.56C900.878 1180.67 898.919 1177.35 894.856 1172.72L889.112 1166.65C889.112 1166.65 888.757 1166.38 888.378 1166.12C884.384 1163.38 869.468 1158.91 866.249 1158.75C855.964 1158.23 835.033 1195.12 823.048 1251.95C822.075 1253.98 821.111 1256.03 820.157 1258.1C814.211 1271 809.112 1283.68 804.734 1296.04C735.227 1301.92 725.579 1310.07 725.27 1314.78C724.617 1324.7 764.222 1336.15 794.006 1340.51C858.964 1350.03 925.734 1332.89 925.429 1320.78C925.296 1315.51 912.386 1308.64 857.32 1301.43C858.608 1292.31 859.896 1283.2 861.183 1274.09C865.66 1273.1 891.234 1268.76 900.46 1253.16Z" fill="url(#paint49_linear_309_1135)"/>
<path d="M913.527 1156.1C908.84 1173.45 895.715 1189.82 890.752 1191.68C890.111 1191.93 886.443 1193.51 882.631 1196.88C882.111 1197.34 881.612 1197.9 881.094 1198.67C874.373 1208.59 888.339 1226.11 883.675 1230.11C880.291 1233.02 869.734 1225.11 867.509 1227.81C865.414 1230.34 873.646 1238.95 871.219 1242C869.387 1244.31 863.976 1240.31 859.096 1243.29C856.663 1244.78 856.801 1246.51 853.162 1252.06C851.104 1255.21 848.506 1258.55 846.711 1260.32C837.992 1268.91 820.003 1268.11 817.82 1263.16C817.214 1261.78 818.249 1261.03 818.336 1256.96C818.336 1256.96 818.417 1253.2 817.047 1248.45C815.088 1241.67 807.715 1235.24 800.796 1226.79C787.981 1211.14 786.266 1200.25 785.849 1196.62C785.701 1195.33 785.65 1194.37 785.614 1193.67C784.903 1179.78 789.896 1160.97 798.732 1150.94C813.534 1134.14 832.828 1149.14 855.742 1134.69C882.179 1118.03 878.016 1084.5 890.05 1084.13C903.317 1083.72 922.192 1124.02 913.527 1156.1Z" fill="#26264F"/>
<path d="M878.519 1224.37C875.822 1217.39 866.878 1220.89 864.82 1228.44C862.758 1236 867.992 1245.82 875.502 1246.22C883.012 1246.62 882.148 1233.77 878.519 1224.37Z" fill="url(#paint50_linear_309_1135)"/>
<path d="M695.936 1790.67C695.868 1790.67 695.799 1790.67 695.731 1790.66C694.721 1790.55 693.992 1789.64 694.104 1788.63C699.171 1743.03 689.719 1709.89 681.379 1680.65C679.318 1673.43 677.373 1666.6 675.676 1659.76C666.407 1622.36 662.351 1607.92 658.055 1592.64C655.256 1582.68 652.362 1572.39 647.88 1555.18C647.625 1554.2 648.214 1553.19 649.198 1552.93C650.169 1552.68 651.187 1553.27 651.444 1554.25C655.918 1571.43 658.807 1581.7 661.599 1591.64C665.903 1606.95 669.967 1621.42 679.25 1658.87C680.931 1665.65 682.87 1672.45 684.919 1679.64C693.352 1709.2 702.91 1742.71 697.764 1789.03C697.66 1789.98 696.862 1790.67 695.936 1790.67Z" fill="url(#paint51_linear_309_1135)"/>
<path d="M878.444 1210.79L884.893 1226.27C884.893 1226.27 891.342 1244.84 899.855 1237.88C906.809 1232.19 908.083 1232.69 908.315 1233.07C908.359 1233.14 908.353 1233.23 908.367 1233.23C908.463 1233.23 908.557 1229.53 908.625 1226.27C910.246 1230.74 912.237 1237.83 912.236 1246.65C912.235 1255.21 912.235 1264.39 905.529 1271.41C905.141 1271.82 897.835 1279.25 887.988 1278.89C887.988 1278.89 884.115 1278.75 869.414 1271.93C869.414 1271.93 889.535 1264.19 890.568 1261.35C893.372 1253.64 883.552 1246.44 879.732 1228.07C878.261 1220.99 878.224 1214.91 878.444 1210.79Z" fill="#26264F"/>
<path opacity="0.3" d="M1069.17 1853.86C1030.32 1873.8 930.225 1909.51 810.985 1891.76C756.497 1883.67 712.912 1865.56 682.246 1849.37C685.973 1838.07 688.905 1827.38 691.164 1817.27C770.485 1872.82 803.654 1818.79 854.875 1806.06C908.173 1792.83 976.711 1820.32 934.989 1697.23C893.237 1574.14 962.478 1583.09 962.478 1583.09L1076.28 1602.58C1077.08 1610.25 1077.63 1616.72 1078.02 1621.76C1087.98 1752.51 1078.12 1812.84 1069.17 1853.86Z" fill="url(#paint52_linear_309_1135)"/>
<path d="M1362.59 1530.63C1378.13 1541.51 1386.46 1556.27 1390.78 1565.7C1379.36 1592.51 1353.45 1642.29 1299.83 1678.98C1211.91 1739.14 1082.99 1741.16 993.2 1672.56C885.922 1590.6 867.998 1433.43 913.057 1366.12C918.244 1358.37 935.297 1332.9 961.771 1329.98C978.491 1328.13 1001.25 1335.03 1037.2 1377.12C1112.12 1464.84 1085.66 1519.61 1129.92 1545.27C1196.29 1583.75 1294.91 1483.27 1362.59 1530.63Z" fill="url(#paint53_linear_309_1135)"/>
<path d="M1060.59 1710.28C1060.46 1710.28 1060.33 1710.27 1060.2 1710.24C1059.14 1710.01 953.551 1685.75 906.13 1554.92C905.785 1553.96 906.277 1552.91 907.234 1552.56C908.192 1552.21 909.246 1552.71 909.593 1553.67C956.292 1682.5 1059.94 1706.42 1060.98 1706.64C1061.97 1706.86 1062.6 1707.84 1062.39 1708.83C1062.2 1709.69 1061.44 1710.28 1060.59 1710.28Z" fill="url(#paint54_linear_309_1135)"/>
<path d="M1462.23 1508C1462.23 1508 1454.4 1492.96 1443.51 1500.33C1432.62 1507.69 1417.32 1512.75 1427.5 1515.36C1437.68 1517.97 1462.23 1508 1462.23 1508Z" fill="url(#paint55_linear_309_1135)"/>
<path d="M2490.72 523.934C2490.72 706.889 2347.66 850.811 2164.82 845.196C1974.53 839.352 1814.49 675.009 1814.49 478.344C1814.49 281.679 1974.53 138.915 2164.82 158.729C2347.66 177.768 2490.72 340.979 2490.72 523.934Z" fill="url(#paint56_linear_309_1135)"/>
<path d="M2540.13 508.158C2540.13 691.113 2397.07 835.035 2214.22 829.42C2023.93 823.576 1863.89 659.233 1863.89 462.568C1863.89 265.903 2023.93 123.138 2214.22 142.953C2397.07 161.991 2540.13 325.203 2540.13 508.158Z" fill="url(#paint57_linear_309_1135)"/>
<path d="M2525.78 507.19C2525.78 682.089 2388.9 819.44 2214.23 813.784C2032.77 807.909 1880.43 651.069 1880.43 463.682C1880.43 276.295 2032.77 139.997 2214.23 158.588C2388.9 176.484 2525.78 332.291 2525.78 507.19Z" fill="url(#paint58_linear_309_1135)"/>
<path d="M2515.5 506.497C2515.5 675.626 2383.05 808.284 2214.22 802.616C2039.07 796.735 1892.2 645.254 1892.2 464.476C1892.2 283.698 2039.07 152.021 2214.22 169.756C2383.05 186.851 2515.5 337.369 2515.5 506.497Z" fill="url(#paint59_linear_309_1135)"/>
<path d="M2212.5 227.295C2221.48 228.149 2228.75 236.237 2228.75 245.361V276.5C2246.72 278.506 2264.71 281.629 2282.72 285.862C2296.01 288.984 2309.2 292.7 2322.31 297.009C2330.16 299.591 2335.51 307.519 2334.71 315.696L2330.88 354.743C2329.87 365.103 2319.63 371.187 2309.99 366.888C2301.36 363.039 2292.5 359.741 2283.43 356.996C2267.61 352.207 2250.91 349.084 2233.35 347.636L2228.76 347.258V436.437C2275.62 449.549 2310.04 467.188 2332.28 489.375C2354.42 511.455 2365.45 538.974 2365.45 572.01C2365.45 607.736 2353.25 636.343 2328.77 657.918C2304.16 679.608 2269.65 691.807 2225.02 694.448V728.817C2225.02 737.945 2217.74 745.055 2208.75 744.697L2208.46 744.686C2199.45 744.328 2192.14 736.612 2192.14 727.452V693.548L2184.9 693.221C2163.98 692.277 2143.94 690.143 2124.79 686.813C2110.61 684.346 2096.77 681.163 2083.25 677.26C2075.08 674.9 2069.47 667.116 2070.22 658.755L2074.72 608.56C2075.7 597.709 2086.6 591.395 2096.92 595.465C2108.94 600.209 2121.12 604.205 2133.45 607.456C2152.65 612.521 2172.12 615.77 2191.85 617.213L2192.14 518.013C2147.15 506.882 2113.47 490.394 2091.34 468.556C2069.11 446.614 2057.96 418.535 2057.96 384.394C2057.96 349.062 2070.05 321.79 2094.15 302.649C2118.13 283.605 2152.21 274.131 2196.19 274.155V242.32C2196.19 233.166 2203.5 226.439 2212.5 227.295ZM2196.19 346.335C2182.28 347.347 2171.44 351.165 2163.68 357.795C2155.91 364.436 2152.02 373.362 2152.02 384.564C2152.02 395.176 2155.62 404.047 2162.81 411.168C2169.99 418.278 2181.12 423.954 2196.19 428.196V346.335ZM2225.02 525.964V616.933C2240.13 616.963 2251.72 613.354 2259.81 606.118C2267.89 598.894 2271.92 588.689 2271.92 575.496C2271.92 563.466 2268.17 553.49 2260.67 545.556C2253.15 537.61 2241.28 531.08 2225.02 525.964Z" fill="url(#paint60_linear_309_1135)"/>
<path opacity="0.3" d="M2159.71 547.914C2169.88 447.379 2262.28 404.819 2250.22 312.343C2242.79 255.346 2199.59 207.312 2151.4 169.807C2005.23 185.137 1892.2 306.172 1892.2 464.476C1892.2 645.255 2039.07 796.736 2214.22 802.616C2231.23 803.187 2247.84 802.303 2263.99 800.186C2194.43 730.969 2150.96 634.286 2159.71 547.914Z" fill="url(#paint61_linear_309_1135)"/>
<defs>
<linearGradient id="paint0_linear_309_1135" x1="2792.13" y1="1297.57" x2="1814.53" y2="2347.47" gradientUnits="userSpaceOnUse">
<stop stop-color="#FFC444"/>
<stop offset="0.9964" stop-color="#F36F56"/>
</linearGradient>
<linearGradient id="paint1_linear_309_1135" x1="213.595" y1="894.88" x2="849.014" y2="2551.72" gradientUnits="userSpaceOnUse">
<stop stop-color="#FFC444"/>
<stop offset="0.9964" stop-color="#F36F56"/>
</linearGradient>
<linearGradient id="paint2_linear_309_1135" x1="2174.26" y1="1114.95" x2="4007.78" y2="2629.92" gradientUnits="userSpaceOnUse">
<stop offset="0.0036" stop-color="#E38DDD"/>
<stop offset="1" stop-color="#9571F6"/>
</linearGradient>
<linearGradient id="paint3_linear_309_1135" x1="459.165" y1="2255.74" x2="2482.37" y2="1005.24" gradientUnits="userSpaceOnUse">
<stop offset="0.0036" stop-color="#E38DDD"/>
<stop offset="1" stop-color="#9571F6"/>
</linearGradient>
<linearGradient id="paint4_linear_309_1135" x1="445.261" y1="1592.83" x2="2411.08" y2="1592.83" gradientUnits="userSpaceOnUse">
<stop stop-color="#444B8C"/>
<stop offset="0.9964" stop-color="#26264F"/>
</linearGradient>
<linearGradient id="paint5_linear_309_1135" x1="510.421" y1="1592.04" x2="2413.75" y2="1592.04" gradientUnits="userSpaceOnUse">
<stop offset="0.0036" stop-color="#E38DDD"/>
<stop offset="1" stop-color="#9571F6"/>
</linearGradient>
<linearGradient id="paint6_linear_309_1135" x1="1012.03" y1="388.748" x2="1995.31" y2="388.748" gradientUnits="userSpaceOnUse">
<stop stop-color="#444B8C"/>
<stop offset="0.9964" stop-color="#26264F"/>
</linearGradient>
<linearGradient id="paint7_linear_309_1135" x1="1939.01" y1="2433.46" x2="2082.72" y2="2952.07" gradientUnits="userSpaceOnUse">
<stop stop-color="#311944"/>
<stop offset="1" stop-color="#893976"/>
</linearGradient>
<linearGradient id="paint8_linear_309_1135" x1="2066.92" y1="2800.12" x2="2069" y2="2625.17" gradientUnits="userSpaceOnUse">
<stop stop-color="#FFC444"/>
<stop offset="0.9964" stop-color="#F36F56"/>
</linearGradient>
<linearGradient id="paint9_linear_309_1135" x1="2118.94" y1="2383.6" x2="2262.65" y2="2902.21" gradientUnits="userSpaceOnUse">
<stop stop-color="#311944"/>
<stop offset="1" stop-color="#893976"/>
</linearGradient>
<linearGradient id="paint10_linear_309_1135" x1="2269.22" y1="2802.53" x2="2271.3" y2="2627.58" gradientUnits="userSpaceOnUse">
<stop stop-color="#FFC444"/>
<stop offset="0.9964" stop-color="#F36F56"/>
</linearGradient>
<linearGradient id="paint11_linear_309_1135" x1="1966.07" y1="2237.46" x2="2152.34" y2="2237.46" gradientUnits="userSpaceOnUse">
<stop stop-color="#444B8C"/>
<stop offset="0.9964" stop-color="#26264F"/>
</linearGradient>
<linearGradient id="paint12_linear_309_1135" x1="1966.07" y1="2237.46" x2="2152.34" y2="2237.46" gradientUnits="userSpaceOnUse">
<stop stop-color="#444B8C"/>
<stop offset="0.9964" stop-color="#26264F"/>
</linearGradient>
<linearGradient id="paint13_linear_309_1135" x1="2071.24" y1="2264.07" x2="2354" y2="2264.07" gradientUnits="userSpaceOnUse">
<stop stop-color="#444B8C"/>
<stop offset="0.9964" stop-color="#26264F"/>
</linearGradient>
<linearGradient id="paint14_linear_309_1135" x1="1407.04" y1="1485.3" x2="1581.99" y2="1663.38" gradientUnits="userSpaceOnUse">
<stop stop-color="#FFC444"/>
<stop offset="0.9964" stop-color="#F36F56"/>
</linearGradient>
<linearGradient id="paint15_linear_309_1135" x1="2249.28" y1="957.051" x2="1412" y2="1813.08" gradientUnits="userSpaceOnUse">
<stop offset="0.0036" stop-color="#6165D7"/>
<stop offset="1" stop-color="#AA80F9"/>
</linearGradient>
<linearGradient id="paint16_linear_309_1135" x1="2639.61" y1="2297.58" x2="2008.53" y2="1391.57" gradientUnits="userSpaceOnUse">
<stop offset="0.0036" stop-color="#6165D7"/>
<stop offset="1" stop-color="#AA80F9"/>
</linearGradient>
<linearGradient id="paint17_linear_309_1135" x1="2639.55" y1="2297.62" x2="2008.46" y2="1391.61" gradientUnits="userSpaceOnUse">
<stop stop-color="#AA80F9"/>
<stop offset="0.9964" stop-color="#6165D7"/>
</linearGradient>
<linearGradient id="paint18_linear_309_1135" x1="2431.89" y1="1919.92" x2="2462.36" y2="1919.92" gradientUnits="userSpaceOnUse">
<stop stop-color="#FFC444"/>
<stop offset="0.9964" stop-color="#F36F56"/>
</linearGradient>
<linearGradient id="paint19_linear_309_1135" x1="2383.2" y1="1981.81" x2="2390.52" y2="1872.9" gradientUnits="userSpaceOnUse">
<stop offset="0.1" stop-color="#311944"/>
<stop offset="0.267" stop-color="#371B47"/>
<stop offset="0.4803" stop-color="#462150"/>
<stop offset="0.7186" stop-color="#612A5F"/>
<stop offset="0.9736" stop-color="#853774"/>
<stop offset="1" stop-color="#893976"/>
</linearGradient>
<linearGradient id="paint20_linear_309_1135" x1="2342.19" y1="1903.35" x2="2425.86" y2="1948.21" gradientUnits="userSpaceOnUse">
<stop offset="0.1" stop-color="#311944"/>
<stop offset="0.267" stop-color="#371B47"/>
<stop offset="0.4803" stop-color="#462150"/>
<stop offset="0.7186" stop-color="#612A5F"/>
<stop offset="0.9736" stop-color="#853774"/>
<stop offset="1" stop-color="#893976"/>
</linearGradient>
<linearGradient id="paint21_linear_309_1135" x1="2313.41" y1="1922.15" x2="2340.3" y2="1922.15" gradientUnits="userSpaceOnUse">
<stop stop-color="#FFC444"/>
<stop offset="0.9964" stop-color="#F36F56"/>
</linearGradient>
<linearGradient id="paint22_linear_309_1135" x1="2223.28" y1="2043.39" x2="2175.45" y2="1606.25" gradientUnits="userSpaceOnUse">
<stop offset="0.1" stop-color="#311944"/>
<stop offset="0.6853" stop-color="#6D2F66"/>
<stop offset="1" stop-color="#893976"/>
</linearGradient>
<linearGradient id="paint23_linear_309_1135" x1="2431.34" y1="2224.78" x2="2114.65" y2="2048.44" gradientUnits="userSpaceOnUse">
<stop stop-color="#311944"/>
<stop offset="1" stop-color="#893976"/>
</linearGradient>
<linearGradient id="paint24_linear_309_1135" x1="2145.57" y1="1979.43" x2="2241.07" y2="2139.57" gradientUnits="userSpaceOnUse">
<stop stop-color="#311944"/>
<stop offset="1" stop-color="#893976"/>
</linearGradient>
<linearGradient id="paint25_linear_309_1135" x1="2388.9" y1="1788.39" x2="2423.73" y2="2255.85" gradientUnits="userSpaceOnUse">
<stop offset="0.1" stop-color="#311944"/>
<stop offset="0.6853" stop-color="#6D2F66"/>
<stop offset="1" stop-color="#893976"/>
</linearGradient>
<linearGradient id="paint26_linear_309_1135" x1="2327.03" y1="2053.02" x2="2583.5" y2="2250.63" gradientUnits="userSpaceOnUse">
<stop stop-color="#311944"/>
<stop offset="1" stop-color="#893976"/>
</linearGradient>
<linearGradient id="paint27_linear_309_1135" x1="2260.97" y1="2026.2" x2="2368.96" y2="2022.01" gradientUnits="userSpaceOnUse">
<stop offset="0.1" stop-color="#311944"/>
<stop offset="0.6853" stop-color="#6D2F66"/>
<stop offset="1" stop-color="#893976"/>
</linearGradient>
<linearGradient id="paint28_linear_309_1135" x1="2429.06" y1="2388.47" x2="2391.56" y2="1967.03" gradientUnits="userSpaceOnUse">
<stop offset="0.1" stop-color="#311944"/>
<stop offset="0.267" stop-color="#371B47"/>
<stop offset="0.4803" stop-color="#462150"/>
<stop offset="0.7186" stop-color="#612A5F"/>
<stop offset="0.9736" stop-color="#853774"/>
<stop offset="1" stop-color="#893976"/>
</linearGradient>
<linearGradient id="paint29_linear_309_1135" x1="2447.35" y1="2486.23" x2="2383.74" y2="1904.82" gradientUnits="userSpaceOnUse">
<stop stop-color="#311944"/>
<stop offset="1" stop-color="#893976"/>
</linearGradient>
<linearGradient id="paint30_linear_309_1135" x1="2537.03" y1="2179.84" x2="2345.24" y2="2079.59" gradientUnits="userSpaceOnUse">
<stop stop-color="#FFC444"/>
<stop offset="0.9964" stop-color="#F36F56"/>
</linearGradient>
<linearGradient id="paint31_linear_309_1135" x1="2365.09" y1="2095.01" x2="2560.83" y2="2165.06" gradientUnits="userSpaceOnUse">
<stop stop-color="#FFC444"/>
<stop offset="0.9964" stop-color="#F36F56"/>
</linearGradient>
<linearGradient id="paint32_linear_309_1135" x1="2404.99" y1="2034.08" x2="2388.64" y2="1850.35" gradientUnits="userSpaceOnUse">
<stop stop-color="#FFC444"/>
<stop offset="0.9964" stop-color="#F36F56"/>
</linearGradient>
<linearGradient id="paint33_linear_309_1135" x1="2879.88" y1="2265.49" x2="2186.35" y2="1269.83" gradientUnits="userSpaceOnUse">
<stop offset="0.0036" stop-color="#6165D7"/>
<stop offset="1" stop-color="#AA80F9"/>
</linearGradient>
<linearGradient id="paint34_linear_309_1135" x1="2070.97" y1="1285.59" x2="2070.97" y2="1103.28" gradientUnits="userSpaceOnUse">
<stop stop-color="#FFC444"/>
<stop offset="0.9964" stop-color="#F36F56"/>
</linearGradient>
<linearGradient id="paint35_linear_309_1135" x1="2107.79" y1="1230.52" x2="2032.33" y2="1038.86" gradientUnits="userSpaceOnUse">
<stop stop-color="#444B8C"/>
<stop offset="0.9964" stop-color="#3E4177"/>
</linearGradient>
<linearGradient id="paint36_linear_309_1135" x1="1950.01" y1="1174.17" x2="2111.98" y2="1085.95" gradientUnits="userSpaceOnUse">
<stop stop-color="#FFC444"/>
<stop offset="0.9964" stop-color="#F36F56"/>
</linearGradient>
<linearGradient id="paint37_linear_309_1135" x1="2040" y1="1129.68" x2="2024.78" y2="1352.6" gradientUnits="userSpaceOnUse">
<stop stop-color="#444B8C"/>
<stop offset="0.9964" stop-color="#26264F"/>
</linearGradient>
<linearGradient id="paint38_linear_309_1135" x1="2081.18" y1="1573.79" x2="2081.18" y2="1073.06" gradientUnits="userSpaceOnUse">
<stop stop-color="#444B8C"/>
<stop offset="0.9964" stop-color="#26264F"/>
</linearGradient>
<linearGradient id="paint39_linear_309_1135" x1="1407.25" y1="1493.51" x2="1448.68" y2="1593.05" gradientUnits="userSpaceOnUse">
<stop stop-color="#FFC444"/>
<stop offset="0.9964" stop-color="#F36F56"/>
</linearGradient>
<linearGradient id="paint40_linear_309_1135" x1="750.378" y1="1768.01" x2="638.791" y2="1321.66" gradientUnits="userSpaceOnUse">
<stop stop-color="#FF9085"/>
<stop offset="1" stop-color="#FB6FBB"/>
</linearGradient>
<linearGradient id="paint41_linear_309_1135" x1="643.835" y1="2802" x2="584.829" y2="2841.21" gradientUnits="userSpaceOnUse">
<stop stop-color="#444B8C"/>
<stop offset="0.9964" stop-color="#26264F"/>
</linearGradient>
<linearGradient id="paint42_linear_309_1135" x1="586.739" y1="2841.58" x2="599.649" y2="2750.27" gradientUnits="userSpaceOnUse">
<stop stop-color="#FFC444"/>
<stop offset="0.9964" stop-color="#F36F56"/>
</linearGradient>
<linearGradient id="paint43_linear_309_1135" x1="639.403" y1="2795.33" x2="580.397" y2="2834.54" gradientUnits="userSpaceOnUse">
<stop stop-color="#444B8C"/>
<stop offset="0.9964" stop-color="#26264F"/>
</linearGradient>
<linearGradient id="paint44_linear_309_1135" x1="1018.5" y1="2831.27" x2="965.563" y2="2878.36" gradientUnits="userSpaceOnUse">
<stop stop-color="#444B8C"/>
<stop offset="0.9964" stop-color="#26264F"/>
</linearGradient>
<linearGradient id="paint45_linear_309_1135" x1="967.508" y1="2878.45" x2="967.508" y2="2786.23" gradientUnits="userSpaceOnUse">
<stop stop-color="#FFC444"/>
<stop offset="0.9964" stop-color="#F36F56"/>
</linearGradient>
<linearGradient id="paint46_linear_309_1135" x1="1170.52" y1="1659.83" x2="406.98" y2="3200.54" gradientUnits="userSpaceOnUse">
<stop stop-color="#444B8C"/>
<stop offset="0.9964" stop-color="#26264F"/>
</linearGradient>
<linearGradient id="paint47_linear_309_1135" x1="1252.01" y1="1881.75" x2="379.178" y2="1274.73" gradientUnits="userSpaceOnUse">
<stop stop-color="#FF9085"/>
<stop offset="1" stop-color="#FB6FBB"/>
</linearGradient>
<linearGradient id="paint48_linear_309_1135" x1="1013.17" y1="2825.29" x2="960.239" y2="2872.37" gradientUnits="userSpaceOnUse">
<stop stop-color="#444B8C"/>
<stop offset="0.9964" stop-color="#26264F"/>
</linearGradient>
<linearGradient id="paint49_linear_309_1135" x1="823.335" y1="1321.86" x2="926.953" y2="1119.48" gradientUnits="userSpaceOnUse">
<stop stop-color="#FFC444"/>
<stop offset="0.9964" stop-color="#F36F56"/>
</linearGradient>
<linearGradient id="paint50_linear_309_1135" x1="940.885" y1="1149.24" x2="671.061" y2="1488.71" gradientUnits="userSpaceOnUse">
<stop stop-color="#FFC444"/>
<stop offset="0.9964" stop-color="#F36F56"/>
</linearGradient>
<linearGradient id="paint51_linear_309_1135" x1="647.82" y1="1671.77" x2="699.215" y2="1671.77" gradientUnits="userSpaceOnUse">
<stop stop-color="#FF9085"/>
<stop offset="1" stop-color="#FB6FBB"/>
</linearGradient>
<linearGradient id="paint52_linear_309_1135" x1="682.246" y1="1739.76" x2="1082.19" y2="1739.76" gradientUnits="userSpaceOnUse">
<stop stop-color="#FF9085"/>
<stop offset="1" stop-color="#FB6FBB"/>
</linearGradient>
<linearGradient id="paint53_linear_309_1135" x1="513.658" y1="1930.07" x2="1347.8" y2="1349.95" gradientUnits="userSpaceOnUse">
<stop stop-color="#FF9085"/>
<stop offset="1" stop-color="#FB6FBB"/>
</linearGradient>
<linearGradient id="paint54_linear_309_1135" x1="906.019" y1="1631.37" x2="1062.43" y2="1631.37" gradientUnits="userSpaceOnUse">
<stop stop-color="#FF9085"/>
<stop offset="1" stop-color="#FB6FBB"/>
</linearGradient>
<linearGradient id="paint55_linear_309_1135" x1="1432.06" y1="1498.82" x2="1475.38" y2="1542.92" gradientUnits="userSpaceOnUse">
<stop stop-color="#FFC444"/>
<stop offset="0.9964" stop-color="#F36F56"/>
</linearGradient>
<linearGradient id="paint56_linear_309_1135" x1="2036.72" y1="538.244" x2="1642.34" y2="664.81" gradientUnits="userSpaceOnUse">
<stop stop-color="#FCB148"/>
<stop offset="0.0521" stop-color="#FDBA46"/>
<stop offset="0.1424" stop-color="#FFC244"/>
<stop offset="0.3183" stop-color="#FFC444"/>
<stop offset="0.4849" stop-color="#FDB946"/>
<stop offset="0.7754" stop-color="#F99C4D"/>
<stop offset="0.8658" stop-color="#F8924F"/>
<stop offset="1" stop-color="#F8924F"/>
</linearGradient>
<linearGradient id="paint57_linear_309_1135" x1="2355.74" y1="145.683" x2="2003.67" y2="922.423" gradientUnits="userSpaceOnUse">
<stop stop-color="#FFDB44"/>
<stop offset="1" stop-color="#FEEF06"/>
</linearGradient>
<linearGradient id="paint58_linear_309_1135" x1="2290.98" y1="965.835" x2="2223.04" y2="594.718" gradientUnits="userSpaceOnUse">
<stop stop-color="#FCB148"/>
<stop offset="0.0521" stop-color="#FDBA46"/>
<stop offset="0.1424" stop-color="#FFC244"/>
<stop offset="0.3183" stop-color="#FFC444"/>
<stop offset="0.4849" stop-color="#FDB946"/>
<stop offset="0.7754" stop-color="#F99C4D"/>
<stop offset="0.8658" stop-color="#F8924F"/>
<stop offset="1" stop-color="#F8924F"/>
</linearGradient>
<linearGradient id="paint59_linear_309_1135" x1="2146.94" y1="365.141" x2="2426.91" y2="959.447" gradientUnits="userSpaceOnUse">
<stop stop-color="#FCB148"/>
<stop offset="0.0521" stop-color="#FDBA46"/>
<stop offset="0.1424" stop-color="#FFC244"/>
<stop offset="0.3183" stop-color="#FFC444"/>
<stop offset="0.4849" stop-color="#FDB946"/>
<stop offset="0.7754" stop-color="#F99C4D"/>
<stop offset="0.8658" stop-color="#F8924F"/>
<stop offset="1" stop-color="#F8924F"/>
</linearGradient>
<linearGradient id="paint60_linear_309_1135" x1="2135.79" y1="237.254" x2="2276.57" y2="764.852" gradientUnits="userSpaceOnUse">
<stop stop-color="#FFDB44"/>
<stop offset="1" stop-color="#FEEF06"/>
</linearGradient>
<linearGradient id="paint61_linear_309_1135" x1="2064.58" y1="403.601" x2="2343.98" y2="996.708" gradientUnits="userSpaceOnUse">
<stop stop-color="#FCB148"/>
<stop offset="0.0521" stop-color="#FDBA46"/>
<stop offset="0.1424" stop-color="#FFC244"/>
<stop offset="0.3183" stop-color="#FFC444"/>
<stop offset="0.4849" stop-color="#FDB946"/>
<stop offset="0.7754" stop-color="#F99C4D"/>
<stop offset="0.8658" stop-color="#F8924F"/>
<stop offset="1" stop-color="#F8924F"/>
</linearGradient>
</defs>
</svg>
