<?xml version="1.0" encoding="UTF-8"?>
<svg xmlns="http://www.w3.org/2000/svg" viewBox="0 0 500 500">
  <defs>
    <style>
      .cls-1 {
        fill: #ed847e;
      }

      .cls-2 {
        fill: #ebebeb;
      }

      .cls-3, .cls-4 {
        fill: #407bff;
      }

      .cls-5 {
        fill: #e6e6e6;
      }

      .cls-4, .cls-6 {
        opacity: .4;
      }

      .cls-7 {
        opacity: .6;
      }

      .cls-7, .cls-8 {
        fill: #fff;
      }

      .cls-9 {
        fill: #263238;
      }

      .cls-10 {
        fill: #fafafa;
      }

      .cls-11 {
        fill: #ffc3bd;
      }

      .cls-12 {
        opacity: .2;
      }

      .cls-13 {
        opacity: .3;
      }

      .cls-14 {
        fill: #f5f5f5;
      }

      .cls-15 {
        fill: #f0f0f0;
      }

      .cls-16 {
        fill: #e0e0e0;
      }
    </style>
  </defs>
  <g id="Background_Complete" data-name="Background Complete">
    <g>
      <rect class="cls-2" y="382.4" width="500" height=".25"/>
      <rect class="cls-2" x="416.78" y="398.49" width="33.12" height=".25"/>
      <rect class="cls-2" x="322.53" y="401.21" width="8.69" height=".25"/>
      <rect class="cls-2" x="396.59" y="389.21" width="19.19" height=".25"/>
      <rect class="cls-2" x="52.46" y="390.89" width="43.19" height=".25"/>
      <rect class="cls-2" x="104.56" y="390.89" width="6.33" height=".25"/>
      <rect class="cls-2" x="131.47" y="395.11" width="93.68" height=".25"/>
      <path class="cls-2" d="M237.01,337.8H43.91c-3.15,0-5.71-2.56-5.71-5.71V60.66c0-3.15,2.56-5.71,5.71-5.71h193.1c3.15,0,5.71,2.56,5.71,5.71v271.43c0,3.15-2.56,5.71-5.71,5.71ZM43.91,55.2c-3.01,0-5.46,2.45-5.46,5.46v271.43c0,3.01,2.45,5.46,5.46,5.46h193.1c3.01,0,5.46-2.45,5.46-5.46V60.66c0-3.01-2.45-5.46-5.46-5.46H43.91Z"/>
      <path class="cls-2" d="M453.31,337.8h-193.1c-3.15,0-5.71-2.56-5.71-5.71V60.66c0-3.15,2.56-5.71,5.71-5.71h193.1c3.15,0,5.71,2.56,5.71,5.71v271.43c0,3.15-2.56,5.71-5.71,5.71ZM260.21,55.2c-3.01,0-5.46,2.45-5.46,5.46v271.43c0,3.01,2.45,5.46,5.46,5.46h193.1c3.01,0,5.46-2.45,5.46-5.46V60.66c0-3.01-2.45-5.46-5.46-5.46h-193.1Z"/>
    </g>
    <g>
      <g>
        <rect class="cls-5" x="310.81" y="123.52" width="123.46" height="82.54" transform="translate(537.33 -207.75) rotate(90)"/>
        <rect class="cls-14" x="308.3" y="123.52" width="123.46" height="82.54" transform="translate(534.82 -205.25) rotate(90)"/>
        <rect class="cls-8" x="339.37" y="113.66" width="61.32" height="102.25"/>
        <rect class="cls-5" x="288.94" y="164.09" width="102.25" height="1.39" transform="translate(504.86 -175.28) rotate(90)"/>
      </g>
      <g>
        <g>
          <rect class="cls-5" x="214.82" y="269.51" width="35" height="112.89" transform="translate(464.65 651.91) rotate(180)"/>
          <polygon class="cls-15" points="221.47 382.4 214.82 382.4 214.82 366.38 228.44 366.38 221.47 382.4"/>
          <rect class="cls-5" x="401.85" y="269.51" width="35" height="112.89" transform="translate(838.71 651.89) rotate(180)"/>
          <rect class="cls-15" x="214.82" y="269.51" width="192.83" height="110.54" transform="translate(622.48 649.56) rotate(180)"/>
          <rect class="cls-5" x="265.84" y="230.37" width="25.41" height="117.14" transform="translate(-10.39 567.5) rotate(-90)"/>
          <rect class="cls-5" x="359.33" y="258.48" width="25.41" height="60.92" transform="translate(83.11 660.98) rotate(-90)"/>
          <path class="cls-15" d="M366.01,279.31h12.05c5.24,0,10.24-1.25,13.84-3.46h-39.73c3.6,2.21,8.61,3.46,13.84,3.46Z"/>
          <path class="cls-15" d="M243.79,279.31h68.27c5.24,0,10.24-1.25,13.84-3.46h-95.95c3.6,2.21,8.61,3.46,13.84,3.46Z"/>
          <rect class="cls-5" x="265.84" y="263.06" width="25.41" height="117.14" transform="translate(-43.07 600.18) rotate(-90)"/>
          <rect class="cls-5" x="359.33" y="291.17" width="25.41" height="60.92" transform="translate(50.42 693.67) rotate(-90)"/>
          <path class="cls-15" d="M366.01,311.99h12.05c5.24,0,10.24-1.25,13.84-3.46h0s-39.73,0-39.73,0h0c3.6,2.21,8.61,3.46,13.84,3.46Z"/>
          <path class="cls-15" d="M243.79,312h68.27c5.24,0,10.24-1.25,13.84-3.46h-95.95c3.6,2.21,8.61,3.46,13.84,3.46Z"/>
          <rect class="cls-5" x="265.84" y="295.74" width="25.41" height="117.14" transform="translate(-75.76 632.87) rotate(-90)"/>
          <rect class="cls-5" x="359.33" y="323.85" width="25.41" height="60.92" transform="translate(17.74 726.36) rotate(-90)"/>
          <path class="cls-15" d="M366.01,344.68h12.05c5.24,0,10.24-1.25,13.84-3.46h-39.73c3.6,2.21,8.61,3.46,13.84,3.46Z"/>
          <path class="cls-15" d="M243.8,344.68h68.27c5.24,0,10.24-1.25,13.84-3.46h-95.95c3.6,2.21,8.61,3.46,13.84,3.46Z"/>
          <polygon class="cls-15" points="401.01 382.4 407.65 382.4 407.65 366.38 394.04 366.38 401.01 382.4"/>
        </g>
        <path class="cls-10" d="M419.23,249.42s-1.01,11.47-39.94,11.47c-38.93,0-39.94-11.47-39.94-11.47h79.88Z"/>
        <path class="cls-2" d="M419.23,258.04s-1.02,11.47-39.94,11.47c-38.93,0-39.94-11.47-39.94-11.47h79.88Z"/>
      </g>
      <g>
        <polygon class="cls-5" points="146.59 382.4 186.61 382.4 174.75 279.47 146.59 279.47 146.59 382.4"/>
        <polygon class="cls-16" points="79.05 382.4 168.05 382.4 177.44 261.93 88.44 261.93 79.05 382.4"/>
        <polygon class="cls-14" points="72.64 382.4 165.26 382.4 174.65 261.93 82.04 261.93 72.64 382.4"/>
        <polygon class="cls-8" points="156.51 372.9 164.42 271.42 90.79 271.42 82.88 372.9 156.51 372.9"/>
      </g>
      <g>
        <rect class="cls-2" x="62.23" y="75.69" width="226.79" height="165.29"/>
        <rect class="cls-10" x="69.99" y="84.43" width="211.27" height="147.8"/>
        <polygon class="cls-8" points="115.45 232.24 93.28 232.24 114.16 84.43 136.33 84.43 115.45 232.24"/>
        <polygon class="cls-8" points="170.24 232.24 148.06 232.24 168.94 84.43 191.12 84.43 170.24 232.24"/>
        <polygon class="cls-8" points="240.87 232.24 229.78 232.24 250.66 84.43 261.75 84.43 240.87 232.24"/>
        <polygon class="cls-8" points="189.74 232.24 178.65 232.24 199.53 84.43 210.62 84.43 189.74 232.24"/>
        <rect class="cls-2" x="130.36" y="84.43" width="10.45" height="147.8"/>
        <rect class="cls-16" x="140.81" y="84.43" width="2.33" height="147.8" transform="translate(283.95 316.67) rotate(180)"/>
        <rect class="cls-16" x="289.02" y="75.69" width="1.67" height="165.29" transform="translate(579.71 316.67) rotate(180)"/>
      </g>
    </g>
  </g>
  <g id="Shadow">
    <ellipse id="_Path_" data-name="&amp;lt;Path&amp;gt;" class="cls-14" cx="250" cy="416.24" rx="193.89" ry="11.32"/>
  </g>
  <g id="Character">
    <g>
      <g>
        <polygon class="cls-11" points="296.58 387.31 309.26 379.99 317 395.48 306.41 401.62 296.58 387.31"/>
        <polygon class="cls-12" points="296.59 387.31 309.27 379.99 313.6 388.67 302.09 395.33 296.59 387.31"/>
      </g>
      <g>
        <path class="cls-3" d="M301.14,337.35c8.98-20.8,23.77-44.97,17.71-67.28l-40.36-6.38s-8.35,49.86-6.69,70.31c1.72,21.26,26.82,59.01,26.82,59.01l14.45-8.48s-6.28-32.26-11.93-47.17Z"/>
        <g class="cls-6">
          <path d="M301.14,337.35c8.98-20.8,23.77-44.97,17.71-67.28l-40.36-6.38s-8.35,49.86-6.69,70.31c1.72,21.26,26.82,59.01,26.82,59.01l14.45-8.48s-6.28-32.26-11.93-47.17Z"/>
        </g>
      </g>
      <polygon class="cls-3" points="314.53 384.35 298.02 394.1 292.76 387.27 312.22 376.97 314.53 384.35"/>
      <path class="cls-12" d="M304.09,330.78c4.85-10.53,10.46-21.74,13.63-33.02-9.53,1.62-17.61,9.37-13.63,33.02Z"/>
      <path class="cls-9" d="M316.58,391.81c-.25-.32-.77-.29-.97.05-2.08,3.57-8.08,6.99-10.39,8.22-.57.3-.95.8-1.13,1.36-1.13,3.48-5.61,8.68-5.61,8.68,0,0,.25,1.16.82,2.32.48.98,1.74,1.28,2.58.59l18.42-14.96c.66-.54.71-1.54.09-2.13-1.05-1-2.59-2.56-3.81-4.13Z"/>
      <g>
        <polygon class="cls-11" points="320.39 394.37 335.02 394.51 333.69 411.79 321.46 411.69 320.39 394.37"/>
        <path class="cls-9" d="M334.97,409.13c.04-.4-.35-.71-.73-.57-3.99,1.46-10.71.34-13.24-.16-.62-.12-1.24.02-1.77.35-3.24,1.99-8.98,3.21-8.98,3.21,0,0-.59.98-.99,2.19-.36,1.09.45,2.22,1.6,2.22h22.56c.81-.01,1.46-.68,1.42-1.49-.06-1.43-.1-3.68.12-5.73Z"/>
        <polygon class="cls-12" points="320.39 394.38 335.03 394.52 334.28 404.19 320.99 404.08 320.39 394.38"/>
      </g>
      <g>
        <path class="cls-3" d="M344.29,336.16c4.56-21.73,12.77-49.98,6.99-61.2l-47.25-7.32s5.88,44.96,7.43,65.9c1.61,21.78,7.98,66.76,7.98,66.76l15.84.04s11.02-38.27,9.01-64.19Z"/>
        <path class="cls-6" d="M344.29,336.16c4.56-21.73,12.77-49.98,6.99-61.2l-47.25-7.32s5.88,44.96,7.43,65.9c1.61,21.78,7.98,66.76,7.98,66.76l15.84.04s11.02-38.27,9.01-64.19Z"/>
      </g>
      <polygon class="cls-3" points="337 400.95 317.95 400.95 317.65 393.01 338.64 393.35 337 400.95"/>
      <path class="cls-11" d="M316.5,199.01l-1.21.97-1.12.88c-.75.57-1.5,1.11-2.25,1.66-1.5,1.09-3.05,2.11-4.61,3.12-3.13,1.99-6.35,3.88-9.75,5.56-3.38,1.71-6.92,3.25-10.69,4.52-3.76,1.3-7.8,2.29-12.25,2.72l-.82.08c-2.15.21-4.2-.45-5.78-1.66-3.31-2.54-5.34-5.66-6.68-8.5-.69-1.43-1.21-2.86-1.6-4.26-.4-1.4-.74-2.76-.96-4.11-.22-1.35-.37-2.68-.48-3.99-.1-1.31-.11-2.61-.11-3.89.01-1.28.1-2.56.21-3.83l.23-1.9.33-2c.47-2.83,3.15-4.75,5.99-4.27,1.81.3,3.25,1.51,3.92,3.08l.41.98c.16.37.34.94.51,1.41l.52,1.5c.34,1,.72,1.98,1.08,2.95.74,1.93,1.53,3.78,2.39,5.44.83,1.67,1.79,3.14,2.69,4.21.89,1.11,1.81,1.61,2.23,1.7l-6.6-1.58c2.38-.53,4.99-1.49,7.66-2.65,1.33-.58,2.67-1.25,4.01-1.95,1.35-.68,2.7-1.43,4.04-2.2,2.68-1.56,5.38-3.22,8.02-4.98,1.33-.87,2.64-1.78,3.95-2.68l1.94-1.36,1.79-1.28.41-.29c4.69-3.34,11.19-2.25,14.53,2.44,3.22,4.51,2.3,10.73-1.96,14.17Z"/>
      <path class="cls-11" d="M268.85,183.94l-5.17,3.37c-6.33,1.39-6.71-7.06-6.71-7.06l-1.82-3.99c-.62-1.35-.02-3.04,1.41-3.99l3.59-2.38c1.64-1.09,3.77-.82,4.72.59l2.14,3.17c.62.92,1.01,1.99,1.12,3.1l.72,7.19Z"/>
      <path class="cls-9" d="M316.16,178.01c-9.9-.59-30.25,12.18-30.25,12.18-2.34,7.46,1.74,21.61,7.7,25.1,0,0,15.15-6.51,22.28-12.83,8.62-7.65,20.29-23.25.27-24.44Z"/>
      <path class="cls-9" d="M317.08,178.02c12.12.6,28.03,3.22,40.13,6.87,7.55,2.28,12.25,7.92,8.87,23.58-6.86,31.77-6.3,57.72-12.16,68.62,0,0-68.69,4.24-77.87-11.6,1.86-39.22,20.66-69.11,29.05-81.47,2.68-3.95,7.22-6.24,11.99-6Z"/>
      <path class="cls-11" d="M320.97,182.37c1.77-1.27,3.24-.14,4.34-2.3.58-1.58.61-3.33-.04-5.36l19.84-7.04c-1.4,6.68-2.5,11.96.07,15.09.09,5.16-11.82,9.86-21.88,7.95-8.86-1.68-4.88-6.52-2.33-8.35Z"/>
      <path class="cls-12" d="M325.45,175.33l15.02-1.38c-4.54,5.18-11.61,7.31-14.93,5.37.3-1.22.29-2.53-.09-3.99Z"/>
      <path class="cls-9" d="M324,156.53c-.79-7.69,6.7-17.42,12.96-14.06,6.26,3.35-12.96,14.06-12.96,14.06Z"/>
      <path class="cls-11" d="M350.41,160.92c-3.97,8.76-6.85,14.62-13.5,16.43-13.21,3.59-17.56-3.67-16.28-13.46,1.15-8.82,7.45-21.66,17.57-21.8,9.98-.14,16.18,10.08,12.21,18.83Z"/>
      <path class="cls-9" d="M348.12,167.93c-4.53-.66-7.84-8.83-3.1-13.11,4.74-4.28,3.1-8.39-.34-9.6s-9.69-.34-11.11-3.4,8.09-5.28,13.63-1.76,5.24,1.38,5.24,1.38c0,0,1.15,1.8-1.04,2.18,4.35,2.89,9.17,9.85,4.69,12.71,5.66,3.19-3.1,10.75-7.97,11.6Z"/>
      <path class="cls-9" d="M354.69,155.85c3.02.99,4.31-1.3,4.31-1.3,0,0,.95,3.72-4.31,1.3Z"/>
      <path class="cls-9" d="M332.49,165.13c.4-.17.81-.39,1.22-.66.11-.07.13-.22.05-.33-.08-.11-.24-.14-.35-.06-3,1.98-5.98.85-6.01.84-.13-.05-.27,0-.32.13-.05.12.02.26.15.31.12.05,2.51.96,5.26-.22Z"/>
      <path class="cls-12" d="M337.82,158.23s1.95-.43,3.26.61c-1.83.03-3.26-.61-3.26-.61Z"/>
      <path class="cls-12" d="M337.73,159.02s1.83-.02,2.72,1.27c-1.62-.36-2.72-1.27-2.72-1.27Z"/>
      <path class="cls-11" d="M349.85,170.4c-1.91,1.74-4.45,2.43-6.57,2.29-3.2-.22-2.78-2.73-1.02-5.2,1.58-2.22,4.18-5.4,6.97-3.96,2.75,1.41,2.81,4.88.63,6.88Z"/>
      <path class="cls-9" d="M335.97,157.95c-.28.73-.89,1.17-1.37.99-.48-.19-.64-.93-.36-1.66.28-.73.89-1.17,1.37-.99s.64.93.36,1.66Z"/>
      <path class="cls-9" d="M327.51,154.66c-.28.73-.89,1.17-1.37.99-.48-.19-.64-.93-.36-1.66.28-.73.89-1.17,1.37-.99.48.19.64.93.36,1.66Z"/>
      <path class="cls-1" d="M330.15,155.85l-2.13,6.4s-2.21.77-4.24-1.41c2.12-3.29,6.37-4.99,6.37-4.99Z"/>
      <path class="cls-9" d="M339.85,153.69c.07.02.15.03.23.02.25-.05.41-.29.36-.54-.49-2.51-2.44-3.34-2.52-3.37-.23-.1-.5.02-.6.25-.09.23.02.5.25.6h0c.06.03,1.58.69,1.97,2.69.03.17.15.3.31.35Z"/>
      <path class="cls-9" d="M324.34,151.24c.14.04.3,0,.42-.1,1.51-1.34,3.11-.94,3.18-.92.24.07.49-.08.56-.32.06-.24-.08-.5-.32-.56-.09-.02-2.14-.57-4.03,1.12-.19.17-.2.46-.04.65.06.07.14.12.23.14Z"/>
      <g>
        <g>
          <path class="cls-3" d="M218.44,208.99l-4.34,11.85c-.79,2.15-2.54,3.62-4.71,3.95l-57.66,8.73c-3.72.56-5.92,4.38-4.91,8.53l20.19,83.15c1.01,4.15,4.84,7.05,8.56,6.49l137.27-20.79c3.72-.56,5.92-4.38,4.91-8.53l-24.33-100.19c-1.01-4.15-4.84-7.05-8.56-6.49l-61.71,9.35c-2.17.33-3.92,1.8-4.71,3.95Z"/>
          <path class="cls-13" d="M218.44,208.99l-4.34,11.85c-.79,2.15-2.54,3.62-4.71,3.95l-57.66,8.73c-3.72.56-5.92,4.38-4.91,8.53l20.19,83.15c1.01,4.15,4.84,7.05,8.56,6.49l137.27-20.79c3.72-.56,5.92-4.38,4.91-8.53l-24.33-100.19c-1.01-4.15-4.84-7.05-8.56-6.49l-61.71,9.35c-2.17.33-3.92,1.8-4.71,3.95Z"/>
        </g>
        <path class="cls-3" d="M188.85,87.41c1.37,0,2.72.07,4.05.21,8.85-12.22,23.22-20.18,39.46-20.18,20.63,0,38.25,12.84,45.34,30.95,15.78,2.69,27.79,16.42,27.79,32.97,0,18.48-14.98,33.45-33.45,33.45h-83.18c-21.37,0-38.7-17.33-38.7-38.7s17.33-38.7,38.7-38.7Z"/>
        <g>
          <polygon class="cls-3" points="192.44 151.29 192.44 247.77 263.2 247.77 263.2 172.29 242.2 151.29 192.44 151.29"/>
          <polygon class="cls-7" points="192.44 151.29 192.44 247.77 263.2 247.77 263.2 172.29 242.2 151.29 192.44 151.29"/>
          <polygon class="cls-4" points="242.2 172.29 242.2 151.29 263.2 172.29 242.2 172.29"/>
        </g>
        <rect class="cls-3" x="189.75" y="331.71" width="5.07" height="1.01" transform="translate(-47.46 32.44) rotate(-8.59)"/>
        <rect class="cls-3" x="200.31" y="329.15" width="17.71" height="1.01" transform="translate(-46.91 34.96) rotate(-8.59)"/>
        <path class="cls-3" d="M243.68,218.47l-6.53,10.9c-1.19,1.98-3.18,3.35-5.34,3.68l-57.66,8.74c-3.72.56-6.6,4.09-6.44,7.87l3.35,75.84c.17,3.78,3.32,6.39,7.04,5.83l137.27-20.79c3.72-.56,6.6-4.09,6.44-7.87l-4.04-91.38c-.17-3.78-3.32-6.39-7.04-5.83l-61.71,9.35c-2.17.33-4.16,1.7-5.34,3.68Z"/>
        <path class="cls-8" d="M209.94,112.23c.32,0,.64.12.88.36.49.48.49,1.27,0,1.76-9.37,9.37-9.37,24.61,0,33.98,4.54,4.54,10.57,7.04,16.99,7.04s12.45-2.5,16.99-7.04c4.54-4.54,7.04-10.57,7.04-16.99s-2.5-12.45-7.04-16.99c-.49-.48-.49-1.27,0-1.76.48-.48,1.27-.48,1.76,0,5.01,5.01,7.76,11.66,7.76,18.74s-2.76,13.74-7.76,18.74c-5.01,5.01-11.66,7.76-18.74,7.76s-13.74-2.76-18.74-7.76c-10.34-10.34-10.34-27.15,0-37.49.24-.24.56-.36.88-.36Z"/>
        <path class="cls-8" d="M217.17,104.8v27.67c0,2.49,2.02,4.51,4.51,4.51h12.24c2.49,0,4.51-2.02,4.51-4.51v-27.67h4.6l-15.24-13.12-15.24,13.12h4.6Z"/>
      </g>
      <g>
        <path class="cls-11" d="M361.8,213.47l-.61,1.37-.57,1.25c-.39.83-.8,1.63-1.2,2.43-.81,1.61-1.69,3.17-2.57,4.74-1.81,3.11-3.73,6.17-5.89,9.13-1.08,1.48-2.18,2.96-3.36,4.41-1.2,1.44-2.43,2.86-3.75,4.26-2.62,2.8-5.59,5.47-9.09,7.88l-.69.47c-.35.24-.74.44-1.12.59-4.16,1.59-7.62,1.87-10.94,2.06-3.3.15-6.41-.07-9.45-.38-3.03-.36-5.99-.85-8.9-1.5-2.93-.67-5.71-1.4-8.65-2.43-2.74-.96-4.18-3.97-3.21-6.71.71-2.01,2.51-3.32,4.51-3.49l.22-.02,8.11-.69c2.7-.24,5.36-.5,7.94-.85,1.29-.17,2.56-.34,3.79-.55,1.23-.22,2.43-.47,3.57-.72,2.24-.51,4.36-1.27,5.37-1.92l-1.81,1.06c1.82-1.62,3.62-3.67,5.38-5.89.88-1.11,1.73-2.3,2.56-3.5.85-1.2,1.67-2.45,2.48-3.71,1.59-2.55,3.17-5.17,4.65-7.87.76-1.34,1.47-2.71,2.2-4.06l2.03-3.92.24-.47c2.65-5.11,8.93-7.1,14.04-4.46,4.91,2.54,6.93,8.47,4.73,13.46Z"/>
        <path class="cls-9" d="M364.98,195.79c4.81,17.28-7.4,34.46-7.4,34.46-6.48,1.85-23.52-4.79-27.14-11.15,0,0,5.94-16.34,13.01-25.02,6.54-8.04,18.71-8.41,21.53,1.72Z"/>
      </g>
      <path class="cls-11" d="M298.31,237.96l.95,6.1c-1.33,6.34-9.19,3.22-9.19,3.22l-4.39.02c-1.49,0-2.78-1.23-3.06-2.92l-.7-4.26c-.32-1.94.8-3.77,2.48-4.06l3.77-.65c1.1-.19,2.22-.1,3.28.25l6.85,2.29Z"/>
    </g>
  </g>
</svg>