<svg width="39" height="36" viewBox="0 0 39 36" fill="none" xmlns="http://www.w3.org/2000/svg">
<path d="M31.9898 26.8163C31.9898 24.1788 29.8518 22.0408 27.2143 22.0408C24.5767 22.0408 22.4388 24.1788 22.4388 26.8163C22.4388 28.1696 23.0037 29.3885 23.9081 30.2576V36L27.2143 33.7959L30.5204 36V30.2576C31.4248 29.3885 31.9898 28.1696 31.9898 26.8163Z" fill="#C3D8F2"/>
<path d="M37.1327 0H1.86734C1.05624 0 0.397949 0.657551 0.397949 1.46939V30.8572C0.397949 31.6683 1.05624 32.3265 1.86734 32.3265H20.9694V31.3443C20.0143 30.0372 19.5 28.4694 19.5 26.8163C19.5 22.5625 22.9604 19.102 27.2143 19.102C31.4682 19.102 34.9286 22.5625 34.9286 26.8163C34.9286 28.4701 34.4143 30.038 33.4592 31.345V32.3265H37.1327C37.9438 32.3265 38.6021 31.6683 38.6021 30.8572V1.46939C38.6021 0.657551 37.9438 0 37.1327 0ZM20.9694 13.2245H8.47959V10.2857H20.9694V13.2245ZM30.5204 7.34694H8.47959V4.40816H30.5204V7.34694Z" fill="#066FE8"/>
<path d="M31.9898 26.8163C31.9898 24.1788 29.8518 22.0408 27.2143 22.0408C24.5767 22.0408 22.4388 24.1788 22.4388 26.8163C22.4388 28.1696 23.0037 29.3885 23.9081 30.2576V36L27.2143 33.7959L30.5204 36V30.2576C31.4248 29.3885 31.9898 28.1696 31.9898 26.8163Z" fill="#C3D8F2"/>
<path d="M37.1327 0H1.86734C1.05624 0 0.397949 0.657551 0.397949 1.46939V30.8572C0.397949 31.6683 1.05624 32.3265 1.86734 32.3265H20.9694V31.3443C20.0143 30.0372 19.5 28.4694 19.5 26.8163C19.5 22.5625 22.9604 19.102 27.2143 19.102C31.4682 19.102 34.9286 22.5625 34.9286 26.8163C34.9286 28.4701 34.4143 30.038 33.4592 31.345V32.3265H37.1327C37.9438 32.3265 38.6021 31.6683 38.6021 30.8572V1.46939C38.6021 0.657551 37.9438 0 37.1327 0ZM20.9694 13.2245H8.47959V10.2857H20.9694V13.2245ZM30.5204 7.34694H8.47959V4.40816H30.5204V7.34694Z" fill="#066FE8"/>
</svg>
