<svg width="50" height="50" viewBox="0 0 50 50" fill="none" xmlns="http://www.w3.org/2000/svg">
<path opacity="0.4" d="M45.125 21.75L43.0833 30.4583C41.3333 37.9792 37.875 41.0208 31.375 40.3958C30.3333 40.3125 29.2083 40.125 28 39.8333L24.5 39C15.8125 36.9375 13.125 32.6458 15.1667 23.9375L17.2083 15.2083C17.625 13.4375 18.125 11.8958 18.75 10.625C21.1875 5.58333 25.3333 4.22916 32.2917 5.875L35.7708 6.6875C44.5 8.72916 47.1667 13.0417 45.125 21.75Z" fill="#699DDE"/>
<path d="M31.375 40.3958C30.0833 41.2708 28.4583 42 26.4792 42.6458L23.1875 43.7292C14.9167 46.3958 10.5625 44.1667 7.87499 35.8958L5.20833 27.6667C2.54166 19.3958 4.74999 15.0208 13.0208 12.3542L16.3125 11.2708C17.1667 11 17.9792 10.7708 18.75 10.625C18.125 11.8958 17.625 13.4375 17.2083 15.2083L15.1667 23.9375C13.125 32.6458 15.8125 36.9375 24.5 39L28 39.8333C29.2083 40.125 30.3333 40.3125 31.375 40.3958Z" fill="#000000"/>
<path d="M36.4375 21.8959C36.3125 21.8959 36.1875 21.875 36.0417 21.8542L25.9375 19.2917C25.1042 19.0834 24.6042 18.2292 24.8125 17.3959C25.0208 16.5625 25.875 16.0625 26.7083 16.2709L36.8125 18.8334C37.6458 19.0417 38.1458 19.8959 37.9375 20.7292C37.7708 21.4167 37.125 21.8959 36.4375 21.8959Z" fill="white"/>
<path d="M30.3333 28.9375C30.2083 28.9375 30.0833 28.9167 29.9375 28.8959L23.875 27.3542C23.0417 27.1459 22.5417 26.2917 22.75 25.4584C22.9583 24.625 23.8125 24.125 24.6458 24.3334L30.7083 25.875C31.5417 26.0834 32.0417 26.9375 31.8333 27.7709C31.6667 28.4792 31.0417 28.9375 30.3333 28.9375Z" fill="white"/>
</svg>
