<svg width="50" height="50" viewBox="0 0 50 50" fill="none" xmlns="http://www.w3.org/2000/svg">
<g clip-path="url(#clip0_37424_16)">
<path d="M25 50C38.8071 50 50 38.8071 50 25C50 11.1929 38.8071 0 25 0C11.1929 0 0 11.1929 0 25C0 38.8071 11.1929 50 25 50Z" fill="#9C55FF"/>
<path fill-rule="evenodd" clip-rule="evenodd" d="M44.3986 25.2211C44.3986 22.4618 43.0621 20.2845 40.5076 20.2845C37.9424 20.2845 36.3903 22.4618 36.3903 25.1995C36.3903 28.4437 38.2227 30.0821 40.8525 30.0821C42.1352 30.0821 43.1052 29.7911 43.8382 29.3815V27.2259C43.1053 27.5924 42.2645 27.8186 41.1975 27.8186C40.152 27.8186 39.225 27.4521 39.1064 26.1803H44.377C44.377 26.0403 44.3986 25.4798 44.3986 25.2211ZM39.0741 24.1971C39.0741 22.9792 39.8179 22.4726 40.4969 22.4726C41.1544 22.4726 41.855 22.9792 41.855 24.1971H39.0741Z" fill="white"/>
<path fill-rule="evenodd" clip-rule="evenodd" d="M32.2299 20.2847C31.1736 20.2847 30.4945 20.7805 30.1173 21.1254L29.9771 20.4571H27.606V33.0247L30.3006 32.4534L30.3113 29.4031C30.6993 29.6834 31.2706 30.0821 32.219 30.0821C34.1483 30.0821 35.9053 28.5301 35.9053 25.1133C35.8945 21.9876 34.1161 20.2847 32.2299 20.2847ZM31.5832 27.7109C30.9473 27.7109 30.57 27.4846 30.3113 27.2044L30.3006 23.2057C30.5809 22.8931 30.9688 22.6775 31.5832 22.6775C32.5641 22.6775 33.2431 23.777 33.2431 25.1889C33.2431 26.6331 32.5748 27.7109 31.5832 27.7109Z" fill="white"/>
<path fill-rule="evenodd" clip-rule="evenodd" d="M23.8982 19.6487L26.6036 19.0667V16.8787L23.8982 17.45V19.6487Z" fill="white"/>
<path fill-rule="evenodd" clip-rule="evenodd" d="M23.8982 20.4678H26.6036V29.8989H23.8982V20.4678Z" fill="white"/>
<path fill-rule="evenodd" clip-rule="evenodd" d="M20.9988 21.2655L20.8264 20.468H18.4982V29.899H21.1929V23.5075C21.8288 22.6776 22.9066 22.8285 23.2407 22.9471V20.4681C22.8958 20.3386 21.6348 20.1015 20.9988 21.2655Z" fill="white"/>
<path fill-rule="evenodd" clip-rule="evenodd" d="M15.6097 18.129L12.9798 18.6894L12.969 27.3228C12.969 28.918 14.1654 30.0928 15.7606 30.0928C16.6444 30.0928 17.2911 29.9311 17.6469 29.7372V27.5492C17.302 27.6893 15.599 28.1851 15.599 26.5899V22.7636H17.6469V20.4678H15.599L15.6097 18.129Z" fill="white"/>
<path fill-rule="evenodd" clip-rule="evenodd" d="M8.32353 23.2056C8.32353 22.7853 8.66846 22.6235 9.23965 22.6235C10.0588 22.6235 11.0936 22.8714 11.9127 23.3134V20.7805C11.0181 20.4248 10.1343 20.2847 9.23965 20.2847C7.05166 20.2847 5.59658 21.4271 5.59658 23.335C5.59658 26.3098 9.69238 25.8355 9.69238 27.1182C9.69238 27.614 9.26123 27.7757 8.65762 27.7757C7.76299 27.7757 6.62051 27.4092 5.71514 26.9134V29.4786C6.71748 29.9098 7.73066 30.093 8.65762 30.093C10.8995 30.093 12.4408 28.9828 12.4408 27.0535C12.4301 23.8415 8.32353 24.4128 8.32353 23.2056Z" fill="white"/>
</g>
<defs>
<clipPath id="clip0_37424_16">
<rect width="50" height="50" fill="white"/>
</clipPath>
</defs>
</svg>
