<?xml version="1.0" encoding="UTF-8"?>
<svg id="Layer_1" xmlns="http://www.w3.org/2000/svg" viewBox="0 0 62 62">
  <defs>
    <style>
      .cls-1 {
        fill: #cad1d8;
      }

      .cls-2 {
        fill: #e2e5e7;
      }

      .cls-3 {
        fill: #5043ef;
        stroke-width: .2px;
      }

      .cls-3, .cls-4 {
        stroke: #5043ef;
        stroke-miterlimit: 10;
      }

      .cls-5 {
        fill: #b0b7bd;
      }

      .cls-4 {
        fill: #fff;
        stroke-width: .1px;
      }
    </style>
  </defs>
  <path class="cls-2" d="M15.5,0c-2.13,0-3.88,1.74-3.88,3.88v54.25c0,2.13,1.74,3.88,3.88,3.88h38.75c2.13,0,3.88-1.74,3.88-3.88V15.5L42.62,0H15.5Z"/>
  <path class="cls-5" d="M46.5,15.5h11.62L42.62,0v11.62c0,2.13,1.74,3.88,3.88,3.88Z"/>
  <path class="cls-1" d="M58.12,27.12l-11.62-11.62h11.62v11.62Z"/>
  <path class="cls-3" d="M50.38,50.38c0,1.07-.87,1.94-1.94,1.94H5.81c-1.07,0-1.94-.87-1.94-1.94v-19.38c0-1.07.87-1.94,1.94-1.94h42.62c1.07,0,1.94.87,1.94,1.94v19.38Z"/>
  <path class="cls-1" d="M48.44,52.31H11.62v1.94h36.81c1.07,0,1.94-.87,1.94-1.94v-1.94c0,1.07-.87,1.94-1.94,1.94Z"/>
  <g>
    <path class="cls-4" d="M12.88,44.99v-8.46c0-.44.1-.77.3-.99s.46-.33.78-.33.59.11.79.33c.2.22.3.55.3.99v8.46c0,.44-.1.78-.3,1s-.47.33-.79.33-.57-.11-.77-.33c-.2-.22-.3-.55-.3-.99Z"/>
    <path class="cls-4" d="M22.17,44.51l-1.72-6.84v7.41c0,.41-.09.72-.27.92-.18.21-.43.31-.73.31s-.53-.1-.72-.3c-.19-.2-.28-.51-.28-.93v-8.5c0-.47.12-.79.37-.95.24-.16.57-.25.99-.25h.67c.41,0,.7.04.88.11.18.07.32.21.41.4s.19.5.3.93l1.56,5.88,1.56-5.88c.11-.43.21-.74.3-.93s.22-.32.41-.4c.18-.07.48-.11.88-.11h.67c.42,0,.74.08.99.25.24.16.37.48.37.95v8.5c0,.41-.09.72-.27.92-.18.21-.43.31-.74.31-.29,0-.52-.1-.71-.31s-.28-.51-.28-.92v-7.41l-1.72,6.84c-.11.44-.2.77-.27.98-.07.21-.2.4-.39.57s-.45.26-.79.26c-.25,0-.47-.06-.64-.17-.18-.11-.31-.25-.41-.42s-.17-.36-.23-.57c-.06-.21-.11-.42-.17-.65Z"/>
    <path class="cls-4" d="M41.89,41.76v2.06c0,.27-.03.49-.08.66-.05.16-.15.31-.3.44-.14.13-.33.26-.55.38-.65.35-1.27.61-1.88.77s-1.25.24-1.96.24c-.83,0-1.58-.13-2.26-.38s-1.26-.62-1.74-1.11-.85-1.07-1.1-1.76c-.26-.69-.38-1.46-.38-2.31s.12-1.6.37-2.29c.25-.69.62-1.28,1.1-1.76s1.07-.85,1.77-1.11c.69-.26,1.48-.38,2.36-.38.72,0,1.36.1,1.92.29.56.19,1.01.44,1.35.73s.61.6.78.93.26.62.26.87c0,.27-.1.51-.3.7-.2.19-.45.29-.73.29-.16,0-.31-.04-.45-.11-.14-.07-.26-.18-.36-.31-.27-.42-.5-.74-.68-.95s-.44-.4-.75-.54c-.32-.15-.72-.22-1.21-.22s-.95.09-1.35.26c-.4.17-.73.42-1.01.75-.28.33-.5.73-.64,1.21-.15.48-.22,1.01-.22,1.59,0,1.26.29,2.23.87,2.91.58.68,1.39,1.02,2.42,1.02.5,0,.97-.07,1.42-.2.44-.13.89-.32,1.34-.56v-1.74h-1.68c-.41,0-.71-.06-.92-.18-.21-.12-.31-.33-.31-.62,0-.24.09-.44.26-.59.17-.16.41-.23.71-.23h2.47c.3,0,.56.03.77.08s.38.17.51.36c.13.19.19.46.19.83Z"/>
  </g>
</svg>