<svg width="200" height="240" viewBox="0 0 200 240" fill="none" xmlns="http://www.w3.org/2000/svg">
<g opacity="0.3">
<path opacity="0.3" d="M139.67 49.25C134.203 49.2447 128.961 47.0704 125.095 43.2046C121.229 39.3387 119.055 34.097 119.05 28.6299V0H26.9099C19.7729 0 12.9284 2.83523 7.88184 7.88184C2.83523 12.9284 0 19.7729 0 26.9099V189.13C0 196.267 2.83523 203.112 7.88184 208.158C12.9284 213.205 19.7729 216.04 26.9099 216.04H137.51C141.045 216.041 144.545 215.346 147.811 213.994C151.077 212.643 154.045 210.661 156.545 208.162C159.045 205.663 161.028 202.696 162.381 199.43C163.734 196.165 164.43 192.665 164.43 189.13V49.25H139.67Z" fill="#FF3E4C"/>
</g>
<path d="M164.43 49.25H139.67C134.203 49.2447 128.961 47.0704 125.095 43.2046C121.229 39.3387 119.055 34.097 119.05 28.6299V0L164.43 49.25Z" fill="#FF3E4C"/>
<path d="M183.94 170.61H58.8999C50.0302 170.61 42.8401 177.8 42.8401 186.67V223.95C42.8401 232.82 50.0302 240.01 58.8999 240.01H183.94C192.81 240.01 200 232.82 200 223.95V186.67C200 177.8 192.81 170.61 183.94 170.61Z" fill="#FF3E4C"/>
<path d="M69.53 213.38V220.65H62V213.38H69.53Z" fill="white"/>
<path d="M80.5901 210.1V220.65H73.3201V190.58H85.1001C88.6734 190.58 91.3933 191.467 93.26 193.24C94.2075 194.169 94.9478 195.289 95.4321 196.524C95.9164 197.76 96.1338 199.084 96.0701 200.41C96.1017 202.158 95.6704 203.883 94.8201 205.41C93.9458 206.904 92.6476 208.105 91.0901 208.86C89.2183 209.749 87.1611 210.178 85.0901 210.11L80.5901 210.1ZM88.6699 200.41C88.6699 197.743 87.21 196.41 84.29 196.41H80.5901V204.24H84.29C87.21 204.267 88.6699 202.99 88.6699 200.41Z" fill="white"/>
<path d="M106.92 210.1V220.65H99.6399V190.58H111.42C115 190.58 117.723 191.467 119.59 193.24C120.538 194.169 121.278 195.289 121.762 196.524C122.246 197.76 122.464 199.084 122.4 200.41C122.433 202.159 121.998 203.885 121.14 205.41C120.272 206.906 118.977 208.107 117.42 208.86C115.548 209.749 113.491 210.178 111.42 210.11L106.92 210.1ZM115 200.41C115 197.743 113.54 196.41 110.62 196.41H106.92V204.24H110.62C113.54 204.267 115 202.99 115 200.41Z" fill="white"/>
<path d="M146.57 190.58V196.37H138.4V220.65H131.09V196.37H123V190.58H146.57Z" fill="white"/>
<path d="M74.6899 83.73H31C30.0072 83.73 29.0548 83.3364 28.3518 82.6353C27.6488 81.9342 27.2526 80.9828 27.25 79.99C27.25 78.9954 27.6451 78.0416 28.3484 77.3384C29.0517 76.6351 30.0054 76.24 31 76.24H74.6499C75.6445 76.24 76.5985 76.6351 77.3018 77.3384C78.005 78.0416 78.3999 78.9954 78.3999 79.99C78.3973 80.9759 78.0066 81.9211 77.3123 82.6211C76.6179 83.3211 75.6758 83.7195 74.6899 83.73V83.73Z" fill="#FF3E4C"/>
<path d="M74.6899 106.1H31C30.0072 106.1 29.0548 105.706 28.3518 105.005C27.6488 104.304 27.2526 103.353 27.25 102.36C27.25 101.366 27.6451 100.412 28.3484 99.7083C29.0517 99.005 30.0054 98.6101 31 98.6101H74.6499C75.6445 98.6101 76.5985 99.005 77.3018 99.7083C78.005 100.412 78.3999 101.366 78.3999 102.36C78.3973 103.346 78.0066 104.291 77.3123 104.991C76.6179 105.691 75.6758 106.09 74.6899 106.1V106.1Z" fill="#FF3E4C"/>
<path d="M74.6899 128.47H31C30.0054 128.47 29.0517 128.075 28.3484 127.372C27.6451 126.668 27.25 125.715 27.25 124.72C27.2579 123.731 27.6565 122.784 28.3589 122.088C29.0613 121.391 30.0106 121 31 121H74.6499C75.6427 121 76.5951 121.394 77.2981 122.095C78.0011 122.796 78.3973 123.747 78.3999 124.74C78.3947 125.724 78.0029 126.667 77.3088 127.365C76.6148 128.063 75.6741 128.459 74.6899 128.47V128.47Z" fill="#FF3E4C"/>
<path d="M74.6899 150.84H31C30.0054 150.84 29.0517 150.445 28.3484 149.742C27.6451 149.038 27.25 148.085 27.25 147.09C27.2526 146.097 27.6488 145.146 28.3518 144.445C29.0548 143.744 30.0072 143.35 31 143.35H74.6499C75.6427 143.35 76.5951 143.744 77.2981 144.445C78.0011 145.146 78.3973 146.097 78.3999 147.09C78.4 148.078 78.0106 149.025 77.3159 149.728C76.6213 150.43 75.6776 150.83 74.6899 150.84V150.84Z" fill="#FF3E4C"/>
<path d="M117.25 118V84.76C109.152 85.1876 101.527 88.7053 95.9451 94.5881C90.3636 100.471 87.2515 108.271 87.25 116.38C87.2487 120.538 88.0666 124.656 89.6572 128.497C91.2478 132.339 93.5799 135.83 96.52 138.77C99.4602 141.71 102.951 144.042 106.793 145.633C110.634 147.223 114.752 148.041 118.91 148.04C127.019 148.041 134.819 144.929 140.701 139.347C146.582 133.765 150.097 126.138 150.52 118.04L117.25 118Z" fill="#FF3E4C"/>
<path d="M123.31 82.23V112.23H153.31C152.909 104.403 149.62 97.0033 144.078 91.4617C138.537 85.9201 131.137 82.6306 123.31 82.23V82.23Z" fill="#FF3E4C"/>
<path d="M170.41 220.65L164.08 211.29L158.63 220.65H150.3L159.91 205.17L150 190.58H158.63L164.8 199.64L170.12 190.58H178.41L168.93 205.72L179.05 220.65H170.41Z" fill="white"/>
</svg>
