<svg width="201" height="240" viewBox="0 0 201 240" fill="none" xmlns="http://www.w3.org/2000/svg">
<g opacity="0.3">
<path opacity="0.3" d="M140.1 49.25C134.633 49.2447 129.391 47.0704 125.525 43.2046C121.66 39.3387 119.485 34.097 119.48 28.6299V0H27.3401C20.2031 0 13.3584 2.83523 8.31177 7.88184C3.26516 12.9284 0.429932 19.7729 0.429932 26.9099V189.13C0.429932 196.267 3.26516 203.112 8.31177 208.158C13.3584 213.205 20.2031 216.04 27.3401 216.04H137.94C145.077 216.04 151.922 213.205 156.968 208.158C162.015 203.112 164.85 196.267 164.85 189.13V49.25H140.1Z" fill="#00C650"/>
</g>
<path d="M164.85 49.25H140.1C134.633 49.2447 129.391 47.0704 125.525 43.2046C121.66 39.3387 119.485 34.097 119.48 28.6299V0L164.85 49.25Z" fill="#00C650"/>
<path d="M184.37 170.61H59.3301C50.4604 170.61 43.27 177.8 43.27 186.67V223.95C43.27 232.82 50.4604 240.01 59.3301 240.01H184.37C193.24 240.01 200.43 232.82 200.43 223.95V186.67C200.43 177.8 193.24 170.61 184.37 170.61Z" fill="#00C650"/>
<path d="M73.8601 213.38V220.65H66.3301V213.38H73.8601Z" fill="white"/>
<path d="M95.8899 220.65L89.5601 211.29L84.1101 220.65H75.78L85.3899 205.17L75.48 190.58H84.1101L90.28 199.64L95.6001 190.58H103.89L94.4099 205.72L104.53 220.65H95.8899Z" fill="white"/>
<path d="M170.41 220.65L164.08 211.29L158.63 220.65H150.3L159.91 205.17L150 190.58H158.63L164.8 199.64L170.12 190.58H178.41L168.93 205.72L179.05 220.65H170.41Z" fill="white"/>
<path d="M148.299 216.57C147.436 217.951 146.197 219.057 144.729 219.76C142.941 220.597 140.982 221.005 139.009 220.95C136.032 221.075 133.098 220.206 130.669 218.48C129.594 217.673 128.715 216.635 128.097 215.443C127.479 214.25 127.138 212.933 127.099 211.59H134.839C134.894 212.603 135.325 213.559 136.049 214.27C136.769 214.941 137.725 215.301 138.709 215.27C139.109 215.293 139.511 215.238 139.89 215.105C140.27 214.973 140.619 214.767 140.919 214.5C141.185 214.241 141.395 213.93 141.535 213.585C141.674 213.241 141.74 212.871 141.729 212.5C141.738 212.147 141.677 211.797 141.548 211.468C141.42 211.14 141.226 210.842 140.979 210.59C140.449 210.054 139.821 209.626 139.129 209.33C138.402 209.01 137.382 208.62 136.069 208.16C134.475 207.634 132.918 207.003 131.409 206.27C130.168 205.631 129.104 204.697 128.309 203.55C127.386 202.162 126.931 200.515 127.009 198.85C126.972 197.2 127.448 195.579 128.369 194.21C129.315 192.872 130.622 191.831 132.139 191.21C133.886 190.499 135.763 190.159 137.649 190.21C140.512 190.052 143.341 190.897 145.649 192.6C146.631 193.399 147.435 194.394 148.011 195.522C148.586 196.65 148.919 197.886 148.989 199.15H141.119C141.031 198.265 140.651 197.435 140.039 196.79C139.726 196.49 139.355 196.258 138.949 196.106C138.544 195.955 138.111 195.888 137.679 195.91C136.929 195.876 136.192 196.118 135.609 196.59C135.339 196.845 135.13 197.157 134.995 197.503C134.86 197.848 134.803 198.22 134.829 198.59C134.813 199.262 135.065 199.913 135.529 200.4C136.026 200.919 136.625 201.332 137.289 201.61C137.999 201.92 139.019 202.32 140.349 202.8C141.971 203.329 143.552 203.977 145.079 204.74C146.325 205.412 147.4 206.364 148.219 207.52C149.152 208.93 149.614 210.6 149.539 212.29C149.525 213.803 149.096 215.284 148.299 216.57Z" fill="white"/>
<path d="M116.26 215.08H126V220.65H109V190.58H116.28L116.26 215.08Z" fill="white"/>
<path d="M119.32 150.84H46C39.65 150.84 34.48 144.52 34.48 136.74V83.55C34.48 75.78 39.65 69.46 46 69.46H119.35C125.69 69.46 130.86 75.78 130.86 83.55V136.74C130.83 144.52 125.66 150.84 119.32 150.84ZM46 76.6599C42.89 76.6599 40.3701 79.75 40.3701 83.55V136.74C40.3701 140.54 42.89 143.63 46 143.63H119.35C122.45 143.63 124.97 140.54 124.97 136.74V83.55C124.97 79.75 122.45 76.6599 119.35 76.6599H46Z" fill="#00C650"/>
<path d="M127.89 118.81H37.3999V126.02H127.89V118.81Z" fill="#00C650"/>
<path d="M127.89 94.09H37.3999V101.3H127.89V94.09Z" fill="#00C650"/>
<path d="M104.71 73.06H97.5V147.23H104.71V73.06Z" fill="#00C650"/>
<path d="M67.78 73.06H60.5701V147.23H67.78V73.06Z" fill="#00C650"/>
</svg>
