<?xml version="1.0" encoding="UTF-8"?>
<svg xmlns="http://www.w3.org/2000/svg" xmlns:xlink="http://www.w3.org/1999/xlink" version="1.1" viewBox="0 0 38 38">
  <defs>
    <style>
      .cls-1 {
        fill: url(#linear-gradient-8);
      }

      .cls-2 {
        fill: url(#linear-gradient-7);
      }

      .cls-3 {
        fill: url(#linear-gradient-5);
      }

      .cls-4 {
        fill: url(#linear-gradient-6);
      }

      .cls-5 {
        fill: url(#linear-gradient-9);
      }

      .cls-6 {
        fill: url(#linear-gradient-4);
      }

      .cls-7 {
        fill: url(#linear-gradient-3);
      }

      .cls-8 {
        fill: url(#linear-gradient-2);
      }

      .cls-9 {
        fill: url(#linear-gradient);
      }

      .cls-10 {
        fill: url(#linear-gradient-10);
      }

      .cls-11 {
        fill: url(#linear-gradient-11);
      }

      .cls-12 {
        fill: url(#linear-gradient-12);
      }

      .cls-13 {
        fill: url(#linear-gradient-13);
      }

      .cls-14 {
        fill: url(#linear-gradient-19);
      }

      .cls-15 {
        fill: url(#linear-gradient-14);
      }

      .cls-16 {
        fill: url(#linear-gradient-21);
      }

      .cls-17 {
        fill: url(#linear-gradient-20);
      }

      .cls-18 {
        fill: url(#linear-gradient-22);
      }

      .cls-19 {
        fill: url(#linear-gradient-15);
      }

      .cls-20 {
        fill: url(#linear-gradient-16);
      }

      .cls-21 {
        fill: url(#linear-gradient-17);
      }

      .cls-22 {
        fill: url(#linear-gradient-18);
      }
    </style>
    <linearGradient id="linear-gradient" x1="-708.1" y1="691.5" x2="-367.9" y2="766.8" gradientTransform="translate(564 -724)" gradientUnits="userSpaceOnUse">
      <stop offset="0" stop-color="#0884d5"/>
      <stop offset="1" stop-color="#009f83"/>
    </linearGradient>
    <linearGradient id="linear-gradient-2" x1="-619.4" y1="713" x2="-309.4" y2="786.8" xlink:href="#linear-gradient"/>
    <linearGradient id="linear-gradient-3" x1="-592.4" y1="729.8" x2="-312.2" y2="786.1" xlink:href="#linear-gradient"/>
    <linearGradient id="linear-gradient-4" x1="-664.8" y1="712.9" x2="-226" y2="805.2" xlink:href="#linear-gradient"/>
    <linearGradient id="linear-gradient-5" x1="-874.7" y1="663.8" x2="-244.3" y2="797.5" xlink:href="#linear-gradient"/>
    <linearGradient id="linear-gradient-6" x1="-814.6" y1="676.2" x2="-390.2" y2="766.1" xlink:href="#linear-gradient"/>
    <linearGradient id="linear-gradient-7" x1="-806.3" y1="670.6" x2="-92.9" y2="855.6" xlink:href="#linear-gradient"/>
    <linearGradient id="linear-gradient-8" x1="-868.3" y1="668.6" x2="-125.9" y2="825.5" xlink:href="#linear-gradient"/>
    <linearGradient id="linear-gradient-9" x1="-761" y1="701.6" x2="-86.6" y2="828.8" xlink:href="#linear-gradient"/>
    <linearGradient id="linear-gradient-10" x1="-951" y1="659.3" x2="-160.9" y2="816.2" xlink:href="#linear-gradient"/>
    <linearGradient id="linear-gradient-11" x1="-653.6" y1="720.7" x2="-206.1" y2="822.4" xlink:href="#linear-gradient"/>
    <linearGradient id="linear-gradient-12" x1="-908.3" y1="669.7" x2="-308.3" y2="787.9" xlink:href="#linear-gradient"/>
    <linearGradient id="linear-gradient-13" x1="-749.3" y1="707.1" x2="-138.1" y2="823.9" xlink:href="#linear-gradient"/>
    <linearGradient id="linear-gradient-14" x1="-986.9" y1="651.2" x2="-159.3" y2="826.2" xlink:href="#linear-gradient"/>
    <linearGradient id="linear-gradient-15" x1="-608.9" y1="741.4" x2="-334" y2="791.3" xlink:href="#linear-gradient"/>
    <linearGradient id="linear-gradient-16" x1="-831" y1="687.6" x2="-151.5" y2="834.5" xlink:href="#linear-gradient"/>
    <linearGradient id="linear-gradient-17" x1="-689.3" y1="721.4" x2="-260.4" y2="813.3" xlink:href="#linear-gradient"/>
    <linearGradient id="linear-gradient-18" x1="-836" y1="685.2" x2="-417.1" y2="774.2" xlink:href="#linear-gradient"/>
    <linearGradient id="linear-gradient-19" x1="-900.8" y1="665.1" x2="-166.8" y2="838.1" xlink:href="#linear-gradient"/>
    <linearGradient id="linear-gradient-20" x1="-908.3" y1="674.3" x2="-292.1" y2="802.5" xlink:href="#linear-gradient"/>
    <linearGradient id="linear-gradient-21" x1="-657.1" y1="731.7" x2="-355.1" y2="801.8" xlink:href="#linear-gradient"/>
    <linearGradient id="linear-gradient-22" x1="-768.8" y1="708.5" x2="-399.4" y2="788.6" xlink:href="#linear-gradient"/>
  </defs>
  <!-- Generator: Adobe Illustrator 28.6.0, SVG Export Plug-In . SVG Version: 1.2.0 Build 709)  -->
  <g>
    <g id="Layer_1">
      <g id="Layer_1-2" data-name="Layer_1">
        <path class="cls-9" d="M27.2,6.5c2.6-1.8,2.5-2.6-.5-4-2.3-1.1-3-1.2-3.6-.5-.4.4-.4.8-.3,2.7.2,2.7.2,2.8,1.1,3.2.8.3,1,.2,3.3-1.4h0Z"/>
        <path class="cls-8" d="M13.9,9.3c.2-.2.4-7.6.2-7.6s-1.6.8-3.5,1.7c-1.8.9-3.3,1.8-3.3,1.9,0,.3,6.4,4.1,6.5,3.9h0Z"/>
        <path class="cls-7" d="M8.4,14.9c.1,0-.8-1.6-2.1-3.4l-2.2-3.2-1.7,3.6c-1,2-1.7,3.6-1.6,3.6.1.1,7.5-.4,7.7-.6h0Z"/>
        <path class="cls-6" d="M11.9,12.9c1-1,1.6-1.9,1.5-2-.2-.2-4.2-1.2-4.6-1.2s-.2,0-.2.2c0,.3,1.3,4.4,1.4,4.6.1,0,.9-.6,1.9-1.6h0Z"/>
        <path class="cls-3" d="M25.6,10.2c-.6.6-.6,1.8,0,2.4,1,1.1,3,.3,3-1.2s-2-2.3-3-1.2Z"/>
        <path class="cls-4" d="M33.8,14.9c.8,0,1.2-.1,1.8-.7.6-.6.7-.9.7-1.8s-.1-1.2-.7-1.8c-1.1-1-2.4-1-3.5.1-1.7,1.7-.6,4.1,1.8,4.2h0Z"/>
        <path class="cls-2" d="M18,13.5c-.1,0-.8-.5-1.5-1l-1.4-.9v3.6l1.6-.8c.9-.4,1.5-.8,1.4-.9h0Z"/>
        <path class="cls-1" d="M22.3,13.6c0-1.7-.3-2-1.8-1-.6.4-1.1.8-1.1,1,0,.4,1.7,1.3,2.4,1.3s.5-.1.5-1.3h0Z"/>
        <path class="cls-5" d="M11.1,16c-.1.2,1.5,2.7,1.8,2.7s1.4-2.5,1.4-2.7-3-.1-3.2,0h0Z"/>
        <path class="cls-10" d="M25.9,17.7c.3-.4.5-1,.4-1.2-.3-.7-2-.8-2.5-.3-.3.3-.2.5.1,1.2.7,1.2,1.3,1.2,2,.2h0Z"/>
        <path class="cls-11" d="M5,19.3c-.1,0,4.4,2.5,4.6,2.5s.2-4.9,0-5c-.1,0-1.2.5-2.3,1.2-1.2.7-2.2,1.3-2.2,1.4Z"/>
        <path class="cls-12" d="M30.1,17.7c-.6,0-.9.2-1.3.6-.6.7-.6,1.1-.2,1.8.4.7.7.9,1.6.9s1.8-.9,1.8-1.7-.9-1.7-1.8-1.7h0Z"/>
        <path class="cls-13" d="M13.7,20.8l-.8-1.5-1,1.5-1,1.5h1c.5.1,1.3.1,1.8,0h.8c0,0-.8-1.6-.8-1.6h0Z"/>
        <path class="cls-15" d="M24.6,23.1c1.8.2,2.3-.5,1.3-1.9-.7-.9-1.3-.9-1.8,0-.6,1-.4,1.7.5,1.8h0Z"/>
        <path class="cls-19" d="M.9,23.3c0,0,.8,1.7,1.9,3.5,1.3,2.4,1.9,3.3,2.1,3.1.1-.2.2-.4.2-.5,0,0,0-.2.2-.3.3-.2,3.7-5.5,3.6-5.6-.2-.1-7.9-.4-7.9-.2Z"/>
        <path class="cls-20" d="M15.7,23.2s0,.7,0,1.5c0,.8.2,1.6.3,1.7.1,0,.8-.2,1.5-.7l1.3-.9-1.5-.7c-.8-.4-1.6-.8-1.6-.8h0Z"/>
        <path class="cls-21" d="M14,27.4s-.8-.9-1.8-1.9c-1.3-1.3-1.9-1.7-2-1.5-.4,1-1.3,4.9-1.1,4.9.2,0,4.9-1.4,5-1.5h0Z"/>
        <path class="cls-22" d="M35.5,24.1c-1-.6-1.8-.6-2.7,0-1.9,1.1-1.5,3.9.6,4.5,2.8.8,4.6-3,2.1-4.5h0Z"/>
        <path class="cls-14" d="M22.2,24.1c-.2,0-.8.3-1.4.6-.7.3-1.2.7-1.2.9,0,.4,2.4,1.8,2.7,1.7.3-.2.3-3.2,0-3.2h0Z"/>
        <path class="cls-17" d="M28.9,27.9c.3-1.1-1.3-2.3-2.5-1.9-1.1.4-1.3,1.7-.5,2.7.9,1.1,2.6.6,3-.8Z"/>
        <path class="cls-16" d="M11.6,31c-1.7,1.2-3.1,2.2-3.2,2.3,0,.2,6.9,3.5,7,3.3.1-.1-.5-7.5-.6-7.6s-1.5.8-3.2,2h0Z"/>
        <path class="cls-18" d="M27.3,32.1c-1.6-.9-2.2-.9-3.1,0-.7.6-.7.8-.7,2.4s0,1.7.6,2.2c.3.3.9.6,1.2.6.8,0,3.4-1.3,3.7-1.9.7-1.2.1-2.3-1.8-3.3h0Z"/>
      </g>
    </g>
  </g>
</svg>