<?xml version="1.0" encoding="UTF-8"?>
<svg xmlns="http://www.w3.org/2000/svg" xmlns:xlink="http://www.w3.org/1999/xlink" version="1.1" viewBox="0 0 56 40">
  <defs>
    <style>
      .cls-1 {
        fill: url(#linear-gradient-8);
      }

      .cls-2 {
        fill: url(#linear-gradient-7);
      }

      .cls-3 {
        fill: url(#linear-gradient-5);
      }

      .cls-4 {
        fill: url(#linear-gradient-6);
      }

      .cls-5 {
        fill: url(#linear-gradient-9);
      }

      .cls-6 {
        fill: url(#linear-gradient-4);
      }

      .cls-7 {
        fill: url(#linear-gradient-3);
      }

      .cls-8 {
        fill: url(#linear-gradient-2);
      }

      .cls-9 {
        fill: url(#linear-gradient);
      }

      .cls-10 {
        fill: url(#linear-gradient-10);
      }

      .cls-11 {
        fill: url(#linear-gradient-11);
      }

      .cls-12 {
        fill: url(#linear-gradient-12);
      }

      .cls-13 {
        fill: url(#linear-gradient-13);
      }

      .cls-14 {
        fill: url(#linear-gradient-19);
      }

      .cls-15 {
        fill: url(#linear-gradient-14);
      }

      .cls-16 {
        fill: url(#linear-gradient-21);
      }

      .cls-17 {
        fill: url(#linear-gradient-20);
      }

      .cls-18 {
        fill: url(#linear-gradient-22);
      }

      .cls-19 {
        fill: url(#linear-gradient-15);
      }

      .cls-20 {
        fill: url(#linear-gradient-16);
      }

      .cls-21 {
        fill: url(#linear-gradient-17);
      }

      .cls-22 {
        fill: url(#linear-gradient-18);
      }
    </style>
    <linearGradient id="linear-gradient" x1="-714.13" y1="312.32" x2="-343.68" y2="230.33" gradientTransform="translate(564 276) scale(1 -1)" gradientUnits="userSpaceOnUse">
      <stop offset="0" stop-color="#0884d5"/>
      <stop offset="1" stop-color="#009f83"/>
    </linearGradient>
    <linearGradient id="linear-gradient-2" x1="-617.62" y1="288.92" x2="-279.98" y2="208.49" xlink:href="#linear-gradient"/>
    <linearGradient id="linear-gradient-3" x1="-588.18" y1="270.63" x2="-283.02" y2="209.24" xlink:href="#linear-gradient"/>
    <linearGradient id="linear-gradient-4" x1="-667.06" y1="288.96" x2="-189.1" y2="188.49" xlink:href="#linear-gradient"/>
    <linearGradient id="linear-gradient-5" x1="-895.67" y1="342.43" x2="-209.02" y2="196.86" xlink:href="#linear-gradient"/>
    <linearGradient id="linear-gradient-6" x1="-830.16" y1="329" x2="-367.99" y2="231.05" xlink:href="#linear-gradient"/>
    <linearGradient id="linear-gradient-7" x1="-821.15" y1="335.02" x2="-44.19" y2="133.55" xlink:href="#linear-gradient"/>
    <linearGradient id="linear-gradient-8" x1="-888.67" y1="337.29" x2="-80.13" y2="166.33" xlink:href="#linear-gradient"/>
    <linearGradient id="linear-gradient-9" x1="-771.77" y1="301.31" x2="-37.28" y2="162.72" xlink:href="#linear-gradient"/>
    <linearGradient id="linear-gradient-10" x1="-978.73" y1="347.33" x2="-118.2" y2="176.45" xlink:href="#linear-gradient"/>
    <linearGradient id="linear-gradient-11" x1="-654.78" y1="280.51" x2="-167.46" y2="169.69" xlink:href="#linear-gradient"/>
    <linearGradient id="linear-gradient-12" x1="-932.17" y1="336.09" x2="-278.77" y2="207.34" xlink:href="#linear-gradient"/>
    <linearGradient id="linear-gradient-13" x1="-759.09" y1="295.28" x2="-93.32" y2="168.09" xlink:href="#linear-gradient"/>
    <linearGradient id="linear-gradient-14" x1="-1017.86" y1="356.16" x2="-116.46" y2="165.6" xlink:href="#linear-gradient"/>
    <linearGradient id="linear-gradient-15" x1="-606.09" y1="258" x2="-306.74" y2="203.63" xlink:href="#linear-gradient"/>
    <linearGradient id="linear-gradient-16" x1="-848.08" y1="316.59" x2="-107.99" y2="156.5" xlink:href="#linear-gradient"/>
    <linearGradient id="linear-gradient-17" x1="-693.69" y1="279.7" x2="-226.61" y2="179.61" xlink:href="#linear-gradient"/>
    <linearGradient id="linear-gradient-18" x1="-853.47" y1="319.11" x2="-397.2" y2="222.27" xlink:href="#linear-gradient"/>
    <linearGradient id="linear-gradient-19" x1="-924.09" y1="341.08" x2="-124.63" y2="152.64" xlink:href="#linear-gradient"/>
    <linearGradient id="linear-gradient-20" x1="-932.22" y1="331.02" x2="-261.14" y2="191.36" xlink:href="#linear-gradient"/>
    <linearGradient id="linear-gradient-21" x1="-658.61" y1="268.56" x2="-329.74" y2="192.14" xlink:href="#linear-gradient"/>
    <linearGradient id="linear-gradient-22" x1="-780.25" y1="293.78" x2="-377.96" y2="206.57" xlink:href="#linear-gradient"/>
  </defs>
  <!-- Generator: Adobe Illustrator 28.6.0, SVG Export Plug-In . SVG Version: 1.2.0 Build 709)  -->
  <g>
    <g id="Layer_1">
      <path class="cls-9" d="M36.44,6.15c2.78-1.95,2.67-2.85-.55-4.37-2.54-1.21-3.25-1.31-3.93-.56-.42.44-.44.82-.29,2.95.21,2.93.26,3.08,1.2,3.47.87.36,1.1.25,3.56-1.49h0Z"/>
      <path class="cls-8" d="M21.9,9.23c.24-.23.47-8.28.26-8.28-.08,0-1.78.87-3.78,1.9-1.99,1.03-3.62,1.98-3.59,2.1.05.36,6.92,4.47,7.1,4.26h0Z"/>
      <path class="cls-7" d="M15.92,15.35c.11-.08-.92-1.72-2.25-3.65l-2.44-3.49-1.89,3.88c-1.06,2.13-1.84,3.91-1.79,3.95.16.15,8.13-.49,8.36-.69h0Z"/>
      <path class="cls-6" d="M19.74,13.13c1.05-1.08,1.78-2.06,1.68-2.16-.21-.18-4.54-1.29-5.06-1.29-.13,0-.26.08-.26.18,0,.33,1.42,4.83,1.57,5.03.11.1,1.02-.69,2.07-1.77h0Z"/>
      <path class="cls-3" d="M34.61,10.18c-.6.64-.6,1.95-.03,2.6,1.07,1.16,3.28.31,3.28-1.29s-2.2-2.47-3.25-1.31Z"/>
      <path class="cls-4" d="M43.57,15.35c.92,0,1.29-.15,1.91-.75.63-.62.76-.98.76-1.95,0-1.03-.13-1.33-.81-1.95-1.2-1.08-2.6-1.06-3.8.13-1.83,1.8-.68,4.49,1.94,4.52h0Z"/>
      <path class="cls-2" d="M26.38,13.78c-.11-.1-.87-.59-1.68-1.1l-1.52-.95v3.88l1.7-.82c.94-.46,1.6-.9,1.49-1Z"/>
      <path class="cls-1" d="M31.04,13.96c0-1.9-.37-2.13-1.91-1.13-.68.44-1.23.92-1.23,1.13,0,.41,1.84,1.39,2.62,1.39.47,0,.52-.15.52-1.39h0Z"/>
      <path class="cls-5" d="M18.91,16.53c-.16.18,1.65,2.93,1.91,2.93.16,0,1.57-2.7,1.57-2.95,0-.18-3.3-.15-3.49.02Z"/>
      <path class="cls-10" d="M34.95,18.35c.31-.49.5-1.08.39-1.29-.29-.75-2.2-.92-2.75-.28-.29.33-.26.56.16,1.33.71,1.29,1.47,1.36,2.2.23h0Z"/>
      <path class="cls-11" d="M12.22,20.1c-.11.08,4.77,2.7,5.03,2.7.24,0,.18-5.34-.05-5.5-.11-.05-1.26.52-2.54,1.31-1.31.77-2.38,1.44-2.44,1.49Z"/>
      <path class="cls-12" d="M39.56,18.43c-.63,0-1.02.18-1.42.67-.63.77-.68,1.18-.26,1.98.42.77.74.95,1.73.95.89,0,1.91-.95,1.91-1.8s-1.03-1.8-1.97-1.8h0Z"/>
      <path class="cls-13" d="M21.74,21.8l-.84-1.67-1.07,1.67-1.07,1.64,1.05.08c.58.05,1.44.05,1.91,0l.89-.08-.87-1.64h0Z"/>
      <path class="cls-15" d="M33.51,24.29c1.94.23,2.51-.56,1.44-2.03-.71-.98-1.42-.95-1.94.05-.6,1.13-.42,1.87.5,1.98h0Z"/>
      <path class="cls-19" d="M7.71,24.47c0,.08.92,1.83,2.02,3.85,1.44,2.62,2.1,3.6,2.25,3.34.11-.21.18-.46.18-.54-.02-.1.08-.25.24-.33.31-.21,4.04-5.96,3.91-6.07-.18-.15-8.6-.41-8.6-.25Z"/>
      <path class="cls-20" d="M23.89,24.34s0,.72.02,1.59c.05.9.18,1.72.31,1.85.13.1.87-.23,1.65-.79l1.44-1.03-1.68-.79c-.92-.46-1.7-.82-1.75-.82h0Z"/>
      <path class="cls-21" d="M22.03,28.89c.05-.05-.84-1-1.99-2.1-1.42-1.39-2.12-1.9-2.2-1.64-.42,1.1-1.39,5.37-1.23,5.37.24,0,5.35-1.52,5.42-1.62h0Z"/>
      <path class="cls-22" d="M45.38,25.36c-1.05-.64-1.92-.64-2.96-.02-2.05,1.23-1.68,4.24.66,4.93,3.04.9,5-3.29,2.31-4.91Z"/>
      <path class="cls-14" d="M30.99,25.36c-.18.02-.89.31-1.57.67-.71.33-1.26.77-1.26.98,0,.41,2.57,2,2.91,1.8.37-.23.29-3.44-.08-3.44h0Z"/>
      <path class="cls-17" d="M38.25,29.46c.31-1.23-1.39-2.52-2.67-2.03-1.18.46-1.44,1.85-.58,2.93.97,1.18,2.88.67,3.25-.9Z"/>
      <path class="cls-16" d="M19.38,32.87c-1.89,1.26-3.43,2.39-3.49,2.49-.08.21,7.47,3.78,7.65,3.6.13-.13-.52-8.17-.65-8.3-.05-.05-1.62.92-3.52,2.21Z"/>
      <path class="cls-18" d="M36.47,34.1c-1.7-.95-2.38-.98-3.36-.02-.71.69-.76.9-.76,2.6,0,1.59.08,1.9.66,2.44.34.36.94.64,1.31.64.89,0,3.72-1.41,4.06-2.03.71-1.33.11-2.49-1.91-3.62h0Z"/>
    </g>
  </g>
</svg>