<?xml version="1.0" encoding="UTF-8"?>
<svg xmlns="http://www.w3.org/2000/svg" xmlns:xlink="http://www.w3.org/1999/xlink" version="1.1" viewBox="0 0 40 40">
  <defs>
    <style>
      .cls-1 {
        fill: url(#linear-gradient-8);
      }

      .cls-2 {
        fill: url(#linear-gradient-7);
      }

      .cls-3 {
        fill: url(#linear-gradient-5);
      }

      .cls-4 {
        fill: url(#linear-gradient-6);
      }

      .cls-5 {
        fill: url(#linear-gradient-9);
      }

      .cls-6 {
        fill: url(#linear-gradient-4);
      }

      .cls-7 {
        fill: url(#linear-gradient-3);
      }

      .cls-8 {
        fill: url(#linear-gradient-2);
      }

      .cls-9 {
        fill: url(#linear-gradient);
      }

      .cls-10 {
        fill: url(#linear-gradient-10);
      }

      .cls-11 {
        fill: url(#linear-gradient-11);
      }

      .cls-12 {
        fill: url(#linear-gradient-12);
      }

      .cls-13 {
        fill: url(#linear-gradient-13);
      }

      .cls-14 {
        fill: url(#linear-gradient-19);
      }

      .cls-15 {
        fill: url(#linear-gradient-14);
      }

      .cls-16 {
        fill: url(#linear-gradient-21);
      }

      .cls-17 {
        fill: url(#linear-gradient-20);
      }

      .cls-18 {
        fill: url(#linear-gradient-22);
      }

      .cls-19 {
        fill: url(#linear-gradient-15);
      }

      .cls-20 {
        fill: url(#linear-gradient-16);
      }

      .cls-21 {
        fill: url(#linear-gradient-17);
      }

      .cls-22 {
        fill: url(#linear-gradient-18);
      }
    </style>
    <linearGradient id="linear-gradient" x1="76.9" y1="-52.7" x2=".7" y2="15.9" gradientUnits="userSpaceOnUse">
      <stop offset="0" stop-color="#a3a5a8"/>
      <stop offset="1" stop-color="#fff"/>
    </linearGradient>
    <linearGradient id="linear-gradient-2" x1="83.4" y1="-45.6" x2="7.1" y2="23" gradientUnits="userSpaceOnUse">
      <stop offset="0" stop-color="#a3a5a8"/>
      <stop offset="1" stop-color="#fff"/>
    </linearGradient>
    <linearGradient id="linear-gradient-3" x1="82.3" y1="-46.8" x2="6" y2="21.8" gradientUnits="userSpaceOnUse">
      <stop offset="0" stop-color="#a3a5a8"/>
      <stop offset="1" stop-color="#fff"/>
    </linearGradient>
    <linearGradient id="linear-gradient-4" x1="78.7" y1="-50.7" x2="2.5" y2="17.9" gradientUnits="userSpaceOnUse">
      <stop offset="0" stop-color="#a3a5a8"/>
      <stop offset="1" stop-color="#fff"/>
    </linearGradient>
    <linearGradient id="linear-gradient-5" x1="82.8" y1="-46.2" x2="6.6" y2="22.4" gradientUnits="userSpaceOnUse">
      <stop offset="0" stop-color="#a3a5a8"/>
      <stop offset="1" stop-color="#fff"/>
    </linearGradient>
    <linearGradient id="linear-gradient-6" x1="87.3" y1="-41.2" x2="11" y2="27.4" gradientUnits="userSpaceOnUse">
      <stop offset="0" stop-color="#a3a5a8"/>
      <stop offset="1" stop-color="#fff"/>
    </linearGradient>
    <linearGradient id="linear-gradient-7" x1="76.7" y1="-53" x2=".4" y2="15.6" gradientUnits="userSpaceOnUse">
      <stop offset="0" stop-color="#a3a5a8"/>
      <stop offset="1" stop-color="#fff"/>
    </linearGradient>
    <linearGradient id="linear-gradient-8" x1="85.5" y1="-43.2" x2="9.3" y2="25.4" gradientUnits="userSpaceOnUse">
      <stop offset="0" stop-color="#a3a5a8"/>
      <stop offset="1" stop-color="#fff"/>
    </linearGradient>
    <linearGradient id="linear-gradient-9" x1="92.2" y1="-35.7" x2="16" y2="32.9" gradientUnits="userSpaceOnUse">
      <stop offset="0" stop-color="#a3a5a8"/>
      <stop offset="1" stop-color="#fff"/>
    </linearGradient>
    <linearGradient id="linear-gradient-10" x1="82.4" y1="-46.7" x2="6.1" y2="21.9" gradientUnits="userSpaceOnUse">
      <stop offset="0" stop-color="#a3a5a8"/>
      <stop offset="1" stop-color="#fff"/>
    </linearGradient>
    <linearGradient id="linear-gradient-11" x1="88.9" y1="-39.4" x2="12.7" y2="29.2" gradientUnits="userSpaceOnUse">
      <stop offset="0" stop-color="#a3a5a8"/>
      <stop offset="1" stop-color="#fff"/>
    </linearGradient>
    <linearGradient id="linear-gradient-12" x1="85.4" y1="-43.3" x2="9.1" y2="25.3" gradientUnits="userSpaceOnUse">
      <stop offset="0" stop-color="#a3a5a8"/>
      <stop offset="1" stop-color="#fff"/>
    </linearGradient>
    <linearGradient id="linear-gradient-13" x1="92" y1="-35.9" x2="15.8" y2="32.7" gradientUnits="userSpaceOnUse">
      <stop offset="0" stop-color="#a3a5a8"/>
      <stop offset="1" stop-color="#fff"/>
    </linearGradient>
    <linearGradient id="linear-gradient-14" x1="91.8" y1="-36.2" x2="15.5" y2="32.4" gradientUnits="userSpaceOnUse">
      <stop offset="0" stop-color="#a3a5a8"/>
      <stop offset="1" stop-color="#fff"/>
    </linearGradient>
    <linearGradient id="linear-gradient-15" x1="88.9" y1="-39.4" x2="12.6" y2="29.2" gradientUnits="userSpaceOnUse">
      <stop offset="0" stop-color="#a3a5a8"/>
      <stop offset="1" stop-color="#fff"/>
    </linearGradient>
    <linearGradient id="linear-gradient-16" x1="86.8" y1="-41.8" x2="10.5" y2="26.8" gradientUnits="userSpaceOnUse">
      <stop offset="0" stop-color="#a3a5a8"/>
      <stop offset="1" stop-color="#fff"/>
    </linearGradient>
    <linearGradient id="linear-gradient-17" x1="82.1" y1="-47" x2="5.9" y2="21.6" gradientUnits="userSpaceOnUse">
      <stop offset="0" stop-color="#a3a5a8"/>
      <stop offset="1" stop-color="#fff"/>
    </linearGradient>
    <linearGradient id="linear-gradient-18" x1="95.7" y1="-31.8" x2="19.5" y2="36.8" gradientUnits="userSpaceOnUse">
      <stop offset="0" stop-color="#a3a5a8"/>
      <stop offset="1" stop-color="#fff"/>
    </linearGradient>
    <linearGradient id="linear-gradient-19" x1="98.8" y1="-28.4" x2="22.6" y2="40.2" gradientUnits="userSpaceOnUse">
      <stop offset="0" stop-color="#a3a5a8"/>
      <stop offset="1" stop-color="#fff"/>
    </linearGradient>
    <linearGradient id="linear-gradient-20" x1="92.7" y1="-35.1" x2="16.5" y2="33.5" gradientUnits="userSpaceOnUse">
      <stop offset="0" stop-color="#a3a5a8"/>
      <stop offset="1" stop-color="#fff"/>
    </linearGradient>
    <linearGradient id="linear-gradient-21" x1="98.3" y1="-28.9" x2="22.1" y2="39.7" gradientUnits="userSpaceOnUse">
      <stop offset="0" stop-color="#a3a5a8"/>
      <stop offset="1" stop-color="#fff"/>
    </linearGradient>
    <linearGradient id="linear-gradient-22" x1="90.8" y1="-37.3" x2="14.6" y2="31.3" gradientUnits="userSpaceOnUse">
      <stop offset="0" stop-color="#a3a5a8"/>
      <stop offset="1" stop-color="#fff"/>
    </linearGradient>
  </defs>
  <!-- Generator: Adobe Illustrator 28.6.0, SVG Export Plug-In . SVG Version: 1.2.0 Build 709)  -->
  <g>
    <g id="Layer_1">
      <g id="Layer_1-2" data-name="Layer_1">
        <path class="cls-9" d="M.2,15.3v-.4c.3-.7.9-2,1.6-3.5l1.9-3.9,2.4,3.5c1.3,1.9,2.4,3.6,2.3,3.6h0c-.2.2-7.1.8-8.2.7Z"/>
        <path class="cls-8" d="M8.8,24c.1.1-3.6,5.9-3.9,6.1-.2,0-.3.2-.2.3,0,0,0,.3-.2.5,0,.3-.8-.7-2.2-3.3-1.1-2-2-3.8-2-3.9,0-.2,8.4.1,8.6.2h-.1Z"/>
        <path class="cls-7" d="M7.1,17.9c1.3-.8,2.4-1.4,2.6-1.3.2.2.3,5.5,0,5.5s-5-2.6-5-2.7c0,0,1.1-.7,2.4-1.5Z"/>
        <path class="cls-6" d="M10.1,14.2c-.2-.2-1.6-4.7-1.6-5s.1-.2.3-.2c.5,0,4.8,1.1,5.1,1.3.1.1-.6,1.1-1.7,2.2s-2,1.9-2.1,1.8h0Z"/>
        <path class="cls-3" d="M14.8,15.8c0,.3-1.4,3-1.6,3-.3,0-2.1-2.8-1.9-2.9.2-.2,3.5-.2,3.5,0h0Z"/>
        <path class="cls-4" d="M9,29.8c-.2,0,.8-4.3,1.2-5.4,0-.3.8.2,2.2,1.6,1.2,1.1,2.1,2.1,2,2.1h0c0,.1-5.2,1.6-5.4,1.6h0Z"/>
        <path class="cls-2" d="M7.2,4.2c0,0,1.6-1.1,3.6-2.1,2-1,3.7-1.9,3.8-1.9.2,0,0,7.9-.3,8.3-.2.2-7.1-3.9-7.1-4.3Z"/>
        <path class="cls-1" d="M15,22.7h-.9c-.5.1-1.3.1-1.9,0h-1l1.1-1.7,1.1-1.7.8,1.7h0l.9,1.6h-.1Z"/>
        <path class="cls-5" d="M15.3,29.9c.1.1.8,8.2.6,8.3-.2.2-7.7-3.4-7.6-3.6,0,0,1.6-1.2,3.5-2.5s3.5-2.3,3.5-2.2Z"/>
        <path class="cls-10" d="M17.3,14l-1.7.8v-3.9l1.5,1c.8.5,1.6,1,1.7,1.1,0,.1-.6.5-1.5,1Z"/>
        <path class="cls-11" d="M18.1,24.4l1.7.8-1.4,1c-.8.6-1.5.9-1.7.8-.1-.1-.3-.9-.3-1.8v-1.6s.8.4,1.8.8h-.1Z"/>
        <path class="cls-12" d="M23,14.6c-.8,0-2.6-1-2.6-1.4s.5-.7,1.2-1.1c1.5-1,1.9-.8,1.9,1.1s0,1.4-.5,1.4Z"/>
        <path class="cls-13" d="M23.5,28.1c-.3.2-2.9-1.4-2.9-1.8s.5-.7,1.3-1c.7-.4,1.4-.6,1.6-.7.4,0,.5,3.2,0,3.5Z"/>
        <path class="cls-15" d="M25.5,21.6c.5-1,1.2-1,1.9,0,1.1,1.5.5,2.3-1.4,2h0c-.9,0-1.1-.8-.5-2Z"/>
        <path class="cls-19" d="M25.2,17.4c-.4-.8-.5-1-.2-1.3.6-.6,2.5-.5,2.8.3.1.2,0,.8-.4,1.3-.7,1.1-1.5,1.1-2.2-.2h0Z"/>
        <path class="cls-20" d="M30.3,10.8c0,1.6-2.2,2.4-3.3,1.3-.6-.6-.6-2,0-2.6,1-1.2,3.2-.3,3.2,1.3h0Z"/>
        <path class="cls-21" d="M25.3,6.9c-.9-.4-1-.5-1.2-3.5-.2-2.1-.1-2.5.3-3C24.6.2,24.8,0,25.1,0h.6C26.3,0,27.1.4,28.3,1c3.2,1.5,3.3,2.4.5,4.4-2.5,1.7-2.7,1.9-3.6,1.5h.1Z"/>
        <path class="cls-22" d="M27.5,29.6c-.9-1.1-.6-2.5.6-2.9,1.3-.5,3,.8,2.7,2-.4,1.6-2.3,2.1-3.2.9h-.1Z"/>
        <path class="cls-14" d="M30.8,37c-.3.6-3.2,2-4.1,2s-1-.3-1.3-.6c-.6-.5-.7-.8-.7-2.5s0-1.9.8-2.6c1-1,1.7-.9,3.4,0h0c2,1.1,2.6,2.3,1.9,3.6h0Z"/>
        <path class="cls-17" d="M34,19.5c0,.8-1,1.8-1.9,1.8s-1.3-.2-1.7-1c-.4-.8-.4-1.2.3-2,.4-.5.8-.7,1.4-.7h0c.9,0,2,1,2,1.8h0Z"/>
        <path class="cls-16" d="M35.5,29.5c-2.3-.7-2.7-3.7-.7-4.9,1-.6,1.9-.6,3,0,2.7,1.6.7,5.8-2.3,4.9Z"/>
        <path class="cls-18" d="M34.1,10.1c1.2-1.2,2.6-1.2,3.8-.1.7.6.8.9.8,2s0,1.3-.8,1.9c-.6.6-1,.8-1.9.8h0c-2.6,0-3.8-2.7-1.9-4.5h0Z"/>
      </g>
    </g>
  </g>
</svg>