<?xml version="1.0" encoding="UTF-8"?>
<svg xmlns="http://www.w3.org/2000/svg" xmlns:xlink="http://www.w3.org/1999/xlink" version="1.1" viewBox="0 0 191 45">
  <defs>
    <style>
      .cls-1 {
        fill: url(#linear-gradient-8);
      }

      .cls-2 {
        fill: url(#linear-gradient-7);
      }

      .cls-3 {
        fill: url(#linear-gradient-5);
      }

      .cls-4 {
        fill: url(#linear-gradient-6);
      }

      .cls-5 {
        fill: url(#linear-gradient-9);
      }

      .cls-6 {
        fill: url(#linear-gradient-4);
      }

      .cls-7 {
        fill: url(#linear-gradient-3);
      }

      .cls-8 {
        fill: url(#linear-gradient-2);
      }

      .cls-9 {
        fill: url(#linear-gradient);
      }

      .cls-10 {
        fill: #fff;
      }

      .cls-11 {
        fill: url(#linear-gradient-10);
      }

      .cls-12 {
        fill: url(#linear-gradient-11);
      }

      .cls-13 {
        fill: url(#linear-gradient-12);
      }

      .cls-14 {
        fill: url(#linear-gradient-13);
      }

      .cls-15 {
        fill: url(#linear-gradient-19);
      }

      .cls-16 {
        fill: url(#linear-gradient-14);
      }

      .cls-17 {
        fill: url(#linear-gradient-21);
      }

      .cls-18 {
        fill: url(#linear-gradient-20);
      }

      .cls-19 {
        fill: url(#linear-gradient-22);
      }

      .cls-20 {
        fill: url(#linear-gradient-15);
      }

      .cls-21 {
        fill: url(#linear-gradient-16);
      }

      .cls-22 {
        fill: url(#linear-gradient-17);
      }

      .cls-23 {
        fill: url(#linear-gradient-18);
      }
    </style>
    <linearGradient id="linear-gradient" x1="87.4" y1="106.3" x2=".6" y2="28.1" gradientTransform="translate(0 46) scale(1 -1)" gradientUnits="userSpaceOnUse">
      <stop offset="0" stop-color="#a3a5a8"/>
      <stop offset="1" stop-color="#fff"/>
    </linearGradient>
    <linearGradient id="linear-gradient-2" x1="94.9" y1="98.1" x2="7.9" y2="19.9" xlink:href="#linear-gradient"/>
    <linearGradient id="linear-gradient-3" x1="93.6" y1="99.5" x2="6.7" y2="21.3" xlink:href="#linear-gradient"/>
    <linearGradient id="linear-gradient-4" x1="89.5" y1="104" x2="2.6" y2="25.8" xlink:href="#linear-gradient"/>
    <linearGradient id="linear-gradient-5" x1="94.2" y1="98.8" x2="7.3" y2="20.6" xlink:href="#linear-gradient"/>
    <linearGradient id="linear-gradient-6" x1="99.3" y1="93.1" x2="12.3" y2="15" xlink:href="#linear-gradient"/>
    <linearGradient id="linear-gradient-7" x1="87.2" y1="106.5" x2=".3" y2="28.4" xlink:href="#linear-gradient"/>
    <linearGradient id="linear-gradient-8" x1="97.2" y1="95.4" x2="10.4" y2="17.2" xlink:href="#linear-gradient"/>
    <linearGradient id="linear-gradient-9" x1="104.9" y1="86.9" x2="18" y2="8.7" xlink:href="#linear-gradient"/>
    <linearGradient id="linear-gradient-10" x1="93.7" y1="99.4" x2="6.8" y2="21.2" xlink:href="#linear-gradient"/>
    <linearGradient id="linear-gradient-11" x1="101.1" y1="91" x2="14.3" y2="12.9" xlink:href="#linear-gradient"/>
    <linearGradient id="linear-gradient-12" x1="97.1" y1="95.5" x2="10.2" y2="17.3" xlink:href="#linear-gradient"/>
    <linearGradient id="linear-gradient-13" x1="104.6" y1="87.1" x2="17.8" y2="8.9" xlink:href="#linear-gradient"/>
    <linearGradient id="linear-gradient-14" x1="104.4" y1="87.4" x2="17.4" y2="9.3" xlink:href="#linear-gradient"/>
    <linearGradient id="linear-gradient-15" x1="101.1" y1="91.1" x2="14.2" y2="12.9" xlink:href="#linear-gradient"/>
    <linearGradient id="linear-gradient-16" x1="98.7" y1="93.8" x2="11.8" y2="15.6" xlink:href="#linear-gradient"/>
    <linearGradient id="linear-gradient-17" x1="93.3" y1="99.7" x2="6.5" y2="21.6" xlink:href="#linear-gradient"/>
    <linearGradient id="linear-gradient-18" x1="108.9" y1="82.4" x2="22" y2="4.2" xlink:href="#linear-gradient"/>
    <linearGradient id="linear-gradient-19" x1="112.4" y1="78.6" x2="25.5" y2=".4" xlink:href="#linear-gradient"/>
    <linearGradient id="linear-gradient-20" x1="105.4" y1="86.2" x2="18.6" y2="8" xlink:href="#linear-gradient"/>
    <linearGradient id="linear-gradient-21" x1="111.8" y1="79.2" x2="24.9" y2="1" xlink:href="#linear-gradient"/>
    <linearGradient id="linear-gradient-22" x1="103.3" y1="88.7" x2="16.4" y2="10.5" xlink:href="#linear-gradient"/>
  </defs>
  <!-- Generator: Adobe Illustrator 28.6.0, SVG Export Plug-In . SVG Version: 1.2.0 Build 709)  -->
  <g>
    <g id="Layer_1">
      <path class="cls-10" d="M71.4,14.3c-2.6.7-4.5,2.4-5.5,4.9-.6,1.4-.6,3.8,0,5.4,1.5,4.5,6.8,6.5,11.2,4.3,2.7-1.3,4.3-3.9,4.3-7s-.8-4.2-2.5-5.8c-1.9-1.8-4.9-2.5-7.5-1.8ZM74.8,17.3c1.1.3,2.4,1.4,2.9,2.6.5,1.2.5,3,0,4.2-1.1,2.5-4.1,3.5-6.5,2.2-3-1.6-3.3-6.4-.5-8.4,1.3-.9,2.6-1.1,4.1-.7Z"/>
      <path class="cls-10" d="M115.3,14.3c-2.3.6-3.5,2.2-3.5,4.3,0,1.3.4,2.2,1.3,3.1.7.6,1.2.9,3.5,1.8.6.3,1.4.7,1.7,1,.5.4.6.6.5,1.1,0,1-.7,1.3-2.6,1.3-1.4,0-1.8,0-3-.4l-1.4-.5v1.5c0,1.5,0,1.5.5,1.7,1.1.4,2.1.6,3.9.6s2.1,0,2.9-.4c1.9-.8,2.8-1.9,2.8-3.9s-.4-2.2-1.3-3.1c-.4-.3-1.2-.8-1.8-1.1-.6-.3-1.5-.7-2.1-1-.6-.3-1.3-.7-1.5-.9-.9-.9-.3-2,1.1-2.4.9-.2,2.9,0,4,.5l.7.3v-3.1l-1-.3c-1.4-.4-3.8-.5-4.9-.2Z"/>
      <path class="cls-10" d="M137.8,14.3c-1.9.5-3.8,1.8-4.8,3.3-.9,1.4-1.2,2.5-1.2,4.3,0,1.9.3,2.9,1.1,4.3,1.7,2.6,5,4,8.5,3.5.8-.1,1.9-.4,2.5-.6l1.1-.4v-3.1c0,0,0-3.1,0-3.1h-3.1v2c0,2.3,0,2.2-2,2.2s-2.6-.3-3.6-1.3c-1-1-1.3-1.9-1.3-3.5s.8-3.4,2.6-4.4c.7-.4,1-.4,2.6-.4,1.6,0,2.6.2,4,.8.2,0,.3,0,.3-1.4v-1.5l-.9-.3c-1.8-.7-4.2-.8-5.9-.4Z"/>
      <path class="cls-10" d="M182.3,15.9c-.5,1-2.2,4.5-3.7,7.7-1.5,3.2-2.8,5.8-2.8,5.9s.8,0,1.7,0h1.7s.5-1.3.5-1.3l.5-1.2h2.9s2.9,0,2.9,0l.6,1.3.6,1.3h1.7c.9,0,1.7,0,1.7,0,0,0-6.1-12.9-6.9-14.5l-.5-.9-.9,1.9ZM184.2,22.4c.5,1.2.8,2.2.8,2.2,0,0-.8,0-1.8,0h-1.7s.9-2.2.9-2.2c.5-1.2.9-2.2.9-2.1,0,0,.4,1,.9,2.2Z"/>
      <path class="cls-10" d="M54,22v7.6h3.3v-6.1h5v-2.6h-5v-3.6h6v-2.8h-9.3v7.6Z"/>
      <path class="cls-10" d="M84.6,22v7.6h3.1v-5.3h2.2l1.4,2.6,1.4,2.6h1.7c1.5,0,1.6,0,1.6-.3,0-.1-.7-1.4-1.5-2.8-.8-1.4-1.4-2.6-1.4-2.7,0,0,.3-.3.8-.6,2.5-1.5,2.7-5.6.4-7.5-1.3-1.1-2.1-1.2-6-1.3h-3.6c0,0,0,7.5,0,7.5ZM91.9,17.8c.7.7.8,2,.3,2.8-.5.8-1.2,1-3,1h-1.5v-4.5h1.8c1.8.1,1.8.1,2.3.6Z"/>
      <path class="cls-10" d="M99.4,22v7.6h10.1v-2.6h-6.8v-3.8h5.5v-2.6h-5.5v-3.3h6.5v-2.8h-9.8v7.6Z"/>
      <path class="cls-10" d="M125.2,22v7.6h3.3v-15.1h-3.3v7.6Z"/>
      <path class="cls-10" d="M148.6,22v7.6h3.3v-6.4h3.1s3.1,0,3.1,0v3.2s0,3.2,0,3.2h3.1v-15.1h-3.1v6.1h-6.3v-6.1h-3.3v7.6Z"/>
      <path class="cls-10" d="M164.2,15.8v1.4c0,0,2.2,0,2.2,0h2.1v12.4h3.3v-12.3h2.1s2.1,0,2.1,0v-1.4c0,0,0-1.3,0-1.3h-12v1.3Z"/>
      <g id="Layer_1-2" data-name="Layer_1">
        <g id="Layer_1-2">
          <path class="cls-9" d="M0,17.2v-.5c.3-.8,1-2.3,1.8-4l2.2-4.4,2.7,4c1.5,2.2,2.7,4.1,2.6,4.1h0c-.2.2-8.1.9-9.3.8Z"/>
          <path class="cls-8" d="M9.8,27.2c.1.1-4.1,6.7-4.4,7-.2,0-.3.2-.2.3,0,0,0,.3-.2.6,0,.3-.9-.8-2.5-3.8C1.2,29,.1,26.9.1,26.8c0-.2,9.6.1,9.8.2h-.1Z"/>
          <path class="cls-7" d="M7.9,20.2c1.5-.9,2.7-1.6,3-1.5.2.2.3,6.3,0,6.3s-5.7-3-5.7-3.1c0,0,1.3-.8,2.7-1.7Z"/>
          <path class="cls-6" d="M11.3,16c-.2-.2-1.8-5.4-1.8-5.7s.1-.2.3-.2c.6,0,5.5,1.3,5.8,1.5.1.1-.7,1.3-1.9,2.5s-2.3,2.2-2.4,2.1h0Z"/>
          <path class="cls-3" d="M16.7,17.8c0,.3-1.6,3.4-1.8,3.4-.3,0-2.4-3.2-2.2-3.3.2-.2,4-.2,4,0h0Z"/>
          <path class="cls-4" d="M10.1,33.8c-.2,0,.9-4.9,1.4-6.2,0-.3.9.2,2.5,1.8,1.4,1.3,2.4,2.4,2.3,2.4h0c0,.1-5.9,1.8-6.2,1.8h0Z"/>
          <path class="cls-2" d="M8,4.6s1.8-1.3,4.1-2.4C14.4,1.1,16.3,0,16.4,0c.2,0,0,9-.3,9.5-.2.2-8.1-4.4-8.1-4.9Z"/>
          <path class="cls-1" d="M16.9,25.7h-1c-.6.1-1.5.1-2.2,0h-1.1l1.3-1.9,1.3-1.9.9,1.9h0l1,1.8h-.1Z"/>
          <path class="cls-5" d="M17.2,33.9c.1.1.9,9.3.7,9.5-.2.2-8.8-3.9-8.7-4.1,0,0,1.8-1.4,4-2.8s4-2.6,4-2.5Z"/>
          <path class="cls-11" d="M19.5,15.8l-1.9.9v-4.4l1.7,1.1c.9.6,1.8,1.1,1.9,1.3,0,.1-.7.6-1.7,1.1Z"/>
          <path class="cls-12" d="M20.4,27.6l1.9.9-1.6,1.1c-.9.7-1.7,1-1.9.9-.1-.1-.3-1-.3-2.1v-1.8s.9.5,2.1.9c0,0-.1,0-.1,0Z"/>
          <path class="cls-13" d="M26,16.5c-.9,0-3-1.1-3-1.6s.6-.8,1.4-1.3c1.7-1.1,2.2-.9,2.2,1.3s0,1.6-.6,1.6Z"/>
          <path class="cls-14" d="M26.6,31.8c-.3.2-3.3-1.6-3.3-2.1s.6-.8,1.5-1.1c.8-.5,1.6-.7,1.8-.8.5,0,.6,3.6,0,4Z"/>
          <path class="cls-16" d="M28.9,24.4c.6-1.1,1.4-1.1,2.2,0,1.3,1.7.6,2.6-1.6,2.3h0c-1,0-1.3-.9-.6-2.3Z"/>
          <path class="cls-20" d="M28.5,19.6c-.5-.9-.6-1.1-.2-1.5.7-.7,2.8-.6,3.2.3.1.2,0,.9-.5,1.5-.8,1.3-1.7,1.3-2.5-.2h0Z"/>
          <path class="cls-21" d="M34.3,12.1c0,1.8-2.5,2.7-3.8,1.5-.7-.7-.7-2.3,0-3,1.1-1.4,3.6-.3,3.6,1.5h.1Z"/>
          <path class="cls-22" d="M28.6,7.7c-1-.5-1.1-.6-1.4-4-.2-2.4-.1-2.8.3-3.4.2-.2.5-.5.8-.5h.7c.7,0,1.6.5,3,1.1,3.6,1.7,3.8,2.7.6,5-2.8,1.9-3.1,2.2-4.1,1.7h.1Z"/>
          <path class="cls-23" d="M31.1,33.5c-1-1.3-.7-2.8.7-3.3,1.5-.6,3.4.9,3.1,2.3-.5,1.8-2.6,2.4-3.6,1h-.1Z"/>
          <path class="cls-15" d="M34.9,42c-.3.7-3.6,2.3-4.7,2.3s-1.1-.3-1.5-.7c-.7-.6-.8-.9-.8-2.8s0-2.2.9-3c1.1-1.1,1.9-1,3.9,0h0c2.3,1.3,3,2.6,2.2,4.1h0Z"/>
          <path class="cls-18" d="M38.5,22c0,.9-1.1,2.1-2.2,2.1s-1.5-.2-1.9-1.1c-.5-.9-.5-1.4.3-2.3.5-.6.9-.8,1.6-.8h0c1,0,2.3,1.1,2.3,2.1h-.1Z"/>
          <path class="cls-17" d="M40.2,33.4c-2.6-.8-3.1-4.2-.8-5.6,1.1-.7,2.2-.7,3.4,0,3.1,1.8.8,6.6-2.6,5.6Z"/>
          <path class="cls-19" d="M38.7,11.3c1.4-1.4,3-1.4,4.3-.1.8.7.9,1,.9,2.3s0,1.5-.9,2.2c-.7.7-1.1.9-2.2.9h0c-3,0-4.3-3.1-2.2-5.1h0Z"/>
        </g>
      </g>
    </g>
  </g>
</svg>