<?xml version="1.0" encoding="UTF-8"?>
<svg xmlns="http://www.w3.org/2000/svg" xmlns:xlink="http://www.w3.org/1999/xlink" version="1.1" viewBox="0 0 191 45">
  <defs>
    <style>
      .cls-1 {
        fill: url(#linear-gradient-8);
      }

      .cls-2 {
        fill: url(#linear-gradient-7);
      }

      .cls-3 {
        fill: url(#linear-gradient-5);
      }

      .cls-4 {
        fill: url(#linear-gradient-6);
      }

      .cls-5 {
        fill: url(#linear-gradient-9);
      }

      .cls-6 {
        fill: url(#linear-gradient-4);
      }

      .cls-7 {
        fill: url(#linear-gradient-3);
      }

      .cls-8 {
        fill: url(#linear-gradient-2);
      }

      .cls-9 {
        fill: url(#linear-gradient);
      }

      .cls-10 {
        fill: #fff;
      }

      .cls-11 {
        fill: url(#linear-gradient-10);
      }

      .cls-12 {
        fill: url(#linear-gradient-11);
      }

      .cls-13 {
        fill: url(#linear-gradient-12);
      }

      .cls-14 {
        fill: url(#linear-gradient-13);
      }

      .cls-15 {
        fill: url(#linear-gradient-19);
      }

      .cls-16 {
        fill: url(#linear-gradient-14);
      }

      .cls-17 {
        fill: url(#linear-gradient-21);
      }

      .cls-18 {
        fill: url(#linear-gradient-20);
      }

      .cls-19 {
        fill: url(#linear-gradient-22);
      }

      .cls-20 {
        fill: url(#linear-gradient-15);
      }

      .cls-21 {
        fill: url(#linear-gradient-16);
      }

      .cls-22 {
        fill: url(#linear-gradient-17);
      }

      .cls-23 {
        fill: url(#linear-gradient-18);
      }
    </style>
    <linearGradient id="linear-gradient" x1="87" y1="-35.6" x2=".5" y2="42.3" gradientTransform="translate(0 -24)" gradientUnits="userSpaceOnUse">
      <stop offset="0" stop-color="#a3a5a8"/>
      <stop offset="1" stop-color="#fff"/>
    </linearGradient>
    <linearGradient id="linear-gradient-2" x1="94.5" y1="-27.3" x2="7.9" y2="50.5" gradientTransform="translate(0 -24)" gradientUnits="userSpaceOnUse">
      <stop offset="0" stop-color="#a3a5a8"/>
      <stop offset="1" stop-color="#fff"/>
    </linearGradient>
    <linearGradient id="linear-gradient-3" x1="93.2" y1="-28.8" x2="6.7" y2="49.1" gradientTransform="translate(0 -24)" gradientUnits="userSpaceOnUse">
      <stop offset="0" stop-color="#a3a5a8"/>
      <stop offset="1" stop-color="#fff"/>
    </linearGradient>
    <linearGradient id="linear-gradient-4" x1="89.1" y1="-33.2" x2="2.6" y2="44.6" gradientTransform="translate(0 -24)" gradientUnits="userSpaceOnUse">
      <stop offset="0" stop-color="#a3a5a8"/>
      <stop offset="1" stop-color="#fff"/>
    </linearGradient>
    <linearGradient id="linear-gradient-5" x1="93.8" y1="-28.1" x2="7.3" y2="49.8" gradientTransform="translate(0 -24)" gradientUnits="userSpaceOnUse">
      <stop offset="0" stop-color="#a3a5a8"/>
      <stop offset="1" stop-color="#fff"/>
    </linearGradient>
    <linearGradient id="linear-gradient-6" x1="98.9" y1="-22.3" x2="12.3" y2="55.4" gradientTransform="translate(0 -24)" gradientUnits="userSpaceOnUse">
      <stop offset="0" stop-color="#a3a5a8"/>
      <stop offset="1" stop-color="#fff"/>
    </linearGradient>
    <linearGradient id="linear-gradient-7" x1="86.8" y1="-35.7" x2=".3" y2="42" gradientTransform="translate(0 -24)" gradientUnits="userSpaceOnUse">
      <stop offset="0" stop-color="#a3a5a8"/>
      <stop offset="1" stop-color="#fff"/>
    </linearGradient>
    <linearGradient id="linear-gradient-8" x1="96.8" y1="-24.6" x2="10.4" y2="53.2" gradientTransform="translate(0 -24)" gradientUnits="userSpaceOnUse">
      <stop offset="0" stop-color="#a3a5a8"/>
      <stop offset="1" stop-color="#fff"/>
    </linearGradient>
    <linearGradient id="linear-gradient-9" x1="104.5" y1="-16.2" x2="17.9" y2="61.7" gradientTransform="translate(0 -24)" gradientUnits="userSpaceOnUse">
      <stop offset="0" stop-color="#a3a5a8"/>
      <stop offset="1" stop-color="#fff"/>
    </linearGradient>
    <linearGradient id="linear-gradient-10" x1="93.3" y1="-28.6" x2="6.8" y2="49.2" gradientTransform="translate(0 -24)" gradientUnits="userSpaceOnUse">
      <stop offset="0" stop-color="#a3a5a8"/>
      <stop offset="1" stop-color="#fff"/>
    </linearGradient>
    <linearGradient id="linear-gradient-11" x1="100.6" y1="-20.3" x2="14.2" y2="57.4" gradientTransform="translate(0 -24)" gradientUnits="userSpaceOnUse">
      <stop offset="0" stop-color="#a3a5a8"/>
      <stop offset="1" stop-color="#fff"/>
    </linearGradient>
    <linearGradient id="linear-gradient-12" x1="96.7" y1="-24.8" x2="10.1" y2="53.1" gradientTransform="translate(0 -24)" gradientUnits="userSpaceOnUse">
      <stop offset="0" stop-color="#a3a5a8"/>
      <stop offset="1" stop-color="#fff"/>
    </linearGradient>
    <linearGradient id="linear-gradient-13" x1="104.1" y1="-16.4" x2="17.7" y2="61.4" gradientTransform="translate(0 -24)" gradientUnits="userSpaceOnUse">
      <stop offset="0" stop-color="#a3a5a8"/>
      <stop offset="1" stop-color="#fff"/>
    </linearGradient>
    <linearGradient id="linear-gradient-14" x1="104" y1="-16.7" x2="17.4" y2="61.1" gradientTransform="translate(0 -24)" gradientUnits="userSpaceOnUse">
      <stop offset="0" stop-color="#a3a5a8"/>
      <stop offset="1" stop-color="#fff"/>
    </linearGradient>
    <linearGradient id="linear-gradient-15" x1="100.6" y1="-20.5" x2="14.1" y2="57.4" gradientTransform="translate(0 -24)" gradientUnits="userSpaceOnUse">
      <stop offset="0" stop-color="#a3a5a8"/>
      <stop offset="1" stop-color="#fff"/>
    </linearGradient>
    <linearGradient id="linear-gradient-16" x1="98.2" y1="-23.2" x2="11.7" y2="54.7" gradientTransform="translate(0 -24)" gradientUnits="userSpaceOnUse">
      <stop offset="0" stop-color="#a3a5a8"/>
      <stop offset="1" stop-color="#fff"/>
    </linearGradient>
    <linearGradient id="linear-gradient-17" x1="92.9" y1="-29" x2="6.4" y2="48.8" gradientTransform="translate(0 -24)" gradientUnits="userSpaceOnUse">
      <stop offset="0" stop-color="#a3a5a8"/>
      <stop offset="1" stop-color="#fff"/>
    </linearGradient>
    <linearGradient id="linear-gradient-18" x1="108.4" y1="-11.8" x2="21.9" y2="66.1" gradientTransform="translate(0 -24)" gradientUnits="userSpaceOnUse">
      <stop offset="0" stop-color="#a3a5a8"/>
      <stop offset="1" stop-color="#fff"/>
    </linearGradient>
    <linearGradient id="linear-gradient-19" x1="111.9" y1="-7.9" x2="25.4" y2="69.9" gradientTransform="translate(0 -24)" gradientUnits="userSpaceOnUse">
      <stop offset="0" stop-color="#a3a5a8"/>
      <stop offset="1" stop-color="#fff"/>
    </linearGradient>
    <linearGradient id="linear-gradient-20" x1="104.9" y1="-15.6" x2="18.5" y2="62.3" gradientTransform="translate(0 -24)" gradientUnits="userSpaceOnUse">
      <stop offset="0" stop-color="#a3a5a8"/>
      <stop offset="1" stop-color="#fff"/>
    </linearGradient>
    <linearGradient id="linear-gradient-21" x1="111.3" y1="-8.6" x2="24.8" y2="69.3" gradientTransform="translate(0 -24)" gradientUnits="userSpaceOnUse">
      <stop offset="0" stop-color="#a3a5a8"/>
      <stop offset="1" stop-color="#fff"/>
    </linearGradient>
    <linearGradient id="linear-gradient-22" x1="102.8" y1="-18" x2="16.3" y2="59.8" gradientTransform="translate(0 -24)" gradientUnits="userSpaceOnUse">
      <stop offset="0" stop-color="#a3a5a8"/>
      <stop offset="1" stop-color="#fff"/>
    </linearGradient>
  </defs>
  <!-- Generator: Adobe Illustrator 28.6.0, SVG Export Plug-In . SVG Version: 1.2.0 Build 709)  -->
  <g>
    <g id="Layer_1">
      <g id="Layer_1-2" data-name="Layer_1">
        <g id="Layer_1-2">
          <g id="Layer_1-2-2" data-name="Layer_1-2">
            <path class="cls-9" d="M0,17.6v-.5c.3-.8,1-2.3,1.8-4l2.2-4.4,2.7,4c1.5,2.2,2.7,4.1,2.6,4.1h0c-.2.2-8.1.9-9.3.8Z"/>
            <path class="cls-8" d="M9.8,27.6c0,0-4.1,6.7-4.4,7-.2,0-.3.2-.2.3,0,0,0,.3-.2.6,0,.3-.9-.8-2.5-3.8C1.2,29.4,0,27.3,0,27.2c0-.2,9.6,0,9.8.2h0v.2Z"/>
            <path class="cls-7" d="M7.9,20.6c1.5-.9,2.7-1.6,3-1.5.2.2.3,6.3,0,6.3s-5.7-3-5.7-3.1c0,0,1.3-.8,2.7-1.7Z"/>
            <path class="cls-6" d="M11.2,16.4c-.2-.2-1.8-5.4-1.8-5.7s0-.2.3-.2c.6,0,5.5,1.3,5.8,1.5,0,0-.7,1.3-1.9,2.5s-2.3,2.2-2.4,2.1h0v-.2Z"/>
            <path class="cls-3" d="M16.6,18.2c0,.3-1.6,3.4-1.8,3.4-.3,0-2.4-3.2-2.2-3.3.2-.2,4-.2,4,0h0Z"/>
            <path class="cls-4" d="M10.1,34.1c-.2,0,.9-4.9,1.4-6.2,0-.3.9.2,2.5,1.8,1.4,1.3,2.4,2.4,2.3,2.4h0c0,0-5.9,1.8-6.2,1.8h0v.2Z"/>
            <path class="cls-2" d="M8,5.1s1.8-1.3,4.1-2.4c2.3-1.1,4.2-2.2,4.3-2.2.2,0,0,9-.3,9.5-.2.2-8.1-4.4-8.1-4.9Z"/>
            <path class="cls-1" d="M16.8,26.1h-1c-.6,0-1.5,0-2.2,0h-1.1l1.3-1.9,1.3-1.9.9,1.9h0l1,1.8h-.2Z"/>
            <path class="cls-5" d="M17.1,34.2c0,0,.9,9.3.7,9.5-.2.2-8.8-3.9-8.7-4.1,0,0,1.8-1.4,4-2.8s4-2.6,4-2.5h0Z"/>
            <path class="cls-11" d="M19.4,16.2l-1.9.9v-4.4l1.7,1.1c.9.6,1.8,1.1,1.9,1.3,0,0-.7.6-1.7,1.1Z"/>
            <path class="cls-12" d="M20.3,28l1.9.9-1.6,1.1c-.9.7-1.7,1-1.9.9,0,0-.3-1-.3-2.1v-1.8s.9.5,2.1.9h-.2Z"/>
            <path class="cls-13" d="M25.9,16.9c-.9,0-3-1.1-3-1.6s.6-.8,1.4-1.3c1.7-1.1,2.2-.9,2.2,1.3s0,1.6-.6,1.6Z"/>
            <path class="cls-14" d="M26.5,32.2c-.3.2-3.3-1.6-3.3-2.1s.6-.8,1.5-1.1c.8-.5,1.6-.7,1.8-.8.5,0,.6,3.6,0,4Z"/>
            <path class="cls-16" d="M28.8,24.8c.6-1.1,1.4-1.1,2.2,0,1.3,1.7.6,2.6-1.6,2.3h0c-1,0-1.3-.9-.6-2.3Z"/>
            <path class="cls-20" d="M28.4,20c-.5-.9-.6-1.1-.2-1.5.7-.7,2.8-.6,3.2.3,0,.2,0,.9-.5,1.5-.8,1.3-1.7,1.3-2.5-.2h0Z"/>
            <path class="cls-21" d="M34.1,12.5c0,1.8-2.5,2.7-3.8,1.5-.7-.7-.7-2.3,0-3,1.1-1.4,3.6-.3,3.6,1.5h.2Z"/>
            <path class="cls-22" d="M28.5,8.2c-1-.5-1.1-.6-1.4-4-.2-2.4,0-2.8.3-3.4.2-.2.5-.5.8-.5h.7c.7,0,1.6.5,3,1.1,3.6,1.7,3.8,2.7.6,5-2.8,1.9-3.1,2.2-4.1,1.7h0Z"/>
            <path class="cls-23" d="M31,33.8c-1-1.3-.7-2.8.7-3.3,1.5-.6,3.4.9,3.1,2.3-.5,1.8-2.6,2.4-3.6,1h-.2Z"/>
            <path class="cls-15" d="M34.7,42.3c-.3.7-3.6,2.3-4.7,2.3s-1.1-.3-1.5-.7c-.7-.6-.8-.9-.8-2.8s0-2.2.9-3c1.1-1.1,1.9-1,3.9,0h0c2.3,1.3,3,2.6,2.2,4.1h0Z"/>
            <path class="cls-18" d="M38.3,22.4c0,.9-1.1,2.1-2.2,2.1s-1.5-.2-1.9-1.1c-.5-.9-.5-1.4.3-2.3.5-.6.9-.8,1.6-.8h0c1,0,2.3,1.1,2.3,2.1,0,0,0,0,0,0Z"/>
            <path class="cls-17" d="M40,33.7c-2.6-.8-3.1-4.2-.8-5.6,1.1-.7,2.2-.7,3.4,0,3.1,1.8.8,6.6-2.6,5.6Z"/>
            <path class="cls-19" d="M38.5,11.7c1.4-1.4,3-1.4,4.3,0,.8.7.9,1,.9,2.3s0,1.5-.9,2.2c-.7.7-1.1.9-2.2.9h0c-3,0-4.3-3.1-2.2-5.1h0v-.2Z"/>
          </g>
        </g>
      </g>
      <g>
        <polygon class="cls-10" points="62.8 14.6 56.9 21.2 56.9 14.6 53.5 14.6 53.5 30.7 56.9 30.7 56.9 25.8 58.8 23.8 63 30.7 67 30.7 61.1 21.3 67.3 14.6 62.8 14.6"/>
        <polygon class="cls-10" points="77.4 23.5 69.1 14.6 68.9 14.4 67.8 14.4 67.8 30.7 71.3 30.7 71.3 21.8 79.5 30.7 79.7 30.9 80.8 30.9 80.8 14.6 77.4 14.6 77.4 23.5"/>
        <path class="cls-10" d="M91.1,14.4c-4.6,0-8.2,3.6-8.2,8.3s3.5,8.3,8.2,8.3,8.2-3.6,8.2-8.3-3.6-8.3-8.2-8.3ZM91.1,17.7c2.7,0,4.7,2.1,4.7,5s-2,5-4.7,5-4.8-2.1-4.8-5,2-5,4.8-5Z"/>
        <path class="cls-10" d="M114.6,21.2c-.3.7-.5,1.5-.8,2.1-.2-.5-.5-1.1-.7-1.7l-2.6-6.3-.2-.4h-1l-2.7,6.7c-.3.6-.5,1.2-.7,1.7-.2-.6-.5-1.4-.8-2.1l-2.5-6.6h-3.7l6.3,15.9.2.4h1l3.3-8.4v-.3c.1,0,.2,0,.2.1l3.2,8.2.2.4h1l6.4-16.3h-3.7l-2.5,6.6Z"/>
        <path class="cls-10" d="M133.3,19.8c0-3.2-2.2-5.2-5.9-5.2h-5.5v16.1h3.4v-5.7h1.8l3,5.7h3.9l-3.5-6.4c1.7-.9,2.7-2.5,2.7-4.5ZM129.9,19.8c0,1.3-.8,2.1-2.3,2.1h-2.1v-4.1h2c1.6,0,2.5.7,2.5,2.1Z"/>
        <path class="cls-10" d="M145.3,30.7h3.2l1.4-3.2h5.5l1.4,3.2h3.7l-7.4-16.3h-1l-6.7,14.8v-1.6h-6.3v-12.9h-3.4v16.1h9.6ZM154,24.4h-2.8c.5-1.2,1-2.3,1.4-3.3.4,1,.8,2,1.4,3.3Z"/>
        <polygon class="cls-10" points="170.9 23.5 162.7 14.6 162.4 14.4 161.4 14.4 161.4 30.7 164.8 30.7 164.8 21.8 173 30.7 173.3 30.9 174.3 30.9 174.3 14.6 170.9 14.6 170.9 23.5"/>
        <path class="cls-10" d="M182.5,14.6h-4.9v16.1h5c5.1,0,8.5-3.2,8.5-8s-3.4-8-8.5-8ZM187.5,22.7c0,3-2,4.9-5,4.9h-1.6v-9.8h1.5c3.1,0,5.1,1.9,5.1,4.9Z"/>
      </g>
    </g>
  </g>
</svg>