<svg width="191" height="45" viewBox="0 0 191 45" fill="none" xmlns="http://www.w3.org/2000/svg">
<path d="M32.7441 6.12668C35.8953 3.91612 35.7744 2.89483 32.1192 1.17476C29.2368 -0.19592 28.4372 -0.310144 27.6645 0.536453C27.1875 1.03366 27.1606 1.4704 27.3353 3.88253C27.5705 7.20172 27.6309 7.37642 28.6993 7.81316C29.6802 8.22302 29.949 8.10207 32.7374 6.12668H32.7441Z" fill="url(#paint0_linear_0_1)"/>
<path d="M16.2557 9.62057C16.5244 9.35853 16.7932 0.240813 16.5513 0.240813C16.464 0.240813 14.5289 1.22851 12.2713 2.39762C10.0137 3.56001 8.1727 4.64177 8.19958 4.78287C8.26005 5.19273 16.0407 9.84902 16.249 9.61385L16.2557 9.62057Z" fill="url(#paint1_linear_0_1)"/>
<path d="M9.48286 16.5479C9.6038 16.4605 8.44141 14.5994 6.92963 12.4157L4.16811 8.45818L2.03146 12.8524C0.835478 15.2645 -0.0514336 17.2803 0.00231861 17.334C0.183732 17.5087 9.2141 16.783 9.47614 16.5479H9.48286Z" fill="url(#paint2_linear_0_1)"/>
<path d="M13.8165 14.0417C15.0057 12.8188 15.8389 11.7102 15.7179 11.596C15.4828 11.3944 10.5779 10.1379 9.98662 10.1379C9.8388 10.1379 9.69098 10.2253 9.69098 10.3395C9.69098 10.7158 11.2968 15.8155 11.4715 16.044C11.5925 16.1582 12.6272 15.2578 13.8165 14.035V14.0417Z" fill="url(#paint3_linear_0_1)"/>
<path d="M30.6613 10.6956C29.9759 11.4213 29.9759 12.9062 30.6277 13.6385C31.8438 14.9487 34.3433 13.9879 34.3433 12.1805C34.3433 10.3731 31.8505 9.3854 30.6613 10.6956Z" fill="url(#paint4_linear_0_1)"/>
<path d="M40.8203 16.5479C41.8618 16.5479 42.2784 16.3732 42.9906 15.7013C43.7028 15.0025 43.8506 14.5926 43.8506 13.4907C43.8506 12.3283 43.7028 11.9789 42.9301 11.2802C41.5661 10.0573 39.9872 10.0842 38.6232 11.428C36.547 13.4639 37.8505 16.521 40.8203 16.5546V16.5479Z" fill="url(#paint5_linear_0_1)"/>
<path d="M21.3348 14.7741C21.2139 14.6598 20.3538 14.1022 19.4333 13.5243L17.7133 12.4493V16.8435L19.6416 15.9096C20.7099 15.3855 21.4558 14.8883 21.3348 14.7741Z" fill="url(#paint6_linear_0_1)"/>
<path d="M26.6229 14.9756C26.6229 12.8188 26.2063 12.5568 24.4526 13.6923C23.6799 14.1895 23.0551 14.7405 23.0551 14.9756C23.0551 15.4392 25.138 16.5479 26.0249 16.5479C26.5624 16.5479 26.6162 16.3732 26.6162 14.9756H26.6229Z" fill="url(#paint7_linear_0_1)"/>
<path d="M12.8692 17.8917C12.6878 18.0933 14.7371 21.2109 15.0395 21.2109C15.2209 21.2109 16.82 18.1537 16.82 17.8648C16.82 17.6632 13.0775 17.6901 12.8692 17.8917Z" fill="url(#paint8_linear_0_1)"/>
<path d="M31.051 19.9544C31.4071 19.4035 31.6154 18.7316 31.4945 18.4964C31.1652 17.6498 29.0017 17.4482 28.3768 18.1739C28.0476 18.5502 28.0812 18.8122 28.5583 19.6857C29.3578 21.1437 30.2246 21.2311 31.051 19.9477V19.9544Z" fill="url(#paint9_linear_0_1)"/>
<path d="M5.29017 21.9366C5.16923 22.0239 10.699 24.9937 10.9946 24.9937C11.2634 24.9937 11.2029 18.9399 10.9342 18.7652C10.8132 18.7047 9.50972 19.3497 8.05169 20.2501C6.56678 21.1235 5.35064 21.8828 5.29017 21.9366Z" fill="url(#paint10_linear_0_1)"/>
<path d="M36.278 20.0418C35.5658 20.0418 35.1223 20.2433 34.6721 20.801C33.9599 21.6745 33.8994 22.1381 34.3765 23.0452C34.8535 23.9187 35.2097 24.1202 36.3385 24.1202C37.3463 24.1202 38.5087 23.0452 38.5087 22.0844C38.5087 21.1235 37.3463 20.0485 36.278 20.0485V20.0418Z" fill="url(#paint11_linear_0_1)"/>
<path d="M16.0742 23.8582L15.1268 21.9634L13.9107 23.8582L12.6945 25.7194L13.8838 25.8067C14.5355 25.8672 15.5165 25.8672 16.054 25.8067L17.0619 25.7194L16.0809 23.8582H16.0742Z" fill="url(#paint12_linear_0_1)"/>
<path d="M29.418 26.6802C31.6151 26.9422 32.2669 26.0419 31.0507 24.3823C30.2511 23.2736 29.4449 23.3072 28.8536 24.4427C28.1682 25.7261 28.3765 26.5659 29.418 26.6869V26.6802Z" fill="url(#paint13_linear_0_1)"/>
<path d="M0.183494 26.8885C0.183494 26.9758 1.22494 28.9579 2.46796 31.2558C4.10068 34.2256 4.8465 35.3343 5.02119 35.0386C5.14213 34.8035 5.22948 34.5146 5.22948 34.4272C5.2026 34.313 5.31683 34.1383 5.49824 34.0509C5.85435 33.8158 10.0739 27.2983 9.92608 27.1774C9.71779 27.0027 0.183494 26.7138 0.183494 26.8885Z" fill="url(#paint14_linear_0_1)"/>
<path d="M18.5131 26.7406C18.5131 26.7406 18.5131 27.5536 18.5399 28.548C18.6004 29.5693 18.7482 30.4966 18.8961 30.6444C19.0439 30.7586 19.877 30.3823 20.7707 29.744L22.4034 28.5816L20.5019 27.6813C19.4605 27.1572 18.5735 26.7474 18.5131 26.7474V26.7406Z" fill="url(#paint15_linear_0_1)"/>
<path d="M16.4034 31.8941C16.4639 31.8337 15.456 30.7586 14.1458 29.5089C12.5399 27.9366 11.7404 27.3521 11.653 27.6477C11.176 28.8974 10.0808 33.7351 10.2555 33.7351C10.5242 33.7351 16.316 32.0151 16.4034 31.9008V31.8941Z" fill="url(#paint16_linear_0_1)"/>
<path d="M42.8694 27.903C41.6802 27.1774 40.6992 27.1774 39.5099 27.8762C37.1919 29.2737 37.6084 32.6803 40.2557 33.4664C43.7026 34.4877 45.9266 29.7373 42.8694 27.903Z" fill="url(#paint17_linear_0_1)"/>
<path d="M26.5626 27.903C26.3543 27.9299 25.5548 28.2524 24.7821 28.6623C23.9825 29.0385 23.3577 29.5358 23.3577 29.7709C23.3577 30.2345 26.267 32.0419 26.6567 31.8068C27.0733 31.5447 26.9859 27.903 26.5694 27.903H26.5626Z" fill="url(#paint18_linear_0_1)"/>
<path d="M34.793 32.5392C35.1491 31.1416 33.2208 29.6836 31.7627 30.2412C30.4257 30.7653 30.13 32.3376 31.111 33.5604C32.2129 34.8975 34.3764 34.3197 34.793 32.5392Z" fill="url(#paint19_linear_0_1)"/>
<path d="M13.3999 36.4093C11.2633 37.8337 9.50962 39.1171 9.44915 39.2313C9.3618 39.4665 17.9151 43.5113 18.1234 43.3097C18.2712 43.1619 17.5321 34.0509 17.3843 33.9031C17.3238 33.8426 15.5433 34.9513 13.3999 36.4093Z" fill="url(#paint20_linear_0_1)"/>
<path d="M32.771 37.8069C30.8426 36.7318 30.0699 36.6982 28.968 37.78C28.1685 38.5661 28.108 38.8013 28.108 40.7229C28.108 42.5303 28.1953 42.8797 28.8538 43.4912C29.2368 43.901 29.9221 44.2168 30.3387 44.2168C31.3466 44.2168 34.5583 42.6177 34.9412 41.9189C35.7408 40.4071 35.0622 39.0969 32.771 37.8136V37.8069Z" fill="url(#paint21_linear_0_1)"/>
<path d="M71.3928 14.3457C68.7756 15.0371 66.9203 16.6998 65.9264 19.2679C65.3632 20.7002 65.3632 23.1037 65.9099 24.6676C67.4504 29.1289 72.7014 31.1538 77.1075 28.9972C79.8241 27.6637 81.3646 25.1285 81.3646 21.9842C81.3646 19.6301 80.553 17.737 78.8634 16.173C76.9585 14.4116 73.9437 13.6708 71.3928 14.3457ZM74.8216 17.2925C75.948 17.6217 77.1904 18.7412 77.7039 19.8771C78.2339 21.0788 78.2339 22.8732 77.7039 24.075C76.594 26.5772 73.5959 27.6144 71.2105 26.3138C68.1627 24.6841 67.8976 19.91 70.7302 17.951C72.0388 17.0455 73.2977 16.848 74.8216 17.2925Z" fill="black"/>
<path d="M115.305 14.3293C113.019 14.9714 111.777 16.5024 111.794 18.6425C111.794 19.9595 112.208 20.8813 113.135 21.7209C113.815 22.33 114.311 22.5934 116.68 23.5482C117.31 23.8116 118.088 24.2397 118.386 24.5031C118.85 24.9146 118.95 25.0957 118.9 25.5731C118.817 26.5279 118.237 26.8243 116.316 26.8901C114.908 26.923 114.543 26.8736 113.351 26.4621L111.976 26.0011V27.5157C111.976 29.0137 111.976 29.0302 112.44 29.1948C113.566 29.6393 114.527 29.7875 116.365 29.7875C118.055 29.7875 118.502 29.7381 119.314 29.4088C121.235 28.6516 122.08 27.4663 122.08 25.5073C122.08 24.108 121.716 23.2849 120.755 22.4123C120.374 22.0666 119.579 21.5728 118.999 21.3094C118.419 21.046 117.459 20.618 116.862 20.3546C116.266 20.0747 115.603 19.6796 115.372 19.4491C114.51 18.5931 115.04 17.4243 116.465 17.0292C117.359 16.7822 119.397 17.0292 120.507 17.523L121.252 17.8523V16.3213V14.7903L120.225 14.494C118.8 14.0989 116.448 14.0166 115.305 14.3293Z" fill="black"/>
<path d="M137.751 14.3457C135.846 14.8066 133.941 16.1236 132.963 17.6381C132.085 19.0374 131.787 20.1239 131.804 21.9842C131.804 23.8774 132.085 24.9309 132.93 26.2644C134.603 28.8984 137.9 30.2483 141.411 29.7379C142.223 29.6227 143.349 29.3758 143.946 29.1618L145.022 28.7996L145.072 25.7211L145.105 22.6427H143.532H141.958V24.6182C141.958 26.9558 142.057 26.8406 139.97 26.8406C138.314 26.8406 137.403 26.4949 136.409 25.5236C135.432 24.5358 135.084 23.6304 135.084 21.9842C135.084 19.8276 135.846 18.5436 137.734 17.5723C138.479 17.1772 138.728 17.1278 140.302 17.1443C141.925 17.1607 142.869 17.3418 144.327 17.9509C144.575 18.0497 144.608 17.9344 144.608 16.5845V15.0865L143.697 14.7572C141.875 14.0823 139.54 13.9176 137.751 14.3457Z" fill="black"/>
<path d="M182.343 15.8933C181.846 16.9304 180.189 20.3875 178.682 23.5647C177.158 26.7255 175.916 29.3759 175.916 29.4418C175.916 29.5076 176.677 29.5405 177.605 29.5241L179.278 29.4747L179.808 28.24L180.338 27.0053L183.237 26.956L186.136 26.923L186.732 28.24L187.329 29.557H189.002C189.913 29.557 190.658 29.5076 190.658 29.4582C190.658 29.3595 184.529 16.5518 183.717 14.9384L183.237 14.0001L182.343 15.8933ZM184.198 22.363C184.662 23.5318 185.026 24.5195 184.976 24.5525C184.943 24.6018 184.132 24.6018 183.171 24.5854L181.448 24.536L182.343 22.3465C182.84 21.1447 183.27 20.1899 183.287 20.2064C183.32 20.2393 183.717 21.2106 184.198 22.363Z" fill="black"/>
<path d="M54 21.9843V29.557H55.6565H57.3129V26.5115V23.4659H59.7976H62.2823V22.149V20.832H59.7976H57.3129V19.0211V17.2102H60.2945H63.2762V15.811V14.4117H58.6381H54V21.9843Z" fill="black"/>
<path d="M84.6445 21.9679V29.557H86.2182H87.7918V26.923V24.2891H88.9182H90.028L91.4029 26.923L92.7777 29.557H94.4508C95.925 29.557 96.0907 29.5241 96.0078 29.2771C95.9416 29.129 95.2624 27.8614 94.5005 26.4621C93.7219 25.0628 93.0925 23.861 93.109 23.8116C93.109 23.7623 93.4569 23.4824 93.8876 23.219C96.3391 21.6715 96.5545 17.5889 94.3017 15.7451C92.9931 14.6751 92.2477 14.5104 88.2556 14.4446L84.6445 14.3787V21.9679ZM91.9495 17.8194C92.6618 18.5108 92.7943 19.7948 92.2642 20.6344C91.7839 21.4081 91.055 21.6551 89.2826 21.6551H87.7918V19.4162V17.1773L89.6139 17.2432C91.4029 17.2926 91.436 17.2926 91.9495 17.8194Z" fill="black"/>
<path d="M99.3872 21.9843V29.557H104.439H109.492V28.24V26.923H106.096H102.7V25.0299V23.1367H105.433H108.166V21.8197V20.5027H105.433H102.7V18.8565V17.2102H105.93H109.16V15.811V14.4117H104.274H99.3872V21.9843Z" fill="black"/>
<path d="M125.228 21.9843V29.557H126.884H128.54V21.9843V14.4117H126.884H125.228V21.9843Z" fill="black"/>
<path d="M148.584 21.9843V29.557H150.24H151.897V26.3468V23.1367L155.011 23.1696L158.109 23.219L158.158 26.3798L158.191 29.557H159.765H161.339V21.9843V14.4117H159.765H158.191V17.4572V20.5027H155.044H151.897V17.4572V14.4117H150.24H148.584V21.9843Z" fill="black"/>
<path d="M164.187 15.7616L164.237 17.1279L166.357 17.1773L168.461 17.2267V23.3836V29.557H170.118H171.774V23.3836V17.2267L173.894 17.1773L175.998 17.1279L176.048 15.7616L176.097 14.4117H170.118H164.138L164.187 15.7616Z" fill="black"/>
<defs>
<linearGradient id="paint0_linear_0_1" x1="-183.965" y1="-18.2318" x2="235.873" y2="74.695" gradientUnits="userSpaceOnUse">
<stop stop-color="#0884D5"/>
<stop offset="1" stop-color="#009F83"/>
</linearGradient>
<linearGradient id="paint1_linear_0_1" x1="-72.9733" y1="-0.158339" x2="309.678" y2="90.9959" gradientUnits="userSpaceOnUse">
<stop stop-color="#0884D5"/>
<stop offset="1" stop-color="#009F83"/>
</linearGradient>
<linearGradient id="paint2_linear_0_1" x1="-37.1959" y1="11.3796" x2="308.648" y2="80.951" gradientUnits="userSpaceOnUse">
<stop stop-color="#0884D5"/>
<stop offset="1" stop-color="#009F83"/>
</linearGradient>
<linearGradient id="paint3_linear_0_1" x1="-127.072" y1="-7.3824" x2="414.613" y2="106.478" gradientUnits="userSpaceOnUse">
<stop stop-color="#0884D5"/>
<stop offset="1" stop-color="#009F83"/>
</linearGradient>
<linearGradient id="paint4_linear_0_1" x1="-386.63" y1="-65.8349" x2="391.562" y2="99.1386" gradientUnits="userSpaceOnUse">
<stop stop-color="#0884D5"/>
<stop offset="1" stop-color="#009F83"/>
</linearGradient>
<linearGradient id="paint5_linear_0_1" x1="-312.445" y1="-50.346" x2="211.345" y2="60.663" gradientUnits="userSpaceOnUse">
<stop stop-color="#0884D5"/>
<stop offset="1" stop-color="#009F83"/>
</linearGradient>
<linearGradient id="paint6_linear_0_1" x1="-309.119" y1="-32.5203" x2="571.42" y2="195.81" gradientUnits="userSpaceOnUse">
<stop stop-color="#0884D5"/>
<stop offset="1" stop-color="#009F83"/>
</linearGradient>
<linearGradient id="paint7_linear_0_1" x1="-377.15" y1="-67.2767" x2="539.175" y2="126.468" gradientUnits="userSpaceOnUse">
<stop stop-color="#0884D5"/>
<stop offset="1" stop-color="#009F83"/>
</linearGradient>
<linearGradient id="paint8_linear_0_1" x1="-241.263" y1="-44.1998" x2="591.146" y2="112.871" gradientUnits="userSpaceOnUse">
<stop stop-color="#0884D5"/>
<stop offset="1" stop-color="#009F83"/>
</linearGradient>
<linearGradient id="paint9_linear_0_1" x1="-476.33" y1="-93.0303" x2="498.927" y2="100.632" gradientUnits="userSpaceOnUse">
<stop stop-color="#0884D5"/>
<stop offset="1" stop-color="#009F83"/>
</linearGradient>
<linearGradient id="paint10_linear_0_1" x1="-110.781" y1="-8.83856" x2="441.506" y2="116.757" gradientUnits="userSpaceOnUse">
<stop stop-color="#0884D5"/>
<stop offset="1" stop-color="#009F83"/>
</linearGradient>
<linearGradient id="paint11_linear_0_1" x1="-423.412" y1="-81.1492" x2="317.096" y2="64.7699" gradientUnits="userSpaceOnUse">
<stop stop-color="#0884D5"/>
<stop offset="1" stop-color="#009F83"/>
</linearGradient>
<linearGradient id="paint12_linear_0_1" x1="-227.105" y1="-36.0611" x2="527.418" y2="108.084" gradientUnits="userSpaceOnUse">
<stop stop-color="#0884D5"/>
<stop offset="1" stop-color="#009F83"/>
</linearGradient>
<linearGradient id="paint13_linear_0_1" x1="-522.234" y1="-94.9529" x2="499.338" y2="121.008" gradientUnits="userSpaceOnUse">
<stop stop-color="#0884D5"/>
<stop offset="1" stop-color="#009F83"/>
</linearGradient>
<linearGradient id="paint14_linear_0_1" x1="-52.9453" y1="1.33441" x2="286.306" y2="62.9522" gradientUnits="userSpaceOnUse">
<stop stop-color="#0884D5"/>
<stop offset="1" stop-color="#009F83"/>
</linearGradient>
<linearGradient id="paint15_linear_0_1" x1="-330.193" y1="-48.3033" x2="508.564" y2="133.129" gradientUnits="userSpaceOnUse">
<stop stop-color="#0884D5"/>
<stop offset="1" stop-color="#009F83"/>
</linearGradient>
<linearGradient id="paint16_linear_0_1" x1="-154.028" y1="-12.0542" x2="375.311" y2="101.378" gradientUnits="userSpaceOnUse">
<stop stop-color="#0884D5"/>
<stop offset="1" stop-color="#009F83"/>
</linearGradient>
<linearGradient id="paint17_linear_0_1" x1="-335.47" y1="-55.0879" x2="181.62" y2="54.6577" gradientUnits="userSpaceOnUse">
<stop stop-color="#0884D5"/>
<stop offset="1" stop-color="#009F83"/>
</linearGradient>
<linearGradient id="paint18_linear_0_1" x1="-418.479" y1="-66.8408" x2="487.562" y2="146.714" gradientUnits="userSpaceOnUse">
<stop stop-color="#0884D5"/>
<stop offset="1" stop-color="#009F83"/>
</linearGradient>
<linearGradient id="paint19_linear_0_1" x1="-423.264" y1="-75.7039" x2="337.279" y2="82.5691" gradientUnits="userSpaceOnUse">
<stop stop-color="#0884D5"/>
<stop offset="1" stop-color="#009F83"/>
</linearGradient>
<linearGradient id="paint20_linear_0_1" x1="-112.09" y1="-8.3184" x2="260.63" y2="78.2927" gradientUnits="userSpaceOnUse">
<stop stop-color="#0884D5"/>
<stop offset="1" stop-color="#009F83"/>
</linearGradient>
<linearGradient id="paint21_linear_0_1" x1="-250.821" y1="-33.9966" x2="205.1" y2="64.841" gradientUnits="userSpaceOnUse">
<stop stop-color="#0884D5"/>
<stop offset="1" stop-color="#009F83"/>
</linearGradient>
</defs>
</svg>
