<?xml version="1.0" encoding="UTF-8"?>
<svg xmlns="http://www.w3.org/2000/svg" xmlns:xlink="http://www.w3.org/1999/xlink" version="1.1" viewBox="0 0 191 45">
  <defs>
    <style>
      .cls-1 {
        fill: url(#linear-gradient-8);
      }

      .cls-2 {
        fill: url(#linear-gradient-7);
      }

      .cls-3 {
        fill: url(#linear-gradient-5);
      }

      .cls-4 {
        fill: url(#linear-gradient-6);
      }

      .cls-5 {
        fill: url(#linear-gradient-9);
      }

      .cls-6 {
        fill: url(#linear-gradient-4);
      }

      .cls-7 {
        fill: url(#linear-gradient-3);
      }

      .cls-8 {
        fill: url(#linear-gradient-2);
      }

      .cls-9 {
        fill: url(#linear-gradient);
      }

      .cls-10 {
        fill: url(#linear-gradient-10);
      }

      .cls-11 {
        fill: url(#linear-gradient-11);
      }

      .cls-12 {
        fill: url(#linear-gradient-12);
      }

      .cls-13 {
        fill: url(#linear-gradient-13);
      }

      .cls-14 {
        fill: url(#linear-gradient-19);
      }

      .cls-15 {
        fill: url(#linear-gradient-14);
      }

      .cls-16 {
        fill: url(#linear-gradient-21);
      }

      .cls-17 {
        fill: url(#linear-gradient-20);
      }

      .cls-18 {
        fill: url(#linear-gradient-22);
      }

      .cls-19 {
        fill: url(#linear-gradient-15);
      }

      .cls-20 {
        fill: url(#linear-gradient-16);
      }

      .cls-21 {
        fill: url(#linear-gradient-17);
      }

      .cls-22 {
        fill: url(#linear-gradient-18);
      }
    </style>
    <linearGradient id="linear-gradient" x1="-178.7" y1="88" x2="241.1" y2="-4.9" gradientTransform="translate(0 46) scale(1 -1)" gradientUnits="userSpaceOnUse">
      <stop offset="0" stop-color="#0884d5"/>
      <stop offset="1" stop-color="#009f83"/>
    </linearGradient>
    <linearGradient id="linear-gradient-2" x1="-69.3" y1="61.5" x2="313.3" y2="-29.7" gradientTransform="translate(0 46) scale(1 -1)" gradientUnits="userSpaceOnUse">
      <stop offset="0" stop-color="#0884d5"/>
      <stop offset="1" stop-color="#009f83"/>
    </linearGradient>
    <linearGradient id="linear-gradient-3" x1="-36" y1="40.8" x2="309.9" y2="-28.8" gradientTransform="translate(0 46) scale(1 -1)" gradientUnits="userSpaceOnUse">
      <stop offset="0" stop-color="#0884d5"/>
      <stop offset="1" stop-color="#009f83"/>
    </linearGradient>
    <linearGradient id="linear-gradient-4" x1="-125.4" y1="61.5" x2="416.3" y2="-52.3" gradientTransform="translate(0 46) scale(1 -1)" gradientUnits="userSpaceOnUse">
      <stop offset="0" stop-color="#0884d5"/>
      <stop offset="1" stop-color="#009f83"/>
    </linearGradient>
    <linearGradient id="linear-gradient-5" x1="-384.4" y1="122.1" x2="393.7" y2="-42.8" gradientTransform="translate(0 46) scale(1 -1)" gradientUnits="userSpaceOnUse">
      <stop offset="0" stop-color="#0884d5"/>
      <stop offset="1" stop-color="#009f83"/>
    </linearGradient>
    <linearGradient id="linear-gradient-6" x1="-310.2" y1="106.9" x2="213.6" y2="-4.1" gradientTransform="translate(0 46) scale(1 -1)" gradientUnits="userSpaceOnUse">
      <stop offset="0" stop-color="#0884d5"/>
      <stop offset="1" stop-color="#009f83"/>
    </linearGradient>
    <linearGradient id="linear-gradient-7" x1="-300" y1="113.7" x2="580.6" y2="-114.6" gradientTransform="translate(0 46) scale(1 -1)" gradientUnits="userSpaceOnUse">
      <stop offset="0" stop-color="#0884d5"/>
      <stop offset="1" stop-color="#009f83"/>
    </linearGradient>
    <linearGradient id="linear-gradient-8" x1="-376.5" y1="116.3" x2="539.8" y2="-77.4" gradientTransform="translate(0 46) scale(1 -1)" gradientUnits="userSpaceOnUse">
      <stop offset="0" stop-color="#0884d5"/>
      <stop offset="1" stop-color="#009f83"/>
    </linearGradient>
    <linearGradient id="linear-gradient-9" x1="-244" y1="75.5" x2="588.4" y2="-81.5" gradientTransform="translate(0 46) scale(1 -1)" gradientUnits="userSpaceOnUse">
      <stop offset="0" stop-color="#0884d5"/>
      <stop offset="1" stop-color="#009f83"/>
    </linearGradient>
    <linearGradient id="linear-gradient-10" x1="-478.6" y1="127.7" x2="496.7" y2="-66" gradientTransform="translate(0 46) scale(1 -1)" gradientUnits="userSpaceOnUse">
      <stop offset="0" stop-color="#0884d5"/>
      <stop offset="1" stop-color="#009f83"/>
    </linearGradient>
    <linearGradient id="linear-gradient-11" x1="-111.4" y1="52" x2="440.9" y2="-73.6" gradientTransform="translate(0 46) scale(1 -1)" gradientUnits="userSpaceOnUse">
      <stop offset="0" stop-color="#0884d5"/>
      <stop offset="1" stop-color="#009f83"/>
    </linearGradient>
    <linearGradient id="linear-gradient-12" x1="-425.8" y1="114.9" x2="314.7" y2="-31" gradientTransform="translate(0 46) scale(1 -1)" gradientUnits="userSpaceOnUse">
      <stop offset="0" stop-color="#0884d5"/>
      <stop offset="1" stop-color="#009f83"/>
    </linearGradient>
    <linearGradient id="linear-gradient-13" x1="-229.7" y1="68.7" x2="524.9" y2="-75.5" gradientTransform="translate(0 46) scale(1 -1)" gradientUnits="userSpaceOnUse">
      <stop offset="0" stop-color="#0884d5"/>
      <stop offset="1" stop-color="#009f83"/>
    </linearGradient>
    <linearGradient id="linear-gradient-14" x1="-522.9" y1="137.7" x2="498.6" y2="-78.3" gradientTransform="translate(0 46) scale(1 -1)" gradientUnits="userSpaceOnUse">
      <stop offset="0" stop-color="#0884d5"/>
      <stop offset="1" stop-color="#009f83"/>
    </linearGradient>
    <linearGradient id="linear-gradient-15" x1="-56.3" y1="26.4" x2="283" y2="-35.2" gradientTransform="translate(0 46) scale(1 -1)" gradientUnits="userSpaceOnUse">
      <stop offset="0" stop-color="#0884d5"/>
      <stop offset="1" stop-color="#009f83"/>
    </linearGradient>
    <linearGradient id="linear-gradient-16" x1="-330.5" y1="92.8" x2="508.2" y2="-88.6" gradientTransform="translate(0 46) scale(1 -1)" gradientUnits="userSpaceOnUse">
      <stop offset="0" stop-color="#0884d5"/>
      <stop offset="1" stop-color="#009f83"/>
    </linearGradient>
    <linearGradient id="linear-gradient-17" x1="-155.5" y1="51" x2="373.8" y2="-62.4" gradientTransform="translate(0 46) scale(1 -1)" gradientUnits="userSpaceOnUse">
      <stop offset="0" stop-color="#0884d5"/>
      <stop offset="1" stop-color="#009f83"/>
    </linearGradient>
    <linearGradient id="linear-gradient-18" x1="-336.6" y1="95.7" x2="180.5" y2="-14.1" gradientTransform="translate(0 46) scale(1 -1)" gradientUnits="userSpaceOnUse">
      <stop offset="0" stop-color="#0884d5"/>
      <stop offset="1" stop-color="#009f83"/>
    </linearGradient>
    <linearGradient id="linear-gradient-19" x1="-416.7" y1="120.6" x2="489.4" y2="-93" gradientTransform="translate(0 46) scale(1 -1)" gradientUnits="userSpaceOnUse">
      <stop offset="0" stop-color="#0884d5"/>
      <stop offset="1" stop-color="#009f83"/>
    </linearGradient>
    <linearGradient id="linear-gradient-20" x1="-425.9" y1="109.2" x2="334.7" y2="-49.1" gradientTransform="translate(0 46) scale(1 -1)" gradientUnits="userSpaceOnUse">
      <stop offset="0" stop-color="#0884d5"/>
      <stop offset="1" stop-color="#009f83"/>
    </linearGradient>
    <linearGradient id="linear-gradient-21" x1="-115.8" y1="38.4" x2="256.9" y2="-48.2" gradientTransform="translate(0 46) scale(1 -1)" gradientUnits="userSpaceOnUse">
      <stop offset="0" stop-color="#0884d5"/>
      <stop offset="1" stop-color="#009f83"/>
    </linearGradient>
    <linearGradient id="linear-gradient-22" x1="-253.6" y1="67" x2="202.3" y2="-31.8" gradientTransform="translate(0 46) scale(1 -1)" gradientUnits="userSpaceOnUse">
      <stop offset="0" stop-color="#0884d5"/>
      <stop offset="1" stop-color="#009f83"/>
    </linearGradient>
  </defs>
  <!-- Generator: Adobe Illustrator 28.6.0, SVG Export Plug-In . SVG Version: 1.2.0 Build 709)  -->
  <g>
    <g id="Layer_1">
      <path class="cls-9" d="M32.7,6.1c3.2-2.2,3-3.2-.6-5-2.9-1.4-3.7-1.5-4.5-.6-.5.5-.5.9-.3,3.3.2,3.3.3,3.5,1.4,3.9,1,.4,1.2.3,4-1.7h0Z"/>
      <path class="cls-8" d="M16.3,9.6c.3-.3.5-9.4.3-9.4s-2,1-4.3,2.2c-2.3,1.2-4.1,2.2-4.1,2.4,0,.4,7.8,5.1,8,4.8h0Z"/>
      <path class="cls-7" d="M9.5,16.5c.1,0-1-1.9-2.6-4.1l-2.8-4-2.1,4.4C.8,15.3,0,17.3,0,17.3c.2.2,9.2-.6,9.5-.8h0Z"/>
      <path class="cls-6" d="M13.8,14c1.2-1.2,2-2.3,1.9-2.4-.2-.2-5.1-1.5-5.7-1.5s-.3,0-.3.2c0,.4,1.6,5.5,1.8,5.7.1.1,1.2-.8,2.3-2h0Z"/>
      <path class="cls-3" d="M30.7,10.7c-.7.7-.7,2.2,0,2.9,1.2,1.3,3.7.3,3.7-1.5s-2.5-2.8-3.7-1.5Z"/>
      <path class="cls-4" d="M40.8,16.5c1,0,1.5-.2,2.2-.8.7-.7.9-1.1.9-2.2s-.1-1.5-.9-2.2c-1.4-1.2-2.9-1.2-4.3.1-2.1,2-.8,5.1,2.2,5.1h0Z"/>
      <path class="cls-2" d="M21.3,14.8c-.1-.1-1-.7-1.9-1.2l-1.7-1.1v4.4l1.9-.9c1.1-.5,1.8-1,1.7-1.1Z"/>
      <path class="cls-1" d="M26.6,15c0-2.2-.4-2.4-2.2-1.3-.8.5-1.4,1-1.4,1.3,0,.5,2.1,1.6,3,1.6s.6-.2.6-1.6h0Z"/>
      <path class="cls-5" d="M12.9,17.9c-.2.2,1.9,3.3,2.2,3.3s1.8-3.1,1.8-3.3-3.7-.2-4,0Z"/>
      <path class="cls-10" d="M31.1,20c.4-.6.6-1.2.4-1.5-.3-.8-2.5-1-3.1-.3-.3.4-.3.6.2,1.5.8,1.5,1.7,1.5,2.5.3h0Z"/>
      <path class="cls-11" d="M5.3,21.9c-.1,0,5.4,3.1,5.7,3.1s.2-6.1,0-6.2c-.1,0-1.4.6-2.9,1.5-1.5.9-2.7,1.6-2.8,1.7Z"/>
      <path class="cls-12" d="M36.3,20c-.7,0-1.2.2-1.6.8-.7.9-.8,1.3-.3,2.2.5.9.8,1.1,2,1.1s2.2-1.1,2.2-2-1.2-2-2.2-2h0Z"/>
      <path class="cls-13" d="M16.1,23.9l-.9-1.9-1.2,1.9-1.2,1.9h1.2c.7.1,1.6.1,2.2,0h1c0,0-1-1.9-1-1.9h0Z"/>
      <path class="cls-15" d="M29.4,26.7c2.2.3,2.8-.6,1.6-2.3-.8-1.1-1.6-1.1-2.2,0-.7,1.3-.5,2.1.6,2.2h0Z"/>
      <path class="cls-19" d="M.2,26.9c0,0,1,2.1,2.3,4.4,1.6,3,2.4,4.1,2.6,3.8.1-.2.2-.5.2-.6,0-.1,0-.3.3-.4.4-.2,4.6-6.8,4.4-6.9-.2-.2-9.7-.5-9.7-.3Z"/>
      <path class="cls-20" d="M18.5,26.7s0,.8,0,1.8c0,1,.2,1.9.4,2.1.1.1,1-.3,1.9-.9l1.6-1.2-1.9-.9c-1-.5-1.9-.9-2-.9h0Z"/>
      <path class="cls-21" d="M16.4,31.9c0,0-.9-1.1-2.3-2.4-1.6-1.6-2.4-2.2-2.5-1.9-.5,1.2-1.6,6.1-1.4,6.1.3,0,6.1-1.7,6.1-1.8h0Z"/>
      <path class="cls-22" d="M42.9,27.9c-1.2-.7-2.2-.7-3.4,0-2.3,1.4-1.9,4.8.7,5.6,3.4,1,5.7-3.7,2.6-5.6Z"/>
      <path class="cls-14" d="M26.6,27.9c-.2,0-1,.3-1.8.8-.8.4-1.4.9-1.4,1.1,0,.5,2.9,2.3,3.3,2,.4-.3.3-3.9,0-3.9h0Z"/>
      <path class="cls-17" d="M34.8,32.5c.4-1.4-1.6-2.9-3-2.3-1.3.5-1.6,2.1-.7,3.3,1.1,1.3,3.3.8,3.7-1Z"/>
      <path class="cls-16" d="M13.4,36.4c-2.1,1.4-3.9,2.7-4,2.8,0,.2,8.5,4.3,8.7,4.1.1-.1-.6-9.3-.7-9.4,0,0-1.8,1-4,2.5Z"/>
      <path class="cls-18" d="M32.8,37.8c-1.9-1.1-2.7-1.1-3.8,0-.8.8-.9,1-.9,2.9s0,2.2.7,2.8c.4.4,1.1.7,1.5.7,1,0,4.2-1.6,4.6-2.3.8-1.5.1-2.8-2.2-4.1h0Z"/>
      <g>
        <polygon points="63.1 13.4 57.4 19.8 57.4 13.4 54.1 13.4 54.1 29 57.4 29 57.4 24.2 59.2 22.3 63.3 29 67.2 29 61.5 19.9 67.5 13.4 63.1 13.4"/>
        <polygon points="77.3 22.1 69.3 13.4 69.1 13.1 68 13.1 68 29 71.4 29 71.4 20.3 79.4 29.1 79.6 29.3 80.7 29.3 80.7 13.4 77.3 13.4 77.3 22.1"/>
        <path d="M90.7,13.1c-4.5,0-8,3.5-8,8.1s3.4,8.1,8,8.1,8-3.5,8-8.1-3.5-8.1-8-8.1ZM90.7,16.3c2.7,0,4.6,2,4.6,4.9s-1.9,4.9-4.6,4.9-4.6-2-4.6-4.9,2-4.9,4.6-4.9Z"/>
        <path d="M113.6,19.8c-.3.7-.5,1.4-.7,2.1-.2-.5-.4-1.1-.7-1.7l-2.5-6.1-.2-.4h-1l-2.7,6.6c-.2.6-.5,1.2-.7,1.7-.2-.6-.5-1.3-.7-2.1l-2.4-6.4h-3.6l6.1,15.5.2.4h1l3.2-8.2v-.3c.1,0,.2,0,.2.1l3.2,8,.2.4h1l6.3-15.9h-3.6l-2.4,6.4Z"/>
        <path d="M131.9,18.4c0-3.1-2.2-5.1-5.7-5.1h-5.3v15.7h3.4v-5.6h1.8l2.9,5.6h3.8l-3.4-6.3c1.6-.9,2.6-2.5,2.6-4.3ZM128.5,18.4c0,1.3-.8,2-2.3,2h-2.1v-4h1.9c1.6,0,2.4.7,2.4,2Z"/>
        <path d="M143.5,29h3.1l1.4-3.2h5.4l1.4,3.2h3.6l-7.2-15.9h-1l-6.5,14.4v-1.6h-6.1v-12.6h-3.4v15.7h9.3ZM152,22.9h-2.7c.5-1.2,1-2.2,1.4-3.2.4,1,.8,2,1.4,3.2Z"/>
        <polygon points="168.5 22.1 160.5 13.4 160.2 13.1 159.2 13.1 159.2 29 162.5 29 162.5 20.3 170.6 29.1 170.8 29.3 171.8 29.3 171.8 13.4 168.5 13.4 168.5 22.1"/>
        <path d="M179.7,13.4h-4.8v15.7h4.9c4.9,0,8.3-3.1,8.3-7.8s-3.3-7.8-8.3-7.8ZM184.7,21.2c0,2.9-1.9,4.8-4.9,4.8h-1.5v-9.6h1.4c3,0,5,1.9,5,4.8Z"/>
      </g>
    </g>
  </g>
</svg>