<svg width="40" height="40" viewBox="0 0 40 40" fill="none" xmlns="http://www.w3.org/2000/svg">
<path d="M28.8923 5.40598C31.6729 3.45546 31.5661 2.5543 28.341 1.03657C25.7976 -0.172874 25.0921 -0.27366 24.4103 0.473349C23.9893 0.912069 23.9656 1.29743 24.1198 3.42582C24.3273 6.35457 24.3806 6.50871 25.3233 6.89407C26.1889 7.25572 26.426 7.14901 28.8864 5.40598H28.8923Z" fill="url(#paint0_linear_87_2)"/>
<path d="M14.3435 8.48888C14.5806 8.25766 14.8178 0.212485 14.6043 0.212485C14.5273 0.212485 12.8198 1.084 10.8278 2.11558C8.83577 3.14124 7.21133 4.09575 7.23504 4.22025C7.2884 4.5819 14.1538 8.69045 14.3376 8.48295L14.3435 8.48888Z" fill="url(#paint1_linear_87_2)"/>
<path d="M8.36737 14.6013C8.47408 14.5242 7.44843 12.882 6.11448 10.9552L3.67781 7.46322L1.7925 11.3406C0.737198 13.4689 -0.0453833 15.2475 0.00204587 15.295C0.162119 15.4491 8.13022 14.8088 8.36144 14.6013H8.36737Z" fill="url(#paint2_linear_87_2)"/>
<path d="M12.1912 12.3899C13.2406 11.3109 13.9757 10.3327 13.869 10.2319C13.6615 10.054 9.33359 8.94538 8.81187 8.94538C8.68144 8.94538 8.55101 9.02245 8.55101 9.12324C8.55101 9.45525 9.96795 13.9551 10.1221 14.1567C10.2288 14.2574 11.1418 13.463 12.1912 12.384V12.3899Z" fill="url(#paint3_linear_87_2)"/>
<path d="M27.0545 9.43746C26.4498 10.0778 26.4498 11.388 27.0248 12.0342C28.0979 13.1903 30.3034 12.3425 30.3034 10.7477C30.3034 9.15288 28.1039 8.28137 27.0545 9.43746Z" fill="url(#paint4_linear_87_2)"/>
<path d="M36.0185 14.6013C36.9375 14.6013 37.305 14.4472 37.9335 13.8543C38.5619 13.2377 38.6923 12.8761 38.6923 11.9038C38.6923 10.8781 38.5619 10.5698 37.8801 9.95325C36.6766 8.87424 35.2834 8.89795 34.0799 10.0837C32.2479 11.8801 33.3981 14.5776 36.0185 14.6072V14.6013Z" fill="url(#paint5_linear_87_2)"/>
<path d="M18.8251 13.0361C18.7184 12.9354 17.9596 12.4433 17.1473 11.9334L15.6296 10.9848V14.8622L17.3311 14.0381C18.2738 13.5757 18.9319 13.1369 18.8251 13.0361Z" fill="url(#paint6_linear_87_2)"/>
<path d="M23.4912 13.214C23.4912 11.3109 23.1236 11.0797 21.5762 12.0816C20.8944 12.5204 20.343 13.0065 20.343 13.214C20.343 13.6231 22.1809 14.6013 22.9635 14.6013C23.4378 14.6013 23.4852 14.4472 23.4852 13.214H23.4912Z" fill="url(#paint7_linear_87_2)"/>
<path d="M11.3554 15.787C11.1953 15.9649 13.0035 18.7158 13.2703 18.7158C13.4304 18.7158 14.8414 16.0183 14.8414 15.7633C14.8414 15.5855 11.5392 15.6092 11.3554 15.787Z" fill="url(#paint8_linear_87_2)"/>
<path d="M27.3984 17.6071C27.7126 17.121 27.8964 16.5281 27.7897 16.3206C27.4992 15.5736 25.5902 15.3958 25.0388 16.0361C24.7483 16.3681 24.7779 16.5993 25.1989 17.37C25.9044 18.6565 26.6692 18.7336 27.3984 17.6012V17.6071Z" fill="url(#paint9_linear_87_2)"/>
<path d="M4.66787 19.3561C4.56116 19.4332 9.44043 22.0536 9.70129 22.0536C9.93844 22.0536 9.88508 16.7119 9.64794 16.5578C9.54122 16.5044 8.39106 17.0736 7.10455 17.868C5.79432 18.6387 4.72123 19.3087 4.66787 19.3561Z" fill="url(#paint10_linear_87_2)"/>
<path d="M32.0105 17.6842C31.3821 17.6842 30.9908 17.8621 30.5936 18.3541C29.9651 19.1249 29.9118 19.5339 30.3327 20.3343C30.7536 21.105 31.0679 21.2829 32.0639 21.2829C32.9532 21.2829 33.9788 20.3343 33.9788 19.4865C33.9788 18.6387 32.9532 17.6901 32.0105 17.6901V17.6842Z" fill="url(#paint11_linear_87_2)"/>
<path d="M14.1833 21.0517L13.3474 19.3798L12.2743 21.0517L11.2012 22.6939L12.2506 22.771C12.8257 22.8244 13.6913 22.8244 14.1656 22.771L15.0549 22.6939L14.1893 21.0517H14.1833Z" fill="url(#paint12_linear_87_2)"/>
<path d="M25.9575 23.5417C27.8961 23.7729 28.4712 22.9785 27.3981 21.5141C26.6926 20.5359 25.9812 20.5655 25.4595 21.5675C24.8547 22.6998 25.0385 23.4409 25.9575 23.5476V23.5417Z" fill="url(#paint13_linear_87_2)"/>
<path d="M0.161909 23.7255C0.161909 23.8026 1.08085 25.5515 2.17765 27.5791C3.61831 30.1996 4.27639 31.1778 4.43053 30.917C4.53725 30.7094 4.61432 30.4545 4.61432 30.3774C4.59061 30.2767 4.69139 30.1225 4.85147 30.0454C5.16569 29.8379 8.88888 24.0872 8.75845 23.9804C8.57466 23.8263 0.161909 23.5714 0.161909 23.7255Z" fill="url(#paint14_linear_87_2)"/>
<path d="M16.3353 23.5951C16.3353 23.5951 16.3353 24.3124 16.359 25.1899C16.4124 26.091 16.5428 26.9092 16.6733 27.0396C16.8037 27.1404 17.5388 26.8084 18.3274 26.2452L19.768 25.2195L18.0902 24.4251C17.1713 23.9626 16.3887 23.601 16.3353 23.601V23.5951Z" fill="url(#paint15_linear_87_2)"/>
<path d="M14.4738 28.1423C14.5272 28.089 13.6379 27.1404 12.4818 26.0377C11.0648 24.6504 10.3593 24.1346 10.2823 24.3954C9.86132 25.4982 8.89495 29.7668 9.0491 29.7668C9.28624 29.7668 14.3967 28.249 14.4738 28.1483V28.1423Z" fill="url(#paint16_linear_87_2)"/>
<path d="M37.8266 24.6207C36.7772 23.9804 35.9116 23.9804 34.8623 24.597C32.8169 25.8302 33.1845 28.836 35.5204 29.5296C38.5617 30.4308 40.5241 26.2392 37.8266 24.6207Z" fill="url(#paint17_linear_87_2)"/>
<path d="M23.438 24.6207C23.2542 24.6444 22.5487 24.929 21.8669 25.2907C21.1614 25.6227 20.61 26.0614 20.61 26.2689C20.61 26.678 23.1771 28.2728 23.521 28.0653C23.8886 27.8341 23.8115 24.6207 23.4439 24.6207H23.438Z" fill="url(#paint18_linear_87_2)"/>
<path d="M30.7002 28.7115C31.0144 27.4783 29.3129 26.1918 28.0264 26.6839C26.8466 27.1463 26.5857 28.5336 27.4513 29.6126C28.4236 30.7924 30.3326 30.2826 30.7002 28.7115Z" fill="url(#paint19_linear_87_2)"/>
<path d="M11.8237 32.1264C9.93835 33.3833 8.39098 34.5156 8.33762 34.6164C8.26055 34.8239 15.8077 38.393 15.9915 38.2151C16.1219 38.0847 15.4698 30.0454 15.3394 29.915C15.286 29.8616 13.7149 30.8399 11.8237 32.1264Z" fill="url(#paint20_linear_87_2)"/>
<path d="M28.916 33.3595C27.2145 32.411 26.5327 32.3813 25.5604 33.3358C24.8549 34.0295 24.8016 34.237 24.8016 35.9326C24.8016 37.5274 24.8786 37.8357 25.4596 38.3752C25.7976 38.7368 26.4023 39.0155 26.7699 39.0155C27.6592 39.0155 30.4931 37.6045 30.831 36.9879C31.5365 35.6539 30.9377 34.4978 28.916 33.3655V33.3595Z" fill="url(#paint21_linear_87_2)"/>
<defs>
<linearGradient id="paint0_linear_87_2" x1="-162.325" y1="-16.0872" x2="208.126" y2="65.9084" gradientUnits="userSpaceOnUse">
<stop stop-color="#0884D5"/>
<stop offset="1" stop-color="#009F83"/>
</linearGradient>
<linearGradient id="paint1_linear_87_2" x1="-64.3892" y1="-0.139713" x2="273.25" y2="80.2918" gradientUnits="userSpaceOnUse">
<stop stop-color="#0884D5"/>
<stop offset="1" stop-color="#009F83"/>
</linearGradient>
<linearGradient id="paint2_linear_87_2" x1="-32.8205" y1="10.041" x2="272.341" y2="71.4285" gradientUnits="userSpaceOnUse">
<stop stop-color="#0884D5"/>
<stop offset="1" stop-color="#009F83"/>
</linearGradient>
<linearGradient id="paint3_linear_87_2" x1="-112.124" y1="-6.51399" x2="365.841" y2="93.9523" gradientUnits="userSpaceOnUse">
<stop stop-color="#0884D5"/>
<stop offset="1" stop-color="#009F83"/>
</linearGradient>
<linearGradient id="paint4_linear_87_2" x1="-341.149" y1="-58.0906" x2="345.502" y2="87.4766" gradientUnits="userSpaceOnUse">
<stop stop-color="#0884D5"/>
<stop offset="1" stop-color="#009F83"/>
</linearGradient>
<linearGradient id="paint5_linear_87_2" x1="-275.691" y1="-44.4236" x2="186.484" y2="53.527" gradientUnits="userSpaceOnUse">
<stop stop-color="#0884D5"/>
<stop offset="1" stop-color="#009F83"/>
</linearGradient>
<linearGradient id="paint6_linear_87_2" x1="-272.757" y1="-28.6949" x2="504.203" y2="172.777" gradientUnits="userSpaceOnUse">
<stop stop-color="#0884D5"/>
<stop offset="1" stop-color="#009F83"/>
</linearGradient>
<linearGradient id="paint7_linear_87_2" x1="-332.785" y1="-59.3628" x2="475.75" y2="111.592" gradientUnits="userSpaceOnUse">
<stop stop-color="#0884D5"/>
<stop offset="1" stop-color="#009F83"/>
</linearGradient>
<linearGradient id="paint8_linear_87_2" x1="-212.882" y1="-39.0005" x2="521.608" y2="99.5936" gradientUnits="userSpaceOnUse">
<stop stop-color="#0884D5"/>
<stop offset="1" stop-color="#009F83"/>
</linearGradient>
<linearGradient id="paint9_linear_87_2" x1="-420.298" y1="-82.0869" x2="440.237" y2="88.7944" gradientUnits="userSpaceOnUse">
<stop stop-color="#0884D5"/>
<stop offset="1" stop-color="#009F83"/>
</linearGradient>
<linearGradient id="paint10_linear_87_2" x1="-97.7493" y1="-7.79885" x2="389.57" y2="103.023" gradientUnits="userSpaceOnUse">
<stop stop-color="#0884D5"/>
<stop offset="1" stop-color="#009F83"/>
</linearGradient>
<linearGradient id="paint11_linear_87_2" x1="-373.605" y1="-71.6034" x2="279.795" y2="57.1508" gradientUnits="userSpaceOnUse">
<stop stop-color="#0884D5"/>
<stop offset="1" stop-color="#009F83"/>
</linearGradient>
<linearGradient id="paint12_linear_87_2" x1="-200.39" y1="-31.8191" x2="465.377" y2="95.3697" gradientUnits="userSpaceOnUse">
<stop stop-color="#0884D5"/>
<stop offset="1" stop-color="#009F83"/>
</linearGradient>
<linearGradient id="paint13_linear_87_2" x1="-460.802" y1="-83.7833" x2="440.6" y2="106.774" gradientUnits="userSpaceOnUse">
<stop stop-color="#0884D5"/>
<stop offset="1" stop-color="#009F83"/>
</linearGradient>
<linearGradient id="paint14_linear_87_2" x1="-46.7172" y1="1.17744" x2="252.627" y2="55.547" gradientUnits="userSpaceOnUse">
<stop stop-color="#0884D5"/>
<stop offset="1" stop-color="#009F83"/>
</linearGradient>
<linearGradient id="paint15_linear_87_2" x1="-291.351" y1="-42.6212" x2="448.74" y2="117.468" gradientUnits="userSpaceOnUse">
<stop stop-color="#0884D5"/>
<stop offset="1" stop-color="#009F83"/>
</linearGradient>
<linearGradient id="paint16_linear_87_2" x1="-135.91" y1="-10.6362" x2="331.162" y2="89.4525" gradientUnits="userSpaceOnUse">
<stop stop-color="#0884D5"/>
<stop offset="1" stop-color="#009F83"/>
</linearGradient>
<linearGradient id="paint17_linear_87_2" x1="-296.008" y1="-48.6077" x2="160.256" y2="48.2281" gradientUnits="userSpaceOnUse">
<stop stop-color="#0884D5"/>
<stop offset="1" stop-color="#009F83"/>
</linearGradient>
<linearGradient id="paint18_linear_87_2" x1="-369.252" y1="-58.9781" x2="430.208" y2="129.456" gradientUnits="userSpaceOnUse">
<stop stop-color="#0884D5"/>
<stop offset="1" stop-color="#009F83"/>
</linearGradient>
<linearGradient id="paint19_linear_87_2" x1="-373.474" y1="-66.7986" x2="297.604" y2="72.8563" gradientUnits="userSpaceOnUse">
<stop stop-color="#0884D5"/>
<stop offset="1" stop-color="#009F83"/>
</linearGradient>
<linearGradient id="paint20_linear_87_2" x1="-98.9047" y1="-7.33988" x2="229.971" y2="69.0829" gradientUnits="userSpaceOnUse">
<stop stop-color="#0884D5"/>
<stop offset="1" stop-color="#009F83"/>
</linearGradient>
<linearGradient id="paint21_linear_87_2" x1="-221.316" y1="-29.9975" x2="180.973" y2="57.2136" gradientUnits="userSpaceOnUse">
<stop stop-color="#0884D5"/>
<stop offset="1" stop-color="#009F83"/>
</linearGradient>
</defs>
</svg>
