<?xml version="1.0" encoding="UTF-8"?>
<svg id="Layer_1" data-name="Layer 1" xmlns="http://www.w3.org/2000/svg" viewBox="0 0 100 100">
  <defs>
    <style>
      .cls-1 {
        stroke-width: 3px;
      }

      .cls-1, .cls-2 {
        fill: none;
        stroke: #41af87;
        stroke-linecap: round;
        stroke-linejoin: round;
      }

      .cls-2 {
        stroke-width: 2px;
      }

      .cls-3 {
        fill: #d6fcf7;
      }

      .cls-4 {
        fill: #09a37c;
      }
    </style>
  </defs>
  <circle class="cls-3" cx="50.26" cy="49.74" r="49.74"/>
  <path class="cls-1" d="M78.2,39.23v24.95c0,2.7-2.19,5.21-4.88,5.55l-.93.12c-6.11.81-15.53,3.92-20.91,6.89-.73.42-1.93.42-2.69,0l-.12-.05c-5.38-2.94-14.77-6.03-20.85-6.84l-.82-.12c-2.69-.34-4.88-2.85-4.88-5.55V30.32c0-3.33,2.73-5.86,6.06-5.58,5.89.47,14.8,3.44,19.78,6.56l.7.42c.82.51,2.16.51,2.98,0l.47-.31c1.59-1.01,3.6-1.99,5.78-2.89"/>
  <path class="cls-2" d="M50.17,32.65v42.04"/>
  <path class="cls-1" d="M38.26,41.06h-6.31"/>
  <path class="cls-1" d="M40.36,49.47h-8.41"/>
  <circle class="cls-1" cx="69.31" cy="31.87" r="11.5"/>
  <path class="cls-4" d="M67.97,35.88c-.34,0-.67-.12-.94-.39l-2.69-2.69c-.51-.51-.51-1.36,0-1.87.51-.51,1.36-.51,1.87,0l1.75,1.75,4.44-4.44c.51-.51,1.36-.51,1.87,0,.51.51.51,1.36,0,1.87l-5.37,5.37c-.27.27-.6.39-.94.39Z"/>
</svg>