<?xml version="1.0" encoding="UTF-8"?>
<svg id="Layer_1" data-name="Layer 1" xmlns="http://www.w3.org/2000/svg" viewBox="0 0 100 100">
  <defs>
    <style>
      .cls-1 {
        fill: #d6fcf7;
      }

      .cls-2 {
        fill: #09a37c;
      }
    </style>
  </defs>
  <circle class="cls-1" cx="50.26" cy="49.74" r="49.74"/>
  <path class="cls-2" d="M40.4,31.45c-.99,0-1.81-.82-1.81-1.81v-7.22c0-.99.82-1.81,1.81-1.81s1.81.82,1.81,1.81v7.22c0,.99-.82,1.81-1.81,1.81Z"/>
  <path class="cls-2" d="M59.66,31.45c-.99,0-1.81-.82-1.81-1.81v-7.22c0-.99.82-1.81,1.81-1.81s1.81.82,1.81,1.81v7.22c0,.99-.82,1.81-1.81,1.81Z"/>
  <path class="cls-2" d="M41.6,52.52c-.63,0-1.25-.26-1.71-.7-.43-.46-.7-1.06-.7-1.71,0-.31.07-.63.19-.91.12-.29.29-.55.51-.79.89-.89,2.5-.89,3.42,0,.43.46.7,1.08.7,1.71,0,.14-.02.31-.05.48-.02.14-.07.29-.14.43-.05.14-.12.29-.22.43-.1.12-.19.24-.29.36-.46.43-1.08.7-1.71.7Z"/>
  <path class="cls-2" d="M50.03,52.52c-.31,0-.63-.07-.91-.19-.31-.12-.55-.29-.79-.51-.43-.46-.7-1.06-.7-1.71,0-.31.07-.63.19-.91s.29-.55.51-.79c.24-.22.48-.39.79-.51.89-.36,1.95-.17,2.62.51.43.46.7,1.08.7,1.71,0,.14-.02.31-.05.48-.02.14-.07.29-.14.43-.05.14-.12.29-.22.43-.07.12-.19.24-.29.36-.46.43-1.08.7-1.71.7Z"/>
  <path class="cls-2" d="M41.6,60.95c-.31,0-.63-.07-.91-.19-.31-.12-.58-.29-.79-.51-.22-.22-.39-.48-.51-.79-.12-.29-.19-.6-.19-.91s.07-.63.19-.91c.12-.31.29-.58.51-.79.22-.22.48-.39.79-.51.58-.24,1.25-.26,1.83,0,.31.12.58.29.79.51.22.22.39.48.51.79.12.29.19.6.19.91s-.07.63-.19.91c-.12.31-.29.58-.51.79-.22.22-.48.39-.79.51-.29.12-.6.19-.91.19Z"/>
  <path class="cls-2" d="M70.49,41.3H29.56c-.99,0-1.81-.82-1.81-1.81s.82-1.81,1.81-1.81h40.93c.99,0,1.81.82,1.81,1.81s-.82,1.81-1.81,1.81Z"/>
  <path class="cls-2" d="M64.47,74.79c-2.82,0-5.49-1.01-7.54-2.86-.87-.72-1.64-1.64-2.26-2.7-1.06-1.73-1.64-3.78-1.64-5.87,0-6.31,5.13-11.44,11.44-11.44,3.27,0,6.4,1.42,8.57,3.88,1.85,2.12,2.86,4.79,2.86,7.56,0,2.09-.58,4.14-1.66,5.9-2.02,3.42-5.78,5.54-9.77,5.54ZM64.47,55.53c-4.31,0-7.82,3.52-7.82,7.82,0,1.42.39,2.82,1.13,4.02.41.72.94,1.32,1.52,1.83,1.44,1.3,3.25,1.97,5.18,1.97,2.77,0,5.27-1.42,6.69-3.78.75-1.23,1.13-2.6,1.13-4.04,0-1.88-.7-3.71-1.95-5.18-1.49-1.69-3.64-2.65-5.87-2.65Z"/>
  <path class="cls-2" d="M63.72,66.54c-.31,0-.61-.11-.86-.36l-1.6-1.6c-.47-.47-.47-1.24,0-1.71.47-.47,1.24-.47,1.71,0l.77.77,2.58-2.39c.48-.45,1.26-.42,1.71.06.45.48.42,1.26-.06,1.71l-3.44,3.18c-.24.21-.53.32-.82.32Z"/>
  <path class="cls-2" d="M58.14,72.38h-17.74c-8.79,0-13.84-5.06-13.84-13.84v-20.46c0-8.79,5.06-13.84,13.84-13.84h19.26c8.79,0,13.84,5.06,13.84,13.84v18.92c0,.75-.46,1.42-1.18,1.69-.7.26-1.49.07-2-.51-1.49-1.69-3.64-2.65-5.87-2.65-4.31,0-7.82,3.52-7.82,7.82,0,1.42.39,2.82,1.13,4.02.41.72.94,1.32,1.52,1.83.58.48.79,1.28.53,2-.22.7-.89,1.18-1.66,1.18ZM40.4,27.84c-6.89,0-10.23,3.35-10.23,10.23v20.46c0,6.89,3.35,10.23,10.23,10.23h14.01c-.89-1.64-1.37-3.49-1.37-5.42,0-6.31,5.13-11.44,11.44-11.44,1.9,0,3.78.48,5.42,1.37v-15.22c0-6.89-3.35-10.23-10.23-10.23h-19.26Z"/>
</svg>