<?xml version="1.0" encoding="UTF-8"?>
<svg id="Layer_1" data-name="Layer 1" xmlns="http://www.w3.org/2000/svg" viewBox="0 0 100 100">
  <defs>
    <style>
      .cls-1 {
        fill: #d6fcf7;
      }

      .cls-2 {
        fill: #09a37c;
      }
    </style>
  </defs>
  <circle class="cls-1" cx="50.26" cy="49.74" r="49.74"/>
  <path class="cls-2" d="M60.07,71.66c-.48,0-.96-.18-1.34-.56l-3.84-3.84c-.73-.73-.73-1.95,0-2.68.73-.73,1.95-.73,2.68,0l2.5,2.5,6.34-6.34c.73-.73,1.95-.73,2.68,0,.73.73.73,1.95,0,2.68l-7.68,7.68c-.38.38-.86.56-1.34.56Z"/>
  <path class="cls-2" d="M50.47,47.16h-.2c-.13-.03-.3-.03-.45,0-7.33-.23-12.86-5.99-12.86-13.09-.03-3.49,1.34-6.77,3.81-9.25,2.48-2.48,5.76-3.86,9.27-3.86,7.22,0,13.11,5.89,13.11,13.11s-5.53,12.83-12.61,13.09h-.08ZM50.04,24.75c-2.5,0-4.82.99-6.59,2.73-1.74,1.77-2.7,4.09-2.7,6.57,0,5.05,3.94,9.14,8.97,9.3.15-.03.48-.03.81,0,4.98-.23,8.84-4.29,8.84-9.3s-4.19-9.3-9.32-9.3Z"/>
  <path class="cls-2" d="M50.04,74.79c-5.15,0-10.03-1.34-13.72-3.81-3.51-2.35-5.43-5.56-5.43-9.02s1.95-6.64,5.43-8.97c7.55-5.05,19.83-5.05,27.38,0,.86.58,1.11,1.77.53,2.63-.58.88-1.77,1.11-2.63.53-6.29-4.19-16.9-4.19-23.19,0-2.43,1.62-3.74,3.66-3.74,5.81s1.31,4.24,3.74,5.86c3.06,2.05,7.17,3.16,11.59,3.16,1.04,0,1.89.86,1.89,1.89s-.83,1.92-1.87,1.92Z"/>
</svg>