<?xml version="1.0" encoding="UTF-8"?>
<svg id="Layer_1" data-name="Layer 1" xmlns="http://www.w3.org/2000/svg" viewBox="0 0 100 100">
  <defs>
    <style>
      .cls-1 {
        fill: #efd3d4;
      }

      .cls-2 {
        fill: #be271b;
      }
    </style>
  </defs>
  <circle class="cls-1" cx="50.26" cy="49.74" r="49.74"/>
  <path class="cls-2" d="M58.21,72.44c-.5,0-.99-.18-1.39-.58-.76-.76-.76-2.02,0-2.77l7.38-7.38c.76-.76,2.02-.76,2.77,0,.76.76.76,2.02,0,2.77l-7.38,7.38c-.39.39-.89.58-1.39.58Z"/>
  <path class="cls-2" d="M65.59,72.44c-.5,0-.99-.18-1.39-.58l-7.38-7.38c-.76-.76-.76-2.02,0-2.77.76-.76,2.02-.76,2.77,0l7.38,7.38c.76.76.76,2.02,0,2.77-.39.39-.89.58-1.39.58Z"/>
  <path class="cls-2" d="M49.23,46.16h-.21c-.13-.03-.31-.03-.47,0-7.59-.24-13.32-6.2-13.32-13.56s6.1-13.58,13.58-13.58,13.58,6.1,13.58,13.58c-.03,7.35-5.78,13.32-13.09,13.56h-.08ZM48.81,22.94c-5.31,0-9.66,4.34-9.66,9.66s4.08,9.45,9.29,9.63c.16-.03.5-.03.84,0,5.13-.24,9.16-4.45,9.19-9.63,0-5.31-4.34-9.66-9.66-9.66Z"/>
  <path class="cls-2" d="M48.81,74.79c-5.34,0-10.39-1.39-14.21-3.95-3.64-2.43-5.63-5.76-5.63-9.34s2.02-6.88,5.63-9.29c7.83-5.23,20.55-5.23,28.37,0,.89.6,1.15,1.83.55,2.72-.6.92-1.83,1.15-2.72.55-6.52-4.34-17.51-4.34-24.03,0-2.51,1.68-3.87,3.8-3.87,6.02s1.39,4.4,3.87,6.07c3.17,2.12,7.43,3.27,12.01,3.27,1.07,0,1.96.89,1.96,1.96s-.86,1.99-1.94,1.99Z"/>
</svg>