<?xml version="1.0" encoding="UTF-8"?>
<svg id="Layer_1" data-name="Layer 1" xmlns="http://www.w3.org/2000/svg" viewBox="0 0 100 100">
  <defs>
    <style>
      .cls-1 {
        fill: none;
        stroke: #41af87;
        stroke-linecap: round;
        stroke-linejoin: round;
        stroke-width: 3px;
      }

      .cls-2 {
        fill: #d6fcf7;
      }

      .cls-3 {
        fill: #09a37c;
      }
    </style>
  </defs>
  <circle class="cls-2" cx="50.26" cy="49.74" r="49.74"/>
  <path class="cls-1" d="M78.2,47.88v16.3c0,2.7-2.19,5.21-4.88,5.55l-.93.12c-6.11.81-15.53,3.92-20.91,6.89-.73.42-1.93.42-2.69,0l-.12-.05c-5.38-2.94-14.77-6.03-20.85-6.84l-.82-.12c-2.69-.34-4.88-2.85-4.88-5.55V30.32c0-3.33,2.73-5.86,6.06-5.58,5.89.47,14.8,3.44,19.78,6.56l.7.42c.82.51,2.16.51,2.98,0l.47-.31"/>
  <path class="cls-1" d="M50.17,32.65v42.04"/>
  <path class="cls-1" d="M38.26,41.06h-6.31"/>
  <path class="cls-1" d="M40.36,49.47h-8.41"/>
  <path class="cls-3" d="M66.25,23.74c-1.93.55-3.4,2.26-3.42,4.27v.04c0,3.13,1.83,4.12,3.19,4.6l2.14.75,3.19,1.11,1.09.37c.72.25,1.05.42,1.05,1.57,0,.91-.66,1.66-1.5,1.66h-4c-1.09,0-1.96-.96-1.96-2.14,0-.87-.72-1.59-1.59-1.59s-1.6.72-1.6,1.59c0,2.95,2.32,5.32,5.16,5.32h4c2.59,0,4.69-2.16,4.69-4.86,0-3.13-1.83-4.14-3.19-4.6l-2.14-.75-3.19-1.11-1.09-.37c-.72-.25-1.05-.42-1.05-1.57,0-.91.66-1.66,1.5-1.66h4c1.09,0,1.96.96,1.96,2.13,0,.87.72,1.6,1.59,1.6s1.6-.72,1.6-1.6c0-2.94-2.31-5.32-5.16-5.32h-3.36s-1.92.55-1.92.55Z"/>
  <path class="cls-3" d="M69.76,43.48c-.87,0-1.6-.72-1.6-1.6v-19.18c0-.87.72-1.6,1.6-1.6s1.6.72,1.6,1.6v19.18c0,.87-.72,1.6-1.6,1.6Z"/>
  <circle class="cls-1" cx="69.31" cy="32.65" r="17.25"/>
</svg>