<?xml version="1.0" encoding="UTF-8"?>
<svg id="Layer_1" data-name="Layer 1" xmlns="http://www.w3.org/2000/svg" viewBox="0 0 100 100">
  <defs>
    <style>
      .cls-1 {
        fill: #338def;
      }

      .cls-2 {
        fill: #d4e8ff;
      }
    </style>
  </defs>
  <circle class="cls-2" cx="50.26" cy="49.74" r="49.74"/>
  <path class="cls-1" d="M40.39,31.52c-.99,0-1.8-.82-1.8-1.8v-7.21c0-.99.82-1.8,1.8-1.8s1.8.82,1.8,1.8v7.21c0,.99-.82,1.8-1.8,1.8Z"/>
  <path class="cls-1" d="M59.61,31.52c-.99,0-1.8-.82-1.8-1.8v-7.21c0-.99.82-1.8,1.8-1.8s1.8.82,1.8,1.8v7.21c0,.99-.82,1.8-1.8,1.8Z"/>
  <path class="cls-1" d="M41.59,52.55c-.31,0-.62-.07-.91-.19-.31-.12-.55-.29-.79-.5-.43-.46-.7-1.06-.7-1.71,0-.31.07-.62.19-.91.12-.29.29-.55.5-.79.24-.22.48-.38.79-.5.87-.36,1.95-.17,2.62.5.43.46.7,1.08.7,1.71,0,.14-.02.31-.05.48-.02.14-.07.29-.14.43-.05.14-.12.29-.22.43-.07.12-.19.24-.29.36-.46.43-1.08.7-1.71.7Z"/>
  <path class="cls-1" d="M50,52.55c-.31,0-.62-.07-.91-.19-.31-.12-.55-.29-.79-.5-.43-.46-.7-1.06-.7-1.71,0-.31.07-.62.19-.91s.29-.55.5-.79c.24-.22.48-.38.79-.5.87-.38,1.95-.17,2.62.5.43.46.7,1.08.7,1.71,0,.14-.02.31-.05.48-.02.14-.07.29-.14.43-.05.14-.12.29-.22.43-.07.12-.19.24-.29.36-.46.43-1.08.7-1.71.7Z"/>
  <path class="cls-1" d="M58.41,52.55c-.31,0-.62-.07-.91-.19-.31-.12-.55-.29-.79-.5-.1-.12-.19-.24-.29-.36-.1-.14-.17-.29-.22-.43-.07-.14-.12-.29-.14-.43-.02-.17-.05-.34-.05-.48,0-.62.26-1.25.7-1.71.24-.22.48-.38.79-.5.89-.38,1.95-.17,2.62.5.43.46.7,1.08.7,1.71,0,.14-.02.31-.05.48-.02.14-.07.29-.14.43-.05.14-.12.29-.22.43-.07.12-.19.24-.29.36-.46.43-1.08.7-1.71.7Z"/>
  <path class="cls-1" d="M41.59,60.97c-.31,0-.62-.07-.91-.19s-.55-.29-.79-.51c-.43-.46-.7-1.08-.7-1.71,0-.31.07-.62.19-.91.12-.31.29-.58.5-.79.89-.89,2.52-.89,3.41,0,.43.46.7,1.08.7,1.71s-.26,1.25-.7,1.71c-.46.43-1.08.7-1.71.7Z"/>
  <path class="cls-1" d="M50,60.97c-.62,0-1.25-.26-1.71-.7-.43-.46-.7-1.08-.7-1.71,0-.31.07-.62.19-.91.12-.31.29-.58.5-.79.89-.89,2.52-.89,3.41,0,.22.22.38.48.5.79.12.29.19.6.19.91,0,.62-.26,1.25-.7,1.71-.46.43-1.08.7-1.71.7Z"/>
  <path class="cls-1" d="M58.41,60.97c-.62,0-1.25-.26-1.71-.7-.22-.22-.38-.48-.5-.79-.12-.29-.19-.6-.19-.91s.07-.62.19-.91c.12-.31.29-.58.5-.79.55-.55,1.39-.82,2.16-.65.17.02.31.07.46.14.14.05.29.12.43.22.12.07.24.19.36.29.43.46.7,1.08.7,1.71s-.26,1.25-.7,1.71c-.46.43-1.08.7-1.71.7Z"/>
  <path class="cls-1" d="M70.43,41.35H29.57c-.99,0-1.8-.82-1.8-1.8s.82-1.8,1.8-1.8h40.86c.99,0,1.8.82,1.8,1.8s-.82,1.8-1.8,1.8Z"/>
  <path class="cls-1" d="M59.61,72.38h-19.23c-8.77,0-13.82-5.05-13.82-13.82v-20.43c0-8.77,5.05-13.82,13.82-13.82h19.23c8.77,0,13.82,5.05,13.82,13.82v20.43c0,8.77-5.05,13.82-13.82,13.82ZM40.39,27.92c-6.87,0-10.22,3.34-10.22,10.22v20.43c0,6.87,3.34,10.22,10.22,10.22h19.23c6.87,0,10.22-3.34,10.22-10.22v-20.43c0-6.87-3.34-10.22-10.22-10.22h-19.23Z"/>
</svg>