<?xml version="1.0" encoding="UTF-8"?>
<svg id="Layer_1" data-name="Layer 1" xmlns="http://www.w3.org/2000/svg" viewBox="0 0 100 100">
  <defs>
    <style>
      .cls-1 {
        fill: #f9f4d7;
      }

      .cls-2 {
        fill: #edb835;
      }
    </style>
  </defs>
  <circle class="cls-1" cx="50.26" cy="49.74" r="49.74"/>
  <path class="cls-2" d="M48.38,51.49c-1.01,0-1.84-.84-1.84-1.84v-12.29c0-1.01.84-1.84,1.84-1.84s1.84.84,1.84,1.84v12.29c0,1.01-.84,1.84-1.84,1.84Z"/>
  <path class="cls-2" d="M48.38,73.61c-12.88,0-23.35-10.47-23.35-23.35s10.47-23.35,23.35-23.35,23.35,10.47,23.35,23.35c0,1.01-.84,1.84-1.84,1.84s-1.84-.84-1.84-1.84c0-10.84-8.82-19.66-19.66-19.66s-19.66,8.82-19.66,19.66,8.82,19.66,19.66,19.66c1.01,0,1.84.84,1.84,1.84s-.84,1.84-1.84,1.84Z"/>
  <path class="cls-2" d="M55.76,24.46h-14.75c-1.01,0-1.84-.84-1.84-1.84s.84-1.84,1.84-1.84h14.75c1.01,0,1.84.84,1.84,1.84s-.84,1.84-1.84,1.84Z"/>
  <path class="cls-2" d="M58.58,71.82c-.86,0-1.65-.2-2.36-.61-1.62-.93-2.56-2.83-2.56-5.19v-5.68c0-2.36.93-4.25,2.56-5.19,1.62-.93,3.71-.79,5.75.37l4.92,2.85c2.04,1.18,3.22,2.92,3.22,4.79s-1.18,3.61-3.22,4.79l-4.92,2.85c-1.13.66-2.29,1.01-3.39,1.01ZM58.61,58.2c-.2,0-.39.05-.54.12-.44.25-.71,1.01-.71,1.99v5.68c0,.98.27,1.74.71,1.99.44.25,1.23.12,2.06-.37l4.92-2.85c.86-.49,1.38-1.11,1.38-1.6s-.52-1.11-1.38-1.6l-4.92-2.85c-.57-.34-1.11-.52-1.52-.52Z"/>
</svg>