<?xml version="1.0" encoding="UTF-8"?>
<svg id="Layer_1" xmlns="http://www.w3.org/2000/svg" xmlns:xlink="http://www.w3.org/1999/xlink" version="1.1" viewBox="0 0 512 512">
  <!-- Generator: Adobe Illustrator 29.3.0, SVG Export Plug-In . SVG Version: 2.1.0 Build 146)  -->
  <defs>
    <style>
      .st0 {
        fill: #d67900;
      }

      .st1 {
        fill: #fff;
      }

      .st2 {
        fill: #4d5b2d;
      }
    </style>
  </defs>
  <path class="st1" d="M0,0h512v512H0V0Z"/>
  <path class="st0" d="M189.2,320.6c-.1-.2-.2-.9-.1-2.5,0-1.2,0-2.7.1-3.3,0-1.7-.3-5.6-.5-6-.1-.2-.2-.5-.2-.8s-.1-.7-.3-1.1c-.2-.4-.5-1.1-.8-1.6-.2-.5-.5-.9-.7-1.4-.3-.5-2.1-2.4-2.4-2.4s-.4-.2-.6-.4c-.2-.2-.5-.4-.6-.4s-.3-.2-.5-.3c-.2-.2-.4-.3-.5-.3s-.4-.1-.5-.2c-.7-.6-1.6-1.1-2.9-1.8l-1.4-.7h-1.7c-1,.1-2.4.3-3.3.4-.8.2-2,.3-2.5.4s-1.2.2-1.4.2c-.2,0-.8.2-1.4.2-2,.1-4.3.8-5,1.5-.2.2-.4.3-.5.3s-.3.1-.5.3c-.4.4-1.6.7-3.4.8-.8,0-1.6.1-1.7.2,0,0-.4.2-.6.2-.2,0-.8.1-1.2.3-.9.3-2.5.7-3.1.9-.7.1-1.9-.2-2.7-.8-.3-.2-.7-.4-1-.6-.2-.1-.6-.5-1-.8-.6-.6-1.1-.9-1.9-1.3-.3-.1-.7-.3-1-.5-.4-.2-.9-.2-2.1-.1-2.1.2-2.8.1-3.6,0-1-.2-2.3-1.4-2.3-2.1s-2.2-2.5-3.1-2.5-.6,0-.9-.2l-2.7-.9c-1.2-.4-2.7-.9-3.2-1.2-.6-.3-1.1-.5-1.2-.5-.1,0-.5-.2-.8-.3s-.7-.3-.9-.3-.4,0-.5-.2c-.2,0-1.1-.2-2-.3-.9,0-2-.2-2.3-.3-.3,0-1.1-.2-1.8-.3-1.4-.2-2.4-.5-3.2-1-.4-.2-.7-.4-1.1-.6-.2-.1-.6-.4-.7-.6-.2-.2-.4-.3-.5-.3s-1-.8-2.1-1.9c-1-1-1.9-1.9-2-1.9,0,0-.5-.3-.8-.6-.3-.3-.7-.6-.8-.6-.2,0-1.5-1.2-2.1-2.1-.3-.5-1.1-1.9-1.8-3.2-.6-1.3-1.4-2.7-1.6-3.1-.2-.4-.8-1.5-1.3-2.4-.8-1.6-.9-1.9-.9-2.8s0-1.2-.2-1.3c-.3-.3-.3-4.9,0-5.2s.3-1.3,0-1.8c-.2-.3-1.3-1.2-2.2-1.6-.5-.3-2.2-.7-3-.7-2,0-3-1.2-3.5-4-.2-1.2-.4-2.1-1-4.4-.3-1.1-.5-2.2-.5-2.5,0-.3,0-.5-.2-.6,0,0-.2-.3-.2-.4,0-.5-.6-2.2-1-3.1,0-.2-.1-.4-.2-.6,0-.2,0-.4-.2-.4,0,0-.2-.6-.2-1.1s0-1,.2-1.1c0,0,.2-.9.2-1.8,0-1.8-.3-2.8-.9-3.3-.1-.1-.3-.3-.3-.4,0-.2-.9-1.1-1.1-1.1s-2.3-2.1-2.3-2.3-.1-.3-.3-.5c-.2-.2-.4-.5-.4-.8,0-.3-.2-.5-.3-.6,0,0-.2-.3-.2-.6s0-.5-.2-.6-.2-.2-.2-.4c0-.3-.9-2.1-1.2-2.6-.1-.1-.3-.5-.4-.8-.1-.3-.2-.5-.4-.8-.2-.3-.3-.6-.4-.8-.2-.3-.5-1-.9-1.6s-.6-1.1-.6-1.2,0-.2-.2-.2-.2-.2-.2-.5,0-.5-.2-.6c0,0-.2-.4-.2-.7-.2-1.4-.9-3.9-1.2-4.3-.1-.2-.2-1.3-.3-3.9,0-2.6-.1-3.7-.3-3.8-.3-.3-.3-3.1,0-3.3.3-.2.8.2,1.2.9.2.3.5.8.7,1,.2.2.4.4.4.5s.2.4.4.6c.2.2.4.5.4.6,0,.2.9,1.1,1.1,1.1s.5.4,1,.8c1.1,1,2.7,2.3,2.9,2.3s.3.2.5.4c.2.2.5.4.6.4s.4.2.7.5.6.5.6.5.4.2.7.4.6.4.7.4.5.2.9.5c1,.7,1.6.9,3.7,1.6,4.2,1.3,5.7,1.6,8.7,1.8,2.3.1,5.3-.2,6.3-.7.4-.2.8-.4,1.2-.5.7-.3,3.3-2.7,3.3-3,0,0,.3-.5.8-1,.4-.4.8-.9.8-.9s.3-.4.6-.8c.3-.4.6-.7.6-.8,0,0,.2-.4.5-.7.3-.3.5-.6.5-.7,0-.1.2-.4.4-.6.2-.2.4-.5.4-.6s.2-.3.3-.5c.2-.2.3-.4.3-.5s.1-.3.2-.4c.1-.1.4-.6.7-1.1.2-.5.6-1.1.8-1.4.2-.3.6-1,.9-1.7.3-.7.7-1.4.9-1.7.7-1.1,1.5-2.7,1.5-2.8s.2-.3.3-.4c.2-.2.3-.4.3-.5s.2-.4.4-.7c.2-.3.4-.6.4-.7s.2-.3.3-.5c.2-.2.3-.4.3-.5s.5-.7,1.2-1.4c.7-.6,1.4-1.4,1.6-1.6.4-.4.5-.5,1.6-.5s1.3,0,1.4.2c0,0,.4.2.8.2.4,0,.8.2.9.3.3.3,2.3.2,3.1-.2.3-.1,1-.4,1.6-.7s1.1-.5,1.2-.5.2,0,.3-.1c.1-.2,2.6-1.4,3.5-1.6.6-.1,1.5-.1,3.1,0,1.3.1,2.9.2,3.7.3,1.9,0,3.7.4,5.2.8.7.2,1.6.4,2,.5.4.1,1.1.3,1.5.5.4.2.9.4,1.1.5.6.2,3,1.4,3.5,1.6.2.1.6.2.7.2s.3,0,.4.2c.1.1.3.2.3.2.1,0,.6.2,1.3.5.4.2.8.3,1.2.4.4.1.8.3,1,.4.2,0,.5.1.7.1s.5,0,.5.2c0,.1,1.2.2,2.8.2s2.7,0,2.8.2c0,.1,1.2.2,2.8.2s2.7,0,2.8-.2c0,0,.4-.2.9-.2s.9,0,1.1-.2c.2,0,.5-.3.8-.4.3-.1.9-.5,1.4-.8.5-.3,1-.6,1-.6s.4-.3.7-.6c.3-.3.7-.6.8-.6.2,0,2-1.7,2-2s.2-.4.5-.6c.3-.2.6-.7.7-1,1-2,1.8-4.2,1.8-4.8s0-.5.2-.6c0,0,.2-.7.4-1.4.1-.7.3-1.5.4-1.8,0-.3.1-1.1,0-1.9-.1-1.5,0-2.5.6-3.1.2-.2.3-.4.3-.5s.3-.5.8-1c.5-.6.8-1,.7-1.2-.1-.4-.2-.9-.4-1.3-.1-.5-.3-1.2-.3-1.4,0-.6.4-2.7.6-2.9,0,0,.1-1,.1-2.1,0-2.1,0-2.4-1-3.5-.3-.3-.5-.6-.5-.7s-.1-.3-.3-.5c-.2-.2-.6-.9-.9-1.6l-.6-1.3v-3.6c0-2,0-3.8.2-4,.2-.6.5-3.8.6-6,0-1.8,0-2,.3-2s.5.2.8.4c.3.2.6.4.7.4s.2,0,.2.2.2.3.6.4c.3.2.9.5,1.3.9.4.3.9.6,1,.7.1,0,.5.3.8.5.4.2.7.5,1.1.7.3.2.7.4.8.5.4.3,5,2.7,5.4,2.7s.4,0,.5.1c.2.2,2.1.9,2.7,1,.3,0,.5.2.6.2,0,0,.3.2.5.2.3,0,.5,0,.8.2.7.3,3.3,1,3.9,1.2.3,0,2.5.2,4.9.2,4.1.1,5.7.3,8.1.9.8.2,2,.5,2.7.6.3,0,.7.2.8.2.2,0,.6.2,1,.2.4,0,1.2.2,1.9.4s1.5.3,1.9.4c.4,0,.8.1,1,.2.2,0,.7.2,1.2.2.5,0,1.2.2,1.7.3.5,0,1.5.2,2.3.4.8.1,1.6.3,1.8.3.2,0,.8.2,1.3.2l2,.2c.5,0,1.1.2,1.3.2.2,0,.9.2,1.6.2s2,.2,3,.4c.9.2,2.3.3,3.1.4s1.6.1,1.8.2c.2,0,1.1.2,2,.2,4.7.2,6.8.5,8.1,1.2.3.2.7.3.9.3s.4,0,.5.2c.1.2.9.2,1,0,0,0,.5-.2,1.1-.2s1,0,1.1-.2c0,0,.9-.2,1.8-.2,2.1-.1,4.2-.3,6.3-.7.9-.2,2-.3,2.4-.4.4,0,.9-.2,1.1-.2.2,0,.7-.2,1.2-.2,1.8-.2,3.9-.5,4.2-.6.2,0,1.3-.2,2.6-.2s2.3,0,2.4-.2c0,0,.8-.2,1.7-.2s1.6,0,1.7-.2c0,0,.5-.2,1-.2s1.1,0,1.4-.2c.3,0,1.2-.3,2-.5,1.1-.3,2.2-.6,3.3-.9,1.8-.5,2-.5,4.8-.5,2.1,0,3.1,0,3.3-.2.2-.1.9-.2,1.6-.2s1.3,0,1.4-.2c0,0,.3-.2.4-.2s.3,0,.3-.2.1-.2.3-.2c.2,0,.5-.2.8-.3.3-.2.6-.4.9-.5.2,0,.6-.3.8-.5,1.8-1.6,3.3-2.9,3.5-2.9s.3-.2.6-.4c.2-.2.5-.4.6-.4s.3-.1.4-.2c.2-.2.8-.5,2.6-1.5.7-.4,2.5-1.2,2.7-1.2,0,0,.5-.2,1-.4.5-.2.9-.4,1-.4.2,0,1.9-.7,2.5-1,.2,0,.5-.2.7-.2s.5,0,.6-.1c.3-.3,4.3-1.4,5.2-1.4s.5,0,.6-.2c0,0,.4-.2.7-.2.7,0,3.4-.7,4.2-1,.3,0,.8-.2,1.1-.2s.7,0,.7-.2c0,0,.3-.2.6-.2s.8-.1,1.1-.3c.3-.1,1-.3,1.4-.3s.8,0,.9-.2c0,0,.4-.2.7-.2s.7,0,.9-.2c.2,0,1.2-.4,2.3-.8,1.1-.4,2.3-.8,2.7-.9.8-.4,1.7-.7,2.5-1,.2,0,.7-.3,1.2-.5.4-.2.8-.4,1.2-.5,1.1-.4,2.8-1.3,3.4-1.7.4-.3.9-.5,1.3-.7.3-.2.7-.4.7-.5,0-.1.4-.3.6-.4s.9-.5,1.3-.8c.4-.3.9-.7,1.1-.8.2,0,.4-.2.5-.3,0,0,.4-.3.7-.5.3-.2.6-.3.6-.4s.1-.2.3-.2.4,0,.4-.2c0,0,1-.6,2-1.1,1.1-.5,2-1.1,2.1-1.2.1-.1.3-.2.4-.2.1,0,.5-.3.8-.6s.7-.6.8-.6.4-.3.8-.6c.3-.3.7-.6.8-.6s.4-.3.8-.6c.8-.7,2.4-1.5,3.4-1.8.6-.2,1.4-.3,4.4-.6,1.2-.1,2.2-.6,2.5-1,0-.1.2-.2.3-.2s.6-.3,1.1-.6,1.4-.8,2-1.1c.6-.3,1.2-.6,1.4-.7.6-.4,4.5-2.2,4.7-2.2s.2,0,.2-.2.1-.2.3-.2.4,0,.6-.1c.2,0,1.5-.7,2.9-1.5,1.4-.7,3.1-1.6,3.7-1.9.6-.3,1.6-.8,2.2-1.2s1.3-.7,1.3-.8c0,0,.4-.3.7-.4.3-.2,1-.5,1.5-.9.5-.3,1-.6,1-.6s.3-.2.4-.3c.2-.2.4-.3.6-.3s.3,0,.3-.2.3-.3.6-.5c.4-.2.8-.4,1.1-.7.4-.2.7-.5,1.1-.6.3-.2.7-.4.8-.5.1-.1.3-.3.4-.3s.4-.1.7-.3c.7-.3,2.4-.3,2.5,0,.1.3.6.3,1,0,.4-.2,1.9-.7,2.1-.7.8,0,3.7-2.1,3.7-2.6s1.4-1.6,1.6-1.6.4-.2.7-.5.6-.5.7-.5.3-.1.4-.3c.1-.2.8-.7,1.4-1.2.7-.5,1.4-1.1,1.7-1.4.9-.8,2.7-2.3,3-2.5.2-.1.6-.4.9-.7.3-.3.6-.5.7-.5s.3-.1.4-.3c.1-.1.4-.4.7-.5.8-.4,1.3-.7,1.8-1,.8-.6,2.2-.9,2.8-.7.6.2,2.7,0,3.8-.1.3,0,1-.3,1.4-.5s1.2-.6,1.6-.8c.4-.2.8-.4.9-.5,0,0,.2-.1.3,0,.1,0,.3,0,.3,0,0,0,.6-.4,1.2-.7,1.6-.8,2.4-1.2,3-1.6.3-.2.6-.4.7-.4s.3-.1.4-.2c.1-.1.8-.5,1.4-.9.7-.3,1.3-.7,1.4-.8.3-.3.8-.5,4-2.2.5-.2,1.1-.4,1.3-.4h.5v2.8c-.2,1.6-.3,3.2-.4,3.6-.1.5-.2,1.1-.3,1.6,0,.5-.2.9-.2,1,0,0-.2.3-.2.5s-.5.9-1.2,1.5c-.7.6-1.2,1.3-1.2,1.4s0,.3-.1.3-.2.2-.4.5c-.1.3-.3.6-.4.7-.2.2-1.3,2.3-2.1,3.8-.1.2-.3.5-.5.7-.1.1-.3.3-.3.4,0,.2-.8,1.1-1.3,1.4-1.4.8-2,1-3.2,1.3-.6.1-1.3.2-1.9.4-.9.2-3.1.9-4,1.3-1.6.8-1.8.9-2.4,1.4-.3.2-.5.4-.6.4,0,0-.4.3-.8.6-.3.3-.7.6-.8.6s-.4.2-.6.4-.9.6-1.4.8c-1.4.7-1.9,1.3-1.9,2.6s0,.8-.2.9c0,0-.2.6-.2,1.3s0,1.2-.1,1.3c0,0-.2.3-.3.6-.1.6-1.7,2.3-2.3,2.5-.2,0-.4.2-.4.2s-.1.2-.3.2c-.2,0-.5.1-.8.3-.3.1-.6.3-.8.3s-.4,0-.4.2c0,0-.3.2-.4.2s-.7.1-1.1.3c-.4.2-1,.4-1.4.5-.4.1-.8.3-.9.4s-.3.2-.4.1c0,0-.2,0-.3.2-.1.1-.4.3-.5.3s-.3,0-.3.2-.1.2-.3.2-.4.1-.5.3c-.1.1-.3.3-.4.3s-.3.2-.5.3c-.2.2-.4.3-.5.3-.1,0-.5.3-1,.8-.4.4-.9.8-1,.8-.1,0-1,.8-1.9,1.7-.9.9-1.8,1.7-1.9,1.7s-.5.3-.8.6-.7.6-.8.6-.4.2-.6.4-.5.4-.6.4-.3.1-.5.3c-.2.2-.4.4-.6.4-.1,0-.6.3-.9.5-1.8,1.1-5.9,3.2-6.3,3.2s-.3.1-.4.3c-.1.1-.3.2-.3.2-.1,0-3.6,1.6-4.1,2-.1.1-.6.4-1,.6-.9.5-1.7,1-2.6,1.8-.3.3-.7.6-.8.6,0,0-.8.6-1.6,1.4-.8.7-1.5,1.4-1.6,1.4s-.7.5-1.4,1.2c-.7.7-1.3,1.2-1.4,1.2-.2,0-3.2,3.2-3.7,3.8-.4.6-.9,1.7-.9,2s-.7,1.7-1.1,2.1c-.2.2-.6.6-1,.8-1.5,1-2.5,2.3-3.3,3.8-.4.9-.8,1.6-.8,1.8,0,.6-2.1,2.2-2.8,2.2s-1.6.7-1.6.9-.1.1-.3.1-.5.2-.8.5c-1,.9-1.6,1.3-2,1.6-1.5,1-2,1.3-2.7,1.7-.6.3-1.2.5-1.8.8-.5.2-1.1.4-1.2.4-.2,0-.7.1-1.1.1s-.9,0-1,.2c0,0-.5.2-.8.2-.7,0-2.1.5-2.9.8-.3.1-.6.2-.8.3-.1,0-.3.1-.3.2s-.2.2-.3.2c-.3,0-1.4.9-1.8,1.7-.3.4-.5.8-.9,1.1-.3.3-.5.6-.5.7,0,.1-.2.4-.4.6-.2.2-.4.5-.4.6s-.1.3-.3.4c-.3.2-2.8,5.3-2.8,5.6s0,.3-.1.4c0,0-.4.8-.6,1.7-.3.8-.5,1.7-.6,1.9-.2.5-.2,4.9,0,5,0,0,.2.5.2.9,0,1,.7,4.5,1.2,5.9.5,1.5,1.6,3.5,2.2,4.1.3.3.5.6.5.7s.3.5.8,1c.4.4.8.9.8,1,0,0,.3.4.6.8.3.3.6.7.6.8s.3.5.8.9c.4.4.8.8.8.9s.4.6.9,1.2c.5.5.9,1.1.9,1.2s.3.6.8,1c.4.4.8.8.8.9s.4.6.9,1.1.9,1,.9,1.1.5.7,1.2,1.4c.7.7,1.2,1.3,1.2,1.4,0,0,.5.7,1.1,1.4.6.7,1.3,1.5,1.6,1.8.2.3.9,1.1,1.5,1.7.6.6,1.1,1.2,1.2,1.4,0,.2.4.6.7.9.3.4.7.8.9,1.1.2.3.5.6.7.8.2.2.4.4.4.5,0,.1.5.7,1.1,1.3,1,1,2,2.3,2.4,3,0,.2.3.4.4.6.3.4,1,1.8,1,2s.2.6.4,1c.6,1.4,1.2,3,1.3,3.8v.7c0,0-4.4,0-4.4,0-2.8,0-4.5,0-4.5-.2,0,0-.6-.2-1.2-.2-1,0-1.6-.2-3-.9-1.7-.9-3.2-1.5-3.6-1.5s-.4,0-.4-.2c-.2-.3-3.9-.6-4.9-.4-.3,0-1,.3-1.6.4-.5.1-1,.3-1.1.4,0,0-.2.1-.4.1-.5,0-3,1.4-3.8,2-.4.4-.8.7-.9.7s-.8.6-1.5,1.3c-.8.7-1.5,1.3-1.6,1.4-.1,0-.5.3-.8.6-.3.3-.7.6-.8.6-.1,0-.3.2-.5.3-.2.2-.4.3-.4.3,0,0-.5.1-1,.4-.8.4-1.3.5-2.6.9-.2,0-.6,0-1-.2s-.7-.3-.7-.3-.3-.2-.5-.3c-.2-.2-.4-.3-.5-.3-.1,0-.4-.2-.7-.5-.3-.3-.6-.5-.7-.5s-.4-.2-.6-.4c-.3-.3-.7-.5-1.1-.7-.4-.2-.7-.4-1.1-.6-.5-.3-4.1-2.1-5.9-2.9-.5-.2-1.1-.5-1.3-.5s-.4,0-.4-.1c0,0-.6-.2-1.3-.4-1.2-.2-2.5-.2-4,.2-.4,0-1.1.2-1.5.3l-1.4.3c-.4,0-.8.2-1.1.3-.2.1-.8.2-1.2.2s-.9,0-1,.2c0,0-.9.2-1.9.2s-1.8,0-1.9.2c0,0-.4.2-.8.2-.7,0-2.4.5-3.3,1-.6.3-1.9,1.6-2.1,2,0,.2-.3.6-.6,1-.2.4-.5.8-.6,1,0,.2-.4.6-.6,1-.2.4-.5.8-.5.9,0,.1-.2.5-.3.8-.9,2-.9,2.3-.9,5.1,0,1.5,0,2.8-.2,3-.2.4-.8,2.6-.8,3s.2.4.5.6c.7.4.9,1,.8,2.3,0,1.2-.2,2.1-.4,2.6,0,.2-.3.7-.4,1.1-.2.4-.4.9-.6,1.1-.2.2-.3.4-.4.6-.1.2-.4.7-.7,1.1-.7,1-1,2-1.1,3.1,0,1.4-.3,1.5-2.4,1.4-1,0-2.2-.2-2.8-.3-1.9-.3-3.5.4-5.2,2.1-.7.7-2,1.8-3,2.6-1,.7-2.1,1.6-2.5,1.9-.4.3-.7.6-.9.6s-.4.2-.6.4-.5.4-.6.4-.3,0-.4.2c0,0-.3.2-.5.2-.2,0-.6.1-.9.3-.3.1-.7.3-1.1.3s-.6,0-.7.2c0,0-.5.2-.9.2s-.9,0-.9.2c0,0-.5.2-.9.2-.8,0-4.1,1-4.6,1.4-.1,0-.2.1-.2,0s-.4,0-.8.2c-.4.2-1,.4-1.1.5-2.1.9-4.9,2.3-5,2.6,0,0-.2.2-.4.2s-.4.1-.5.3c-.1.1-.3.3-.4.3s-.3.1-.4.3c-.1.2-.4.3-.6.4-.3.1-.6.3-1.9,1.1-1.1.7-1.8,1.2-2.1,1.5-.2.2-.4.4-.5.4s-.3.1-.4.3c-.1.1-.4.3-.6.3s-.4,0-.5.2c0,0-.4.2-.8.2s-.7,0-.8.2c0,0-.4.2-.7.2-.4,0-1,.2-1.4.3-1.6.4-3.2.7-3.8.8-.4,0-.7.2-.7.2,0,0-.2.2-.3.2-.4,0-2.4,1-2.6,1.3-.1.1-.3.3-.4.3s-.5.3-.8.6c-.3.3-.7.6-.8.6s-.4.2-.7.4c-.4.4-.6.4-1.8.4-.7,0-1.8,0-2.3-.2-.7-.1-1.4-.2-2.1-.2-.7,0-1.5-.1-2.2-.2-1.6-.2-4.8-.4-8.1-.4-2.7,0-3.6,0-5.7.6-2.4.5-2.8.6-3.1.7-.1,0-.6.2-1,.3-.4.1-1,.3-1.3.3-.7.2-1.4.4-2.1.6-1.4.3-2.1.5-2.5.7-.3.2-.7.3-.8.3-.4,0-3.8,1.7-4.2,2.1-.2.2-.4.3-.5.4-.3,0-2.9,2.7-2.9,2.9s-.4.6-.8,1.1c-1.4,1.6-1.7,2-2.1,3.5-.3,1-.3,4.7,0,5,.1.1.2.6.2,1s0,.9.2.9c0,0,.2.4.2.8,0,.8.5,2.2,1,3.1.3.5.5.8,1.3,2.7.2.5.5,1.1.6,1.2.3.5.2.8-.5,1.2-.5.3-.9.4-1.8.4s-1.2,0-1.4-.2c-1.2-.6-1.9-.7-4.2-.6-2.5.1-3.4.3-4.6.8-1.1.5-1.4.6-2,.7l-1.2.3c-.4,0-.9.2-1.3.3-.8.3-1.6.2-1.9,0h0Z"/>
  <path id="a" class="st2" d="M98.6,325.3s1.5,3.4,3.5,7.5c2,4.1,4.5,9,6.7,11.9,1.4,2,3.1,3.8,5.1,5.2,2.5,1.8,8.5,3.7,8.5,3.7,0,0-.2-5.6-1.4-8.5-1.1-2.7-3.7-5.9-5.8-7.9-5-4.5-9.2-7.6-12.2-9.5-3-1.9-4.3-2.5-4.3-2.5h0ZM122.9,331.5s.1,2.4.4,5.4c.3,3,.7,6.5,1.4,8.8.7,2.5,1.8,4.9,3.2,7,1.1,1.7,4.1,4.7,4.1,4.7,0,0,1.1-3.7,1.1-5.5,0-2.9-.7-5.7-1.9-8.3-1-2.2-2.5-5.6-4.3-8.1-1.8-2.4-4-4-4-4h0ZM102.1,354.1s6.6,6.7,10.6,9.1c1.9,1.1,4,2,6.2,2.4,2,.4,6.2,0,6.2,0,0,0-.4-2.6-3-5.7-1.9-2.2-5.6-3.6-8.4-4.6-5.4-2-11.7-1.2-11.7-1.2h0ZM123.8,356.3s3.9,7.9,6.4,11.5c1.7,2.4,3.6,4.7,6,6.5,7.4,5.8,11.6,5.2,11.6,5.2,0,0-.3-4-1.1-5.8-1.7-3.8-4.5-7.2-7.7-9.8-4.4-3.6-15.1-7.7-15.1-7.7h0ZM122.4,378s4.8,4.6,7.6,6.4c2.1,1.4,4.3,2.7,6.6,3.5,2,.7,4.1.9,6.3,1,5.2.2,7.7-.6,7.7-.6,0,0,0-2.6-4.5-6-2.6-2-5.8-3.2-9.1-3.9-4.7-1.1-14.6-.5-14.6-.5h0ZM141,353s1.8,6.6,3,9.6c1.1,2.7,2.2,5.4,3.8,7.7,1.3,2,3,4.3,4.9,5.8,1.6,1.3,5.2,2.5,5.2,2.5,0,0-.2-4.7-.8-6.9-.8-2.7-1.9-5.4-3.5-7.8-2-3-4.9-5.2-7.6-7.7-3.6-3.4-4.9-3.4-4.9-3.4h0ZM149.9,381.1s3.9,4.5,6.2,6.4c2.7,2.4,5.7,4.5,8.8,6.3,1.8,1,3.7,2,5.7,2.6,2,.6,4.2.8,6.3.9,1.3,0,3.8-.4,3.8-.4,0,0-2.3-4.6-4.1-6.4-2-2.1-4.6-3.7-7.3-5.1-3.4-1.7-7.1-2.9-10.9-3.7-2.8-.6-8.5-.6-8.5-.6h0ZM169.3,378.2s3.4,5.2,5.6,7.4c2.1,2.2,4.6,4,7.2,5.7,2.3,1.5,4.6,3.1,7.3,3.8,2.2.6,6.8.4,6.8.4,0,0-.9-3.7-1.9-5.3-1.5-2.4-3.5-4.4-5.8-6.1-3-2.2-6.6-3.6-10.1-4.7-2.9-.9-9-1.2-9-1.2ZM154.1,402.4s3.3,2.6,8.5,4.1c2.6.8,5.2,1.2,7.9,1.5,2.3.2,6.8,0,9.1-.4,2.8-.4,5.9-2.2,5.9-2.2,0,0-2.1-3.1-4.3-4.1-3.9-1.8-9.6-2.4-13.9-2.2-8.6.3-13.3,3.3-13.3,3.3h0ZM182.4,398.4s7.4,5.9,11.2,8c3.4,1.9,7.1,3.3,10.9,4.1,6.7,1.4,13.1.4,13.1.4,0,0-1-3-2.1-4.1-2.7-3-6.5-5.2-10.3-6.5-4.4-1.6-9.3-1.6-14-1.9-2.7-.1-8.8,0-8.8,0h0ZM206.9,393.2s6.1,9.1,10.1,12.7c2.6,2.3,5.6,4.2,8.8,5.4,2.8,1,9,1.5,9,1.5,0,0,.1-2.1-.4-3.4-1.2-2.9-3.8-5.9-6.4-7.8-3.9-2.9-8.3-5.1-12.9-6.7-2.6-.9-8.2-1.7-8.2-1.7h0ZM197.1,418.1s8,2.1,12.1,2.6c2.7.3,5.5.4,8.2.2,2.5-.2,5.1-.3,7.4-1.4,3.4-1.6,5.2-3.5,5.2-3.5-2-2.3-5.4-2.9-8-3.2-3-.4-6.1-.3-9.2,0-3.5.4-7,1.1-10.3,2.3-1.9.7-5.5,2.8-5.5,2.8h0ZM233.4,415.8c.6.3.9.6,1.1.9,0,0,5.6,1.5,8.4,2.5,2.1.8,4.2,1.4,6,2.7,2,1.3,3.7,3.1,5.3,4.9,1.9,2,5.2,6.4,5.2,6.4l.9,1.3h.7s.4-3.8,1-5.5c.6-1.6,2.4-2.7,2.4-2.7v-.9c-5.4-3.3-11.3-6.6-17-8-2.7-.7-5.5-1.2-8.3-1.4-1.8-.1-5.6,0-5.6,0h0ZM123.1,370.7c-.4,1.2,0,2.7.7,3.8.7,1.1,2.1,1.9,3.4,2.2.6.2,1.3.1,1.8-.1.6-.3,1.2-.9,1.4-1.6.3-1,0-2.2-.5-3.2-.6-1-1.5-1.9-2.6-2.4-.9-.4-2-.5-2.9-.1-.6.2-1.1.7-1.3,1.3h0ZM135.6,352.5c-.9,1-1.3,2.7-1.1,4.2.2,1.5,1,3,2.1,4,.5.5,1.1.8,1.7.8.7,0,1.5-.3,2-.9.7-.9,1-2.3.9-3.5,0-1.3-.5-2.7-1.3-3.8-.6-.8-1.6-1.5-2.5-1.6-.6,0-1.3.2-1.8.7h0ZM150.5,395.2c.5,1.2,1.9,2.1,3.2,2.5,1.4.4,3.1,0,4.4-.5.6-.3,1.2-.7,1.4-1.3.3-.7.4-1.5.1-2.1-.5-1-1.6-1.7-2.6-2.1-1.2-.4-2.6-.5-3.9-.1-1,.3-2,.9-2.5,1.8-.3.5-.4,1.3-.2,1.9h0ZM186,413.2c.7,1.1,2.2,1.8,3.6,1.9,1.4.1,3-.4,4.2-1.2.5-.4,1-.9,1.2-1.5.2-.7.1-1.5-.3-2.1-.6-.9-1.8-1.4-2.9-1.6-1.2-.2-2.6,0-3.8.5-.9.5-1.8,1.2-2.1,2.2-.2.6-.2,1.3.1,1.9h0ZM159.5,374.7c-.4,1.3,0,3,.7,4.1.8,1.2,2.3,2.1,3.7,2.4.6.2,2.2.1,2.8-.1.7-.3.6-1,.8-1.7.3-1.1,0-2.4-.6-3.4-.6-1.1-1.7-2.1-2.9-2.6-1-.4-2.2-.5-3.1-.1-.6.2-1.2.8-1.4,1.4h0ZM198.1,390.7c-.6,1.2-.4,2.8.2,4.1.6,1.3,1.9,2.4,3.2,3.1.6.3,1.3.4,1.9.3.7-.2,1.4-.6,1.7-1.3.5-1,.3-2.3-.1-3.4-.4-1.2-1.3-2.3-2.4-3-.9-.6-2-.9-3-.8-.6,0-1.3.5-1.5,1.1Z"/>
  <path id="a1" data-name="a" class="st2" d="M397.7,325.3s-1.5,3.4-3.5,7.5c-2,4.1-4.5,9-6.7,11.9-1.4,2-3.1,3.8-5.1,5.2-2.5,1.8-8.5,3.7-8.5,3.7,0,0,.2-5.6,1.4-8.5,1.1-2.7,3.7-5.9,5.8-7.9,5-4.5,9.2-7.6,12.2-9.5,3-1.9,4.3-2.5,4.3-2.5h0ZM373.5,331.5s-.1,2.4-.4,5.4c-.3,3-.7,6.5-1.4,8.8-.7,2.5-1.8,4.9-3.2,7-1.1,1.7-4.1,4.7-4.1,4.7,0,0-1.1-3.7-1.1-5.5,0-2.9.7-5.7,1.9-8.3,1-2.2,2.5-5.6,4.3-8.1,1.8-2.4,4-4,4-4h0ZM394.3,354.1s-6.6,6.7-10.6,9.1c-1.9,1.1-4,2-6.2,2.4-2,.4-6.2,0-6.2,0,0,0,.4-2.6,3-5.7,1.9-2.2,5.6-3.6,8.4-4.6,5.4-2,11.7-1.2,11.7-1.2h0ZM372.6,356.3s-3.9,7.9-6.4,11.5c-1.7,2.4-3.6,4.7-6,6.5-7.4,5.8-11.6,5.2-11.6,5.2,0,0,.3-4,1.1-5.8,1.7-3.8,4.5-7.2,7.7-9.8,4.4-3.6,15.1-7.7,15.1-7.7h0ZM374,378s-4.8,4.6-7.6,6.4c-2.1,1.4-4.3,2.7-6.6,3.5-2,.7-4.1.9-6.3,1-5.2.2-7.7-.6-7.7-.6,0,0,0-2.6,4.5-6,2.6-2,5.8-3.2,9.1-3.9,4.7-1.1,14.6-.5,14.6-.5h0ZM355.4,353s-1.8,6.6-3,9.6c-1.1,2.7-2.2,5.4-3.8,7.7-1.3,2-3,4.3-4.9,5.8-1.6,1.3-5.2,2.5-5.2,2.5,0,0,.2-4.7.8-6.9.8-2.7,1.9-5.4,3.5-7.8,2-3,4.9-5.2,7.6-7.7,3.6-3.4,4.9-3.4,4.9-3.4h0ZM346.5,381.1s-3.9,4.5-6.2,6.4c-2.7,2.4-5.7,4.5-8.8,6.3-1.8,1-3.7,2-5.7,2.6-2,.6-4.2.8-6.3.9-1.3,0-3.8-.4-3.8-.4,0,0,2.3-4.6,4.1-6.4,2-2.1,4.6-3.7,7.3-5.1,3.4-1.7,7.1-2.9,10.9-3.7,2.8-.6,8.5-.6,8.5-.6h0ZM327.1,378.2s-3.4,5.2-5.6,7.4c-2.1,2.2-4.6,4-7.2,5.7-2.3,1.5-4.6,3.1-7.3,3.8-2.2.6-6.8.4-6.8.4,0,0,.9-3.7,1.9-5.3,1.5-2.4,3.5-4.4,5.8-6.1,3-2.2,6.6-3.6,10.1-4.7,2.9-.9,9-1.2,9-1.2ZM342.3,402.4s-3.3,2.6-8.5,4.1c-2.6.8-5.2,1.2-7.9,1.5-2.3.2-6.8,0-9.1-.4-2.8-.4-5.9-2.2-5.9-2.2,0,0,2.1-3.1,4.3-4.1,3.9-1.8,9.6-2.4,13.9-2.2,8.6.3,13.3,3.3,13.3,3.3h0ZM314,398.4s-7.4,5.9-11.2,8c-3.4,1.9-7.1,3.3-10.9,4.1-6.7,1.4-13.1.4-13.1.4,0,0,1-3,2.1-4.1,2.7-3,6.5-5.2,10.3-6.5,4.4-1.6,9.3-1.6,14-1.9,2.7-.1,8.8,0,8.8,0h0ZM289.5,393.2s-6.1,9.1-10.1,12.7c-2.6,2.3-5.6,4.2-8.8,5.4-2.8,1-9,1.5-9,1.5,0,0-.1-2.1.4-3.4,1.2-2.9,3.8-5.9,6.4-7.8,3.9-2.9,8.3-5.1,12.9-6.7,2.6-.9,8.2-1.7,8.2-1.7h0ZM299.2,418.1s-8,2.1-12.1,2.6c-2.7.3-5.5.4-8.2.2-2.5-.2-5.1-.3-7.4-1.4-3.4-1.6-5.2-3.5-5.2-3.5,2-2.3,5.4-2.9,8-3.2,3-.4,6.1-.3,9.2,0,3.5.4,7,1.1,10.3,2.3,1.9.7,5.5,2.8,5.5,2.8h0ZM262.9,415.8c-.6.3-.9.6-1.1.9,0,0-5.6,1.5-8.4,2.5-2.1.8-4.2,1.4-6,2.7-2,1.3-3.7,3.1-5.3,4.9-1.9,2-5.2,6.4-5.2,6.4l-.9,1.3h-.7s-.4-3.8-1-5.5c-.6-1.6-2.4-2.7-2.4-2.7v-.9c5.4-3.3,11.3-6.6,17-8,2.7-.7,5.5-1.2,8.3-1.4,1.8-.1,5.6,0,5.6,0h0ZM373.3,370.7c.4,1.2,0,2.7-.7,3.8-.7,1.1-2.1,1.9-3.4,2.2-.6.2-1.3.1-1.8-.1-.6-.3-1.2-.9-1.4-1.6-.3-1,0-2.2.5-3.2.6-1,1.5-1.9,2.6-2.4.9-.4,2-.5,2.9-.1.6.2,1.1.7,1.3,1.3h0ZM360.8,352.5c.9,1,1.3,2.7,1.1,4.2-.2,1.5-1,3-2.1,4-.5.5-1.1.8-1.7.8-.7,0-1.5-.3-2-.9-.7-.9-1-2.3-.9-3.5,0-1.3.5-2.7,1.3-3.8.6-.8,1.6-1.5,2.5-1.6.6,0,1.3.2,1.8.7h0ZM345.9,395.2c-.5,1.2-1.9,2.1-3.2,2.5-1.4.4-3.1,0-4.4-.5-.6-.3-1.2-.7-1.4-1.3-.3-.7-.4-1.5-.1-2.1.5-1,1.6-1.7,2.6-2.1,1.2-.4,2.6-.5,3.9-.1,1,.3,2,.9,2.5,1.8.3.5.4,1.3.2,1.9h0ZM310.4,413.2c-.7,1.1-2.2,1.8-3.6,1.9-1.4.1-3-.4-4.2-1.2-.5-.4-1-.9-1.2-1.5-.2-.7-.1-1.5.3-2.1.6-.9,1.8-1.4,2.9-1.6,1.2-.2,2.6,0,3.8.5.9.5,1.8,1.2,2.1,2.2.2.6.2,1.3-.1,1.9h0ZM336.8,374.7c.4,1.3,0,3-.7,4.1-.8,1.2-2.3,2.1-3.7,2.4-.6.2-2.2.1-2.8-.1-.7-.3-.6-1-.8-1.7-.3-1.1,0-2.4.6-3.4.6-1.1,1.7-2.1,2.9-2.6,1-.4,2.2-.5,3.1-.1.6.2,1.2.8,1.4,1.4h0ZM298.3,390.7c.6,1.2.4,2.8-.2,4.1-.6,1.3-1.9,2.4-3.2,3.1-.6.3-1.3.4-1.9.3-.7-.2-1.4-.6-1.7-1.3-.5-1-.3-2.3.1-3.4.4-1.2,1.3-2.3,2.4-3,.9-.6,2-.9,3-.8.6,0,1.3.5,1.5,1.1Z"/>
</svg>