<svg width="48" height="48" viewBox="0 0 48 48" fill="none" xmlns="http://www.w3.org/2000/svg">
  <g clipPath="url(#tiktok-clip)">
    <path
      d="M48.0012 24C48.0012 37.2543 37.2555 48 24 48H23.9551C10.7208 47.9752 0 37.2366 0 24C0 10.7634 10.7208 0.0236558 23.9551 0H24C37.2555 0 48.0012 10.7421 48.0012 24Z"
      fill="black"
    />
    <path
      d="M23.9551 0V48C10.7208 47.9752 0 37.2366 0 24C0 10.7634 10.7208 0.0236558 23.9551 0Z"
      fill="#0C0C0C"
    />
    <path
      d="M37.0592 17.3563L37.0297 22.2731C36.0715 22.2614 35.1183 22.1335 34.191 21.8923C32.7603 21.5185 31.411 20.8838 30.2109 20.0199C30.2109 20.5226 30.218 21.2725 30.218 22.1844C30.218 23.398 30.218 24.0875 30.2109 24.8197C30.1896 29.3427 30.302 30.2179 29.9045 32.0063C29.8219 32.4376 29.7088 32.8625 29.5663 33.2778C28.8022 35.4068 27.1368 37.1124 25.4395 38.0196C24.9658 38.2714 24.4687 38.4762 23.9551 38.6311C20.7474 39.6034 16.8927 38.7494 14.9032 36.3838L14.8902 36.3696L14.8748 36.3495C13.1846 34.3104 12.8156 31.131 12.7801 30.3173C12.7801 30.2132 12.773 30.1115 12.773 30.1115C12.747 28.9999 12.9069 27.8917 13.2461 26.8328C13.5891 25.7375 14.7187 23.4512 17.2558 22.0626C18.8381 21.2102 20.6441 20.8646 22.4293 21.0726L22.3713 26.0486C22.2708 26.0226 19.8402 25.4465 18.2446 27.1025C16.7992 28.6022 16.8927 31.0187 17.9181 32.3872C17.9725 32.4605 18.0305 32.5315 18.0908 32.5977C18.6645 33.2376 19.3919 33.4777 19.8828 33.6457C20.5336 33.8601 21.2167 33.9602 21.9018 33.9414C22.6356 33.9299 23.3495 33.7006 23.9527 33.2825C25.6205 32.1494 25.8452 30.1316 25.8535 30.0169C25.833 23.521 25.8137 17.0251 25.7955 10.5292V10.5233L28.9216 10.4677H28.9725L29.4255 10.4594C29.7595 11.6615 30.3257 12.7866 31.0921 13.7712C31.3335 14.0792 31.5943 14.3715 31.8727 14.6465C32.9247 15.6704 34.1884 16.4512 35.5748 16.934H35.5843C36.0652 17.1098 36.5581 17.2509 37.0592 17.3563Z"
      fill="#FD2854"
    />
    <path
      d="M35.6458 19.5811H35.6363C33.9528 19.8508 32.2294 19.7199 30.6059 19.199C29.4723 18.8305 28.4081 18.2752 27.4573 17.5561C28.0274 21.0022 28.0274 24.5186 27.4573 27.9647C26.782 32.0146 26.3585 34.5528 24.0982 36.1768C24.0509 36.2111 24.0024 36.2454 23.9539 36.2774C20.8325 38.391 16.4716 37.3419 14.8736 36.3471L14.85 36.3329L14.805 36.3046C14.2783 35.9556 13.7843 35.5598 13.3289 35.1218C12.5126 34.33 11.8613 33.3843 11.4124 32.3394C10.9636 31.2945 10.7261 30.1711 10.7138 29.0339C10.6834 27.8561 10.8789 26.6833 11.2898 25.579C11.5559 24.8693 12.5447 22.3453 15.2994 20.8088C17.0634 19.8416 19.1017 19.4966 21.0856 19.8295C21.0778 20.2237 21.0703 20.618 21.0632 21.0123V21.0205L21.017 23.5162C20.1537 23.3128 19.2612 23.2631 18.3806 23.3696C17.6709 23.4571 16.9755 23.5387 16.2362 24.0035C15.2894 24.6129 14.6194 25.5693 14.3698 26.6672C14.2118 27.199 14.1794 27.7601 14.2751 28.3065C14.3035 28.4627 14.5117 29.5473 15.387 30.3256C15.6815 30.587 15.8069 30.5976 16.2362 30.9986C16.6147 31.3534 16.7093 31.5237 17.0559 31.8182C17.0559 31.8182 17.141 31.8904 17.2806 31.9921C17.2896 31.9999 17.2991 32.007 17.309 32.0134C17.4999 32.153 17.7002 32.2791 17.9087 32.3907C18.7757 32.8449 20.3275 32.8934 21.4653 32.341C23.0396 31.5758 23.8983 29.8158 23.8948 28.7702C23.8758 22.2719 23.8565 15.7741 23.8368 9.27662H23.9456L28.7738 9.24823C28.7703 9.62484 28.8225 9.99989 28.9287 10.3612C28.9406 10.4003 28.9524 10.4369 28.9654 10.4795C28.9784 10.5221 28.9867 10.5422 28.9973 10.5718C29.0722 10.7683 29.1587 10.9603 29.2564 11.1466L29.3238 11.2826V11.2933C29.3227 11.2963 29.3227 11.2997 29.3238 11.3027L29.3344 11.3252L29.3451 11.3465C29.3515 11.3603 29.3586 11.3737 29.3664 11.3867C29.3735 11.4021 29.3817 11.4175 29.39 11.4328C29.435 11.5192 29.4965 11.6327 29.5663 11.7605C29.61 11.8397 29.6561 11.919 29.7035 11.997L29.7543 12.081C29.7792 12.1236 29.8052 12.1662 29.8312 12.2076L29.9258 12.3578C30.2937 12.9385 30.9395 13.9167 31.855 14.6559C33.1418 15.6944 34.6203 15.9878 35.5476 16.0753C35.5535 16.3663 35.5606 16.6572 35.5666 16.9482C35.6012 17.8266 35.6277 18.7042 35.6458 19.5811Z"
      fill="#24F6FA"
    />
    <path
      d="M35.6612 20.9709C33.224 21.0603 30.8312 20.3025 28.8897 18.8265V29.235C28.8661 29.6336 28.5172 34.0301 24.5454 36.4501C24.349 36.5683 24.1515 36.6783 23.954 36.7801C20.2175 38.6867 16.5663 37.1928 16.2055 37.0379C15.8468 36.9206 15.503 36.7619 15.1812 36.5648C15.0807 36.5021 14.9825 36.437 14.8891 36.3696L14.8051 36.3069C12.3685 34.4571 12.268 30.6887 12.2526 30.1328C12.2266 29.0211 12.3865 27.913 12.7257 26.8541C13.1279 25.5707 14.3284 23.4074 16.7354 22.0839C18.0635 21.3611 19.5561 20.9944 21.068 21.0194V21.0276C21.0482 22.2775 21.0285 23.5277 21.0088 24.7783C20.7545 24.7097 19.1956 24.317 17.6722 25.2762C16.7254 25.8856 16.0553 26.842 15.8057 27.9399C15.6564 28.4727 15.6241 29.0316 15.7111 29.578C15.8462 30.2528 16.1646 30.8773 16.6313 31.383C16.8275 31.609 17.0467 31.8139 17.2854 31.9945C17.2943 32.0022 17.3038 32.0093 17.3138 32.0158C17.5012 32.1604 17.702 32.2867 17.9134 32.3931L17.9205 32.399C18.3432 33.0372 18.9529 33.5292 19.6661 33.8074C20.3792 34.0856 21.161 34.1366 21.9042 33.9532C22.2505 33.8809 22.5868 33.7673 22.906 33.6149C23.2926 33.431 23.6469 33.1858 23.9551 32.8887C25.1521 31.7378 25.3272 30.1458 25.3355 30.05L25.2834 10.5469L25.8038 10.5363L28.93 10.4748H28.9749C28.9867 10.5055 28.9997 10.5363 29.0128 10.567C29.0849 10.7409 29.1712 10.9337 29.2718 11.1419L29.3392 11.2779V11.2886C29.3381 11.2916 29.3381 11.295 29.3392 11.298L29.3498 11.3205L29.3605 11.3418C29.3669 11.3555 29.374 11.369 29.3818 11.382C29.3889 11.3974 29.3972 11.4127 29.4054 11.4281C29.4598 11.5346 29.5237 11.6446 29.5817 11.7558C29.6254 11.835 29.6716 11.9142 29.7189 11.9923L29.7697 12.0763L29.8466 12.2028L29.9412 12.3531C30.4823 13.1993 31.1307 13.9717 31.8704 14.6512C32.9498 15.6395 34.2057 16.4155 35.5725 16.9387H35.582C35.5973 17.8152 35.6127 18.694 35.6269 19.5705L35.6612 20.9709Z"
      fill="white"
    />
    <path
      opacity="0.17"
      d="M37.0592 17.3563L37.0296 22.2731C36.0715 22.2614 35.1183 22.1335 34.1909 21.8923C32.7603 21.5185 31.411 20.8838 30.2109 20.0199C30.2109 20.5226 30.218 21.2725 30.218 22.1844C30.218 23.398 30.218 24.0875 30.2109 24.8197C30.1896 29.3427 30.3019 30.2179 29.9045 32.0063C29.8218 32.4376 29.7088 32.8625 29.5662 33.2778C28.8022 35.4068 27.1368 37.1124 25.4395 38.0196C24.9658 38.2714 24.4687 38.4762 23.9551 38.6311V9.27662L28.7832 9.24823C28.7798 9.62484 28.832 9.99989 28.9382 10.3612C28.95 10.4003 28.9618 10.4369 28.9748 10.4795L29.4278 10.4712C29.7619 11.6734 30.3281 12.7985 31.0944 13.783C31.3359 14.091 31.5966 14.3833 31.875 14.6583C33.1619 15.6968 34.6404 15.9901 35.5677 16.0777C35.5736 16.3686 35.5807 16.6596 35.5866 16.9506C36.0672 17.1206 36.5593 17.2562 37.0592 17.3563Z"
      fill="black"
    />
  </g>
  <defs>
    <clipPath id="tiktok-clip">
      <rect width="48" height="48" fill="white" />
    </clipPath>
  </defs>
</svg>
